# Blender 5.2.1 LTS
# www.blender.org
mtllib hammer_brute.mtl
o Cube
v -0.700000 0.700000 0.500000
v -0.700000 1.900000 0.500000
v -0.700000 0.700000 -0.500000
v -0.700000 1.900000 -0.500000
v 0.700000 0.700000 0.500000
v 0.700000 1.900000 0.500000
v 0.700000 0.700000 -0.500000
v 0.700000 1.900000 -0.500000
vn -1.0000 -0.0000 -0.0000
vn -0.0000 -0.0000 -1.0000
vn 1.0000 -0.0000 -0.0000
vn -0.0000 -0.0000 1.0000
vn -0.0000 -1.0000 -0.0000
vn -0.0000 1.0000 -0.0000
vt 0.375000 0.000000
vt 0.625000 0.000000
vt 0.625000 0.250000
vt 0.375000 0.250000
vt 0.625000 0.500000
vt 0.375000 0.500000
vt 0.625000 0.750000
vt 0.375000 0.750000
vt 0.625000 1.000000
vt 0.375000 1.000000
vt 0.125000 0.500000
vt 0.125000 0.750000
vt 0.875000 0.500000
vt 0.875000 0.750000
s 0
usemtl Mat_DarkStone
f 1/1/1 2/2/1 4/3/1 3/4/1
f 3/4/2 4/3/2 8/5/2 7/6/2
f 7/6/3 8/5/3 6/7/3 5/8/3
f 5/8/4 6/7/4 2/9/4 1/10/4
f 3/11/5 7/6/5 5/8/5 1/12/5
f 8/5/6 4/13/6 2/14/6 6/7/6
o Cone
v -0.726187 1.600000 -0.180213
v -0.688604 1.600000 -0.201369
v -0.647617 1.600000 -0.214785
v -0.604799 1.600000 -0.219948
v -0.561797 1.600000 -0.216658
v -0.520264 1.600000 -0.205042
v -0.481794 1.600000 -0.185546
v -0.447867 1.600000 -0.158920
v -0.419787 1.600000 -0.126187
v -0.398632 1.600000 -0.088604
v -0.385215 1.600000 -0.047617
v -0.380052 1.600000 -0.004799
v -0.383342 1.600000 0.038203
v -0.394958 1.600000 0.079736
v -0.414454 1.600000 0.118206
v -0.441080 1.600000 0.152133
v -0.473813 1.600000 0.180213
v -0.511396 1.600000 0.201369
v -0.552383 1.600000 0.214785
v -0.595201 1.600000 0.219948
v -0.638203 1.600000 0.216658
v -0.679736 1.600000 0.205042
v -0.718206 1.600000 0.185546
v -0.752133 1.600000 0.158920
v -0.780213 1.600000 0.126187
v -0.801369 1.600000 0.088604
v -0.814785 1.600000 0.047617
v -0.819948 1.600000 0.004799
v -0.816658 1.600000 -0.038203
v -0.805042 1.600000 -0.079736
v -0.785546 1.600000 -0.118206
v -0.758920 1.600000 -0.152133
v -0.600000 2.400000 0.000000
vn -0.4731 0.2640 -0.8405
vn -0.3001 0.2640 -0.9167
vn -0.1155 0.2640 -0.9576
vn 0.0736 0.2640 -0.9617
vn 0.2598 0.2640 -0.9289
vn 0.4360 0.2640 -0.8604
vn 0.5955 0.2640 -0.7588
vn 0.7321 0.2640 -0.6280
vn 0.8405 0.2640 -0.4731
vn 0.9167 0.2640 -0.3001
vn 0.9576 0.2640 -0.1155
vn 0.9617 0.2640 0.0736
vn 0.9289 0.2640 0.2598
vn 0.8604 0.2640 0.4360
vn 0.7588 0.2640 0.5955
vn 0.6280 0.2640 0.7321
vn 0.4731 0.2640 0.8405
vn 0.3001 0.2640 0.9167
vn 0.1155 0.2640 0.9576
vn -0.0736 0.2640 0.9617
vn -0.2598 0.2640 0.9289
vn -0.4360 0.2640 0.8604
vn -0.5955 0.2640 0.7588
vn -0.7321 0.2640 0.6280
vn -0.8405 0.2640 0.4731
vn -0.9167 0.2640 0.3001
vn -0.9576 0.2640 0.1155
vn -0.9617 0.2640 -0.0736
vn -0.9289 0.2640 -0.2598
vn -0.8604 0.2640 -0.4360
vn -0.0000 -1.0000 -0.0000
vn -0.7588 0.2640 -0.5955
vn -0.6280 0.2640 -0.7321
vt 0.250000 0.490000
vt 0.250000 0.250000
vt 0.296822 0.485388
vt 0.341844 0.471731
vt 0.383337 0.449553
vt 0.419706 0.419706
vt 0.449553 0.383337
vt 0.471731 0.341844
vt 0.485388 0.296822
vt 0.490000 0.250000
vt 0.485388 0.203178
vt 0.471731 0.158156
vt 0.449553 0.116663
vt 0.419706 0.080294
vt 0.383337 0.050447
vt 0.341844 0.028269
vt 0.296822 0.014612
vt 0.250000 0.010000
vt 0.203178 0.014612
vt 0.158156 0.028269
vt 0.116663 0.050447
vt 0.080294 0.080294
vt 0.050447 0.116663
vt 0.028269 0.158156
vt 0.014612 0.203178
vt 0.010000 0.250000
vt 0.014612 0.296822
vt 0.028269 0.341844
vt 0.050447 0.383337
vt 0.080294 0.419706
vt 0.116663 0.449553
vt 0.158156 0.471731
vt 0.750000 0.490000
vt 0.796822 0.485388
vt 0.841844 0.471731
vt 0.883337 0.449553
vt 0.919706 0.419706
vt 0.949553 0.383337
vt 0.971731 0.341844
vt 0.985388 0.296822
vt 0.990000 0.250000
vt 0.985388 0.203178
vt 0.971731 0.158156
vt 0.949553 0.116663
vt 0.919706 0.080294
vt 0.883337 0.050447
vt 0.841844 0.028269
vt 0.796822 0.014612
vt 0.750000 0.010000
vt 0.703178 0.014612
vt 0.658156 0.028269
vt 0.616663 0.050447
vt 0.580294 0.080294
vt 0.550447 0.116663
vt 0.528269 0.158156
vt 0.514612 0.203178
vt 0.510000 0.250000
vt 0.514612 0.296822
vt 0.528269 0.341844
vt 0.550447 0.383337
vt 0.580294 0.419706
vt 0.616663 0.449553
vt 0.658156 0.471731
vt 0.703178 0.485388
vt 0.203178 0.485388
s 0
usemtl Mat_Horns
f 9/15/7 41/16/7 10/17/7
f 10/17/8 41/16/8 11/18/8
f 11/18/9 41/16/9 12/19/9
f 12/19/10 41/16/10 13/20/10
f 13/20/11 41/16/11 14/21/11
f 14/21/12 41/16/12 15/22/12
f 15/22/13 41/16/13 16/23/13
f 16/23/14 41/16/14 17/24/14
f 17/24/15 41/16/15 18/25/15
f 18/25/16 41/16/16 19/26/16
f 19/26/17 41/16/17 20/27/17
f 20/27/18 41/16/18 21/28/18
f 21/28/19 41/16/19 22/29/19
f 22/29/20 41/16/20 23/30/20
f 23/30/21 41/16/21 24/31/21
f 24/31/22 41/16/22 25/32/22
f 25/32/23 41/16/23 26/33/23
f 26/33/24 41/16/24 27/34/24
f 27/34/25 41/16/25 28/35/25
f 28/35/26 41/16/26 29/36/26
f 29/36/27 41/16/27 30/37/27
f 30/37/28 41/16/28 31/38/28
f 31/38/29 41/16/29 32/39/29
f 32/39/30 41/16/30 33/40/30
f 33/40/31 41/16/31 34/41/31
f 34/41/32 41/16/32 35/42/32
f 35/42/33 41/16/33 36/43/33
f 36/43/34 41/16/34 37/44/34
f 37/44/35 41/16/35 38/45/35
f 38/45/36 41/16/36 39/46/36
f 9/47/37 10/48/37 11/49/37 12/50/37 13/51/37 14/52/37 15/53/37 16/54/37 17/55/37 18/56/37 19/57/37 20/58/37 21/59/37 22/60/37 23/61/37 24/62/37 25/63/37 26/64/37 27/65/37 28/66/37 29/67/37 30/68/37 31/69/37 32/70/37 33/71/37 34/72/37 35/73/37 36/74/37 37/75/37 38/76/37 39/77/37 40/78/37
f 39/46/38 41/16/38 40/79/38
f 40/79/39 41/16/39 9/15/39
o Cone.001
v 0.726187 1.600000 -0.180213
v 0.758920 1.600000 -0.152133
v 0.785546 1.600000 -0.118206
v 0.805042 1.600000 -0.079736
v 0.816658 1.600000 -0.038203
v 0.819948 1.600000 0.004799
v 0.814785 1.600000 0.047617
v 0.801369 1.600000 0.088604
v 0.780213 1.600000 0.126187
v 0.752133 1.600000 0.158920
v 0.718206 1.600000 0.185546
v 0.679736 1.600000 0.205042
v 0.638203 1.600000 0.216658
v 0.595201 1.600000 0.219948
v 0.552383 1.600000 0.214785
v 0.511396 1.600000 0.201369
v 0.473813 1.600000 0.180213
v 0.441080 1.600000 0.152133
v 0.414454 1.600000 0.118206
v 0.394958 1.600000 0.079736
v 0.383342 1.600000 0.038203
v 0.380052 1.600000 -0.004799
v 0.385215 1.600000 -0.047617
v 0.398632 1.600000 -0.088604
v 0.419787 1.600000 -0.126187
v 0.447867 1.600000 -0.158920
v 0.481794 1.600000 -0.185546
v 0.520264 1.600000 -0.205042
v 0.561797 1.600000 -0.216658
v 0.604799 1.600000 -0.219948
v 0.647617 1.600000 -0.214785
v 0.688604 1.600000 -0.201369
v 0.600000 2.400000 0.000000
vn 0.6280 0.2640 -0.7321
vn 0.7588 0.2640 -0.5955
vn 0.8604 0.2640 -0.4360
vn 0.9289 0.2640 -0.2598
vn 0.9617 0.2640 -0.0736
vn 0.9576 0.2640 0.1155
vn 0.9167 0.2640 0.3001
vn 0.8405 0.2640 0.4731
vn 0.7321 0.2640 0.6280
vn 0.5955 0.2640 0.7588
vn 0.4360 0.2640 0.8604
vn 0.2598 0.2640 0.9289
vn 0.0736 0.2640 0.9617
vn -0.1155 0.2640 0.9576
vn -0.3001 0.2640 0.9167
vn -0.4731 0.2640 0.8405
vn -0.6280 0.2640 0.7321
vn -0.7588 0.2640 0.5955
vn -0.8604 0.2640 0.4360
vn -0.9289 0.2640 0.2598
vn -0.9617 0.2640 0.0736
vn -0.9576 0.2640 -0.1155
vn -0.9167 0.2640 -0.3001
vn -0.8405 0.2640 -0.4731
vn -0.7321 0.2640 -0.6280
vn -0.5955 0.2640 -0.7588
vn -0.4360 0.2640 -0.8604
vn -0.2598 0.2640 -0.9289
vn -0.0736 0.2640 -0.9617
vn 0.1155 0.2640 -0.9576
vn -0.0000 -1.0000 -0.0000
vn 0.3001 0.2640 -0.9167
vn 0.4731 0.2640 -0.8405
vt 0.250000 0.490000
vt 0.250000 0.250000
vt 0.296822 0.485388
vt 0.341844 0.471731
vt 0.383337 0.449553
vt 0.419706 0.419706
vt 0.449553 0.383337
vt 0.471731 0.341844
vt 0.485388 0.296822
vt 0.490000 0.250000
vt 0.485388 0.203178
vt 0.471731 0.158156
vt 0.449553 0.116663
vt 0.419706 0.080294
vt 0.383337 0.050447
vt 0.341844 0.028269
vt 0.296822 0.014612
vt 0.250000 0.010000
vt 0.203178 0.014612
vt 0.158156 0.028269
vt 0.116663 0.050447
vt 0.080294 0.080294
vt 0.050447 0.116663
vt 0.028269 0.158156
vt 0.014612 0.203178
vt 0.010000 0.250000
vt 0.014612 0.296822
vt 0.028269 0.341844
vt 0.050447 0.383337
vt 0.080294 0.419706
vt 0.116663 0.449553
vt 0.158156 0.471731
vt 0.750000 0.490000
vt 0.796822 0.485388
vt 0.841844 0.471731
vt 0.883337 0.449553
vt 0.919706 0.419706
vt 0.949553 0.383337
vt 0.971731 0.341844
vt 0.985388 0.296822
vt 0.990000 0.250000
vt 0.985388 0.203178
vt 0.971731 0.158156
vt 0.949553 0.116663
vt 0.919706 0.080294
vt 0.883337 0.050447
vt 0.841844 0.028269
vt 0.796822 0.014612
vt 0.750000 0.010000
vt 0.703178 0.014612
vt 0.658156 0.028269
vt 0.616663 0.050447
vt 0.580294 0.080294
vt 0.550447 0.116663
vt 0.528269 0.158156
vt 0.514612 0.203178
vt 0.510000 0.250000
vt 0.514612 0.296822
vt 0.528269 0.341844
vt 0.550447 0.383337
vt 0.580294 0.419706
vt 0.616663 0.449553
vt 0.658156 0.471731
vt 0.703178 0.485388
vt 0.203178 0.485388
s 0
usemtl Mat_Horns
f 42/80/40 74/81/40 43/82/40
f 43/82/41 74/81/41 44/83/41
f 44/83/42 74/81/42 45/84/42
f 45/84/43 74/81/43 46/85/43
f 46/85/44 74/81/44 47/86/44
f 47/86/45 74/81/45 48/87/45
f 48/87/46 74/81/46 49/88/46
f 49/88/47 74/81/47 50/89/47
f 50/89/48 74/81/48 51/90/48
f 51/90/49 74/81/49 52/91/49
f 52/91/50 74/81/50 53/92/50
f 53/92/51 74/81/51 54/93/51
f 54/93/52 74/81/52 55/94/52
f 55/94/53 74/81/53 56/95/53
f 56/95/54 74/81/54 57/96/54
f 57/96/55 74/81/55 58/97/55
f 58/97/56 74/81/56 59/98/56
f 59/98/57 74/81/57 60/99/57
f 60/99/58 74/81/58 61/100/58
f 61/100/59 74/81/59 62/101/59
f 62/101/60 74/81/60 63/102/60
f 63/102/61 74/81/61 64/103/61
f 64/103/62 74/81/62 65/104/62
f 65/104/63 74/81/63 66/105/63
f 66/105/64 74/81/64 67/106/64
f 67/106/65 74/81/65 68/107/65
f 68/107/66 74/81/66 69/108/66
f 69/108/67 74/81/67 70/109/67
f 70/109/68 74/81/68 71/110/68
f 71/110/69 74/81/69 72/111/69
f 42/112/70 43/113/70 44/114/70 45/115/70 46/116/70 47/117/70 48/118/70 49/119/70 50/120/70 51/121/70 52/122/70 53/123/70 54/124/70 55/125/70 56/126/70 57/127/70 58/128/70 59/129/70 60/130/70 61/131/70 62/132/70 63/133/70 64/134/70 65/135/70 66/136/70 67/137/70 68/138/70 69/139/70 70/140/70 71/141/70 72/142/70 73/143/70
f 72/111/71 74/81/71 73/144/71
f 73/144/72 74/81/72 42/80/72
o Cylinder
v 1.000000 0.000000 0.100000
v 1.000000 2.400000 0.100000
v 1.019509 0.000000 0.101921
v 1.019509 2.400000 0.101921
v 1.038268 0.000000 0.107612
v 1.038268 2.400000 0.107612
v 1.055557 0.000000 0.116853
v 1.055557 2.400000 0.116853
v 1.070711 0.000000 0.129289
v 1.070711 2.400000 0.129289
v 1.083147 0.000000 0.144443
v 1.083147 2.400000 0.144443
v 1.092388 0.000000 0.161732
v 1.092388 2.400000 0.161732
v 1.098078 0.000000 0.180491
v 1.098078 2.400000 0.180491
v 1.100000 0.000000 0.200000
v 1.100000 2.400000 0.200000
v 1.098078 0.000000 0.219509
v 1.098078 2.400000 0.219509
v 1.092388 0.000000 0.238268
v 1.092388 2.400000 0.238268
v 1.083147 0.000000 0.255557
v 1.083147 2.400000 0.255557
v 1.070711 0.000000 0.270711
v 1.070711 2.400000 0.270711
v 1.055557 0.000000 0.283147
v 1.055557 2.400000 0.283147
v 1.038268 0.000000 0.292388
v 1.038268 2.400000 0.292388
v 1.019509 0.000000 0.298079
v 1.019509 2.400000 0.298079
v 1.000000 0.000000 0.300000
v 1.000000 2.400000 0.300000
v 0.980491 0.000000 0.298079
v 0.980491 2.400000 0.298079
v 0.961732 0.000000 0.292388
v 0.961732 2.400000 0.292388
v 0.944443 0.000000 0.283147
v 0.944443 2.400000 0.283147
v 0.929289 0.000000 0.270711
v 0.929289 2.400000 0.270711
v 0.916853 0.000000 0.255557
v 0.916853 2.400000 0.255557
v 0.907612 0.000000 0.238268
v 0.907612 2.400000 0.238268
v 0.901921 0.000000 0.219509
v 0.901921 2.400000 0.219509
v 0.900000 0.000000 0.200000
v 0.900000 2.400000 0.200000
v 0.901921 0.000000 0.180491
v 0.901921 2.400000 0.180491
v 0.907612 0.000000 0.161732
v 0.907612 2.400000 0.161732
v 0.916853 0.000000 0.144443
v 0.916853 2.400000 0.144443
v 0.929289 0.000000 0.129289
v 0.929289 2.400000 0.129289
v 0.944443 0.000000 0.116853
v 0.944443 2.400000 0.116853
v 0.961732 0.000000 0.107612
v 0.961732 2.400000 0.107612
v 0.980491 0.000000 0.101921
v 0.980491 2.400000 0.101921
vn 0.0980 -0.0000 -0.9952
vn 0.2903 -0.0000 -0.9569
vn 0.4714 -0.0000 -0.8819
vn 0.6344 -0.0000 -0.7730
vn 0.7730 -0.0000 -0.6344
vn 0.8819 -0.0000 -0.4714
vn 0.9569 -0.0000 -0.2903
vn 0.9952 -0.0000 -0.0980
vn 0.9952 -0.0000 0.0980
vn 0.9569 -0.0000 0.2903
vn 0.8819 -0.0000 0.4714
vn 0.7730 -0.0000 0.6344
vn 0.6344 -0.0000 0.7730
vn 0.4714 -0.0000 0.8819
vn 0.2903 -0.0000 0.9569
vn 0.0980 -0.0000 0.9952
vn -0.0980 -0.0000 0.9952
vn -0.2903 -0.0000 0.9569
vn -0.4714 -0.0000 0.8819
vn -0.6344 -0.0000 0.7730
vn -0.7730 -0.0000 0.6344
vn -0.8819 -0.0000 0.4714
vn -0.9569 -0.0000 0.2903
vn -0.9952 -0.0000 0.0980
vn -0.9952 -0.0000 -0.0980
vn -0.9569 -0.0000 -0.2903
vn -0.8819 -0.0000 -0.4714
vn -0.7730 -0.0000 -0.6344
vn -0.6344 -0.0000 -0.7730
vn -0.4714 -0.0000 -0.8819
vn -0.0000 1.0000 -0.0000
vn -0.2903 -0.0000 -0.9569
vn -0.0980 -0.0000 -0.9952
vn -0.0000 -1.0000 -0.0000
vt 1.000000 0.500000
vt 1.000000 1.000000
vt 0.968750 1.000000
vt 0.968750 0.500000
vt 0.937500 1.000000
vt 0.937500 0.500000
vt 0.906250 1.000000
vt 0.906250 0.500000
vt 0.875000 1.000000
vt 0.875000 0.500000
vt 0.843750 1.000000
vt 0.843750 0.500000
vt 0.812500 1.000000
vt 0.812500 0.500000
vt 0.781250 1.000000
vt 0.781250 0.500000
vt 0.750000 1.000000
vt 0.750000 0.500000
vt 0.718750 1.000000
vt 0.718750 0.500000
vt 0.687500 1.000000
vt 0.687500 0.500000
vt 0.656250 1.000000
vt 0.656250 0.500000
vt 0.625000 1.000000
vt 0.625000 0.500000
vt 0.593750 1.000000
vt 0.593750 0.500000
vt 0.562500 1.000000
vt 0.562500 0.500000
vt 0.531250 1.000000
vt 0.531250 0.500000
vt 0.500000 1.000000
vt 0.500000 0.500000
vt 0.468750 1.000000
vt 0.468750 0.500000
vt 0.437500 1.000000
vt 0.437500 0.500000
vt 0.406250 1.000000
vt 0.406250 0.500000
vt 0.375000 1.000000
vt 0.375000 0.500000
vt 0.343750 1.000000
vt 0.343750 0.500000
vt 0.312500 1.000000
vt 0.312500 0.500000
vt 0.281250 1.000000
vt 0.281250 0.500000
vt 0.250000 1.000000
vt 0.250000 0.500000
vt 0.218750 1.000000
vt 0.218750 0.500000
vt 0.187500 1.000000
vt 0.187500 0.500000
vt 0.156250 1.000000
vt 0.156250 0.500000
vt 0.125000 1.000000
vt 0.125000 0.500000
vt 0.093750 1.000000
vt 0.093750 0.500000
vt 0.062500 1.000000
vt 0.062500 0.500000
vt 0.296822 0.485388
vt 0.250000 0.490000
vt 0.203178 0.485388
vt 0.158156 0.471731
vt 0.116663 0.449553
vt 0.080294 0.419706
vt 0.050447 0.383337
vt 0.028269 0.341844
vt 0.014612 0.296822
vt 0.010000 0.250000
vt 0.014612 0.203178
vt 0.028269 0.158156
vt 0.050447 0.116663
vt 0.080294 0.080294
vt 0.116663 0.050447
vt 0.158156 0.028269
vt 0.203178 0.014612
vt 0.250000 0.010000
vt 0.296822 0.014612
vt 0.341844 0.028269
vt 0.383337 0.050447
vt 0.419706 0.080294
vt 0.449553 0.116663
vt 0.471731 0.158156
vt 0.485388 0.203178
vt 0.490000 0.250000
vt 0.485388 0.296822
vt 0.471731 0.341844
vt 0.449553 0.383337
vt 0.419706 0.419706
vt 0.383337 0.449553
vt 0.341844 0.471731
vt 0.031250 1.000000
vt 0.031250 0.500000
vt 0.000000 1.000000
vt 0.000000 0.500000
vt 0.750000 0.490000
vt 0.796822 0.485388
vt 0.841844 0.471731
vt 0.883337 0.449553
vt 0.919706 0.419706
vt 0.949553 0.383337
vt 0.971731 0.341844
vt 0.985388 0.296822
vt 0.990000 0.250000
vt 0.985388 0.203178
vt 0.971731 0.158156
vt 0.949553 0.116663
vt 0.919706 0.080294
vt 0.883337 0.050447
vt 0.841844 0.028269
vt 0.796822 0.014612
vt 0.750000 0.010000
vt 0.703178 0.014612
vt 0.658156 0.028269
vt 0.616663 0.050447
vt 0.580294 0.080294
vt 0.550447 0.116663
vt 0.528269 0.158156
vt 0.514612 0.203178
vt 0.510000 0.250000
vt 0.514612 0.296822
vt 0.528269 0.341844
vt 0.550447 0.383337
vt 0.580294 0.419706
vt 0.616663 0.449553
vt 0.658156 0.471731
vt 0.703178 0.485388
s 0
usemtl Mat_DarkStone
f 75/145/73 76/146/73 78/147/73 77/148/73
f 77/148/74 78/147/74 80/149/74 79/150/74
f 79/150/75 80/149/75 82/151/75 81/152/75
f 81/152/76 82/151/76 84/153/76 83/154/76
f 83/154/77 84/153/77 86/155/77 85/156/77
f 85/156/78 86/155/78 88/157/78 87/158/78
f 87/158/79 88/157/79 90/159/79 89/160/79
f 89/160/80 90/159/80 92/161/80 91/162/80
f 91/162/81 92/161/81 94/163/81 93/164/81
f 93/164/82 94/163/82 96/165/82 95/166/82
f 95/166/83 96/165/83 98/167/83 97/168/83
f 97/168/84 98/167/84 100/169/84 99/170/84
f 99/170/85 100/169/85 102/171/85 101/172/85
f 101/172/86 102/171/86 104/173/86 103/174/86
f 103/174/87 104/173/87 106/175/87 105/176/87
f 105/176/88 106/175/88 108/177/88 107/178/88
f 107/178/89 108/177/89 110/179/89 109/180/89
f 109/180/90 110/179/90 112/181/90 111/182/90
f 111/182/91 112/181/91 114/183/91 113/184/91
f 113/184/92 114/183/92 116/185/92 115/186/92
f 115/186/93 116/185/93 118/187/93 117/188/93
f 117/188/94 118/187/94 120/189/94 119/190/94
f 119/190/95 120/189/95 122/191/95 121/192/95
f 121/192/96 122/191/96 124/193/96 123/194/96
f 123/194/97 124/193/97 126/195/97 125/196/97
f 125/196/98 126/195/98 128/197/98 127/198/98
f 127/198/99 128/197/99 130/199/99 129/200/99
f 129/200/100 130/199/100 132/201/100 131/202/100
f 131/202/101 132/201/101 134/203/101 133/204/101
f 133/204/102 134/203/102 136/205/102 135/206/102
f 78/207/103 76/208/103 138/209/103 136/210/103 134/211/103 132/212/103 130/213/103 128/214/103 126/215/103 124/216/103 122/217/103 120/218/103 118/219/103 116/220/103 114/221/103 112/222/103 110/223/103 108/224/103 106/225/103 104/226/103 102/227/103 100/228/103 98/229/103 96/230/103 94/231/103 92/232/103 90/233/103 88/234/103 86/235/103 84/236/103 82/237/103 80/238/103
f 135/206/104 136/205/104 138/239/104 137/240/104
f 137/240/105 138/239/105 76/241/105 75/242/105
f 75/243/106 77/244/106 79/245/106 81/246/106 83/247/106 85/248/106 87/249/106 89/250/106 91/251/106 93/252/106 95/253/106 97/254/106 99/255/106 101/256/106 103/257/106 105/258/106 107/259/106 109/260/106 111/261/106 113/262/106 115/263/106 117/264/106 119/265/106 121/266/106 123/267/106 125/268/106 127/269/106 129/270/106 131/271/106 133/272/106 135/273/106 137/274/106
o Cube.001
v 0.650000 1.950000 0.800000
v 0.650000 2.650000 0.800000
v 0.650000 1.950000 -0.400000
v 0.650000 2.650000 -0.400000
v 1.350000 1.950000 0.800000
v 1.350000 2.650000 0.800000
v 1.350000 1.950000 -0.400000
v 1.350000 2.650000 -0.400000
vn -1.0000 -0.0000 -0.0000
vn -0.0000 -0.0000 -1.0000
vn 1.0000 -0.0000 -0.0000
vn -0.0000 -0.0000 1.0000
vn -0.0000 -1.0000 -0.0000
vn -0.0000 1.0000 -0.0000
vt 0.375000 0.000000
vt 0.625000 0.000000
vt 0.625000 0.250000
vt 0.375000 0.250000
vt 0.625000 0.500000
vt 0.375000 0.500000
vt 0.625000 0.750000
vt 0.375000 0.750000
vt 0.625000 1.000000
vt 0.375000 1.000000
vt 0.125000 0.500000
vt 0.125000 0.750000
vt 0.875000 0.500000
vt 0.875000 0.750000
s 0
usemtl Mat_Iron
f 139/275/107 140/276/107 142/277/107 141/278/107
f 141/278/108 142/277/108 146/279/108 145/280/108
f 145/280/109 146/279/109 144/281/109 143/282/109
f 143/282/110 144/281/110 140/283/110 139/284/110
f 141/285/111 145/280/111 143/282/111 139/286/111
f 146/279/112 142/287/112 140/288/112 144/281/112
