# Blender 5.2.1 LTS
# www.blender.org
mtllib megabonk_club.mtl
o Weapon_Shaft
v 0.000000 0.000000 -0.080000
v 0.000000 2.400000 -0.080000
v 0.015607 0.000000 -0.078463
v 0.015607 2.400000 -0.078463
v 0.030615 0.000000 -0.073910
v 0.030615 2.400000 -0.073910
v 0.044446 0.000000 -0.066518
v 0.044446 2.400000 -0.066518
v 0.056569 0.000000 -0.056569
v 0.056569 2.400000 -0.056569
v 0.066518 0.000000 -0.044446
v 0.066518 2.400000 -0.044446
v 0.073910 0.000000 -0.030615
v 0.073910 2.400000 -0.030615
v 0.078463 0.000000 -0.015607
v 0.078463 2.400000 -0.015607
v 0.080000 0.000000 0.000000
v 0.080000 2.400000 0.000000
v 0.078463 0.000000 0.015607
v 0.078463 2.400000 0.015607
v 0.073910 0.000000 0.030615
v 0.073910 2.400000 0.030615
v 0.066518 0.000000 0.044446
v 0.066518 2.400000 0.044446
v 0.056569 0.000000 0.056569
v 0.056569 2.400000 0.056569
v 0.044446 0.000000 0.066518
v 0.044446 2.400000 0.066518
v 0.030615 0.000000 0.073910
v 0.030615 2.400000 0.073910
v 0.015607 0.000000 0.078463
v 0.015607 2.400000 0.078463
v 0.000000 0.000000 0.080000
v 0.000000 2.400000 0.080000
v -0.015607 0.000000 0.078463
v -0.015607 2.400000 0.078463
v -0.030615 0.000000 0.073910
v -0.030615 2.400000 0.073910
v -0.044446 0.000000 0.066518
v -0.044446 2.400000 0.066518
v -0.056569 0.000000 0.056569
v -0.056569 2.400000 0.056569
v -0.066518 0.000000 0.044446
v -0.066518 2.400000 0.044446
v -0.073910 0.000000 0.030615
v -0.073910 2.400000 0.030615
v -0.078463 0.000000 0.015607
v -0.078463 2.400000 0.015607
v -0.080000 0.000000 0.000000
v -0.080000 2.400000 0.000000
v -0.078463 0.000000 -0.015607
v -0.078463 2.400000 -0.015607
v -0.073910 0.000000 -0.030615
v -0.073910 2.400000 -0.030615
v -0.066518 0.000000 -0.044446
v -0.066518 2.400000 -0.044446
v -0.056569 0.000000 -0.056569
v -0.056569 2.400000 -0.056569
v -0.044446 0.000000 -0.066518
v -0.044446 2.400000 -0.066518
v -0.030615 0.000000 -0.073910
v -0.030615 2.400000 -0.073910
v -0.015607 0.000000 -0.078463
v -0.015607 2.400000 -0.078463
vn 0.0980 -0.0000 -0.9952
vn 0.2903 -0.0000 -0.9569
vn 0.4714 -0.0000 -0.8819
vn 0.6344 -0.0000 -0.7730
vn 0.7730 -0.0000 -0.6344
vn 0.8819 -0.0000 -0.4714
vn 0.9569 -0.0000 -0.2903
vn 0.9952 -0.0000 -0.0980
vn 0.9952 -0.0000 0.0980
vn 0.9569 -0.0000 0.2903
vn 0.8819 -0.0000 0.4714
vn 0.7730 -0.0000 0.6344
vn 0.6344 -0.0000 0.7730
vn 0.4714 -0.0000 0.8819
vn 0.2903 -0.0000 0.9569
vn 0.0980 -0.0000 0.9952
vn -0.0980 -0.0000 0.9952
vn -0.2903 -0.0000 0.9569
vn -0.4714 -0.0000 0.8819
vn -0.6344 -0.0000 0.7730
vn -0.7730 -0.0000 0.6344
vn -0.8819 -0.0000 0.4714
vn -0.9569 -0.0000 0.2903
vn -0.9952 -0.0000 0.0980
vn -0.9952 -0.0000 -0.0980
vn -0.9569 -0.0000 -0.2903
vn -0.8819 -0.0000 -0.4714
vn -0.7730 -0.0000 -0.6344
vn -0.6344 -0.0000 -0.7730
vn -0.4714 -0.0000 -0.8819
vn -0.0000 1.0000 -0.0000
vn -0.2903 -0.0000 -0.9569
vn -0.0980 -0.0000 -0.9952
vn -0.0000 -1.0000 -0.0000
vt 1.000000 0.500000
vt 1.000000 1.000000
vt 0.968750 1.000000
vt 0.968750 0.500000
vt 0.937500 1.000000
vt 0.937500 0.500000
vt 0.906250 1.000000
vt 0.906250 0.500000
vt 0.875000 1.000000
vt 0.875000 0.500000
vt 0.843750 1.000000
vt 0.843750 0.500000
vt 0.812500 1.000000
vt 0.812500 0.500000
vt 0.781250 1.000000
vt 0.781250 0.500000
vt 0.750000 1.000000
vt 0.750000 0.500000
vt 0.718750 1.000000
vt 0.718750 0.500000
vt 0.687500 1.000000
vt 0.687500 0.500000
vt 0.656250 1.000000
vt 0.656250 0.500000
vt 0.625000 1.000000
vt 0.625000 0.500000
vt 0.593750 1.000000
vt 0.593750 0.500000
vt 0.562500 1.000000
vt 0.562500 0.500000
vt 0.531250 1.000000
vt 0.531250 0.500000
vt 0.500000 1.000000
vt 0.500000 0.500000
vt 0.468750 1.000000
vt 0.468750 0.500000
vt 0.437500 1.000000
vt 0.437500 0.500000
vt 0.406250 1.000000
vt 0.406250 0.500000
vt 0.375000 1.000000
vt 0.375000 0.500000
vt 0.343750 1.000000
vt 0.343750 0.500000
vt 0.312500 1.000000
vt 0.312500 0.500000
vt 0.281250 1.000000
vt 0.281250 0.500000
vt 0.250000 1.000000
vt 0.250000 0.500000
vt 0.218750 1.000000
vt 0.218750 0.500000
vt 0.187500 1.000000
vt 0.187500 0.500000
vt 0.156250 1.000000
vt 0.156250 0.500000
vt 0.125000 1.000000
vt 0.125000 0.500000
vt 0.093750 1.000000
vt 0.093750 0.500000
vt 0.062500 1.000000
vt 0.062500 0.500000
vt 0.296822 0.485388
vt 0.250000 0.490000
vt 0.203178 0.485388
vt 0.158156 0.471731
vt 0.116663 0.449553
vt 0.080294 0.419706
vt 0.050447 0.383337
vt 0.028269 0.341844
vt 0.014612 0.296822
vt 0.010000 0.250000
vt 0.014612 0.203178
vt 0.028269 0.158156
vt 0.050447 0.116663
vt 0.080294 0.080294
vt 0.116663 0.050447
vt 0.158156 0.028269
vt 0.203178 0.014612
vt 0.250000 0.010000
vt 0.296822 0.014612
vt 0.341844 0.028269
vt 0.383337 0.050447
vt 0.419706 0.080294
vt 0.449553 0.116663
vt 0.471731 0.158156
vt 0.485388 0.203178
vt 0.490000 0.250000
vt 0.485388 0.296822
vt 0.471731 0.341844
vt 0.449553 0.383337
vt 0.419706 0.419706
vt 0.383337 0.449553
vt 0.341844 0.471731
vt 0.031250 1.000000
vt 0.031250 0.500000
vt 0.000000 1.000000
vt 0.000000 0.500000
vt 0.750000 0.490000
vt 0.796822 0.485388
vt 0.841844 0.471731
vt 0.883337 0.449553
vt 0.919706 0.419706
vt 0.949553 0.383337
vt 0.971731 0.341844
vt 0.985388 0.296822
vt 0.990000 0.250000
vt 0.985388 0.203178
vt 0.971731 0.158156
vt 0.949553 0.116663
vt 0.919706 0.080294
vt 0.883337 0.050447
vt 0.841844 0.028269
vt 0.796822 0.014612
vt 0.750000 0.010000
vt 0.703178 0.014612
vt 0.658156 0.028269
vt 0.616663 0.050447
vt 0.580294 0.080294
vt 0.550447 0.116663
vt 0.528269 0.158156
vt 0.514612 0.203178
vt 0.510000 0.250000
vt 0.514612 0.296822
vt 0.528269 0.341844
vt 0.550447 0.383337
vt 0.580294 0.419706
vt 0.616663 0.449553
vt 0.658156 0.471731
vt 0.703178 0.485388
s 0
usemtl Mat_Wood
f 1/1/1 2/2/1 4/3/1 3/4/1
f 3/4/2 4/3/2 6/5/2 5/6/2
f 5/6/3 6/5/3 8/7/3 7/8/3
f 7/8/4 8/7/4 10/9/4 9/10/4
f 9/10/5 10/9/5 12/11/5 11/12/5
f 11/12/6 12/11/6 14/13/6 13/14/6
f 13/14/7 14/13/7 16/15/7 15/16/7
f 15/16/8 16/15/8 18/17/8 17/18/8
f 17/18/9 18/17/9 20/19/9 19/20/9
f 19/20/10 20/19/10 22/21/10 21/22/10
f 21/22/11 22/21/11 24/23/11 23/24/11
f 23/24/12 24/23/12 26/25/12 25/26/12
f 25/26/13 26/25/13 28/27/13 27/28/13
f 27/28/14 28/27/14 30/29/14 29/30/14
f 29/30/15 30/29/15 32/31/15 31/32/15
f 31/32/16 32/31/16 34/33/16 33/34/16
f 33/34/17 34/33/17 36/35/17 35/36/17
f 35/36/18 36/35/18 38/37/18 37/38/18
f 37/38/19 38/37/19 40/39/19 39/40/19
f 39/40/20 40/39/20 42/41/20 41/42/20
f 41/42/21 42/41/21 44/43/21 43/44/21
f 43/44/22 44/43/22 46/45/22 45/46/22
f 45/46/23 46/45/23 48/47/23 47/48/23
f 47/48/24 48/47/24 50/49/24 49/50/24
f 49/50/25 50/49/25 52/51/25 51/52/25
f 51/52/26 52/51/26 54/53/26 53/54/26
f 53/54/27 54/53/27 56/55/27 55/56/27
f 55/56/28 56/55/28 58/57/28 57/58/28
f 57/58/29 58/57/29 60/59/29 59/60/29
f 59/60/30 60/59/30 62/61/30 61/62/30
f 4/63/31 2/64/31 64/65/31 62/66/31 60/67/31 58/68/31 56/69/31 54/70/31 52/71/31 50/72/31 48/73/31 46/74/31 44/75/31 42/76/31 40/77/31 38/78/31 36/79/31 34/80/31 32/81/31 30/82/31 28/83/31 26/84/31 24/85/31 22/86/31 20/87/31 18/88/31 16/89/31 14/90/31 12/91/31 10/92/31 8/93/31 6/94/31
f 61/62/32 62/61/32 64/95/32 63/96/32
f 63/96/33 64/95/33 2/97/33 1/98/33
f 1/99/34 3/100/34 5/101/34 7/102/34 9/103/34 11/104/34 13/105/34 15/106/34 17/107/34 19/108/34 21/109/34 23/110/34 25/111/34 27/112/34 29/113/34 31/114/34 33/115/34 35/116/34 37/117/34 39/118/34 41/119/34 43/120/34 45/121/34 47/122/34 49/123/34 51/124/34 53/125/34 55/126/34 57/127/34 59/128/34 61/129/34 63/130/34
o Weapon_Head
v -0.240000 1.800000 0.240000
v -0.240000 2.600000 0.240000
v -0.240000 1.800000 -0.240000
v -0.240000 2.600000 -0.240000
v 0.240000 1.800000 0.240000
v 0.240000 2.600000 0.240000
v 0.240000 1.800000 -0.240000
v 0.240000 2.600000 -0.240000
vn -1.0000 -0.0000 -0.0000
vn -0.0000 -0.0000 -1.0000
vn 1.0000 -0.0000 -0.0000
vn -0.0000 -0.0000 1.0000
vn -0.0000 -1.0000 -0.0000
vn -0.0000 1.0000 -0.0000
vt 0.375000 0.000000
vt 0.625000 0.000000
vt 0.625000 0.250000
vt 0.375000 0.250000
vt 0.625000 0.500000
vt 0.375000 0.500000
vt 0.625000 0.750000
vt 0.375000 0.750000
vt 0.625000 1.000000
vt 0.375000 1.000000
vt 0.125000 0.500000
vt 0.125000 0.750000
vt 0.875000 0.500000
vt 0.875000 0.750000
s 0
usemtl Mat_Iron
f 65/131/35 66/132/35 68/133/35 67/134/35
f 67/134/36 68/133/36 72/135/36 71/136/36
f 71/136/37 72/135/37 70/137/37 69/138/37
f 69/138/38 70/137/38 66/139/38 65/140/38
f 67/141/39 71/136/39 69/138/39 65/142/39
f 72/135/40 68/143/40 66/144/40 70/137/40
o Cone
v 0.000000 2.000000 -0.570000
v 0.023411 2.000000 -0.567694
v 0.045922 2.000000 -0.560866
v 0.066668 2.000000 -0.549776
v 0.084853 2.000000 -0.534853
v 0.099776 2.000000 -0.516668
v 0.110866 2.000000 -0.495922
v 0.117694 2.000000 -0.473411
v 0.120000 2.000000 -0.450000
v 0.117694 2.000000 -0.426589
v 0.110866 2.000000 -0.404078
v 0.099776 2.000000 -0.383332
v 0.084853 2.000000 -0.365147
v 0.066668 2.000000 -0.350224
v 0.045922 2.000000 -0.339134
v 0.023411 2.000000 -0.332306
v 0.000000 2.000000 -0.330000
v -0.023411 2.000000 -0.332306
v -0.045922 2.000000 -0.339134
v -0.066668 2.000000 -0.350224
v -0.084853 2.000000 -0.365147
v -0.099776 2.000000 -0.383332
v -0.110866 2.000000 -0.404078
v -0.117694 2.000000 -0.426589
v -0.120000 2.000000 -0.450000
v -0.117694 2.000000 -0.473411
v -0.110866 2.000000 -0.495922
v -0.099776 2.000000 -0.516668
v -0.084853 2.000000 -0.534853
v -0.066668 2.000000 -0.549776
v -0.045922 2.000000 -0.560866
v -0.023411 2.000000 -0.567694
v 0.000000 2.400000 -0.450000
vn 0.0939 0.2861 -0.9536
vn 0.2782 0.2861 -0.9169
vn 0.4517 0.2861 -0.8451
vn 0.6079 0.2861 -0.7407
vn 0.7407 0.2861 -0.6079
vn 0.8451 0.2861 -0.4517
vn 0.9169 0.2861 -0.2782
vn 0.9536 0.2861 -0.0939
vn 0.9536 0.2861 0.0939
vn 0.9169 0.2861 0.2782
vn 0.8451 0.2861 0.4517
vn 0.7407 0.2861 0.6079
vn 0.6079 0.2861 0.7407
vn 0.4517 0.2861 0.8451
vn 0.2782 0.2861 0.9169
vn 0.0939 0.2861 0.9536
vn -0.0939 0.2861 0.9536
vn -0.2782 0.2861 0.9169
vn -0.4517 0.2861 0.8451
vn -0.6079 0.2861 0.7407
vn -0.7407 0.2861 0.6079
vn -0.8451 0.2861 0.4517
vn -0.9169 0.2861 0.2782
vn -0.9536 0.2861 0.0939
vn -0.9536 0.2861 -0.0939
vn -0.9169 0.2861 -0.2782
vn -0.8451 0.2861 -0.4517
vn -0.7407 0.2861 -0.6079
vn -0.6079 0.2861 -0.7407
vn -0.4517 0.2861 -0.8451
vn -0.0000 -1.0000 -0.0000
vn -0.2782 0.2861 -0.9169
vn -0.0939 0.2861 -0.9536
vt 0.250000 0.490000
vt 0.250000 0.250000
vt 0.296822 0.485388
vt 0.341844 0.471731
vt 0.383337 0.449553
vt 0.419706 0.419706
vt 0.449553 0.383337
vt 0.471731 0.341844
vt 0.485388 0.296822
vt 0.490000 0.250000
vt 0.485388 0.203178
vt 0.471731 0.158156
vt 0.449553 0.116663
vt 0.419706 0.080294
vt 0.383337 0.050447
vt 0.341844 0.028269
vt 0.296822 0.014612
vt 0.250000 0.010000
vt 0.203178 0.014612
vt 0.158156 0.028269
vt 0.116663 0.050447
vt 0.080294 0.080294
vt 0.050447 0.116663
vt 0.028269 0.158156
vt 0.014612 0.203178
vt 0.010000 0.250000
vt 0.014612 0.296822
vt 0.028269 0.341844
vt 0.050447 0.383337
vt 0.080294 0.419706
vt 0.116663 0.449553
vt 0.158156 0.471731
vt 0.750000 0.490000
vt 0.796822 0.485388
vt 0.841844 0.471731
vt 0.883337 0.449553
vt 0.919706 0.419706
vt 0.949553 0.383337
vt 0.971731 0.341844
vt 0.985388 0.296822
vt 0.990000 0.250000
vt 0.985388 0.203178
vt 0.971731 0.158156
vt 0.949553 0.116663
vt 0.919706 0.080294
vt 0.883337 0.050447
vt 0.841844 0.028269
vt 0.796822 0.014612
vt 0.750000 0.010000
vt 0.703178 0.014612
vt 0.658156 0.028269
vt 0.616663 0.050447
vt 0.580294 0.080294
vt 0.550447 0.116663
vt 0.528269 0.158156
vt 0.514612 0.203178
vt 0.510000 0.250000
vt 0.514612 0.296822
vt 0.528269 0.341844
vt 0.550447 0.383337
vt 0.580294 0.419706
vt 0.616663 0.449553
vt 0.658156 0.471731
vt 0.703178 0.485388
vt 0.203178 0.485388
s 0
usemtl Mat_Spikes
f 73/145/41 105/146/41 74/147/41
f 74/147/42 105/146/42 75/148/42
f 75/148/43 105/146/43 76/149/43
f 76/149/44 105/146/44 77/150/44
f 77/150/45 105/146/45 78/151/45
f 78/151/46 105/146/46 79/152/46
f 79/152/47 105/146/47 80/153/47
f 80/153/48 105/146/48 81/154/48
f 81/154/49 105/146/49 82/155/49
f 82/155/50 105/146/50 83/156/50
f 83/156/51 105/146/51 84/157/51
f 84/157/52 105/146/52 85/158/52
f 85/158/53 105/146/53 86/159/53
f 86/159/54 105/146/54 87/160/54
f 87/160/55 105/146/55 88/161/55
f 88/161/56 105/146/56 89/162/56
f 89/162/57 105/146/57 90/163/57
f 90/163/58 105/146/58 91/164/58
f 91/164/59 105/146/59 92/165/59
f 92/165/60 105/146/60 93/166/60
f 93/166/61 105/146/61 94/167/61
f 94/167/62 105/146/62 95/168/62
f 95/168/63 105/146/63 96/169/63
f 96/169/64 105/146/64 97/170/64
f 97/170/65 105/146/65 98/171/65
f 98/171/66 105/146/66 99/172/66
f 99/172/67 105/146/67 100/173/67
f 100/173/68 105/146/68 101/174/68
f 101/174/69 105/146/69 102/175/69
f 102/175/70 105/146/70 103/176/70
f 73/177/71 74/178/71 75/179/71 76/180/71 77/181/71 78/182/71 79/183/71 80/184/71 81/185/71 82/186/71 83/187/71 84/188/71 85/189/71 86/190/71 87/191/71 88/192/71 89/193/71 90/194/71 91/195/71 92/196/71 93/197/71 94/198/71 95/199/71 96/200/71 97/201/71 98/202/71 99/203/71 100/204/71 101/205/71 102/206/71 103/207/71 104/208/71
f 103/176/72 105/146/72 104/209/72
f 104/209/73 105/146/73 73/145/73
o Cone.001
v 0.570000 2.000000 0.000000
v 0.567694 2.000000 0.023411
v 0.560866 2.000000 0.045922
v 0.549776 2.000000 0.066668
v 0.534853 2.000000 0.084853
v 0.516668 2.000000 0.099776
v 0.495922 2.000000 0.110866
v 0.473411 2.000000 0.117694
v 0.450000 2.000000 0.120000
v 0.426589 2.000000 0.117694
v 0.404078 2.000000 0.110866
v 0.383332 2.000000 0.099776
v 0.365147 2.000000 0.084853
v 0.350224 2.000000 0.066668
v 0.339134 2.000000 0.045922
v 0.332306 2.000000 0.023411
v 0.330000 2.000000 -0.000000
v 0.332306 2.000000 -0.023411
v 0.339134 2.000000 -0.045922
v 0.350224 2.000000 -0.066668
v 0.365147 2.000000 -0.084853
v 0.383332 2.000000 -0.099776
v 0.404078 2.000000 -0.110866
v 0.426589 2.000000 -0.117694
v 0.450000 2.000000 -0.120000
v 0.473411 2.000000 -0.117694
v 0.495922 2.000000 -0.110866
v 0.516668 2.000000 -0.099776
v 0.534853 2.000000 -0.084853
v 0.549776 2.000000 -0.066668
v 0.560866 2.000000 -0.045922
v 0.567694 2.000000 -0.023411
v 0.450000 2.400000 -0.000000
vn 0.9536 0.2861 0.0939
vn 0.9169 0.2861 0.2782
vn 0.8451 0.2861 0.4517
vn 0.7407 0.2861 0.6079
vn 0.6079 0.2861 0.7407
vn 0.4517 0.2861 0.8451
vn 0.2782 0.2861 0.9169
vn 0.0939 0.2861 0.9536
vn -0.0939 0.2861 0.9536
vn -0.2782 0.2861 0.9169
vn -0.4517 0.2861 0.8451
vn -0.6079 0.2861 0.7407
vn -0.7407 0.2861 0.6079
vn -0.8451 0.2861 0.4517
vn -0.9169 0.2861 0.2782
vn -0.9536 0.2861 0.0939
vn -0.9536 0.2861 -0.0939
vn -0.9169 0.2861 -0.2782
vn -0.8451 0.2861 -0.4517
vn -0.7407 0.2861 -0.6079
vn -0.6079 0.2861 -0.7407
vn -0.4517 0.2861 -0.8451
vn -0.2782 0.2861 -0.9169
vn -0.0939 0.2861 -0.9536
vn 0.0939 0.2861 -0.9536
vn 0.2782 0.2861 -0.9169
vn 0.4517 0.2861 -0.8451
vn 0.6079 0.2861 -0.7407
vn 0.7407 0.2861 -0.6079
vn 0.8451 0.2861 -0.4517
vn -0.0000 -1.0000 -0.0000
vn 0.9169 0.2861 -0.2782
vn 0.9536 0.2861 -0.0939
vt 0.250000 0.490000
vt 0.250000 0.250000
vt 0.296822 0.485388
vt 0.341844 0.471731
vt 0.383337 0.449553
vt 0.419706 0.419706
vt 0.449553 0.383337
vt 0.471731 0.341844
vt 0.485388 0.296822
vt 0.490000 0.250000
vt 0.485388 0.203178
vt 0.471731 0.158156
vt 0.449553 0.116663
vt 0.419706 0.080294
vt 0.383337 0.050447
vt 0.341844 0.028269
vt 0.296822 0.014612
vt 0.250000 0.010000
vt 0.203178 0.014612
vt 0.158156 0.028269
vt 0.116663 0.050447
vt 0.080294 0.080294
vt 0.050447 0.116663
vt 0.028269 0.158156
vt 0.014612 0.203178
vt 0.010000 0.250000
vt 0.014612 0.296822
vt 0.028269 0.341844
vt 0.050447 0.383337
vt 0.080294 0.419706
vt 0.116663 0.449553
vt 0.158156 0.471731
vt 0.750000 0.490000
vt 0.796822 0.485388
vt 0.841844 0.471731
vt 0.883337 0.449553
vt 0.919706 0.419706
vt 0.949553 0.383337
vt 0.971731 0.341844
vt 0.985388 0.296822
vt 0.990000 0.250000
vt 0.985388 0.203178
vt 0.971731 0.158156
vt 0.949553 0.116663
vt 0.919706 0.080294
vt 0.883337 0.050447
vt 0.841844 0.028269
vt 0.796822 0.014612
vt 0.750000 0.010000
vt 0.703178 0.014612
vt 0.658156 0.028269
vt 0.616663 0.050447
vt 0.580294 0.080294
vt 0.550447 0.116663
vt 0.528269 0.158156
vt 0.514612 0.203178
vt 0.510000 0.250000
vt 0.514612 0.296822
vt 0.528269 0.341844
vt 0.550447 0.383337
vt 0.580294 0.419706
vt 0.616663 0.449553
vt 0.658156 0.471731
vt 0.703178 0.485388
vt 0.203178 0.485388
s 0
usemtl Mat_Spikes
f 106/210/74 138/211/74 107/212/74
f 107/212/75 138/211/75 108/213/75
f 108/213/76 138/211/76 109/214/76
f 109/214/77 138/211/77 110/215/77
f 110/215/78 138/211/78 111/216/78
f 111/216/79 138/211/79 112/217/79
f 112/217/80 138/211/80 113/218/80
f 113/218/81 138/211/81 114/219/81
f 114/219/82 138/211/82 115/220/82
f 115/220/83 138/211/83 116/221/83
f 116/221/84 138/211/84 117/222/84
f 117/222/85 138/211/85 118/223/85
f 118/223/86 138/211/86 119/224/86
f 119/224/87 138/211/87 120/225/87
f 120/225/88 138/211/88 121/226/88
f 121/226/89 138/211/89 122/227/89
f 122/227/90 138/211/90 123/228/90
f 123/228/91 138/211/91 124/229/91
f 124/229/92 138/211/92 125/230/92
f 125/230/93 138/211/93 126/231/93
f 126/231/94 138/211/94 127/232/94
f 127/232/95 138/211/95 128/233/95
f 128/233/96 138/211/96 129/234/96
f 129/234/97 138/211/97 130/235/97
f 130/235/98 138/211/98 131/236/98
f 131/236/99 138/211/99 132/237/99
f 132/237/100 138/211/100 133/238/100
f 133/238/101 138/211/101 134/239/101
f 134/239/102 138/211/102 135/240/102
f 135/240/103 138/211/103 136/241/103
f 106/242/104 107/243/104 108/244/104 109/245/104 110/246/104 111/247/104 112/248/104 113/249/104 114/250/104 115/251/104 116/252/104 117/253/104 118/254/104 119/255/104 120/256/104 121/257/104 122/258/104 123/259/104 124/260/104 125/261/104 126/262/104 127/263/104 128/264/104 129/265/104 130/266/104 131/267/104 132/268/104 133/269/104 134/270/104 135/271/104 136/272/104 137/273/104
f 136/241/105 138/211/105 137/274/105
f 137/274/106 138/211/106 106/210/106
o Cone.002
v -0.000000 2.000000 0.570000
v -0.023411 2.000000 0.567694
v -0.045922 2.000000 0.560866
v -0.066668 2.000000 0.549776
v -0.084853 2.000000 0.534853
v -0.099776 2.000000 0.516668
v -0.110866 2.000000 0.495922
v -0.117694 2.000000 0.473411
v -0.120000 2.000000 0.450000
v -0.117694 2.000000 0.426589
v -0.110866 2.000000 0.404078
v -0.099776 2.000000 0.383332
v -0.084853 2.000000 0.365147
v -0.066668 2.000000 0.350224
v -0.045922 2.000000 0.339134
v -0.023411 2.000000 0.332306
v 0.000000 2.000000 0.330000
v 0.023411 2.000000 0.332306
v 0.045922 2.000000 0.339134
v 0.066668 2.000000 0.350224
v 0.084853 2.000000 0.365147
v 0.099776 2.000000 0.383332
v 0.110866 2.000000 0.404078
v 0.117694 2.000000 0.426589
v 0.120000 2.000000 0.450000
v 0.117694 2.000000 0.473411
v 0.110866 2.000000 0.495922
v 0.099776 2.000000 0.516668
v 0.084853 2.000000 0.534853
v 0.066668 2.000000 0.549776
v 0.045922 2.000000 0.560866
v 0.023411 2.000000 0.567694
v 0.000000 2.400000 0.450000
vn -0.0939 0.2861 0.9536
vn -0.2782 0.2861 0.9169
vn -0.4517 0.2861 0.8451
vn -0.6079 0.2861 0.7407
vn -0.7407 0.2861 0.6079
vn -0.8451 0.2861 0.4517
vn -0.9169 0.2861 0.2782
vn -0.9536 0.2861 0.0939
vn -0.9536 0.2861 -0.0939
vn -0.9169 0.2861 -0.2782
vn -0.8451 0.2861 -0.4517
vn -0.7407 0.2861 -0.6079
vn -0.6079 0.2861 -0.7407
vn -0.4517 0.2861 -0.8451
vn -0.2782 0.2861 -0.9169
vn -0.0939 0.2861 -0.9536
vn 0.0939 0.2861 -0.9536
vn 0.2782 0.2861 -0.9169
vn 0.4517 0.2861 -0.8451
vn 0.6079 0.2861 -0.7407
vn 0.7407 0.2861 -0.6079
vn 0.8451 0.2861 -0.4517
vn 0.9169 0.2861 -0.2782
vn 0.9536 0.2861 -0.0939
vn 0.9536 0.2861 0.0939
vn 0.9169 0.2861 0.2782
vn 0.8451 0.2861 0.4517
vn 0.7407 0.2861 0.6079
vn 0.6079 0.2861 0.7407
vn 0.4517 0.2861 0.8451
vn -0.0000 -1.0000 -0.0000
vn 0.2782 0.2861 0.9169
vn 0.0939 0.2861 0.9536
vt 0.250000 0.490000
vt 0.250000 0.250000
vt 0.296822 0.485388
vt 0.341844 0.471731
vt 0.383337 0.449553
vt 0.419706 0.419706
vt 0.449553 0.383337
vt 0.471731 0.341844
vt 0.485388 0.296822
vt 0.490000 0.250000
vt 0.485388 0.203178
vt 0.471731 0.158156
vt 0.449553 0.116663
vt 0.419706 0.080294
vt 0.383337 0.050447
vt 0.341844 0.028269
vt 0.296822 0.014612
vt 0.250000 0.010000
vt 0.203178 0.014612
vt 0.158156 0.028269
vt 0.116663 0.050447
vt 0.080294 0.080294
vt 0.050447 0.116663
vt 0.028269 0.158156
vt 0.014612 0.203178
vt 0.010000 0.250000
vt 0.014612 0.296822
vt 0.028269 0.341844
vt 0.050447 0.383337
vt 0.080294 0.419706
vt 0.116663 0.449553
vt 0.158156 0.471731
vt 0.750000 0.490000
vt 0.796822 0.485388
vt 0.841844 0.471731
vt 0.883337 0.449553
vt 0.919706 0.419706
vt 0.949553 0.383337
vt 0.971731 0.341844
vt 0.985388 0.296822
vt 0.990000 0.250000
vt 0.985388 0.203178
vt 0.971731 0.158156
vt 0.949553 0.116663
vt 0.919706 0.080294
vt 0.883337 0.050447
vt 0.841844 0.028269
vt 0.796822 0.014612
vt 0.750000 0.010000
vt 0.703178 0.014612
vt 0.658156 0.028269
vt 0.616663 0.050447
vt 0.580294 0.080294
vt 0.550447 0.116663
vt 0.528269 0.158156
vt 0.514612 0.203178
vt 0.510000 0.250000
vt 0.514612 0.296822
vt 0.528269 0.341844
vt 0.550447 0.383337
vt 0.580294 0.419706
vt 0.616663 0.449553
vt 0.658156 0.471731
vt 0.703178 0.485388
vt 0.203178 0.485388
s 0
usemtl Mat_Spikes
f 139/275/107 171/276/107 140/277/107
f 140/277/108 171/276/108 141/278/108
f 141/278/109 171/276/109 142/279/109
f 142/279/110 171/276/110 143/280/110
f 143/280/111 171/276/111 144/281/111
f 144/281/112 171/276/112 145/282/112
f 145/282/113 171/276/113 146/283/113
f 146/283/114 171/276/114 147/284/114
f 147/284/115 171/276/115 148/285/115
f 148/285/116 171/276/116 149/286/116
f 149/286/117 171/276/117 150/287/117
f 150/287/118 171/276/118 151/288/118
f 151/288/119 171/276/119 152/289/119
f 152/289/120 171/276/120 153/290/120
f 153/290/121 171/276/121 154/291/121
f 154/291/122 171/276/122 155/292/122
f 155/292/123 171/276/123 156/293/123
f 156/293/124 171/276/124 157/294/124
f 157/294/125 171/276/125 158/295/125
f 158/295/126 171/276/126 159/296/126
f 159/296/127 171/276/127 160/297/127
f 160/297/128 171/276/128 161/298/128
f 161/298/129 171/276/129 162/299/129
f 162/299/130 171/276/130 163/300/130
f 163/300/131 171/276/131 164/301/131
f 164/301/132 171/276/132 165/302/132
f 165/302/133 171/276/133 166/303/133
f 166/303/134 171/276/134 167/304/134
f 167/304/135 171/276/135 168/305/135
f 168/305/136 171/276/136 169/306/136
f 139/307/137 140/308/137 141/309/137 142/310/137 143/311/137 144/312/137 145/313/137 146/314/137 147/315/137 148/316/137 149/317/137 150/318/137 151/319/137 152/320/137 153/321/137 154/322/137 155/323/137 156/324/137 157/325/137 158/326/137 159/327/137 160/328/137 161/329/137 162/330/137 163/331/137 164/332/137 165/333/137 166/334/137 167/335/137 168/336/137 169/337/137 170/338/137
f 169/306/138 171/276/138 170/339/138
f 170/339/139 171/276/139 139/275/139
o Cone.003
v -0.570000 2.000000 -0.000000
v -0.567694 2.000000 -0.023411
v -0.560866 2.000000 -0.045922
v -0.549776 2.000000 -0.066668
v -0.534853 2.000000 -0.084853
v -0.516668 2.000000 -0.099776
v -0.495922 2.000000 -0.110866
v -0.473411 2.000000 -0.117694
v -0.450000 2.000000 -0.120000
v -0.426589 2.000000 -0.117694
v -0.404078 2.000000 -0.110866
v -0.383332 2.000000 -0.099776
v -0.365147 2.000000 -0.084853
v -0.350224 2.000000 -0.066668
v -0.339134 2.000000 -0.045922
v -0.332306 2.000000 -0.023411
v -0.330000 2.000000 0.000000
v -0.332306 2.000000 0.023411
v -0.339134 2.000000 0.045922
v -0.350224 2.000000 0.066668
v -0.365147 2.000000 0.084853
v -0.383332 2.000000 0.099776
v -0.404078 2.000000 0.110866
v -0.426589 2.000000 0.117694
v -0.450000 2.000000 0.120000
v -0.473411 2.000000 0.117694
v -0.495922 2.000000 0.110866
v -0.516668 2.000000 0.099776
v -0.534853 2.000000 0.084853
v -0.549776 2.000000 0.066668
v -0.560866 2.000000 0.045922
v -0.567694 2.000000 0.023411
v -0.450000 2.400000 0.000000
vn -0.9536 0.2861 -0.0939
vn -0.9169 0.2861 -0.2782
vn -0.8451 0.2861 -0.4517
vn -0.7407 0.2861 -0.6079
vn -0.6079 0.2861 -0.7407
vn -0.4517 0.2861 -0.8451
vn -0.2782 0.2861 -0.9169
vn -0.0939 0.2861 -0.9536
vn 0.0939 0.2861 -0.9536
vn 0.2782 0.2861 -0.9169
vn 0.4517 0.2861 -0.8451
vn 0.6079 0.2861 -0.7407
vn 0.7407 0.2861 -0.6079
vn 0.8451 0.2861 -0.4517
vn 0.9169 0.2861 -0.2782
vn 0.9536 0.2861 -0.0939
vn 0.9536 0.2861 0.0939
vn 0.9169 0.2861 0.2782
vn 0.8451 0.2861 0.4517
vn 0.7407 0.2861 0.6079
vn 0.6079 0.2861 0.7407
vn 0.4517 0.2861 0.8451
vn 0.2782 0.2861 0.9169
vn 0.0939 0.2861 0.9536
vn -0.0939 0.2861 0.9536
vn -0.2782 0.2861 0.9169
vn -0.4517 0.2861 0.8451
vn -0.6079 0.2861 0.7407
vn -0.7407 0.2861 0.6079
vn -0.8451 0.2861 0.4517
vn -0.0000 -1.0000 -0.0000
vn -0.9169 0.2861 0.2782
vn -0.9536 0.2861 0.0939
vt 0.250000 0.490000
vt 0.250000 0.250000
vt 0.296822 0.485388
vt 0.341844 0.471731
vt 0.383337 0.449553
vt 0.419706 0.419706
vt 0.449553 0.383337
vt 0.471731 0.341844
vt 0.485388 0.296822
vt 0.490000 0.250000
vt 0.485388 0.203178
vt 0.471731 0.158156
vt 0.449553 0.116663
vt 0.419706 0.080294
vt 0.383337 0.050447
vt 0.341844 0.028269
vt 0.296822 0.014612
vt 0.250000 0.010000
vt 0.203178 0.014612
vt 0.158156 0.028269
vt 0.116663 0.050447
vt 0.080294 0.080294
vt 0.050447 0.116663
vt 0.028269 0.158156
vt 0.014612 0.203178
vt 0.010000 0.250000
vt 0.014612 0.296822
vt 0.028269 0.341844
vt 0.050447 0.383337
vt 0.080294 0.419706
vt 0.116663 0.449553
vt 0.158156 0.471731
vt 0.750000 0.490000
vt 0.796822 0.485388
vt 0.841844 0.471731
vt 0.883337 0.449553
vt 0.919706 0.419706
vt 0.949553 0.383337
vt 0.971731 0.341844
vt 0.985388 0.296822
vt 0.990000 0.250000
vt 0.985388 0.203178
vt 0.971731 0.158156
vt 0.949553 0.116663
vt 0.919706 0.080294
vt 0.883337 0.050447
vt 0.841844 0.028269
vt 0.796822 0.014612
vt 0.750000 0.010000
vt 0.703178 0.014612
vt 0.658156 0.028269
vt 0.616663 0.050447
vt 0.580294 0.080294
vt 0.550447 0.116663
vt 0.528269 0.158156
vt 0.514612 0.203178
vt 0.510000 0.250000
vt 0.514612 0.296822
vt 0.528269 0.341844
vt 0.550447 0.383337
vt 0.580294 0.419706
vt 0.616663 0.449553
vt 0.658156 0.471731
vt 0.703178 0.485388
vt 0.203178 0.485388
s 0
usemtl Mat_Spikes
f 172/340/140 204/341/140 173/342/140
f 173/342/141 204/341/141 174/343/141
f 174/343/142 204/341/142 175/344/142
f 175/344/143 204/341/143 176/345/143
f 176/345/144 204/341/144 177/346/144
f 177/346/145 204/341/145 178/347/145
f 178/347/146 204/341/146 179/348/146
f 179/348/147 204/341/147 180/349/147
f 180/349/148 204/341/148 181/350/148
f 181/350/149 204/341/149 182/351/149
f 182/351/150 204/341/150 183/352/150
f 183/352/151 204/341/151 184/353/151
f 184/353/152 204/341/152 185/354/152
f 185/354/153 204/341/153 186/355/153
f 186/355/154 204/341/154 187/356/154
f 187/356/155 204/341/155 188/357/155
f 188/357/156 204/341/156 189/358/156
f 189/358/157 204/341/157 190/359/157
f 190/359/158 204/341/158 191/360/158
f 191/360/159 204/341/159 192/361/159
f 192/361/160 204/341/160 193/362/160
f 193/362/161 204/341/161 194/363/161
f 194/363/162 204/341/162 195/364/162
f 195/364/163 204/341/163 196/365/163
f 196/365/164 204/341/164 197/366/164
f 197/366/165 204/341/165 198/367/165
f 198/367/166 204/341/166 199/368/166
f 199/368/167 204/341/167 200/369/167
f 200/369/168 204/341/168 201/370/168
f 201/370/169 204/341/169 202/371/169
f 172/372/170 173/373/170 174/374/170 175/375/170 176/376/170 177/377/170 178/378/170 179/379/170 180/380/170 181/381/170 182/382/170 183/383/170 184/384/170 185/385/170 186/386/170 187/387/170 188/388/170 189/389/170 190/390/170 191/391/170 192/392/170 193/393/170 194/394/170 195/395/170 196/396/170 197/397/170 198/398/170 199/399/170 200/400/170 201/401/170 202/402/170 203/403/170
f 202/371/171 204/341/171 203/404/171
f 203/404/172 204/341/172 172/340/172
o Icosphere
v 0.000000 1.950000 0.000000
v 0.180902 2.088195 0.131431
v -0.069097 2.088195 0.212662
v -0.223607 2.088196 0.000000
v -0.069097 2.088195 -0.212662
v 0.180902 2.088195 -0.131431
v 0.069097 2.311805 0.212662
v -0.180902 2.311805 0.131431
v -0.180902 2.311805 -0.131431
v 0.069097 2.311805 -0.212662
v 0.223607 2.311804 0.000000
v 0.000000 2.450000 0.000000
v -0.040614 1.987336 0.124999
v 0.106331 1.987337 0.077253
v 0.065717 2.068566 0.202253
v 0.212662 2.068566 0.000000
v 0.106331 1.987337 -0.077253
v -0.131432 1.987337 0.000000
v -0.172047 2.068566 0.124999
v -0.040614 1.987336 -0.124999
v -0.172047 2.068566 -0.124999
v 0.065717 2.068566 -0.202253
v 0.237764 2.200000 0.077253
v 0.237764 2.200000 -0.077253
v 0.000000 2.200000 0.250000
v 0.146946 2.200000 0.202254
v -0.237764 2.200000 0.077253
v -0.146946 2.200000 0.202254
v -0.146946 2.200000 -0.202254
v -0.237764 2.200000 -0.077253
v 0.146946 2.200000 -0.202254
v 0.000000 2.200000 -0.250000
v 0.172047 2.331434 0.124999
v -0.065717 2.331434 0.202253
v -0.212662 2.331434 0.000000
v -0.065717 2.331434 -0.202253
v 0.172047 2.331434 -0.124999
v 0.040614 2.412664 0.124999
v 0.131432 2.412663 0.000000
v -0.106331 2.412664 0.077253
v -0.106331 2.412664 -0.077253
v 0.040614 2.412664 -0.124999
vn 0.1024 -0.9435 0.3151
vn 0.7002 -0.6617 0.2680
vn -0.2680 -0.9435 0.1947
vn -0.2680 -0.9435 -0.1947
vn 0.1024 -0.9435 -0.3151
vn 0.9050 -0.3304 0.2680
vn 0.0247 -0.3304 0.9435
vn -0.8897 -0.3304 0.3151
vn -0.5746 -0.3304 -0.7488
vn 0.5346 -0.3304 -0.7779
vn 0.8026 -0.1256 0.5831
vn -0.3066 -0.1256 0.9435
vn -0.9921 -0.1256 -0.0000
vn -0.3066 -0.1256 -0.9435
vn 0.8026 -0.1256 -0.5831
vn 0.4089 0.6617 0.6284
vn -0.4713 0.6617 0.5831
vn -0.7002 0.6617 -0.2680
vn 0.0385 0.6617 -0.7488
vn 0.7240 0.6617 -0.1947
vn 0.2680 0.9435 -0.1947
vn 0.4911 0.7947 -0.3568
vn 0.4089 0.6617 -0.6284
vn -0.1024 0.9435 -0.3151
vn -0.1876 0.7947 -0.5773
vn -0.4713 0.6617 -0.5831
vn -0.3313 0.9435 -0.0000
vn -0.6071 0.7947 -0.0000
vn -0.7002 0.6617 0.2680
vn -0.1024 0.9435 0.3151
vn -0.1876 0.7947 0.5773
vn 0.0385 0.6617 0.7488
vn 0.2680 0.9435 0.1947
vn 0.4911 0.7947 0.3568
vn 0.7240 0.6617 0.1947
vn 0.8897 0.3304 -0.3151
vn 0.7947 0.1876 -0.5773
vn 0.5746 0.3304 -0.7488
vn -0.0247 0.3304 -0.9435
vn -0.3035 0.1876 -0.9342
vn -0.5346 0.3304 -0.7779
vn -0.9050 0.3304 -0.2680
vn -0.9822 0.1876 -0.0000
vn -0.9050 0.3304 0.2680
vn -0.5346 0.3304 0.7779
vn -0.3035 0.1876 0.9342
vn -0.0247 0.3304 0.9435
vn 0.5746 0.3304 0.7488
vn 0.7947 0.1876 0.5773
vn 0.8897 0.3304 0.3151
vn 0.3066 0.1256 -0.9435
vn 0.3035 -0.1876 -0.9342
vn 0.0247 -0.3304 -0.9435
vn -0.8026 0.1256 -0.5831
vn -0.7947 -0.1876 -0.5773
vn -0.8897 -0.3304 -0.3151
vn -0.8026 0.1256 0.5831
vn -0.7947 -0.1876 0.5773
vn -0.5746 -0.3304 0.7488
vn 0.3066 0.1256 0.9435
vn 0.3035 -0.1876 0.9342
vn 0.5346 -0.3304 0.7779
vn 0.9921 0.1256 -0.0000
vn 0.9822 -0.1876 -0.0000
vn 0.9050 -0.3304 -0.2680
vn 0.4713 -0.6617 -0.5831
vn 0.1876 -0.7947 -0.5773
vn -0.0385 -0.6617 -0.7488
vn -0.4089 -0.6617 -0.6284
vn -0.4911 -0.7947 -0.3568
vn -0.7240 -0.6617 -0.1947
vn -0.7240 -0.6617 0.1947
vn -0.4911 -0.7947 0.3568
vn -0.4089 -0.6617 0.6284
vn 0.7002 -0.6617 -0.2680
vn 0.6071 -0.7947 -0.0000
vn 0.3313 -0.9435 -0.0000
vn -0.0385 -0.6617 0.7488
vn 0.1876 -0.7947 0.5773
vn 0.4713 -0.6617 0.5831
vt 0.181819 0.000000
vt 0.227273 0.078731
vt 0.136365 0.078731
vt 0.272728 0.157461
vt 0.318182 0.078731
vt 0.363637 0.157461
vt 0.909091 0.000000
vt 0.954545 0.078731
vt 0.863636 0.078731
vt 0.727273 0.000000
vt 0.772727 0.078731
vt 0.681818 0.078731
vt 0.545455 0.000000
vt 0.590909 0.078731
vt 0.500000 0.078731
vt 0.318182 0.236191
vt 0.090910 0.157461
vt 0.181819 0.157461
vt 0.136365 0.236191
vt 0.818182 0.157461
vt 0.909091 0.157461
vt 0.863636 0.236191
vt 0.636364 0.157461
vt 0.727273 0.157461
vt 0.681818 0.236191
vt 0.454546 0.157461
vt 0.545455 0.157461
vt 0.500000 0.236191
vt 0.227273 0.236191
vt 0.045455 0.236191
vt 0.772727 0.236191
vt 0.590909 0.236191
vt 0.409092 0.236191
vt 0.181819 0.314921
vt 0.272728 0.314921
vt 0.227273 0.393651
vt 0.000000 0.314921
vt 0.090910 0.314921
vt 0.045455 0.393651
vt 0.727273 0.314921
vt 0.818182 0.314921
vt 0.772727 0.393651
vt 0.545455 0.314921
vt 0.636364 0.314921
vt 0.590909 0.393651
vt 0.363637 0.314921
vt 0.454546 0.314921
vt 0.409092 0.393651
vt 0.500000 0.393651
vt 0.454546 0.472382
vt 0.681818 0.393651
vt 0.636364 0.472382
vt 0.863636 0.393651
vt 0.818182 0.472382
vt 0.909091 0.314921
vt 0.136365 0.393651
vt 0.090910 0.472382
vt 0.318182 0.393651
vt 0.272728 0.472382
vt 0.954545 0.236191
vt 1.000000 0.157461
vt 0.409092 0.078731
vt 0.363637 0.000000
s 0
usemtl Mat_Energy
f 205/405/173 218/406/173 217/407/173
f 206/408/174 218/409/174 220/410/174
f 205/411/175 217/412/175 222/413/175
f 205/414/176 222/415/176 224/416/176
f 205/417/177 224/418/177 221/419/177
f 206/408/178 220/410/178 227/420/178
f 207/421/179 219/422/179 229/423/179
f 208/424/180 223/425/180 231/426/180
f 209/427/181 225/428/181 233/429/181
f 210/430/182 226/431/182 235/432/182
f 206/408/183 227/420/183 230/433/183
f 207/421/184 229/423/184 232/434/184
f 208/424/185 231/426/185 234/435/185
f 209/427/186 233/429/186 236/436/186
f 210/430/187 235/432/187 228/437/187
f 211/438/188 237/439/188 242/440/188
f 212/441/189 238/442/189 244/443/189
f 213/444/190 239/445/190 245/446/190
f 214/447/191 240/448/191 246/449/191
f 215/450/192 241/451/192 243/452/192
f 243/452/193 246/453/193 216/454/193
f 243/452/194 241/451/194 246/453/194
f 241/451/195 214/447/195 246/453/195
f 246/449/196 245/455/196 216/456/196
f 246/449/197 240/448/197 245/455/197
f 240/448/198 213/444/198 245/455/198
f 245/446/199 244/457/199 216/458/199
f 245/446/200 239/445/200 244/457/200
f 239/445/201 212/459/201 244/457/201
f 244/443/202 242/460/202 216/461/202
f 244/443/203 238/442/203 242/460/203
f 238/442/204 211/438/204 242/460/204
f 242/440/205 243/462/205 216/463/205
f 242/440/206 237/439/206 243/462/206
f 237/439/207 215/450/207 243/462/207
f 228/437/208 241/451/208 215/450/208
f 228/437/209 235/432/209 241/451/209
f 235/432/210 214/447/210 241/451/210
f 236/436/211 240/448/211 214/447/211
f 236/436/212 233/429/212 240/448/212
f 233/429/213 213/444/213 240/448/213
f 234/435/214 239/445/214 213/444/214
f 234/435/215 231/426/215 239/445/215
f 231/426/216 212/459/216 239/445/216
f 232/434/217 238/442/217 212/441/217
f 232/434/218 229/423/218 238/442/218
f 229/423/219 211/438/219 238/442/219
f 230/433/220 237/439/220 211/438/220
f 230/433/221 227/420/221 237/439/221
f 227/420/222 215/450/222 237/439/222
f 235/432/223 236/436/223 214/447/223
f 235/432/224 226/431/224 236/436/224
f 226/431/225 209/427/225 236/436/225
f 233/429/226 234/435/226 213/444/226
f 233/429/227 225/428/227 234/435/227
f 225/428/228 208/424/228 234/435/228
f 231/426/229 232/464/229 212/459/229
f 231/426/230 223/425/230 232/464/230
f 223/425/231 207/465/231 232/464/231
f 229/423/232 230/433/232 211/438/232
f 229/423/233 219/422/233 230/433/233
f 219/422/234 206/408/234 230/433/234
f 227/420/235 228/437/235 215/450/235
f 227/420/236 220/410/236 228/437/236
f 220/410/237 210/430/237 228/437/237
f 221/419/238 226/431/238 210/430/238
f 221/419/239 224/418/239 226/431/239
f 224/418/240 209/427/240 226/431/240
f 224/416/241 225/428/241 209/427/241
f 224/416/242 222/415/242 225/428/242
f 222/415/243 208/424/243 225/428/243
f 222/413/244 223/425/244 208/424/244
f 222/413/245 217/412/245 223/425/245
f 217/412/246 207/465/246 223/425/246
f 220/410/247 221/466/247 210/430/247
f 220/410/248 218/409/248 221/466/248
f 218/409/249 205/467/249 221/466/249
f 217/407/250 219/422/250 207/421/250
f 217/407/251 218/406/251 219/422/251
f 218/406/252 206/408/252 219/422/252
