# Blender 5.2.1 LTS
# www.blender.org
mtllib angel_arm_r.mtl
o Angel_RightArm
v -0.103565 -0.476261 0.029662
v -0.163626 -0.358831 -0.029311
v -0.166379 -0.367252 -0.021677
v -0.158701 -0.379522 -0.036175
v -0.160872 -0.363972 -0.040915
v -0.160658 -0.358832 -0.031748
v -0.159073 -0.385326 -0.035639
v -0.135361 -0.390314 -0.047238
v -0.137574 -0.385222 -0.050228
v -0.163064 -0.373756 -0.020215
v -0.159987 -0.397448 -0.013471
v -0.152907 -0.403212 -0.028885
v -0.154897 -0.369314 -0.010347
v -0.149479 -0.390635 0.001577
v -0.127437 -0.413608 -0.043060
v -0.129635 -0.391461 0.000267
v -0.113452 -0.421250 -0.047275
v -0.111975 -0.403572 -0.014668
v -0.092982 -0.428606 -0.031323
v -0.097823 -0.434087 -0.054536
v -0.092746 -0.433559 -0.039829
v -0.093485 -0.431353 -0.033410
v -0.096487 -0.423329 -0.061136
v -0.105669 -0.407295 -0.059798
v -0.095461 -0.425971 -0.067812
v -0.101384 -0.447861 -0.057142
v -0.090929 -0.419096 -0.064327
v -0.093370 -0.432924 -0.071382
v -0.085481 -0.437068 -0.071567
v -0.083896 -0.407779 -0.070392
v -0.098763 -0.395648 -0.066663
v -0.113197 -0.386733 -0.061630
v -0.084996 -0.400034 -0.058430
v -0.072679 -0.412827 -0.056547
v -0.072813 -0.413085 -0.066655
v -0.066750 -0.429793 -0.090041
v -0.079666 -0.417987 -0.073196
v -0.092160 -0.435425 -0.035719
v -0.091524 -0.430413 -0.027782
v -0.090667 -0.432118 -0.030398
v -0.082532 -0.409055 -0.000352
v -0.111063 -0.389058 0.013902
v -0.085431 -0.427486 -0.021400
v -0.078688 -0.426170 -0.013740
v -0.069208 -0.424032 -0.012033
v -0.086570 -0.401244 0.003051
v -0.078527 -0.435065 -0.001793
v -0.109262 -0.430359 -0.001343
v -0.101540 -0.431632 -0.036536
v -0.098540 -0.431593 0.023530
v -0.141688 -0.354118 -0.001320
v -0.132142 -0.351898 -0.004359
v -0.128146 -0.353284 0.001075
v -0.125813 -0.364573 -0.015722
v -0.146021 -0.367682 -0.030775
v -0.147182 -0.370659 -0.048357
v -0.129380 -0.377341 -0.054693
v -0.122862 -0.376466 -0.044939
v -0.148948 -0.364071 -0.037040
v -0.128067 -0.363378 0.007699
v -0.139231 -0.363682 0.006307
v -0.116780 -0.368270 0.004754
v -0.137763 -0.385553 0.015890
v -0.093243 -0.494280 -0.050962
v -0.096842 -0.483414 -0.051345
v -0.111835 -0.358927 -0.008103
v -0.107358 -0.372986 0.000535
v -0.098983 -0.379364 -0.006281
v -0.087722 -0.382400 -0.014305
v -0.099109 -0.366286 -0.015538
v -0.110131 -0.365084 -0.020109
v -0.088752 -0.378887 -0.032334
v -0.108758 -0.374989 -0.025255
v -0.095815 -0.384421 -0.033362
v -0.088207 -0.387347 -0.004806
v -0.108507 -0.388028 -0.044955
v -0.126701 -0.377816 -0.038971
v -0.095872 -0.396077 -0.049307
v -0.085377 -0.390164 -0.014601
v -0.076339 -0.397832 -0.013518
v -0.076552 -0.398743 -0.020030
v -0.077344 -0.383417 -0.027457
v -0.066809 -0.393374 -0.038275
v -0.062701 -0.407760 -0.029387
v -0.076713 -0.392145 -0.041933
v -0.085876 -0.392272 -0.039293
v -0.069931 -0.408120 -0.025641
v -0.067238 -0.411085 -0.019269
v -0.064622 -0.426493 -0.007116
v -0.060666 -0.409653 -0.015615
v -0.100428 -0.388734 -0.052930
v -0.103222 -0.489652 0.033615
v -0.086688 -0.464725 0.015627
v -0.094807 -0.478462 0.019444
v -0.089306 -0.473374 0.018428
v -0.071248 -0.472631 0.008055
v -0.098798 -0.486617 0.022174
v -0.090189 -0.432312 -0.030075
v -0.102710 -0.445106 -0.044744
v -0.100706 -0.454361 -0.047793
v -0.098880 -0.456425 -0.060283
v -0.092111 -0.450152 -0.066153
v -0.083549 -0.403591 -0.054133
v -0.066758 -0.423922 -0.089230
v -0.069046 -0.436627 -0.083376
v -0.093783 -0.472038 -0.057062
v -0.103784 -0.481486 -0.048307
v -0.081319 -0.486092 -0.058777
v -0.087332 -0.459676 -0.079104
v -0.059612 -0.443251 -0.090406
v -0.075153 -0.402767 -0.047270
v -0.066793 -0.434495 -0.100889
v -0.071677 -0.422082 -0.099463
v -0.072893 -0.399835 -0.093173
v -0.074262 -0.403291 -0.110867
v -0.068959 -0.423323 -0.113587
v -0.065209 -0.448571 -0.083105
v -0.070955 -0.467603 -0.076162
v -0.065717 -0.472244 -0.081157
v -0.083153 -0.473932 -0.063334
v -0.073428 -0.479026 -0.072313
v -0.057032 -0.470307 -0.080720
v -0.050369 -0.451548 -0.100327
v -0.061674 -0.433946 -0.110990
v -0.062404 -0.402519 -0.079632
v -0.062378 -0.418190 -0.084466
v -0.072852 -0.385017 -0.068770
v -0.080867 -0.391547 -0.086281
v -0.062669 -0.364934 -0.063079
v -0.059331 -0.327196 -0.084776
v -0.066526 -0.321948 -0.081517
v -0.083018 -0.399979 -0.110337
v -0.065563 -0.409678 -0.120469
v -0.059622 -0.422820 -0.119614
v -0.065979 -0.330242 -0.099112
v -0.052337 -0.319414 -0.073023
v -0.056065 -0.338151 -0.068266
v -0.047935 -0.340973 -0.070737
v -0.047978 -0.360660 -0.069246
v -0.052090 -0.386264 -0.066820
v -0.066211 -0.380002 -0.060364
v -0.057522 -0.395145 -0.074518
v -0.045530 -0.387635 -0.061139
v -0.056623 -0.405265 -0.042978
v -0.063719 -0.405983 -0.049957
v -0.031819 -0.387686 -0.057451
v -0.033625 -0.403181 -0.048323
v -0.041224 -0.406675 -0.034160
v -0.045069 -0.404776 -0.041894
v -0.054145 -0.417693 -0.011586
v -0.049346 -0.422755 -0.019705
v -0.053631 -0.431989 -0.011366
v -0.073407 -0.438604 -0.013103
v -0.082229 -0.442204 0.012704
v -0.077577 -0.444767 0.004717
v -0.071835 -0.444689 -0.001418
v -0.067996 -0.442221 -0.001733
v -0.091315 -0.434788 0.020686
v -0.098690 -0.456970 0.022698
v -0.092086 -0.499373 0.028018
v -0.071684 -0.462493 0.002927
v -0.059278 -0.449784 -0.003432
v -0.057398 -0.468563 0.002675
v -0.058019 -0.489914 -0.002633
v -0.077220 -0.489114 -0.065192
v -0.051071 -0.486067 -0.084513
v -0.050100 -0.459464 -0.082316
v -0.065999 -0.485240 -0.064283
v -0.064186 -0.503288 -0.080741
v -0.058620 -0.492144 -0.060200
v -0.064216 -0.503335 -0.057406
v -0.054860 -0.495356 -0.053035
v -0.047502 -0.494552 -0.047360
v -0.018068 -0.503239 -0.026722
v -0.040218 -0.489187 -0.032154
v -0.040784 -0.510303 -0.021956
v -0.045313 -0.484379 -0.023469
v -0.034499 -0.474445 -0.024190
v -0.043968 -0.489812 -0.009948
v -0.003916 -0.510622 -0.040771
v -0.016441 -0.485086 -0.036813
v -0.025569 -0.471975 -0.033404
v -0.019991 -0.466238 -0.033490
v -0.031661 -0.465128 -0.019119
v -0.041010 -0.458623 -0.015002
v -0.030409 -0.457096 -0.023613
v -0.035566 -0.441590 -0.010357
v -0.046049 -0.450042 -0.005361
v -0.023500 -0.445781 -0.031956
v -0.028046 -0.438661 -0.033162
v -0.039687 -0.415530 -0.026678
v -0.080005 -0.326078 -0.112043
v -0.080045 -0.312652 -0.116245
v -0.074815 -0.325765 -0.097949
v -0.071560 -0.315019 -0.083747
v -0.067073 -0.331946 -0.112068
v -0.064990 -0.297388 -0.082997
v -0.074694 -0.299845 -0.121361
v -0.048888 -0.287103 -0.070815
v -0.047198 -0.284616 -0.075583
v -0.062173 -0.295321 -0.094520
v -0.035378 -0.252844 -0.080877
v -0.064876 -0.280637 -0.126722
v -0.067597 -0.289262 -0.121957
v -0.063477 -0.285449 -0.104435
v -0.058287 -0.281894 -0.104282
v -0.038808 -0.471638 -0.016308
v -0.049920 -0.483281 -0.009491
v -0.052995 -0.476003 -0.010899
v -0.044267 -0.476471 -0.027019
v -0.051134 -0.436564 -0.115590
v -0.038584 -0.447198 -0.122193
v -0.054743 -0.269426 -0.121807
v -0.053976 -0.302263 -0.066722
v -0.054336 -0.314069 -0.068658
v -0.043881 -0.322378 -0.073661
v -0.029879 -0.376976 -0.059912
v -0.019388 -0.392550 -0.065132
v -0.016854 -0.406665 -0.061929
v -0.019499 -0.415279 -0.045739
v -0.021014 -0.405796 -0.050372
v -0.012661 -0.399924 -0.061044
v -0.017308 -0.427643 -0.049993
v -0.031203 -0.420562 -0.036790
v -0.020992 -0.438997 -0.052603
v -0.025354 -0.469926 -0.040344
v -0.023669 -0.477543 -0.041899
v -0.015356 -0.480381 -0.045744
v -0.023544 -0.478169 -0.042900
v -0.023544 -0.478169 -0.042900
v -0.022417 -0.479420 -0.042024
v -0.023544 -0.478169 -0.042900
v -0.022167 -0.479170 -0.043150
v -0.018029 -0.485900 -0.043671
v -0.050877 -0.502031 -0.090616
v -0.047878 -0.476550 -0.088813
v -0.036702 -0.489146 -0.091812
v -0.035766 -0.477974 -0.080968
v -0.045476 -0.461342 -0.070941
v -0.051013 -0.451656 -0.087820
v -0.023953 -0.452392 -0.117620
v -0.035073 -0.447422 -0.109267
v -0.029909 -0.457357 -0.099138
v -0.053748 -0.461607 -0.003927
v -0.048277 -0.245951 -0.126399
v -0.043274 -0.207674 -0.124129
v -0.041974 -0.223629 -0.116793
v -0.046873 -0.251771 -0.100040
v -0.034099 -0.202791 -0.103003
v -0.028882 -0.270642 -0.071932
v -0.029426 -0.274410 -0.063113
v -0.031494 -0.219471 -0.087284
v -0.019478 -0.234822 -0.077931
v -0.017275 -0.206611 -0.079089
v -0.023913 -0.251372 -0.075888
v -0.021917 -0.249999 -0.070275
v -0.016413 -0.225197 -0.077224
v -0.023969 -0.185114 -0.093314
v -0.009260 -0.209844 -0.076518
v -0.004241 -0.207931 -0.071402
v -0.010223 -0.240362 -0.066630
v 0.002336 -0.194248 -0.072555
v -0.000666 -0.236524 -0.068835
v 0.004365 -0.215770 -0.069609
v -0.008689 -0.271087 -0.059987
v -0.000295 -0.266869 -0.076642
v 0.003391 -0.286272 -0.076208
v -0.006182 -0.288436 -0.069473
v 0.000841 -0.262167 -0.087509
v 0.010255 -0.270302 -0.080540
v 0.016723 -0.292809 -0.081437
v 0.024088 -0.278009 -0.086428
v 0.009651 -0.269311 -0.088827
v 0.022518 -0.275216 -0.094728
v 0.037442 -0.287843 -0.103766
v 0.010855 -0.222662 -0.089989
v 0.005168 -0.245603 -0.089308
v 0.021500 -0.205642 -0.080523
v 0.013444 -0.180488 -0.071469
v 0.013426 -0.202386 -0.066610
v 0.033379 -0.212922 -0.092399
v 0.019325 -0.206156 -0.091154
v 0.030897 -0.280787 -0.101836
v 0.029373 -0.302374 -0.096904
v 0.013870 -0.313191 -0.075887
v 0.015166 -0.295541 -0.078284
v -0.043469 -0.504318 -0.088959
v -0.035551 -0.507170 -0.094571
v -0.012262 -0.497508 -0.046193
v -0.006002 -0.510719 -0.047029
v -0.036906 -0.479006 -0.075098
v -0.027005 -0.476783 -0.063289
v -0.019260 -0.493277 -0.065210
v -0.027963 -0.498660 -0.085240
v -0.031813 -0.494141 -0.078283
v -0.011475 -0.419674 -0.065305
v -0.020957 -0.381234 -0.060863
v -0.008419 -0.408581 -0.051222
v 0.001507 -0.431431 -0.066332
v -0.009983 -0.427821 -0.069657
v -0.016402 -0.438918 -0.065959
v -0.004086 -0.439783 -0.062550
v -0.001444 -0.420131 -0.055455
v 0.005383 -0.417643 -0.051453
v 0.015688 -0.422777 -0.065177
v 0.004951 -0.441658 -0.066740
v 0.008545 -0.438484 -0.076780
v -0.006196 -0.451845 -0.070327
v -0.044240 -0.192540 -0.123478
v -0.034775 -0.165392 -0.114981
v -0.005080 -0.160452 -0.087466
v 0.027768 -0.181374 -0.060289
v 0.017507 -0.167447 -0.076765
v -0.018707 -0.157303 -0.099740
v 0.001599 -0.137007 -0.099877
v -0.001825 -0.140450 -0.096409
v -0.023375 -0.166191 -0.095510
v -0.043275 -0.206018 -0.112202
v -0.035290 -0.184482 -0.112116
v -0.017969 -0.141250 -0.111115
v -0.005993 -0.143388 -0.106351
v -0.021764 -0.149690 -0.109840
v 0.016848 -0.151680 -0.084589
v 0.012123 -0.140240 -0.092848
v 0.018410 -0.160755 -0.072163
v 0.013073 -0.140695 -0.081421
v 0.027199 -0.141112 -0.069450
v 0.040935 -0.144307 -0.070097
v 0.040746 -0.167631 -0.063149
v 0.036556 -0.186148 -0.060738
v 0.046149 -0.187257 -0.075993
v 0.045251 -0.147084 -0.092361
v 0.036644 -0.164431 -0.095986
v 0.050382 -0.157728 -0.078671
v 0.042668 -0.152472 -0.097080
v 0.060161 -0.163877 -0.097032
v 0.034110 -0.187151 -0.089443
v 0.034514 -0.177368 -0.093713
v 0.065407 -0.192756 -0.098416
v -0.038730 -0.452727 -0.076803
v -0.027050 -0.463028 -0.082520
v -0.046167 -0.452708 -0.079758
v -0.029265 -0.449802 -0.071759
v -0.035091 -0.459087 -0.060589
v -0.030523 -0.453185 -0.059579
v -0.016560 -0.482626 -0.066615
v -0.003613 -0.492155 -0.059919
v -0.014062 -0.468700 -0.056057
v 0.003130 -0.449882 -0.112565
v 0.000184 -0.447859 -0.120902
v 0.005175 -0.439473 -0.123316
v 0.014902 -0.433886 -0.116973
v 0.016294 -0.438606 -0.111134
v 0.005563 -0.445902 -0.099255
v -0.020089 -0.449206 -0.104424
v -0.022320 -0.461777 -0.098827
v -0.021704 -0.452724 -0.072058
v -0.001770 -0.443173 -0.094198
v -0.011383 -0.447541 -0.100868
v 0.001903 -0.450402 -0.083204
v -0.024516 -0.454150 -0.049383
v -0.039986 -0.368626 -0.060831
v -0.035487 -0.343584 -0.053078
v -0.035342 -0.322642 -0.062084
v -0.015782 -0.320152 -0.057689
v -0.014033 -0.340780 -0.044638
v -0.038143 -0.313680 -0.074226
v -0.014459 -0.314508 -0.074525
v -0.033600 -0.302702 -0.060503
v -0.021362 -0.283511 -0.053525
v -0.013981 -0.290832 -0.053640
v -0.025461 -0.307022 -0.074550
v -0.009668 -0.302450 -0.066021
v -0.014720 -0.304222 -0.073718
v -0.000869 -0.325341 -0.071033
v -0.004529 -0.312509 -0.081683
v -0.002848 -0.328539 -0.059465
v 0.004930 -0.350209 -0.055463
v 0.007380 -0.331275 -0.076224
v -0.001616 -0.363123 -0.039052
v -0.028854 -0.372064 -0.044004
v -0.024046 -0.377946 -0.047460
v -0.019135 -0.369822 -0.039625
v -0.004970 -0.368279 -0.040171
v 0.004691 -0.364852 -0.054779
v 0.011047 -0.384732 -0.046661
v 0.017073 -0.402774 -0.049648
v -0.016713 -0.384913 -0.041245
v 0.000625 -0.414394 -0.045300
v 0.002758 -0.401585 -0.039783
v 0.015005 -0.412458 -0.055486
v 0.018758 -0.411925 -0.066652
v 0.005529 -0.430131 -0.083552
v 0.004900 -0.436631 -0.087943
v 0.012974 -0.423942 -0.081818
v 0.017673 -0.433296 -0.089872
v -0.008470 -0.126502 -0.108235
v -0.014539 -0.124630 -0.123383
v -0.010104 -0.128161 -0.116430
v -0.007352 -0.113498 -0.124119
v -0.011033 -0.106447 -0.121797
v -0.002232 -0.119826 -0.101889
v 0.007997 -0.108247 -0.096133
v 0.015305 -0.098692 -0.107478
v 0.027335 -0.111012 -0.110164
v -0.000707 -0.125415 -0.102906
v 0.006317 -0.131533 -0.100217
v 0.032700 -0.125283 -0.081637
v 0.034528 -0.122398 -0.101341
v 0.034609 -0.102176 -0.111629
v 0.019725 -0.101290 -0.122751
v 0.043048 -0.103047 -0.120472
v -0.007324 -0.092078 -0.124512
v 0.019791 -0.326837 -0.127943
v 0.026605 -0.325651 -0.118630
v 0.032922 -0.306887 -0.118394
v 0.031120 -0.296464 -0.095194
v -0.020936 0.034136 -0.116615
v -0.013944 0.019288 -0.126303
v 0.006846 0.050932 -0.103500
v 0.024390 0.016390 -0.114139
v 0.001090 0.023471 -0.099980
v -0.005110 0.032956 -0.097413
v 0.006679 0.052434 -0.128047
v 0.037100 0.021865 -0.126269
v 0.013471 0.033664 -0.078161
v 0.016916 0.025118 -0.081806
v 0.048765 0.029610 -0.119643
v 0.046165 0.021749 -0.089325
v 0.037641 0.026641 -0.067348
v 0.013123 0.050571 -0.110108
v 0.011225 0.075601 -0.129855
v 0.016641 0.059063 -0.116521
v 0.021412 0.072408 -0.117548
v 0.020527 0.063806 -0.107583
v 0.023513 0.086335 -0.106680
v 0.029771 0.064947 -0.102858
v 0.029114 0.053617 -0.096254
v 0.020615 0.048123 -0.082862
v 0.051551 0.051674 -0.063055
v 0.030095 0.035104 -0.066207
v 0.016860 0.086855 -0.133034
v 0.022644 0.129360 -0.126965
v 0.054088 0.098505 -0.077105
v 0.037847 0.107091 -0.092604
v 0.024218 0.126189 -0.111054
v 0.035105 0.113920 -0.091968
v 0.024588 0.118061 -0.118212
v -0.004427 -0.520883 -0.068968
v 0.040254 -0.056069 -0.127310
v 0.054931 -0.078963 -0.121231
v 0.055747 -0.092032 -0.117045
v 0.065061 -0.072863 -0.113418
v 0.075552 -0.088248 -0.112012
v 0.085575 -0.101277 -0.108990
v 0.058798 -0.128686 -0.096939
v 0.051898 -0.116636 -0.113380
v 0.060615 -0.130296 -0.114001
v 0.079260 -0.127651 -0.113153
v 0.070489 -0.142265 -0.118096
v 0.082250 -0.148075 -0.099325
v 0.043369 -0.136423 -0.093128
v 0.029577 -0.341345 -0.115679
v 0.019912 -0.339035 -0.115973
v 0.018573 -0.326310 -0.112752
v 0.027019 -0.324717 -0.098706
v 0.007767 -0.345569 -0.098519
v 0.011889 -0.348393 -0.108504
v 0.024297 -0.351089 -0.106142
v 0.015858 -0.355977 -0.103979
v 0.009978 -0.331209 -0.095483
v 0.013757 -0.346932 -0.084358
v 0.001284 -0.358786 -0.098645
v 0.006694 -0.357920 -0.100931
v 0.024454 -0.370981 -0.104846
v 0.001907 -0.365130 -0.094116
v 0.013225 -0.381896 -0.090859
v 0.033033 -0.365219 -0.112188
v 0.030101 -0.373800 -0.114114
v 0.036789 -0.370594 -0.123077
v 0.004063 -0.373538 -0.085941
v 0.020854 -0.383677 -0.101574
v 0.029703 -0.391141 -0.106128
v 0.023318 -0.395496 -0.098270
v 0.013965 -0.400783 -0.096873
v 0.036042 -0.380202 -0.115113
v 0.027511 -0.423910 -0.121782
v 0.004184 -0.312772 -0.085945
v 0.006940 -0.322449 -0.088682
v 0.017643 -0.322361 -0.095908
v 0.004284 -0.348379 -0.062862
v 0.012322 -0.413042 -0.047006
v 0.013685 -0.393498 -0.063354
v -0.000928 -0.384577 -0.081104
v -0.000059 -0.395806 -0.075372
v 0.006048 -0.376471 -0.072708
v 0.015029 -0.414035 -0.080075
v 0.006778 -0.404663 -0.081319
v 0.024027 -0.431220 -0.099099
v 0.030017 -0.417898 -0.111089
v 0.003327 -0.127176 -0.092511
v 0.019977 -0.405514 -0.088151
v 0.022921 -0.422501 -0.107464
v 0.020452 -0.410560 -0.101775
v 0.031439 -0.404348 -0.123339
v 0.029382 -0.388997 -0.114932
v 0.026305 0.003011 -0.117941
v 0.033675 -0.208590 -0.087707
v 0.048491 -0.221121 -0.097792
v 0.057047 -0.220462 -0.093112
v 0.065180 -0.230106 -0.113139
v 0.035798 -0.283928 -0.112403
v 0.076020 -0.108988 -0.113214
v 0.083388 -0.151322 -0.124426
v 0.099104 -0.117217 -0.119972
v 0.103726 -0.155120 -0.112030
v 0.091160 -0.167247 -0.100217
v 0.074850 -0.163794 -0.094061
v 0.087140 -0.178423 -0.105834
v 0.048818 -0.189613 -0.091225
v 0.029874 -0.194742 -0.088360
v 0.066800 -0.196492 -0.095054
v 0.106202 -0.175924 -0.114633
v 0.079999 -0.200546 -0.107164
v 0.103334 -0.182824 -0.124963
v 0.076866 -0.204668 -0.100296
v 0.078416 -0.216489 -0.108251
v 0.074450 -0.230206 -0.115883
v 0.085295 -0.222302 -0.126823
v 0.087765 -0.205605 -0.117243
v 0.041917 0.138160 -0.096060
v 0.045808 0.131800 -0.093499
v 0.056040 0.054435 -0.070302
v 0.042043 0.061768 -0.088158
v 0.066760 0.061860 -0.069709
v 0.055039 0.038216 -0.054400
v 0.075421 0.111482 -0.065884
v 0.076393 0.108010 -0.062149
v 0.077772 0.091798 -0.061166
v 0.076495 0.085217 -0.063976
v 0.087631 0.068374 -0.059289
v 0.078593 0.058388 -0.057846
v 0.078920 0.057267 -0.049147
v 0.061052 0.030480 -0.056139
v 0.097437 0.078562 -0.047247
v 0.100597 0.061330 -0.043762
v 0.078563 0.041869 -0.044478
v 0.056082 0.034467 -0.115292
v 0.066797 0.026621 -0.074321
v 0.058841 0.035818 -0.095725
v 0.072134 0.041123 -0.081698
v 0.066993 0.037286 -0.108633
v 0.050374 0.010726 -0.105148
v 0.077363 0.040757 -0.102392
v 0.084680 0.024739 -0.092413
v 0.050708 0.008379 -0.096114
v 0.088544 0.046622 -0.097369
v 0.083700 0.050997 -0.075117
v 0.101517 0.049894 -0.095072
v 0.095373 0.028263 -0.081359
v 0.050418 0.187531 -0.127192
v 0.022514 -0.012634 -0.112752
v 0.043782 -0.005803 -0.095366
v 0.051854 -0.017028 -0.107400
v 0.029792 0.004485 -0.123086
v 0.059714 -0.006583 -0.117623
v 0.058165 -0.033725 -0.108284
v 0.048041 -0.035549 -0.130671
v 0.041266 0.169967 -0.118434
v 0.030479 0.153162 -0.118264
v 0.042291 0.170069 -0.111335
v 0.038187 0.153302 -0.110422
v 0.038944 0.154533 -0.102129
v 0.051946 0.177111 -0.107582
v 0.047717 0.165821 -0.097154
v 0.050813 0.156345 -0.094373
v 0.051235 0.139469 -0.086157
v 0.062401 0.153652 -0.081609
v 0.057446 0.184854 -0.103338
v 0.073434 0.172860 -0.082950
v 0.063924 0.179465 -0.097801
v 0.077553 0.174206 -0.084705
v 0.058916 0.194094 -0.116232
v 0.050509 0.186577 -0.116531
v 0.071214 0.199093 -0.106074
v 0.077876 0.188910 -0.094788
v 0.087092 0.165502 -0.072527
v 0.088070 0.155645 -0.064047
v 0.078545 0.151563 -0.068188
v 0.065663 0.145317 -0.080444
v 0.093204 0.148249 -0.062925
v 0.111920 0.161306 -0.057970
v 0.093140 0.110968 -0.055513
v 0.086547 0.098022 -0.061742
v 0.102975 0.088262 -0.050898
v 0.087612 0.031674 -0.061383
v 0.092677 0.059635 -0.072539
v 0.085466 0.033764 -0.047133
v 0.093234 0.001820 -0.078560
v 0.076223 0.003240 -0.081612
v 0.098086 -0.000673 -0.085621
v 0.087983 -0.005724 -0.088141
v 0.071072 -0.004717 -0.111615
v 0.066736 -0.028900 -0.107277
v 0.083812 -0.022883 -0.087885
v 0.076322 -0.042187 -0.087136
v 0.083517 -0.022034 -0.095432
v 0.076504 -0.004859 -0.102672
v 0.069040 -0.011132 -0.095137
v 0.084496 -0.003610 -0.099781
v 0.093744 -0.005237 -0.092934
v 0.099091 -0.007435 -0.081917
v 0.086932 -0.048951 -0.092109
v 0.056794 -0.049844 -0.103718
v 0.071980 -0.055079 -0.101565
v 0.056107 -0.060825 -0.119149
v 0.081157 -0.076940 -0.106163
v 0.083504 -0.042396 -0.113639
v 0.105760 -0.062091 -0.104711
v 0.096772 -0.094507 -0.109107
v 0.113206 -0.100748 -0.118380
v 0.078354 -0.307229 -0.106203
v 0.074095 -0.351317 -0.108446
v 0.094110 -0.310954 -0.073498
v 0.101259 -0.307705 -0.068550
v 0.103680 -0.306153 -0.061078
v 0.103104 -0.289211 -0.085037
v 0.097697 -0.275712 -0.105711
v 0.047311 -0.505521 -0.090232
v 0.046073 -0.503916 -0.110754
v 0.047804 -0.489079 -0.110152
v 0.052223 -0.496100 -0.094756
v 0.054285 -0.472490 -0.109592
v 0.060118 -0.472944 -0.086209
v 0.061956 -0.485913 -0.079353
v 0.059362 -0.493798 -0.064694
v 0.052599 -0.495389 -0.124119
v 0.063853 0.201681 -0.113004
v 0.080466 0.197225 -0.094672
v 0.088383 0.205015 -0.095268
v 0.093503 0.205186 -0.095346
v 0.063268 -0.447554 -0.100451
v 0.069031 -0.478908 -0.074109
v 0.077329 -0.473784 -0.039557
v 0.078631 -0.464430 -0.054626
v 0.067806 -0.474577 -0.082496
v 0.056034 -0.456190 -0.113231
v 0.066931 -0.460141 -0.090406
v 0.066159 -0.454358 -0.083377
v 0.072455 -0.457038 -0.072341
v 0.074797 -0.452440 -0.057959
v 0.087851 -0.453385 -0.045277
v 0.097037 -0.480232 -0.028125
v 0.095211 -0.455731 -0.019770
v 0.082380 -0.497253 -0.046137
v 0.062227 -0.444455 -0.113171
v 0.063974 -0.436572 -0.102375
v 0.064892 -0.437685 -0.119850
v 0.068893 -0.430812 -0.097148
v 0.078518 -0.448435 -0.059344
v 0.077862 -0.414594 -0.068674
v 0.110904 -0.361443 -0.032491
v 0.102206 -0.354729 -0.050768
v 0.091233 -0.369649 -0.065803
v 0.100993 -0.401873 -0.035135
v 0.112274 -0.424190 -0.017625
v 0.068569 -0.406144 -0.116400
v 0.077349 -0.387071 -0.079407
v 0.080873 -0.389662 -0.076969
v 0.085927 -0.368476 -0.070730
v 0.098829 -0.350924 -0.052604
v 0.103743 -0.332607 -0.054475
v 0.088808 -0.356960 -0.073029
v 0.090829 -0.339556 -0.066542
v 0.078675 -0.373471 -0.093248
v 0.090718 -0.336966 -0.077960
v 0.070722 -0.406262 -0.097525
v 0.071127 -0.385329 -0.109413
v 0.069921 -0.370757 -0.107179
v 0.076021 -0.358672 -0.109560
v 0.077417 -0.372777 -0.126369
v 0.073776 -0.051242 -0.117464
v 0.093056 -0.035968 -0.109473
v 0.077422 0.146719 -0.072678
v 0.092969 -0.033433 -0.078903
v 0.094704 -0.041039 -0.083313
v 0.099159 0.054327 -0.094829
v 0.096844 -0.032647 -0.100981
v 0.106390 -0.032090 -0.077311
v 0.110915 -0.030429 -0.090716
vn -0.9268 -0.2218 -0.3031
vn -0.9619 0.0768 -0.2623
vn -0.3680 0.8147 -0.4482
vn 0.4867 0.7570 -0.4359
vn -0.8819 -0.4658 -0.0728
vn -0.9606 0.0361 -0.2757
vn -0.5521 -0.5874 -0.5917
vn -0.4479 -0.0537 -0.8925
vn -0.9778 -0.1640 -0.1300
vn -0.4695 -0.3081 -0.8274
vn -0.5676 -0.4548 -0.6863
vn -0.8804 -0.3998 -0.2549
vn -0.7057 -0.2074 0.6775
vn -0.8295 0.0506 0.5563
vn -0.1129 -0.8870 0.4477
vn 0.0216 -0.9331 0.3589
vn -0.3132 -0.8289 0.4636
vn -0.0196 -0.5102 0.8598
vn -0.5742 -0.7085 0.4102
vn -0.5196 -0.8009 0.2975
vn -0.2307 -0.8711 0.4336
vn -0.5193 -0.7102 0.4753
vn -0.9157 0.3356 -0.2209
vn -0.7899 -0.5392 0.2921
vn -0.5218 -0.3090 -0.7951
vn -0.6683 -0.3269 -0.6682
vn -0.5761 -0.5854 -0.5705
vn -0.5180 -0.3186 -0.7938
vn -0.4238 -0.2332 -0.8752
vn -0.9867 0.0237 -0.1611
vn -0.9672 0.2533 -0.0173
vn -0.4009 -0.1542 -0.9030
vn -0.8684 -0.0067 -0.4957
vn -0.6869 0.6334 -0.3563
vn -0.4321 -0.2024 -0.8788
vn -0.4274 -0.2574 -0.8666
vn 0.3883 0.8412 -0.3764
vn 0.4683 0.8107 -0.3513
vn -0.5766 0.2292 -0.7842
vn -0.5165 0.6329 -0.5767
vn 0.4999 0.7472 -0.4379
vn 0.6313 0.6883 0.3573
vn 0.5040 0.7454 -0.4363
vn 0.7221 0.6912 -0.0272
vn -0.4925 0.4887 -0.7201
vn -0.3691 -0.6742 -0.6397
vn -0.1783 -0.2977 -0.9379
vn -0.4607 -0.2884 -0.8394
vn -0.8457 -0.0525 -0.5310
vn 0.2867 0.5457 -0.7874
vn 0.2934 0.8419 -0.4529
vn -0.4926 -0.0968 0.8649
vn -0.4267 -0.6505 0.6284
vn -0.0161 -0.9380 0.3463
vn -0.2164 -0.8676 0.4477
vn -0.3634 -0.8259 0.4311
vn -0.2279 -0.7167 0.6590
vn 0.2816 -0.2571 0.9244
vn -0.2252 0.9738 0.0309
vn -0.1638 0.9839 -0.0715
vn -0.4675 0.8428 0.2667
vn -0.0986 0.9909 0.0917
vn 0.6632 0.6046 0.4412
vn -0.6727 0.6055 0.4253
vn -0.7079 -0.0991 0.6994
vn -0.6987 0.3277 0.6360
vn -0.1760 0.5857 0.7911
vn -0.1152 0.9390 0.3241
vn -0.2232 0.9747 0.0108
vn -0.1103 0.9848 -0.1345
vn 0.3427 0.7162 -0.6080
vn 0.4360 0.6530 -0.6193
vn -0.5830 -0.2870 -0.7601
vn -0.5668 -0.3116 -0.7626
vn -0.3753 -0.1297 -0.9178
vn -0.4262 -0.0680 -0.9021
vn 0.2584 0.9314 -0.2563
vn 0.2668 0.8504 -0.4534
vn 0.1623 0.8636 -0.4774
vn 0.4776 0.8391 0.2605
vn -0.1724 0.8164 0.5511
vn -0.1979 0.5977 -0.7769
vn -0.1184 0.5441 0.8306
vn 0.4153 0.5013 0.7591
vn -0.7656 0.2144 0.6065
vn -0.7898 0.1365 0.5980
vn -0.0101 -0.9083 0.4183
vn -0.1016 -0.9469 0.3052
vn 0.1101 0.3017 0.9470
vn -0.1243 0.3912 0.9119
vn -0.5227 -0.5272 0.6700
vn -0.4352 -0.1753 -0.8831
vn 0.5592 0.6552 0.5079
vn 0.2369 0.8427 -0.4835
vn 0.2371 0.8380 -0.4914
vn 0.3271 0.9450 0.0004
vn 0.5444 0.5651 0.6200
vn 0.2271 0.8793 -0.4187
vn 0.4053 0.4593 0.7905
vn 0.5442 0.4587 0.7024
vn 0.5410 0.4613 0.7032
vn 0.5414 0.4603 0.7036
vn 0.5553 0.5565 0.6180
vn 0.5412 -0.1695 0.8236
vn 0.5967 0.8022 -0.0174
vn 0.6350 0.5410 0.5514
vn 0.6608 0.5092 0.5514
vn 0.2820 0.8428 -0.4584
vn -0.2276 0.4239 -0.8767
vn -0.2210 0.4434 -0.8686
vn 0.4665 0.8213 -0.3285
vn 0.6004 0.1514 0.7852
vn 0.5993 0.7985 -0.0565
vn 0.2558 0.8077 -0.5313
vn 0.2770 0.8029 -0.5279
vn -0.2313 0.4231 -0.8761
vn 0.5430 0.6734 0.5016
vn 0.2965 0.7705 -0.5643
vn 0.6877 0.5244 0.5021
vn 0.6252 0.1597 0.7639
vn 0.7440 0.3931 0.5403
vn 0.6488 0.7603 -0.0312
vn 0.6505 0.7489 -0.1261
vn 0.7564 0.3165 0.5724
vn 0.2739 0.7760 -0.5682
vn 0.4630 0.8294 -0.3126
vn 0.6703 0.3514 0.6536
vn -0.1986 0.4182 -0.8864
vn -0.2587 0.4012 -0.8787
vn 0.3153 0.7275 -0.6093
vn 0.4590 -0.1946 0.8669
vn 0.7776 0.1344 0.6142
vn 0.7703 0.2178 0.5994
vn -0.5041 0.4785 0.7190
vn -0.5086 0.4801 0.7147
vn 0.0030 0.4500 0.8930
vn 0.2341 0.2041 0.9506
vn 0.7825 0.3008 0.5451
vn 0.7967 0.5945 -0.1093
vn 0.7986 0.5990 -0.0587
vn 0.8097 0.4579 0.3670
vn 0.5778 0.6203 0.5304
vn 0.5460 0.6772 0.4932
vn 0.3637 0.8743 -0.3215
vn 0.3628 0.8706 -0.3323
vn -0.4489 -0.2410 -0.8605
vn 0.5088 0.2557 0.8220
vn 0.8689 -0.4743 0.1415
vn -0.1476 0.3448 0.9270
vn 0.4729 0.2600 0.8419
vn -0.1598 0.3566 0.9205
vn 0.8997 -0.3554 0.2536
vn -0.1122 0.3644 0.9244
vn 0.5915 0.3514 -0.7257
vn -0.7452 0.4175 0.5200
vn -0.8027 -0.5958 0.0265
vn -0.6013 -0.1919 0.7757
vn -0.4989 -0.8335 0.2373
vn -0.0424 -0.8432 0.5360
vn 0.2414 0.8116 -0.5320
vn 0.2683 0.4840 -0.8329
vn 0.2878 0.5415 -0.7899
vn -0.7779 0.5230 0.3483
vn -0.9215 0.2341 0.3098
vn 0.0838 0.3282 -0.9409
vn -0.9550 0.2066 0.2129
vn -0.4896 -0.5189 -0.7007
vn -0.6158 -0.0390 -0.7869
vn 0.6515 0.6775 0.3415
vn 0.4609 0.4076 -0.7883
vn -0.7597 0.0880 -0.6442
vn -0.5615 0.3027 -0.7701
vn -0.8460 0.2297 -0.4811
vn -0.4370 -0.3164 -0.8420
vn -0.9493 -0.0559 -0.3092
vn -0.4377 -0.3165 -0.8416
vn -0.4499 -0.1799 -0.8748
vn -0.1440 -0.0687 -0.9872
vn -0.6814 -0.2346 -0.6933
vn 0.4314 0.6667 -0.6078
vn -0.2499 0.8821 -0.3992
vn -0.3591 0.7434 -0.5643
vn -1.0000 -0.0019 0.0048
vn -0.7064 -0.3581 -0.6105
vn -0.8625 -0.4630 0.2041
vn -0.8592 -0.3777 0.3451
vn -0.9589 -0.2316 -0.1642
vn -0.9925 -0.0804 0.0925
vn -0.9260 -0.3474 -0.1477
vn -0.2899 -0.7961 -0.5313
vn 0.0025 -0.3434 -0.9392
vn -0.7809 -0.0346 -0.6237
vn -0.7091 -0.0427 -0.7038
vn -0.5084 -0.4755 -0.7180
vn -0.0087 -0.3023 -0.9532
vn -0.7001 -0.0872 -0.7087
vn 0.1328 -0.3898 -0.9113
vn 0.5314 -0.4457 -0.7204
vn -0.7160 -0.6925 -0.0880
vn -0.6627 -0.6505 -0.3712
vn -0.7112 -0.5835 -0.3921
vn -0.9003 -0.1632 0.4035
vn -0.4020 -0.7824 0.4757
vn -0.0484 -0.5474 0.8355
vn -0.6648 -0.6380 0.3885
vn -0.7962 -0.1052 0.5958
vn -0.5463 -0.2477 0.8001
vn -0.8302 0.1631 -0.5331
vn -0.8880 0.3747 0.2667
vn -0.8857 0.2888 0.3635
vn -0.8851 0.2876 0.3659
vn -0.8903 0.2897 0.3513
vn -0.9681 0.2455 0.0494
vn -0.9736 0.2284 0.0070
vn -0.3353 -0.9194 0.2056
vn -0.7743 -0.1206 -0.6212
vn -0.5094 -0.2831 -0.8127
vn -0.2274 -0.7194 0.6564
vn -0.3563 -0.6674 0.6540
vn -0.8954 0.2684 0.3552
vn 0.3126 0.0710 0.9472
vn 0.3631 0.0901 0.9274
vn -0.8275 0.2820 0.4855
vn 0.4366 0.0591 0.8977
vn -0.2473 -0.7336 0.6330
vn 0.0425 -0.6691 0.7420
vn -0.7822 0.6090 -0.1315
vn -0.6011 0.7991 -0.0125
vn -0.6878 0.7228 0.0672
vn -0.6882 0.6878 0.2308
vn -0.6647 -0.2140 0.7158
vn -0.4976 0.7543 0.4283
vn 0.0192 0.6804 -0.7326
vn -0.0875 0.4369 -0.8952
vn 0.4969 0.6522 -0.5725
vn 0.3259 0.6843 -0.6524
vn 0.7627 0.4833 0.4298
vn -0.1672 0.7565 0.6323
vn -0.0955 0.7096 0.6982
vn 0.3953 0.4316 0.8108
vn 0.2545 0.7300 0.6342
vn 0.1071 0.9766 0.1865
vn -0.0563 0.9862 0.1559
vn -0.4498 0.7218 0.5260
vn 0.0197 0.9909 0.1332
vn -0.0641 0.9873 0.1451
vn 0.4586 0.6665 0.5878
vn 0.8706 0.0389 0.4904
vn -0.8027 0.3399 0.4901
vn -0.6862 0.1454 0.7127
vn -0.1722 -0.0227 0.9848
vn 0.9010 0.2992 0.3143
vn 0.8793 0.3876 0.2768
vn 0.8552 0.3440 0.3877
vn 0.3963 0.8351 0.3816
vn -0.4535 0.7640 0.4589
vn 0.3729 0.2279 0.8994
vn 0.7725 0.0375 0.6340
vn 0.7668 0.4763 0.4303
vn 0.4742 0.8413 0.2594
vn 0.3535 -0.0327 0.9348
vn 0.5948 -0.1257 0.7940
vn 0.5124 0.0100 0.8587
vn 0.5710 0.1472 0.8077
vn 0.6615 0.0434 0.7487
vn 0.4898 0.1308 0.8620
vn 0.8456 -0.0994 0.5244
vn 0.5171 0.2166 0.8281
vn 0.7072 0.2403 0.6649
vn 0.9912 -0.0235 -0.1306
vn -0.0720 0.2359 0.9691
vn 0.3859 0.2450 0.8894
vn -0.7452 0.2752 0.6074
vn -0.6779 0.3958 -0.6196
vn -0.4512 -0.3008 -0.8402
vn -0.5246 -0.2654 -0.8089
vn -0.4054 -0.6918 -0.5975
vn -0.6699 0.0290 -0.7419
vn -0.7223 -0.0752 -0.6875
vn -0.0030 0.2330 -0.9725
vn -0.5499 0.2334 -0.8020
vn -0.1405 -0.8417 -0.5214
vn -0.2370 0.8117 -0.5338
vn -0.7355 -0.0453 -0.6760
vn -0.8024 -0.4441 0.3986
vn -0.7278 -0.5006 0.4688
vn 0.2009 -0.3307 -0.9221
vn 0.1896 -0.3324 -0.9239
vn 0.6717 -0.4773 -0.5666
vn -0.6784 -0.5529 0.4838
vn 0.5036 -0.6583 -0.5595
vn 0.9849 0.1703 -0.0295
vn 0.8887 0.1798 0.4217
vn -0.4737 -0.4553 0.7539
vn -0.2303 -0.2149 0.9491
vn 0.8803 0.0924 0.4653
vn 0.0831 -0.9235 0.3744
vn 0.7457 0.2714 0.6085
vn 0.6619 0.3180 0.6788
vn 0.6537 0.2715 0.7064
vn 0.6936 -0.4694 0.5463
vn 0.6260 -0.6013 0.4966
vn 0.6629 -0.4792 0.5753
vn 0.7037 -0.6870 -0.1810
vn 0.8950 0.1213 0.4293
vn 0.6148 -0.3843 0.6887
vn 0.5648 0.3341 0.7546
vn 0.7766 0.0864 0.6240
vn 0.3304 0.4211 0.8447
vn 0.3818 0.3861 0.8398
vn 0.6314 -0.3853 0.6730
vn 0.6592 -0.3567 0.6620
vn 0.1431 0.3660 0.9196
vn 0.9471 0.0433 0.3179
vn 0.9161 0.2261 0.3311
vn 0.6805 -0.2423 0.6915
vn 0.5344 0.5977 0.5976
vn 0.4805 0.6459 0.5932
vn 0.7036 -0.3366 0.6258
vn 0.0537 0.9756 0.2129
vn 0.2652 0.8727 -0.4099
vn 0.2608 0.7869 -0.5593
vn -0.2585 0.4031 -0.8779
vn 0.3580 0.7686 -0.5302
vn 0.5835 0.6205 0.5238
vn -0.4804 -0.8450 0.2350
vn 0.6875 0.5144 -0.5125
vn -0.9544 0.1961 0.2251
vn -0.5343 -0.7816 0.3218
vn -0.9227 -0.1747 0.3437
vn -0.9632 0.0776 0.2572
vn -0.9082 0.3273 0.2610
vn -0.4069 -0.8976 0.1698
vn -0.4305 -0.8895 0.1533
vn -0.8755 0.4430 0.1931
vn -0.7743 -0.4064 0.4850
vn -0.4153 -0.8173 0.3994
vn -0.3839 -0.8508 0.3588
vn -0.6353 -0.2236 0.7392
vn -0.6522 -0.1033 0.7510
vn -0.7622 0.2588 0.5933
vn -0.5470 0.8370 0.0164
vn -0.6824 0.7188 0.1333
vn -0.8212 0.3460 0.4538
vn -0.7908 0.5459 0.2769
vn -0.4389 0.8969 0.0536
vn -0.9740 0.0832 0.2109
vn -0.9205 0.3659 0.1368
vn 0.4284 -0.7266 0.5372
vn 0.4230 -0.7297 0.5372
vn 0.7255 0.1385 0.6741
vn 0.4279 0.3425 0.8364
vn 0.4330 0.3361 0.8364
vn 0.7565 0.5217 0.3945
vn 0.9617 -0.2076 -0.1790
vn -0.4532 -0.4924 -0.7431
vn -0.4479 -0.4947 -0.7448
vn -0.4363 0.6083 0.6630
vn -0.5569 0.8040 0.2086
vn -0.7703 0.5828 0.2588
vn -0.7858 0.3744 0.4923
vn -0.9352 0.3408 0.0965
vn -0.3966 0.2926 0.8701
vn -0.7013 0.3956 0.5931
vn -0.2916 -0.1462 0.9453
vn 0.3152 0.0800 0.9456
vn 0.3804 0.0265 0.9244
vn -0.6246 0.1698 0.7622
vn -0.2590 0.0599 0.9640
vn 0.0838 0.2087 0.9744
vn 0.5491 0.0914 0.8308
vn 0.5882 0.3585 0.7249
vn 0.6394 0.2775 0.7170
vn 0.2030 0.9792 -0.0005
vn -0.4044 0.1327 0.9049
vn 0.9063 0.2935 0.3042
vn 0.6195 0.4223 0.6617
vn 0.6600 -0.2844 0.6953
vn 0.5126 0.2538 0.8202
vn 0.3221 0.3544 0.8778
vn 0.9317 0.0409 0.3609
vn 0.9450 -0.2615 -0.1964
vn 0.8234 -0.2705 -0.4988
vn 0.8990 -0.2527 -0.3576
vn 0.8285 0.5295 0.1821
vn 0.7336 0.2879 -0.6155
vn 0.3891 -0.1009 0.9157
vn -0.0471 -0.8497 0.5251
vn -0.0000 1.0000 -0.0000
vn 0.7787 0.5711 -0.2596
vn 0.7758 0.3156 -0.5464
vn 0.5963 0.7454 0.2981
vn 0.3861 0.3141 0.8673
vn 0.3761 0.1607 0.9125
vn 0.8249 0.4847 0.2910
vn 0.7716 0.5856 -0.2483
vn -0.5929 -0.0400 -0.8043
vn 0.1234 0.3556 -0.9264
vn 0.8083 -0.2731 -0.5216
vn -0.6935 -0.0903 -0.7147
vn 0.1715 0.3696 -0.9132
vn 0.7790 0.5873 -0.2197
vn -0.6919 -0.7208 -0.0419
vn -0.4331 -0.6540 -0.6203
vn -0.5931 -0.7915 0.1474
vn -0.1745 -0.7459 -0.6428
vn -0.2077 -0.7032 -0.6799
vn -0.3557 -0.9311 0.0805
vn 0.2591 0.3221 0.9106
vn 0.6766 0.2881 0.6777
vn 0.1448 0.0263 0.9891
vn 0.1413 0.3654 0.9201
vn 0.5687 0.3446 0.7469
vn 0.5626 0.3944 0.7266
vn 0.6241 -0.3936 0.6750
vn 0.4446 0.3475 0.8256
vn 0.3634 -0.9046 0.2230
vn -0.9362 0.3467 0.0573
vn -0.9520 0.2844 0.1135
vn -0.9680 0.2293 0.1022
vn -0.9537 0.2581 0.1546
vn -0.6171 0.7367 0.2766
vn -0.4130 0.2841 0.8653
vn -0.8361 0.1957 0.5125
vn -0.8746 0.2531 0.4135
vn -0.2461 0.0589 0.9675
vn -0.6271 0.2166 0.7482
vn -0.4128 0.2197 0.8839
vn -0.9218 0.2904 0.2566
vn -0.9467 0.3133 0.0754
vn -0.5895 0.7827 0.1996
vn -0.5454 0.3842 0.7449
vn -0.5494 0.3864 0.7409
vn -0.9242 0.2797 0.2601
vn -0.9271 0.2766 0.2530
vn -0.4290 0.0705 0.9005
vn -0.6511 0.2673 0.7103
vn -0.2737 0.0835 0.9582
vn -0.6634 0.2273 0.7129
vn -0.7338 0.3142 0.6024
vn -0.3096 -0.0114 0.9508
vn -0.0627 0.1566 0.9857
vn 0.2324 -0.0201 0.9724
vn -0.5211 0.3355 0.7848
vn 0.1364 0.2158 0.9669
vn 0.8985 -0.0991 0.4278
vn 0.2668 0.2164 0.9392
vn -0.5097 0.3678 0.7778
vn 0.8996 -0.0985 0.4254
vn 0.8985 -0.1034 0.4267
vn 0.5522 0.1233 0.8245
vn 0.9693 -0.2460 -0.0052
vn 0.9589 -0.2329 0.1620
vn 0.4135 0.8191 0.3976
vn 0.1922 0.0562 0.9798
vn 0.6333 0.7725 0.0462
vn 0.3652 0.0680 0.9284
vn 0.4043 0.0971 0.9095
vn 0.4313 0.0882 0.8979
vn 0.5069 0.8595 0.0658
vn 0.4819 0.8540 0.1963
vn 0.5867 -0.3802 0.7150
vn 0.6761 -0.0898 0.7313
vn 0.7967 0.0165 0.6042
vn 0.6812 0.7231 0.1145
vn 0.7209 0.5552 0.4147
vn 0.4535 0.1037 0.8852
vn 0.9098 -0.2071 0.3597
vn 0.2471 -0.0325 0.9685
vn 0.6451 -0.6377 0.4211
vn -0.7251 0.3960 0.5633
vn -0.4739 0.3178 0.8212
vn -0.3218 0.2321 0.9179
vn -0.2469 -0.0497 0.9678
vn 0.6547 -0.5576 0.5104
vn 0.1318 -0.0600 0.9895
vn 0.0978 0.0200 0.9950
vn 0.2928 -0.0867 0.9522
vn 0.8288 -0.1312 0.5439
vn -0.2937 -0.9106 0.2907
vn 0.7988 0.0230 0.6011
vn 0.5180 0.5031 0.6918
vn 0.8127 0.1772 0.5551
vn 0.3047 0.3433 -0.8884
vn 0.8616 0.4569 -0.2212
vn 0.8438 0.4740 -0.2517
vn 0.5159 0.0709 0.8537
vn 0.1256 -0.0033 0.9921
vn 0.8356 0.2366 0.4957
vn -0.5893 -0.0490 -0.8065
vn -0.6502 -0.1207 -0.7501
vn 0.6762 0.4832 -0.5561
vn 0.6690 0.3880 -0.6340
vn -0.3246 -0.0424 -0.9449
vn 0.8944 0.3774 0.2401
vn 0.6607 0.3608 -0.6583
vn 0.9362 0.2669 0.2288
vn 0.9057 0.2750 0.3226
vn -0.1017 0.1441 -0.9843
vn 0.7867 0.3948 -0.4746
vn 0.2631 0.5765 0.7736
vn 0.2852 -0.5400 0.7919
vn 0.0795 0.0123 0.9968
vn 0.1484 0.2156 0.9652
vn -0.6274 0.1727 0.7593
vn 0.1203 -0.2025 0.9719
vn 0.9723 0.0994 0.2117
vn 0.8598 0.2383 0.4516
vn -0.6921 -0.1917 0.6959
vn -0.8646 -0.4981 -0.0657
vn -0.7266 -0.3284 0.6035
vn -0.9088 -0.4023 -0.1107
vn -0.8914 -0.4529 -0.0143
vn -0.5472 -0.6503 0.5270
vn -0.3807 -0.4890 0.7848
vn 0.7348 -0.2100 0.6450
vn -0.1067 0.4685 0.8770
vn -0.2149 0.4184 0.8825
vn -0.1489 -0.7057 0.6927
vn 0.3950 -0.7229 0.5670
vn 0.4369 0.1115 0.8926
vn 0.5222 -0.8524 -0.0255
vn 0.6247 -0.7760 0.0873
vn 0.8348 -0.5351 0.1296
vn 0.8389 0.4918 0.2331
vn 0.8731 0.2780 0.4004
vn 0.5935 -0.7512 0.2891
vn 0.2523 -0.5551 0.7926
vn -0.0640 -0.5328 0.8438
vn -0.2740 -0.2987 0.9142
vn 0.7418 -0.6218 0.2513
vn 0.9172 -0.2455 0.3138
vn 0.9240 -0.3400 0.1750
vn -0.6122 0.2949 0.7337
vn -0.4433 0.2721 0.8541
vn -0.4499 0.0387 0.8922
vn -0.2726 0.4337 0.8588
vn -0.4303 0.1174 0.8950
vn -0.4726 0.4227 0.7733
vn -0.6677 0.5754 0.4723
vn -0.8664 0.2641 0.4239
vn -0.7488 0.0995 0.6552
vn -0.7119 0.0232 0.7019
vn -0.9006 0.3328 0.2796
vn -0.8666 0.4927 0.0791
vn -0.7379 0.4125 0.5342
vn -0.7126 0.6954 0.0932
vn -0.2132 0.5714 0.7925
vn 0.5380 0.2696 0.7987
vn -0.3100 0.5123 0.8009
vn -0.4141 0.4142 0.8105
vn -0.2803 0.4172 0.8645
vn -0.6330 0.1792 0.7532
vn -0.0198 0.2216 0.9749
vn 0.1072 0.1045 0.9887
vn -0.5986 0.1781 0.7810
vn -0.6122 0.1672 0.7728
vn -0.9593 0.2360 -0.1549
vn -0.5522 0.3875 0.7382
vn -0.0794 -0.2371 0.9682
vn 0.4392 -0.7842 0.4384
vn 0.8365 -0.1196 0.5347
vn 0.8690 -0.0803 0.4883
vn 0.5086 -0.7745 0.3761
vn 0.8737 -0.1667 -0.4571
vn 0.7432 -0.2381 -0.6252
vn 0.7485 -0.2324 -0.6211
vn 0.9585 0.1518 -0.2412
vn 0.8937 -0.4481 0.0224
vn -0.3418 -0.5210 0.7821
vn 0.0427 0.0697 0.9967
vn 0.7080 -0.3069 -0.6361
vn 0.5710 -0.6384 -0.5161
vn 0.0399 0.1665 0.9852
vn 0.1078 0.0903 0.9901
vn 0.8595 0.4488 0.2445
vn 0.1106 0.2829 0.9527
vn 0.7844 0.1712 0.5962
vn 0.0637 -0.9840 -0.1667
vn -0.4626 -0.7692 0.4409
vn 0.8493 -0.3424 -0.4018
vn 0.2701 -0.6773 -0.6844
vn -0.1990 -0.6383 0.7436
vn -0.2172 -0.6377 0.7391
vn 0.6380 0.4556 -0.6207
vn 0.6086 0.3840 -0.6943
vn 0.5630 -0.7187 -0.4082
vn 0.7625 -0.5256 -0.3773
vn 0.3887 -0.8973 -0.2091
vn 0.0149 0.1575 -0.9874
vn -0.2422 0.1154 -0.9633
vn 0.5603 0.4343 -0.7053
vn 0.6336 0.3921 -0.6670
vn 0.6923 0.3307 0.6414
vn 0.7977 0.3470 0.4932
vn 0.8421 0.3015 0.4472
vn -0.3208 -0.0435 -0.9462
vn 0.5756 0.2308 -0.7845
vn -0.4232 -0.9056 -0.0296
vn -0.2479 -0.9291 -0.2744
vn -0.2039 -0.9364 0.2857
vn 0.1403 -0.9497 -0.2800
vn 0.6410 -0.5388 -0.5467
vn 0.6559 -0.5030 -0.5629
vn 0.6241 -0.6796 -0.3855
vn 0.0650 -0.9553 0.2883
vn 0.0366 -0.9593 0.2802
vn 0.0830 -0.9740 0.2108
vn 0.1573 -0.6637 -0.7313
vn -0.1801 -0.3732 -0.9101
vn -0.4861 -0.8492 -0.2062
vn 0.4107 -0.4307 -0.8037
vn 0.4002 -0.9153 0.0458
vn 0.6190 -0.5552 -0.5555
vn 0.6322 -0.5334 -0.5619
vn 0.0342 -0.8579 0.5126
vn 0.3982 -0.9051 0.1490
vn -0.0397 -0.7017 0.7114
vn -0.1055 -0.3677 0.9239
vn 0.6743 -0.7265 -0.1321
vn 0.8105 -0.2959 -0.5055
vn 0.6824 0.6466 -0.3409
vn 0.4775 0.6140 0.6285
vn -0.9365 0.3474 -0.0483
vn -0.8165 0.1071 0.5673
vn -0.7263 0.4250 0.5402
vn -0.7148 0.1226 0.6885
vn -0.6450 -0.2370 0.7265
vn -0.6971 0.0557 0.7148
vn -0.8191 -0.0302 0.5729
vn -0.7709 0.2595 0.5817
vn -0.7756 0.2539 0.5779
vn -0.2499 0.5025 0.8277
vn -0.2336 0.7558 0.6117
vn 0.0371 0.9466 0.3203
vn -0.6950 0.4925 0.5239
vn 0.4176 -0.7719 0.4793
vn 0.2138 -0.7961 0.5661
vn -0.2914 -0.1573 0.9436
vn -0.5195 0.3573 0.7762
vn 0.2482 0.2355 0.9396
vn -0.2019 -0.2184 0.9547
vn 0.0134 0.0231 0.9996
vn 0.2032 -0.8966 0.3935
vn 0.1698 -0.6884 0.7051
vn 0.8977 -0.1188 0.4242
vn 0.8984 -0.1036 0.4268
vn 0.0542 -0.9803 0.1901
vn -0.0564 -0.0795 0.9952
vn 0.5905 -0.0481 0.8056
vn -0.3817 0.3674 0.8481
vn -0.8357 -0.0198 0.5488
vn 0.5446 0.7814 0.3048
vn 0.4085 -0.3194 0.8550
vn -0.1959 -0.9197 0.3403
vn 0.3505 0.6553 0.6691
vn 0.5469 0.7782 0.3087
vn 0.4318 0.5081 0.7452
vn 0.8943 0.3680 0.2547
vn 0.4870 0.4568 0.7445
vn -0.6282 -0.7311 0.2662
vn -0.6679 -0.6979 0.2586
vn -0.4164 -0.9005 0.1250
vn -0.4381 0.1787 0.8810
vn -0.3819 0.2220 0.8971
vn -0.1034 0.1868 0.9769
vn -0.0731 -0.3609 0.9297
vn -0.2023 -0.6137 0.7632
vn 0.0646 -0.2515 0.9657
vn 0.7443 -0.5623 0.3603
vn 0.6919 0.4513 0.5635
vn 0.3367 -0.0433 0.9406
vn 0.5696 0.1416 0.8096
vn -0.7327 -0.1879 0.6541
vn -0.7863 -0.4527 0.4204
vn -0.6749 -0.4746 0.5650
vn 0.0490 -0.0988 0.9939
vn -0.0810 -0.0072 0.9967
vn -0.3428 -0.3229 0.8822
vn -0.6735 -0.5764 0.4629
vn 0.0330 -0.8731 0.4865
vn 0.1754 -0.8081 0.5623
vn 0.5043 -0.8576 0.1005
vn 0.1781 -0.4141 0.8926
vn 0.5570 -0.5487 0.6235
vn 0.8872 -0.3105 -0.3412
vn 0.9503 0.1057 -0.2927
vn 0.1528 -0.7599 0.6318
vn 0.2699 -0.5468 0.7925
vn 0.2644 -0.5572 0.7871
vn 0.2847 -0.7332 0.6176
vn 0.6173 -0.7776 0.1197
vn 0.7993 -0.3436 -0.4930
vn -0.7563 -0.0763 0.6498
vn -0.9690 -0.1179 0.2171
vn -0.2460 0.4879 0.8375
vn -0.8970 0.3253 0.2992
vn -0.7350 0.6780 0.0093
vn -0.8756 -0.4786 0.0654
vn -0.7784 0.3047 0.5489
vn -0.1857 0.8073 0.5602
vn 0.7224 0.6853 0.0925
vn 0.7226 0.6630 0.1958
vn -0.7273 0.3486 0.5912
vn -0.5282 0.5721 0.6274
vn -0.8351 0.4277 0.3460
vn -0.6741 0.7358 0.0651
vn -0.6444 -0.0092 0.7647
vn -0.5144 -0.2874 0.8079
vn -0.7010 0.2970 0.6484
vn -0.9050 -0.3015 0.3001
vn -0.5726 0.0988 0.8139
vn -0.1803 0.2149 0.9598
vn -0.4164 0.4093 0.8118
vn -0.9885 0.0319 0.1476
vn -0.9495 -0.2979 -0.0983
vn 0.1692 0.5637 0.8085
vn -0.0354 0.6174 0.7859
vn 0.1031 0.7271 0.6788
vn 0.7901 0.5917 0.1600
vn 0.7730 0.6135 0.1616
vn -0.3494 0.4260 0.8346
vn -0.4912 0.5202 0.6987
vn 0.8822 -0.4001 0.2483
vn 0.9159 -0.3347 0.2216
vn 0.9477 -0.3190 -0.0047
vn -0.6448 -0.6068 0.4647
vn -0.6539 -0.5640 0.5043
vn 0.1200 0.9910 0.0598
vn -0.1478 -0.9602 0.2370
vn 0.3264 -0.9416 -0.0830
vn -0.1565 -0.9620 0.2235
vn -0.6086 0.6234 0.4909
vn -0.6325 0.5408 0.5545
vn -0.6041 -0.5508 0.5760
vn -0.6308 0.5036 0.5903
vn -0.6113 -0.5060 0.6086
vn 0.6048 -0.7819 -0.1509
vn 0.6072 -0.7802 -0.1502
vn -0.0956 -0.9664 0.2388
vn -0.4566 0.6931 0.5578
vn -0.3862 0.7149 0.5829
vn -0.8916 -0.1872 0.4123
vn -0.7747 -0.1156 0.6217
vn -0.8579 -0.1939 0.4759
vn -0.5728 0.6317 0.5223
vn 0.1170 0.9915 0.0569
vn -0.5024 0.5190 0.6916
vn -0.4765 -0.5004 0.7229
vn -0.4656 -0.5125 0.7215
vn -0.5368 0.4888 0.6877
vn -0.9618 0.1217 0.2452
vn -0.6931 -0.0101 0.7207
vn -0.8779 -0.3797 0.2919
vn -0.8974 -0.3139 0.3101
vn -0.8768 0.4476 0.1759
vn -0.8257 0.2172 0.5206
vn -0.9688 -0.0440 0.2437
vn -0.2859 0.2761 0.9176
vn -0.4467 0.2475 0.8598
vn 0.5315 0.7264 0.4357
vn 0.8169 0.5718 0.0762
vn -0.4110 0.1969 0.8901
vn 0.8431 0.5363 0.0392
vn -0.0357 -0.0681 0.9970
vn -0.0075 0.0020 1.0000
vn -0.0561 0.1557 0.9862
vn 0.0026 -0.3218 0.9468
vn 0.6208 0.7694 -0.1508
vn 0.7750 0.6315 0.0229
vn -0.0187 0.4715 0.8817
vn -0.1073 0.4512 0.8860
vn 0.8176 0.5128 0.2620
vn 0.1134 -0.9926 0.0435
vn 0.9934 0.0851 0.0767
vn 0.2485 -0.9399 0.2341
vn -0.2293 -0.9721 0.0503
vn 0.8290 -0.0537 0.5567
vn -0.0597 0.4882 0.8707
vn 0.8244 -0.3551 0.4407
vn 0.8968 -0.2193 0.3842
vn 0.8028 -0.3980 0.4439
vn 0.1507 0.5634 0.8123
vn 0.2655 0.5070 0.8200
vn -0.0111 0.6296 0.7768
vn 0.2121 0.0652 0.9751
vn 0.6103 0.3076 0.7300
vn 0.2031 0.4257 0.8818
vn 0.9174 -0.0580 -0.3936
vn 0.7264 -0.3507 -0.5911
vn 0.7558 0.2006 0.6234
vn 0.6274 0.0556 0.7767
vn 0.1339 0.6552 0.7435
vn 0.7353 -0.3776 0.5628
vn 0.8017 -0.3779 0.4631
vn 0.6162 0.4736 0.6292
vn 0.8363 -0.0981 0.5394
vn 0.8061 -0.0773 0.5868
vn 0.6991 0.4303 0.5710
vn -0.0211 0.6942 0.7195
vn 0.5489 0.1146 0.8280
vn 0.6361 0.3278 0.6985
vn 0.7920 -0.1569 0.5900
vn -0.0074 0.2677 0.9635
vn 0.5462 -0.2870 0.7870
vn 0.2892 -0.2687 0.9188
vn 0.7987 -0.1006 0.5933
vn 0.8282 -0.0691 0.5562
vn 0.1041 -0.0584 0.9928
vn 0.9282 0.0022 0.3720
vn 0.7271 0.3680 0.5796
vn 0.9778 0.2066 -0.0342
vn 0.6721 0.3765 0.6376
vn 0.6904 0.5684 0.4475
vn 0.4325 -0.1292 0.8923
vn 0.7272 0.5719 0.3795
vn -0.3473 -0.9092 0.2296
vn 0.5584 -0.0746 0.8262
vn 0.0414 -0.6914 0.7213
vn 0.5131 -0.4082 0.7550
vn 0.9403 0.2925 0.1741
vn 0.7465 -0.6375 0.1907
vn 0.9579 0.2788 0.0687
vn 0.9955 -0.0206 -0.0920
vn 0.9534 0.3017 -0.0077
vn 0.9302 0.3362 -0.1474
vn 0.5640 -0.0489 0.8243
vn 0.9275 -0.2215 0.3012
vn 0.9263 0.1976 0.3208
vn 0.9625 -0.0442 -0.2678
vn 0.9474 0.3194 -0.0180
vn 0.7810 0.2905 0.5528
vn 0.9081 0.1713 0.3821
vn 0.8524 -0.3440 -0.3937
vn 0.2368 0.5798 0.7796
vn 0.8248 -0.2710 -0.4962
vn 0.9225 -0.3236 -0.2102
vn 0.5313 0.1950 0.8244
vn 0.8386 -0.1948 -0.5087
vn 0.8199 0.3094 0.4818
vn 0.8434 -0.4837 -0.2338
vn 0.6646 -0.1081 -0.7393
vn 0.9485 -0.2867 -0.1346
vn 0.9578 -0.1562 -0.2415
vn 0.7354 0.6077 -0.2998
vn 0.8057 0.3119 -0.5036
vn 0.6704 -0.2612 0.6945
vn 0.6023 -0.7601 0.2437
vn 0.6464 -0.7612 0.0518
vn 0.8692 -0.2622 -0.4191
vn 0.6591 -0.6980 0.2799
vn 0.8769 -0.2702 -0.3976
vn 0.4126 0.1198 0.9030
vn 0.4203 0.0917 0.9028
vn 0.4612 0.4096 0.7871
vn -0.6805 -0.7188 0.1423
vn -0.8296 -0.5584 -0.0062
vn -0.8280 -0.5587 0.0466
vn -0.5730 0.2882 0.7672
vn -0.6352 0.1616 0.7552
vn -0.9379 -0.3409 0.0644
vn 0.4278 0.4784 0.7669
vn 0.8791 -0.0627 0.4724
vn 0.8295 -0.1585 0.5355
vn 0.6174 -0.7387 0.2706
vn 0.5663 -0.2562 0.7834
vn 0.9724 -0.2042 -0.1131
vn 0.9909 0.1346 -0.0034
vn 0.6814 0.7165 0.1496
vn 0.9125 -0.0913 0.3989
vn 0.2323 0.9131 0.3351
vn 0.9890 0.1465 0.0219
vn 0.9732 0.2246 -0.0492
vn 0.7678 0.6091 -0.1988
vn 0.3976 0.7029 -0.5897
vn 0.9659 -0.1778 0.1884
vn 0.9000 -0.3494 0.2607
vn -0.7573 0.5633 0.3305
vn -0.9198 0.0149 0.3921
vn -0.2771 -0.6972 0.6612
vn -0.1503 -0.7216 0.6758
vn -0.2581 -0.7723 0.5805
vn 0.5853 -0.2371 0.7753
vn -0.1393 -0.9131 0.3831
vn 0.1306 -0.8715 0.4727
vn 0.5624 0.8267 0.0150
vn 0.7451 0.6493 0.1525
vn 0.9755 -0.1178 0.1858
vn 0.8742 -0.4597 -0.1566
vn -0.4885 -0.2569 0.8339
vn -0.2517 0.0307 0.9673
vn -0.0871 0.1610 0.9831
vn -0.2996 -0.1452 0.9429
vn 0.5450 0.8343 -0.0832
vn 0.2579 0.1955 0.9462
vn 0.3743 0.1312 0.9180
vn -0.1398 -0.6894 0.7107
vn 0.1632 0.1545 0.9744
vn -0.1788 -0.4078 0.8954
vn 0.0136 0.2144 0.9767
vn 0.4022 0.0292 0.9151
vn 0.3935 0.6916 0.6056
vn 0.1746 0.3878 0.9050
vn 0.1312 0.0679 0.9890
vn 0.1274 0.0816 0.9885
vn 0.3160 0.0119 0.9487
vn 0.2117 -0.4986 0.8406
vn 0.4128 -0.5232 0.7456
vn 0.5488 0.2175 0.8071
vn 0.2486 0.9620 -0.1132
vn 0.4276 -0.1911 0.8835
vn 0.7044 -0.2669 0.6577
vn 0.7008 -0.2529 0.6670
vn 0.8073 -0.2530 0.5332
vn 0.8234 0.2349 0.5166
vn 0.2065 -0.0048 0.9784
vn 0.2256 0.0006 0.9742
vn 0.4018 -0.0897 0.9113
vn 0.6579 -0.3500 0.6668
vn 0.8302 -0.3648 0.4216
vn 0.5779 -0.4021 0.7102
vn 0.5558 -0.5211 0.6477
vn 0.7736 -0.4639 0.4317
vn -0.8890 0.4577 0.0132
vn -0.7276 0.3080 0.6130
vn -0.6084 0.2236 0.7614
vn 0.1759 -0.0210 0.9842
vn -0.2466 0.2283 0.9418
vn -0.3359 0.8229 0.4583
vn -0.6427 0.3987 0.6542
vn -0.2659 0.9440 0.1951
vn -0.2026 0.9688 0.1428
vn -0.6825 0.2049 0.7016
vn -0.5266 0.5576 0.6417
vn -0.6979 0.0134 0.7160
vn -0.4857 0.0436 0.8730
vn -0.5974 -0.0450 0.8007
vn -0.4680 0.6259 0.6239
vn -0.4741 0.4726 0.7429
vn -0.4378 0.3168 0.8414
vn -0.3363 -0.4477 0.8285
vn -0.2849 0.9411 0.1822
vn -0.5059 -0.0009 0.8626
vn -0.5462 0.1932 0.8150
vn -0.9725 -0.0229 0.2319
vn -0.8671 -0.0436 0.4962
vn -0.4367 -0.0386 0.8988
vn -0.5039 0.5522 0.6642
vn -0.7387 0.6733 0.0320
vn -0.7548 0.6463 0.1118
vn -0.4611 0.6148 0.6398
vn -0.2420 0.9611 0.1331
vn -0.2958 -0.4225 0.8567
vn -0.4096 0.2734 0.8703
vn -0.2640 0.1444 0.9537
vn -0.2810 0.2845 0.9166
vn 0.0897 -0.9681 0.2338
vn -0.3368 -0.4144 0.8455
vn -0.0051 -0.9765 0.2154
vn 0.7290 -0.6822 -0.0557
vn 0.5773 -0.5289 -0.6221
vn 0.6250 -0.7104 -0.3236
vn 0.2301 -0.9726 0.0347
vn -0.5482 0.4366 0.7134
vn -0.6541 0.4247 0.6259
vn -0.6446 0.4302 0.6320
vn -0.5664 0.4454 0.6934
vn -0.4423 0.8639 0.2408
vn -0.4419 0.3202 0.8380
vn -0.3908 0.3515 0.8507
vn 0.2698 -0.9591 0.0851
vn 0.2965 -0.9518 0.0790
vn 0.4178 -0.9004 0.1215
vn 0.5365 -0.5311 -0.6558
vn 0.5299 -0.8028 0.2732
vn 0.5217 -0.8085 0.2725
vn -0.1413 -0.1288 0.9816
vn -0.4421 0.8851 0.1454
vn -0.6624 0.3755 0.6482
vn -0.6573 0.3561 0.6642
vn -0.3279 0.9435 0.0480
vn 0.4645 -0.7728 -0.4325
vn -0.2232 -0.7830 0.5806
vn 0.7436 -0.6577 -0.1203
vn 0.8485 -0.4294 0.3093
vn -0.2366 -0.0192 0.9714
vn 0.9943 -0.0080 0.1065
vn -0.8356 0.5376 0.1129
vn -0.7128 -0.0217 0.7010
vn -0.6925 0.1368 0.7083
vn -0.7089 -0.1568 0.6877
vn -0.5572 0.1978 0.8065
vn -0.6994 0.2084 0.6837
vn -0.4565 0.1594 0.8753
vn -0.8621 0.4781 0.1681
vn -0.7851 0.6191 -0.0202
vn -0.7157 0.2912 0.6349
vn -0.6700 0.3113 0.6739
vn -0.5527 0.0633 0.8310
vn -0.8468 0.4956 0.1932
vn -0.5202 0.4926 0.6977
vn -0.7445 -0.0478 0.6659
vn 0.6999 0.7011 -0.1364
vn -0.0954 0.8854 0.4549
vn -0.4922 0.4996 0.7128
vn -0.8487 0.4709 0.2407
vn -0.4861 0.4865 0.7259
vn -0.2300 0.5491 0.8035
vn -0.8575 0.4595 0.2315
vn -0.5015 0.4875 0.7147
vn -0.5129 0.5473 0.6614
vn -0.0134 0.8085 0.5884
vn -0.2368 0.6200 0.7480
vn -0.5052 0.4064 0.7613
vn -0.6003 0.2473 0.7606
vn -0.5246 0.3963 0.7534
vn -0.3638 -0.0122 0.9314
vn 0.6483 0.5325 0.5442
vn -0.3884 -0.5764 0.7190
vn -0.5294 0.1895 0.8269
vn -0.3574 -0.1073 0.9278
vn -0.4941 0.1703 0.8526
vn -0.3683 0.1819 0.9117
vn 0.0213 0.0623 0.9978
vn -0.4387 -0.0403 0.8977
vn -0.8148 0.5423 0.2047
vn 0.0750 -0.9849 0.1558
vn -0.2449 -0.4838 0.8402
vn 0.6664 -0.3376 -0.6648
vn 0.5807 -0.3903 -0.7145
vn 0.1422 -0.1967 0.9701
vn -0.4523 0.2036 0.8684
vn 0.3558 -0.4245 0.8326
vn -0.3108 -0.2790 0.9086
vn -0.3804 0.6258 0.6809
vn -0.5853 -0.0897 0.8059
vn -0.6919 0.5164 0.5046
vn -0.1659 0.1171 0.9792
vn 0.2894 -0.8227 0.4893
vn -0.4208 0.3134 0.8513
vn -0.6686 0.3964 0.6292
vn -0.4110 0.8785 0.2435
vn -0.4373 0.2590 0.8612
vn -0.1883 -0.6215 0.7604
vn -0.0053 -0.7842 0.6204
vn -0.1690 -0.7747 0.6093
vn -0.7903 0.2426 0.5627
vn -0.4984 0.8528 0.1559
vn -0.8252 0.2178 0.5211
vn -0.4985 0.8489 0.1756
vn -0.4459 0.8874 0.1173
vn -0.6566 0.2061 0.7255
vn -0.6240 0.2450 0.7420
vn -0.6676 0.2857 0.6875
vn 0.2432 -0.9562 -0.1628
vn 0.2012 -0.9698 -0.1375
vn 0.3736 -0.8605 -0.3464
vn 0.4666 -0.8498 -0.2453
vn 0.2344 -0.9417 -0.2413
vn -0.0525 -0.9852 -0.1632
vn 0.3530 -0.8734 0.3356
vn -0.8842 0.1164 0.4524
vn -0.6819 0.2525 0.6865
vn -0.1376 -0.7177 0.6827
vn -0.3227 -0.6555 0.6828
vn -0.3403 -0.7589 0.5552
vn -0.4803 -0.7044 0.5226
vn -0.3538 0.2207 0.9089
vn -0.1892 0.2200 0.9570
vn -0.4473 -0.2259 0.8654
vn -0.2289 -0.3553 0.9063
vn 0.2985 0.0549 0.9528
vn 0.0571 -0.5331 0.8441
vn 0.3075 -0.3489 0.8853
vn 0.2922 -0.4689 0.8335
vn -0.8962 0.0642 0.4390
vn -0.7739 0.4683 0.4262
vn -0.6487 0.5484 0.5277
vn -0.6295 0.5511 0.5477
vn -0.9339 0.2562 0.2493
vn -0.5452 -0.0722 0.8352
vn -0.9440 0.0973 0.3153
vn -0.8605 0.3228 0.3942
vn -0.8739 0.1245 0.4699
vn -0.8335 0.5218 0.1816
vn -0.8294 0.5398 0.1436
vn -0.8559 0.5039 0.1163
vn -0.6045 0.4969 0.6227
vn -0.8880 0.4573 0.0485
vn -0.7392 0.2214 0.6361
vn 0.0144 0.0204 0.9997
vn 0.1271 -0.0533 0.9905
vn -0.4878 0.4930 0.7204
vn -0.4633 0.5081 0.7261
vn -0.4407 0.3123 0.8416
vn 0.0562 -0.9697 0.2376
vn 0.0527 -0.9733 0.2232
vn -0.6328 0.2096 0.7454
vn -0.0080 -0.6886 0.7251
vn -0.9204 0.1224 -0.3713
vn -0.8317 0.3398 -0.4390
vn -0.9919 0.1173 0.0489
vn -0.9452 0.2409 0.2204
vn -0.3263 0.4052 0.8540
vn -0.8487 0.5136 0.1261
vn -0.5403 0.7807 -0.3139
vn -0.7776 0.5051 0.3744
vn -0.9053 0.2465 0.3459
vn -0.9944 0.0980 -0.0390
vn -0.4348 0.4810 0.7613
vn -0.3122 0.4419 0.8410
vn -0.9565 0.0935 0.2764
vn -0.9682 0.1345 0.2109
vn -0.9829 0.1447 0.1138
vn -0.8483 0.4796 0.2245
vn -0.6217 -0.3326 0.7092
vn -0.8405 0.4899 0.2315
vn -0.5523 -0.3331 0.7642
vn -0.5506 -0.3059 0.7767
vn -0.8699 0.4581 0.1828
vn -0.9915 0.0815 0.1010
vn -0.7534 0.3949 0.5257
vn -0.8426 0.3414 0.4165
vn -0.9919 -0.1268 -0.0047
vn -0.8599 0.1413 0.4906
vn -0.7955 -0.5080 0.3305
vn -0.8484 -0.1286 0.5135
vn -0.7935 0.1670 0.5852
vn 0.0521 0.2829 0.9577
vn -0.7449 0.6610 -0.0900
vn -0.8002 0.1449 0.5819
vn -0.7730 0.6343 0.0130
vn -0.8371 0.1080 0.5364
vn -0.8531 0.2032 0.4806
vn -0.8815 0.2361 0.4090
vn -0.8402 0.1723 0.5141
vn -0.8297 0.4242 0.3628
vn -0.9640 0.1016 0.2458
vn -0.9234 0.0853 0.3743
vn -0.9333 0.2097 0.2915
vn -0.8870 0.2387 0.3953
vn -0.6938 -0.3530 0.6277
vn -0.9683 0.1373 0.2088
vn -0.9214 0.3270 0.2100
vn -0.6855 -0.0503 0.7263
vn -0.6092 -0.0868 0.7882
vn -0.6902 -0.1947 0.6969
vn -0.6617 -0.2453 0.7085
vn -0.8927 0.2759 0.3565
vn -0.8898 0.2925 0.3502
vn -0.6017 -0.2167 0.7688
vn -0.9302 0.2801 0.2374
vn -0.8511 -0.1071 0.5140
vn -0.8555 -0.0906 0.5098
vn -0.8863 0.4498 0.1107
vn -0.8843 0.0355 0.4655
vn -0.9345 0.3452 0.0874
vn -0.7196 0.1665 0.6742
vn -0.1418 -0.6399 0.7553
vn -0.9736 0.1988 0.1123
vn -0.9907 0.1221 -0.0598
vn -0.9497 0.3055 -0.0693
vn -0.7623 0.0667 0.6437
vn -0.9900 0.0836 0.1135
vn -0.9336 0.2644 0.2420
vn -0.8815 0.4631 0.0919
vn -0.9580 0.1898 -0.2148
vn -0.8501 -0.1478 0.5054
vn -0.6153 0.3775 0.6920
vn 0.4824 -0.8624 -0.1537
vn -0.3880 -0.0207 0.9214
vn -0.6435 -0.1469 0.7512
vn -0.5568 0.1876 0.8092
vn -0.4047 -0.5694 0.7155
vn -0.9626 0.0757 0.2601
vn 0.0530 -0.7059 0.7063
vn -0.9320 -0.0217 -0.3618
vn 0.6736 0.4566 0.5812
vn 0.6164 0.6411 0.4572
vn 0.6900 -0.7176 -0.0953
vn 0.5267 -0.8447 0.0954
vn 0.6654 -0.7340 -0.1359
vn 0.5824 -0.6321 -0.5111
vn -0.1426 -0.5206 0.8418
vn -0.1056 -0.6912 0.7149
vn -0.5278 0.2365 0.8158
vn -0.5554 0.2189 0.8022
vn -0.7859 0.4096 0.4632
vn -0.7270 0.6786 0.1048
vn -0.7771 -0.2883 0.5594
vn 0.5971 -0.7238 0.3460
vn 0.5200 -0.6300 -0.5768
vn 0.5948 -0.7836 0.1794
vn 0.3218 -0.8262 0.4625
vn -0.5409 0.2214 0.8114
vn -0.0509 -0.5096 0.8589
vn -0.1308 0.1445 0.9808
s 0
usemtl Angel_GoldenArmor
f 5//4 6//4 55//4
f 8//7 4//7 9//7
f 7//8 4//8 8//8
f 8//10 15//10 7//10
f 7//11 15//11 12//11
f 12//12 11//12 7//12
f 14//14 10//14 11//14
f 15//15 16//15 12//15
f 11//16 12//16 16//16
f 15//17 17//17 18//17
f 20//18 17//18 15//18
f 17//19 19//19 18//19
f 19//20 17//20 20//20
f 15//21 18//21 16//21
f 18//22 19//22 43//22
f 19//23 21//23 22//23
f 21//24 19//24 20//24
f 20//25 15//25 24//25
f 24//26 23//26 20//26
f 9//27 24//27 8//27
f 15//28 8//28 24//28
f 32//29 24//29 9//29
f 20//30 23//30 25//30
f 20//31 25//31 26//31
f 27//32 23//32 24//32
f 25//33 28//33 26//33
f 27//34 25//34 23//34
f 30//35 27//35 24//35
f 31//36 30//36 24//36
f 31//37 32//37 91//37
f 31//38 91//38 33//38
f 28//39 25//39 36//39
f 37//40 25//40 27//40
f 30//41 31//41 33//41
f 91//42 103//42 33//42
f 30//43 33//43 35//43
f 35//44 33//44 34//44
f 36//45 25//45 37//45
f 36//46 29//46 28//46
f 102//47 28//47 29//47
f 28//48 102//48 101//48
f 28//49 101//49 26//49
f 22//50 49//50 19//50
f 49//51 39//51 40//51
f 49//52 40//52 19//52
f 41//53 18//53 43//53
f 63//54 14//54 16//54
f 16//55 18//55 42//55
f 18//56 41//56 42//56
f 41//57 43//57 45//57
f 41//58 46//58 42//58
f 43//59 44//59 45//59
f 49//60 48//60 44//60
f 49//61 44//61 43//61
f 48//62 50//62 44//62
f 44//63 50//63 47//63
f 51//64 2//64 3//64
f 13//65 61//65 3//65
f 61//66 51//66 3//66
f 51//67 61//67 53//67
f 51//68 53//68 52//68
f 52//69 2//69 51//69
f 6//70 2//70 52//70
f 54//71 55//71 52//71
f 52//72 55//72 6//72
f 4//73 56//73 9//73
f 56//74 4//74 5//74
f 9//75 56//75 57//75
f 9//76 57//76 32//76
f 58//77 57//77 56//77
f 58//78 56//78 59//78
f 56//79 5//79 59//79
f 59//80 55//80 58//80
f 59//81 5//81 55//81
f 54//82 52//82 71//82
f 53//83 61//83 60//83
f 62//84 53//84 60//84
f 61//85 10//85 63//85
f 14//86 63//86 10//86
f 14//87 11//87 16//87
f 63//88 16//88 42//88
f 63//89 42//89 60//89
f 60//90 61//90 63//90
f 10//91 61//91 13//91
f 107//92 65//92 64//92
f 55//93 77//93 58//93
f 73//94 77//94 55//94
f 73//95 55//95 54//95
f 66//96 52//96 53//96
f 62//97 66//97 53//97
f 52//98 66//98 71//98
f 62//99 60//99 42//99
f 62//100 42//100 67//100
f 42//101 46//101 75//101
f 67//102 42//102 75//102
f 62//103 67//103 66//103
f 69//104 67//104 68//104
f 68//105 67//105 75//105
f 66//106 67//106 70//106
f 70//107 67//107 69//107
f 70//108 72//108 71//108
f 71//109 72//109 73//109
f 73//110 72//110 74//110
f 82//111 72//111 70//111
f 69//112 68//112 79//112
f 79//113 68//113 75//113
f 76//114 73//114 74//114
f 77//115 73//115 76//115
f 54//116 71//116 73//116
f 58//117 77//117 76//117
f 78//118 76//118 74//118
f 82//119 70//119 69//119
f 81//120 69//120 79//120
f 80//121 75//121 46//121
f 75//122 80//122 79//122
f 81//123 79//123 80//123
f 82//124 69//124 81//124
f 74//125 86//125 78//125
f 83//126 72//126 82//126
f 84//127 82//127 81//127
f 74//128 72//128 86//128
f 72//129 85//129 86//129
f 85//130 72//130 83//130
f 87//131 84//131 81//131
f 46//132 41//132 88//132
f 88//133 41//133 45//133
f 45//134 90//134 88//134
f 90//135 45//135 89//135
f 150//136 90//136 89//136
f 89//137 162//137 150//137
f 46//138 88//138 80//138
f 80//139 88//139 81//139
f 81//140 88//140 87//140
f 84//141 83//141 82//141
f 78//142 91//142 76//142
f 91//143 58//143 76//143
f 57//144 58//144 91//144
f 32//145 57//145 91//145
f 32//146 31//146 24//146
f 1//147 92//147 93//147
f 92//148 94//148 93//148
f 94//149 95//149 93//149
f 96//150 95//150 160//150
f 160//151 95//151 94//151
f 94//152 92//152 97//152
f 94//153 97//153 160//153
f 39//154 49//154 43//154
f 39//155 43//155 19//155
f 39//156 19//156 98//156
f 98//157 19//157 40//157
f 98//158 40//158 21//158
f 40//159 39//159 38//159
f 38//160 39//160 98//160
f 99//161 49//161 38//161
f 38//162 49//162 22//162
f 99//163 38//163 21//163
f 21//164 20//164 100//164
f 99//165 21//165 100//165
f 100//166 20//166 26//166
f 37//168 27//168 30//168
f 34//169 33//169 103//169
f 37//170 30//170 35//170
f 29//172 105//172 109//172
f 29//173 109//173 102//173
f 102//174 106//174 101//174
f 102//175 109//175 106//175
f 101//176 106//176 107//176
f 108//177 64//177 65//177
f 111//180 34//180 103//180
f 37//181 35//181 126//181
f 106//190 109//190 118//190
f 118//191 109//191 117//191
f 118//194 120//194 106//194
f 121//196 120//196 118//196
f 142//204 127//204 125//204
f 125//208 126//208 35//208
f 128//209 127//209 129//209
f 128//210 129//210 137//210
f 130//211 128//211 137//211
f 215//218 131//218 130//218
f 136//219 215//219 130//219
f 136//220 130//220 137//220
f 137//221 139//221 138//221
f 137//222 129//222 139//222
f 127//223 141//223 129//223
f 129//224 141//224 140//224
f 142//225 141//225 127//225
f 142//226 140//226 141//226
f 142//227 125//227 35//227
f 35//228 34//228 145//228
f 35//229 145//229 143//229
f 142//230 35//230 143//230
f 142//231 143//231 140//231
f 144//232 143//232 145//232
f 34//233 111//233 145//233
f 85//234 145//234 111//234
f 144//235 145//235 83//235
f 83//236 145//236 85//236
f 84//237 144//237 83//237
f 146//238 143//238 144//238
f 144//239 149//239 146//239
f 146//240 149//240 147//240
f 221//241 147//241 149//241
f 221//242 149//242 148//242
f 149//243 144//243 84//243
f 88//244 90//244 87//244
f 84//245 87//245 90//245
f 149//246 84//246 90//246
f 148//247 90//247 150//247
f 151//248 150//248 152//248
f 153//249 157//249 89//249
f 153//250 89//250 45//250
f 45//251 44//251 153//251
f 153//252 47//252 155//252
f 47//253 153//253 44//253
f 154//254 155//254 47//254
f 153//255 155//255 156//255
f 156//256 157//256 153//256
f 162//257 89//257 157//257
f 152//258 150//258 162//258
f 158//259 154//259 47//259
f 158//260 47//260 50//260
f 158//261 50//261 159//261
f 154//262 158//262 159//262
f 154//263 159//263 93//263
f 93//264 159//264 1//264
f 96//265 160//265 164//265
f 95//266 96//266 93//266
f 155//267 154//267 93//267
f 93//268 96//268 155//268
f 155//269 96//269 156//269
f 156//270 96//270 161//270
f 157//271 156//271 161//271
f 162//272 157//272 96//272
f 96//273 157//273 161//273
f 165//274 64//274 108//274
f 65//275 107//275 106//275
f 65//276 106//276 120//276
f 65//277 121//277 108//277
f 121//278 65//278 120//278
f 121//279 118//279 119//279
f 121//282 168//282 108//282
f 165//283 108//283 168//283
f 169//284 121//284 119//284
f 168//285 121//285 169//285
f 169//286 170//286 168//286
f 171//287 168//287 170//287
f 168//288 171//288 165//288
f 172//289 171//289 170//289
f 170//290 169//290 173//290
f 172//291 170//291 173//291
f 177//292 179//292 176//292
f 177//293 176//293 175//293
f 210//294 175//294 174//294
f 174//295 178//295 210//295
f 177//296 175//296 210//296
f 178//297 207//297 210//297
f 180//298 181//298 174//298
f 174//299 181//299 178//299
f 178//300 181//300 182//300
f 178//301 182//301 207//301
f 207//302 182//302 183//302
f 207//303 183//303 184//303
f 182//304 226//304 183//304
f 183//305 223//305 189//305
f 187//306 185//306 186//306
f 186//307 185//307 184//307
f 184//308 183//308 189//308
f 184//309 189//309 186//309
f 190//310 186//310 189//310
f 188//311 185//311 187//311
f 244//312 185//312 188//312
f 152//313 188//313 187//313
f 190//314 187//314 186//314
f 224//315 187//315 190//315
f 224//316 191//316 151//316
f 191//317 148//317 150//317
f 224//318 151//318 187//318
f 151//319 191//319 150//319
f 90//320 148//320 149//320
f 66//321 70//321 71//321
f 78//322 86//322 103//322
f 111//323 86//323 85//323
f 86//324 111//324 103//324
f 78//325 103//325 91//325
f 22//326 21//326 40//326
f 22//327 40//327 38//327
f 38//328 98//328 21//328
f 131//339 215//339 195//339
f 195//340 215//340 214//340
f 197//341 195//341 214//341
f 207//349 163//349 209//349
f 96//350 209//350 163//350
f 209//351 96//351 164//351
f 209//352 164//352 208//352
f 179//353 208//353 164//353
f 209//354 179//354 210//354
f 210//355 179//355 177//355
f 202//363 200//363 250//363
f 214//364 199//364 197//364
f 215//365 369//365 214//365
f 137//366 138//366 216//366
f 139//367 129//367 140//367
f 143//368 362//368 140//368
f 362//369 143//369 146//369
f 362//370 146//370 217//370
f 217//371 146//371 218//371
f 218//372 146//372 147//372
f 218//373 147//373 219//373
f 147//374 221//374 219//374
f 219//375 222//375 218//375
f 221//376 220//376 219//376
f 221//377 191//377 220//377
f 220//378 191//378 224//378
f 220//379 224//379 190//379
f 220//380 190//380 189//380
f 220//381 189//381 223//381
f 361//382 225//382 223//382
f 223//383 183//383 226//383
f 361//384 223//384 226//384
f 181//385 226//385 182//385
f 181//386 227//386 226//386
f 226//387 227//387 228//387
f 228//388 227//388 229//388
f 229//389 227//389 230//389
f 230//390 227//390 181//390
f 230//391 181//391 231//391
f 230//389 231//389 232//389
f 230//389 232//389 229//389
f 229//389 232//389 233//389
f 233//392 232//392 231//392
f 229//393 233//393 228//393
f 234//394 228//394 233//394
f 234//395 233//395 231//395
f 234//396 231//396 181//396
f 238//402 167//402 239//402
f 163//409 162//409 96//409
f 163//410 244//410 162//410
f 244//411 188//411 162//411
f 188//412 152//412 162//412
f 184//413 185//413 244//413
f 184//414 244//414 163//414
f 184//415 163//415 207//415
f 209//416 208//416 179//416
f 207//417 209//417 210//417
f 251//422 250//422 200//422
f 202//423 250//423 255//423
f 202//426 253//426 254//426
f 255//428 253//428 202//428
f 255//429 250//429 256//429
f 256//430 250//430 251//430
f 199//431 251//431 200//431
f 251//432 199//432 214//432
f 251//433 261//433 256//433
f 255//434 256//434 253//434
f 253//435 256//435 257//435
f 253//436 257//436 254//436
f 254//438 257//438 259//438
f 257//439 261//439 260//439
f 257//440 260//440 259//440
f 254//441 259//441 262//441
f 264//442 260//442 261//442
f 264//443 261//443 263//443
f 261//444 257//444 256//444
f 265//445 263//445 261//445
f 263//446 265//446 266//446
f 265//447 261//447 370//447
f 261//448 251//448 370//448
f 266//449 276//449 263//449
f 266//450 265//450 268//450
f 268//451 267//451 266//451
f 266//457 271//457 270//457
f 271//458 266//458 267//458
f 263//468 276//468 264//468
f 259//471 260//471 262//471
f 262//472 279//472 254//472
f 280//473 262//473 260//473
f 280//474 260//474 264//474
f 280//475 264//475 278//475
f 271//482 267//482 286//482
f 180//485 289//485 181//485
f 181//486 289//486 234//486
f 228//487 234//487 289//487
f 289//488 290//488 228//488
f 228//489 290//489 347//489
f 293//493 291//493 292//493
f 292//494 346//494 293//494
f 238//495 239//495 291//495
f 293//496 295//496 291//496
f 238//497 291//497 295//497
f 152//501 187//501 151//501
f 367//502 215//502 136//502
f 367//503 136//503 216//503
f 216//504 136//504 137//504
f 139//505 140//505 362//505
f 222//506 219//506 296//506
f 223//507 219//507 220//507
f 223//508 296//508 219//508
f 296//509 303//509 222//509
f 303//510 298//510 222//510
f 218//511 222//511 297//511
f 297//512 222//512 382//512
f 298//513 382//513 222//513
f 296//514 299//514 303//514
f 300//515 299//515 296//515
f 296//516 301//516 300//516
f 302//517 299//517 300//517
f 300//518 301//518 302//518
f 303//519 299//519 304//519
f 305//520 304//520 299//520
f 302//521 306//521 299//521
f 305//522 299//522 395//522
f 395//523 299//523 393//523
f 307//524 306//524 360//524
f 307//525 393//525 299//525
f 307//526 299//526 306//526
f 308//527 360//527 306//527
f 308//528 306//528 302//528
f 308//529 302//529 357//529
f 357//530 302//530 301//530
f 345//531 301//531 225//531
f 301//532 296//532 225//532
f 225//533 296//533 223//533
f 311//535 254//535 279//535
f 312//536 262//536 280//536
f 279//537 313//537 311//537
f 325//553 327//553 326//553
f 327//554 312//554 329//554
f 329//555 312//555 330//555
f 279//556 312//556 325//556
f 325//557 312//557 327//557
f 313//558 279//558 325//558
f 312//559 279//559 262//559
f 330//560 312//560 280//560
f 330//561 280//561 278//561
f 329//562 330//562 331//562
f 334//563 329//563 331//563
f 278//564 331//564 330//564
f 328//577 327//577 329//577
f 334//578 328//578 329//578
f 167//581 342//581 239//581
f 342//582 340//582 239//582
f 340//583 341//583 343//583
f 341//584 357//584 343//584
f 291//585 239//585 292//585
f 292//586 239//586 344//586
f 344//587 239//587 340//587
f 345//588 344//588 340//588
f 345//589 340//589 343//589
f 292//590 344//590 345//590
f 292//591 345//591 346//591
f 345//592 348//592 346//592
f 347//593 346//593 348//593
f 226//594 228//594 361//594
f 361//595 228//595 348//595
f 348//596 228//596 347//596
f 449//597 293//597 346//597
f 449//598 346//598 347//598
f 308//617 341//617 360//617
f 308//618 357//618 341//618
f 357//619 301//619 343//619
f 301//620 345//620 343//620
f 345//621 225//621 361//621
f 348//622 345//622 361//622
f 191//623 221//623 148//623
f 139//629 362//629 138//629
f 138//630 362//630 363//630
f 138//631 363//631 216//631
f 216//632 363//632 364//632
f 364//633 366//633 365//633
f 365//634 367//634 364//634
f 367//635 365//635 368//635
f 364//636 367//636 216//636
f 372//637 369//637 367//637
f 215//638 367//638 369//638
f 369//639 370//639 214//639
f 370//640 251//640 214//640
f 370//641 371//641 265//641
f 371//642 370//642 369//642
f 372//643 367//643 368//643
f 372//644 374//644 369//644
f 369//645 373//645 371//645
f 373//646 268//646 371//646
f 265//647 371//647 268//647
f 374//648 373//648 369//648
f 372//649 368//649 374//649
f 368//650 376//650 374//650
f 366//651 364//651 363//651
f 381//652 363//652 362//652
f 368//653 365//653 375//653
f 373//655 374//655 488//655
f 368//656 375//656 376//656
f 377//657 375//657 365//657
f 377//658 365//658 366//658
f 377//659 378//659 375//659
f 380//660 377//660 366//660
f 362//661 217//661 381//661
f 382//662 381//662 217//662
f 297//663 382//663 217//663
f 381//664 383//664 363//664
f 363//665 383//665 366//665
f 380//666 366//666 383//666
f 297//667 217//667 218//667
f 382//668 383//668 381//668
f 384//669 380//669 383//669
f 380//670 384//670 385//670
f 386//671 385//671 384//671
f 387//672 386//672 384//672
f 387//673 384//673 390//673
f 382//674 388//674 383//674
f 298//675 388//675 382//675
f 389//676 388//676 298//676
f 383//677 388//677 384//677
f 390//678 384//678 388//678
f 389//679 390//679 388//679
f 389//680 298//680 303//680
f 304//681 389//681 303//681
f 389//682 304//682 492//682
f 492//683 304//683 391//683
f 389//684 492//684 390//684
f 391//685 304//685 305//685
f 323//715 313//715 325//715
f 325//716 326//716 323//716
f 408//717 327//717 328//717
f 441//748 440//748 439//748
f 441//749 426//749 427//749
f 427//750 430//750 441//750
f 426//751 441//751 439//751
f 378//810 380//810 385//810
f 378//811 377//811 380//811
f 378//812 491//812 375//812
f 379//813 375//813 491//813
f 379//814 376//814 375//814
f 385//824 491//824 378//824
f 385//825 386//825 493//825
f 496//826 385//826 493//826
f 387//827 390//827 492//827
f 391//828 305//828 392//828
f 392//829 493//829 391//829
f 391//830 493//830 387//830
f 386//831 387//831 493//831
f 491//832 385//832 379//832
f 379//833 385//833 472//833
f 494//839 496//839 495//839
f 494//840 495//840 498//840
f 494//841 481//841 496//841
f 496//842 493//842 495//842
f 395//843 392//843 305//843
f 395//844 497//844 392//844
f 392//845 497//845 498//845
f 392//846 498//846 493//846
f 286//853 268//853 373//853
f 373//854 285//854 286//854
f 268//855 286//855 267//855
f 498//875 495//875 493//875
f 472//876 385//876 496//876
f 492//877 391//877 387//877
f 444//936 540//936 537//936
f 444//937 534//937 535//937
f 535//938 534//938 533//938
f 543//939 440//939 441//939
f 543//940 441//940 536//940
f 536//941 441//941 544//941
f 440//942 543//942 533//942
f 444//943 535//943 540//943
f 444//944 537//944 590//944
f 538//945 537//945 540//945
f 538//946 540//946 539//946
f 535//947 541//947 540//947
f 541//948 535//948 542//948
f 541//949 542//949 545//949
f 545//950 542//950 543//950
f 542//951 535//951 533//951
f 543//952 542//952 533//952
f 536//953 544//953 547//953
f 543//954 536//954 547//954
f 543//955 546//955 545//955
f 547//956 546//956 543//956
f 596//957 544//957 549//957
f 430//958 544//958 441//958
f 549//974 551//974 596//974
f 587//1013 580//1013 588//1013
f 588//1014 580//1014 589//1014
f 591//1018 587//1018 588//1018
f 684//1019 591//1019 589//1019
f 591//1020 684//1020 537//1020
f 589//1021 591//1021 588//1021
f 591//1022 537//1022 593//1022
f 591//1023 593//1023 592//1023
f 594//1024 538//1024 539//1024
f 540//1025 541//1025 595//1025
f 545//1026 595//1026 541//1026
f 598//1027 544//1027 596//1027
f 544//1028 598//1028 547//1028
f 596//1029 551//1029 558//1029
f 558//1030 597//1030 596//1030
f 598//1031 546//1031 547//1031
f 595//1032 594//1032 540//1032
f 540//1033 594//1033 539//1033
f 538//1034 594//1034 593//1034
f 593//1035 537//1035 538//1035
f 593//1036 594//1036 595//1036
f 625//1079 627//1079 624//1079
f 625//1080 676//1080 626//1080
f 676//1081 625//1081 624//1081
f 636//1086 635//1086 629//1086
f 591//1095 592//1095 587//1095
f 430//1096 429//1096 549//1096
f 430//1097 549//1097 544//1097
f 636//1105 645//1105 635//1105
f 635//1106 645//1106 643//1106
f 635//1107 643//1107 646//1107
f 650//1113 646//1113 643//1113
f 650//1114 643//1114 651//1114
f 645//1115 636//1115 644//1115
f 636//1116 655//1116 644//1116
f 644//1117 666//1117 645//1117
f 653//1118 644//1118 655//1118
f 653//1119 654//1119 644//1119
f 651//1127 643//1127 645//1127
f 645//1128 652//1128 660//1128
f 651//1129 645//1129 660//1129
f 650//1130 651//1130 660//1130
f 661//1131 660//1131 652//1131
f 652//1132 645//1132 666//1132
f 652//1133 665//1133 661//1133
f 663//1134 661//1134 662//1134
f 663//1135 664//1135 661//1135
f 665//1136 662//1136 661//1136
f 654//1137 666//1137 644//1137
f 661//1138 659//1138 650//1138
f 650//1139 660//1139 661//1139
f 669//1141 661//1141 664//1141
f 669//1145 664//1145 670//1145
f 668//1146 669//1146 670//1146
f 670//1147 664//1147 663//1147
f 671//1148 670//1148 663//1148
f 673//1149 671//1149 672//1149
f 670//1150 671//1150 673//1150
f 673//1151 672//1151 674//1151
f 670//1152 673//1152 675//1152
f 626//1157 676//1157 674//1157
f 674//1158 672//1158 626//1158
f 578//1172 590//1172 589//1172
f 684//1173 590//1173 537//1173
f 590//1174 684//1174 589//1174
f 686//1196 689//1196 685//1196
f 685//1197 689//1197 612//1197
usemtl Angel_CelestialWings
f 5//1 4//1 3//1
f 5//2 3//2 2//2
f 5//3 2//3 6//3
f 10//5 3//5 4//5
f 7//6 10//6 4//6
f 11//9 10//9 7//9
f 10//13 13//13 3//13
f 105//167 29//167 36//167
f 37//171 104//171 36//171
f 117//178 109//178 105//178
f 117//179 105//179 110//179
f 37//182 126//182 104//182
f 104//183 112//183 36//183
f 110//184 105//184 36//184
f 110//185 36//185 112//185
f 113//186 112//186 104//186
f 116//187 113//187 115//187
f 113//188 114//188 115//188
f 116//189 112//189 113//189
f 119//192 117//192 110//192
f 119//193 118//193 117//193
f 240//195 119//195 110//195
f 119//197 240//197 122//197
f 122//198 240//198 167//198
f 123//199 110//199 112//199
f 123//200 112//200 124//200
f 124//201 112//201 116//201
f 104//202 114//202 113//202
f 128//203 114//203 127//203
f 125//205 127//205 114//205
f 125//206 114//206 104//206
f 125//207 104//207 126//207
f 135//212 128//212 130//212
f 135//213 196//213 128//213
f 132//214 128//214 196//214
f 115//215 114//215 132//215
f 116//216 115//216 133//216
f 116//217 133//217 134//217
f 166//280 119//280 122//280
f 167//281 236//281 122//281
f 128//329 132//329 114//329
f 192//330 194//330 195//330
f 192//331 195//331 193//331
f 195//332 197//332 193//332
f 192//333 196//333 194//333
f 196//334 135//334 194//334
f 193//335 197//335 198//335
f 131//336 195//336 194//336
f 131//337 194//337 130//337
f 194//338 135//338 130//338
f 199//342 201//342 197//342
f 200//343 201//343 199//343
f 200//344 248//344 201//344
f 204//345 198//345 201//345
f 201//346 198//346 197//346
f 204//347 201//347 205//347
f 203//348 204//348 205//348
f 134//356 124//356 116//356
f 211//357 124//357 134//357
f 201//358 206//358 205//358
f 205//359 206//359 203//359
f 203//360 206//360 213//360
f 200//361 202//361 248//361
f 206//362 201//362 248//362
f 235//397 169//397 119//397
f 166//398 235//398 119//398
f 167//399 240//399 342//399
f 236//400 166//400 122//400
f 236//401 167//401 237//401
f 123//403 240//403 110//403
f 211//404 123//404 124//404
f 212//405 242//405 211//405
f 243//406 123//406 242//406
f 242//407 123//407 211//407
f 241//408 242//408 212//408
f 206//418 248//418 213//418
f 213//419 248//419 245//419
f 248//420 247//420 245//420
f 247//421 248//421 249//421
f 202//424 252//424 248//424
f 248//425 252//425 249//425
f 202//427 254//427 252//427
f 258//437 252//437 254//437
f 266//452 269//452 276//452
f 276//453 269//453 277//453
f 266//454 270//454 269//454
f 277//455 269//455 273//455
f 273//456 269//456 270//456
f 271//459 272//459 270//459
f 272//460 273//460 270//460
f 274//461 273//461 272//461
f 271//462 284//462 417//462
f 271//463 417//463 272//463
f 272//464 417//464 275//464
f 274//465 272//465 275//465
f 275//466 283//466 274//466
f 273//467 274//467 277//467
f 277//469 274//469 276//469
f 276//470 278//470 264//470
f 281//476 276//476 274//476
f 276//477 281//477 282//477
f 274//478 509//478 281//478
f 466//479 284//479 285//479
f 285//480 373//480 466//480
f 286//481 285//481 284//481
f 286//483 284//483 271//483
f 235//484 166//484 287//484
f 287//490 166//490 288//490
f 288//491 166//491 236//491
f 237//492 167//492 238//492
f 294//498 238//498 295//498
f 288//499 236//499 237//499
f 237//500 238//500 294//500
f 311//534 258//534 254//534
f 311//538 317//538 258//538
f 316//539 317//539 311//539
f 314//540 317//540 316//540
f 252//541 258//541 249//541
f 258//542 317//542 318//542
f 258//543 318//543 249//543
f 318//544 317//544 319//544
f 319//545 317//545 314//545
f 314//546 320//546 322//546
f 316//547 321//547 314//547
f 314//548 321//548 320//548
f 316//549 311//549 315//549
f 323//550 315//550 311//550
f 324//551 315//551 323//551
f 313//552 323//552 311//552
f 332//565 334//565 331//565
f 331//566 333//566 332//566
f 333//567 331//567 338//567
f 462//568 334//568 332//568
f 332//569 333//569 335//569
f 332//570 335//570 336//570
f 333//571 336//571 335//571
f 337//572 338//572 331//572
f 331//573 278//573 337//573
f 333//574 338//574 336//574
f 332//575 518//575 462//575
f 462//576 328//576 334//576
f 340//579 342//579 240//579
f 340//580 240//580 341//580
f 240//599 123//599 341//599
f 341//600 123//600 243//600
f 355//601 242//601 241//601
f 349//602 241//602 350//602
f 353//603 350//603 351//603
f 351//604 352//604 353//604
f 349//605 350//605 353//605
f 359//606 355//606 354//606
f 241//607 349//607 354//607
f 241//608 354//608 355//608
f 242//609 355//609 243//609
f 355//610 356//610 243//610
f 243//611 356//611 341//611
f 355//612 359//612 356//612
f 356//613 360//613 341//613
f 359//614 360//614 356//614
f 360//615 359//615 358//615
f 358//616 359//616 354//616
f 318//624 319//624 246//624
f 310//625 309//625 319//625
f 322//626 310//626 314//626
f 319//627 314//627 310//627
f 249//628 318//628 247//628
f 376//654 488//654 374//654
f 394//686 307//686 360//686
f 307//687 394//687 393//687
f 394//688 358//688 354//688
f 396//689 395//689 393//689
f 396//690 393//690 394//690
f 396//691 394//691 354//691
f 354//692 349//692 499//692
f 358//693 394//693 360//693
f 246//694 319//694 309//694
f 399//695 321//695 397//695
f 321//696 399//696 320//696
f 402//697 400//697 399//697
f 399//698 397//698 402//698
f 402//699 401//699 400//699
f 402//700 413//700 401//700
f 413//701 403//701 404//701
f 405//702 411//702 404//702
f 404//703 408//703 405//703
f 403//704 413//704 402//704
f 399//705 398//705 320//705
f 320//706 398//706 322//706
f 315//707 321//707 316//707
f 321//708 315//708 397//708
f 402//709 397//709 406//709
f 501//710 403//710 402//710
f 402//711 406//711 501//711
f 315//712 406//712 397//712
f 315//713 407//713 406//713
f 407//714 315//714 324//714
f 403//718 327//718 408//718
f 403//719 408//719 404//719
f 408//720 462//720 409//720
f 408//721 409//721 405//721
f 410//722 405//722 409//722
f 410//723 411//723 405//723
f 416//724 275//724 417//724
f 416//725 417//725 284//725
f 466//726 415//726 416//726
f 419//727 422//727 418//727
f 423//728 418//728 422//728
f 431//729 424//729 420//729
f 422//730 419//730 421//730
f 429//731 421//731 425//731
f 421//732 427//732 422//732
f 420//733 418//733 439//733
f 439//734 418//734 423//734
f 423//735 422//735 427//735
f 426//736 439//736 423//736
f 427//737 426//737 423//737
f 428//738 429//738 425//738
f 548//739 429//739 428//739
f 421//740 430//740 427//740
f 434//741 432//741 435//741
f 437//742 434//742 435//742
f 437//743 436//743 434//743
f 436//744 437//744 534//744
f 438//745 435//745 433//745
f 431//746 438//746 433//746
f 431//747 420//747 439//747
f 436//752 448//752 442//752
f 436//753 444//753 445//753
f 445//754 447//754 448//754
f 447//755 446//755 448//755
f 443//756 446//756 572//756
f 445//757 448//757 436//757
f 436//758 442//758 434//758
f 454//759 451//759 452//759
f 412//760 452//760 451//760
f 412//761 410//761 456//761
f 412//762 456//762 457//762
f 412//763 457//763 452//763
f 456//764 458//764 457//764
f 457//765 458//765 459//765
f 457//766 459//766 513//766
f 457//767 513//767 452//767
f 460//768 459//768 458//768
f 461//769 460//769 456//769
f 456//770 460//770 458//770
f 462//771 456//771 410//771
f 409//772 462//772 410//772
f 328//773 462//773 408//773
f 414//774 415//774 465//774
f 414//775 465//775 464//775
f 465//776 415//776 490//776
f 490//777 415//777 466//777
f 465//778 467//778 464//778
f 469//779 468//779 470//779
f 467//780 468//780 464//780
f 467//781 465//781 471//781
f 468//782 467//782 473//782
f 468//783 474//783 470//783
f 474//784 468//784 473//784
f 468//785 469//785 464//785
f 469//786 470//786 475//786
f 475//787 470//787 477//787
f 477//788 470//788 474//788
f 472//789 467//789 471//789
f 467//790 476//790 473//790
f 469//791 478//791 463//791
f 478//792 469//792 475//792
f 469//793 463//793 464//793
f 475//794 479//794 478//794
f 479//795 480//795 478//795
f 480//796 479//796 486//796
f 475//797 482//797 479//797
f 482//798 475//798 477//798
f 481//799 477//799 474//799
f 474//800 476//800 481//800
f 477//801 481//801 494//801
f 483//802 482//802 484//802
f 482//803 477//803 485//803
f 482//804 485//804 484//804
f 500//805 484//805 504//805
f 504//806 484//806 485//806
f 484//807 500//807 483//807
f 482//808 506//808 479//808
f 506//809 486//809 479//809
f 489//815 488//815 376//815
f 489//816 376//816 379//816
f 373//817 488//817 466//817
f 488//818 489//818 490//818
f 488//819 490//819 466//819
f 471//820 490//820 489//820
f 472//821 489//821 379//821
f 465//822 490//822 471//822
f 472//823 471//823 489//823
f 467//834 472//834 476//834
f 474//835 473//835 476//835
f 481//836 476//836 472//836
f 481//837 472//837 496//837
f 477//838 494//838 498//838
f 497//847 395//847 396//847
f 499//848 396//848 354//848
f 353//849 499//849 349//849
f 353//850 352//850 503//850
f 503//851 352//851 487//851
f 353//852 503//852 499//852
f 501//856 406//856 407//856
f 501//857 407//857 324//857
f 324//858 326//858 501//858
f 403//859 501//859 327//859
f 327//860 501//860 326//860
f 324//861 323//861 326//861
f 498//862 497//862 502//862
f 502//863 497//863 499//863
f 497//864 396//864 499//864
f 503//865 487//865 500//865
f 504//866 503//866 500//866
f 500//867 487//867 505//867
f 483//868 505//868 506//868
f 482//869 483//869 506//869
f 498//870 485//870 477//870
f 502//871 485//871 498//871
f 502//872 499//872 503//872
f 502//873 503//873 504//873
f 485//874 502//874 504//874
f 433//878 424//878 431//878
f 432//879 433//879 435//879
f 282//880 281//880 508//880
f 508//881 281//881 509//881
f 510//882 508//882 509//882
f 511//883 509//883 274//883
f 510//884 509//884 511//884
f 511//885 528//885 510//885
f 274//886 283//886 512//886
f 283//887 275//887 512//887
f 284//888 466//888 416//888
f 282//889 278//889 276//889
f 453//890 451//890 454//890
f 454//891 452//891 455//891
f 454//892 455//892 620//892
f 455//893 452//893 513//893
f 514//894 460//894 461//894
f 518//895 461//895 456//895
f 461//896 518//896 517//896
f 518//897 336//897 519//897
f 518//898 456//898 462//898
f 332//899 336//899 518//899
f 520//900 336//900 338//900
f 520//901 339//901 336//901
f 522//902 339//902 520//902
f 337//903 520//903 338//903
f 520//904 337//904 521//904
f 520//905 521//905 508//905
f 339//906 519//906 336//906
f 519//907 517//907 518//907
f 523//908 517//908 519//908
f 517//909 516//909 461//909
f 461//910 516//910 514//910
f 524//911 519//911 339//911
f 525//912 519//912 524//912
f 525//913 524//913 530//913
f 527//914 530//914 526//914
f 526//915 530//915 524//915
f 510//916 522//916 520//916
f 510//917 520//917 508//917
f 510//918 526//918 522//918
f 512//919 511//919 274//919
f 529//920 530//920 527//920
f 527//921 526//921 510//921
f 527//922 510//922 528//922
f 527//923 528//923 529//923
f 572//924 446//924 573//924
f 531//925 446//925 447//925
f 532//926 445//926 444//926
f 447//927 445//927 532//927
f 447//928 532//928 531//928
f 435//929 534//929 437//929
f 438//930 431//930 533//930
f 440//931 533//931 431//931
f 431//932 439//932 440//932
f 533//933 435//933 438//933
f 533//934 534//934 435//934
f 534//935 444//935 436//935
f 429//959 430//959 421//959
f 550//960 429//960 548//960
f 549//961 429//961 551//961
f 550//962 551//962 429//962
f 552//963 550//963 548//963
f 552//964 548//964 553//964
f 553//965 548//965 428//965
f 428//966 425//966 553//966
f 554//967 552//967 553//967
f 553//968 556//968 555//968
f 553//969 555//969 554//969
f 559//970 554//970 555//970
f 552//971 554//971 551//971
f 552//972 551//972 550//972
f 551//973 554//973 557//973
f 557//975 558//975 551//975
f 558//976 557//976 687//976
f 559//977 687//977 557//977
f 555//978 556//978 560//978
f 562//979 556//979 507//979
f 556//980 562//980 563//980
f 553//981 565//981 507//981
f 566//982 608//982 564//982
f 564//983 563//983 562//983
f 282//984 521//984 278//984
f 278//985 521//985 337//985
f 508//986 521//986 282//986
f 483//987 500//987 505//987
f 571//988 569//988 570//988
f 572//989 570//989 443//989
f 573//990 446//990 531//990
f 577//991 531//991 532//991
f 573//992 531//992 576//992
f 570//993 572//993 571//993
f 572//994 574//994 571//994
f 575//995 574//995 572//995
f 572//996 573//996 575//996
f 531//997 577//997 576//997
f 578//998 576//998 577//998
f 576//999 575//999 573//999
f 575//1000 579//1000 574//1000
f 580//1001 579//1001 575//1001
f 575//1002 576//1002 578//1002
f 580//1003 581//1003 579//1003
f 580//1004 582//1004 581//1004
f 581//1005 582//1005 586//1005
f 574//1006 579//1006 583//1006
f 581//1007 586//1007 585//1007
f 579//1008 581//1008 638//1008
f 579//1009 638//1009 583//1009
f 638//1010 581//1010 585//1010
f 584//1011 574//1011 583//1011
f 580//1012 587//1012 582//1012
f 578//1015 589//1015 575//1015
f 575//1016 589//1016 580//1016
f 590//1017 578//1017 577//1017
f 560//1037 559//1037 555//1037
f 599//1038 560//1038 600//1038
f 601//1039 599//1039 602//1039
f 600//1040 560//1040 556//1040
f 553//1041 425//1041 565//1041
f 556//1042 553//1042 507//1042
f 600//1043 556//1043 563//1043
f 599//1044 600//1044 609//1044
f 602//1045 599//1045 609//1045
f 609//1046 563//1046 564//1046
f 604//1047 603//1047 568//1047
f 568//1048 567//1048 604//1048
f 614//1049 567//1049 450//1049
f 604//1050 567//1050 605//1050
f 604//1051 605//1051 607//1051
f 607//1052 610//1052 603//1052
f 607//1053 603//1053 604//1053
f 567//1054 606//1054 605//1054
f 603//1055 608//1055 566//1055
f 603//1056 610//1056 608//1056
f 608//1057 602//1057 609//1057
f 609//1058 564//1058 608//1058
f 610//1059 602//1059 608//1059
f 610//1060 611//1060 602//1060
f 602//1061 611//1061 601//1061
f 612//1062 601//1062 611//1062
f 606//1063 567//1063 614//1063
f 606//1064 615//1064 613//1064
f 614//1065 615//1065 606//1065
f 614//1066 616//1066 615//1066
f 614//1067 450//1067 616//1067
f 617//1068 618//1068 453//1068
f 619//1069 618//1069 617//1069
f 617//1070 453//1070 454//1070
f 620//1071 617//1071 454//1071
f 515//1072 513//1072 459//1072
f 513//1073 515//1073 455//1073
f 455//1074 515//1074 621//1074
f 455//1075 621//1075 620//1075
f 624//1076 622//1076 623//1076
f 622//1077 624//1077 628//1077
f 627//1078 628//1078 624//1078
f 630//1082 632//1082 631//1082
f 631//1083 632//1083 633//1083
f 635//1084 634//1084 632//1084
f 629//1085 635//1085 632//1085
f 569//1087 571//1087 561//1087
f 584//1088 571//1088 574//1088
f 571//1089 584//1089 561//1089
f 586//1090 639//1090 585//1090
f 641//1091 640//1091 586//1091
f 586//1092 640//1092 639//1092
f 641//1093 586//1093 587//1093
f 587//1094 586//1094 582//1094
f 532//1098 444//1098 590//1098
f 577//1099 532//1099 590//1099
f 631//1100 637//1100 630//1100
f 633//1101 637//1101 631//1101
f 647//1102 633//1102 632//1102
f 642//1103 632//1103 634//1103
f 646//1104 634//1104 635//1104
f 647//1108 632//1108 642//1108
f 633//1109 647//1109 637//1109
f 648//1110 642//1110 634//1110
f 646//1111 648//1111 634//1111
f 646//1112 650//1112 648//1112
f 647//1120 642//1120 656//1120
f 642//1121 657//1121 656//1121
f 659//1122 649//1122 650//1122
f 657//1123 649//1123 659//1123
f 649//1124 657//1124 648//1124
f 642//1125 648//1125 657//1125
f 649//1126 648//1126 650//1126
f 677//1140 661//1140 669//1140
f 677//1142 669//1142 668//1142
f 678//1143 677//1143 668//1143
f 678//1144 668//1144 670//1144
f 675//1153 673//1153 679//1153
f 679//1154 673//1154 674//1154
f 676//1155 679//1155 674//1155
f 623//1156 676//1156 624//1156
f 600//1159 563//1159 609//1159
f 657//1160 677//1160 667//1160
f 657//1161 667//1161 658//1161
f 657//1162 658//1162 656//1162
f 657//1163 659//1163 677//1163
f 667//1164 677//1164 678//1164
f 675//1165 678//1165 670//1165
f 680//1166 679//1166 676//1166
f 667//1167 678//1167 681//1167
f 678//1168 675//1168 679//1168
f 682//1169 453//1169 618//1169
f 615//1170 616//1170 682//1170
f 683//1171 618//1171 619//1171
f 677//1175 659//1175 661//1175
f 557//1176 554//1176 559//1176
f 681//1177 678//1177 679//1177
f 522//1178 526//1178 524//1178
f 524//1179 339//1179 522//1179
f 618//1180 615//1180 682//1180
f 618//1181 683//1181 688//1181
f 688//1182 615//1182 618//1182
f 688//1183 613//1183 615//1183
f 606//1184 686//1184 685//1184
f 606//1185 613//1185 686//1185
f 606//1186 685//1186 605//1186
f 610//1187 607//1187 611//1187
f 612//1188 611//1188 607//1188
f 607//1189 605//1189 612//1189
f 680//1190 676//1190 623//1190
f 597//1191 558//1191 687//1191
f 613//1192 688//1192 690//1192
f 613//1193 690//1193 686//1193
f 519//1194 525//1194 523//1194
f 612//1195 605//1195 685//1195
