# Blender 5.2.1 LTS
# www.blender.org
mtllib angel_leg_l.mtl
o Angel_LeftLeg
v -0.115617 0.018327 -0.007108
v -0.106503 0.009552 -0.011220
v -0.142635 -0.076389 -0.002473
v -0.121277 -0.068657 -0.004547
v -0.100347 -0.016552 -0.006886
v -0.103353 -0.078687 -0.004692
v -0.089164 -0.009533 -0.010910
v -0.086319 -0.090074 -0.012066
v -0.084722 -0.126093 -0.013481
v -0.079861 -0.097706 -0.007646
v -0.102485 -0.132052 -0.007102
v -0.105578 -0.155923 -0.005620
v -0.139288 -0.130872 -0.003596
v -0.111479 -0.183677 -0.003676
v -0.140281 -0.025392 -0.073001
v -0.107936 0.001575 -0.083308
v -0.109613 -0.062370 -0.075731
v -0.150390 -0.124390 -0.066039
v -0.103575 -0.018163 -0.084272
v -0.121205 -0.124666 -0.067190
v -0.100309 -0.031925 -0.085607
v -0.094744 -0.056128 -0.084787
v -0.105523 -0.029550 -0.092333
v -0.106785 -0.028742 -0.115023
v -0.106112 -0.025572 -0.099071
v -0.113177 -0.003484 -0.104867
v -0.092461 -0.033784 -0.151853
v -0.078860 -0.125086 -0.158127
v -0.169712 -0.263853 -0.000245
v -0.154637 -0.192605 -0.064269
v -0.122720 -0.199144 -0.064802
v -0.102308 -0.120379 -0.075792
v -0.089851 -0.107815 -0.081855
v -0.090551 -0.074478 -0.081901
v -0.090636 -0.068096 -0.083692
v -0.090745 -0.072604 -0.087391
v -0.085263 -0.063647 -0.075132
v -0.092989 -0.095852 -0.112282
v -0.102608 -0.035142 -0.127708
v -0.068611 -0.185541 -0.096457
v -0.069591 -0.200586 -0.155174
v -0.073557 -0.201903 -0.129006
v -0.069240 -0.205568 -0.160022
v -0.071027 -0.192621 -0.107898
v -0.089635 -0.069847 -0.082817
v -0.089635 -0.068596 -0.082691
v -0.089635 -0.068596 -0.082691
v -0.089635 -0.068596 -0.082691
v -0.090011 -0.069847 -0.082316
v -0.088345 -0.068220 -0.079345
v -0.072789 -0.199571 -0.122976
v -0.075252 -0.206482 -0.131047
v -0.068202 -0.191433 -0.095076
v -0.069022 -0.223718 -0.126008
v -0.069439 -0.225863 -0.147719
v -0.059129 -0.232583 -0.131542
v -0.056064 -0.234004 -0.152658
v -0.063254 -0.211640 -0.103502
v -0.124182 -0.335587 -0.055496
v -0.093606 -0.260286 -0.069933
v -0.146799 -0.346476 -0.054019
v -0.160621 -0.323470 -0.057476
v -0.106865 -0.303318 -0.062285
v -0.100710 -0.337708 -0.061377
v -0.091507 -0.322207 -0.065674
v -0.110628 -0.358891 -0.054481
v -0.126561 -0.381851 -0.048475
v -0.142950 -0.390689 -0.045395
v -0.138785 -0.392512 -0.043596
v -0.155568 -0.373215 -0.052356
v -0.146309 -0.388216 0.006032
v -0.142203 -0.302811 0.001477
v -0.159949 -0.338363 0.004660
v -0.142177 -0.313028 0.008682
v -0.133845 -0.319326 0.009820
v -0.118656 -0.336656 0.003256
v -0.125611 -0.347176 0.006814
v -0.126307 -0.318294 0.002256
v -0.135870 -0.291436 0.001933
v -0.148751 -0.283723 0.001546
v -0.110918 -0.333096 0.006282
v -0.127367 -0.356109 0.009614
v -0.111657 -0.327482 0.001343
v -0.116300 -0.307060 0.003496
v -0.120565 -0.281123 0.000460
v -0.152513 -0.241669 -0.000574
v -0.123063 -0.287442 0.006132
v -0.141908 -0.360073 0.008544
v -0.140709 -0.367588 0.011352
v -0.137561 -0.393205 0.004704
v -0.120870 -0.204973 -0.000083
v -0.120473 -0.240977 0.001201
v -0.110773 -0.291098 -0.000330
v -0.102407 -0.314767 -0.000880
v -0.099162 -0.317667 0.003499
v -0.094978 -0.343813 -0.000288
v -0.096713 -0.306049 -0.002717
v -0.106669 -0.265246 -0.000132
v -0.107691 -0.360119 0.003075
v -0.088541 0.017120 -0.012293
v -0.084044 -0.011377 -0.005817
v -0.067045 -0.011861 -0.017139
v -0.125150 -0.380702 0.006044
v -0.111367 -0.219767 -0.000177
v -0.104438 -0.200321 -0.001928
v -0.106819 -0.186939 -0.001825
v -0.088556 -0.188157 -0.006918
v -0.090472 -0.198289 -0.007139
v -0.102664 -0.203483 -0.006651
v -0.091484 -0.181111 -0.010148
v -0.089882 -0.160109 -0.009794
v -0.101770 -0.151112 -0.003793
v -0.105944 -0.237298 -0.001747
v -0.092561 -0.268178 -0.004122
v -0.092859 -0.247751 -0.005971
v -0.067892 -0.264485 -0.011453
v -0.074644 -0.270313 -0.012069
v -0.060412 -0.258404 -0.013051
v -0.042700 -0.262242 -0.028473
v -0.067357 -0.220577 -0.013926
v -0.068523 -0.239817 -0.016794
v -0.075481 -0.241844 -0.011711
v -0.082377 -0.281766 -0.008638
v -0.074323 -0.279465 -0.005735
v -0.062558 -0.295436 -0.014322
v -0.090951 -0.295983 -0.005094
v -0.079416 -0.322211 -0.005168
v -0.090643 -0.267020 -0.074248
v -0.071900 -0.267933 -0.082748
v -0.098708 -0.217796 -0.073070
v -0.086677 -0.152377 -0.081057
v -0.097209 -0.166532 -0.077831
v -0.093398 -0.231565 -0.078345
v -0.086328 -0.054619 -0.070039
v -0.057406 -0.171157 -0.024034
v -0.061293 -0.127989 -0.020935
v -0.064020 -0.084349 -0.020531
v -0.073919 -0.180770 -0.010261
v -0.080317 -0.167536 -0.013327
v -0.077914 -0.192811 -0.014843
v -0.074150 -0.212965 -0.016106
v -0.088926 -0.210081 -0.008116
v -0.049958 -0.227936 -0.030383
v -0.045736 -0.263470 -0.038585
v -0.076308 -0.248607 -0.084170
v -0.083203 -0.207120 -0.082706
v -0.077592 -0.289705 -0.076860
v -0.099991 0.000820 -0.124154
v -0.110892 -0.006481 -0.123691
v -0.103273 -0.006908 -0.143718
v -0.093152 -0.132348 -0.006826
v -0.064356 0.011709 -0.044691
v -0.078039 0.004672 -0.055617
v -0.089717 -0.302896 0.000630
v -0.064043 -0.267538 -0.072420
v -0.083215 -0.049067 -0.069180
v -0.083986 -0.041842 -0.062180
v -0.082941 -0.027972 -0.063747
v -0.081882 -0.001161 -0.058963
v -0.036593 -0.015822 -0.028769
v -0.038534 0.026744 -0.029207
v -0.030926 -0.015304 -0.028565
v -0.023956 -0.035233 -0.025921
v -0.000746 0.046481 -0.017675
v -0.011797 -0.111203 -0.031633
v 0.019586 -0.059082 -0.030749
v -0.085956 -0.251988 -0.128767
v -0.077680 -0.251769 -0.135169
v -0.081649 -0.273759 -0.132504
v -0.071627 -0.236731 -0.126327
v -0.081238 -0.241173 -0.113551
v -0.076094 -0.288074 -0.124320
v -0.073501 -0.276817 -0.135914
v -0.080480 -0.243312 -0.139393
v -0.079347 -0.242694 -0.149786
v -0.070758 -0.240617 -0.131505
v -0.074502 -0.241204 -0.151915
v -0.062327 -0.239429 -0.155019
v -0.073770 -0.249428 -0.093012
v -0.074376 -0.242795 -0.100439
v -0.065994 -0.260624 -0.079385
v -0.068259 -0.297433 -0.110342
v -0.058885 -0.277675 -0.075642
v -0.059567 -0.297242 -0.089756
v -0.063346 -0.298175 -0.115738
v -0.069340 -0.289679 -0.127718
v -0.063207 -0.316318 -0.118069
v -0.069991 -0.302429 -0.138398
v -0.068953 -0.313823 -0.155089
v -0.070968 -0.313773 -0.136266
v -0.063671 -0.320154 -0.136702
v -0.056256 -0.343061 -0.121220
v -0.071992 -0.334272 -0.153342
v -0.052715 -0.298907 -0.091098
v -0.054037 -0.301942 -0.100399
v -0.056075 -0.260261 -0.072463
v -0.058334 -0.253678 -0.079116
v -0.050906 -0.287898 -0.081314
v -0.046949 -0.308966 -0.088701
v -0.052975 -0.321443 -0.101766
v -0.058132 -0.328186 -0.111512
v -0.057754 -0.327261 -0.122708
v -0.064603 -0.345304 -0.148115
v -0.061763 -0.344711 -0.127499
v -0.065370 -0.345450 -0.137692
v -0.057435 -0.353520 -0.135196
v -0.049541 -0.332266 -0.093782
v -0.049797 -0.334541 -0.110411
v -0.065288 -0.385905 -0.147913
v -0.058502 -0.237752 -0.137803
v -0.039068 -0.122049 -0.043177
v -0.053095 -0.165461 -0.066497
v -0.056413 -0.198552 -0.085578
v -0.054687 -0.226046 -0.118772
v -0.053830 -0.235265 -0.121073
v -0.048087 -0.230745 -0.100830
v -0.050483 -0.238569 -0.111020
v -0.072041 -0.234862 -0.085595
v -0.066117 -0.239454 -0.107084
v -0.042840 -0.219957 -0.089520
v -0.055567 -0.216407 -0.086260
v -0.058442 -0.393359 -0.145584
v -0.054907 -0.438453 -0.153935
v -0.050495 -0.360318 -0.125598
v -0.056997 -0.354875 -0.122031
v -0.046383 -0.363743 -0.111111
v -0.048866 -0.357924 -0.108636
v -0.040782 -0.367114 -0.116950
v -0.055942 -0.392213 -0.133147
v -0.033562 -0.384266 -0.103225
v -0.043241 -0.400897 -0.116636
v -0.031054 -0.408522 -0.104555
v -0.031164 -0.374994 -0.109116
v -0.024793 -0.379204 -0.104997
v -0.027921 -0.413979 -0.111881
v -0.032719 -0.456525 -0.127520
v -0.043825 -0.403086 -0.126974
v -0.059961 -0.215779 -0.064255
v -0.048402 -0.237872 -0.060602
v -0.026819 -0.266524 -0.031393
v -0.034743 -0.372105 -0.096763
v -0.021591 -0.381236 -0.086458
v -0.017389 -0.384620 -0.100751
v -0.027529 -0.371805 -0.088790
v -0.030680 -0.362742 -0.095443
v -0.001763 -0.378758 -0.078243
v -0.009820 -0.388874 -0.079466
v -0.006981 -0.391669 -0.097257
v -0.016584 -0.398311 -0.090465
v 0.004139 -0.414282 -0.085670
v 0.025462 -0.429159 -0.086224
v 0.004752 -0.399905 -0.095290
v 0.024283 -0.417577 -0.094473
v 0.032383 -0.402571 -0.097382
v 0.018240 -0.406904 -0.092961
v 0.024618 -0.407346 -0.086289
v -0.046374 -0.443184 -0.140139
v -0.049113 -0.446855 -0.147278
v -0.025729 -0.513448 -0.143708
v -0.029352 -0.117923 -0.038425
v -0.063124 -0.174974 -0.081755
v -0.050658 -0.213023 -0.101366
v -0.045067 -0.153578 -0.057094
v -0.033273 -0.162956 -0.055752
v -0.026936 -0.169510 -0.065392
v -0.035944 -0.206717 -0.079538
v -0.045167 -0.201224 -0.089149
v -0.030836 -0.196793 -0.073289
v -0.036749 -0.181506 -0.063066
v -0.040128 -0.190639 -0.079907
v -0.027728 -0.189131 -0.068937
v -0.032908 -0.178540 -0.071396
v -0.020111 -0.162298 -0.058433
v -0.020607 -0.169695 -0.060944
v -0.018467 -0.153859 -0.055054
v -0.019096 -0.157028 -0.053629
v -0.021979 -0.147969 -0.045141
v -0.034103 -0.139258 -0.046975
v -0.013752 -0.147423 -0.045145
v -0.017209 -0.131936 -0.036769
v -0.020085 -0.095559 -0.032171
v -0.025789 -0.050919 -0.030494
v -0.008435 -0.147989 -0.028833
v -0.027073 -0.169601 -0.037470
v 0.001202 -0.149238 -0.026500
v -0.001483 -0.177330 -0.029326
v -0.002685 -0.183973 -0.035517
v -0.022277 -0.176552 -0.062507
v -0.024609 -0.183038 -0.065923
v -0.042065 -0.189741 -0.046854
v -0.038500 -0.221485 -0.048930
v -0.043208 -0.234657 -0.047585
v -0.027323 -0.205360 -0.041132
v -0.017600 -0.233752 -0.024951
v 0.004754 -0.242906 -0.013996
v -0.039239 -0.455974 -0.137615
v -0.008567 -0.429790 -0.103653
v -0.012845 -0.483789 -0.122836
v 0.006062 -0.455614 -0.104843
v -0.014315 -0.421298 -0.095737
v 0.021067 -0.476270 -0.104971
v -0.045249 -0.180765 -0.068646
v -0.041412 -0.312576 -0.080257
v -0.039705 -0.341519 -0.099986
v -0.039502 -0.331436 -0.083512
v -0.030275 -0.318176 -0.069884
v -0.034515 -0.344588 -0.084206
v -0.028714 -0.346999 -0.091235
v 0.087695 -0.366014 -0.160959
v 0.078179 -0.379752 -0.145982
v 0.078806 -0.327414 -0.157160
v 0.082003 -0.314735 -0.155522
v 0.077455 -0.310630 -0.153481
v 0.074153 -0.297316 -0.151808
v 0.078553 -0.297893 -0.132967
v 0.074015 -0.287352 -0.134187
v 0.073180 -0.271521 -0.135477
v 0.079876 -0.287177 -0.162825
v 0.076575 -0.272589 -0.162363
v 0.058203 -0.091162 -0.164503
v 0.059981 -0.183381 -0.150612
v 0.057042 -0.186997 -0.165180
v 0.051568 -0.223698 -0.148272
v 0.052131 -0.216553 -0.139728
v 0.064991 -0.221475 -0.144265
v 0.068079 -0.218696 -0.131717
v 0.070692 -0.232431 -0.148182
v 0.074997 -0.255915 -0.145329
v 0.071828 -0.232220 -0.141241
v 0.082175 -0.247065 -0.142453
v -0.015165 -0.578621 -0.149681
v 0.000699 -0.588753 -0.127946
v 0.016107 -0.569514 -0.115813
v 0.002429 -0.514023 -0.120609
v 0.010852 -0.541063 -0.118218
v 0.021252 -0.617236 -0.105015
v 0.021615 -0.591953 -0.111147
v -0.001691 -0.641717 -0.122676
v 0.009094 -0.629153 -0.110727
v -0.012572 -0.633300 -0.144312
v -0.025914 -0.642521 -0.154718
v -0.017322 -0.648959 -0.134830
v -0.013960 -0.193455 -0.035156
v 0.007600 -0.185226 -0.036557
v 0.003749 -0.188575 -0.029379
v 0.017017 -0.191376 -0.038986
v 0.030218 -0.201469 -0.046812
v -0.002946 -0.142068 -0.039942
v -0.018488 -0.118194 -0.037077
v 0.047167 -0.050485 -0.049762
v 0.034981 -0.139692 -0.055734
v 0.043559 -0.151613 -0.067524
v 0.053787 -0.157295 -0.082436
v 0.027121 -0.140732 -0.050868
v 0.065112 -0.069630 -0.080319
v 0.046400 -0.159753 -0.071097
v 0.018170 -0.129648 -0.042852
v 0.004424 -0.119958 -0.035733
v -0.014585 -0.342901 -0.064912
v -0.031372 -0.342717 -0.075597
v -0.012794 -0.351141 -0.062183
v -0.001618 -0.354934 -0.054229
v 0.009526 -0.361858 -0.048600
v 0.008019 -0.362192 -0.073811
v 0.019553 -0.364858 -0.073118
v 0.023037 -0.363810 -0.050198
v -0.015856 -0.323737 -0.060843
v -0.003351 -0.325903 -0.054559
v -0.003113 -0.357754 -0.077386
v -0.016493 -0.352273 -0.083306
v -0.002950 -0.387200 -0.073053
v 0.009110 -0.400449 -0.071192
v 0.029514 -0.398475 -0.094016
v 0.023572 -0.405314 -0.070565
v 0.021782 -0.399796 -0.066649
v 0.041974 -0.381853 -0.100100
v 0.040781 -0.390414 -0.101659
v 0.031732 -0.424668 -0.087902
v 0.044706 -0.405045 -0.092913
v 0.053742 -0.418655 -0.102480
v 0.042487 -0.440360 -0.097274
v 0.003172 -0.441518 -0.093222
v -0.031527 -0.463081 -0.132922
v -0.021031 -0.475442 -0.127048
v 0.021912 -0.468926 -0.093661
v -0.006834 -0.495139 -0.122691
v 0.044525 0.009409 -0.042583
v 0.068385 -0.000837 -0.011523
v -0.017853 -0.289635 -0.035924
v 0.001446 -0.279003 -0.019005
v 0.015238 -0.270790 -0.016238
v 0.012325 -0.225080 -0.018384
v 0.034596 -0.235674 -0.033670
v 0.012984 -0.300710 -0.028674
v 0.042750 -0.262382 -0.040659
v 0.032947 -0.174397 -0.045933
v 0.021957 -0.164870 -0.038634
v 0.023702 -0.165903 -0.055983
v 0.016867 -0.166685 -0.059739
v 0.006216 -0.147931 -0.042989
v 0.012607 -0.154647 -0.049803
v 0.007848 -0.154101 -0.052397
v 0.012664 -0.161813 -0.057248
v 0.026076 -0.160299 -0.056435
v 0.029639 -0.176409 -0.073481
v 0.018926 -0.163392 -0.061622
v 0.046910 -0.187419 -0.058912
v 0.023670 -0.175621 -0.066699
v 0.034953 -0.181977 -0.072396
v 0.034694 -0.188543 -0.079830
v 0.038358 -0.188464 -0.086612
v 0.048218 -0.198087 -0.086853
v 0.039754 -0.197233 -0.089076
v 0.060467 -0.205487 -0.074742
v 0.043087 -0.214776 -0.056556
v 0.056925 -0.233829 -0.070879
v 0.036507 -0.275925 -0.035014
v 0.014415 -0.326800 -0.048424
v 0.063865 -0.246047 -0.084109
v 0.036335 -0.319209 -0.063137
v 0.036491 -0.338980 -0.062789
v 0.055001 -0.302676 -0.084270
v 0.066171 -0.285349 -0.099346
v 0.043881 -0.341519 -0.066987
v 0.041320 -0.347320 -0.074170
v 0.032099 -0.352773 -0.078847
v 0.045779 -0.363365 -0.089548
v 0.043215 -0.342631 -0.088418
v 0.063318 -0.323489 -0.100302
v 0.066428 -0.307338 -0.105595
v 0.056236 -0.325308 -0.084973
v 0.058225 -0.328477 -0.104270
v 0.061619 -0.344337 -0.107156
v 0.061681 -0.262577 -0.082626
v 0.069931 -0.269941 -0.087258
v 0.062179 -0.291732 -0.098810
v 0.062609 -0.275045 -0.089329
v 0.072847 -0.285586 -0.103137
v 0.069933 -0.286027 -0.116239
v 0.069419 -0.311753 -0.108124
v 0.071550 -0.341511 -0.115764
v 0.068699 -0.311833 -0.124954
v 0.075538 -0.327783 -0.130933
v 0.063214 -0.238940 -0.088820
v 0.051653 -0.224195 -0.067477
v 0.069245 -0.220438 -0.093334
v -0.021499 -0.680702 -0.134813
v -0.011302 -0.721331 -0.150298
v -0.004675 -0.717732 -0.143498
v -0.011901 -0.734865 -0.150278
v -0.014660 -0.718131 -0.140176
v -0.006075 -0.738153 -0.134892
v -0.013797 -0.755483 -0.146327
v -0.007484 -0.760465 -0.151984
v -0.011661 -0.778321 -0.133658
v -0.005293 -0.778104 -0.141989
v -0.007465 -0.787074 -0.151419
v 0.000216 -0.796609 -0.119388
v -0.002625 -0.789925 -0.132596
v -0.007074 -0.801640 -0.145297
v 0.068837 -0.818557 -0.158424
v -0.027963 -0.704764 -0.142506
v -0.008931 -0.709876 -0.126837
v -0.002137 -0.720249 -0.126752
v -0.006496 -0.790401 -0.118286
v -0.007295 -0.767540 -0.116647
v -0.008031 -0.775914 -0.125612
v 0.020109 -0.817600 -0.147773
v -0.003268 -0.818022 -0.134149
v 0.081550 -0.818752 -0.151467
v 0.093485 -0.818257 -0.152347
v 0.100262 -0.819143 -0.134484
v 0.106384 -0.818972 -0.120662
v -0.023129 -0.677937 -0.147367
v -0.013440 -0.690805 -0.118996
v -0.001673 -0.710669 -0.132257
v -0.000837 -0.667729 -0.105410
v 0.012034 -0.646594 -0.092970
v -0.012590 -0.664867 -0.130335
v -0.025085 -0.665817 -0.139726
v -0.007658 -0.644904 -0.133124
v 0.026780 -0.613255 -0.104056
v 0.023405 -0.581571 -0.109941
v 0.033645 -0.569599 -0.109036
v 0.037820 -0.610958 -0.100299
v 0.047494 -0.612580 -0.105595
v 0.048720 -0.592570 -0.115270
v 0.025969 -0.631595 -0.085376
v 0.023594 -0.656982 -0.096050
v 0.008373 -0.676205 -0.107646
v 0.033174 -0.657929 -0.115073
v 0.043148 -0.642693 -0.089265
v 0.042562 -0.652868 -0.118731
v 0.042865 -0.657794 -0.120034
v 0.032167 -0.661410 -0.112548
v 0.019796 -0.671292 -0.113834
v -0.001209 -0.695432 -0.118676
v 0.001391 -0.702710 -0.126216
v -0.008771 -0.741969 -0.116615
v -0.001722 -0.754654 -0.116179
v -0.005742 -0.730557 -0.112638
v 0.005876 -0.694069 -0.121592
v 0.010522 -0.684650 -0.118345
v 0.012184 -0.716148 -0.091742
v 0.027602 -0.698865 -0.085942
v 0.039928 -0.682519 -0.093310
v 0.023948 -0.694324 -0.096062
v 0.044356 -0.661242 -0.109818
v 0.052673 -0.683663 -0.085484
v 0.054415 -0.681338 -0.096547
v 0.002701 -0.724619 -0.107437
v 0.000730 -0.738765 -0.099174
v 0.015475 -0.729935 -0.094285
v 0.006563 -0.744762 -0.099970
v 0.025380 -0.717372 -0.091107
v 0.013286 -0.741343 -0.077553
v 0.003552 -0.756800 -0.089514
v 0.027227 -0.728192 -0.071038
v -0.002875 -0.762347 -0.087158
v 0.005910 -0.743797 -0.071136
v -0.000126 -0.786852 -0.100835
v -0.005476 -0.786375 -0.107525
v -0.001290 -0.773252 -0.106158
v -0.004591 -0.818588 -0.053567
v -0.003851 -0.782340 -0.084253
v 0.002037 -0.760400 -0.075768
v 0.004081 -0.775322 -0.046398
v 0.000812 -0.819453 -0.039373
v 0.011040 -0.819014 -0.022653
v 0.039626 -0.818149 0.015361
v 0.026702 -0.818553 -0.002840
v 0.062359 -0.780234 0.017339
v 0.061372 -0.798739 0.030883
v 0.002288 -0.776689 -0.088161
v 0.011608 -0.777441 -0.033194
v 0.010741 -0.750578 -0.065649
v 0.062032 -0.813250 0.038233
v 0.081695 -0.818681 0.005423
v 0.095817 -0.818554 -0.027705
v 0.055390 -0.817944 0.034380
v 0.063934 -0.818342 0.035809
v 0.087213 -0.775449 -0.020555
v 0.107310 -0.775851 -0.071249
v 0.092310 -0.745564 -0.071385
v 0.062359 -0.734367 -0.040742
v 0.064084 -0.750921 -0.015508
v 0.024292 -0.739436 -0.058171
v 0.063421 -0.766585 0.003256
v 0.001413 -0.818989 -0.094809
v 0.105603 -0.802452 -0.125430
v 0.096608 -0.787312 -0.151234
v 0.101185 -0.785945 -0.136183
v 0.105153 -0.776015 -0.125837
v 0.109958 -0.783914 -0.146431
v -0.001099 -0.816358 -0.100414
v 0.020588 -0.388167 -0.073041
v 0.017874 -0.354980 -0.047163
v 0.020351 -0.349400 -0.050389
v 0.034659 -0.719374 -0.063297
v 0.027417 -0.726743 -0.060792
v 0.042841 -0.729090 -0.057071
v 0.064060 -0.723246 -0.060144
v 0.060631 -0.707402 -0.063620
v 0.079486 -0.731281 -0.071754
v 0.083531 -0.720985 -0.078506
v 0.073396 -0.717685 -0.080975
v 0.072543 -0.711849 -0.068848
v 0.059580 -0.709743 -0.073138
v 0.038073 -0.706776 -0.089122
v 0.044566 -0.715118 -0.070882
v 0.053807 -0.700602 -0.090096
v 0.064505 -0.705256 -0.094280
v 0.074573 -0.712987 -0.101317
v 0.087513 -0.730155 -0.096221
v 0.092683 -0.741097 -0.086306
v 0.095141 -0.731788 -0.091637
v 0.089016 -0.728640 -0.116874
v 0.081711 -0.720302 -0.108010
v 0.068027 -0.691037 -0.092280
v 0.033265 -0.378262 -0.078587
v 0.037091 -0.385563 -0.074796
v 0.059032 -0.358408 -0.096658
v 0.047669 -0.372760 -0.083778
v 0.034793 -0.394564 -0.074952
v 0.061147 -0.362292 -0.104018
v 0.043804 -0.443037 -0.107346
v 0.039547 -0.463450 -0.106694
v 0.032324 -0.478373 -0.104876
v 0.031158 -0.472188 -0.094447
v 0.030975 -0.519611 -0.109569
v 0.053591 -0.503030 -0.123482
v 0.044319 -0.559660 -0.115389
v 0.047971 -0.564712 -0.119719
v 0.061845 -0.560616 -0.136305
v 0.040299 -0.624228 -0.083209
v 0.052673 -0.628760 -0.087720
v 0.051765 -0.610847 -0.111535
v 0.065847 -0.639577 -0.097163
v 0.052351 -0.657291 -0.118837
v 0.056983 -0.661461 -0.116267
v 0.040337 -0.687392 -0.084818
v 0.064594 -0.668688 -0.119276
v 0.081809 -0.703612 -0.105299
v 0.071495 -0.677372 -0.124511
v 0.073835 -0.669974 -0.117022
v 0.079398 -0.657380 -0.113023
v 0.087475 -0.657641 -0.141553
v 0.060880 -0.623179 -0.114110
v 0.070056 -0.633250 -0.125509
v 0.059333 -0.480078 -0.124130
v 0.062300 -0.477114 -0.130161
v 0.072198 -0.465812 -0.137717
v 0.082378 -0.447463 -0.151687
v 0.070420 -0.457602 -0.138341
v 0.078230 -0.440457 -0.149509
v 0.073300 -0.448592 -0.135834
v 0.053194 -0.420778 -0.112170
v 0.066246 -0.398322 -0.126217
v 0.074631 -0.383287 -0.126461
v 0.055921 -0.386473 -0.101068
v 0.049744 -0.376805 -0.108273
v 0.054026 -0.367035 -0.112296
v 0.063418 -0.369846 -0.111805
v 0.071073 -0.358414 -0.123805
v 0.078411 -0.333510 -0.136133
v 0.065494 -0.350400 -0.126994
v 0.072253 -0.340417 -0.138100
v 0.060098 -0.358316 -0.119755
v 0.029453 -0.352080 -0.052003
v 0.111052 -0.818940 -0.074674
v 0.110164 -0.782359 -0.118252
v 0.110554 -0.818843 -0.102426
v 0.106582 -0.762684 -0.113610
v 0.111829 -0.773162 -0.099036
v 0.102215 -0.751669 -0.100889
v 0.099167 -0.743243 -0.112470
v 0.090076 -0.715289 -0.114749
v 0.097605 -0.729278 -0.128003
v 0.104475 -0.755219 -0.125546
v 0.104458 -0.742223 -0.104149
v 0.110654 -0.756338 -0.120882
v 0.097148 -0.741890 -0.131355
v 0.102321 -0.743099 -0.142735
v 0.100134 -0.749403 -0.148602
v 0.098325 -0.732924 -0.139803
v 0.089472 -0.715372 -0.157414
v 0.086488 -0.706141 -0.145743
v 0.096846 -0.722446 -0.150979
v 0.082934 -0.697348 -0.139768
v 0.087043 -0.713288 -0.121468
v 0.077984 -0.687937 -0.132449
v 0.091807 -0.704221 -0.146699
v 0.096704 -0.688919 -0.140843
v 0.079421 -0.627535 -0.163810
v 0.077773 -0.634030 -0.148199
v 0.079715 -0.647754 -0.138360
v 0.056254 -0.013611 -0.043139
v 0.092126 -0.001767 -0.025537
v 0.045146 -0.178527 -0.078637
v 0.062965 -0.169546 -0.110873
v 0.060231 -0.004784 -0.068584
v 0.055194 -0.165202 -0.089074
v 0.063416 -0.180307 -0.130806
v 0.062404 -0.175853 -0.109098
v 0.065429 -0.185671 -0.132979
v 0.056098 -0.188536 -0.097939
v 0.063059 -0.205336 -0.141124
v 0.053190 -0.214422 -0.133536
v 0.061960 -0.200817 -0.121090
v 0.051248 -0.205448 -0.115879
v 0.049215 -0.213463 -0.106934
v 0.054070 -0.221470 -0.118531
v 0.070852 -0.086452 -0.123240
v 0.070953 -0.019197 -0.101205
v 0.070188 -0.021450 -0.126887
v 0.072898 -0.020046 -0.138218
v 0.068233 -0.015052 -0.089430
v 0.085779 -0.033636 -0.098318
v 0.092902 -0.051471 -0.136460
v 0.065253 -0.009242 -0.078420
v 0.099843 -0.062131 -0.113683
v 0.066954 -0.017903 -0.140444
v 0.044695 -0.204692 -0.097526
v 0.050575 0.006027 -0.050842
v 0.055768 0.001816 -0.058242
v 0.061470 -0.003127 -0.064062
v 0.052886 -0.521577 -0.124106
v 0.062540 -0.489197 -0.128855
v 0.058507 -0.172204 -0.093875
v 0.071925 -0.226913 -0.110075
v 0.080198 -0.223062 -0.124203
v 0.082788 -0.232654 -0.136375
v 0.068345 -0.246829 -0.084655
v 0.074068 -0.235175 -0.101365
v 0.108348 -0.019261 -0.044770
v 0.092239 -0.031222 -0.038896
v 0.079157 -0.037433 -0.069103
v 0.116668 -0.061040 -0.080316
v 0.121485 -0.052715 -0.073078
v 0.127581 -0.077285 -0.110814
v 0.137707 -0.072659 -0.110016
v 0.121998 -0.033284 -0.066362
v 0.131183 -0.041920 -0.084783
v 0.141729 -0.052642 -0.109457
v 0.113289 -0.053484 -0.158401
v 0.122195 -0.068880 -0.131009
v 0.127656 -0.038749 -0.151889
v 0.073381 -0.695730 -0.105796
v 0.077883 -0.275844 -0.125636
v 0.081064 -0.263062 -0.138558
v 0.089695 -0.674234 -0.127852
v 0.088264 -0.642843 -0.147031
v 0.092571 -0.666712 -0.149717
v 0.108447 -0.011446 -0.167247
v 0.122188 -0.050998 -0.155164
v 0.118247 -0.020677 -0.143142
v 0.116242 -0.024188 -0.146791
v 0.128122 -0.036155 -0.130745
v 0.129278 -0.023977 -0.127763
v 0.118784 0.007981 -0.123066
v 0.124241 0.007806 -0.112736
v 0.128097 -0.020882 -0.093995
v 0.099989 -0.735476 -0.157507
v 0.102747 -0.003700 -0.054774
v 0.093247 0.008046 -0.044517
v 0.111454 -0.015914 -0.070491
v 0.106662 -0.770392 -0.141214
v 0.112037 -0.771806 -0.135173
v 0.114605 0.002489 -0.091186
v 0.110037 -0.008014 -0.076210
v 0.106934 0.007492 -0.058453
v 0.123868 -0.031065 -0.085132
v 0.121734 -0.011854 -0.087668
v 0.115612 -0.022186 -0.080456
v 0.132376 -0.064783 -0.129695
v 0.133026 -0.029072 -0.112536
v 0.133776 -0.041891 -0.109488
v 0.127684 -0.018353 -0.117731
v 0.127424 -0.017539 -0.104261
v 0.128611 -0.035810 -0.097622
vn 0.4113 0.0001 0.9115
vn 0.0882 0.0236 0.9958
vn 0.0271 0.0340 0.9991
vn -0.1854 0.1183 0.9755
vn 0.1017 -0.0143 0.9947
vn 0.3288 0.0174 0.9442
vn 0.3977 0.0009 0.9175
vn 0.3864 -0.0191 0.9221
vn -0.6097 -0.0581 0.7905
vn 0.3486 -0.0366 0.9365
vn 0.5921 -0.0267 0.8054
vn 0.0014 -0.0120 0.9999
vn 0.0586 -0.0017 0.9983
vn 0.0962 0.0492 0.9941
vn 0.1726 0.0894 0.9809
vn -0.2180 -0.1092 -0.9698
vn -0.0400 -0.0660 -0.9970
vn -0.2024 -0.0959 -0.9746
vn -0.6117 -0.0687 -0.7881
vn -0.8063 -0.2436 0.5390
vn -0.4723 -0.1381 -0.8706
vn -0.9473 -0.2096 0.2423
vn -0.8017 -0.3060 0.5134
vn -0.9969 -0.0571 0.0534
vn -0.9884 0.0761 0.1313
vn -0.5587 -0.0831 -0.8252
vn -0.9347 -0.2202 0.2789
vn -0.9346 -0.2271 0.2739
vn -0.0217 -0.0246 -0.9995
vn -0.0397 -0.0312 -0.9987
vn -0.4044 -0.0500 -0.9132
vn -0.4063 -0.0405 -0.9128
vn -0.5000 -0.0621 -0.8638
vn -0.3636 -0.0870 -0.9275
vn 0.6006 0.0115 -0.7994
vn -0.4827 -0.2426 -0.8415
vn -0.9020 -0.2719 0.3353
vn -0.9551 -0.2803 0.0960
vn -0.8142 -0.5801 0.0246
vn -0.9840 -0.1697 -0.0543
vn -0.9142 -0.1094 -0.3903
vn -0.9384 -0.2062 0.2772
vn -0.9835 -0.1709 -0.0592
vn -0.9289 -0.1276 -0.3477
vn -0.9866 0.0725 -0.1459
vn -0.8961 0.4087 -0.1730
vn -0.9733 -0.1683 -0.1560
vn -0.9563 -0.2077 0.2060
vn -0.8922 -0.2734 0.3595
vn -0.6194 -0.5969 0.5100
vn -0.8694 -0.3007 0.3921
vn -0.7224 -0.0688 0.6880
vn -0.0000 1.0000 -0.0000
vn 0.5481 -0.3869 -0.7415
vn 0.8178 -0.1454 -0.5568
vn 0.8946 -0.1424 -0.4235
vn 0.8847 -0.3557 -0.3012
vn -0.9311 -0.0363 0.3631
vn 0.7759 -0.6217 0.1073
vn -0.8293 -0.2043 0.5202
vn -0.9278 -0.1962 0.3173
vn -0.9743 -0.1383 0.1776
vn -0.9351 0.3539 -0.0177
vn -0.9665 0.2409 0.0887
vn -0.9248 -0.2506 0.2861
vn -0.8625 -0.1992 0.4651
vn -0.9367 -0.2632 0.2308
vn -0.9719 -0.1149 -0.2053
vn -0.9439 -0.3264 0.0504
vn -0.6371 -0.7658 0.0879
vn -0.5249 -0.8509 -0.0189
vn -0.9874 0.0587 -0.1473
vn -0.3874 -0.7590 0.5233
vn -0.8291 -0.3757 0.4141
vn -0.3830 -0.7695 0.5111
vn -0.8952 -0.1844 0.4058
vn -0.1727 0.9296 0.3255
vn 0.0364 -0.0535 -0.9979
vn 0.0054 -0.1454 -0.9894
vn -0.0305 -0.0677 -0.9972
vn -0.2605 -0.0629 -0.9634
vn -0.3157 -0.0709 -0.9462
vn -0.2547 -0.1895 -0.9483
vn -0.0345 -0.0635 -0.9974
vn -0.0306 -0.0520 -0.9982
vn 0.3254 -0.4270 -0.8437
vn 0.0444 -0.2816 -0.9585
vn 0.0181 -0.3588 -0.9333
vn 0.1290 -0.5311 -0.8374
vn 0.7856 -0.6181 -0.0270
vn 0.7621 -0.6474 -0.0061
vn 0.7099 -0.7043 -0.0035
vn 0.6508 -0.7587 -0.0274
vn -0.1652 -0.0405 0.9854
vn -0.2002 0.0089 0.9797
vn 0.1531 -0.0612 0.9863
vn 0.4224 0.0271 0.9060
vn 0.6522 0.3095 0.6920
vn 0.3086 0.5487 0.7769
vn -0.0405 -0.0175 0.9990
vn 0.5357 0.5808 0.6130
vn -0.0570 -0.0083 0.9983
vn -0.5121 0.5591 0.6520
vn 0.1288 0.1074 0.9858
vn -0.5090 0.5298 0.6784
vn -0.0044 -0.1058 0.9944
vn -0.0977 -0.0228 0.9950
vn 0.0274 0.1183 0.9926
vn -0.0072 0.0204 0.9998
vn 0.0292 0.0987 0.9947
vn -0.2443 -0.2114 0.9464
vn -0.5257 0.5218 0.6718
vn 0.3315 -0.0831 0.9398
vn 0.3390 -0.0708 0.9381
vn 0.3003 -0.0770 0.9507
vn -0.2913 0.3378 0.8950
vn -0.1568 0.3233 0.9332
vn 0.0039 -0.2507 0.9680
vn 0.0012 0.0271 0.9996
vn -0.0494 0.0350 0.9982
vn -0.3372 -0.0166 0.9413
vn 0.0637 -0.0186 0.9978
vn 0.2815 -0.0371 0.9589
vn -0.5095 0.4938 0.7047
vn -0.5274 0.4742 0.7050
vn -0.5467 0.4988 0.6726
vn 0.3022 0.0035 0.9532
vn 0.4755 0.0459 0.8785
vn -0.4104 0.6936 0.5920
vn -0.3998 -0.9166 -0.0030
vn -0.4943 -0.8692 0.0095
vn -0.1569 0.3236 0.9331
vn 0.2288 -0.1196 0.9661
vn 0.2929 -0.1115 0.9496
vn 0.3149 0.0419 0.9482
vn -0.7111 -0.0352 0.7022
vn -0.6945 0.0535 0.7175
vn -0.6007 -0.0460 0.7982
vn 0.1316 -0.2338 0.9633
vn 0.0625 -0.0176 0.9979
vn 0.0663 0.0363 0.9971
vn 0.0959 0.0553 0.9939
vn 0.1083 0.0117 0.9941
vn -0.2021 0.2489 0.9472
vn 0.3078 0.0012 0.9514
vn 0.1579 0.6483 0.7448
vn 0.2643 0.4905 0.8304
vn 0.2709 0.0408 0.9617
vn 0.8369 -0.2546 0.4846
vn 0.3595 -0.0882 0.9290
vn 0.1871 -0.0567 0.9807
vn -0.5508 0.1226 0.8255
vn 0.1213 -0.4349 0.8923
vn 0.2480 -0.0353 0.9681
vn 0.6442 0.5234 0.5577
vn 0.3318 -0.7216 0.6077
vn 0.4986 0.0769 0.8634
vn 0.1192 0.0133 0.9928
vn 0.4022 0.0424 0.9146
vn 0.2732 0.0057 0.9619
vn 0.2884 0.0905 0.9532
vn 0.3396 0.0455 0.9395
vn 0.2712 0.0907 0.9582
vn 0.2797 0.1046 0.9544
vn 0.3156 -0.4537 0.8334
vn -0.4857 0.4859 0.7266
vn -0.1344 0.4032 0.9052
vn 0.5342 -0.0599 0.8432
vn -0.4168 0.5074 0.7542
vn 0.0360 0.2123 0.9765
vn -0.5741 -0.0866 0.8142
vn 0.5421 0.1910 0.8183
vn 0.5168 0.4497 0.7285
vn 0.1370 -0.0293 0.9901
vn 0.2941 0.1253 0.9475
vn 0.4055 0.0001 0.9141
vn 0.3950 -0.0092 0.9186
vn -0.4773 0.5083 0.7168
vn -0.4136 0.4471 0.7931
vn 0.3871 -0.0712 0.9193
vn 0.8036 -0.5922 -0.0592
vn 0.8092 -0.5822 -0.0791
vn 0.8242 -0.5559 -0.1082
vn 0.8143 -0.5527 -0.1773
vn 0.8215 -0.5075 -0.2598
vn 0.8272 -0.5479 -0.1244
vn -0.2513 -0.1171 -0.9608
vn -0.2771 -0.0532 -0.9594
vn -0.7338 0.1069 -0.6709
vn -0.3959 -0.1230 -0.9100
vn -0.4023 -0.1153 -0.9082
vn -0.3415 -0.0232 -0.9396
vn -0.4002 -0.0449 -0.9153
vn -0.3034 0.0086 -0.9528
vn -0.6995 -0.0458 -0.7132
vn -0.3646 -0.0140 -0.9310
vn -0.3044 0.0094 -0.9525
vn -0.7533 -0.0390 -0.6566
vn 0.7108 -0.4659 0.5269
vn 0.9314 0.0191 -0.3636
vn 0.9120 0.0577 -0.4062
vn 0.8976 0.0858 -0.4325
vn -0.3580 -0.4905 0.7945
vn 0.9584 -0.0001 -0.2855
vn 0.9121 0.0571 -0.4060
vn 0.9296 0.0270 -0.3676
vn 0.8985 0.1106 -0.4248
vn 0.9138 0.0534 0.4026
vn 0.6397 0.0024 0.7686
vn 0.6010 0.0178 0.7991
vn -0.5973 -0.1045 0.7952
vn -0.5373 -0.0649 0.8409
vn -0.6010 -0.0609 0.7969
vn 0.5879 0.0655 0.8063
vn 0.3000 -0.0664 0.9516
vn 0.3186 -0.0403 0.9470
vn 0.3051 -0.0281 0.9519
vn 0.6142 0.0654 0.7864
vn 0.4664 -0.0561 0.8828
vn -0.4392 -0.1377 0.8878
vn -0.4958 -0.1603 0.8535
vn 0.6972 0.0491 0.7152
vn 0.4757 0.0004 0.8796
vn 0.2699 0.1327 0.9537
vn 0.5682 0.0982 0.8170
vn 0.6678 0.1815 0.7218
vn 0.9357 0.1811 -0.3029
vn 0.6475 -0.0636 0.7594
vn 0.8485 0.2127 -0.4847
vn 0.8354 0.2319 -0.4984
vn 0.7118 0.1466 0.6870
vn -0.4131 -0.1097 0.9040
vn 0.6411 -0.0017 0.7674
vn 0.8586 0.1668 -0.4848
vn -0.0502 0.0269 -0.9984
vn -0.8561 -0.1395 -0.4976
vn -0.8954 -0.1192 -0.4291
vn -0.4142 -0.1604 -0.8960
vn -0.4147 -0.1350 -0.8999
vn -0.3843 -0.1490 -0.9111
vn 0.8099 -0.4683 -0.3531
vn 0.8178 -0.4214 -0.3918
vn -0.5514 0.8109 -0.1960
vn -0.5487 0.8049 -0.2259
vn -0.9503 -0.2484 -0.1876
vn -0.9735 -0.2124 -0.0844
vn -0.9141 -0.2161 -0.3431
vn -0.8899 -0.2407 -0.3875
vn -0.0237 0.1701 0.9851
vn 0.4214 -0.0472 0.9056
vn 0.0028 0.7269 0.6868
vn 0.3218 0.0203 0.9466
vn 0.1648 0.1259 0.9783
vn 0.0710 -0.0731 0.9948
vn 0.5545 0.0092 0.8321
vn 0.5846 0.0024 0.8113
vn 0.8736 0.0591 -0.4831
vn -0.5840 -0.1125 0.8039
vn -0.5448 0.4750 0.6911
vn 0.5405 -0.0533 0.8396
vn 0.4327 -0.0396 0.9007
vn 0.3876 -0.0693 0.9192
vn -0.3439 -0.0240 -0.9387
vn -0.4390 -0.1367 -0.8880
vn 0.7861 0.1349 -0.6032
vn 0.7525 -0.3480 -0.5592
vn -0.7049 -0.1810 0.6858
vn 0.6827 -0.4695 0.5599
vn 0.9846 -0.0555 0.1658
vn 0.9907 -0.0609 0.1221
vn 0.9405 -0.0218 -0.3392
vn -0.5663 -0.0978 0.8184
vn -0.5956 -0.1036 0.7966
vn -0.0368 0.0086 0.9993
vn -0.5686 -0.0904 0.8176
vn -0.0576 -0.0840 0.9948
vn 0.4758 -0.3889 0.7889
vn -0.6120 0.0146 -0.7907
vn -0.5234 0.5411 -0.6582
vn -0.9446 -0.0454 0.3252
vn -0.9433 -0.2281 0.2413
vn -0.3982 -0.0392 -0.9165
vn -0.9418 -0.1658 0.2924
vn -0.2864 0.9578 0.0258
vn -0.6481 0.1575 0.7451
vn -0.2840 0.9585 0.0246
vn -0.2215 0.9751 0.0126
vn -0.7709 0.4426 0.4582
vn -0.9205 -0.2111 0.3288
vn -0.9141 -0.2207 0.3402
vn -0.8679 -0.2704 0.4168
vn -0.8880 -0.2627 0.3774
vn -0.9065 -0.2377 0.3489
vn -0.4857 -0.8091 -0.3308
vn -0.3821 -0.8525 -0.3566
vn -0.9258 -0.2138 0.3116
vn -0.4724 -0.5772 -0.6661
vn -0.4899 -0.5682 -0.6612
vn -0.9304 -0.1595 0.3301
vn -0.9576 -0.1548 0.2432
vn -0.6591 -0.7489 -0.0686
vn -0.9010 0.1538 0.4057
vn -0.9618 -0.1624 0.2203
vn -0.9564 -0.0444 0.2888
vn -0.1622 -0.9310 0.3269
vn -0.4103 -0.8937 0.1815
vn -0.2439 -0.9657 -0.0891
vn -0.8549 -0.0725 0.5138
vn -0.0145 -0.6629 0.7486
vn -0.5000 0.5247 0.6890
vn -0.5699 -0.0577 0.8197
vn -0.1639 -0.5733 0.8028
vn -0.8608 -0.0821 0.5023
vn -0.8733 -0.0812 0.4803
vn -0.9124 -0.1899 0.3626
vn -0.6586 -0.7467 -0.0933
vn -0.6791 -0.7293 -0.0832
vn -0.9292 -0.0537 0.3656
vn -0.8661 0.1689 0.4705
vn -0.8138 -0.5772 -0.0679
vn -0.7083 0.5112 0.4868
vn -0.9376 -0.0826 0.3378
vn -0.8696 0.0171 0.4934
vn -0.8142 0.1545 0.5596
vn -0.9019 -0.1653 0.3990
vn -0.5968 -0.7977 -0.0861
vn -0.8473 -0.0304 0.5303
vn -0.7021 -0.7094 -0.0616
vn -0.7045 -0.7080 -0.0494
vn -0.9086 -0.2436 0.3392
vn -0.5333 -0.1282 0.8362
vn -0.6788 0.6814 -0.2738
vn -0.5600 0.6148 -0.5553
vn -0.1025 0.9610 0.2570
vn -0.1820 0.9146 0.3612
vn -0.4642 0.6693 -0.5801
vn -0.4592 0.6620 -0.5924
vn -0.6691 0.7392 0.0766
vn -0.1591 0.9854 -0.0607
vn -0.6824 -0.1624 0.7127
vn -0.7081 -0.1674 0.6859
vn -0.7649 -0.1837 0.6174
vn -0.9761 -0.0171 0.2167
vn -0.7094 -0.4121 0.5717
vn -0.1884 -0.7649 0.6159
vn -0.9240 -0.1712 0.3420
vn -0.9462 -0.1283 0.2971
vn -0.9534 -0.0850 0.2895
vn -0.0773 0.9935 -0.0834
vn -0.2045 0.9527 0.2249
vn -0.9904 0.0525 0.1278
vn -0.6124 0.6657 -0.4265
vn -0.7303 0.6436 -0.2290
vn -0.8578 -0.1093 0.5022
vn 0.2165 0.7491 -0.6261
vn -0.2101 0.7066 -0.6756
vn 0.0222 0.7183 -0.6954
vn -0.8631 -0.1566 0.4801
vn -0.8189 -0.0266 0.5734
vn -0.6586 -0.7505 -0.0553
vn -0.6417 -0.7670 0.0008
vn -0.5472 -0.8359 -0.0423
vn -0.8603 -0.1396 0.4903
vn -0.7626 0.1531 0.6285
vn -0.3723 0.4793 0.7948
vn -0.8417 0.0161 0.5396
vn -0.7946 -0.0080 0.6071
vn -0.8036 -0.0122 0.5951
vn -0.7342 -0.1127 0.6696
vn -0.1951 0.5614 0.8042
vn -0.1644 0.5514 0.8179
vn -0.1519 0.5577 0.8160
vn -0.6723 -0.7019 0.2353
vn -0.6710 -0.7168 0.1897
vn -0.7348 -0.1595 0.6592
vn -0.7506 -0.1625 0.6404
vn -0.8122 -0.1347 0.5676
vn -0.7068 -0.6829 0.1845
vn -0.7094 -0.6744 0.2047
vn -0.7519 -0.6254 0.2087
vn -0.4912 0.5144 0.7029
vn -0.7014 -0.2861 0.6529
vn -0.6844 -0.2647 0.6793
vn -0.7279 -0.2772 0.6271
vn -0.9092 0.0971 0.4049
vn 0.3583 -0.2233 0.9065
vn -0.9310 0.1406 0.3368
vn -0.8166 -0.1349 0.5612
vn -0.7951 -0.3147 0.5184
vn -0.8080 -0.2888 0.5135
vn -0.8229 -0.2958 0.4851
vn -0.8378 -0.3889 0.3832
vn -0.8627 -0.4317 0.2634
vn -0.7891 -0.4928 0.3667
vn -0.5838 -0.8064 -0.0945
vn -0.4498 0.4363 0.7794
vn -0.4589 0.4166 0.7848
vn -0.7278 -0.1682 0.6649
vn -0.7941 -0.4912 0.3579
vn -0.5957 -0.8031 0.0152
vn -0.5642 -0.8251 0.0295
vn -0.5754 -0.8178 0.0097
vn -0.5959 -0.8029 0.0149
vn -0.7057 -0.2838 0.6492
vn -0.5670 -0.8232 0.0282
vn -0.1916 0.5367 0.8218
vn -0.6132 -0.1969 0.7650
vn -0.6179 -0.2795 0.7349
vn 0.1420 0.5999 0.7874
vn -0.0200 0.5998 0.7999
vn -0.5757 -0.8176 0.0110
vn 0.2163 0.5274 0.8216
vn -0.6531 -0.1087 0.7494
vn 0.3726 0.5051 0.7785
vn -0.1830 0.5579 0.8095
vn 0.2901 0.0288 0.9566
vn 0.4637 0.5448 0.6987
vn -0.3135 -0.3048 0.8993
vn 0.2381 0.5331 0.8119
vn -0.5655 -0.8230 0.0530
vn -0.4765 -0.8639 0.1634
vn -0.5305 -0.8472 0.0287
vn -0.5651 -0.4142 0.7135
vn -0.8606 -0.2358 0.4514
vn -0.5679 -0.2395 0.7875
vn -0.6926 -0.3125 0.6501
vn -0.1892 -0.7572 0.6252
vn -0.9401 0.0144 0.3405
vn 0.3315 -0.6645 0.6697
vn 0.2742 -0.6781 0.6819
vn -0.3824 -0.3592 0.8513
vn -0.4507 -0.3465 0.8227
vn -0.7019 -0.3017 0.6452
vn 0.0440 -0.7284 0.6837
vn -0.8589 -0.1166 0.4986
vn -0.7470 -0.1058 0.6563
vn 0.0561 -0.7067 0.7053
vn -0.0316 0.6122 -0.7901
vn 0.0362 0.5191 -0.8539
vn -0.1074 0.5236 -0.8452
vn -0.0037 0.5549 -0.8319
vn -0.6370 -0.1484 0.7564
vn -0.7596 -0.1833 0.6241
vn -0.6378 -0.1507 0.7553
vn -0.6590 -0.1512 0.7368
vn -0.5639 -0.2314 0.7928
vn -0.9767 -0.0074 0.2146
vn 0.3628 -0.6423 0.6752
vn -0.5887 -0.1990 0.7835
vn -0.2621 0.5059 -0.8218
vn -0.9812 0.1928 -0.0041
vn -0.3669 -0.3374 0.8670
vn -0.3692 -0.3310 0.8684
vn -0.3986 -0.3058 0.8646
vn 0.4109 -0.7124 0.5689
vn -0.9229 0.2946 0.2478
vn 0.0567 -0.8494 0.5247
vn -0.3743 -0.3393 0.8630
vn -0.3179 -0.2908 0.9024
vn -0.3718 -0.1163 0.9210
vn -0.0306 -0.0585 0.9978
vn -0.6664 -0.1358 0.7331
vn 0.1327 -0.0966 0.9864
vn 0.0643 -0.0292 0.9975
vn -0.4085 -0.0849 0.9088
vn -0.6081 -0.1559 0.7784
vn -0.1757 -0.0594 0.9826
vn 0.1794 -0.1246 0.9758
vn -0.4681 -0.2186 0.8562
vn -0.1255 -0.2186 0.9677
vn -0.1240 -0.3452 0.9303
vn -0.5080 -0.0280 0.8609
vn 0.0316 -0.4700 0.8821
vn -0.7798 0.5631 0.2737
vn -0.8615 0.5067 -0.0311
vn -0.2521 -0.1637 0.9537
vn -0.3203 -0.0645 0.9451
vn -0.3276 -0.0940 0.9401
vn -0.0417 0.2317 -0.9719
vn -0.5752 -0.0460 0.8167
vn -0.6688 -0.1437 0.7294
vn -0.5950 -0.1335 0.7926
vn -0.5846 -0.0990 0.8052
vn -0.1381 0.5000 -0.8549
vn -0.1393 0.4953 -0.8575
vn -0.7037 0.6154 -0.3550
vn -0.8270 0.5612 -0.0338
vn -0.8970 0.3484 0.2719
vn -0.6033 -0.1875 0.7751
vn -0.5978 -0.1190 0.7928
vn -0.4581 -0.1091 0.8822
vn -0.8281 0.5604 0.0131
vn -0.8161 0.3394 0.4677
vn -0.6536 0.1932 0.7318
vn -0.6625 0.0393 0.7480
vn -0.4550 -0.0468 0.8893
vn -0.7842 -0.2448 0.5702
vn -0.8001 -0.3502 0.4870
vn -0.6659 -0.7060 0.2411
vn -0.5376 -0.2369 0.8093
vn -0.5294 -0.2464 0.8118
vn -0.4152 -0.2752 0.8671
vn -0.7577 -0.6385 0.1348
vn -0.3943 -0.2919 0.8714
vn -0.5362 -0.3806 0.7534
vn 0.1866 -0.6951 0.6943
vn 0.2749 -0.6575 0.7015
vn -0.7667 -0.1948 0.6117
vn -0.7666 -0.1951 0.6117
vn -0.6539 -0.1181 0.7473
vn -0.5811 -0.1417 0.8014
vn -0.1931 0.5335 0.8235
vn -0.8558 -0.1709 0.4882
vn -0.8333 -0.1536 0.5310
vn -0.6999 0.2667 0.6626
vn -0.6103 -0.7897 0.0621
vn -0.7184 -0.1883 0.6697
vn -0.7140 -0.0235 0.6998
vn -0.4218 -0.9059 -0.0375
vn -0.6034 -0.7962 0.0436
vn -0.6876 -0.7057 0.1707
vn -0.7196 -0.5760 0.3879
vn 0.8498 -0.5236 0.0596
vn 0.9158 0.0892 0.3915
vn 0.9117 0.1733 0.3724
vn 0.7829 0.3547 0.5112
vn 0.7590 -0.6290 -0.1681
vn 0.9289 0.1648 0.3317
vn 0.9495 0.2056 0.2371
vn 0.9066 0.2658 0.3278
vn 0.7453 -0.6381 -0.1936
vn 0.7488 -0.6337 -0.1943
vn 0.9104 -0.3982 0.1125
vn 0.9739 0.0690 0.2164
vn 0.8946 0.4066 0.1856
vn 0.9905 0.0623 0.1226
vn 0.9566 -0.0253 -0.2904
vn 0.0654 0.7634 -0.6426
vn 0.1954 0.4188 -0.8868
vn 0.9736 0.1586 -0.1641
vn 0.1565 0.1882 -0.9696
vn -0.8327 -0.1829 0.5226
vn -0.5888 -0.0376 0.8074
vn -0.6328 -0.0895 0.7692
vn -0.0305 0.0786 0.9964
vn -0.6833 0.0903 0.7245
vn 0.1283 0.2320 0.9642
vn -0.5797 0.2146 0.7861
vn -0.7871 0.0961 0.6093
vn -0.7820 0.0966 0.6158
vn -0.8931 0.0018 0.4498
vn -0.7200 0.5060 0.4749
vn -0.8525 0.2611 0.4528
vn -0.8180 0.5736 0.0424
vn -0.8090 0.5869 0.0329
vn -0.4405 -0.0884 0.8934
vn -0.3729 -0.0465 0.9267
vn -0.5718 0.2496 0.7815
vn -0.0088 -0.6809 0.7323
vn 0.1538 0.8612 0.4844
vn 0.5422 -0.6233 0.5635
vn -0.3896 0.4929 0.7780
vn -0.3634 0.2594 0.8948
vn -0.3415 0.2502 0.9060
vn -0.4542 -0.8267 0.3321
vn 0.5458 0.6080 0.5765
vn 0.5961 0.3567 0.7193
vn -0.1637 -0.4973 0.8520
vn -0.6060 -0.0386 0.7945
vn 0.3595 -0.1647 0.9185
vn 0.5904 -0.1339 0.7959
vn 0.5421 -0.1526 0.8264
vn 0.8331 0.0551 0.5504
vn 0.5349 -0.1671 0.8282
vn 0.5229 -0.3790 0.7636
vn 0.7608 -0.1463 0.6323
vn 0.8216 -0.1196 0.5574
vn 0.6826 -0.0806 0.7263
vn 0.4219 -0.2824 0.8615
vn -0.6529 -0.2721 0.7069
vn -0.5757 -0.2062 0.7913
vn -0.5242 0.2026 0.8271
vn -0.5287 0.1611 0.8334
vn -0.5364 0.1580 0.8290
vn -0.3077 0.4245 0.8516
vn -0.6124 -0.4676 0.6374
vn -0.2267 -0.9736 0.0264
vn -0.1351 -0.9887 0.0657
vn -0.5280 -0.2097 0.8229
vn -0.4618 -0.1133 0.8797
vn -0.3326 0.2118 0.9190
vn -0.3797 -0.9245 0.0349
vn -0.4714 -0.8781 0.0818
vn -0.3936 -0.9184 0.0393
vn -0.4077 -0.9033 0.1334
vn -0.5924 -0.7148 0.3716
vn -0.3919 -0.9200 -0.0079
vn -0.5694 -0.1626 0.8058
vn -0.4257 -0.0642 0.9026
vn -0.3252 -0.1653 0.9311
vn -0.3212 -0.9362 0.1429
vn -0.1866 -0.9758 0.1137
vn 0.4840 -0.7112 -0.5098
vn 0.3842 -0.4105 0.8270
vn 0.7126 -0.6882 0.1364
vn -0.2387 -0.6123 0.7537
vn 0.5982 -0.3256 0.7322
vn 0.7160 -0.6394 -0.2804
vn 0.8081 -0.5855 -0.0651
vn 0.6350 -0.1738 0.7527
vn 0.6514 -0.2228 0.7252
vn -0.2211 0.4560 0.8621
vn -0.3883 0.3729 0.8427
vn -0.2443 0.3884 0.8885
vn 0.6673 -0.0777 0.7408
vn 0.5767 -0.1776 0.7974
vn 0.5681 -0.0986 0.8170
vn -0.3314 -0.2412 0.9121
vn -0.3865 -0.2337 0.8922
vn -0.4066 -0.2422 0.8809
vn -0.5876 -0.2355 0.7741
vn -0.6744 -0.6933 0.2541
vn -0.7965 -0.3465 0.4956
vn -0.7377 -0.5041 0.4490
vn -0.7385 -0.5390 0.4051
vn -0.4336 -0.1537 0.8879
vn -0.8315 -0.4446 -0.3332
vn -0.7197 -0.4311 0.5443
vn -0.7833 -0.4739 0.4024
vn -0.6102 -0.1484 0.7782
vn -0.6612 -0.2311 0.7137
vn -0.6886 -0.3566 0.6315
vn -0.4315 -0.1130 0.8950
vn -0.6170 -0.2507 0.7459
vn -0.5274 -0.0896 0.8449
vn -0.2438 -0.1572 0.9570
vn -0.7136 -0.3908 0.5814
vn -0.7259 -0.3723 0.5784
vn -0.4312 -0.0851 0.8982
vn -0.1229 -0.1253 0.9845
vn 0.3768 0.0674 0.9238
vn -0.0801 0.2702 0.9595
vn 0.6364 0.3359 0.6944
vn 0.6587 0.3418 0.6703
vn 0.5884 0.0753 0.8051
vn 0.0452 -0.3863 0.9213
vn -0.3707 -0.5351 0.7591
vn 0.5705 -0.3515 0.7423
vn 0.6627 0.0067 0.7489
vn 0.6627 0.0064 0.7488
vn 0.7584 0.3161 0.5700
vn 0.4651 -0.0755 0.8820
vn 0.4872 -0.1023 0.8673
vn 0.4077 -0.0880 0.9088
vn 0.6852 0.7230 0.0881
vn 0.7001 0.7129 -0.0416
vn 0.3157 0.6335 -0.7063
vn 0.3277 0.6820 -0.6539
vn 0.4252 -0.1307 0.8956
vn -0.5092 0.8382 0.1951
vn 0.0005 0.8824 0.4705
vn 0.5784 0.7803 0.2377
vn 0.6732 0.6924 0.2596
vn 0.7308 0.6824 0.0128
vn 0.4178 0.6562 -0.6284
vn 0.0818 -0.6704 0.7375
vn -0.2550 -0.9277 0.2726
vn 0.5705 -0.2528 0.7814
vn 0.5559 -0.3415 0.7579
vn 0.1348 -0.7059 0.6953
vn 0.5298 -0.1892 0.8268
vn -0.1225 -0.7690 0.6274
vn 0.5859 0.0939 0.8049
vn 0.6795 0.7337 -0.0051
vn 0.2739 0.7120 -0.6465
vn 0.0778 0.7384 -0.6699
vn 0.6356 0.7226 -0.2720
vn 0.6975 -0.0267 0.7161
vn -0.1612 -0.7339 0.6599
vn 0.7516 0.0179 0.6593
vn 0.6000 0.6607 0.4511
vn 0.6325 -0.0887 0.7695
vn 0.6720 0.5433 -0.5033
vn 0.8733 0.1162 0.4732
vn 0.1782 0.7344 -0.6549
vn 0.2339 0.7691 -0.5948
vn 0.6227 0.7402 -0.2535
vn 0.6644 0.7081 -0.2393
vn 0.5945 -0.0138 0.8040
vn 0.7334 -0.0441 0.6784
vn 0.8315 0.2206 0.5099
vn 0.8481 0.1241 0.5151
vn 0.5990 -0.4622 0.6539
vn 0.6257 -0.4268 0.6530
vn -0.2905 -0.5876 0.7552
vn -0.3711 -0.5375 0.7573
vn -0.4501 -0.5439 0.7082
vn 0.5395 0.0687 0.8392
vn 0.6015 0.0188 0.7987
vn 0.7425 0.0177 0.6696
vn 0.6252 0.2424 0.7419
vn 0.7408 0.0196 0.6714
vn 0.5526 0.3938 0.7345
vn 0.5557 -0.8195 -0.1399
vn 0.6755 -0.7341 -0.0691
vn 0.5689 -0.8007 -0.1878
vn 0.8089 -0.5638 0.1668
vn 0.8534 -0.2863 0.4355
vn 0.8729 -0.2211 0.4349
vn 0.7924 0.2085 0.5733
vn 0.8840 0.0338 0.4663
vn 0.8889 -0.2554 0.3804
vn 0.6262 -0.7615 -0.1673
vn 0.8973 -0.2065 0.3901
vn 0.6939 -0.7199 0.0143
vn 0.6329 0.0361 0.7734
vn 0.7148 0.0504 0.6975
vn 0.7144 0.0256 0.6993
vn 0.8484 -0.5289 0.0208
vn 0.9082 -0.0832 0.4101
vn 0.0770 -0.4676 0.8806
vn 0.4397 -0.0707 0.8954
vn 0.9007 -0.1518 0.4070
vn 0.9183 -0.0627 0.3910
vn 0.8858 0.0824 0.4566
vn 0.2636 -0.6625 0.7011
vn 0.3909 -0.5685 0.7238
vn 0.9209 -0.1056 0.3752
vn 0.8372 -0.5063 0.2068
vn -0.0145 -0.9992 0.0369
vn 0.7473 -0.6488 -0.1436
vn 0.7755 -0.6191 -0.1235
vn 0.8114 0.1347 0.5688
vn 0.8570 0.0911 0.5072
vn 0.9223 0.1331 0.3629
vn 0.8320 0.2945 0.4702
vn 0.9732 -0.0477 0.2249
vn 0.7829 0.3929 0.4824
vn 0.7160 -0.6847 -0.1362
vn 0.9772 -0.0311 0.2100
vn 0.9400 0.0262 0.3403
vn 0.1330 0.0711 0.9886
vn 0.8951 0.0266 0.4450
vn 0.8879 0.4181 0.1921
vn 0.8139 -0.1673 0.5564
vn 0.8428 -0.1485 0.5174
vn 0.7431 -0.0927 0.6628
vn 0.8598 0.3342 0.3862
vn -0.5013 -0.3496 0.7915
vn -0.5903 -0.4985 0.6349
vn 0.1512 -0.9270 0.3432
vn -0.7245 0.0331 0.6885
vn -0.8945 0.2243 0.3867
vn -0.7644 -0.3660 -0.5308
vn -0.9753 0.0040 0.2209
vn -0.7204 -0.4075 -0.5612
vn -0.3008 -0.3764 -0.8763
vn -0.9631 0.0912 0.2533
vn -0.9603 -0.0347 0.2769
vn -0.6225 -0.5171 0.5874
vn 0.1870 -0.8693 0.4577
vn -0.9749 0.1446 0.1695
vn -0.9760 0.1380 0.1687
vn -0.8983 0.1609 0.4088
vn -0.9021 0.1972 0.3838
vn -0.9296 0.1215 0.3480
vn -0.9179 0.1234 0.3772
vn -0.9825 0.0491 0.1796
vn -0.9514 0.0289 0.3066
vn -0.6534 -0.5558 -0.5139
vn -0.7586 -0.6113 -0.2256
vn -0.8741 0.3886 -0.2913
vn -0.9178 0.0974 0.3849
vn -0.6823 -0.7009 -0.2079
vn -0.9909 0.1214 0.0577
vn -0.4035 -0.5770 -0.7101
vn -0.0420 -0.9938 -0.1028
vn -0.0105 -0.9999 -0.0090
vn 0.0367 -0.9973 -0.0634
vn -0.0535 -0.9979 0.0360
vn -0.0111 -0.9999 0.0018
vn 0.0010 -1.0000 -0.0028
vn -0.0133 -0.9996 -0.0230
vn -0.8763 0.4338 0.2093
vn -0.6419 -0.4165 0.6438
vn 0.2545 -0.8480 0.4649
vn -0.8679 0.0762 0.4909
vn -0.8389 0.1501 0.5233
vn -0.8411 0.2220 0.4931
vn -0.8487 0.3002 0.4354
vn -0.6024 0.0459 0.7969
vn -0.3663 0.5608 0.7425
vn -0.8410 0.2839 0.4605
vn -0.3231 0.2274 0.9186
vn -0.7336 0.0478 0.6779
vn -0.6127 0.0139 0.7902
vn 0.4967 0.2271 0.8377
vn -0.3477 0.1601 0.9238
vn -0.2592 0.1496 0.9542
vn -0.7378 0.4165 0.5312
vn -0.7103 0.4760 0.5186
vn -0.1509 -0.4316 0.8894
vn -0.1620 -0.4125 0.8964
vn 0.6215 -0.7020 0.3479
vn -0.0573 -0.4081 0.9111
vn -0.0671 -0.3515 0.9338
vn 0.5422 -0.7803 0.3119
vn 0.4484 -0.2027 0.8705
vn 0.3995 0.4598 0.7931
vn 0.5689 -0.5097 0.6454
vn -0.5355 0.5920 0.6023
vn -0.9634 0.2526 -0.0894
vn -0.8484 -0.4792 -0.2252
vn -0.9613 0.2716 -0.0472
vn -0.9184 0.1739 0.3553
vn -0.9530 0.1843 0.2404
vn 0.4100 -0.6463 0.6436
vn 0.3737 -0.5996 0.7077
vn 0.4022 -0.5855 0.7039
vn -0.1820 -0.4195 0.8893
vn -0.1785 -0.4099 0.8945
vn -0.1766 -0.4260 0.8873
vn 0.4116 -0.4718 0.7797
vn -0.8886 0.2584 0.3789
vn -0.7990 0.1985 0.5676
vn -0.7118 0.4844 0.5087
vn 0.5660 -0.5880 0.5778
vn -0.7444 0.3186 0.5868
vn -0.7280 0.4878 0.4817
vn -0.4655 0.4866 0.7393
vn -0.4840 0.4855 0.7280
vn -0.2273 0.8399 0.4929
vn -0.5841 0.6916 0.4250
vn -0.6045 0.6222 0.4974
vn -0.8641 0.3991 0.3067
vn -0.6689 0.6713 0.3194
vn -0.4064 -0.2026 0.8910
vn -0.8480 0.3504 0.3976
vn -0.8764 0.3280 0.3525
vn -0.1513 -0.2733 0.9500
vn -0.1852 -0.2208 0.9576
vn -0.0653 -0.1961 0.9784
vn -0.8719 0.4501 0.1928
vn -0.8920 0.4022 0.2062
vn -0.7249 0.6096 0.3208
vn -0.5907 0.6925 -0.4142
vn -0.6815 0.6358 -0.3624
vn -0.8409 -0.3326 0.4268
vn -0.5995 -0.7129 0.3638
vn -0.5015 -0.7937 0.3444
vn -0.9457 0.0613 0.3193
vn -0.8896 -0.2951 0.3486
vn -0.7473 0.3017 0.5921
vn -0.6776 0.6120 -0.4078
vn -0.7316 -0.3930 0.5571
vn -0.8005 0.4885 -0.3472
vn -0.9960 0.0407 0.0792
vn -0.4873 -0.5206 0.7011
vn -0.8003 -0.4705 0.3717
vn -0.7390 -0.5123 0.4376
vn 0.1126 -0.2427 0.9635
vn 0.3231 -0.2182 0.9209
vn 0.4194 -0.2691 0.8670
vn 0.0787 -0.2590 0.9627
vn 0.5834 0.6841 0.4378
vn -0.8690 0.2724 0.4132
vn -0.4131 0.4554 -0.7886
vn -0.2489 0.1941 0.9489
vn -0.8762 0.0861 0.4742
vn -0.9651 0.2611 0.0227
vn -0.9158 0.1738 0.3620
vn -0.5180 -0.5865 0.6226
vn -0.7674 -0.4095 0.4933
vn 0.5394 -0.6049 0.5858
vn -0.9709 0.1660 0.1727
vn -0.9666 0.1951 0.1664
vn -0.9246 0.1257 0.3596
vn -0.8497 0.1437 0.5074
vn -0.8461 0.1418 0.5138
vn -0.7756 0.1651 0.6093
vn -0.8102 0.1252 0.5726
vn -0.7448 0.4195 0.5189
vn -0.6499 0.3546 0.6723
vn -0.7016 0.5455 0.4585
vn -0.6879 0.5448 0.4796
vn -0.7271 0.3355 0.5990
vn -0.6359 0.3255 0.6997
vn -0.0066 -0.9996 0.0285
vn -0.0063 -0.9996 0.0266
vn -0.0441 -0.9989 -0.0146
vn -0.1667 -0.4738 0.8647
vn 0.0053 -1.0000 -0.0016
vn 0.9133 0.1177 0.3898
vn 0.8488 0.1885 0.4940
vn 0.8843 0.1149 0.4526
vn 0.7876 0.3065 0.5345
vn 0.7597 0.3572 0.5434
vn 0.7026 0.4838 0.5219
vn 0.6851 0.5471 0.4809
vn 0.9228 0.1237 0.3649
vn 0.8448 0.4199 0.3316
vn 0.7039 0.5792 0.4111
vn 0.6563 0.6010 0.4561
vn 0.6611 0.6378 0.3951
vn -0.2377 0.8047 0.5441
vn -0.4224 0.6955 0.5812
vn -0.9847 -0.1004 -0.1424
vn -0.8445 0.4515 0.2882
vn -0.7272 0.4085 -0.5516
vn -0.8437 -0.3332 0.4209
vn -0.7547 -0.0070 0.6560
vn -0.9194 0.1090 0.3779
vn -0.1331 -0.9911 -0.0097
vn 0.8962 -0.0475 -0.4412
vn 0.9333 -0.0442 -0.3563
vn 0.9553 -0.0862 -0.2827
vn 0.9303 0.0102 -0.3666
vn 0.0555 -0.9984 -0.0077
vn 0.0005 -1.0000 -0.0004
vn -0.6173 0.1346 -0.7751
vn -0.9055 0.0359 0.4228
vn -0.9807 -0.0104 0.1951
vn -0.9988 0.0324 -0.0355
vn -0.8012 -0.5929 0.0807
vn -0.3266 -0.0595 0.9433
vn -0.2652 -0.0999 0.9590
vn -0.0599 0.0006 0.9982
vn 0.0717 -0.2865 0.9554
vn 0.4012 -0.0790 0.9126
vn 0.2707 0.3889 0.8806
vn 0.6807 0.1159 0.7233
vn -0.3263 0.0022 0.9453
vn -0.5599 0.5774 0.5942
vn -0.5518 0.7599 -0.3437
vn -0.5660 0.7592 -0.3214
vn 0.4116 0.7747 0.4801
vn -0.1679 0.8616 0.4791
vn 0.4725 0.2852 0.8339
vn 0.6342 0.1122 0.7650
vn 0.7226 0.1576 0.6731
vn 0.3689 0.8474 -0.3819
vn 0.1497 0.8950 -0.4202
vn 0.3660 0.8935 -0.2602
vn 0.0773 0.2296 0.9702
vn -0.1567 0.4011 0.9025
vn -0.7761 0.5225 0.3531
vn -0.0705 -0.2603 0.9630
vn -0.6203 0.6652 0.4157
vn -0.5238 0.6886 0.5014
vn 0.0815 -0.2770 0.9574
vn -0.5691 0.7585 -0.3176
vn -0.4187 0.9073 -0.0377
vn -0.3558 0.9159 -0.1860
vn -0.2207 0.5014 0.8366
vn -0.2177 0.8263 0.5195
vn 0.1401 -0.2041 0.9689
vn -0.2940 0.8253 0.4821
vn 0.5969 0.7452 0.2972
vn 0.4743 0.8322 0.2871
vn 0.2796 -0.2013 0.9388
vn 0.7078 0.6290 0.3216
vn 0.7331 0.6670 0.1332
vn 0.7833 0.0951 0.6143
vn 0.7793 0.1435 0.6099
vn 0.3671 0.8572 -0.3612
vn 0.3931 0.8497 -0.3515
vn 0.7700 0.6223 0.1411
vn 0.7240 0.6556 0.2144
vn 0.8338 0.0916 0.5444
vn 0.7993 0.5922 0.1016
vn 0.4328 -0.2298 0.8717
vn 0.0194 0.4831 0.8754
vn 0.0210 0.5215 0.8530
vn 0.3874 0.0202 0.9217
vn 0.0199 0.4689 0.8830
vn 0.0169 0.4829 0.8755
vn 0.5143 0.1843 0.8376
vn 0.5308 -0.1561 0.8330
vn 0.2304 0.5425 0.8078
vn 0.0980 0.5351 0.8391
vn 0.7663 -0.2062 0.6085
vn 0.1155 0.5048 0.8555
vn 0.5761 -0.1610 0.8013
vn 0.8535 -0.3465 0.3892
vn -0.5961 0.2037 0.7766
vn -0.5963 0.3005 0.7444
vn -0.6654 0.7204 0.1956
vn -0.1923 0.2436 0.9506
vn -0.4326 0.6839 0.5876
vn -0.9387 0.2803 0.2008
vn -0.0964 -0.1746 0.9799
vn 0.0181 -0.1854 0.9825
vn 0.3435 -0.1322 0.9298
vn 0.9163 -0.3409 0.2104
vn 0.5461 -0.1208 0.8290
vn 0.9644 -0.1954 0.1780
vn 0.8734 -0.2752 0.4019
vn 0.8668 -0.3803 0.3224
vn -0.1641 -0.8564 0.4896
vn 0.6302 -0.1028 0.7696
vn 0.5385 -0.1599 0.8274
vn 0.5417 -0.1120 0.8331
vn 0.5785 -0.1109 0.8081
vn 0.5043 0.0361 0.8628
vn -0.2384 -0.8063 0.5413
vn -0.0293 -0.1121 0.9933
vn -0.4372 0.0480 0.8981
vn -0.0944 0.0056 0.9955
vn 0.3649 0.1906 0.9113
vn 0.9193 0.1243 0.3734
vn 0.8200 0.1117 0.5613
vn -0.3015 0.1424 0.9428
vn 0.7330 0.1768 0.6568
vn 0.4781 0.0471 0.8770
vn -0.5407 0.6119 0.5773
vn -0.4301 0.6535 0.6229
vn 0.0154 -0.3095 0.9508
vn 0.2416 -0.2686 0.9325
vn -0.3543 0.7130 0.6050
vn 0.4181 0.7304 0.5400
vn 0.6926 0.3846 0.6102
vn 0.4531 0.7348 0.5048
vn 0.3503 -0.3364 0.8741
vn -0.5079 -0.8246 0.2490
vn -0.3890 -0.8684 0.3076
vn 0.5041 -0.8194 0.2729
vn -0.0868 0.9400 0.3300
vn -0.1073 -0.2604 0.9595
vn -0.0914 0.9394 0.3305
vn 0.4077 0.7625 0.5023
vn -0.1992 0.4687 0.8606
vn 0.1037 0.6905 0.7159
vn 0.4168 0.6369 0.6485
vn -0.0351 0.9791 0.2003
vn 0.2983 -0.2321 0.9258
vn 0.5075 0.8236 0.2530
vn 0.5893 0.8066 -0.0466
vn 0.2143 0.6738 0.7071
vn 0.6547 0.4968 0.5697
vn 0.6742 0.4744 0.5660
vn 0.8245 0.4433 0.3517
vn 0.6825 0.7307 0.0166
vn -0.2648 -0.6434 0.7183
vn 0.4234 -0.4387 0.7926
vn -0.2676 -0.5968 0.7565
vn 0.3691 -0.4254 0.8263
vn 0.3473 -0.4624 0.8158
vn 0.8581 0.4711 0.2044
vn 0.8436 0.4653 0.2680
vn 0.7316 0.5844 0.3511
vn 0.7082 0.6133 0.3499
vn 0.7500 0.2501 0.6123
vn 0.5770 0.2652 0.7725
vn 0.8360 0.1719 0.5210
vn 0.7696 -0.0228 0.6381
vn 0.7533 -0.0190 0.6574
vn 0.8136 -0.0504 0.5792
vn 0.9138 -0.2189 0.3420
vn 0.3854 0.1067 0.9166
vn 0.8787 -0.1983 0.4343
vn 0.6935 -0.0650 0.7175
vn 0.5277 0.1016 0.8433
vn 0.8555 -0.0858 0.5107
vn 0.6512 0.1967 0.7330
vn 0.9320 -0.3358 0.1363
vn 0.6667 0.1691 0.7259
vn 0.8484 0.0178 0.5290
vn 0.7493 -0.0215 0.6619
vn 0.8717 -0.4850 0.0706
vn 0.8731 -0.4864 0.0338
vn 0.8757 -0.4796 0.0555
vn 0.9125 -0.2413 0.3303
vn 0.4701 0.1677 0.8666
vn 0.9224 -0.3438 0.1760
vn 0.6507 -0.1117 0.7511
vn 0.8914 -0.4507 0.0482
vn 0.8073 -0.0803 0.5847
vn -0.1575 0.4752 0.8657
vn -0.1676 0.5181 0.8388
vn 0.7709 -0.2165 0.5991
vn 0.8036 0.0218 0.5948
vn 0.6886 -0.7071 -0.1608
vn 0.8574 -0.3105 0.4104
vn 0.7382 -0.0464 0.6730
vn 0.6835 -0.7066 -0.1831
vn -0.0751 0.5646 0.8219
vn 0.0584 0.3581 0.9319
vn 0.2213 0.5567 0.8007
vn 0.8950 -0.2331 0.3803
vn 0.9161 -0.3653 0.1651
vn 0.7118 -0.6683 -0.2163
vn 0.7386 -0.6538 -0.1643
vn 0.7036 -0.6763 -0.2178
vn 0.8169 0.0555 0.5741
vn 0.1344 0.5884 0.7973
vn 0.2822 0.5983 0.7500
vn 0.2988 0.5251 0.7968
vn 0.3827 0.5591 0.7355
vn 0.7575 -0.6423 -0.1164
vn 0.4034 0.6232 0.6700
vn 0.5063 0.4539 0.7332
vn -0.6898 -0.0664 0.7210
vn 0.7853 -0.5878 0.1946
vn 0.7858 -0.3514 0.5090
vn 0.2934 0.5088 0.8094
vn 0.0060 -0.9999 0.0102
vn 0.9122 -0.0733 -0.4031
vn 0.9183 -0.0692 -0.3899
vn 0.8366 0.0058 -0.5478
vn 0.9969 -0.0222 -0.0757
vn 0.8909 0.2515 -0.3783
vn 0.8045 -0.4460 0.3922
vn 0.9202 -0.2180 0.3250
vn 0.9576 0.2186 -0.1876
vn 0.9134 0.4053 -0.0375
vn 0.8802 0.4368 0.1854
vn 0.8853 0.4142 0.2115
vn 0.8391 0.5150 0.1751
vn 0.8344 -0.0079 0.5511
vn 0.4057 0.8317 -0.3789
vn 0.6775 -0.1678 0.7161
vn 0.8023 0.5883 0.1015
vn 0.4252 0.8253 -0.3716
vn 0.8269 0.5602 -0.0482
vn 0.7721 -0.1893 0.6067
vn 0.5455 0.7165 -0.4348
vn 0.4795 0.7502 -0.4553
vn 0.9057 -0.1129 0.4086
vn 0.8858 0.4600 -0.0617
vn 0.7023 -0.6001 0.3830
vn 0.8949 -0.1447 0.4222
vn 0.7772 -0.1587 0.6089
vn 0.1167 0.7322 0.6711
vn 0.9413 0.3292 0.0754
vn 0.9673 0.2483 0.0510
vn 0.8792 0.4754 0.0318
vn 0.8016 0.5832 -0.1313
vn 0.7859 0.5921 -0.1785
vn 0.8621 0.4266 0.2736
vn 0.6483 -0.0617 0.7589
vn 0.6395 -0.1218 0.7591
vn 0.4764 -0.3241 0.8173
vn 0.7253 0.6768 -0.1260
vn 0.9152 0.3822 0.1274
vn 0.2483 -0.5099 0.8236
vn 0.0200 -0.6487 0.7607
vn 0.3115 -0.4447 0.8398
vn 0.3609 -0.6843 0.6336
vn 0.9557 0.1460 0.2555
vn 0.8528 0.4441 0.2748
vn 0.8576 0.4555 0.2386
vn 0.4627 -0.3647 0.8080
vn 0.5498 0.3347 0.7653
vn 0.1468 -0.6782 0.7201
vn 0.7632 -0.2840 0.5803
vn 0.8338 -0.2603 0.4868
vn 0.8321 0.0479 0.5525
vn 0.9263 -0.1282 0.3542
vn 0.5811 -0.0715 0.8107
vn 0.7989 -0.0367 0.6003
vn 0.8536 -0.0298 0.5200
vn 0.9246 -0.1347 0.3564
vn 0.9301 0.3312 0.1588
vn 0.9425 0.0102 0.3340
vn 0.9956 -0.0713 0.0610
vn 0.9307 0.2641 -0.2533
vn 0.8815 0.4190 -0.2179
vn 0.9317 0.3620 -0.0308
vn 0.9484 -0.1509 0.2790
vn 0.9111 -0.2210 0.3479
vn 0.9678 -0.0125 -0.2515
vn 0.2599 0.9273 -0.2693
vn 0.7187 -0.6860 0.1132
vn 0.9585 -0.1998 0.2035
vn 0.9966 -0.0493 0.0658
vn 0.3691 -0.7240 0.5827
vn 0.5366 -0.6816 0.4974
vn 0.7392 -0.6471 0.1865
vn 0.5264 -0.7332 0.4305
vn 0.2977 0.8859 -0.3558
vn 0.2060 0.8903 0.4061
vn 0.9355 0.1295 0.3287
vn -0.9433 -0.2410 -0.2285
vn 0.3703 -0.7220 0.5845
vn 0.8797 0.0064 0.4754
vn 0.1215 -0.2294 0.9657
vn 0.1352 -0.2519 0.9583
vn 0.9848 -0.0651 -0.1608
vn 0.9870 -0.0513 0.1521
vn 0.9995 0.0085 -0.0305
vn 0.9565 -0.0187 -0.2911
vn 0.9725 -0.0031 -0.2328
vn 0.6175 -0.7849 0.0505
vn 0.9729 -0.0171 0.2308
vn -0.6955 -0.7182 -0.0201
vn -0.8424 -0.5311 0.0911
vn -0.7036 -0.7054 0.0858
vn 0.9638 -0.0106 0.2665
vn 0.8874 -0.0166 0.4607
vn -0.1023 -0.9246 0.3669
vn -0.6622 -0.7217 0.2016
vn -0.8833 -0.2922 -0.3666
vn -0.8202 -0.5132 -0.2526
vn -0.9151 -0.3175 -0.2487
vn -0.8841 -0.4644 0.0521
vn -0.2725 -0.9448 -0.1822
vn -0.0084 -0.9998 0.0178
vn 0.2286 0.7923 -0.5657
vn 0.8609 -0.0059 0.5087
vn 0.9338 0.1444 0.3274
vn 0.1869 0.8066 -0.5608
vn 0.8079 -0.0375 0.5882
vn 0.8967 -0.0768 0.4359
vn -0.7174 -0.6888 0.1043
vn -0.3288 -0.8541 0.4031
vn -0.7998 -0.4326 -0.4162
vn -0.8434 -0.3891 -0.3704
vn -0.4313 -0.7668 0.4753
vn 0.5690 -0.0493 0.8208
vn 0.4542 0.7548 -0.4733
vn 0.6955 0.7006 -0.1596
vn 0.6687 0.7010 -0.2480
vn 0.7220 -0.0642 0.6889
vn 0.7889 -0.2554 0.5589
vn 0.9051 0.1573 0.3951
vn 0.9852 0.1699 0.0220
vn 0.9420 0.1136 0.3159
vn 0.1276 0.9346 0.3322
vn 0.1311 0.9343 0.3314
vn 0.5360 0.7148 -0.4492
vn 0.3436 0.6025 -0.7203
vn 0.8399 0.4483 -0.3059
vn 0.8527 0.4990 -0.1547
vn 0.3924 0.3432 -0.8534
vn 0.1954 0.5542 0.8091
vn 0.9702 -0.0410 0.2387
vn 0.9704 -0.0319 0.2394
vn 0.5453 0.6711 0.5023
vn 0.7667 -0.0950 0.6349
vn 0.9330 0.2543 0.2546
vn 0.9941 -0.0842 0.0680
vn 0.9848 -0.0698 0.1591
vn 0.4812 0.6331 0.6064
vn -0.4439 -0.8202 0.3609
vn 0.5376 -0.3466 0.7687
vn -0.4201 -0.8357 0.3538
vn 0.2444 -0.7129 0.6573
vn -0.4579 -0.8505 0.2587
vn -0.4830 -0.8327 0.2708
vn 0.3990 -0.7221 0.5651
vn 0.8368 -0.1985 0.5103
vn 0.8587 -0.1859 0.4775
vn 0.8462 -0.2502 0.4704
vn 0.8010 0.5927 0.0848
vn 0.3169 -0.7854 0.5317
vn -0.4365 -0.8375 -0.3288
vn -0.4574 -0.8508 -0.2587
vn 0.3841 -0.8166 -0.4309
vn 0.4014 -0.8027 -0.4411
vn -0.4462 -0.8622 -0.2398
vn 0.8976 0.3565 0.2592
vn 0.6652 0.6939 -0.2755
vn 0.9559 0.2908 0.0406
vn 0.6982 0.5400 0.4701
vn 0.3746 -0.7696 -0.5171
vn 0.9913 -0.0355 0.1266
vn 0.5922 -0.2292 -0.7725
vn 0.5097 -0.6711 -0.5384
vn 0.2626 -0.5368 -0.8018
vn 0.9794 -0.0636 0.1917
vn 0.9823 -0.0682 0.1743
vn 0.9974 -0.0595 0.0403
vn 0.7512 0.6408 -0.1586
vn 0.8950 0.3366 0.2928
vn 0.9086 0.3315 0.2542
vn 0.8943 0.1127 0.4331
vn 0.6181 0.2437 0.7474
vn 0.3997 0.5708 0.7173
vn -0.2019 -0.6645 0.7195
vn 0.4776 -0.4432 0.7586
vn 0.4111 -0.4642 0.7846
vn 0.8367 0.5410 -0.0848
vn 0.2933 0.8576 0.4224
vn 0.8445 -0.2504 -0.4734
vn 0.8173 0.0627 -0.5728
vn 0.8321 0.0930 -0.5467
vn 0.9602 -0.1490 0.2361
vn 0.7981 0.3356 -0.5004
vn 0.5923 0.4291 -0.6819
vn 0.8907 0.3824 -0.2460
vn 0.9513 0.3068 0.0311
vn 0.5316 0.6443 -0.5497
vn 0.9229 0.3801 -0.0612
vn 0.9769 0.2044 0.0624
vn 0.9221 0.3122 0.2287
vn 0.9416 0.2605 0.2135
vn 0.8391 0.4614 0.2881
vn 0.5596 -0.3962 0.7279
vn 0.7452 -0.2353 0.6239
vn 0.8540 0.4617 0.2400
vn 0.8471 0.5282 0.0589
vn 0.8518 0.5232 0.0261
vn 0.7307 0.3934 -0.5580
vn 0.2417 -0.9702 0.0146
vn 0.3541 0.3851 0.8522
vn 0.8795 0.2195 0.4222
vn 0.9828 0.1842 0.0109
vn 0.8231 -0.1259 0.5538
vn 0.8481 0.4666 0.2511
vn 0.6947 0.5206 -0.4963
vn 0.7506 -0.5964 0.2846
vn 0.6821 -0.5573 0.4734
vn 0.9944 0.0642 0.0842
vn 0.9497 0.0581 0.3076
vn 0.9995 -0.0266 -0.0181
vn 0.9714 -0.0857 -0.2215
vn 0.0501 -0.9987 -0.0044
vn 0.9833 0.0721 0.1669
vn 0.9119 -0.0774 0.4030
vn 0.8235 0.5583 0.1007
vn 0.9256 -0.0590 0.3739
vn 0.8031 0.1648 0.5726
vn 0.6177 0.1699 0.7678
vn 0.7707 0.5307 0.3527
vn 0.7919 0.5999 0.1136
vn 0.9312 0.3080 0.1947
vn 0.4034 -0.7354 -0.5445
vn 0.3715 -0.7462 -0.5525
vn 0.9661 -0.0049 -0.2583
vn 0.8029 0.5937 -0.0533
vn 0.8208 0.5646 -0.0873
vn 0.8953 0.2771 -0.3489
vn 0.9892 0.1122 0.0943
vn 0.9162 -0.1740 -0.3609
vn 0.9551 -0.0720 -0.2875
vn 0.8345 0.3380 -0.4351
vn 0.8378 0.5388 0.0886
vn 0.9027 0.1488 0.4038
vn 0.9324 0.1754 0.3160
vn 0.8968 0.4424 -0.0094
vn 0.9929 0.1155 -0.0275
vn 0.9917 0.1284 0.0114
vn 0.9976 0.0465 -0.0503
s 0
usemtl Angel_GoldenArmor
f 4//1 2//1 1//1
f 1//2 3//2 4//2
f 4//3 6//3 5//3
f 5//4 2//4 4//4
f 4//5 3//5 13//5
f 7//6 5//6 6//6
f 7//7 6//7 8//7
f 6//8 9//8 8//8
f 10//9 8//9 9//9
f 11//10 9//10 6//10
f 6//11 12//11 11//11
f 12//12 6//12 4//12
f 12//13 4//13 13//13
f 13//14 14//14 12//14
f 91//15 14//15 13//15
f 15//16 16//16 17//16
f 18//17 15//17 20//17
f 20//18 15//18 17//18
f 31//29 30//29 18//29
f 31//30 18//30 20//30
f 20//31 17//31 32//31
f 130//32 20//32 32//32
f 22//33 32//33 17//33
f 59//78 62//78 30//78
f 61//79 62//79 59//79
f 59//80 30//80 31//80
f 63//81 59//81 31//81
f 31//82 60//82 63//82
f 59//83 64//83 66//83
f 61//84 59//84 66//84
f 70//85 61//85 66//85
f 64//86 65//86 66//86
f 67//87 70//87 66//87
f 68//88 70//88 67//88
f 69//89 68//89 67//89
f 99//90 67//90 96//90
f 67//91 99//91 103//91
f 67//92 103//92 90//92
f 67//93 90//93 69//93
f 75//94 74//94 73//94
f 75//95 73//95 88//95
f 75//96 88//96 77//96
f 75//97 77//97 76//97
f 76//98 78//98 75//98
f 72//99 74//99 75//99
f 80//100 72//100 79//100
f 78//101 72//101 75//101
f 72//102 78//102 79//102
f 76//103 77//103 81//103
f 76//104 83//104 78//104
f 83//105 76//105 81//105
f 84//106 78//106 83//106
f 84//107 79//107 78//107
f 29//108 80//108 85//108
f 29//109 85//109 86//109
f 85//110 80//110 79//110
f 87//111 79//111 84//111
f 81//112 95//112 83//112
f 95//113 81//113 96//113
f 96//114 81//114 99//114
f 82//115 99//115 81//115
f 82//116 81//116 77//116
f 82//117 77//117 88//117
f 90//118 89//118 71//118
f 86//119 85//119 13//119
f 92//120 91//120 13//120
f 92//121 13//121 85//121
f 92//122 85//122 98//122
f 94//123 84//123 83//123
f 95//124 94//124 83//124
f 94//125 95//125 154//125
f 94//126 154//126 97//126
f 94//127 97//127 84//127
f 84//128 93//128 87//128
f 79//129 87//129 85//129
f 68//130 69//130 90//130
f 68//131 90//131 71//131
f 82//132 88//132 89//132
f 103//133 82//133 89//133
f 82//134 103//134 99//134
f 100//135 5//135 7//135
f 101//136 7//136 8//136
f 100//137 7//137 101//137
f 101//138 8//138 10//138
f 103//139 89//139 90//139
f 85//140 93//140 98//140
f 104//141 91//141 92//141
f 104//142 105//142 91//142
f 106//143 91//143 105//143
f 91//144 106//144 14//144
f 12//145 14//145 110//145
f 14//146 106//146 110//146
f 110//147 106//147 107//147
f 106//148 105//148 107//148
f 104//149 109//149 105//149
f 105//150 108//150 107//150
f 108//151 142//151 107//151
f 11//152 12//152 112//152
f 12//153 111//153 112//153
f 111//154 12//154 110//154
f 140//155 110//155 107//155
f 109//156 108//156 105//156
f 113//157 109//157 104//157
f 92//158 98//158 104//158
f 104//159 98//159 113//159
f 98//160 97//160 114//160
f 98//161 114//161 115//161
f 98//162 115//162 113//162
f 115//163 114//163 116//163
f 115//164 116//164 122//164
f 114//165 117//165 116//165
f 117//166 124//166 116//166
f 124//167 118//167 116//167
f 125//168 118//168 124//168
f 124//169 117//169 123//169
f 121//170 116//170 118//170
f 118//171 120//171 121//171
f 122//172 116//172 121//172
f 93//173 85//173 87//173
f 97//174 98//174 93//174
f 97//175 93//175 84//175
f 114//176 123//176 117//176
f 126//177 123//177 114//177
f 97//177 126//177 114//177
f 154//178 124//178 126//178
f 126//179 124//179 123//179
f 127//180 95//180 96//180
f 127//181 96//181 67//181
f 127//182 67//182 66//182
f 125//183 127//183 66//183
f 65//184 144//184 119//184
f 65//185 119//185 66//185
f 66//186 119//186 125//186
f 64//187 59//187 65//187
f 65//188 59//188 63//188
f 63//189 60//189 128//189
f 147//190 63//190 128//190
f 130//191 60//191 31//191
f 31//192 20//192 130//192
f 131//193 32//193 33//193
f 32//194 131//194 132//194
f 32//195 132//195 130//195
f 133//196 132//196 146//196
f 130//198 132//198 133//198
f 34//199 50//199 134//199
f 34//200 134//200 33//200
f 33//201 137//201 131//201
f 131//202 137//202 135//202
f 50//203 37//203 134//203
f 33//204 134//204 157//204
f 33//205 102//205 137//205
f 102//206 33//206 157//206
f 131//207 135//207 145//207
f 136//208 135//208 137//208
f 138//209 135//209 136//209
f 136//210 10//210 138//210
f 140//211 138//211 139//211
f 139//212 138//212 10//212
f 9//213 139//213 10//213
f 139//214 9//214 151//214
f 139//215 151//215 111//215
f 139//216 111//216 110//216
f 139//217 110//217 140//217
f 140//218 107//218 141//218
f 141//219 107//219 142//219
f 141//220 120//220 140//220
f 140//221 120//221 138//221
f 138//222 120//222 143//222
f 142//223 115//223 141//223
f 141//224 115//224 122//224
f 121//225 141//225 122//225
f 143//226 118//226 119//226
f 119//227 144//227 143//227
f 119//228 118//228 125//228
f 144//229 155//229 143//229
f 143//230 155//230 145//230
f 118//231 143//231 120//231
f 141//232 121//232 120//232
f 138//233 143//233 135//233
f 135//234 143//234 145//234
f 130//236 133//236 60//236
f 60//237 133//237 128//237
f 128//239 129//239 147//239
f 63//240 147//240 65//240
f 144//241 65//241 147//241
f 155//242 144//242 147//242
f 112//249 151//249 11//249
f 112//250 111//250 151//250
f 11//251 151//251 9//251
f 113//252 115//252 142//252
f 113//253 142//253 109//253
f 109//254 142//254 108//254
f 101//255 10//255 102//255
f 102//256 10//256 136//256
f 102//257 136//257 137//257
f 158//258 152//258 153//258
f 97//259 154//259 126//259
f 127//260 125//260 124//260
f 127//261 124//261 154//261
f 95//262 127//262 154//262
f 133//264 145//264 128//264
f 145//265 155//265 129//265
f 129//266 155//266 147//266
f 156//267 37//267 261//267
f 134//268 156//268 157//268
f 158//269 157//269 156//269
f 158//270 159//270 157//270
f 157//271 159//271 102//271
f 160//272 152//272 211//272
f 211//273 152//273 158//273
f 162//274 161//274 160//274
f 163//275 161//275 162//275
f 164//276 163//276 165//276
f 37//277 156//277 134//277
f 196//310 197//310 181//310
f 183//311 196//311 181//311
f 159//331 158//331 153//331
f 211//340 158//340 212//340
f 212//341 158//341 156//341
f 212//342 156//342 261//342
f 223//358 257//358 222//358
f 228//365 224//365 230//365
f 224//366 209//366 229//366
f 229//367 231//367 224//367
f 224//368 231//368 230//368
f 230//369 231//369 232//369
f 233//370 228//370 230//370
f 234//371 233//371 249//371
f 249//372 233//372 230//372
f 232//373 231//373 235//373
f 235//374 231//374 237//374
f 236//375 235//375 237//375
f 257//376 236//376 237//376
f 222//377 257//377 237//377
f 237//378 231//378 229//378
f 237//379 229//379 222//379
f 222//380 229//380 209//380
f 238//382 218//382 197//382
f 197//384 239//384 238//384
f 239//385 197//385 196//385
f 183//386 198//386 196//386
f 196//387 292//387 239//387
f 292//388 196//388 240//388
f 240//389 196//389 198//389
f 198//390 303//390 240//390
f 226//400 233//400 241//400
f 241//401 233//401 234//401
f 241//402 234//402 242//402
f 243//403 242//403 234//403
f 242//404 244//404 241//404
f 243//405 248//405 242//405
f 244//406 246//406 245//406
f 244//407 242//407 371//407
f 371//408 242//408 247//408
f 248//409 243//409 249//409
f 243//410 234//410 249//410
f 248//411 252//411 242//411
f 248//412 249//412 250//412
f 230//413 232//413 249//413
f 251//414 252//414 250//414
f 378//415 253//415 251//415
f 253//416 254//416 255//416
f 253//417 252//417 251//417
f 255//418 252//418 253//418
f 252//419 248//419 250//419
f 242//420 252//420 247//420
f 247//421 252//421 255//421
f 247//422 255//422 372//422
f 371//423 247//423 372//423
f 257//424 223//424 258//424
f 263//425 211//425 212//425
f 265//429 264//429 272//429
f 272//430 264//430 302//430
f 302//431 264//431 263//431
f 302//432 263//432 212//432
f 268//439 266//439 221//439
f 268//440 269//440 271//440
f 221//441 269//441 268//441
f 266//442 268//442 270//442
f 270//444 268//444 272//444
f 268//445 271//445 272//445
f 273//446 265//446 274//446
f 273//447 274//447 276//447
f 264//448 265//448 275//448
f 275//449 265//449 273//449
f 274//450 269//450 276//450
f 273//451 276//451 275//451
f 277//452 263//452 264//452
f 277//453 278//453 263//453
f 263//454 278//454 211//454
f 264//455 275//455 277//455
f 276//456 279//456 275//456
f 275//457 279//457 277//457
f 277//458 280//458 278//458
f 211//459 278//459 260//459
f 211//460 281//460 160//460
f 162//461 160//461 282//461
f 163//462 162//462 282//462
f 165//463 166//463 164//463
f 282//464 160//464 281//464
f 211//465 260//465 281//465
f 282//466 165//466 163//466
f 281//467 165//467 282//467
f 358//468 166//468 165//468
f 165//469 281//469 349//469
f 349//470 281//470 260//470
f 260//471 278//471 349//471
f 349//472 278//472 280//472
f 277//473 279//473 280//473
f 283//474 279//474 284//474
f 284//475 279//475 276//475
f 284//476 285//476 283//476
f 286//477 285//477 284//477
f 286//478 284//478 293//478
f 269//479 274//479 288//479
f 265//480 288//480 274//480
f 288//481 265//481 289//481
f 289//482 265//482 272//482
f 289//483 272//483 271//483
f 288//484 289//484 269//484
f 269//485 289//485 271//485
f 269//486 221//486 218//486
f 269//487 218//487 238//487
f 239//488 292//488 291//488
f 239//489 291//489 238//489
f 291//490 290//490 238//490
f 290//491 291//491 293//491
f 238//492 290//492 269//492
f 293//493 291//493 292//493
f 292//494 294//494 293//494
f 294//495 292//495 240//495
f 240//496 295//496 294//496
f 259//497 296//497 258//497
f 257//498 258//498 296//498
f 300//499 232//499 235//499
f 297//500 235//500 236//500
f 298//501 297//501 236//501
f 298//502 299//502 297//502
f 382//503 300//503 297//503
f 301//504 299//504 298//504
f 212//505 213//505 302//505
f 270//506 302//506 267//506
f 270//507 272//507 302//507
f 246//512 244//512 371//512
f 306//517 303//517 305//517
f 309//523 619//523 310//523
f 332//542 259//542 331//542
f 333//543 259//543 332//543
f 333//544 334//544 259//544
f 333//545 335//545 334//545
f 333//546 332//546 336//546
f 337//547 333//547 336//547
f 332//548 339//548 336//548
f 338//549 339//549 332//549
f 338//550 332//550 331//550
f 340//551 338//551 331//551
f 342//552 340//552 341//552
f 342//553 341//553 480//553
f 276//554 269//554 284//554
f 284//555 269//555 290//555
f 290//556 293//556 284//556
f 286//557 293//557 343//557
f 294//558 343//558 293//558
f 286//559 287//559 344//559
f 345//560 344//560 287//560
f 343//561 287//561 286//561
f 287//562 343//562 345//562
f 343//563 294//563 345//563
f 345//564 294//564 295//564
f 286//565 344//565 346//565
f 345//566 346//566 344//566
f 346//567 345//567 392//567
f 280//568 279//568 348//568
f 280//569 165//569 349//569
f 166//570 358//570 357//570
f 350//571 166//571 351//571
f 351//572 166//572 357//572
f 353//573 351//573 352//573
f 357//574 354//574 351//574
f 351//575 354//575 352//575
f 351//576 353//576 350//576
f 355//577 350//577 353//577
f 356//578 352//578 354//578
f 357//579 400//579 354//579
f 306//580 305//580 359//580
f 367//581 306//581 359//581
f 305//582 360//582 359//582
f 360//583 361//583 359//583
f 359//584 361//584 362//584
f 557//585 359//585 362//585
f 362//586 361//586 363//586
f 365//587 363//587 364//587
f 363//588 365//588 366//588
f 359//589 557//589 367//589
f 368//590 367//590 557//590
f 557//591 362//591 363//591
f 364//592 363//592 369//592
f 369//593 363//593 361//593
f 307//595 369//595 361//595
f 307//596 361//596 360//596
f 246//599 369//599 370//599
f 372//600 375//600 371//600
f 374//601 372//601 255//601
f 374//602 255//602 256//602
f 373//603 256//603 255//603
f 255//604 254//604 373//604
f 584//605 374//605 256//605
f 372//606 374//606 375//606
f 375//607 374//607 584//607
f 376//608 256//608 373//608
f 256//609 376//609 584//609
f 254//610 377//610 373//610
f 373//611 377//611 376//611
f 379//612 377//612 254//612
f 253//613 378//613 254//613
f 378//614 379//614 254//614
f 379//615 380//615 620//615
f 379//616 378//616 380//616
f 380//617 378//617 381//617
f 385//618 250//618 382//618
f 382//619 250//619 249//619
f 300//620 382//620 249//620
f 300//621 249//621 232//621
f 300//622 235//622 297//622
f 236//623 257//623 296//623
f 236//624 296//624 383//624
f 385//625 299//625 301//625
f 334//626 301//626 298//626
f 386//627 334//627 298//627
f 384//628 298//628 236//628
f 384//629 236//629 383//629
f 383//630 296//630 384//630
f 296//631 259//631 384//631
f 298//632 384//632 386//632
f 334//633 386//633 384//633
f 334//634 384//634 259//634
f 334//635 335//635 301//635
f 301//636 335//636 590//636
f 389//637 240//637 303//637
f 389//638 303//638 306//638
f 240//639 390//639 295//639
f 391//640 295//640 390//640
f 391//641 392//641 295//641
f 295//642 392//642 345//642
f 392//643 393//643 346//643
f 346//644 393//644 347//644
f 393//645 392//645 391//645
f 390//646 394//646 391//646
f 390//647 389//647 394//647
f 391//648 394//648 417//648
f 395//649 391//649 417//649
f 391//650 395//650 393//650
f 347//651 393//651 415//651
f 347//652 396//652 346//652
f 346//653 396//653 397//653
f 346//654 397//654 286//654
f 401//655 397//655 396//655
f 401//656 396//656 398//656
f 398//657 399//657 403//657
f 398//658 403//658 401//658
f 286//659 397//659 285//659
f 348//660 279//660 283//660
f 348//661 283//661 285//661
f 400//662 348//662 285//662
f 285//663 397//663 400//663
f 400//664 397//664 401//664
f 401//665 403//665 402//665
f 400//666 401//666 404//666
f 404//667 401//667 402//667
f 354//668 404//668 356//668
f 404//669 659//669 356//669
f 659//670 404//670 405//670
f 402//671 403//671 406//671
f 402//672 406//672 404//672
f 406//673 403//673 399//673
f 396//674 407//674 398//674
f 398//675 408//675 399//675
f 408//676 398//676 409//676
f 409//677 398//677 407//677
f 399//678 408//678 406//678
f 404//679 406//679 405//679
f 408//680 405//680 406//680
f 405//681 408//681 409//681
f 407//682 396//682 347//682
f 405//683 409//683 410//683
f 405//684 410//684 411//684
f 410//685 409//685 412//685
f 407//687 412//687 409//687
f 414//688 412//688 407//688
f 347//689 415//689 407//689
f 407//690 415//690 414//690
f 415//691 393//691 416//691
f 416//692 393//692 395//692
f 418//693 420//693 394//693
f 394//694 420//694 417//694
f 368//695 418//695 394//695
f 368//696 394//696 389//696
f 368//697 389//697 367//697
f 418//698 558//698 420//698
f 558//699 421//699 420//699
f 420//700 421//700 422//700
f 431//702 422//702 421//702
f 421//703 424//703 431//703
f 426//704 425//704 366//704
f 426//705 366//705 365//705
f 420//708 423//708 417//708
f 395//709 417//709 423//709
f 434//720 419//720 395//720
f 437//723 434//723 395//723
f 437//724 395//724 423//724
f 419//743 416//743 395//743
f 416//744 444//744 445//744
f 414//745 445//745 444//745
f 445//747 414//747 415//747
f 415//748 416//748 445//748
f 390//749 240//749 389//749
f 367//750 389//750 306//750
f 449//751 451//751 448//751
f 448//752 450//752 449//752
f 449//753 450//753 452//753
f 455//754 453//754 454//754
f 457//755 456//755 454//755
f 454//756 456//756 455//756
f 468//757 460//757 457//757
f 458//758 459//758 460//758
f 460//759 469//759 458//759
f 462//760 451//760 463//760
f 451//761 449//761 463//761
f 476//762 449//762 464//762
f 464//763 449//763 452//763
f 453//764 467//764 450//764
f 452//765 450//765 500//765
f 467//766 500//766 450//766
f 453//767 455//767 467//767
f 456//768 457//768 460//768
f 456//769 460//769 459//769
f 455//770 456//770 459//770
f 455//771 459//771 465//771
f 466//772 500//772 467//772
f 465//773 467//773 455//773
f 459//774 458//774 465//774
f 555//775 458//775 469//775
f 469//776 460//776 468//776
f 468//777 461//777 469//777
f 469//778 461//778 470//778
f 470//779 471//779 472//779
f 470//780 472//780 473//780
f 470//781 473//781 630//781
f 470//782 630//782 549//782
f 470//783 549//783 469//783
f 479//784 474//784 447//784
f 475//785 462//785 463//785
f 463//786 449//786 476//786
f 462//787 475//787 447//787
f 475//788 477//788 447//788
f 478//789 447//789 477//789
f 478//790 339//790 447//790
f 480//791 479//791 342//791
f 342//792 481//792 340//792
f 338//793 447//793 339//793
f 337//794 336//794 482//794
f 483//795 337//795 482//795
f 483//796 333//796 337//796
f 484//797 485//797 486//797
f 482//798 485//798 484//798
f 482//799 484//799 483//799
f 339//800 478//800 488//800
f 339//801 488//801 336//801
f 489//802 478//802 477//802
f 490//803 489//803 477//803
f 489//804 490//804 491//804
f 492//805 488//805 478//805
f 492//806 478//806 489//806
f 493//807 489//807 491//807
f 494//808 493//808 491//808
f 491//809 495//809 494//809
f 491//810 490//810 496//810
f 491//811 496//811 495//811
f 452//812 499//812 464//812
f 499//813 452//813 500//813
f 499//814 501//814 464//814
f 464//815 504//815 498//815
f 464//816 498//816 476//816
f 498//817 463//817 476//817
f 463//818 498//818 497//818
f 498//819 502//819 497//819
f 497//820 490//820 475//820
f 497//821 475//821 463//821
f 477//822 475//822 490//822
f 503//823 497//823 502//823
f 502//824 498//824 504//824
f 503//825 502//825 507//825
f 507//826 502//826 504//826
f 503//827 496//827 490//827
f 507//828 496//828 503//828
f 507//829 504//829 505//829
f 496//830 507//830 495//830
f 495//831 507//831 506//831
f 601//832 509//832 506//832
f 601//833 506//833 507//833
f 601//834 507//834 505//834
f 511//835 504//835 464//835
f 511//836 464//836 501//836
f 499//837 511//837 501//837
f 511//838 499//838 512//838
f 504//839 511//839 512//839
f 513//840 512//840 514//840
f 512//841 513//841 504//841
f 513//842 515//842 504//842
f 516//843 513//843 514//843
f 514//844 517//844 516//844
f 518//845 513//845 516//845
f 520//846 516//846 517//846
f 520//847 517//847 519//847
f 521//848 534//848 519//848
f 465//849 458//849 521//849
f 465//850 521//850 522//850
f 465//851 523//851 467//851
f 467//852 523//852 466//852
f 500//853 466//853 523//853
f 519//854 517//854 523//854
f 522//855 521//855 519//855
f 523//856 465//856 519//856
f 519//857 465//857 522//857
f 479//858 480//858 474//858
f 297//859 299//859 382//859
f 299//860 385//860 382//860
f 358//861 165//861 400//861
f 358//862 400//862 357//862
f 400//863 404//863 354//863
f 400//864 165//864 280//864
f 400//865 280//865 348//865
f 338//866 481//866 479//866
f 447//867 338//867 479//867
f 342//868 479//868 481//868
f 338//869 340//869 481//869
f 523//870 517//870 514//870
f 514//871 500//871 523//871
f 500//872 514//872 512//872
f 499//873 500//873 512//873
f 490//874 497//874 503//874
f 525//875 524//875 527//875
f 526//876 525//876 527//876
f 527//877 524//877 528//877
f 535//878 527//878 528//878
f 535//879 528//879 529//879
f 529//880 531//880 535//880
f 535//881 531//881 530//881
f 530//882 533//882 532//882
f 530//883 532//883 535//883
f 536//884 527//884 547//884
f 547//885 527//885 535//885
f 533//886 530//886 540//886
f 540//887 537//887 533//887
f 531//888 529//888 538//888
f 531//889 538//889 530//889
f 541//890 540//890 538//890
f 541//891 537//891 540//891
f 539//892 538//892 529//892
f 539//893 542//893 538//893
f 538//894 542//894 541//894
f 541//895 542//895 537//895
f 542//896 533//896 537//896
f 532//897 533//897 542//897
f 548//898 532//898 542//898
f 548//899 542//899 546//899
f 543//900 542//900 539//900
f 543//901 544//901 542//901
f 542//902 544//902 546//902
f 544//903 564//903 562//903
f 544//904 562//904 546//904
f 545//905 561//905 546//905
f 547//906 546//906 561//906
f 549//907 524//907 525//907
f 526//908 527//908 536//908
f 525//909 526//909 534//909
f 534//910 526//910 519//910
f 526//911 536//911 520//911
f 526//912 520//912 519//912
f 528//913 524//913 549//913
f 472//914 552//914 550//914
f 472//915 471//915 552//915
f 552//916 471//916 551//916
f 552//917 553//917 550//917
f 528//918 549//918 529//918
f 529//919 549//919 630//919
f 549//920 525//920 534//920
f 521//921 555//921 549//921
f 521//922 549//922 534//922
f 521//923 458//923 555//923
f 469//924 549//924 555//924
f 364//925 369//925 246//925
f 246//926 556//926 364//926
f 364//927 556//927 365//927
f 366//928 557//928 363//928
f 629//929 557//929 366//929
f 629//930 558//930 557//930
f 557//931 558//931 418//931
f 557//932 418//932 368//932
f 547//933 535//933 532//933
f 516//934 520//934 559//934
f 516//935 559//935 518//935
f 545//936 546//936 562//936
f 562//937 561//937 545//937
f 563//938 562//938 567//938
f 567//939 562//939 564//939
f 564//940 565//940 567//940
f 565//941 566//941 567//941
f 566//942 563//942 567//942
f 563//943 566//943 568//943
f 562//944 563//944 561//944
f 561//945 563//945 560//945
f 518//946 515//946 513//946
f 504//947 515//947 505//947
f 569//948 515//948 518//948
f 569//949 518//949 570//949
f 515//950 569//950 505//950
f 518//951 559//951 570//951
f 570//952 559//952 563//952
f 570//953 563//953 568//953
f 559//954 560//954 563//954
f 568//955 571//955 570//955
f 569//956 571//956 505//956
f 571//957 569//957 570//957
f 568//958 566//958 572//958
f 568//959 572//959 571//959
f 579//960 571//960 572//960
f 573//961 572//961 574//961
f 574//962 572//962 566//962
f 564//963 576//963 565//963
f 576//964 564//964 575//964
f 574//965 566//965 565//965
f 576//966 574//966 565//966
f 578//967 573//967 574//967
f 575//968 564//968 544//968
f 576//969 575//969 640//969
f 574//970 577//970 578//970
f 572//971 573//971 579//971
f 371//972 375//972 556//972
f 371//973 556//973 246//973
f 365//974 556//974 580//974
f 581//975 580//975 556//975
f 581//976 556//976 375//976
f 580//980 583//980 427//980
f 581//981 584//981 583//981
f 581//982 583//982 580//982
f 581//983 375//983 584//983
f 584//984 585//984 583//984
f 536//985 547//985 520//985
f 520//986 547//986 560//986
f 559//987 520//987 560//987
f 560//988 547//988 561//988
f 532//989 546//989 547//989
f 546//990 532//990 548//990
f 250//991 385//991 251//991
f 251//992 385//992 589//992
f 378//993 251//993 589//993
f 617//994 381//994 586//994
f 378//995 589//995 381//995
f 587//996 586//996 381//996
f 587//997 381//997 589//997
f 587//998 589//998 588//998
f 589//999 301//999 588//999
f 617//1000 587//1000 591//1000
f 591//1001 587//1001 588//1001
f 591//1002 610//1002 617//1002
f 591//1003 588//1003 590//1003
f 591//1004 590//1004 484//1004
f 385//1005 301//1005 589//1005
f 588//1006 301//1006 590//1006
f 590//1007 335//1007 483//1007
f 590//1008 483//1008 484//1008
f 592//1009 484//1009 486//1009
f 592//1010 486//1010 487//1010
f 487//1011 593//1011 592//1011
f 593//1012 487//1012 597//1012
f 597//1013 594//1013 593//1013
f 484//1014 592//1014 591//1014
f 482//1015 336//1015 488//1015
f 482//1016 488//1016 595//1016
f 595//1017 488//1017 492//1017
f 492//1018 596//1018 595//1018
f 482//1019 595//1019 485//1019
f 486//1020 485//1020 596//1020
f 597//1021 486//1021 608//1021
f 595//1022 596//1022 485//1022
f 596//1023 492//1023 598//1023
f 492//1024 599//1024 605//1024
f 493//1025 599//1025 492//1025
f 493//1026 492//1026 489//1026
f 508//1027 494//1027 495//1027
f 494//1028 599//1028 493//1028
f 494//1029 508//1029 599//1029
f 600//1030 605//1030 599//1030
f 510//1031 508//1031 495//1031
f 495//1032 506//1032 510//1032
f 508//1033 510//1033 599//1033
f 510//1034 506//1034 509//1034
f 509//1035 571//1035 579//1035
f 509//1036 579//1036 510//1036
f 579//1037 708//1037 510//1037
f 510//1038 600//1038 599//1038
f 708//1039 602//1039 510//1039
f 510//1040 602//1040 600//1040
f 602//1041 708//1041 604//1041
f 708//1042 579//1042 603//1042
f 605//1043 602//1043 604//1043
f 711//1044 606//1044 605//1044
f 600//1045 602//1045 605//1045
f 605//1046 606//1046 492//1046
f 492//1047 606//1047 598//1047
f 598//1048 606//1048 608//1048
f 608//1049 606//1049 609//1049
f 608//1050 596//1050 598//1050
f 596//1051 608//1051 486//1051
f 486//1052 597//1052 487//1052
f 594//1053 597//1053 608//1053
f 608//1054 609//1054 594//1054
f 687//1055 593//1055 594//1055
f 593//1056 687//1056 592//1056
f 592//1057 687//1057 591//1057
f 611//1058 610//1058 591//1058
f 688//1059 611//1059 591//1059
f 688//1060 687//1060 612//1060
f 687//1061 594//1061 612//1061
f 688//1062 612//1062 611//1062
f 613//1063 612//1063 594//1063
f 612//1064 613//1064 614//1064
f 614//1065 615//1065 616//1065
f 615//1066 614//1066 613//1066
f 618//1067 616//1067 310//1067
f 616//1068 618//1068 617//1068
f 619//1069 618//1069 310//1069
f 618//1070 619//1070 617//1070
f 380//1071 617//1071 619//1071
f 610//1072 611//1072 614//1072
f 614//1073 611//1073 612//1073
f 616//1074 610//1074 614//1074
f 587//1075 617//1075 586//1075
f 380//1076 381//1076 617//1076
f 619//1077 620//1077 380//1077
f 379//1078 620//1078 377//1078
f 377//1079 620//1079 621//1079
f 621//1080 376//1080 377//1080
f 620//1081 619//1081 623//1081
f 584//1082 376//1082 585//1082
f 621//1084 622//1084 376//1084
f 376//1085 622//1085 585//1085
f 621//1086 620//1086 623//1086
f 621//1087 623//1087 622//1087
f 624//1094 623//1094 619//1094
f 333//1102 483//1102 335//1102
f 366//1103 425//1103 424//1103
f 629//1104 366//1104 424//1104
f 558//1105 629//1105 421//1105
f 539//1106 529//1106 630//1106
f 473//1107 472//1107 550//1107
f 473//1108 550//1108 631//1108
f 631//1109 550//1109 553//1109
f 632//1110 631//1110 634//1110
f 633//1111 631//1111 553//1111
f 728//1112 633//1112 553//1112
f 641//1113 633//1113 728//1113
f 631//1114 633//1114 634//1114
f 635//1115 634//1115 633//1115
f 543//1116 634//1116 544//1116
f 544//1117 634//1117 635//1117
f 635//1118 575//1118 544//1118
f 640//1119 575//1119 635//1119
f 576//1120 636//1120 574//1120
f 577//1121 637//1121 578//1121
f 636//1122 577//1122 574//1122
f 636//1123 576//1123 640//1123
f 636//1124 642//1124 577//1124
f 638//1125 577//1125 642//1125
f 636//1126 640//1126 639//1126
f 640//1127 641//1127 639//1127
f 641//1128 635//1128 633//1128
f 636//1129 639//1129 642//1129
f 643//1130 642//1130 644//1130
f 642//1131 643//1131 638//1131
f 577//1132 638//1132 637//1132
f 645//1133 648//1133 646//1133
f 649//1134 650//1134 647//1134
f 647//1135 650//1135 646//1135
f 646//1136 650//1136 645//1136
f 645//1137 650//1137 638//1137
f 638//1138 650//1138 637//1138
f 650//1139 651//1139 708//1139
f 578//1140 637//1140 573//1140
f 573//1141 637//1141 579//1141
f 603//1142 579//1142 637//1142
f 708//1143 637//1143 650//1143
f 649//1144 651//1144 650//1144
f 651//1145 649//1145 652//1145
f 605//1146 651//1146 652//1146
f 647//1147 652//1147 649//1147
f 647//1148 646//1148 652//1148
f 594//1149 609//1149 654//1149
f 609//1150 655//1150 654//1150
f 609//1151 606//1151 607//1151
f 658//1152 388//1152 696//1152
f 629//1153 424//1153 421//1153
f 405//1154 411//1154 659//1154
f 356//1157 353//1157 352//1157
f 387//1159 166//1159 350//1159
f 684//1160 387//1160 350//1160
f 661//1161 350//1161 355//1161
f 601//1186 505//1186 509//1186
f 505//1187 571//1187 509//1187
f 661//1199 355//1199 680//1199
f 686//1200 661//1200 680//1200
f 686//1202 678//1202 657//1202
f 657//1203 678//1203 697//1203
f 540//1207 530//1207 538//1207
f 685//1212 684//1212 350//1212
f 685//1213 350//1213 661//1213
f 661//1215 686//1215 685//1215
f 685//1216 686//1216 657//1216
f 685//1217 657//1217 684//1217
f 657//1218 696//1218 388//1218
f 687//1219 688//1219 591//1219
f 610//1223 616//1223 617//1223
f 657//1244 697//1244 696//1244
f 695//1245 658//1245 696//1245
f 697//1246 698//1246 696//1246
f 696//1247 698//1247 699//1247
f 699//1251 703//1251 702//1251
f 708//1261 651//1261 604//1261
f 603//1262 637//1262 708//1262
f 656//1273 609//1273 607//1273
f 609//1274 656//1274 655//1274
f 711//1275 607//1275 606//1275
f 607//1276 713//1276 712//1276
f 712//1277 656//1277 607//1277
f 656//1278 712//1278 655//1278
f 604//1279 651//1279 605//1279
f 652//1280 653//1280 711//1280
f 652//1281 711//1281 605//1281
f 645//1289 643//1289 644//1289
f 639//1290 727//1290 642//1290
f 642//1291 727//1291 644//1291
f 639//1292 641//1292 727//1292
f 643//1293 645//1293 638//1293
f 645//1294 723//1294 648//1294
f 713//1295 607//1295 711//1295
f 713//1296 711//1296 653//1296
f 725//1297 658//1297 695//1297
f 695//1298 696//1298 699//1298
f 702//1299 695//1299 699//1299
f 702//1300 724//1300 695//1300
f 724//1301 702//1301 726//1301
f 702//1302 734//1302 726//1302
f 728//1303 554//1303 727//1303
f 552//1304 551//1304 554//1304
f 726//1307 730//1307 731//1307
f 726//1308 731//1308 724//1308
f 724//1309 725//1309 695//1309
f 727//1310 641//1310 728//1310
f 728//1311 553//1311 552//1311
f 728//1312 552//1312 554//1312
f 644//1313 723//1313 645//1313
f 630//1314 543//1314 539//1314
f 634//1315 630//1315 632//1315
f 631//1316 632//1316 473//1316
f 473//1317 632//1317 630//1317
f 543//1318 630//1318 634//1318
f 640//1319 635//1319 641//1319
f 703//1325 734//1325 702//1325
f 726//1326 734//1326 730//1326
usemtl Angel_CelestialWings
f 21//19 17//19 19//19
f 19//20 23//20 21//20
f 21//21 22//21 17//21
f 22//22 21//22 38//22
f 38//23 21//23 23//23
f 25//24 24//24 23//24
f 25//25 23//25 19//25
f 16//26 19//26 17//26
f 19//27 16//27 26//27
f 26//28 25//28 19//28
f 32//34 22//34 33//34
f 33//35 22//35 34//35
f 34//36 22//36 35//36
f 38//37 36//37 22//37
f 24//38 25//38 26//38
f 24//39 39//39 23//39
f 23//40 39//40 38//40
f 39//41 27//41 28//41
f 38//42 40//42 36//42
f 38//43 39//43 42//43
f 28//44 41//44 39//44
f 41//45 43//45 42//45
f 43//46 52//46 42//46
f 39//47 41//47 42//47
f 42//48 44//48 38//48
f 22//49 36//49 35//49
f 36//50 50//50 45//50
f 36//51 45//51 35//51
f 35//52 45//52 46//52
f 46//53 45//53 47//53
f 46//53 47//53 48//53
f 46//53 48//53 35//53
f 48//53 47//53 49//53
f 48//54 49//54 35//54
f 35//55 49//55 34//55
f 34//56 49//56 50//56
f 50//57 49//57 47//57
f 50//58 47//58 45//58
f 36//59 37//59 50//59
f 37//60 36//60 40//60
f 38//61 44//61 40//61
f 44//62 42//62 51//62
f 42//63 52//63 51//63
f 51//64 52//64 53//64
f 52//65 54//65 53//65
f 37//66 40//66 261//66
f 44//67 51//67 53//67
f 55//68 52//68 43//68
f 55//69 54//69 52//69
f 56//70 54//70 55//70
f 55//71 57//71 56//71
f 57//72 210//72 56//72
f 214//73 54//73 56//73
f 54//74 58//74 53//74
f 214//75 58//75 54//75
f 56//76 215//76 214//76
f 215//77 56//77 170//77
f 132//197 131//197 146//197
f 145//235 146//235 131//235
f 128//238 145//238 129//238
f 148//243 149//243 26//243
f 150//244 149//244 148//244
f 149//245 39//245 24//245
f 149//246 24//246 26//246
f 149//247 150//247 39//247
f 39//248 150//248 27//248
f 145//263 133//263 146//263
f 169//278 167//278 168//278
f 168//279 167//279 176//279
f 171//280 167//280 179//280
f 167//281 169//281 172//281
f 168//282 173//282 169//282
f 174//283 173//283 168//283
f 175//284 174//284 176//284
f 174//285 168//285 176//285
f 175//286 176//286 177//286
f 177//287 176//287 210//287
f 179//288 180//288 171//288
f 179//289 167//289 172//289
f 172//290 181//290 179//290
f 183//291 181//291 184//291
f 184//292 181//292 182//292
f 182//293 181//293 172//293
f 185//294 182//294 186//294
f 186//295 182//295 172//295
f 186//296 188//296 185//296
f 172//297 173//297 186//297
f 172//298 169//298 173//298
f 188//299 173//299 174//299
f 186//300 173//300 188//300
f 190//301 189//301 191//301
f 188//302 190//302 187//302
f 191//303 189//303 192//303
f 187//304 185//304 188//304
f 194//305 184//305 195//305
f 195//306 184//306 182//306
f 195//307 182//307 185//307
f 187//308 200//308 185//308
f 194//309 198//309 184//309
f 184//312 198//312 183//312
f 195//313 185//313 200//313
f 199//314 195//314 200//314
f 201//315 187//315 190//315
f 191//316 201//316 190//316
f 202//317 201//317 191//317
f 202//318 191//318 192//318
f 192//319 189//319 193//319
f 205//320 193//320 203//320
f 204//321 192//321 193//321
f 204//322 193//322 205//322
f 203//323 209//323 206//323
f 187//324 207//324 200//324
f 201//325 207//325 187//325
f 208//326 201//326 202//326
f 202//327 192//327 208//327
f 205//328 203//328 206//328
f 205//329 206//329 225//329
f 204//330 205//330 225//330
f 170//332 167//332 171//332
f 170//333 176//333 167//333
f 170//334 171//334 217//334
f 217//335 215//335 170//335
f 176//336 170//336 56//336
f 210//337 176//337 56//337
f 178//338 210//338 57//338
f 178//339 177//339 210//339
f 40//343 44//343 53//343
f 53//344 58//344 213//344
f 58//345 214//345 262//345
f 214//346 215//346 262//346
f 216//347 262//347 215//347
f 216//348 215//348 217//348
f 219//349 217//349 171//349
f 219//350 171//350 180//350
f 218//351 180//351 179//351
f 219//352 180//352 221//352
f 218//353 221//353 180//353
f 220//354 262//354 216//354
f 221//355 216//355 217//355
f 221//356 217//356 219//356
f 221//357 220//357 216//357
f 209//359 224//359 206//359
f 224//360 225//360 206//360
f 224//361 226//361 225//361
f 226//362 224//362 228//362
f 225//363 227//363 204//363
f 204//364 227//364 192//364
f 179//381 181//381 197//381
f 197//383 218//383 179//383
f 194//391 303//391 198//391
f 199//392 303//392 194//392
f 199//393 194//393 195//393
f 225//394 226//394 227//394
f 228//395 233//395 226//395
f 227//396 245//396 192//396
f 227//397 244//397 245//397
f 244//398 227//398 241//398
f 241//399 227//399 226//399
f 261//426 53//426 212//426
f 213//427 58//427 262//427
f 40//428 53//428 261//428
f 212//433 53//433 213//433
f 213//434 262//434 267//434
f 267//435 262//435 220//435
f 267//436 220//436 266//436
f 213//437 267//437 302//437
f 221//438 266//438 220//438
f 266//443 270//443 267//443
f 208//508 192//508 304//508
f 192//509 245//509 304//509
f 245//510 308//510 304//510
f 308//511 245//511 370//511
f 305//513 303//513 199//513
f 305//514 199//514 200//514
f 305//515 200//515 207//515
f 304//516 201//516 208//516
f 360//518 305//518 207//518
f 307//519 304//519 308//519
f 307//520 201//520 304//520
f 307//521 207//521 201//521
f 360//522 207//522 307//522
f 624//524 619//524 309//524
f 309//525 311//525 624//525
f 624//526 311//526 627//526
f 311//527 625//527 627//527
f 625//528 312//528 443//528
f 443//529 313//529 314//529
f 442//530 443//530 314//530
f 442//531 314//531 315//531
f 314//532 318//532 315//532
f 429//533 315//533 440//533
f 439//534 316//534 317//534
f 315//535 318//535 316//535
f 316//536 319//536 317//536
f 320//537 673//537 321//537
f 325//538 323//538 324//538
f 325//539 327//539 323//539
f 328//540 327//540 329//540
f 329//541 330//541 328//541
f 370//594 369//594 307//594
f 370//597 307//597 308//597
f 370//598 245//598 246//598
f 410//686 412//686 413//686
f 423//701 420//701 422//701
f 426//706 428//706 425//706
f 424//707 425//707 429//707
f 431//710 440//710 430//710
f 431//711 430//711 422//711
f 424//712 429//712 431//712
f 425//713 428//713 429//713
f 429//714 440//714 431//714
f 432//715 429//715 428//715
f 427//716 428//716 426//716
f 427//717 433//717 428//717
f 428//718 433//718 432//718
f 422//719 436//719 423//719
f 434//721 437//721 435//721
f 434//722 435//722 693//722
f 430//725 439//725 422//725
f 435//726 437//726 438//726
f 438//727 437//727 423//727
f 436//728 422//728 439//728
f 423//729 436//729 439//729
f 423//730 439//730 438//730
f 442//731 429//731 432//731
f 315//732 429//732 442//732
f 443//733 442//733 433//733
f 433//734 442//734 432//734
f 625//735 443//735 441//735
f 440//736 315//736 430//736
f 439//737 430//737 316//737
f 316//738 430//738 315//738
f 438//739 439//739 709//739
f 435//740 438//740 694//740
f 435//741 694//741 693//741
f 434//742 693//742 419//742
f 444//746 446//746 414//746
f 365//977 580//977 427//977
f 365//978 427//978 426//978
f 583//979 582//979 427//979
f 583//1083 585//1083 582//1083
f 433//1088 427//1088 582//1088
f 441//1089 582//1089 585//1089
f 585//1090 625//1090 441//1090
f 585//1091 628//1091 625//1091
f 625//1092 628//1092 626//1092
f 628//1093 585//1093 622//1093
f 623//1095 628//1095 622//1095
f 623//1096 624//1096 628//1096
f 624//1097 626//1097 628//1097
f 627//1098 626//1098 624//1098
f 625//1099 626//1099 627//1099
f 441//1100 443//1100 433//1100
f 582//1101 441//1101 433//1101
f 659//1155 666//1155 356//1155
f 356//1156 662//1156 353//1156
f 353//1158 660//1158 355//1158
f 662//1162 660//1162 353//1162
f 662//1163 689//1163 664//1163
f 662//1164 664//1164 660//1164
f 663//1165 660//1165 664//1165
f 665//1166 322//1166 321//1166
f 663//1167 665//1167 321//1167
f 664//1168 665//1168 663//1168
f 664//1169 689//1169 669//1169
f 669//1170 689//1170 666//1170
f 667//1171 322//1171 665//1171
f 324//1172 326//1172 325//1172
f 668//1173 324//1173 667//1173
f 667//1174 665//1174 664//1174
f 667//1175 664//1175 669//1175
f 666//1176 411//1176 670//1176
f 666//1177 670//1177 669//1177
f 667//1178 669//1178 668//1178
f 668//1179 669//1179 670//1179
f 324//1180 668//1180 326//1180
f 668//1181 672//1181 326//1181
f 683//1182 671//1182 670//1182
f 671//1183 683//1183 672//1183
f 411//1184 666//1184 659//1184
f 411//1185 410//1185 413//1185
f 321//1188 673//1188 663//1188
f 674//1189 355//1189 673//1189
f 674//1190 673//1190 675//1190
f 682//1191 673//1191 320//1191
f 675//1192 673//1192 682//1192
f 675//1193 676//1193 674//1193
f 674//1194 677//1194 355//1194
f 674//1195 676//1195 678//1195
f 676//1196 679//1196 678//1196
f 677//1197 674//1197 678//1197
f 677//1198 680//1198 355//1198
f 678//1201 680//1201 677//1201
f 678//1204 681//1204 697//1204
f 681//1205 678//1205 679//1205
f 682//1206 676//1206 675//1206
f 683//1208 413//1208 412//1208
f 413//1209 683//1209 411//1209
f 670//1210 411//1210 683//1210
f 683//1211 412//1211 672//1211
f 680//1214 678//1214 686//1214
f 690//1220 672//1220 412//1220
f 690//1221 412//1221 446//1221
f 446//1222 412//1222 414//1222
f 689//1224 356//1224 666//1224
f 356//1225 689//1225 662//1225
f 668//1226 670//1226 672//1226
f 672//1227 670//1227 671//1227
f 672//1228 690//1228 326//1228
f 690//1229 691//1229 326//1229
f 326//1230 691//1230 692//1230
f 692//1231 329//1231 326//1231
f 329//1232 325//1232 326//1232
f 325//1233 329//1233 327//1233
f 329//1234 692//1234 330//1234
f 693//1235 444//1235 419//1235
f 691//1236 694//1236 692//1236
f 692//1237 694//1237 438//1237
f 694//1238 691//1238 690//1238
f 694//1239 446//1239 444//1239
f 419//1240 444//1240 416//1240
f 663//1241 673//1241 660//1241
f 673//1242 355//1242 660//1242
f 444//1243 693//1243 694//1243
f 681//1248 698//1248 697//1248
f 681//1249 700//1249 698//1249
f 701//1250 699//1250 698//1250
f 699//1252 701//1252 704//1252
f 699//1253 704//1253 703//1253
f 737//1254 703//1254 704//1254
f 700//1255 701//1255 698//1255
f 679//1256 705//1256 706//1256
f 679//1257 706//1257 681//1257
f 735//1258 701//1258 706//1258
f 701//1259 700//1259 706//1259
f 706//1260 700//1260 681//1260
f 446//1263 694//1263 690//1263
f 313//1264 443//1264 312//1264
f 439//1265 317//1265 709//1265
f 317//1266 319//1266 328//1266
f 328//1267 330//1267 710//1267
f 317//1268 710//1268 709//1268
f 710//1269 317//1269 328//1269
f 438//1270 709//1270 692//1270
f 692//1271 709//1271 710//1271
f 330//1272 692//1272 710//1272
f 707//1282 714//1282 718//1282
f 717//1283 718//1283 714//1283
f 735//1284 715//1284 707//1284
f 716//1285 719//1285 718//1285
f 716//1286 718//1286 717//1286
f 738//1287 718//1287 719//1287
f 719//1288 716//1288 720//1288
f 733//1305 729//1305 734//1305
f 734//1306 729//1306 730//1306
f 732//1320 703//1320 740//1320
f 722//1321 732//1321 740//1321
f 732//1322 722//1322 733//1322
f 734//1323 732//1323 733//1323
f 732//1324 734//1324 703//1324
f 706//1327 705//1327 715//1327
f 706//1328 715//1328 735//1328
f 718//1329 736//1329 737//1329
f 718//1330 737//1330 704//1330
f 718//1331 704//1331 707//1331
f 736//1332 718//1332 738//1332
f 738//1333 719//1333 721//1333
f 704//1334 701//1334 707//1334
f 735//1335 707//1335 701//1335
f 720//1336 721//1336 719//1336
f 740//1337 703//1337 737//1337
f 736//1338 739//1338 737//1338
f 737//1339 739//1339 740//1339
f 739//1340 736//1340 738//1340
f 721//1341 722//1341 739//1341
f 721//1342 739//1342 738//1342
f 722//1343 740//1343 739//1343
