# Blender 5.2.1 LTS
# www.blender.org
mtllib angel_leg_r.mtl
o Angel_RightLeg
v -0.199202 -0.053053 -0.028908
v -0.194266 -0.073581 -0.032771
v -0.198068 -0.043239 -0.026722
v -0.214499 -0.014445 -0.024190
v -0.183916 -0.050622 -0.040771
v -0.196441 -0.025086 -0.036813
v -0.205569 -0.011975 -0.033404
v -0.205354 -0.009926 -0.040344
v -0.203669 -0.017543 -0.041899
v -0.195356 -0.020381 -0.045744
v -0.203544 -0.018169 -0.042900
v -0.203544 -0.018169 -0.042900
v -0.202417 -0.019420 -0.042024
v -0.203544 -0.018169 -0.042900
v -0.202167 -0.019170 -0.043150
v -0.198029 -0.025900 -0.043671
v -0.213013 -0.090715 -0.084174
v -0.205353 -0.064414 -0.094858
v -0.203522 -0.098051 -0.038841
v -0.196347 -0.096407 -0.035062
v -0.189827 -0.064990 -0.031948
v -0.181340 -0.092373 -0.046530
v -0.192904 -0.108752 -0.073428
v -0.217018 -0.106264 -0.076214
v -0.203762 -0.108153 -0.084995
v -0.199375 -0.096044 -0.090100
v -0.186249 -0.101556 -0.046727
v -0.177899 -0.104384 -0.055748
v -0.177842 -0.096257 -0.066217
v -0.179698 -0.085851 -0.048061
v -0.192262 -0.037508 -0.046193
v -0.186002 -0.050719 -0.047029
v -0.184944 -0.059704 -0.048849
v -0.176579 -0.060131 -0.061242
v -0.173440 -0.083923 -0.061565
v -0.186852 -0.098977 -0.076852
v -0.198793 -0.069248 -0.086885
v -0.216906 -0.019006 -0.075098
v -0.207005 -0.016783 -0.063289
v -0.199260 -0.033277 -0.065210
v -0.207963 -0.038660 -0.085240
v -0.211813 -0.034141 -0.078283
v -0.206460 -0.051282 -0.080307
v -0.210523 0.006815 -0.059579
v -0.192460 -0.053565 -0.067095
v -0.196560 -0.022626 -0.066615
v -0.183613 -0.032155 -0.059919
v -0.194062 -0.008700 -0.056057
v -0.199275 -0.076168 -0.079570
v -0.193581 -0.093936 -0.080142
v -0.186303 -0.089640 -0.065382
v -0.204516 0.005850 -0.049383
v -0.184427 -0.060883 -0.068968
v -0.188329 -0.068690 -0.066913
v -0.140891 -0.053605 -0.110513
v -0.135981 -0.073027 -0.110475
v -0.132689 -0.045521 -0.090232
v -0.133927 -0.043916 -0.110754
v -0.132196 -0.029079 -0.110152
v -0.127777 -0.036100 -0.094756
v -0.125715 -0.012490 -0.109592
v -0.119882 -0.012944 -0.086209
v -0.118044 -0.025913 -0.079353
v -0.120638 -0.033798 -0.064694
v -0.126787 -0.059988 -0.086251
v -0.127672 -0.060253 -0.138584
v -0.127401 -0.035389 -0.124119
v -0.116974 -0.062905 -0.141656
v -0.126011 -0.077031 -0.113632
v -0.124428 -0.033446 -0.138945
v -0.116732 0.012446 -0.100451
v -0.110969 -0.018908 -0.074109
v -0.117882 -0.050659 -0.068839
v -0.118151 -0.066254 -0.089438
v -0.102671 -0.013784 -0.039557
v -0.101369 -0.004430 -0.054626
v -0.112194 -0.014577 -0.082496
v -0.123966 0.003810 -0.113231
v -0.113069 -0.000141 -0.090406
v -0.107545 0.002962 -0.072341
v -0.105203 0.007560 -0.057959
v -0.106455 -0.047576 -0.059970
v -0.076504 -0.036449 -0.069148
v -0.059638 -0.019196 -0.048627
v -0.082963 -0.020232 -0.028125
v -0.084789 0.004269 -0.019770
v -0.047993 -0.006111 -0.035567
v -0.070232 -0.004405 -0.014079
v -0.067311 -0.012620 -0.085179
v -0.061236 -0.005049 -0.068634
v -0.063403 -0.009362 -0.078441
v -0.072628 -0.019625 -0.079587
v -0.090183 -0.051189 -0.093535
v -0.097620 -0.037253 -0.046137
v -0.085826 -0.036382 -0.107271
v -0.099346 -0.062434 -0.114161
v -0.128398 -0.040156 -0.145597
v -0.048338 0.007162 -0.049876
v -0.056867 -0.000823 -0.061100
v -0.059243 -0.002506 -0.063406
v -0.082539 -0.038708 -0.161215
v -0.061037 -0.009646 -0.161659
v -0.023010 -0.023714 -0.029481
v -0.032756 0.024814 -0.032993
v -0.044653 0.009330 -0.044163
v -0.043327 -0.051926 -0.047076
v -0.053312 0.002524 -0.055760
v -0.004234 -0.049481 -0.025368
v 0.022021 -0.055855 -0.025326
v 0.029593 -0.036769 -0.025810
v 0.034400 -0.017210 -0.025694
v 0.037313 -0.032192 -0.026219
v 0.024881 -0.075184 -0.030256
v 0.000764 -0.119067 -0.034910
v 0.017320 -0.102615 -0.032476
v -0.012873 -0.128205 -0.040896
v -0.059554 -0.057526 -0.069145
v -0.069188 -0.084956 -0.104284
v -0.054752 -0.164219 -0.090976
v -0.061877 -0.180664 -0.128070
v -0.063974 -0.099719 -0.147202
v -0.069177 -0.021774 -0.124721
v -0.065157 -0.017768 -0.141431
v -0.068968 -0.017764 -0.097737
v -0.071572 -0.020329 -0.136013
v -0.111388 -0.779022 -0.090832
v -0.104656 -0.775947 -0.126631
v -0.086829 -0.760404 -0.038099
v -0.104152 -0.802607 -0.125122
v -0.107151 -0.818747 -0.117326
v -0.100199 -0.819391 -0.130789
v -0.097906 -0.788607 -0.140123
v -0.106101 -0.765888 -0.117098
v -0.109707 -0.775418 -0.139823
v -0.108153 -0.753898 -0.117297
v -0.103772 -0.767165 -0.138237
v -0.102649 -0.753833 -0.122859
v -0.099336 -0.752693 -0.146063
v -0.104246 -0.760289 -0.150686
v -0.096353 -0.743352 -0.132422
v -0.104617 -0.778671 -0.151903
v -0.107584 -0.784260 -0.144139
v -0.103623 -0.781670 -0.159923
v -0.092032 -0.817477 -0.151191
v -0.082881 -0.817803 -0.150988
v -0.069666 -0.818230 -0.154808
v -0.109285 -0.819040 -0.074292
v -0.103356 -0.818738 -0.053922
v -0.094659 -0.739108 -0.106267
v -0.096634 -0.730910 -0.127092
v -0.101435 -0.743336 -0.144332
v -0.098260 -0.747498 -0.149572
v -0.097801 -0.725284 -0.154393
v -0.081807 -0.706781 -0.116152
v -0.087104 -0.711248 -0.150319
v -0.091541 -0.668929 -0.150027
v -0.083728 -0.701371 -0.142113
v -0.085160 -0.709854 -0.109515
v -0.087383 -0.728308 -0.115867
v -0.091371 -0.740796 -0.085964
v -0.089831 -0.787704 -0.020594
v -0.094848 -0.818502 -0.027600
v -0.087518 -0.818555 -0.008626
v -0.077904 -0.818375 0.011343
v -0.066616 -0.818275 0.029585
v -0.027766 -0.818264 0.001058
v -0.008695 -0.818504 -0.022983
v 0.002295 -0.818727 -0.090378
v -0.020883 -0.819191 -0.144389
v -0.102082 -0.752476 -0.101137
v -0.073690 -0.713271 -0.070006
v -0.100490 -0.739404 -0.098748
v -0.080865 -0.681973 -0.128052
v -0.096202 -0.690539 -0.142945
v -0.083782 -0.642305 -0.145434
v -0.076047 -0.634724 -0.146671
v -0.080312 -0.650559 -0.138912
v -0.080439 -0.649324 -0.128414
v -0.061223 -0.624818 -0.115085
v -0.080385 -0.662113 -0.116634
v -0.088531 -0.677203 -0.129455
v -0.076422 -0.687998 -0.132106
v -0.070835 -0.678523 -0.126076
v -0.064087 -0.669884 -0.120010
v -0.054093 -0.660204 -0.115778
v -0.065141 -0.661940 -0.108839
v -0.061759 -0.686130 -0.099897
v -0.069928 -0.692643 -0.095036
v -0.073902 -0.713792 -0.101736
v -0.071340 -0.727349 -0.065577
v -0.061077 -0.739737 -0.031800
v -0.059191 -0.723169 -0.059109
v -0.057208 -0.707385 -0.062977
v -0.072351 -0.717943 -0.081505
v -0.063235 -0.704727 -0.094445
v -0.058602 -0.709688 -0.073668
v -0.053571 -0.700636 -0.090734
v -0.054309 -0.684913 -0.085893
v -0.040935 -0.704105 -0.089004
v -0.048359 -0.680370 -0.094930
v -0.051920 -0.650602 -0.097042
v -0.063928 -0.640380 -0.096447
v -0.060463 -0.598587 -0.127813
v -0.052294 -0.630061 -0.087936
v -0.043553 -0.653962 -0.120985
v -0.048028 -0.657567 -0.120594
v -0.035549 -0.662073 -0.109387
v -0.033803 -0.657411 -0.117712
v -0.039651 -0.645655 -0.091821
v -0.028097 -0.649790 -0.091932
v -0.048115 -0.613185 -0.108099
v -0.041080 -0.623002 -0.085146
v -0.036767 -0.610777 -0.099648
v -0.028243 -0.628954 -0.083681
v -0.034228 -0.685068 -0.093414
v -0.026215 -0.716107 -0.090251
v -0.059910 -0.804300 0.034693
v -0.061219 -0.782286 0.019187
v -0.060433 -0.770871 0.007963
v -0.061716 -0.754619 -0.010869
v -0.039097 -0.730420 -0.057183
v -0.023822 -0.738317 -0.058734
v -0.072460 -0.335963 -0.143141
v -0.071805 -0.351395 -0.130391
v -0.081715 -0.316889 -0.160991
v -0.076837 -0.321801 -0.142104
v -0.074104 -0.294107 -0.160517
v -0.078795 -0.286436 -0.161943
v -0.076088 -0.274588 -0.158716
v -0.070884 -0.303234 -0.140810
v -0.076239 -0.296915 -0.143976
v -0.075245 -0.301549 -0.126134
v -0.071902 -0.289767 -0.128714
v -0.070648 -0.280288 -0.124706
v -0.073113 -0.267326 -0.138366
v -0.074189 -0.254758 -0.144740
v -0.080131 -0.262323 -0.137739
v -0.079286 -0.225560 -0.122083
v -0.077076 -0.274367 -0.126885
v -0.073847 -0.282413 -0.113265
v -0.070140 -0.282735 -0.097700
v -0.070615 -0.242676 -0.091885
v -0.065922 -0.288925 -0.108650
v -0.064244 -0.307521 -0.104839
v -0.070090 -0.327720 -0.126969
v -0.074268 -0.338420 -0.128869
v -0.071747 -0.338204 -0.119864
v -0.067200 -0.312291 -0.125137
v -0.067329 -0.313796 -0.107423
v -0.058153 -0.297158 -0.091675
v -0.059256 -0.324766 -0.108026
v -0.067476 -0.345718 -0.131375
v -0.081736 -0.374198 -0.157465
v -0.078276 -0.375907 -0.139335
v -0.056845 -0.348865 -0.102926
v -0.070936 -0.388857 -0.135564
v -0.079338 -0.432119 -0.147798
v -0.070906 -0.575867 -0.158037
v -0.062150 -0.540129 -0.137426
v -0.076286 -0.452802 -0.144852
v -0.077603 -0.439971 -0.149393
v -0.069178 -0.459692 -0.137949
v -0.061338 -0.485851 -0.129392
v -0.049172 -0.526853 -0.123005
v -0.047104 -0.551770 -0.120357
v -0.051291 -0.506556 -0.122914
v -0.047716 -0.574658 -0.118716
v -0.044038 -0.581939 -0.112184
v -0.032234 -0.574279 -0.108383
v -0.048281 -0.593164 -0.115346
v -0.081945 -0.243569 -0.141240
v -0.073324 -0.229422 -0.108915
v -0.075861 -0.223196 -0.131968
v -0.068993 -0.226631 -0.113401
v -0.063374 -0.210078 -0.082663
v -0.067877 -0.235830 -0.096742
v -0.062423 -0.247174 -0.082879
v -0.055241 -0.230470 -0.073690
v -0.066792 -0.262329 -0.083425
v -0.062944 -0.284325 -0.096704
v -0.061021 -0.270823 -0.086181
v -0.035440 -0.236676 -0.035713
v -0.031447 -0.262169 -0.028148
v -0.050935 -0.305290 -0.080129
v -0.008412 -0.217407 -0.019268
v -0.008714 -0.260538 -0.013546
v -0.035937 -0.280131 -0.038128
v -0.051303 -0.322778 -0.082411
v -0.044790 -0.311304 -0.072337
v -0.053380 -0.329528 -0.081188
v -0.032644 -0.340684 -0.060223
v -0.040242 -0.344410 -0.064341
v -0.053796 -0.333013 -0.089208
v -0.049410 -0.335420 -0.096094
v -0.040284 -0.344055 -0.087134
v -0.031947 -0.376860 -0.079124
v -0.062326 -0.353603 -0.102810
v -0.063475 -0.356854 -0.109071
v -0.052492 -0.371574 -0.093711
v -0.031995 -0.351505 -0.079694
v -0.032866 -0.354636 -0.060909
v -0.067891 -0.458801 -0.132407
v -0.067652 -0.393058 -0.119734
v -0.061015 -0.354646 -0.122921
v -0.056223 -0.362277 -0.115734
v -0.059869 -0.376805 -0.106902
v -0.050627 -0.369901 -0.110673
v -0.046644 -0.379472 -0.106670
v -0.058179 -0.409708 -0.117528
v -0.031626 -0.520734 -0.109725
v -0.021808 -0.584494 -0.109455
v -0.021073 -0.597021 -0.109801
v -0.015937 -0.581050 -0.113855
v -0.071905 -0.234878 -0.142350
v -0.068488 -0.220080 -0.132914
v -0.047210 -0.214173 -0.108647
v -0.043506 -0.194312 -0.083643
v -0.041679 -0.213994 -0.057072
v -0.053030 -0.195822 -0.066521
v -0.039549 -0.181774 -0.052280
v -0.037465 -0.198445 -0.088314
v -0.064283 -0.216965 -0.133961
v -0.068822 -0.225782 -0.147535
v -0.047999 -0.223484 -0.149175
v -0.052702 -0.215820 -0.136711
v -0.051524 -0.222568 -0.120705
v -0.043216 -0.206427 -0.097961
v -0.047691 -0.204035 -0.112218
v -0.042890 -0.193025 -0.096322
v -0.052616 -0.212521 -0.131695
v -0.060468 -0.201623 -0.121647
v -0.060133 -0.173889 -0.108373
v -0.052036 -0.165409 -0.081757
v -0.054377 -0.189441 -0.099127
v -0.063747 -0.187985 -0.139801
v -0.058968 -0.207039 -0.151564
v -0.059510 -0.184205 -0.146982
v -0.058110 -0.817539 0.040617
v -0.043177 -0.817184 0.021805
v -0.033232 -0.792485 -0.002481
v -0.000785 -0.784803 -0.042535
v -0.014682 -0.768668 -0.035475
v -0.011030 -0.747580 -0.065015
v -0.038238 -0.716560 -0.063680
v -0.038309 -0.718443 -0.069842
v -0.014550 -0.735117 -0.066486
v -0.028502 -0.724186 -0.061885
v -0.014092 -0.738758 -0.075686
v -0.059313 -0.482761 -0.128150
v -0.056534 -0.410957 -0.105825
v -0.043535 -0.405211 -0.092656
v -0.042204 -0.436945 -0.097338
v -0.046555 -0.430908 -0.108592
v -0.034741 -0.472393 -0.105632
v -0.005171 -0.512839 -0.116621
v -0.012315 -0.544090 -0.116438
v -0.012908 -0.562993 -0.116757
v -0.001633 -0.597228 -0.123378
v -0.023136 -0.615499 -0.103293
v 0.020636 -0.534600 -0.143494
v 0.014840 -0.631838 -0.147067
v -0.005583 -0.529901 -0.119553
v 0.021673 -0.581991 -0.161402
v -0.012316 -0.643535 -0.091761
v -0.010011 -0.627837 -0.109248
v -0.024423 -0.664183 -0.113567
v -0.005344 -0.678401 -0.110030
v -0.013565 -0.677339 -0.116279
v 0.011354 -0.709217 -0.125700
v 0.004500 -0.669633 -0.107723
v 0.012676 -0.721474 -0.152207
v 0.020450 -0.719978 -0.160534
v 0.015428 -0.749497 -0.148247
v 0.008311 -0.770073 -0.146225
v 0.014019 -0.765655 -0.142798
v 0.006467 -0.718438 -0.144803
v 0.007014 -0.736041 -0.135783
v 0.006245 -0.752161 -0.129472
v 0.002847 -0.718740 -0.125758
v -0.047100 -0.156741 -0.077045
v -0.041655 -0.147201 -0.065533
v -0.036222 -0.184831 -0.082670
v -0.031336 -0.167050 -0.063414
v -0.036134 -0.147448 -0.060380
v -0.045074 -0.179663 -0.080605
v -0.026977 -0.174269 -0.071237
v -0.018932 -0.162352 -0.053837
v -0.022389 -0.167078 -0.039369
v -0.021116 -0.195375 -0.041285
v -0.038424 -0.216954 -0.161549
v -0.043381 -0.377985 -0.102742
v -0.045812 -0.373954 -0.083114
v -0.037261 -0.393057 -0.100609
v -0.035409 -0.387996 -0.097778
v -0.021277 -0.398402 -0.066741
v -0.014036 -0.387241 -0.073224
v -0.038482 -0.388308 -0.077493
v -0.022106 -0.405128 -0.069897
v -0.026277 -0.399506 -0.094776
v -0.027409 -0.427908 -0.086882
v -0.014395 -0.405077 -0.093282
v -0.020282 -0.409497 -0.084769
v -0.009729 -0.420793 -0.085119
v -0.032898 -0.465797 -0.094867
v -0.026069 -0.472141 -0.093130
v -0.022561 -0.477683 -0.104814
v 0.009972 -0.484510 -0.118823
v -0.021497 -0.416833 -0.094794
v -0.007478 -0.399617 -0.070543
v 0.001903 -0.388798 -0.072181
v 0.013260 -0.388515 -0.098346
v -0.016352 -0.464449 -0.094007
v 0.026539 -0.464033 -0.123508
v 0.044293 -0.403142 -0.125851
v 0.046775 -0.443980 -0.138629
v 0.021485 -0.419559 -0.107462
v 0.007431 -0.433658 -0.104042
v 0.031762 -0.409104 -0.103722
v 0.003401 -0.432984 -0.092956
v 0.010969 -0.405067 -0.087915
v -0.005560 -0.457615 -0.105404
v 0.005782 -0.818670 -0.046490
v 0.006556 -0.818188 -0.067026
v 0.000069 -0.815994 -0.094464
v 0.004989 -0.817672 -0.135472
v 0.002638 -0.793963 -0.127131
v 0.001576 -0.789153 -0.103839
v 0.002797 -0.818155 -0.100533
v -0.016615 -0.815417 -0.149204
v 0.009733 -0.796440 -0.147519
v -0.038417 -0.688145 -0.084140
v -0.017953 -0.702303 -0.094836
v -0.021208 -0.702398 -0.087705
v -0.013026 -0.731947 -0.094377
v -0.002309 -0.755551 -0.088854
v -0.004596 -0.746022 -0.101073
v -0.000293 -0.753984 -0.111288
v 0.004335 -0.743487 -0.105675
v 0.004476 -0.763390 -0.088833
v 0.011139 -0.737411 -0.119836
v 0.005489 -0.728950 -0.110902
v -0.002373 -0.722806 -0.107855
v -0.002077 -0.732306 -0.097655
v -0.002746 -0.695753 -0.122932
v -0.007530 -0.685780 -0.119385
v 0.000195 -0.638861 -0.118033
v -0.034597 -0.192170 -0.082819
v -0.029455 -0.184319 -0.074244
v -0.009881 -0.188702 -0.036001
v 0.002171 -0.189520 -0.029309
v 0.012662 -0.229596 -0.021936
v 0.020880 -0.199245 -0.036391
v 0.001381 -0.184592 -0.037205
v 0.010879 -0.188181 -0.033400
v 0.002201 -0.148867 -0.025617
v 0.001801 -0.177925 -0.028246
v 0.041949 -0.234249 -0.043986
v 0.024538 -0.267923 -0.028522
v -0.008972 -0.293720 -0.024426
v 0.016317 -0.285922 -0.031124
v 0.051590 -0.246367 -0.059120
v 0.046492 -0.233768 -0.055274
v 0.044182 -0.190761 -0.046823
v 0.034549 -0.215671 -0.043573
v 0.052399 -0.202634 -0.054620
v -0.029334 -0.321603 -0.058065
v -0.013209 -0.310192 -0.037046
v -0.012207 -0.326086 -0.048950
v -0.026583 -0.355712 -0.050205
v -0.022538 -0.361184 -0.074894
v -0.014921 -0.351635 -0.049293
v -0.012362 -0.359504 -0.046260
v 0.035470 -0.317063 -0.073036
v 0.046405 -0.311529 -0.084431
v 0.052787 -0.282661 -0.079131
v 0.056917 -0.260027 -0.074330
v 0.060445 -0.282884 -0.078775
v 0.053866 -0.301682 -0.096078
v 0.026117 -0.320883 -0.065845
v 0.033250 -0.335768 -0.076965
v 0.049800 -0.326318 -0.093874
v 0.062982 -0.299143 -0.094675
v 0.061069 -0.301283 -0.109111
v 0.065911 -0.308588 -0.123883
v 0.061384 -0.324492 -0.109968
v 0.043521 -0.338127 -0.084922
v 0.004694 -0.325876 -0.054183
v -0.016219 -0.365552 -0.049808
v 0.012924 -0.387780 -0.079784
v -0.012880 -0.365021 -0.072601
v 0.006475 -0.377924 -0.080242
v 0.015908 -0.353507 -0.068115
v 0.022106 -0.350826 -0.085328
v 0.006855 -0.356712 -0.077371
v 0.021267 -0.369641 -0.088473
v 0.038856 -0.343540 -0.097572
v 0.020324 -0.377893 -0.082769
v 0.033574 -0.364125 -0.095641
v 0.003585 -0.395573 -0.095443
v -0.001372 -0.402596 -0.093905
v 0.023841 -0.392525 -0.094983
v 0.067535 -0.384916 -0.147928
v 0.034598 -0.384500 -0.103341
v 0.069676 -0.387335 -0.162425
v 0.067304 -0.342459 -0.151329
v 0.042440 -0.368870 -0.115529
v 0.033294 -0.374322 -0.109535
v 0.022728 -0.381388 -0.102676
v 0.034632 -0.374415 -0.095956
v -0.022878 -0.136470 -0.048364
v -0.007755 -0.155049 -0.053677
v 0.005498 -0.781709 -0.083808
v -0.018906 -0.165308 -0.062580
v -0.013320 -0.151896 -0.048756
v -0.011557 -0.162661 -0.057056
v -0.005347 -0.149241 -0.046340
v -0.003229 -0.148521 -0.050021
v 0.007142 -0.134042 -0.036485
v 0.005368 -0.142763 -0.041831
v 0.008345 -0.148473 -0.029338
v 0.016125 -0.150628 -0.052640
v 0.010269 -0.149892 -0.050233
v 0.027204 -0.166132 -0.054137
v 0.015679 -0.157478 -0.053706
v 0.022770 -0.164259 -0.034370
v -0.001079 -0.783848 -0.090798
v 0.000320 -0.768588 -0.082376
v -0.005324 -0.743576 -0.072262
v -0.004471 -0.755598 -0.071097
v 0.000368 -0.752327 -0.078025
v 0.007513 -0.783069 -0.105713
v 0.002855 -0.774283 -0.106918
v 0.010024 -0.788147 -0.123008
v 0.005938 -0.782704 -0.115422
v -0.008817 -0.721242 -0.092959
v 0.001162 -0.703831 -0.127072
v -0.020280 -0.171829 -0.064031
v 0.006886 0.052620 -0.016259
v 0.042939 0.013243 -0.028986
v 0.078308 -0.021950 -0.058053
v 0.075802 -0.011211 -0.054123
v 0.065713 0.014775 -0.044202
v 0.049387 -0.109671 -0.046635
v 0.054380 -0.163351 -0.064435
v 0.087127 -0.078158 -0.081875
v 0.089512 -0.110951 -0.104280
v 0.070212 -0.179712 -0.091542
v 0.074516 -0.202294 -0.128829
v 0.070493 -0.189399 -0.102275
v 0.072867 -0.195320 -0.109545
v 0.065744 -0.183775 -0.084720
v 0.065544 -0.178228 -0.085502
v 0.061193 -0.203119 -0.091194
v 0.049142 -0.181775 -0.069131
v 0.046585 -0.201332 -0.088847
v 0.053345 -0.216465 -0.104945
v 0.042920 -0.216032 -0.087209
v 0.067366 -0.218099 -0.113232
v 0.046233 -0.223910 -0.093845
v 0.048588 -0.234588 -0.102800
v 0.057310 -0.223656 -0.093099
v 0.052853 -0.211095 -0.083197
v 0.032740 -0.159749 -0.052402
v 0.035363 -0.179205 -0.071563
v 0.035903 -0.139237 -0.046890
v 0.021394 -0.109613 -0.033418
v 0.017975 -0.117855 -0.037080
v 0.012160 -0.116165 -0.031586
v 0.010647 -0.351677 -0.059057
v 0.003863 -0.346885 -0.056483
v 0.034580 -0.460927 -0.133379
v 0.044718 -0.449033 -0.142144
v 0.049664 -0.453630 -0.147040
v 0.022184 -0.476160 -0.126516
v 0.009785 -0.492343 -0.123180
v 0.010769 -0.499578 -0.123879
v -0.001346 -0.513835 -0.120980
v 0.008710 -0.653211 -0.129641
v 0.019819 -0.695545 -0.124630
v 0.016324 -0.667111 -0.131741
v 0.015503 -0.716988 -0.137187
v 0.030597 -0.705343 -0.147297
v 0.004593 -0.713367 -0.134939
v 0.007813 -0.763826 -0.116521
v 0.011764 -0.660849 -0.124256
v 0.023520 -0.665320 -0.137445
v 0.016719 -0.648141 -0.134365
v 0.031144 -0.663453 -0.155445
v 0.021721 -0.640917 -0.144636
v 0.022937 -0.675660 -0.141704
v 0.020210 -0.168220 -0.058586
v 0.023560 -0.166607 -0.061909
v 0.023581 -0.179555 -0.064074
v 0.034550 -0.178438 -0.061959
v 0.033399 -0.197503 -0.074059
v 0.028824 -0.189083 -0.069063
v 0.035405 -0.179446 -0.040814
v 0.062355 -0.217942 -0.068051
v 0.053414 -0.246225 -0.068151
v 0.071331 -0.294663 -0.113454
v 0.083288 -0.242256 -0.113403
v 0.079088 -0.282240 -0.127229
v 0.086572 -0.253697 -0.129395
v 0.077136 -0.250564 -0.134056
v 0.078369 -0.265496 -0.136544
v 0.081785 -0.243745 -0.144153
v 0.069623 -0.289344 -0.125931
v 0.070246 -0.314988 -0.129137
v 0.043771 -0.340824 -0.092238
v 0.055468 -0.330982 -0.115595
v 0.065121 -0.319271 -0.136140
v 0.078018 -0.297314 -0.158354
v 0.074324 -0.275285 -0.135229
v 0.076206 -0.238291 -0.124331
v 0.077843 -0.240485 -0.137164
v 0.076007 -0.241755 -0.151687
v 0.058727 -0.342516 -0.123306
v 0.060238 -0.351888 -0.120915
v 0.046636 -0.355324 -0.107705
v 0.048086 -0.364883 -0.120846
v 0.058418 -0.354335 -0.134511
v 0.075647 -0.330433 -0.163005
v 0.069974 -0.334274 -0.144910
v 0.044330 -0.195047 -0.071729
v 0.037700 -0.206308 -0.079618
v 0.079784 0.042042 -0.015661
v 0.083098 -0.037880 -0.013877
v 0.087551 -0.005900 -0.015308
v 0.102768 -0.026552 -0.007875
v 0.137365 -0.076389 -0.002473
v 0.085778 -0.120797 -0.015952
v 0.082762 -0.086380 -0.014780
v 0.066558 -0.056800 -0.028719
v 0.042801 -0.259189 -0.028881
v 0.052227 -0.275563 -0.022544
v 0.044799 -0.260439 -0.037080
v 0.048504 -0.237498 -0.030736
v 0.061777 -0.254622 -0.013112
v 0.069475 -0.216388 -0.014334
v 0.072588 -0.265083 -0.082329
v 0.054257 -0.211162 -0.030636
v 0.072140 -0.226952 -0.015669
v 0.079506 -0.208576 -0.014539
v 0.068249 -0.252068 -0.014670
v 0.080258 -0.287672 -0.003594
v 0.071809 -0.309520 -0.009632
v 0.061876 -0.292647 -0.015784
v 0.098933 -0.333685 -0.062736
v 0.077708 -0.283830 -0.078073
v 0.064524 -0.267804 -0.071573
v 0.083057 -0.227448 -0.083456
v 0.058868 -0.181112 -0.028676
v 0.063613 -0.129239 -0.028799
v 0.081347 -0.033843 -0.061485
v 0.075314 -0.247796 -0.010929
v 0.076556 -0.175979 -0.013428
v 0.083119 -0.162761 -0.014434
v 0.092308 -0.183547 -0.011596
v 0.090514 -0.189286 -0.007944
v 0.106940 -0.179303 -0.005335
v 0.097018 -0.161519 -0.011158
v 0.079994 -0.140736 -0.013791
v 0.092408 -0.156819 -0.009429
v 0.099263 -0.135602 -0.006055
v 0.117543 -0.190856 -0.000580
v 0.105816 -0.155100 -0.006165
v 0.111561 -0.203052 -0.002811
v 0.128475 -0.212374 -0.000145
v 0.090414 -0.207685 -0.006514
v 0.083490 -0.244707 -0.011598
v 0.073055 -0.266124 -0.010172
v 0.096760 -0.213522 -0.008361
v 0.111457 -0.228990 -0.003800
v 0.100027 -0.244585 -0.006364
v 0.096874 -0.200391 -0.008142
v 0.140712 -0.130872 -0.003596
v 0.106498 -0.134237 -0.007284
v 0.051715 -0.237778 -0.112521
v 0.075897 -0.243254 -0.098168
v 0.069195 -0.230494 -0.079304
v 0.060709 -0.237547 -0.110266
v 0.056753 -0.234791 -0.123827
v 0.060497 -0.232660 -0.130886
v 0.063513 -0.240390 -0.154620
v 0.057755 -0.237284 -0.138345
v 0.067711 -0.224175 -0.157166
v 0.072067 -0.241293 -0.131194
v 0.071536 -0.226563 -0.134374
v 0.076496 -0.207503 -0.130103
v 0.073171 -0.203326 -0.142680
v 0.070332 -0.197840 -0.158881
v 0.103991 -0.007856 -0.147307
v 0.100793 -0.033695 -0.138025
v 0.112482 -0.002091 -0.094210
v 0.114385 -0.004965 -0.114459
v 0.109187 0.002866 -0.084982
v 0.111393 -0.022043 -0.106089
v 0.106842 -0.031082 -0.121222
v 0.107819 -0.028956 -0.096771
v 0.103753 -0.025539 -0.086208
v 0.101565 -0.032575 -0.087214
v 0.129610 -0.124390 -0.066039
v 0.066289 -0.259997 -0.077907
v 0.064331 -0.251711 -0.082491
v 0.078764 -0.304944 -0.162215
v 0.070395 -0.313235 -0.151254
v 0.089240 -0.293416 -0.005929
v 0.097463 -0.313702 0.001931
v 0.095258 -0.292655 -0.001140
v 0.088227 -0.272208 -0.008763
v 0.094087 -0.266427 -0.003173
v 0.112567 -0.293984 0.001072
v 0.110288 -0.263853 -0.000245
v 0.119785 -0.283752 0.002024
v 0.123764 -0.300049 0.004710
v 0.098498 -0.307051 -0.003852
v 0.099467 -0.348340 0.000519
v 0.084006 -0.327230 -0.004180
v 0.076775 -0.270665 -0.012025
v 0.109454 -0.241764 -0.000306
v 0.110418 -0.324454 0.001003
v 0.081652 -0.046640 -0.066856
v 0.084853 -0.056934 -0.071363
v 0.084678 -0.065673 -0.074462
v 0.093212 -0.265392 -0.072140
v 0.098264 -0.220258 -0.076041
v 0.088994 -0.168437 -0.081552
v 0.088600 -0.070849 -0.078795
v 0.106680 -0.037107 -0.106634
v 0.092510 -0.069949 -0.086305
v 0.092639 -0.093943 -0.084357
v 0.097276 -0.052877 -0.086923
v 0.110794 -0.057739 -0.077863
v 0.083075 -0.301080 -0.073031
v 0.125363 -0.192605 -0.064269
v 0.103671 -0.301012 -0.065867
v 0.105368 -0.296222 -0.062780
v 0.091999 -0.318771 -0.067567
v 0.133201 -0.346476 -0.054019
v 0.119379 -0.323470 -0.057476
v 0.106384 -0.346831 -0.058754
v 0.137050 -0.390689 -0.045395
v 0.114625 -0.362747 -0.052462
v 0.124432 -0.373215 -0.052356
v 0.116807 -0.369490 0.004506
v 0.133691 -0.388216 0.006032
v 0.114750 -0.337563 0.006923
v 0.124547 -0.321792 0.002222
v 0.120051 -0.338363 0.004660
v 0.131249 -0.283723 0.001546
v 0.127487 -0.241669 -0.000574
v 0.139291 -0.367588 0.011352
v 0.117536 -0.332800 0.000414
v 0.120948 -0.244659 0.002189
vn 0.0346 -0.2211 0.9746
vn 0.1197 -0.1558 0.9805
vn 0.7457 0.2714 0.6085
vn 0.6619 0.3180 0.6788
vn 0.6537 0.2715 0.7064
vn 0.8285 0.5295 0.1821
vn 0.7336 0.2879 -0.6155
vn 0.3891 -0.1009 0.9157
vn -0.0471 -0.8497 0.5251
vn -0.0000 1.0000 -0.0000
vn 0.7787 0.5711 -0.2596
vn 0.7757 0.3157 -0.5464
vn 0.5963 0.7454 0.2981
vn 0.3861 0.3141 0.8673
vn 0.3761 0.1607 0.9125
vn 0.8249 0.4847 0.2910
vn 0.7716 0.5856 -0.2482
vn 0.7293 0.1142 0.6746
vn -0.4590 -0.2164 -0.8617
vn -0.4570 -0.0475 0.8882
vn 0.0107 -0.1008 0.9948
vn 0.6285 -0.2048 0.7504
vn -0.1285 -0.9579 0.2569
vn -0.4554 -0.2008 -0.8674
vn -0.0022 -0.9155 0.4022
vn -0.0688 -0.9588 0.2755
vn -0.0361 -0.9626 0.2684
vn 0.6264 -0.3498 0.6966
vn 0.6296 -0.3514 0.6929
vn 0.8756 -0.1101 0.4703
vn 0.8570 0.4245 -0.2923
vn 0.8616 0.4569 -0.2212
vn 0.8438 0.4740 -0.2517
vn 0.5159 0.0709 0.8537
vn 0.1256 -0.0033 0.9921
vn 0.8356 0.2366 0.4957
vn 0.9335 0.1735 -0.3138
vn 0.8462 -0.0212 0.5324
vn 0.9700 0.0910 -0.2256
vn 0.4096 0.1095 0.9057
vn 0.8656 0.1412 0.4804
vn 0.8953 0.1123 0.4310
vn 0.9087 -0.0816 0.4095
vn 0.6342 0.4250 -0.6460
vn 0.6891 -0.5792 -0.4356
vn 0.6885 -0.5746 -0.4424
vn -0.1082 -0.9929 0.0502
vn 0.5862 -0.5660 -0.5797
vn 0.5789 -0.4858 -0.6548
vn 0.7876 0.0565 -0.6136
vn 0.6690 0.3880 -0.6340
vn -0.3246 -0.0424 -0.9449
vn 0.6607 0.3608 -0.6583
vn 0.9069 0.2426 0.3444
vn 0.8972 0.2493 0.3646
vn 0.8175 0.2724 -0.5074
vn -0.2422 0.1154 -0.9633
vn 0.5603 0.4343 -0.7053
vn 0.6812 0.2920 -0.6713
vn 0.6805 0.2906 -0.6727
vn 0.6336 0.3921 -0.6670
vn 0.6923 0.3307 0.6414
vn 0.7977 0.3470 0.4932
vn 0.8421 0.3015 0.4472
vn -0.9274 -0.1761 0.3300
vn 0.8723 0.1981 0.4471
vn 0.6930 0.1011 -0.7138
vn 0.6906 0.1786 -0.7009
vn 0.9087 0.2717 0.3169
vn 0.9040 0.2793 0.3237
vn 0.7491 0.0240 -0.6621
vn 0.6890 0.1797 -0.7021
vn -0.2091 0.0208 -0.9777
vn -0.3208 -0.0435 -0.9462
vn 0.6769 0.2036 -0.7074
vn 0.5756 0.2308 -0.7845
vn 0.8596 0.0424 -0.5092
vn 0.8260 0.2804 -0.4889
vn 0.5168 0.7194 -0.4642
vn -0.1824 -0.1099 -0.9771
vn 0.6410 0.0598 -0.7652
vn 0.6621 0.5557 -0.5029
vn -0.3077 -0.0954 -0.9467
vn -0.3022 -0.0985 -0.9481
vn 0.9444 -0.2622 -0.1985
vn -0.8073 0.5826 0.0943
vn -0.8645 0.4943 0.0908
vn -0.9440 0.0973 0.3153
vn -0.8605 0.3228 0.3942
vn -0.8739 0.1245 0.4699
vn -0.8335 0.5218 0.1816
vn -0.8294 0.5398 0.1436
vn -0.8632 -0.2282 0.4504
vn -0.8710 -0.2193 0.4397
vn -0.9005 -0.2284 -0.3700
vn -0.3372 -0.8156 -0.4703
vn -0.9066 -0.1679 -0.3872
vn -0.8467 0.5264 -0.0775
vn -0.8110 0.5813 -0.0660
vn -0.4548 -0.7276 -0.5135
vn -0.9204 0.1224 -0.3713
vn -0.9748 0.1348 -0.1778
vn -0.8161 0.5710 -0.0889
vn -0.8318 0.3398 -0.4390
vn -0.9919 0.1173 0.0489
vn -0.9452 0.2409 0.2204
vn -0.3263 0.4052 0.8540
vn -0.8441 -0.2084 0.4940
vn -0.7939 -0.2643 0.5476
vn -0.3329 -0.7497 0.5719
vn -0.8487 0.5136 0.1261
vn -0.5403 0.7807 -0.3139
vn -0.7776 0.5051 0.3744
vn -0.9053 0.2465 0.3459
vn -0.9944 0.0980 -0.0390
vn -0.4348 0.4810 0.7613
vn -0.3122 0.4419 0.8410
vn -0.9565 0.0935 0.2764
vn -0.9682 0.1345 0.2109
vn -0.9829 0.1447 0.1138
vn -0.8483 0.4796 0.2245
vn -0.6217 -0.3326 0.7092
vn -0.5523 -0.3331 0.7642
vn 0.4200 -0.8326 0.3611
vn 0.4193 -0.8353 0.3556
vn 0.4201 -0.8346 0.3564
vn 0.4110 -0.8056 0.4268
vn -0.5506 -0.3059 0.7767
vn 0.8430 -0.4101 -0.3480
vn 0.4152 -0.8006 0.4319
vn -0.5015 -0.3125 0.8067
vn 0.4141 -0.7675 0.4894
vn 0.8474 -0.3993 -0.3500
vn 0.7920 -0.6104 -0.0115
vn 0.1122 -0.9185 0.3792
vn -0.2474 -0.7710 0.5869
vn -0.3752 -0.6119 0.6963
vn -0.6276 -0.2810 0.7261
vn -0.2050 -0.8676 0.4531
vn 0.4712 -0.8524 0.2266
vn -0.3521 -0.7619 0.5437
vn 0.4874 -0.8393 0.2410
vn 0.4874 -0.8410 0.2349
vn 0.8924 -0.4187 -0.1682
vn 0.4592 -0.8483 -0.2637
vn 0.4347 -0.8527 -0.2897
vn -0.8484 -0.1286 0.5135
vn 0.7665 -0.4359 -0.4717
vn 0.9405 -0.2374 -0.2430
vn 0.8679 -0.3311 -0.3702
vn 0.8461 -0.3808 -0.3729
vn 0.8870 -0.3731 -0.2720
vn 0.8912 -0.4203 -0.1704
vn 0.8037 -0.5949 -0.0129
vn -0.8318 -0.0443 0.5533
vn -0.6481 -0.0502 0.7599
vn -0.6017 -0.0632 0.7962
vn -0.7506 -0.0324 0.6600
vn -0.3880 -0.1372 0.9114
vn -0.2844 -0.0544 0.9572
vn -0.0226 -0.0864 0.9960
vn 0.1988 -0.0541 0.9785
vn 0.1976 -0.0544 0.9788
vn 0.0660 -0.0222 0.9976
vn 0.4521 -0.1571 0.8780
vn 0.0055 -0.1517 0.9884
vn -0.0351 -0.1382 0.9898
vn 0.3742 -0.1768 0.9103
vn 0.0621 -0.0975 0.9933
vn -0.3108 -0.1510 0.9384
vn -0.1864 -0.3284 0.9260
vn -0.7331 0.3742 0.5679
vn -0.5273 -0.1427 0.8376
vn -0.7984 -0.0507 0.5999
vn -0.8193 -0.0423 0.5719
vn -0.8566 -0.0325 0.5149
vn -0.7824 -0.1316 0.6087
vn -0.9325 -0.1122 0.3433
vn -0.9866 -0.1062 0.1239
vn -0.9304 -0.1108 0.3494
vn -0.9934 -0.0502 -0.1034
vn -0.9920 -0.0527 -0.1143
vn -0.9935 -0.0350 -0.1087
vn -0.9724 0.0024 -0.2334
vn -1.0000 0.0026 0.0074
vn -0.9591 -0.0243 0.2820
vn -0.9727 -0.0334 0.2296
vn 0.3341 -0.8914 0.3063
vn 0.8326 -0.5424 0.1123
vn 0.7200 -0.6900 0.0744
vn 0.7123 -0.6950 0.0978
vn 0.5075 -0.8345 -0.2144
vn 0.8597 -0.4870 0.1543
vn 0.8592 -0.4894 0.1491
vn -0.9790 -0.1073 0.1731
vn -0.8700 0.0255 0.4924
vn 0.0674 -0.9306 -0.3599
vn -0.8741 0.4085 0.2629
vn -0.9828 0.0314 -0.1821
vn -0.9829 0.0174 -0.1833
vn -0.9007 -0.0415 -0.4324
vn -0.8883 -0.0552 -0.4560
vn -0.8983 -0.0648 -0.4346
vn -0.9083 -0.0407 -0.4163
vn -0.5132 -0.7389 0.4366
vn -0.8207 -0.4507 0.3512
vn -0.8888 -0.3549 0.2899
vn -0.9621 -0.1610 0.2202
vn -0.5632 0.6165 -0.5502
vn -0.6817 0.5767 -0.4502
vn -0.9655 0.2275 -0.1267
vn -0.8754 0.4083 0.2588
vn -0.8921 0.4394 -0.1058
vn -0.9987 0.0170 0.0474
vn -0.6848 0.5778 -0.4441
vn -0.9604 -0.1045 -0.2582
vn -0.3175 -0.9198 -0.2306
vn -0.9260 -0.0447 -0.3749
vn -0.0331 -0.9938 -0.1065
vn -0.0723 -0.9876 -0.1396
vn 0.1256 -0.9857 0.1120
vn -0.9961 -0.0730 -0.0499
vn -0.9584 0.0645 0.2780
vn -0.9491 0.0890 0.3023
vn -0.4653 0.7613 -0.4516
vn -0.8580 0.5137 -0.0019
vn -0.9039 -0.1856 0.3855
vn -0.8861 -0.2686 0.3778
vn -0.8740 0.3830 0.2990
vn -0.8878 -0.1168 -0.4452
vn -0.8802 -0.0832 -0.4673
vn -0.7532 0.4294 0.4984
vn -0.7942 0.5759 -0.1939
vn -0.9037 0.4196 0.0852
vn -0.9657 0.2307 0.1196
vn -0.7033 -0.2933 0.6476
vn -0.8113 0.5656 -0.1481
vn -0.9103 0.3866 0.1479
vn -0.8502 0.5236 -0.0553
vn -0.5261 0.7618 -0.3780
vn -0.8711 -0.1413 0.4703
vn -0.9469 0.3201 -0.0305
vn -0.8566 0.4438 0.2631
vn -0.9009 0.3001 0.3136
vn -0.9483 0.0849 0.3057
vn -0.1834 -0.9807 0.0680
vn 0.0030 -1.0000 0.0037
vn 0.0051 -0.9999 0.0140
vn 0.0021 -1.0000 0.0080
vn 0.0013 -1.0000 0.0035
vn 0.0013 -1.0000 0.0036
vn 0.0002 -1.0000 0.0001
vn 0.0633 -0.9980 -0.0036
vn -0.0022 -1.0000 0.0095
vn -0.0138 -0.9995 -0.0276
vn -0.9810 0.0878 0.1732
vn -0.8144 -0.0069 0.5802
vn -0.7933 0.1707 0.5844
vn -0.7387 0.0870 0.6684
vn -0.7495 -0.1329 0.6485
vn -0.8933 0.4109 0.1822
vn -0.4456 -0.4969 0.7447
vn -0.4622 -0.4747 0.7490
vn -0.4584 -0.4700 0.7543
vn -0.3487 0.4865 0.8011
vn -0.7972 0.1306 0.5894
vn -0.8299 0.5528 -0.0751
vn -0.7611 0.6430 -0.0849
vn -0.8775 0.3798 0.2927
vn -0.9346 0.2388 0.2635
vn -0.9258 0.2822 0.2517
vn -0.9233 0.3266 0.2021
vn -0.0477 -0.5816 0.8121
vn 0.0230 -0.5464 0.8372
vn -0.4213 -0.4444 0.7906
vn 0.0487 -0.5992 0.7991
vn 0.2796 -0.7698 0.5738
vn 0.4530 -0.7058 0.5447
vn -0.7037 0.5107 0.4939
vn -0.4052 -0.4383 0.8023
vn -0.4883 0.5563 0.6724
vn -0.8373 0.3739 0.3989
vn -0.7944 0.4512 0.4065
vn -0.6622 0.7392 -0.1224
vn -0.7267 0.6852 -0.0500
vn -0.5954 -0.1389 0.7914
vn -0.6027 -0.1938 0.7741
vn -0.7782 0.6190 0.1065
vn -0.4594 0.8271 -0.3237
vn -0.7297 0.6057 0.3174
vn -0.6269 0.6504 0.4290
vn -0.4892 0.7603 0.4275
vn -0.5225 0.2643 0.8106
vn -0.4441 0.2006 0.8732
vn -0.3720 0.8440 -0.3863
vn -0.7760 0.6035 0.1833
vn -0.4335 -0.1971 0.8793
vn -0.7088 0.6784 0.1935
vn -0.6131 0.7266 0.3102
vn -0.4677 0.8305 0.3026
vn -0.2306 -0.2962 0.9269
vn -0.4236 -0.1913 0.8854
vn -0.2090 -0.2967 0.9318
vn 0.1407 0.8019 0.5807
vn 0.2576 0.8201 0.5109
vn -0.5298 0.8216 0.2105
vn -0.4384 0.8851 0.1563
vn 0.3758 -0.8417 0.3878
vn -0.3449 -0.4531 0.8220
vn -0.8737 0.3275 0.3596
vn -0.9094 0.2026 0.3632
vn -0.8234 0.4887 0.2885
vn -0.7521 0.5555 0.3546
vn 0.2789 -0.9328 0.2284
vn 0.5934 -0.7421 0.3115
vn 0.6020 -0.7070 0.3711
vn -0.0554 0.9035 0.4249
vn -0.1755 0.6831 0.7090
vn -0.4061 -0.8631 0.3002
vn -0.2577 -0.4251 0.8677
vn -0.1056 -0.3202 0.9415
vn -0.7192 0.5989 0.3522
vn -0.5516 0.6924 0.4652
vn -0.5015 0.7292 0.4656
vn -0.1458 -0.3651 0.9195
vn -0.1675 -0.1206 0.9785
vn 0.2497 0.7025 0.6664
vn -0.2472 -0.3432 0.9061
vn -0.2884 -0.8191 0.4959
vn -0.6299 -0.7509 0.1987
vn -0.1905 0.3365 0.9222
vn -0.1047 0.8769 0.4691
vn 0.1026 0.5715 0.8142
vn -0.1587 -0.2648 0.9511
vn -0.3011 0.8707 -0.3889
vn 0.5923 0.6819 0.4291
vn 0.4226 0.8731 -0.2432
vn 0.4110 0.8705 -0.2708
vn -0.2665 0.9488 -0.1697
vn -0.6251 0.6450 0.4395
vn -0.9305 0.0698 0.3597
vn -0.7889 0.3219 0.5235
vn -0.7680 0.4034 0.4974
vn -0.8317 0.2113 0.5135
vn -0.8969 0.0999 0.4309
vn -0.8317 0.2114 0.5135
vn -0.7869 0.1597 0.5961
vn -0.6734 0.5383 0.5067
vn 0.3164 0.7685 0.5561
vn 0.2469 0.8208 0.5151
vn -0.0068 0.2389 0.9710
vn 0.3023 0.5664 0.7667
vn 0.1839 0.3733 0.9093
vn 0.4215 0.7028 0.5731
vn 0.4249 0.6994 0.5746
vn -0.6308 0.5657 0.5311
vn -0.9202 0.2757 0.2780
vn -0.6930 -0.6907 -0.2067
vn -0.9239 0.3110 0.2228
vn -0.9630 0.1612 0.2159
vn -0.9841 0.0594 0.1673
vn -0.9878 -0.0260 0.1536
vn -0.5099 -0.6437 -0.5707
vn -0.9797 -0.0590 0.1915
vn -0.9769 -0.0643 0.2037
vn -0.4404 -0.6896 -0.5749
vn -0.9728 0.0017 0.2317
vn -0.9749 -0.0651 0.2130
vn -0.5879 -0.7498 -0.3036
vn -0.9669 -0.0478 0.2505
vn -0.9659 -0.2585 -0.0133
vn -0.7211 -0.6793 -0.1363
vn -0.7823 -0.6011 -0.1634
vn -0.7674 0.3372 0.5454
vn -0.8601 0.2368 0.4519
vn -0.9577 -0.0277 0.2866
vn -0.9584 0.0061 0.2854
vn -0.5003 -0.8154 -0.2913
vn -0.6775 -0.7208 0.1464
vn -0.2502 -0.8810 0.4016
vn -0.9229 -0.2211 0.3152
vn -0.9086 0.0036 0.4176
vn -0.9426 0.1407 0.3029
vn -0.8486 0.2392 0.4718
vn -0.9624 0.0620 0.2646
vn -0.7953 -0.5725 -0.1994
vn -0.9614 0.0645 0.2676
vn -0.7315 0.4579 0.5052
vn -0.7966 -0.6019 -0.0569
vn -0.8056 -0.5898 -0.0560
vn -0.5367 0.5238 0.6615
vn -0.7505 -0.6288 -0.2034
vn -0.8702 0.1059 0.4812
vn -0.8691 0.0177 0.4943
vn -0.4209 0.5535 0.7187
vn -0.8783 -0.4617 0.1241
vn -0.8850 0.0408 0.4637
vn -0.8895 0.1603 0.4278
vn -0.7439 0.3091 0.5925
vn -0.6242 0.2613 0.7362
vn -0.9376 0.0299 0.3464
vn -0.7943 -0.0773 0.6026
vn -0.7144 0.0934 0.6935
vn -0.7472 0.0086 0.6645
vn -0.6948 -0.0951 0.7129
vn -0.9768 -0.1011 -0.1887
vn -0.6644 0.0711 0.7440
vn -0.8390 0.0612 0.5406
vn -0.7933 0.1325 0.5943
vn -0.4147 0.1984 0.8880
vn -0.8440 0.1763 0.5065
vn -0.6119 0.1805 0.7701
vn -0.7382 0.1426 0.6593
vn -0.3881 -0.4431 -0.8081
vn -0.9889 -0.0096 0.1480
vn -0.6289 -0.2010 -0.7510
vn -0.7529 0.4559 0.4746
vn -0.2295 0.1421 -0.9629
vn -0.9014 0.3709 -0.2236
vn -0.6899 0.6825 -0.2414
vn -0.2106 0.9082 0.3617
vn -0.5412 0.6197 0.5684
vn -0.3901 0.6315 0.6702
vn -0.8819 0.1299 0.4532
vn -0.9517 -0.0551 0.3020
vn -0.2356 -0.5763 0.7825
vn -0.6845 0.1718 0.7085
vn 0.2837 -0.1160 0.9519
vn -0.3526 -0.4968 0.7930
vn -0.6361 -0.1436 0.7581
vn -0.8854 -0.1854 0.4263
vn -0.8868 -0.0018 0.4621
vn -0.8901 -0.0135 0.4556
vn -0.8863 -0.1823 0.4257
vn -0.8886 -0.0322 0.4576
vn -0.5874 0.1443 0.7963
vn -0.5427 0.1142 0.8321
vn -0.6479 0.3181 0.6922
vn -0.4121 0.4430 0.7962
vn -0.7514 -0.3792 0.5400
vn -0.8461 -0.2663 0.4617
vn -0.9001 -0.1807 0.3964
vn -0.8058 -0.5916 -0.0255
vn -0.8841 -0.4102 0.2241
vn -0.7350 0.3331 0.5906
vn -0.8042 0.1596 0.5726
vn -0.8837 -0.0688 0.4630
vn -0.8292 -0.0197 0.5586
vn -0.3529 -0.8545 -0.3812
vn -0.7935 -0.0793 0.6034
vn -0.6667 0.0314 0.7446
vn -0.5854 0.3154 0.7469
vn -0.5716 0.3405 0.7465
vn -0.5620 0.2898 0.7747
vn -0.8481 -0.4684 0.2475
vn -0.6407 -0.7540 -0.1445
vn -0.6169 -0.7777 -0.1211
vn -0.7389 0.0680 0.6704
vn -0.7501 -0.6355 -0.1828
vn -0.4121 0.4513 0.7915
vn -0.9288 -0.2579 0.2662
vn -0.6708 -0.7046 -0.2315
vn -0.4428 0.5300 0.7232
vn -0.6925 0.0165 0.7212
vn -0.6903 0.0013 0.7235
vn -0.8886 -0.3196 0.3291
vn -0.6601 0.0156 0.7510
vn -0.6136 -0.7771 -0.1400
vn -0.8250 -0.5250 0.2091
vn -0.5764 -0.8013 -0.1603
vn -0.7961 -0.4320 0.4239
vn -0.4028 -0.4489 0.7977
vn -0.5574 0.2255 0.7990
vn -0.9347 -0.2565 0.2461
vn -0.9330 -0.2520 0.2571
vn -0.8184 -0.0036 0.5747
vn -0.8754 -0.4804 0.0541
vn -0.8681 0.0489 0.4940
vn -0.8691 0.0262 0.4940
vn -0.2966 0.5494 0.7811
vn -0.3676 0.5323 0.7626
vn -0.7079 -0.6693 -0.2256
vn -0.7103 -0.6646 -0.2321
vn -0.7138 -0.6850 -0.1460
vn -0.6616 -0.7356 -0.1453
vn 0.0664 0.4084 0.9104
vn -0.0481 0.5277 0.8481
vn -0.8709 -0.4888 0.0509
vn -0.8144 -0.0147 0.5802
vn -0.6773 0.0373 0.7347
vn -0.6050 0.0779 0.7924
vn -0.9229 -0.2842 0.2599
vn -0.6510 -0.0993 0.7526
vn -0.6387 -0.0701 0.7663
vn -0.5432 0.0272 0.8392
vn -0.6418 -0.0161 0.7667
vn 0.5875 0.0314 0.8086
vn 0.5949 0.0127 0.8037
vn -0.3986 0.3440 0.8502
vn 0.2702 0.1765 0.9465
vn -0.4449 0.2603 0.8569
vn -0.4941 0.4780 -0.7262
vn -0.9411 0.1448 -0.3055
vn -0.1641 0.9364 0.3101
vn -0.3779 0.9215 0.0895
vn -0.3730 0.8187 -0.4366
vn -0.3152 0.7653 -0.5612
vn -0.6037 0.7428 -0.2896
vn -0.9212 -0.0499 0.3859
vn -0.8580 -0.1227 0.4988
vn -0.8115 -0.0683 0.5803
vn -0.7459 0.3363 0.5749
vn -0.8506 0.2171 0.4790
vn -0.7227 -0.0955 0.6845
vn -0.5565 -0.0861 0.8264
vn -0.6942 -0.0608 0.7172
vn -0.0881 0.9450 0.3150
vn -0.3341 0.5604 -0.7579
vn -0.9574 0.2757 -0.0856
vn -0.6155 0.7389 -0.2741
vn -0.1339 0.8509 -0.5079
vn -0.2136 0.7941 -0.5690
vn 0.0011 0.9215 0.3884
vn -0.3536 0.6897 0.6319
vn 0.2293 0.7453 -0.6260
vn -0.9491 0.0637 0.3086
vn -0.8713 -0.2389 0.4286
vn -0.9087 0.2578 0.3285
vn 0.0232 0.7634 -0.6455
vn -0.9724 0.0351 0.2306
vn -0.9595 0.1540 0.2361
vn -0.9323 -0.1469 0.3304
vn -0.9695 0.2451 0.0016
vn -0.9310 -0.1499 0.3329
vn -0.9583 0.0205 0.2850
vn -0.3684 -0.7329 0.5720
vn -0.5085 -0.6923 0.5120
vn -0.3681 -0.7086 0.6020
vn 0.2360 -0.9563 -0.1725
vn -0.9890 -0.0541 0.1380
vn -0.9707 -0.2402 -0.0052
vn -0.7751 -0.6274 0.0747
vn -0.9292 -0.3013 0.2140
vn -0.8205 0.5345 -0.2028
vn 0.6414 0.4669 0.6087
vn 0.0314 -0.9986 0.0424
vn 0.6949 0.3703 0.6164
vn 0.7474 0.2878 0.5987
vn 0.6859 -0.4931 0.5351
vn 0.7844 0.2446 0.5699
vn 0.6333 0.5200 0.5732
vn 0.7306 0.2425 0.6383
vn 0.7724 0.1732 0.6110
vn 0.5296 0.6107 0.5887
vn 0.6561 0.5735 0.4905
vn 0.6259 0.7438 -0.2345
vn 0.6355 0.6285 0.4485
vn 0.5294 0.7975 -0.2893
vn 0.6047 0.7744 -0.1863
vn -0.9251 -0.2400 0.2944
vn -0.5311 0.0074 0.8473
vn -0.5603 -0.0066 0.8283
vn -0.6578 -0.1187 0.7438
vn -0.7061 -0.0911 0.7023
vn -0.8710 -0.4862 0.0705
vn -0.8168 -0.0617 0.5735
vn -0.7008 -0.0460 0.7119
vn -0.8875 -0.4545 0.0762
vn -0.5097 -0.1465 0.8478
vn -0.6750 -0.1353 0.7253
vn -0.8846 -0.4560 0.0973
vn -0.5746 -0.1057 0.8116
vn -0.1059 -0.0907 0.9902
vn 0.2673 -0.0555 0.9620
vn 0.3492 0.0195 0.9368
vn 0.6814 -0.0338 0.7311
vn 0.5799 0.0336 0.8140
vn 0.2145 0.1172 0.9697
vn 0.6301 0.1042 0.7694
vn 0.6001 0.0432 0.7988
vn 0.8452 0.0374 0.5331
vn 0.8688 -0.1583 0.4691
vn 0.7038 -0.1858 0.6857
vn 0.1799 0.0432 0.9827
vn 0.8787 0.0985 0.4671
vn 0.7187 0.1195 0.6850
vn 0.5634 0.2141 0.7980
vn 0.9116 0.0422 0.4088
vn 0.3129 0.1841 0.9318
vn 0.4006 0.7035 0.5870
vn 0.1343 -0.3640 0.9217
vn 0.6984 0.4921 0.5196
vn 0.8048 0.3851 0.4517
vn 0.7044 0.4795 0.5233
vn 0.1711 -0.4259 0.8884
vn 0.3420 0.7875 0.5127
vn 0.1178 0.8540 0.5068
vn 0.2491 0.8799 0.4045
vn -0.5981 -0.7104 0.3710
vn -0.5414 -0.5735 0.6148
vn -0.5317 -0.6001 0.5976
vn 0.1343 -0.3904 0.9108
vn 0.1632 -0.4361 0.8850
vn 0.6487 -0.2934 -0.7022
vn 0.7899 0.2495 0.5602
vn 0.8119 -0.2461 -0.5295
vn 0.9742 0.1262 0.1872
vn 0.9167 0.3413 -0.2078
vn 0.9824 -0.0002 0.1867
vn -0.1028 -0.9476 0.3024
vn 0.3845 -0.9019 0.1970
vn 0.6872 -0.6878 0.2337
vn -0.4747 -0.7566 0.4497
vn -0.9973 -0.0522 0.0513
vn -0.8366 -0.1457 0.5281
vn -0.8047 -0.2107 0.5551
vn -0.8892 0.3401 0.3059
vn -0.7634 -0.3279 0.5565
vn -0.2978 -0.7473 0.5940
vn -0.6518 -0.2608 0.7122
vn -0.6506 -0.2692 0.7101
vn -0.8668 0.2634 0.4235
vn -0.6268 -0.4280 0.6511
vn -0.2376 -0.6828 0.6909
vn 0.0005 -0.7347 0.6784
vn -0.8590 -0.1272 0.4959
vn -0.0964 0.6803 -0.7266
vn -0.6064 0.7474 -0.2714
vn -0.6179 0.7352 -0.2789
vn -0.6868 0.7240 -0.0640
vn -0.6807 0.7287 0.0754
vn -0.5540 -0.0810 0.8285
vn -0.5716 0.3912 0.7213
vn -0.5196 -0.8134 -0.2616
vn -0.8250 0.2862 -0.4873
vn -0.8470 -0.2179 0.4849
vn -0.7023 -0.6735 -0.2305
vn -0.7600 -0.0452 0.6483
vn -0.7165 -0.1962 0.6694
vn -0.6629 -0.1659 0.7301
vn -0.7606 -0.6490 -0.0126
vn -0.8442 -0.2441 0.4773
vn -0.3831 0.4628 0.7994
vn -0.1081 0.5864 0.8028
vn -0.1658 0.4285 0.8882
vn 0.0046 0.5001 0.8660
vn -0.4894 0.0898 0.8674
vn -0.5610 -0.2383 0.7928
vn -0.6930 -0.6376 -0.3364
vn 0.1485 0.4867 0.8609
vn 0.0824 0.4842 0.8710
vn 0.2995 0.4094 0.8618
vn -0.5299 -0.1471 0.8352
vn 0.3120 0.4364 0.8440
vn -0.9405 -0.2515 0.2286
vn -0.1433 -0.0406 0.9888
vn -0.7136 -0.6609 -0.2323
vn -0.7360 -0.6686 0.1062
vn -0.0420 -0.1410 0.9891
vn -0.5328 -0.0999 0.8403
vn -0.9097 -0.2661 0.3188
vn -0.3651 -0.1410 0.9202
vn -0.6618 -0.5834 0.4708
vn -0.3974 -0.8696 0.2931
vn 0.2956 -0.1695 0.9401
vn 0.3699 -0.1262 0.9205
vn 0.5691 -0.6636 0.4856
vn -0.3326 0.6593 0.6743
vn 0.0802 -0.1747 0.9814
vn -0.4165 0.5433 0.7290
vn -0.2815 -0.7581 -0.5882
vn -0.6191 -0.2698 0.7375
vn -0.3386 -0.0503 0.9396
vn 0.2031 -0.4363 0.8766
vn 0.3476 -0.8872 0.3033
vn 0.5336 -0.8395 0.1027
vn 0.2584 -0.0782 0.9629
vn 0.5519 -0.8324 -0.0504
vn 0.0069 0.2091 0.9779
vn 0.7264 -0.6058 0.3245
vn 0.3360 -0.2579 0.9059
vn 0.5050 -0.2175 0.8352
vn 0.6952 -0.1759 0.6970
vn 0.6911 -0.1745 0.7014
vn 0.4618 -0.2541 0.8498
vn 0.6674 -0.7217 0.1835
vn 0.6717 -0.7211 0.1700
vn 0.7113 -0.6369 0.2973
vn 0.5430 -0.2895 0.7882
vn 0.3141 -0.2505 0.9158
vn 0.3561 -0.2444 0.9019
vn 0.8227 -0.4648 0.3273
vn 0.3195 -0.2445 0.9155
vn 0.2227 -0.1718 0.9596
vn 0.7601 -0.4914 0.4251
vn -0.0083 -1.0000 0.0019
vn 0.8473 0.1034 0.5210
vn 0.2067 -0.9783 -0.0152
vn 0.9521 0.2991 0.0639
vn 0.7157 0.6944 0.0744
vn 0.0653 -0.9977 -0.0194
vn 0.9951 0.0763 0.0635
vn 0.9983 0.0461 0.0360
vn 0.2146 -0.8519 -0.4776
vn 0.4201 -0.5170 -0.7458
vn 0.9433 -0.0229 0.3310
vn 0.6154 0.6219 0.4843
vn 0.3837 0.5416 0.7480
vn 0.6227 0.3719 0.6884
vn 0.5651 0.4782 0.6723
vn 0.7002 0.6341 0.3281
vn -0.1384 -0.2687 0.9532
vn 0.0402 -0.1965 0.9797
vn 0.7747 0.5786 0.2551
vn 0.8703 0.4447 0.2117
vn 0.8793 0.4412 0.1795
vn 0.5574 0.7180 -0.4169
vn 0.6560 0.6635 -0.3597
vn 0.9261 0.3614 0.1085
vn 0.4985 -0.5694 0.6537
vn 0.8802 0.0972 0.4646
vn 0.5025 -0.2948 0.8128
vn 0.2671 -0.2789 0.9224
vn 0.1024 -0.1701 0.9801
vn 0.5154 0.2534 0.8186
vn 0.9059 0.3227 0.2743
vn 0.2722 -0.2307 0.9342
vn 0.0886 -0.2130 0.9730
vn 0.7608 0.3408 0.5524
vn 0.7562 0.4149 0.5060
vn 0.8351 0.2215 0.5036
vn 0.8496 0.2705 0.4527
vn -0.7702 -0.1830 0.6110
vn -0.1267 0.7683 -0.6275
vn -0.7613 -0.1813 0.6225
vn -0.2496 0.7254 -0.6414
vn -0.7100 0.7017 0.0595
vn -0.3851 -0.0796 0.9194
vn 0.2571 0.2395 0.9362
vn 0.1969 0.1276 0.9721
vn -0.5076 -0.2649 0.8199
vn 0.4046 -0.0317 0.9139
vn 0.4625 0.2761 0.8426
vn -0.2398 0.8126 0.5311
vn 0.4066 0.1228 0.9053
vn 0.1130 0.8480 0.5179
vn -0.4440 -0.0747 0.8929
vn -0.4619 -0.1306 0.8773
vn 0.3373 -0.7627 0.5518
vn -0.4779 -0.6938 0.5387
vn 0.3620 -0.1426 0.9212
vn 0.2161 -0.0680 0.9740
vn 0.6262 0.1906 0.7560
vn 0.6059 0.0513 0.7939
vn 0.7863 -0.1291 0.6042
vn 0.3369 -0.2957 0.8939
vn 0.3254 -0.2792 0.9034
vn 0.8948 0.2489 0.3707
vn 0.8681 0.3377 0.3638
vn 0.6086 0.2255 0.7608
vn 0.4218 -0.0450 0.9056
vn 0.5851 -0.1216 0.8018
vn 0.5880 -0.1283 0.7986
vn -0.5929 -0.4236 0.6849
vn -0.5475 -0.2977 0.7821
vn -0.5013 -0.5387 0.6771
vn -0.4619 0.0372 0.8862
vn -0.5270 -0.0047 0.8498
vn -0.6681 -0.7283 -0.1524
vn -0.2318 0.4731 0.8499
vn -0.1790 0.3027 0.9361
vn -0.5679 -0.4036 0.7174
vn 0.6837 -0.4005 0.6100
vn 0.7556 -0.3394 0.5603
vn 0.6539 -0.4329 0.6205
vn 0.8034 -0.2746 0.5284
vn 0.8073 -0.2643 0.5276
vn 0.8154 -0.2586 0.5179
vn 0.9287 0.3170 0.1925
vn -0.0512 -0.1983 0.9788
vn 0.3541 -0.1256 0.9267
vn -0.0540 -0.6660 0.7440
vn 0.0816 -0.6903 0.7189
vn 0.1247 -0.9342 -0.3341
vn 0.7443 -0.1323 0.6546
vn 0.7143 -0.2527 0.6526
vn 0.8980 -0.2632 0.3526
vn 0.2510 -0.9618 0.1093
vn 0.8726 -0.0941 0.4794
vn 0.8734 -0.1034 0.4760
vn 0.5561 -0.8296 0.0493
vn 0.9068 -0.1747 0.3836
vn 0.8109 0.0124 0.5851
vn 0.4963 -0.5377 0.6816
vn 0.3674 -0.5428 0.7552
vn -0.0429 -0.6007 0.7984
vn 0.2432 -0.6011 0.7612
vn 0.2951 -0.1155 0.9485
vn 0.3683 -0.0516 0.9283
vn -0.6591 -0.6813 0.3184
vn -0.5016 -0.8600 -0.0935
vn -0.3934 -0.9094 0.1353
vn -0.2366 -0.0149 0.9715
vn -0.4366 0.0194 0.8994
vn -0.0071 0.5057 0.8627
vn 0.5514 -0.3644 0.7504
vn 0.3413 -0.0441 0.9389
vn 0.2856 -0.1336 0.9490
vn 0.3775 -0.9247 -0.0490
vn 0.3668 -0.9297 0.0321
vn 0.4220 -0.9065 0.0108
vn 0.5958 -0.7467 0.2956
vn 0.3512 -0.9361 -0.0193
vn 0.5053 -0.1641 0.8472
vn 0.4337 -0.8992 0.0582
vn 0.6114 -0.0830 0.7869
vn 0.5497 -0.1615 0.8196
vn 0.2334 0.5347 0.8122
vn 0.6709 0.0463 0.7401
vn 0.6837 -0.3127 0.6594
vn 0.5468 -0.8361 0.0430
vn 0.5971 -0.8010 0.0425
vn 0.4760 -0.8670 0.1476
vn -0.2864 0.5201 0.8047
vn -0.3280 0.4170 0.8477
vn 0.8412 -0.1052 0.5303
vn 0.7909 -0.0560 0.6094
vn 0.7304 -0.6389 0.2414
vn 0.8387 -0.1156 0.5321
vn 0.7214 -0.6579 0.2163
vn 0.4799 0.3770 0.7922
vn 0.2229 0.5275 0.8198
vn 0.1849 0.5281 0.8288
vn 0.1943 0.5706 0.7979
vn 0.5809 -0.1447 0.8010
vn 0.6508 -0.0867 0.7543
vn -0.1469 0.5418 0.8275
vn 0.5561 -0.8202 -0.1340
vn -0.0631 0.5383 0.8404
vn -0.6816 0.0225 0.7314
vn -0.4777 -0.2474 0.8429
vn -0.4789 -0.3175 0.8184
vn -0.5762 -0.1652 0.8005
vn 0.6059 0.4433 0.6606
vn 0.9723 0.1697 0.1607
vn 0.9982 0.0468 0.0388
vn -0.7798 0.0049 0.6260
vn 0.1493 0.5579 -0.8164
vn -0.1512 0.7339 -0.6623
vn -0.7279 -0.0256 0.6852
vn 0.0541 -0.7186 0.6933
vn 0.0561 -0.7278 0.6835
vn 0.2973 -0.6151 0.7303
vn 0.3168 -0.9485 -0.0034
vn -0.7081 0.6480 -0.2805
vn -0.8743 0.4769 -0.0906
vn -0.6584 0.7177 0.2268
vn -0.2873 -0.2967 0.9107
vn -0.4154 -0.2794 0.8657
vn -0.1442 -0.3935 0.9080
vn -0.0675 -0.5114 0.8567
vn -0.5656 0.8021 0.1915
vn 0.3672 -0.5393 0.7579
vn 0.2011 -0.6859 0.6993
vn 0.8456 0.5322 0.0418
vn 0.6939 0.7199 0.0150
vn 0.4352 0.6124 -0.6600
vn 0.3569 -0.1663 0.9192
vn -0.4139 -0.7402 0.5298
vn 0.7507 0.6520 0.1066
vn 0.3325 -0.0895 0.9388
vn 0.5000 0.1874 0.8455
vn 0.1694 0.9110 0.3761
vn 0.2424 0.2869 0.9268
vn 0.7022 0.3283 0.6318
vn 0.7681 0.4724 0.4322
vn 0.8377 0.4322 0.3338
vn 0.6361 0.3273 -0.6987
vn 0.9455 0.2807 0.1650
vn 0.5279 0.3476 0.7749
vn 0.5677 0.2528 0.7835
vn 0.6773 0.2720 0.6836
vn 0.7481 0.1164 0.6533
vn 0.9285 0.3699 -0.0316
vn 0.7883 0.1145 0.6046
vn 0.5447 0.7887 -0.2850
vn 0.7068 0.6109 -0.3566
vn 0.8418 -0.1418 0.5209
vn 0.8774 -0.1264 0.4629
vn 0.8257 -0.3287 0.4585
vn 0.8903 -0.2094 0.4044
vn 0.8539 0.4085 -0.3226
vn 0.9826 -0.0534 -0.1780
vn 0.7080 0.1050 -0.6984
vn 0.8804 0.0080 -0.4742
vn 0.9826 0.0613 0.1751
vn 0.9100 -0.0147 0.4143
vn 0.7174 -0.5821 0.3828
vn 0.7282 -0.6218 0.2883
vn 0.7298 0.6773 -0.0929
vn 0.5378 -0.8204 0.1940
vn 0.6993 -0.5402 -0.4682
vn 0.9452 0.0350 0.3246
vn 0.6926 -0.5419 -0.4761
vn 0.8687 0.1998 0.4532
vn 0.9545 -0.1472 -0.2595
vn 0.8865 0.4396 0.1444
vn 0.6574 0.6705 0.3439
vn 0.8615 0.3837 0.3324
vn 0.8181 0.4322 0.3792
vn 0.9039 0.2177 0.3682
vn -0.7330 0.0031 0.6802
vn -0.5869 -0.0560 0.8077
vn -0.2716 0.6742 -0.6869
vn 0.1588 -0.7399 0.6537
vn -0.5838 -0.0675 0.8091
vn 0.1290 -0.1296 0.9831
vn 0.3498 -0.1873 0.9179
vn 0.6564 -0.1194 0.7449
vn 0.7151 -0.1468 0.6834
vn 0.6214 -0.1077 0.7761
vn 0.5563 -0.0183 0.8308
vn 0.6088 -0.0655 0.7906
vn 0.7231 -0.1541 0.6733
vn 0.7948 -0.1873 0.5773
vn 0.7386 -0.1493 0.6575
vn 0.7569 -0.2174 0.6163
vn 0.9099 -0.1868 0.3703
vn 0.9678 0.1096 0.2267
vn 0.5425 -0.6165 0.5706
vn 0.9684 0.0687 0.2399
vn 0.6914 -0.3644 0.6238
vn 0.9051 0.0912 0.4153
vn 0.9448 -0.2203 0.2425
vn 0.9917 0.1215 0.0409
vn 0.2119 -0.7227 0.6579
vn 0.8827 -0.2749 0.3811
vn 0.8149 -0.3471 0.4642
vn 0.6095 -0.3768 0.6975
vn 0.6170 -0.3545 0.7026
vn 0.0258 -0.7114 0.7023
vn 0.0222 -0.7237 0.6897
vn -0.2485 -0.6714 0.6982
vn 0.7455 -0.1126 0.6570
vn 0.8105 -0.1386 0.5691
vn 0.8704 -0.1193 0.4777
vn 0.8784 -0.1781 0.4434
vn 0.9078 -0.1943 0.3716
vn 0.0365 0.6468 -0.7617
vn 0.0381 0.6269 -0.7782
vn -0.0094 0.6419 -0.7667
vn 0.0099 0.6186 -0.7857
vn 0.7363 -0.0656 0.6735
vn -0.2487 -0.6965 0.6731
vn 0.4151 -0.3337 0.8464
vn 0.2473 -0.3200 0.9146
vn 0.4262 -0.2955 0.8550
vn 0.4931 -0.2321 0.8384
vn 0.3027 -0.2906 0.9077
vn 0.7005 0.2878 0.6530
vn 0.0106 -0.4097 0.9122
vn 0.4181 -0.1983 0.8865
vn 0.5039 -0.5166 0.6923
vn -0.3178 0.1821 0.9305
vn 0.4234 -0.1253 0.8972
vn -0.3303 -0.3120 0.8908
vn 0.6323 -0.6012 0.4887
vn 0.5272 -0.7198 0.4516
vn 0.5252 -0.6542 0.5442
vn 0.4413 0.1494 0.8848
vn 0.2319 0.4147 0.8799
vn 0.4953 -0.1139 0.8612
vn 0.6164 -0.2599 0.7433
vn 0.4903 0.2448 0.8364
vn 0.7686 -0.3979 0.5009
vn 0.8206 -0.5115 0.2550
vn 0.7160 -0.2983 0.6312
vn 0.7682 -0.3999 0.5000
vn 0.6678 -0.3962 0.6301
vn 0.7309 -0.3449 0.5888
vn 0.6640 -0.3755 0.6466
vn 0.1917 0.0365 0.9808
vn 0.6865 -0.2872 0.6680
vn 0.2907 -0.0528 0.9554
vn 0.3178 -0.0483 0.9469
vn 0.6407 -0.2298 0.7326
vn 0.6924 -0.2181 0.6877
vn 0.7297 -0.1329 0.6707
vn 0.4706 -0.0297 0.8818
vn 0.6492 -0.1440 0.7469
vn 0.2887 0.0225 0.9572
vn 0.0054 0.5940 0.8044
vn 0.8711 0.1351 0.4721
vn 0.8921 0.4371 0.1141
vn 0.8131 0.2840 0.5081
vn -0.6544 -0.5118 0.5566
vn 0.4062 -0.3186 0.8564
vn 0.8562 0.1936 0.4790
vn 0.9027 0.2055 0.3780
vn 0.8881 0.2113 0.4082
vn 0.9165 0.1681 0.3631
vn 0.6979 -0.4742 0.5368
vn 0.7086 -0.4386 0.5527
vn 0.9104 0.2576 0.3239
vn 0.8909 0.2304 0.3914
vn 0.9528 0.1092 0.2831
vn -0.2082 -0.8854 0.4156
vn -0.1754 -0.8437 0.5074
vn -0.4320 -0.6613 0.6132
vn -0.4013 -0.5785 0.7101
vn -0.4667 -0.5717 0.6748
vn -0.2628 -0.1857 0.9468
vn 0.6870 0.5936 -0.4191
vn 0.9797 0.1735 0.1002
vn 0.7213 0.2508 0.6456
vn 0.8835 0.4511 -0.1264
vn 0.9146 -0.0676 0.3986
vn 0.9704 -0.1089 -0.2156
vn 0.8067 0.4844 0.3386
vn 0.8302 -0.4990 0.2485
vn 0.8691 -0.4383 0.2295
vn 0.9091 0.1312 0.3955
vn 0.9859 -0.0306 0.1643
vn 0.1490 0.5477 0.8233
vn 0.5696 -0.1845 0.8009
vn 0.5341 -0.1228 0.8364
vn 0.1487 0.5507 0.8214
vn 0.6821 -0.0434 0.7300
vn 0.8764 0.4572 0.1515
vn 0.6034 0.0969 0.7915
vn 0.4507 0.1131 0.8855
vn 0.0705 0.6181 0.7829
vn 0.5146 0.5631 0.6466
vn 0.8981 0.1839 0.3995
vn 0.6359 -0.3243 0.7003
vn 0.9093 -0.2013 0.3643
vn 0.8066 0.2210 0.5483
vn 0.2036 -0.0132 0.9790
vn 0.8795 0.1502 0.4515
vn 0.6167 -0.1601 0.7707
vn 0.3504 0.5059 -0.7882
vn 0.7091 -0.0210 0.7048
vn 0.3447 -0.3459 0.8727
vn 0.5341 -0.1386 0.8339
vn 0.7265 -0.1122 0.6780
vn 0.1224 0.4618 -0.8785
vn 0.2759 0.6275 -0.7281
vn 0.1128 0.5089 -0.8534
vn 0.5661 -0.1708 0.8064
vn 0.7134 -0.1693 0.6800
vn 0.5339 -0.1426 0.8334
vn 0.7876 0.6046 0.1193
vn 0.3812 -0.0738 0.9215
vn 0.4435 -0.1272 0.8872
vn 0.7059 -0.1485 0.6925
vn 0.7417 -0.2367 0.6276
vn 0.7015 -0.2242 0.6764
vn 0.7172 -0.2614 0.6460
vn 0.7777 -0.0816 0.6233
vn 0.9676 0.1571 0.1978
vn 0.9185 -0.2099 0.3350
vn 0.9207 -0.2104 0.3288
vn 0.9153 -0.2141 0.3411
vn 0.8993 0.0129 0.4371
vn 0.5452 0.5007 0.6723
vn 0.2239 0.9594 0.1715
vn 0.2265 0.9534 0.1992
vn 0.7545 0.5971 -0.2723
vn 0.5090 0.5579 -0.6554
vn 0.8166 -0.2534 -0.5186
vn 0.4835 0.1826 -0.8561
vn 0.9328 -0.1522 0.3267
vn 0.9781 0.1102 -0.1764
vn 0.5163 -0.7600 -0.3947
vn 0.9115 -0.2060 0.3561
vn 0.8987 -0.2433 0.3648
vn 0.9190 -0.1380 0.3694
vn 0.8554 0.1811 0.4852
vn 0.7604 0.2914 0.5804
vn 0.7367 -0.6762 0.0053
vn 0.6991 -0.7109 -0.0768
vn 0.6821 -0.7293 -0.0532
vn 0.8778 0.2692 0.3963
vn 0.9470 -0.1526 0.2827
vn 0.3475 -0.5953 -0.7245
vn 0.6349 -0.3546 -0.6864
vn 0.8571 -0.2977 0.4205
vn 0.9510 -0.1334 0.2790
vn 0.6125 0.5189 -0.5963
vn 0.6974 0.1661 0.6972
vn 0.8837 0.0802 0.4611
vn 0.4768 0.8684 -0.1362
vn 0.6658 -0.7441 -0.0545
vn 0.7109 -0.7007 0.0608
vn 0.7789 -0.5793 0.2402
vn 0.6285 0.2293 0.7433
vn 0.9094 -0.0208 0.4154
vn 0.7552 -0.0625 0.6525
vn 0.8317 -0.1265 0.5407
vn 0.6295 0.2858 0.7225
vn 0.5458 -0.8342 -0.0782
vn 0.6145 0.0148 0.7888
vn -0.0480 0.5645 0.8241
vn -0.3794 -0.6747 0.6331
vn 0.5287 -0.8468 -0.0580
vn 0.6613 0.0450 0.7488
vn 0.7158 -0.1191 0.6881
vn 0.4850 -0.8729 -0.0538
vn 0.6962 0.0040 0.7179
vn 0.7005 -0.7093 0.0785
vn 0.7068 -0.6595 0.2559
vn 0.7302 -0.6827 0.0251
vn 0.8049 -0.0202 0.5930
vn 0.8701 0.0440 0.4909
vn 0.8622 -0.4953 0.1058
vn 0.8097 -0.5869 -0.0027
vn 0.9503 -0.1681 0.2622
vn 0.8085 0.5824 0.0843
vn 0.8318 0.5489 -0.0824
vn 0.8097 0.5856 -0.0384
vn 0.0594 0.5319 -0.8447
vn 0.8165 0.5610 -0.1364
vn 0.0600 0.5332 -0.8438
vn 0.0535 0.5517 -0.8323
vn -0.0102 0.5778 -0.8161
vn -0.6611 -0.0107 0.7503
vn 0.1231 0.0273 0.9920
vn -0.6619 -0.0094 0.7495
vn 0.4319 -0.0198 0.9017
vn -0.2608 0.0218 0.9652
vn -0.4505 -0.0107 0.8927
vn -0.1542 0.0001 0.9880
vn -0.4221 -0.0678 0.9040
vn 0.3528 -0.0009 0.9357
vn -0.9384 0.2242 -0.2628
vn -0.6541 0.2335 0.7195
vn -0.6983 0.1499 0.6999
vn -0.7049 0.1640 0.6901
vn -0.9571 0.2098 -0.1999
vn -0.8227 0.2131 -0.5271
vn -0.8242 0.2261 -0.5191
vn 0.3293 -0.0362 0.9435
vn -0.5178 0.1140 0.8479
vn 0.2331 0.0026 0.9724
vn -0.6290 -0.0622 0.7749
vn 0.0946 0.3326 0.9383
vn -0.5855 -0.0956 0.8050
vn -0.5555 0.0152 0.8314
vn -0.8386 -0.5305 -0.1234
vn -0.8233 -0.5439 -0.1623
vn -0.8461 -0.5215 -0.1103
vn -0.8173 -0.5207 -0.2467
vn -0.8134 -0.4931 -0.3086
vn -0.8171 -0.4392 -0.3735
vn -0.7426 -0.3901 -0.5444
vn -0.7114 -0.3346 -0.6180
vn -0.7976 0.3041 -0.5210
vn 0.0984 -0.1003 0.9901
vn -0.8643 0.1028 -0.4923
vn -0.8582 0.1093 -0.5016
vn -0.8966 0.0150 -0.4426
vn -0.9205 0.0378 -0.3890
vn -0.6258 0.0246 0.7796
vn -0.6566 0.0471 0.7528
vn -0.7189 0.0652 0.6920
vn 0.0438 -0.0301 0.9986
vn -0.4591 0.1300 0.8789
vn -0.5677 0.0429 0.8221
vn -0.6661 0.1002 0.7391
vn -0.6620 0.0623 0.7469
vn 0.1844 -0.0168 0.9827
vn -0.4375 -0.0711 0.8964
vn 0.5199 0.3370 0.7849
vn -0.4572 0.5749 0.6786
vn 0.2787 -0.0787 0.9571
vn 0.1627 -0.0057 0.9867
vn -0.6463 0.0709 0.7598
vn 0.3034 0.0152 0.9527
vn -0.4825 0.0166 0.8758
vn -0.5433 0.0647 0.8371
vn 0.6547 0.3188 -0.6854
vn -0.1033 0.0957 0.9900
vn -0.1987 -0.0812 0.9767
vn -0.3888 0.0222 0.9210
vn -0.1955 0.0660 0.9785
vn -0.5948 0.0655 0.8012
vn -0.3264 0.0409 0.9443
vn -0.5114 0.0983 0.8537
vn 0.0488 0.0864 0.9951
vn -0.3018 0.0295 0.9529
vn -0.4143 -0.6515 0.6355
vn 0.1626 0.0756 0.9838
vn 0.2638 -0.0184 0.9644
vn -0.3293 -0.0346 0.9436
vn -0.2631 0.0343 0.9642
vn -0.5776 0.2984 0.7599
vn -0.1938 0.0738 0.9783
vn -0.8977 0.0204 -0.4402
vn -0.3432 -0.0127 0.9392
vn -0.3684 -0.2271 0.9015
vn -0.1111 0.0418 0.9929
vn -0.1413 0.0630 0.9880
vn 0.2377 0.0443 0.9703
vn -0.4973 0.0066 0.8676
vn -0.4094 0.0694 0.9097
vn -0.2259 -0.0814 0.9707
vn 0.0306 0.5746 0.8179
vn -0.1045 -0.0269 0.9942
vn -0.1517 -0.4689 0.8701
vn 0.9011 -0.2324 0.3661
vn -0.2138 0.7383 -0.6397
vn 0.8136 0.5095 -0.2801
vn 0.7072 0.6450 -0.2896
vn 0.6745 0.7002 -0.2340
vn 0.0499 0.9536 -0.2969
vn 0.5970 0.6774 -0.4299
vn 0.7824 0.5792 -0.2290
vn -0.0804 0.9719 0.2210
vn 0.4044 -0.9126 -0.0610
vn 0.1788 0.9730 0.1456
vn 0.7895 0.6048 -0.1042
vn 0.1318 0.9859 -0.1029
vn 0.1635 0.9781 -0.1289
vn 0.5318 -0.7934 0.2963
vn 0.1369 0.9554 0.2617
vn 0.4745 0.6648 -0.5769
vn 0.4786 0.6567 -0.5829
vn 0.1739 0.9134 0.3679
vn 0.5367 -0.7414 0.4027
vn 0.6361 -0.7491 -0.1853
vn 0.9606 -0.2089 -0.1831
vn 0.9184 0.3777 -0.1174
vn 0.9768 0.1846 -0.1087
vn 0.9524 -0.2145 0.2165
vn 0.9741 -0.1605 -0.1594
vn 0.8324 0.5542 -0.0004
vn 0.8228 -0.3232 0.4674
vn 0.9270 -0.1913 0.3226
vn 0.9868 -0.1191 0.1097
vn 0.9393 -0.1989 -0.2797
vn 0.9278 -0.2224 -0.2994
vn 0.9599 -0.2396 -0.1456
vn 0.9334 0.0012 0.3589
vn 0.8905 -0.4550 0.0040
vn 0.5917 -0.0785 -0.8023
vn 0.8432 -0.3235 0.4293
vn 0.8305 -0.1830 -0.5261
vn 0.9366 -0.1937 0.2919
vn 0.7960 -0.5085 0.3283
vn 0.9944 -0.1015 -0.0309
vn 0.3042 0.5151 0.8013
vn -0.7355 0.0689 0.6740
vn 0.2608 -0.7629 0.5916
vn 0.2391 -0.7927 0.5608
vn 0.9048 -0.3026 0.2996
vn 0.9075 -0.2711 0.3209
vn 0.9291 0.3660 -0.0529
vn 0.8387 -0.2638 0.4764
vn 0.9286 0.0900 0.3600
vn 0.8106 0.2641 0.5227
vn 0.8847 0.0138 0.4659
vn 0.3674 -0.8364 -0.4068
vn -0.5491 -0.0185 0.8356
vn -0.4765 -0.0581 0.8772
vn -0.3717 -0.0489 0.9270
vn 0.4956 0.4810 0.7232
vn -0.6267 0.0737 0.7758
vn -0.7023 0.0238 0.7115
vn -0.1241 0.0340 0.9917
vn -0.2788 -0.5064 0.8160
vn -0.5772 -0.2748 0.7690
vn -0.3138 0.0778 0.9463
vn -0.1878 0.0676 0.9799
vn -0.1724 0.0300 0.9846
vn 0.0406 0.1721 0.9842
vn 0.5691 0.4873 0.6623
vn -0.3581 -0.0645 0.9315
vn -0.3546 -0.0519 0.9336
vn -0.7980 -0.5991 -0.0654
vn -0.8267 -0.5411 -0.1540
vn -0.8084 -0.5826 -0.0840
vn 0.0728 0.3134 0.9468
vn 0.7547 0.4089 0.5131
vn 0.4895 0.4657 0.7372
vn -0.2576 0.1159 0.9593
vn -0.2158 0.7151 0.6649
vn -0.0577 0.9364 -0.3462
vn -0.3094 0.0827 0.9473
vn -0.1772 -0.0040 0.9842
vn 0.0409 0.1325 0.9903
vn -0.2609 0.0946 0.9607
vn -0.6841 -0.2808 0.6732
vn -0.1262 0.0067 0.9920
vn -0.2997 0.0190 0.9539
vn 0.4881 0.5281 0.6949
vn -0.8895 -0.0711 -0.4514
vn 0.0580 -0.3852 0.9210
vn -0.9141 -0.3093 0.2622
vn -0.4610 -0.3527 0.8143
vn 0.4404 -0.0826 -0.8940
vn 0.4832 -0.1289 -0.8660
vn 0.4363 -0.1479 -0.8876
vn 0.5038 -0.1302 -0.8539
vn 0.4442 -0.0158 -0.8958
vn -0.9465 -0.0057 -0.3227
vn -0.8856 0.0095 -0.4643
vn 0.2300 -0.3294 0.9158
vn 0.3602 -0.4230 0.8315
vn 0.5030 -0.2979 0.8113
vn 0.8258 -0.2760 0.4919
vn 0.8501 -0.3406 0.4017
vn -0.7794 0.0145 -0.6263
vn -0.8841 -0.0425 -0.4654
vn 0.8916 -0.2349 0.3871
vn 0.9370 -0.2089 0.2799
vn 0.9666 -0.1615 -0.1989
vn 0.8185 -0.5341 -0.2116
vn 0.8100 -0.2063 0.5489
vn 0.4410 -0.0507 -0.8961
vn 0.4193 -0.0425 -0.9068
vn 0.3481 -0.0373 -0.9367
vn 0.4318 -0.0550 -0.9003
vn 0.4561 -0.0696 -0.8872
vn 0.4811 -0.1199 -0.8685
vn 0.9700 -0.0274 0.2415
vn 0.4675 -0.1109 -0.8770
vn 0.4397 -0.0977 -0.8928
vn 0.2465 -0.0615 -0.9672
vn 0.3279 -0.0696 -0.9421
vn 0.7792 0.1205 -0.6150
vn 0.3263 -0.1248 -0.9370
vn 0.3244 -0.1235 -0.9378
vn -0.3224 -0.4240 -0.8463
vn -0.8199 -0.5302 -0.2162
vn 0.6791 0.2124 -0.7026
vn 0.3560 0.0739 -0.9316
vn -0.1869 -0.3803 -0.9058
vn 0.1726 -0.2135 -0.9616
vn -0.6751 -0.6363 -0.3734
vn -0.5696 -0.5399 -0.6197
vn 0.1742 -0.1179 -0.9776
vn -0.2960 -0.5587 0.7748
vn -0.7735 -0.6322 -0.0452
vn -0.7682 -0.6385 -0.0461
vn -0.3288 -0.0923 0.9399
vn -0.2739 -0.1698 0.9467
vn -0.2831 -0.0905 0.9548
vn 0.4576 0.4871 0.7439
vn -0.0637 -0.1157 0.9912
vn -0.0623 -0.1230 0.9904
vn -0.6231 0.2767 0.7315
vn 0.6187 0.4840 0.6189
vn 0.3762 0.6636 0.6466
vn -0.7419 -0.6703 -0.0162
vn -0.2135 -0.0053 0.9769
vn 0.5015 -0.3772 0.7786
vn 0.3995 -0.0269 0.9164
vn 0.1585 0.0477 0.9862
s 0
usemtl Angel_GoldenArmor
f 3//1 1//1 21//1
f 21//2 1//2 2//2
f 5//3 6//3 3//3
f 3//4 6//4 4//4
f 4//5 6//5 7//5
f 6//6 8//6 7//6
f 6//7 9//7 8//7
f 8//8 9//8 10//8
f 10//9 9//9 11//9
f 11//10 9//10 12//10
f 12//11 9//11 6//11
f 12//12 6//12 13//12
f 12//10 13//10 14//10
f 12//10 14//10 11//10
f 11//10 14//10 15//10
f 15//13 14//13 13//13
f 11//14 15//14 10//14
f 16//15 10//15 15//15
f 16//16 15//16 13//16
f 16//17 13//17 6//17
f 5//18 3//18 21//18
f 2//20 19//20 20//20
f 21//21 2//21 20//21
f 21//22 20//22 22//22
f 23//23 19//23 24//23
f 19//25 27//25 20//25
f 27//26 19//26 23//26
f 28//27 27//27 23//27
f 20//28 27//28 22//28
f 27//29 28//29 22//29
f 30//30 22//30 28//30
f 5//31 32//31 31//31
f 5//32 31//32 6//32
f 6//33 31//33 16//33
f 10//34 16//34 31//34
f 31//35 32//35 10//35
f 10//36 32//36 47//36
f 33//37 32//37 5//37
f 5//38 21//38 22//38
f 5//39 22//39 33//39
f 33//40 22//40 30//40
f 32//41 30//41 34//41
f 34//42 30//42 35//42
f 35//43 30//43 28//43
f 36//44 50//44 29//44
f 36//45 29//45 23//45
f 23//46 29//46 28//46
f 23//47 24//47 25//47
f 36//48 23//48 25//48
f 40//51 38//51 39//51
f 39//52 46//52 40//52
f 40//53 42//53 38//53
f 39//57 44//57 46//57
f 44//58 48//58 46//58
f 43//59 42//59 45//59
f 45//60 42//60 40//60
f 47//61 46//61 48//61
f 8//62 10//62 52//62
f 52//63 10//63 48//63
f 48//64 10//64 47//64
f 33//65 30//65 32//65
f 32//66 34//66 47//66
f 35//67 53//67 34//67
f 43//68 45//68 49//68
f 51//71 49//71 54//71
f 54//72 49//72 45//72
f 45//73 40//73 53//73
f 53//74 40//74 46//74
f 47//75 34//75 53//75
f 53//76 46//76 47//76
f 49//78 51//78 50//78
f 29//79 50//79 51//79
f 51//80 53//80 29//80
f 53//81 35//81 29//81
f 45//83 53//83 54//83
f 54//84 53//84 51//84
f 29//85 35//85 28//85
f 64//92 63//92 57//92
f 73//109 64//109 65//109
f 64//111 76//111 63//111
f 63//112 76//112 72//112
f 63//113 72//113 77//113
f 80//119 77//119 72//119
f 80//120 72//120 81//120
f 76//121 64//121 75//121
f 64//122 94//122 75//122
f 85//123 75//123 94//123
f 82//124 74//124 83//124
f 82//125 83//125 94//125
f 94//126 83//126 84//126
f 84//127 85//127 94//127
f 85//128 86//128 75//128
f 92//129 84//129 83//129
f 85//130 84//130 87//130
f 88//131 86//131 85//131
f 88//132 85//132 87//132
f 90//133 84//133 92//133
f 92//134 89//134 90//134
f 90//135 89//135 91//135
f 74//136 82//136 73//136
f 73//137 82//137 94//137
f 73//138 94//138 64//138
f 81//147 72//147 76//147
f 99//148 84//148 100//148
f 100//149 84//149 90//149
f 99//150 107//150 87//150
f 99//151 87//151 84//151
f 105//155 98//155 106//155
f 106//156 104//156 105//156
f 104//157 106//157 103//157
f 107//158 106//158 98//158
f 116//159 108//159 103//159
f 103//160 108//160 538//160
f 108//161 109//161 538//161
f 109//162 110//162 538//162
f 111//163 538//163 110//163
f 110//164 112//164 111//164
f 113//165 110//165 109//165
f 109//166 114//166 115//166
f 114//167 109//167 108//167
f 113//168 109//168 115//168
f 566//169 113//169 115//169
f 108//170 116//170 114//170
f 568//171 114//171 116//171
f 116//172 381//172 510//172
f 116//173 103//173 106//173
f 117//174 106//174 107//174
f 107//175 99//175 117//175
f 99//176 90//176 117//176
f 106//177 117//177 381//177
f 117//187 90//187 91//187
f 90//188 99//188 100//188
f 89//196 117//196 91//196
f 128//198 170//198 126//198
f 126//199 133//199 127//199
f 130//200 126//200 127//200
f 127//201 129//201 130//201
f 129//202 131//202 130//202
f 132//203 131//203 129//203
f 132//204 129//204 127//204
f 142//205 132//205 127//205
f 127//206 133//206 142//206
f 134//207 142//207 133//207
f 135//208 134//208 133//208
f 135//209 137//209 134//209
f 134//210 137//210 136//210
f 136//211 137//211 138//211
f 138//212 139//212 136//212
f 140//213 138//213 137//213
f 141//214 136//214 139//214
f 136//215 141//215 134//215
f 143//216 142//216 134//216
f 142//217 143//217 132//217
f 131//218 132//218 144//218
f 145//219 131//219 144//219
f 131//220 145//220 146//220
f 146//221 130//221 131//221
f 130//222 147//222 126//222
f 126//223 147//223 148//223
f 161//224 126//224 148//224
f 135//225 149//225 137//225
f 137//226 159//226 140//226
f 151//227 140//227 150//227
f 151//228 138//228 140//228
f 139//229 138//229 152//229
f 152//230 138//230 151//230
f 151//231 153//231 152//231
f 153//232 151//232 155//232
f 154//233 151//233 150//233
f 151//234 154//234 155//234
f 157//235 155//235 154//235
f 159//236 150//236 140//236
f 150//237 158//237 154//237
f 182//238 157//238 154//238
f 159//239 137//239 149//239
f 149//240 135//240 172//240
f 172//241 135//241 133//241
f 133//242 126//242 170//242
f 160//243 170//243 128//243
f 161//244 128//244 126//244
f 162//245 161//245 148//245
f 162//246 148//246 163//246
f 165//247 164//247 166//247
f 166//248 164//248 167//248
f 167//249 164//249 163//249
f 167//250 163//250 168//250
f 168//251 163//251 148//251
f 168//252 148//252 130//252
f 130//253 148//253 147//253
f 168//254 130//254 169//254
f 169//255 130//255 146//255
f 172//256 133//256 170//256
f 170//257 160//257 172//257
f 172//258 160//258 171//258
f 171//259 160//259 190//259
f 158//260 150//260 159//260
f 183//261 182//261 154//261
f 174//262 173//262 181//262
f 157//263 173//263 174//263
f 155//264 157//264 174//264
f 176//265 175//265 177//265
f 175//266 156//266 177//266
f 156//267 178//267 177//267
f 178//268 179//268 177//268
f 177//269 179//269 176//269
f 180//270 178//270 156//270
f 180//271 156//271 174//271
f 181//272 180//272 174//272
f 157//273 182//273 173//273
f 182//274 183//274 173//274
f 173//275 180//275 181//275
f 173//276 183//276 184//276
f 184//277 186//277 173//277
f 184//278 185//278 186//278
f 184//279 187//279 185//279
f 180//280 186//280 202//280
f 187//281 200//281 185//281
f 187//282 184//282 183//282
f 154//283 187//283 183//283
f 187//284 154//284 188//284
f 188//285 154//285 158//285
f 189//286 188//286 158//286
f 159//287 189//287 158//287
f 189//288 159//288 149//288
f 149//289 172//289 171//289
f 190//290 160//290 128//290
f 191//291 190//291 128//291
f 190//292 191//292 192//292
f 190//293 192//293 193//293
f 190//294 193//294 171//294
f 171//295 194//295 149//295
f 149//296 194//296 189//296
f 189//297 195//297 188//297
f 195//298 189//298 194//298
f 196//299 195//299 194//299
f 195//300 196//300 197//300
f 195//301 197//301 198//301
f 195//302 198//302 188//302
f 199//303 198//303 197//303
f 345//304 199//304 197//304
f 197//305 196//305 345//305
f 198//306 187//306 188//306
f 187//307 198//307 200//307
f 185//308 201//308 186//308
f 186//309 201//309 202//309
f 180//310 202//310 178//310
f 179//311 203//311 176//311
f 178//312 202//312 179//312
f 204//313 179//313 202//313
f 209//314 201//314 205//314
f 205//315 201//315 185//315
f 205//316 185//316 206//316
f 207//317 206//317 185//317
f 200//318 207//318 185//318
f 205//319 208//319 209//319
f 204//320 202//320 209//320
f 204//321 209//321 210//321
f 179//322 204//322 211//322
f 204//323 212//323 211//323
f 213//324 211//324 212//324
f 214//325 204//325 210//325
f 204//326 214//326 212//326
f 213//327 212//327 214//327
f 209//328 202//328 201//328
f 210//329 209//329 366//329
f 366//330 209//330 208//330
f 208//331 205//331 206//331
f 208//332 206//332 207//332
f 215//333 207//333 200//333
f 431//334 198//334 199//334
f 196//335 194//335 171//335
f 216//336 199//336 345//336
f 193//337 345//337 196//337
f 193//338 344//338 345//338
f 193//339 196//339 171//339
f 191//340 128//340 220//340
f 161//341 162//341 163//341
f 161//342 217//342 218//342
f 161//343 218//343 128//343
f 164//344 217//344 161//344
f 164//345 161//345 163//345
f 217//346 164//346 165//346
f 165//347 338//347 217//347
f 128//348 218//348 220//348
f 220//349 221//349 191//349
f 191//350 221//350 192//350
f 192//351 221//351 193//351
f 347//352 344//352 193//352
f 347//353 193//353 221//353
f 222//354 221//354 220//354
f 222//355 220//355 219//355
f 219//356 220//356 218//356
f 256//396 254//396 253//396
f 256//397 253//397 257//397
f 258//398 176//398 203//398
f 179//399 270//399 203//399
f 270//400 179//400 211//400
f 258//401 203//401 259//401
f 263//402 260//402 259//402
f 203//403 265//403 259//403
f 259//404 265//404 264//404
f 259//405 264//405 263//405
f 266//406 264//406 265//406
f 267//407 265//407 203//407
f 265//408 267//408 268//408
f 268//409 267//409 270//409
f 269//410 265//410 268//410
f 211//411 268//411 270//411
f 211//412 213//412 268//412
f 203//413 270//413 267//413
f 281//431 250//431 287//431
f 282//432 278//432 283//432
f 283//433 278//433 281//433
f 287//434 250//434 284//434
f 281//435 287//435 283//435
f 282//436 283//436 285//436
f 285//437 283//437 286//437
f 285//438 389//438 282//438
f 450//439 449//439 285//439
f 466//440 287//440 289//440
f 289//441 287//441 284//441
f 288//450 291//450 289//450
f 289//451 291//451 466//451
f 291//452 288//452 290//452
f 292//453 291//453 290//453
f 291//454 292//454 469//454
f 293//455 292//455 290//455
f 295//468 301//468 293//468
f 292//469 293//469 301//469
f 300//470 301//470 295//470
f 292//471 301//471 469//471
f 180//472 173//472 186//472
f 261//473 260//473 262//473
f 257//474 261//474 262//474
f 262//475 302//475 257//475
f 257//476 309//476 256//476
f 256//477 303//477 254//477
f 254//479 303//479 306//479
f 307//485 391//485 299//485
f 306//486 308//486 307//486
f 309//488 303//488 256//488
f 309//489 257//489 302//489
f 262//490 260//490 263//490
f 262//491 263//491 349//491
f 349//492 302//492 262//492
f 302//493 349//493 309//493
f 263//494 264//494 266//494
f 310//495 266//495 269//495
f 269//496 266//496 265//496
f 357//497 311//497 313//497
f 312//498 313//498 311//498
f 313//499 312//499 359//499
f 359//500 311//500 269//500
f 213//501 269//501 268//501
f 319//511 275//511 278//511
f 389//512 318//512 282//512
f 282//513 318//513 278//513
f 319//514 278//514 318//514
f 320//515 318//515 389//515
f 320//516 319//516 318//516
f 217//545 340//545 218//545
f 338//546 165//546 166//546
f 217//547 338//547 340//547
f 339//548 340//548 338//548
f 339//549 338//549 166//549
f 339//550 166//550 340//550
f 340//551 219//551 218//551
f 341//552 340//552 166//552
f 166//553 167//553 341//553
f 219//554 342//554 222//554
f 222//555 342//555 343//555
f 347//556 345//556 344//556
f 345//557 348//557 216//557
f 347//558 346//558 348//558
f 347//559 348//559 345//559
f 263//561 266//561 349//561
f 266//562 310//562 349//562
f 353//563 349//563 310//563
f 349//564 353//564 309//564
f 303//565 309//565 350//565
f 306//566 303//566 350//566
f 350//567 351//567 306//567
f 350//568 309//568 353//568
f 400//569 351//569 352//569
f 352//570 351//570 350//570
f 350//571 353//571 352//571
f 310//572 354//572 353//572
f 406//573 354//573 310//573
f 355//574 310//574 356//574
f 356//575 310//575 269//575
f 356//576 311//576 357//576
f 313//577 358//577 357//577
f 311//578 356//578 269//578
f 313//579 359//579 358//579
f 358//580 360//580 357//580
f 363//581 358//581 361//581
f 360//582 358//582 363//582
f 360//583 576//583 357//583
f 362//584 357//584 576//584
f 446//585 361//585 358//585
f 365//586 446//586 358//586
f 365//587 358//587 359//587
f 312//588 311//588 359//588
f 359//589 269//589 213//589
f 214//590 359//590 213//590
f 214//591 210//591 364//591
f 359//592 214//592 365//592
f 364//593 446//593 365//593
f 364//594 365//594 214//594
f 210//595 367//595 370//595
f 366//596 208//596 207//596
f 200//597 198//597 431//597
f 200//598 431//598 215//598
f 210//599 366//599 367//599
f 368//600 367//600 366//600
f 368//601 445//601 367//601
f 367//602 369//602 370//602
f 210//603 370//603 364//603
f 374//604 373//604 375//604
f 378//605 371//605 376//605
f 378//606 376//606 377//606
f 377//607 376//607 379//607
f 379//608 440//608 377//608
f 583//609 379//609 376//609
f 376//610 371//610 581//610
f 581//611 371//611 372//611
f 581//612 372//612 582//612
f 119//615 381//615 117//615
f 381//616 119//616 380//616
f 333//620 385//620 383//620
f 333//621 383//621 384//621
f 384//622 380//622 333//622
f 380//623 384//623 381//623
f 382//624 383//624 385//624
f 386//625 383//625 382//625
f 317//628 275//628 319//628
f 317//629 319//629 387//629
f 319//630 320//630 387//630
f 388//631 387//631 320//631
f 389//632 388//632 320//632
f 449//633 389//633 285//633
f 394//637 299//637 391//637
f 307//638 308//638 391//638
f 391//639 308//639 393//639
f 391//640 393//640 394//640
f 299//641 402//641 397//641
f 397//642 392//642 299//642
f 392//645 395//645 296//645
f 396//646 296//646 395//646
f 397//647 395//647 392//647
f 393//648 399//648 394//648
f 394//649 399//649 299//649
f 351//650 393//650 308//650
f 308//651 306//651 351//651
f 351//652 408//652 393//652
f 399//653 393//653 408//653
f 351//654 400//654 408//654
f 353//655 354//655 352//655
f 399//656 408//656 401//656
f 399//657 402//657 299//657
f 397//658 402//658 398//658
f 405//659 403//659 400//659
f 404//660 400//660 352//660
f 354//661 404//661 352//661
f 405//662 400//662 404//662
f 354//663 405//663 404//663
f 354//664 406//664 405//664
f 406//665 310//665 355//665
f 406//666 355//666 407//666
f 405//667 406//667 412//667
f 400//668 403//668 408//668
f 500//669 401//669 408//669
f 403//670 500//670 408//670
f 399//671 401//671 402//671
f 398//672 395//672 397//672
f 470//673 296//673 396//673
f 409//674 395//674 398//674
f 398//675 402//675 409//675
f 409//676 402//676 489//676
f 395//677 409//677 410//677
f 402//678 401//678 489//678
f 499//679 401//679 500//679
f 412//680 406//680 421//680
f 421//681 406//681 407//681
f 407//682 413//682 417//682
f 413//683 415//683 414//683
f 413//684 414//684 416//684
f 413//685 416//685 417//685
f 416//686 414//686 418//686
f 416//687 418//687 419//687
f 419//688 417//688 416//688
f 418//689 420//689 419//689
f 419//690 420//690 403//690
f 417//691 421//691 407//691
f 421//692 417//692 419//692
f 419//693 403//693 405//693
f 412//694 419//694 405//694
f 419//695 412//695 421//695
f 167//696 168//696 422//696
f 341//697 167//697 422//697
f 422//698 168//698 423//698
f 168//699 425//699 428//699
f 168//700 428//700 424//700
f 425//701 168//701 169//701
f 425//702 426//702 428//702
f 428//703 426//703 427//703
f 169//704 429//704 425//704
f 430//705 425//705 429//705
f 430//706 426//706 425//706
f 433//707 215//707 431//707
f 207//708 215//708 366//708
f 368//709 366//709 215//709
f 368//710 215//710 432//710
f 432//711 215//711 433//711
f 199//712 216//712 431//712
f 431//713 216//713 433//713
f 348//714 434//714 216//714
f 435//715 434//715 348//715
f 435//716 436//716 434//716
f 348//717 528//717 435//717
f 435//718 528//718 530//718
f 435//719 437//719 436//719
f 438//720 436//720 437//720
f 440//721 441//721 438//721
f 438//722 443//722 436//722
f 436//723 443//723 434//723
f 216//724 434//724 535//724
f 442//725 438//725 441//725
f 438//726 442//726 443//726
f 434//727 443//727 535//727
f 433//728 216//728 535//728
f 445//729 368//729 432//729
f 432//730 535//730 444//730
f 432//731 444//731 445//731
f 446//732 364//732 370//732
f 447//735 448//735 382//735
f 537//736 387//736 515//736
f 516//737 387//737 388//737
f 449//738 388//738 389//738
f 450//739 285//739 451//739
f 285//740 286//740 451//740
f 459//741 286//741 283//741
f 451//742 286//742 458//742
f 451//743 452//743 450//743
f 449//744 450//744 453//744
f 452//745 454//745 450//745
f 453//746 450//746 454//746
f 455//747 388//747 456//747
f 456//748 388//748 449//748
f 453//749 456//749 449//749
f 453//750 454//750 456//750
f 456//751 454//751 525//751
f 525//752 454//752 452//752
f 452//753 451//753 464//753
f 457//754 451//754 458//754
f 461//755 457//755 458//755
f 286//756 459//756 458//756
f 458//757 459//757 460//757
f 461//758 462//758 457//758
f 462//759 464//759 457//759
f 457//760 464//760 451//760
f 463//761 452//761 464//761
f 463//762 464//762 465//762
f 462//763 465//763 464//763
f 467//764 287//764 466//764
f 283//765 287//765 459//765
f 468//766 467//766 466//766
f 468//767 466//767 471//767
f 471//768 466//768 291//768
f 301//769 300//769 470//769
f 471//770 291//770 469//770
f 469//771 472//771 471//771
f 287//772 467//772 459//772
f 473//773 458//773 460//773
f 473//774 474//774 458//774
f 479//775 473//775 460//775
f 474//776 475//776 458//776
f 458//777 475//777 461//777
f 461//778 475//778 476//778
f 462//779 461//779 599//779
f 476//780 475//780 477//780
f 703//781 476//781 477//781
f 474//784 473//784 479//784
f 479//785 480//785 481//785
f 487//794 479//794 460//794
f 487//795 460//795 459//795
f 467//796 468//796 459//796
f 459//797 468//797 487//797
f 487//798 468//798 570//798
f 570//799 468//799 471//799
f 488//800 469//800 301//800
f 488//801 301//801 490//801
f 490//802 301//802 470//802
f 396//803 490//803 470//803
f 470//804 300//804 296//804
f 396//805 395//805 410//805
f 409//806 489//806 410//806
f 396//807 491//807 490//807
f 491//808 494//808 490//808
f 494//809 492//809 490//809
f 488//810 490//810 492//810
f 493//813 492//813 494//813
f 497//818 498//818 495//818
f 498//819 497//819 509//819
f 509//820 497//820 489//820
f 509//821 489//821 411//821
f 411//822 489//822 499//822
f 499//823 489//823 401//823
f 403//824 420//824 500//824
f 420//825 499//825 500//825
f 620//826 503//826 418//826
f 620//827 418//827 502//827
f 502//828 418//828 414//828
f 415//829 504//829 414//829
f 502//830 414//830 504//830
f 503//831 620//831 506//831
f 507//832 503//832 506//832
f 508//833 503//833 507//833
f 503//834 508//834 501//834
f 501//835 420//835 418//835
f 501//836 418//836 503//836
f 420//837 411//837 499//837
f 509//838 411//838 508//838
f 501//839 411//839 420//839
f 381//840 384//840 510//840
f 514//841 384//841 383//841
f 510//842 384//842 514//842
f 106//843 381//843 116//843
f 219//844 340//844 342//844
f 422//845 512//845 341//845
f 512//846 422//846 423//846
f 386//847 382//847 448//847
f 448//848 317//848 537//848
f 537//849 317//849 387//849
f 448//850 537//850 386//850
f 383//851 386//851 513//851
f 383//852 513//852 514//852
f 517//853 514//853 511//853
f 514//854 517//854 516//854
f 517//855 511//855 516//855
f 516//856 511//856 515//856
f 516//857 388//857 455//857
f 518//858 116//858 514//858
f 514//859 116//859 510//859
f 514//860 516//860 519//860
f 514//861 519//861 518//861
f 516//862 455//862 519//862
f 519//863 521//863 518//863
f 519//864 522//864 521//864
f 519//865 520//865 522//865
f 523//866 522//866 520//866
f 522//867 523//867 524//867
f 522//868 524//868 521//868
f 521//869 563//869 518//869
f 523//870 520//870 525//870
f 456//871 525//871 455//871
f 520//872 455//872 525//872
f 519//873 455//873 520//873
f 347//874 221//874 222//874
f 342//875 340//875 341//875
f 341//876 343//876 342//876
f 529//877 343//877 341//877
f 526//878 527//878 512//878
f 341//879 512//879 529//879
f 347//880 222//880 346//880
f 343//881 346//881 222//881
f 343//882 528//882 346//882
f 529//883 528//883 343//883
f 512//884 527//884 529//884
f 528//885 529//885 530//885
f 348//886 346//886 528//886
f 530//887 439//887 435//887
f 529//888 527//888 530//888
f 439//889 530//889 527//889
f 527//890 526//890 531//890
f 527//891 531//891 439//891
f 531//892 532//892 439//892
f 512//893 423//893 168//893
f 526//894 512//894 424//894
f 424//895 512//895 168//895
f 427//896 526//896 428//896
f 428//897 526//897 424//897
f 526//898 427//898 531//898
f 427//899 533//899 531//899
f 534//900 531//900 533//900
f 533//901 427//901 426//901
f 375//902 426//902 374//902
f 374//903 426//903 430//903
f 533//904 426//904 375//904
f 534//905 373//905 378//905
f 440//906 378//906 377//906
f 440//907 379//907 441//907
f 379//908 442//908 441//908
f 442//909 535//909 443//909
f 433//910 535//910 432//910
f 442//911 444//911 535//911
f 537//912 513//912 386//912
f 513//913 537//913 515//913
f 387//914 516//914 515//914
f 514//915 513//915 511//915
f 513//916 515//916 511//916
f 112//917 110//917 113//917
f 112//918 113//918 543//918
f 543//919 540//919 541//919
f 540//920 543//920 722//920
f 543//921 541//921 112//921
f 112//922 542//922 539//922
f 541//923 542//923 112//923
f 724//924 722//924 543//924
f 544//925 547//925 545//925
f 544//926 545//926 543//926
f 545//927 724//927 543//927
f 552//933 544//933 551//933
f 554//940 551//940 544//940
f 554//943 564//943 555//943
f 564//954 554//954 563//954
f 554//955 544//955 563//955
f 563//956 568//956 518//956
f 565//957 563//957 544//957
f 565//958 544//958 543//958
f 568//959 563//959 565//959
f 565//960 567//960 568//960
f 565//961 566//961 567//961
f 565//962 543//962 566//962
f 566//963 568//963 567//963
f 114//964 568//964 115//964
f 543//965 113//965 566//965
f 488//966 472//966 469//966
f 492//967 486//967 569//967
f 492//968 569//968 488//968
f 472//969 488//969 569//969
f 569//970 570//970 472//970
f 570//971 471//971 472//971
f 479//972 487//972 570//972
f 570//973 480//973 479//973
f 569//974 480//974 570//974
f 415//975 413//975 571//975
f 571//976 572//976 415//976
f 574//977 573//977 571//977
f 571//978 413//978 574//978
f 407//979 574//979 413//979
f 575//980 407//980 355//980
f 407//981 575//981 574//981
f 362//982 576//982 577//982
f 355//983 577//983 575//983
f 576//984 575//984 577//984
f 575//985 576//985 574//985
f 360//986 574//986 576//986
f 574//987 360//987 573//987
f 355//988 362//988 577//988
f 356//989 357//989 362//989
f 355//990 356//990 362//990
f 111//991 112//991 539//991
f 491//992 396//992 410//992
f 578//993 361//993 446//993
f 578//994 446//994 585//994
f 585//995 446//995 370//995
f 445//996 444//996 367//996
f 579//997 370//997 369//997
f 370//998 579//998 585//998
f 585//999 579//999 580//999
f 590//1000 580//1000 579//1000
f 590//1001 579//1001 582//1001
f 369//1002 582//1002 579//1002
f 582//1003 369//1003 581//1003
f 379//1004 583//1004 442//1004
f 444//1005 442//1005 536//1005
f 536//1006 442//1006 583//1006
f 583//1007 376//1007 581//1007
f 583//1008 581//1008 369//1008
f 369//1009 536//1009 583//1009
f 536//1010 369//1010 367//1010
f 536//1011 367//1011 444//1011
f 518//1012 568//1012 116//1012
f 435//1013 439//1013 532//1013
f 532//1014 437//1014 435//1014
f 437//1015 532//1015 584//1015
f 532//1016 531//1016 534//1016
f 584//1017 532//1017 534//1017
f 378//1018 584//1018 534//1018
f 584//1019 378//1019 437//1019
f 438//1020 437//1020 378//1020
f 438//1021 378//1021 440//1021
f 373//1022 534//1022 533//1022
f 373//1023 533//1023 375//1023
f 410//1024 497//1024 491//1024
f 497//1025 410//1025 489//1025
f 495//1027 491//1027 497//1027
f 573//1028 572//1028 571//1028
f 578//1029 585//1029 580//1029
f 580//1030 586//1030 587//1030
f 578//1031 580//1031 587//1031
f 361//1032 578//1032 587//1032
f 361//1033 587//1033 589//1033
f 586//1034 588//1034 589//1034
f 590//1035 586//1035 580//1035
f 590//1036 588//1036 586//1036
f 586//1037 589//1037 587//1037
f 566//1038 115//1038 568//1038
f 378//1039 373//1039 371//1039
f 521//1040 524//1040 592//1040
f 524//1041 523//1041 591//1041
f 524//1042 591//1042 592//1042
f 592//1043 564//1043 521//1043
f 592//1044 593//1044 564//1044
f 593//1045 592//1045 591//1045
f 594//1046 593//1046 591//1046
f 594//1047 591//1047 523//1047
f 593//1048 594//1048 596//1048
f 564//1049 596//1049 595//1049
f 564//1050 595//1050 555//1050
f 596//1051 564//1051 593//1051
f 597//1052 523//1052 525//1052
f 597//1053 525//1053 452//1053
f 597//1054 452//1054 463//1054
f 462//1055 598//1055 465//1055
f 598//1056 462//1056 599//1056
f 598//1057 599//1057 680//1057
f 680//1058 599//1058 704//1058
f 704//1059 599//1059 476//1059
f 476//1060 599//1060 461//1060
f 486//1102 480//1102 569//1102
f 508//1103 411//1103 501//1103
f 521//1104 564//1104 563//1104
f 508//1105 507//1105 509//1105
f 507//1108 506//1108 509//1108
f 463//1118 523//1118 597//1118
f 594//1119 523//1119 463//1119
f 463//1120 465//1120 594//1120
f 624//1121 596//1121 594//1121
f 624//1122 594//1122 465//1122
f 596//1123 624//1123 595//1123
f 625//1124 595//1124 624//1124
f 562//1125 625//1125 624//1125
f 627//1126 626//1126 633//1126
f 626//1127 627//1127 628//1127
f 633//1128 632//1128 627//1128
f 628//1129 627//1129 632//1129
f 632//1130 677//1130 628//1130
f 628//1131 677//1131 629//1131
f 630//1132 629//1132 677//1132
f 632//1133 631//1133 677//1133
f 662//1134 631//1134 632//1134
f 634//1135 637//1135 636//1135
f 638//1136 637//1136 634//1136
f 641//1137 637//1137 639//1137
f 639//1138 637//1138 638//1138
f 637//1139 641//1139 636//1139
f 636//1140 651//1140 640//1140
f 641//1141 651//1141 636//1141
f 642//1142 639//1142 638//1142
f 655//1143 642//1143 644//1143
f 638//1144 644//1144 642//1144
f 638//1145 634//1145 635//1145
f 671//1146 644//1146 638//1146
f 635//1147 645//1147 638//1147
f 645//1148 635//1148 647//1148
f 635//1149 634//1149 636//1149
f 636//1150 646//1150 647//1150
f 636//1151 647//1151 635//1151
f 743//1152 636//1152 741//1152
f 648//1153 636//1153 734//1153
f 734//1154 636//1154 650//1154
f 649//1155 734//1155 650//1155
f 650//1156 640//1156 649//1156
f 640//1157 650//1157 636//1157
f 643//1158 639//1158 642//1158
f 651//1159 653//1159 727//1159
f 653//1160 651//1160 641//1160
f 654//1161 727//1161 653//1161
f 654//1162 653//1162 633//1162
f 633//1163 653//1163 632//1163
f 632//1164 653//1164 662//1164
f 652//1165 641//1165 639//1165
f 639//1166 643//1166 656//1166
f 655//1167 643//1167 642//1167
f 643//1168 659//1168 657//1168
f 639//1169 656//1169 652//1169
f 652//1170 656//1170 653//1170
f 657//1171 656//1171 643//1171
f 663//1172 657//1172 658//1172
f 658//1173 657//1173 659//1173
f 659//1174 660//1174 658//1174
f 658//1175 661//1175 663//1175
f 656//1176 657//1176 662//1176
f 662//1177 653//1177 656//1177
f 631//1178 662//1178 657//1178
f 657//1179 663//1179 664//1179
f 657//1180 664//1180 631//1180
f 668//1181 660//1181 665//1181
f 754//1182 668//1182 667//1182
f 667//1183 668//1183 665//1183
f 667//1184 665//1184 660//1184
f 667//1185 660//1185 659//1185
f 669//1186 659//1186 643//1186
f 672//1187 643//1187 670//1187
f 671//1188 655//1188 644//1188
f 655//1189 670//1189 643//1189
f 672//1190 670//1190 674//1190
f 672//1191 669//1191 643//1191
f 669//1192 675//1192 659//1192
f 669//1193 672//1193 675//1193
f 667//1194 672//1194 673//1194
f 673//1195 672//1195 674//1195
f 673//1196 674//1196 720//1196
f 720//1197 754//1197 667//1197
f 720//1198 667//1198 673//1198
f 667//1199 675//1199 672//1199
f 659//1200 675//1200 667//1200
f 677//1201 660//1201 676//1201
f 676//1202 660//1202 668//1202
f 666//1203 660//1203 677//1203
f 666//1204 661//1204 660//1204
f 660//1205 661//1205 658//1205
f 663//1206 666//1206 664//1206
f 631//1207 664//1207 677//1207
f 676//1208 630//1208 677//1208
f 666//1209 663//1209 661//1209
f 598//1217 562//1217 624//1217
f 598//1221 624//1221 465//1221
f 476//1251 703//1251 704//1251
f 641//1252 652//1252 653//1252
f 645//1263 647//1263 646//1263
f 646//1264 718//1264 645//1264
f 645//1265 718//1265 708//1265
f 707//1266 645//1266 708//1266
f 710//1267 707//1267 709//1267
f 710//1268 709//1268 711//1268
f 712//1269 713//1269 709//1269
f 671//1270 710//1270 711//1270
f 709//1271 707//1271 716//1271
f 671//1272 711//1272 655//1272
f 711//1273 709//1273 713//1273
f 713//1274 712//1274 714//1274
f 715//1275 750//1275 714//1275
f 716//1276 707//1276 708//1276
f 747//1277 708//1277 718//1277
f 747//1278 718//1278 717//1278
f 743//1279 717//1279 718//1279
f 743//1280 646//1280 636//1280
f 646//1281 743//1281 718//1281
f 638//1282 645//1282 671//1282
f 719//1283 671//1283 645//1283
f 719//1284 645//1284 707//1284
f 707//1285 710//1285 719//1285
f 670//1286 655//1286 674//1286
f 674//1287 655//1287 720//1287
f 720//1288 655//1288 711//1288
f 720//1289 711//1289 713//1289
f 713//1290 714//1290 750//1290
f 715//1291 714//1291 712//1291
f 721//1292 709//1292 716//1292
f 709//1293 721//1293 712//1293
f 721//1294 715//1294 712//1294
f 708//1295 721//1295 716//1295
f 633//1296 541//1296 654//1296
f 654//1297 722//1297 723//1297
f 540//1298 654//1298 541//1298
f 654//1299 540//1299 722//1299
f 640//1300 725//1300 649//1300
f 726//1301 725//1301 651//1301
f 651//1302 725//1302 640//1302
f 735//1303 725//1303 726//1303
f 723//1305 727//1305 654//1305
f 727//1306 723//1306 728//1306
f 723//1307 722//1307 724//1307
f 724//1308 545//1308 728//1308
f 728//1309 723//1309 724//1309
f 735//1319 726//1319 702//1319
f 702//1320 726//1320 733//1320
f 733//1321 726//1321 727//1321
f 734//1326 649//1326 725//1326
f 735//1327 737//1327 725//1327
f 737//1328 735//1328 740//1328
f 736//1329 734//1329 725//1329
f 737//1330 736//1330 725//1330
f 736//1331 738//1331 734//1331
f 736//1332 740//1332 738//1332
f 734//1333 738//1333 648//1333
f 636//1334 648//1334 741//1334
f 740//1335 736//1335 737//1335
f 738//1336 740//1336 739//1336
f 741//1337 648//1337 738//1337
f 741//1338 738//1338 739//1338
f 744//1339 742//1339 743//1339
f 744//1340 743//1340 741//1340
f 744//1341 741//1341 739//1341
f 671//1342 719//1342 710//1342
f 743//1343 742//1343 745//1343
f 743//1344 745//1344 717//1344
f 717//1345 745//1345 747//1345
f 745//1346 746//1346 752//1346
f 745//1347 752//1347 747//1347
f 721//1348 708//1348 747//1348
f 721//1349 748//1349 715//1349
f 753//1350 748//1350 721//1350
f 749//1351 748//1351 753//1351
f 721//1352 747//1352 753//1352
f 749//1353 753//1353 747//1353
f 742//1354 746//1354 745//1354
f 754//1355 720//1355 713//1355
f 713//1356 751//1356 754//1356
f 751//1357 668//1357 754//1357
f 664//1358 666//1358 677//1358
usemtl Angel_CelestialWings
f 17//19 18//19 26//19
f 26//24 25//24 17//24
f 36//49 25//49 26//49
f 18//50 37//50 26//50
f 43//54 41//54 42//54
f 41//55 43//55 37//55
f 41//56 37//56 18//56
f 43//69 49//69 37//69
f 37//70 49//70 50//70
f 26//77 37//77 50//77
f 50//82 36//82 26//82
f 55//86 57//86 58//86
f 60//87 58//87 57//87
f 58//88 60//88 59//88
f 59//89 60//89 61//89
f 63//90 62//90 60//90
f 57//91 63//91 60//91
f 65//93 57//93 56//93
f 56//94 57//94 55//94
f 66//95 56//95 55//95
f 66//96 68//96 56//96
f 55//97 97//97 66//97
f 67//98 97//98 58//98
f 97//99 55//99 58//99
f 68//100 69//100 56//100
f 59//101 67//101 58//101
f 67//102 78//102 70//102
f 67//103 70//103 97//103
f 61//104 67//104 59//104
f 78//105 61//105 60//105
f 71//106 60//106 62//106
f 77//107 62//107 63//107
f 64//108 57//108 65//108
f 74//110 73//110 65//110
f 78//114 60//114 71//114
f 61//115 78//115 67//115
f 79//116 71//116 62//116
f 77//117 79//117 62//117
f 77//118 80//118 79//118
f 56//139 69//139 74//139
f 69//140 96//140 74//140
f 74//141 65//141 56//141
f 74//142 96//142 93//142
f 74//143 93//143 83//143
f 96//144 95//144 93//144
f 101//145 96//145 69//145
f 101//146 69//146 68//146
f 92//152 83//152 93//152
f 93//153 95//153 92//153
f 96//154 101//154 102//154
f 118//178 119//178 117//178
f 120//179 332//179 118//179
f 118//180 332//180 119//180
f 121//181 120//181 118//181
f 337//182 120//182 121//182
f 118//183 122//183 121//183
f 122//184 123//184 121//184
f 122//185 118//185 124//185
f 124//186 118//186 117//186
f 124//189 89//189 92//189
f 124//190 92//190 95//190
f 124//191 95//191 122//191
f 125//192 122//192 95//192
f 125//193 95//193 96//193
f 125//194 96//194 102//194
f 89//195 124//195 117//195
f 102//197 123//197 125//197
f 230//357 227//357 226//357
f 227//358 230//358 231//358
f 228//359 232//359 233//359
f 228//360 233//360 229//360
f 229//361 233//361 234//361
f 234//362 235//362 229//362
f 235//363 239//363 237//363
f 271//364 237//364 238//364
f 238//365 237//365 239//365
f 235//366 234//366 239//366
f 239//367 240//367 241//367
f 239//368 241//368 238//368
f 240//369 239//369 234//369
f 238//370 241//370 242//370
f 232//371 228//371 231//371
f 230//372 232//372 231//372
f 230//373 248//373 232//373
f 232//374 249//374 233//374
f 233//375 249//375 244//375
f 243//376 233//376 244//376
f 234//377 233//377 243//377
f 243//378 240//378 234//378
f 241//379 240//379 243//379
f 243//380 280//380 241//380
f 243//381 250//381 280//381
f 244//382 250//382 243//382
f 245//383 248//383 230//383
f 245//384 230//384 226//384
f 246//385 226//385 225//385
f 225//386 223//386 246//386
f 247//387 226//387 246//387
f 226//388 247//388 245//388
f 232//389 248//389 249//389
f 251//390 249//390 248//390
f 252//391 223//391 224//391
f 223//392 252//392 246//392
f 245//393 251//393 248//393
f 245//394 255//394 251//394
f 245//395 247//395 255//395
f 237//414 236//414 235//414
f 235//415 236//415 229//415
f 236//416 237//416 271//416
f 272//417 238//417 242//417
f 314//418 236//418 271//418
f 273//419 271//419 238//419
f 274//420 272//420 275//420
f 272//421 274//421 238//421
f 272//422 242//422 276//422
f 277//423 276//423 242//423
f 278//424 276//424 277//424
f 279//425 242//425 241//425
f 280//426 281//426 241//426
f 279//427 277//427 242//427
f 277//428 279//428 281//428
f 281//429 279//429 241//429
f 278//430 277//430 281//430
f 250//442 281//442 280//442
f 249//443 251//443 293//443
f 290//444 249//444 293//444
f 249//445 290//445 288//445
f 249//446 288//446 244//446
f 244//447 288//447 250//447
f 288//448 289//448 250//448
f 284//449 250//449 289//449
f 294//456 293//456 251//456
f 295//457 293//457 294//457
f 255//458 294//458 251//458
f 298//459 246//459 252//459
f 304//460 252//460 224//460
f 246//461 298//461 247//461
f 252//462 304//462 298//462
f 247//463 297//463 255//463
f 295//464 294//464 255//464
f 295//465 255//465 296//465
f 298//466 299//466 297//466
f 296//467 300//467 295//467
f 254//478 306//478 224//478
f 305//480 304//480 306//480
f 306//481 304//481 224//481
f 305//482 307//482 298//482
f 304//483 305//483 298//483
f 307//484 299//484 298//484
f 306//487 307//487 305//487
f 271//502 273//502 314//502
f 236//503 314//503 323//503
f 274//504 315//504 238//504
f 238//505 315//505 273//505
f 326//506 274//506 316//506
f 274//507 317//507 316//507
f 317//508 274//508 275//508
f 275//509 272//509 276//509
f 278//510 275//510 276//510
f 274//517 326//517 315//517
f 314//518 273//518 315//518
f 323//519 314//519 315//519
f 323//520 315//520 322//520
f 324//521 323//521 322//521
f 324//522 322//522 325//522
f 325//523 322//523 326//523
f 326//524 322//524 315//524
f 327//525 316//525 317//525
f 316//526 327//526 328//526
f 329//527 328//527 321//527
f 321//528 328//528 327//528
f 321//529 327//529 317//529
f 328//530 330//530 316//530
f 316//531 330//531 326//531
f 333//532 332//532 331//532
f 332//533 120//533 335//533
f 334//534 333//534 331//534
f 119//535 332//535 333//535
f 385//536 334//536 329//536
f 334//537 331//537 328//537
f 334//538 328//538 329//538
f 122//539 125//539 123//539
f 332//540 335//540 331//540
f 331//541 335//541 336//541
f 330//542 331//542 336//542
f 336//543 325//543 330//543
f 120//544 337//544 335//544
f 297//560 247//560 298//560
f 331//613 330//613 328//613
f 330//614 325//614 326//614
f 333//617 380//617 119//617
f 333//618 334//618 385//618
f 382//619 385//619 329//619
f 382//626 329//626 321//626
f 447//627 321//627 317//627
f 390//634 325//634 336//634
f 324//635 325//635 390//635
f 392//636 297//636 299//636
f 297//643 392//643 255//643
f 392//644 296//644 255//644
f 382//733 321//733 447//733
f 317//734 448//734 447//734
f 475//782 478//782 477//782
f 477//783 478//783 482//783
f 479//786 481//786 474//786
f 474//787 478//787 475//787
f 478//788 483//788 482//788
f 474//789 483//789 478//789
f 483//790 474//790 481//790
f 600//791 482//791 483//791
f 484//792 483//792 481//792
f 485//793 481//793 486//793
f 492//811 493//811 609//811
f 492//812 609//812 486//812
f 495//814 493//814 494//814
f 493//815 496//815 609//815
f 493//816 498//816 496//816
f 498//817 493//817 495//817
f 546//928 545//928 547//928
f 551//929 550//929 549//929
f 552//930 549//930 547//930
f 552//931 551//931 549//931
f 552//932 547//932 544//932
f 547//934 548//934 546//934
f 548//935 547//935 550//935
f 550//936 547//936 549//936
f 550//937 551//937 558//937
f 558//938 551//938 553//938
f 554//939 553//939 551//939
f 554//941 555//941 553//941
f 555//942 556//942 553//942
f 555//944 625//944 557//944
f 557//945 559//945 555//945
f 556//946 555//946 559//946
f 556//947 559//947 560//947
f 683//948 556//948 560//948
f 561//949 560//949 559//949
f 559//950 562//950 561//950
f 562//951 559//951 557//951
f 625//952 562//952 557//952
f 625//953 555//953 595//953
f 491//1026 495//1026 494//1026
f 601//1061 703//1061 600//1061
f 601//1062 600//1062 602//1062
f 601//1063 602//1063 603//1063
f 703//1064 601//1064 679//1064
f 703//1065 679//1065 704//1065
f 679//1066 601//1066 681//1066
f 681//1067 601//1067 614//1067
f 603//1068 614//1068 601//1068
f 604//1069 614//1069 603//1069
f 603//1070 602//1070 605//1070
f 605//1071 604//1071 603//1071
f 606//1072 604//1072 612//1072
f 612//1073 604//1073 605//1073
f 600//1074 607//1074 602//1074
f 482//1075 600//1075 477//1075
f 477//1076 600//1076 703//1076
f 607//1077 483//1077 484//1077
f 485//1078 608//1078 484//1078
f 484//1079 481//1079 485//1079
f 608//1080 485//1080 610//1080
f 610//1081 611//1081 608//1081
f 706//1082 608//1082 611//1082
f 484//1083 608//1083 612//1083
f 484//1084 612//1084 607//1084
f 602//1085 607//1085 613//1085
f 605//1086 602//1086 613//1086
f 612//1087 605//1087 613//1087
f 612//1088 613//1088 607//1088
f 687//1089 614//1089 604//1089
f 687//1090 604//1090 615//1090
f 615//1091 604//1091 606//1091
f 606//1092 616//1092 615//1092
f 705//1093 608//1093 706//1093
f 610//1094 485//1094 609//1094
f 486//1095 609//1095 485//1095
f 480//1096 486//1096 481//1096
f 611//1097 610//1097 617//1097
f 610//1098 496//1098 619//1098
f 610//1099 619//1099 617//1099
f 617//1100 619//1100 618//1100
f 496//1101 610//1101 609//1101
f 509//1106 619//1106 498//1106
f 619//1107 496//1107 498//1107
f 618//1109 619//1109 509//1109
f 618//1110 509//1110 506//1110
f 618//1111 506//1111 620//1111
f 620//1112 621//1112 618//1112
f 621//1113 620//1113 502//1113
f 621//1114 502//1114 505//1114
f 505//1115 622//1115 621//1115
f 618//1116 621//1116 622//1116
f 618//1117 622//1117 623//1117
f 683//1210 560//1210 678//1210
f 681//1211 560//1211 561//1211
f 561//1212 562//1212 598//1212
f 598//1213 680//1213 561//1213
f 680//1214 679//1214 561//1214
f 681//1215 678//1215 560//1215
f 561//1216 679//1216 681//1216
f 681//1218 682//1218 678//1218
f 683//1219 678//1219 682//1219
f 614//1220 682//1220 681//1220
f 615//1222 616//1222 684//1222
f 684//1223 685//1223 615//1223
f 685//1224 688//1224 683//1224
f 685//1225 687//1225 615//1225
f 685//1226 614//1226 687//1226
f 685//1227 683//1227 614//1227
f 614//1228 683//1228 682//1228
f 558//1229 683//1229 688//1229
f 688//1230 685//1230 686//1230
f 688//1231 686//1231 689//1231
f 548//1232 689//1232 690//1232
f 691//1233 548//1233 690//1233
f 546//1234 548//1234 729//1234
f 691//1235 693//1235 548//1235
f 696//1236 694//1236 695//1236
f 697//1237 694//1237 696//1237
f 696//1238 700//1238 697//1238
f 694//1239 697//1239 695//1239
f 695//1240 698//1240 692//1240
f 692//1241 698//1241 693//1241
f 697//1242 698//1242 695//1242
f 699//1243 697//1243 700//1243
f 698//1244 697//1244 699//1244
f 700//1245 696//1245 733//1245
f 700//1246 701//1246 699//1246
f 701//1247 700//1247 732//1247
f 701//1248 732//1248 729//1248
f 699//1249 701//1249 729//1249
f 698//1250 699//1250 729//1250
f 553//1253 556//1253 558//1253
f 558//1254 556//1254 683//1254
f 558//1255 688//1255 689//1255
f 689//1256 550//1256 558//1256
f 689//1257 548//1257 550//1257
f 679//1258 680//1258 704//1258
f 611//1259 623//1259 706//1259
f 617//1260 618//1260 623//1260
f 617//1261 623//1261 611//1261
f 600//1262 483//1262 607//1262
f 651//1304 727//1304 726//1304
f 730//1310 545//1310 546//1310
f 545//1311 730//1311 728//1311
f 727//1312 728//1312 731//1312
f 728//1313 730//1313 731//1313
f 732//1314 730//1314 546//1314
f 732//1315 546//1315 729//1315
f 729//1316 548//1316 693//1316
f 729//1317 693//1317 698//1317
f 730//1318 732//1318 700//1318
f 727//1322 731//1322 733//1322
f 731//1323 730//1323 733//1323
f 730//1324 700//1324 733//1324
f 612//1325 608//1325 705//1325
