# Blender 5.2.1 LTS
# www.blender.org
mtllib angel_sword.mtl
o Handle
v 0.000000 0.230000 -0.175000
v 0.000000 0.230000 0.175000
v 0.011481 0.227716 -0.175000
v 0.011481 0.227716 0.175000
v 0.021213 0.221213 -0.175000
v 0.021213 0.221213 0.175000
v 0.027716 0.211481 -0.175000
v 0.027716 0.211481 0.175000
v 0.030000 0.200000 -0.175000
v 0.030000 0.200000 0.175000
v 0.027716 0.188519 -0.175000
v 0.027716 0.188519 0.175000
v 0.021213 0.178787 -0.175000
v 0.021213 0.178787 0.175000
v 0.011481 0.172284 -0.175000
v 0.011481 0.172284 0.175000
v 0.000000 0.170000 -0.175000
v 0.000000 0.170000 0.175000
v -0.011481 0.172284 -0.175000
v -0.011481 0.172284 0.175000
v -0.021213 0.178787 -0.175000
v -0.021213 0.178787 0.175000
v -0.027716 0.188519 -0.175000
v -0.027716 0.188519 0.175000
v -0.030000 0.200000 -0.175000
v -0.030000 0.200000 0.175000
v -0.027716 0.211481 -0.175000
v -0.027716 0.211481 0.175000
v -0.021213 0.221213 -0.175000
v -0.021213 0.221213 0.175000
v -0.011481 0.227716 -0.175000
v -0.011481 0.227716 0.175000
vn 0.1951 0.9808 -0.0000
vn 0.5556 0.8315 -0.0000
vn 0.8315 0.5556 -0.0000
vn 0.9808 0.1951 -0.0000
vn 0.9808 -0.1951 -0.0000
vn 0.8315 -0.5556 -0.0000
vn 0.5556 -0.8315 -0.0000
vn 0.1951 -0.9808 -0.0000
vn -0.1951 -0.9808 -0.0000
vn -0.5556 -0.8315 -0.0000
vn -0.8315 -0.5556 -0.0000
vn -0.9808 -0.1951 -0.0000
vn -0.9808 0.1951 -0.0000
vn -0.8315 0.5556 -0.0000
vn -0.0000 -0.0000 1.0000
vn -0.5556 0.8315 -0.0000
vn -0.1951 0.9808 -0.0000
vn -0.0000 -0.0000 -1.0000
vt 1.000000 0.500000
vt 1.000000 1.000000
vt 0.937500 1.000000
vt 0.937500 0.500000
vt 0.875000 1.000000
vt 0.875000 0.500000
vt 0.812500 1.000000
vt 0.812500 0.500000
vt 0.750000 1.000000
vt 0.750000 0.500000
vt 0.687500 1.000000
vt 0.687500 0.500000
vt 0.625000 1.000000
vt 0.625000 0.500000
vt 0.562500 1.000000
vt 0.562500 0.500000
vt 0.500000 1.000000
vt 0.500000 0.500000
vt 0.437500 1.000000
vt 0.437500 0.500000
vt 0.375000 1.000000
vt 0.375000 0.500000
vt 0.312500 1.000000
vt 0.312500 0.500000
vt 0.250000 1.000000
vt 0.250000 0.500000
vt 0.187500 1.000000
vt 0.187500 0.500000
vt 0.125000 1.000000
vt 0.125000 0.500000
vt 0.341844 0.471731
vt 0.250000 0.490000
vt 0.158156 0.471731
vt 0.080294 0.419706
vt 0.028269 0.341844
vt 0.010000 0.250000
vt 0.028269 0.158156
vt 0.080294 0.080294
vt 0.158156 0.028269
vt 0.250000 0.010000
vt 0.341844 0.028269
vt 0.419706 0.080294
vt 0.471731 0.158156
vt 0.490000 0.250000
vt 0.471731 0.341844
vt 0.419706 0.419706
vt 0.062500 1.000000
vt 0.062500 0.500000
vt 0.000000 1.000000
vt 0.000000 0.500000
vt 0.750000 0.490000
vt 0.841844 0.471731
vt 0.919706 0.419706
vt 0.971731 0.341844
vt 0.990000 0.250000
vt 0.971731 0.158156
vt 0.919706 0.080294
vt 0.841844 0.028269
vt 0.750000 0.010000
vt 0.658156 0.028269
vt 0.580294 0.080294
vt 0.528269 0.158156
vt 0.510000 0.250000
vt 0.528269 0.341844
vt 0.580294 0.419706
vt 0.658156 0.471731
s 0
usemtl AngelW_Gold
f 1/1/1 2/2/1 4/3/1 3/4/1
f 3/4/2 4/3/2 6/5/2 5/6/2
f 5/6/3 6/5/3 8/7/3 7/8/3
f 7/8/4 8/7/4 10/9/4 9/10/4
f 9/10/5 10/9/5 12/11/5 11/12/5
f 11/12/6 12/11/6 14/13/6 13/14/6
f 13/14/7 14/13/7 16/15/7 15/16/7
f 15/16/8 16/15/8 18/17/8 17/18/8
f 17/18/9 18/17/9 20/19/9 19/20/9
f 19/20/10 20/19/10 22/21/10 21/22/10
f 21/22/11 22/21/11 24/23/11 23/24/11
f 23/24/12 24/23/12 26/25/12 25/26/12
f 25/26/13 26/25/13 28/27/13 27/28/13
f 27/28/14 28/27/14 30/29/14 29/30/14
f 4/31/15 2/32/15 32/33/15 30/34/15 28/35/15 26/36/15 24/37/15 22/38/15 20/39/15 18/40/15 16/41/15 14/42/15 12/43/15 10/44/15 8/45/15 6/46/15
f 29/30/16 30/29/16 32/47/16 31/48/16
f 31/48/17 32/47/17 2/49/17 1/50/17
f 1/51/18 3/52/18 5/53/18 7/54/18 9/55/18 11/56/18 13/57/18 15/58/18 17/59/18 19/60/18 21/61/18 23/62/18 25/63/18 27/64/18 29/65/18 31/66/18
o Pommel
v 0.000000 0.030000 0.060000
v 0.000000 0.041705 0.058847
v 0.000000 0.072426 0.042426
v 0.000000 0.085433 0.022961
v 0.000000 0.088847 0.011705
v 0.000000 0.088847 -0.011705
v 0.000000 0.085433 -0.022961
v 0.000000 0.079888 -0.033334
v 0.000000 0.072426 -0.042426
v 0.000000 0.063334 -0.049888
v 0.000000 0.052961 -0.055433
v 0.000000 0.041705 -0.058847
v 0.000000 0.030000 -0.060000
v 0.004479 0.040814 0.058847
v 0.008787 0.051213 0.055433
v 0.012756 0.060797 0.049888
v 0.016236 0.069197 0.042426
v 0.019091 0.076091 0.033334
v 0.021213 0.081213 0.022961
v 0.022520 0.084368 0.011705
v 0.022961 0.085433 0.000000
v 0.022520 0.084368 -0.011705
v 0.021213 0.081213 -0.022961
v 0.019091 0.076091 -0.033334
v 0.016236 0.069197 -0.042426
v 0.012756 0.060797 -0.049888
v 0.008787 0.051213 -0.055433
v 0.004479 0.040814 -0.058847
v 0.008277 0.038277 0.058847
v 0.016236 0.046236 0.055433
v 0.023571 0.053571 0.049888
v 0.030000 0.060000 0.042426
v 0.035276 0.065276 0.033334
v 0.039197 0.069197 0.022961
v 0.041611 0.071611 0.011705
v 0.042426 0.072426 0.000000
v 0.041611 0.071611 -0.011705
v 0.039197 0.069197 -0.022961
v 0.035276 0.065276 -0.033334
v 0.030000 0.060000 -0.042426
v 0.023571 0.053571 -0.049888
v 0.016236 0.046236 -0.055433
v 0.008277 0.038277 -0.058847
v 0.010814 0.034479 0.058847
v 0.021213 0.038787 0.055433
v 0.030797 0.042756 0.049888
v 0.039197 0.046236 0.042426
v 0.046091 0.049091 0.033334
v 0.051213 0.051213 0.022961
v 0.054368 0.052520 0.011705
v 0.055433 0.052961 0.000000
v 0.054368 0.052520 -0.011705
v 0.051213 0.051213 -0.022961
v 0.046091 0.049091 -0.033334
v 0.039197 0.046236 -0.042426
v 0.030797 0.042756 -0.049888
v 0.021213 0.038787 -0.055433
v 0.010814 0.034479 -0.058847
v 0.011705 0.030000 0.058847
v 0.022961 0.030000 0.055433
v 0.033334 0.030000 0.049888
v 0.042426 0.030000 0.042426
v 0.049888 0.030000 0.033334
v 0.055433 0.030000 0.022961
v 0.058847 0.030000 0.011705
v 0.060000 0.030000 0.000000
v 0.058847 0.030000 -0.011705
v 0.055433 0.030000 -0.022961
v 0.049888 0.030000 -0.033334
v 0.042426 0.030000 -0.042426
v 0.033334 0.030000 -0.049888
v 0.022961 0.030000 -0.055433
v 0.011705 0.030000 -0.058847
v 0.010814 0.025521 0.058847
v 0.021213 0.021213 0.055433
v 0.030797 0.017244 0.049888
v 0.039197 0.013764 0.042426
v 0.046091 0.010909 0.033334
v 0.051213 0.008787 0.022961
v 0.054368 0.007480 0.011705
v 0.055433 0.007039 0.000000
v 0.054368 0.007480 -0.011705
v 0.051213 0.008787 -0.022961
v 0.046091 0.010909 -0.033334
v 0.039197 0.013764 -0.042426
v 0.030797 0.017244 -0.049888
v 0.021213 0.021213 -0.055433
v 0.010814 0.025521 -0.058847
v 0.008277 0.021723 0.058847
v 0.016236 0.013764 0.055433
v 0.023571 0.006429 0.049888
v 0.030000 -0.000000 0.042426
v 0.035276 -0.005276 0.033334
v 0.039197 -0.009197 0.022961
v 0.041611 -0.011611 0.011705
v 0.042426 -0.012426 0.000000
v 0.041611 -0.011611 -0.011705
v 0.039197 -0.009197 -0.022961
v 0.035276 -0.005276 -0.033334
v 0.030000 -0.000000 -0.042426
v 0.023571 0.006429 -0.049888
v 0.016236 0.013764 -0.055433
v 0.008277 0.021723 -0.058847
v 0.004479 0.019186 0.058847
v 0.008787 0.008787 0.055433
v 0.012756 -0.000797 0.049888
v 0.016236 -0.009197 0.042426
v 0.019091 -0.016091 0.033334
v 0.021213 -0.021213 0.022961
v 0.022520 -0.024368 0.011705
v 0.022961 -0.025433 0.000000
v 0.022520 -0.024368 -0.011705
v 0.021213 -0.021213 -0.022961
v 0.019091 -0.016091 -0.033334
v 0.016236 -0.009197 -0.042426
v 0.012756 -0.000797 -0.049888
v 0.008787 0.008787 -0.055433
v 0.004479 0.019186 -0.058847
v -0.000000 0.018295 0.058847
v -0.000000 0.007039 0.055433
v -0.000000 -0.003334 0.049888
v -0.000000 -0.012426 0.042426
v -0.000000 -0.019888 0.033334
v -0.000000 -0.025433 0.022961
v -0.000000 -0.028847 0.011705
v -0.000000 -0.030000 0.000000
v -0.000000 -0.028847 -0.011705
v -0.000000 -0.025433 -0.022961
v -0.000000 -0.019888 -0.033334
v -0.000000 -0.012426 -0.042426
v -0.000000 -0.003334 -0.049888
v -0.000000 0.007039 -0.055433
v -0.000000 0.018295 -0.058847
v -0.004479 0.019186 0.058847
v -0.008787 0.008787 0.055433
v -0.012756 -0.000797 0.049888
v -0.016236 -0.009197 0.042426
v -0.019091 -0.016091 0.033334
v -0.021213 -0.021213 0.022961
v -0.022520 -0.024368 0.011705
v -0.022961 -0.025433 0.000000
v -0.022520 -0.024368 -0.011705
v -0.021213 -0.021213 -0.022961
v -0.019091 -0.016091 -0.033334
v -0.016236 -0.009197 -0.042426
v -0.012756 -0.000797 -0.049888
v -0.008787 0.008787 -0.055433
v -0.004479 0.019186 -0.058847
v -0.008277 0.021723 0.058847
v -0.016236 0.013764 0.055433
v -0.023571 0.006429 0.049888
v -0.030000 0.000000 0.042426
v -0.035276 -0.005276 0.033334
v -0.039197 -0.009197 0.022961
v -0.041611 -0.011611 0.011705
v -0.042426 -0.012426 0.000000
v -0.041611 -0.011611 -0.011705
v -0.039197 -0.009197 -0.022961
v -0.035276 -0.005276 -0.033334
v -0.030000 0.000000 -0.042426
v -0.023571 0.006429 -0.049888
v -0.016236 0.013764 -0.055433
v -0.008277 0.021723 -0.058847
v -0.010814 0.025521 0.058847
v -0.021213 0.021213 0.055433
v -0.030797 0.017244 0.049888
v -0.039197 0.013764 0.042426
v -0.046091 0.010909 0.033334
v -0.051213 0.008787 0.022961
v -0.054368 0.007480 0.011705
v -0.055433 0.007039 0.000000
v -0.054368 0.007480 -0.011705
v -0.051213 0.008787 -0.022961
v -0.046091 0.010909 -0.033334
v -0.039197 0.013764 -0.042426
v -0.030797 0.017244 -0.049888
v -0.021213 0.021213 -0.055433
v -0.010814 0.025521 -0.058847
v -0.011705 0.030000 0.058847
v -0.022961 0.030000 0.055433
v -0.033334 0.030000 0.049888
v -0.042426 0.030000 0.042426
v -0.049888 0.030000 0.033334
v -0.055433 0.030000 0.022961
v -0.058847 0.030000 0.011705
v -0.060000 0.030000 0.000000
v -0.058847 0.030000 -0.011705
v -0.055433 0.030000 -0.022961
v -0.049888 0.030000 -0.033334
v -0.042426 0.030000 -0.042426
v -0.033334 0.030000 -0.049888
v -0.022961 0.030000 -0.055433
v -0.011705 0.030000 -0.058847
v -0.010814 0.034479 0.058847
v -0.021213 0.038787 0.055433
v -0.030797 0.042756 0.049888
v -0.039197 0.046236 0.042426
v -0.046091 0.049091 0.033334
v -0.051213 0.051213 0.022961
v -0.054368 0.052520 0.011705
v -0.055433 0.052961 0.000000
v -0.054368 0.052520 -0.011705
v -0.051213 0.051213 -0.022961
v -0.046091 0.049091 -0.033334
v -0.039197 0.046236 -0.042426
v -0.030797 0.042756 -0.049888
v -0.021213 0.038787 -0.055433
v -0.010814 0.034479 -0.058847
v -0.008277 0.038277 0.058847
v -0.016236 0.046236 0.055433
v -0.023571 0.053571 0.049888
v -0.030000 0.060000 0.042426
v -0.035276 0.065276 0.033334
v -0.039197 0.069197 0.022961
v -0.041611 0.071611 0.011705
v -0.042426 0.072426 0.000000
v -0.041611 0.071611 -0.011705
v -0.039197 0.069197 -0.022961
v -0.035276 0.065276 -0.033334
v -0.030000 0.060000 -0.042426
v -0.023571 0.053571 -0.049888
v -0.016236 0.046236 -0.055433
v -0.008277 0.038277 -0.058847
v -0.004479 0.040814 0.058847
v -0.008787 0.051213 0.055433
v -0.012756 0.060797 0.049888
v -0.016236 0.069197 0.042426
v -0.019091 0.076091 0.033334
v -0.021213 0.081213 0.022961
v -0.022520 0.084368 0.011705
v -0.022961 0.085433 0.000000
v -0.022520 0.084368 -0.011705
v -0.021213 0.081213 -0.022961
v -0.019091 0.076091 -0.033334
v -0.016236 0.069197 -0.042426
v -0.012756 0.060797 -0.049888
v -0.008787 0.051213 -0.055433
v -0.004479 0.040814 -0.058847
v 0.000000 0.052961 0.055433
v 0.000000 0.063334 0.049888
v 0.000000 0.079888 0.033334
v 0.000000 0.090000 0.000000
vn 0.1728 0.8687 -0.4643
vn 0.1252 0.6294 0.7669
vn 0.1520 0.7640 -0.6270
vn 0.1520 0.7640 0.6270
vn 0.1252 0.6294 -0.7669
vn 0.1728 0.8687 0.4643
vn 0.0934 0.4693 -0.8781
vn 0.1870 0.9401 0.2852
vn 0.0576 0.2898 -0.9553
vn 0.1942 0.9762 0.0962
vn 0.0195 0.0980 0.9950
vn 0.0195 0.0980 -0.9950
vn 0.1942 0.9762 -0.0962
vn 0.0576 0.2898 0.9553
vn 0.1870 0.9401 -0.2852
vn 0.0934 0.4693 0.8781
vn 0.1642 0.2457 0.9553
vn 0.5325 0.7969 -0.2852
vn 0.2659 0.3979 0.8781
vn 0.4921 0.7364 -0.4643
vn 0.3565 0.5336 0.7669
vn 0.4328 0.6477 -0.6270
vn 0.4328 0.6477 0.6270
vn 0.3565 0.5336 -0.7669
vn 0.4921 0.7364 0.4643
vn 0.2659 0.3979 -0.8781
vn 0.5325 0.7969 0.2852
vn 0.1642 0.2457 -0.9553
vn 0.5530 0.8276 0.0962
vn 0.0555 0.0831 0.9950
vn 0.0555 0.0831 -0.9950
vn 0.5530 0.8276 -0.0962
vn 0.7364 0.4921 0.4643
vn 0.3979 0.2659 -0.8781
vn 0.7969 0.5325 0.2852
vn 0.2457 0.1642 -0.9553
vn 0.8276 0.5530 0.0962
vn 0.0831 0.0555 0.9950
vn 0.0831 0.0555 -0.9950
vn 0.8276 0.5530 -0.0962
vn 0.2457 0.1642 0.9553
vn 0.7969 0.5325 -0.2852
vn 0.3979 0.2659 0.8781
vn 0.7364 0.4921 -0.4643
vn 0.5336 0.3565 0.7669
vn 0.6477 0.4328 -0.6270
vn 0.6477 0.4328 0.6270
vn 0.5336 0.3565 -0.7669
vn 0.9401 0.1870 -0.2852
vn 0.4693 0.0934 0.8781
vn 0.8687 0.1728 -0.4643
vn 0.6294 0.1252 0.7669
vn 0.7640 0.1520 -0.6270
vn 0.7640 0.1520 0.6270
vn 0.6294 0.1252 -0.7669
vn 0.8687 0.1728 0.4643
vn 0.4693 0.0934 -0.8781
vn 0.9401 0.1870 0.2852
vn 0.2898 0.0576 -0.9553
vn 0.9762 0.1942 0.0962
vn 0.0980 0.0195 0.9950
vn 0.0980 0.0195 -0.9950
vn 0.9762 0.1942 -0.0962
vn 0.2898 0.0576 0.9553
vn 0.4693 -0.0934 -0.8781
vn 0.9401 -0.1870 0.2852
vn 0.2898 -0.0576 -0.9553
vn 0.9762 -0.1942 0.0962
vn 0.0980 -0.0195 0.9950
vn 0.0980 -0.0195 -0.9950
vn 0.9762 -0.1942 -0.0962
vn 0.2898 -0.0576 0.9553
vn 0.9401 -0.1870 -0.2852
vn 0.4693 -0.0934 0.8781
vn 0.8687 -0.1728 -0.4643
vn 0.6294 -0.1252 0.7669
vn 0.7640 -0.1520 -0.6270
vn 0.7640 -0.1520 0.6270
vn 0.6294 -0.1252 -0.7669
vn 0.8687 -0.1728 0.4643
vn 0.7364 -0.4921 -0.4643
vn 0.5336 -0.3565 0.7669
vn 0.6477 -0.4328 -0.6270
vn 0.6477 -0.4328 0.6270
vn 0.5336 -0.3565 -0.7669
vn 0.7364 -0.4921 0.4643
vn 0.3979 -0.2659 -0.8781
vn 0.7969 -0.5325 0.2852
vn 0.2457 -0.1642 -0.9553
vn 0.8276 -0.5530 0.0962
vn 0.0831 -0.0555 0.9950
vn 0.0831 -0.0555 -0.9950
vn 0.8276 -0.5530 -0.0962
vn 0.2457 -0.1642 0.9553
vn 0.7969 -0.5325 -0.2852
vn 0.3979 -0.2659 0.8781
vn 0.1642 -0.2457 -0.9553
vn 0.5530 -0.8276 0.0962
vn 0.0555 -0.0831 0.9950
vn 0.0555 -0.0831 -0.9950
vn 0.5530 -0.8276 -0.0962
vn 0.1642 -0.2457 0.9553
vn 0.5325 -0.7969 -0.2852
vn 0.2659 -0.3979 0.8781
vn 0.4921 -0.7364 -0.4643
vn 0.3565 -0.5336 0.7669
vn 0.4328 -0.6477 -0.6270
vn 0.4328 -0.6477 0.6270
vn 0.3565 -0.5336 -0.7669
vn 0.4921 -0.7364 0.4643
vn 0.2659 -0.3979 -0.8781
vn 0.5325 -0.7969 0.2852
vn 0.1252 -0.6294 0.7669
vn 0.1520 -0.7640 -0.6270
vn 0.1520 -0.7640 0.6270
vn 0.1252 -0.6294 -0.7669
vn 0.1728 -0.8687 0.4643
vn 0.0934 -0.4693 -0.8781
vn 0.1870 -0.9401 0.2852
vn 0.0576 -0.2898 -0.9553
vn 0.1942 -0.9762 0.0962
vn 0.0195 -0.0980 0.9950
vn 0.0195 -0.0980 -0.9950
vn 0.1942 -0.9762 -0.0962
vn 0.0576 -0.2898 0.9553
vn 0.1870 -0.9401 -0.2852
vn 0.0934 -0.4693 0.8781
vn 0.1728 -0.8687 -0.4643
vn -0.1942 -0.9762 0.0962
vn -0.0195 -0.0980 0.9950
vn -0.0195 -0.0980 -0.9950
vn -0.1942 -0.9762 -0.0962
vn -0.0576 -0.2898 0.9553
vn -0.1870 -0.9401 -0.2852
vn -0.0934 -0.4693 0.8781
vn -0.1728 -0.8687 -0.4643
vn -0.1252 -0.6294 0.7669
vn -0.1520 -0.7640 -0.6270
vn -0.1520 -0.7640 0.6270
vn -0.1252 -0.6294 -0.7669
vn -0.1728 -0.8687 0.4643
vn -0.0934 -0.4693 -0.8781
vn -0.1870 -0.9401 0.2852
vn -0.0576 -0.2898 -0.9553
vn -0.4328 -0.6477 -0.6270
vn -0.4328 -0.6477 0.6270
vn -0.3565 -0.5336 -0.7669
vn -0.4921 -0.7364 0.4643
vn -0.2659 -0.3979 -0.8781
vn -0.5325 -0.7969 0.2852
vn -0.1642 -0.2457 -0.9553
vn -0.5530 -0.8276 0.0962
vn -0.0555 -0.0831 0.9950
vn -0.0555 -0.0831 -0.9950
vn -0.5530 -0.8276 -0.0962
vn -0.1642 -0.2457 0.9553
vn -0.5325 -0.7969 -0.2852
vn -0.2659 -0.3979 0.8781
vn -0.4921 -0.7364 -0.4643
vn -0.3565 -0.5336 0.7669
vn -0.0831 -0.0555 0.9950
vn -0.0831 -0.0555 -0.9950
vn -0.8276 -0.5530 -0.0962
vn -0.2457 -0.1642 0.9553
vn -0.7969 -0.5325 -0.2852
vn -0.3979 -0.2659 0.8781
vn -0.7364 -0.4921 -0.4643
vn -0.5336 -0.3565 0.7669
vn -0.6477 -0.4328 -0.6270
vn -0.6477 -0.4328 0.6270
vn -0.5336 -0.3565 -0.7669
vn -0.7364 -0.4921 0.4643
vn -0.3979 -0.2659 -0.8781
vn -0.7969 -0.5325 0.2852
vn -0.2457 -0.1642 -0.9553
vn -0.8276 -0.5530 0.0962
vn -0.7640 -0.1520 0.6270
vn -0.6294 -0.1252 -0.7669
vn -0.8687 -0.1728 0.4643
vn -0.4693 -0.0934 -0.8781
vn -0.9401 -0.1870 0.2852
vn -0.2898 -0.0576 -0.9553
vn -0.9762 -0.1942 0.0962
vn -0.0980 -0.0195 0.9950
vn -0.0980 -0.0195 -0.9950
vn -0.9762 -0.1942 -0.0962
vn -0.2898 -0.0576 0.9553
vn -0.9401 -0.1870 -0.2852
vn -0.4693 -0.0934 0.8781
vn -0.8687 -0.1728 -0.4643
vn -0.6294 -0.1252 0.7669
vn -0.7640 -0.1520 -0.6270
vn -0.9762 0.1942 -0.0962
vn -0.2898 0.0576 0.9553
vn -0.9401 0.1870 -0.2852
vn -0.4693 0.0934 0.8781
vn -0.8687 0.1728 -0.4643
vn -0.6294 0.1252 0.7669
vn -0.7640 0.1520 -0.6270
vn -0.7640 0.1520 0.6270
vn -0.6294 0.1252 -0.7669
vn -0.8687 0.1728 0.4643
vn -0.4693 0.0934 -0.8781
vn -0.9401 0.1870 0.2852
vn -0.2898 0.0576 -0.9553
vn -0.9762 0.1942 0.0962
vn -0.0980 0.0195 0.9950
vn -0.0980 0.0195 -0.9950
vn -0.5336 0.3565 -0.7669
vn -0.7364 0.4921 0.4643
vn -0.3979 0.2659 -0.8781
vn -0.7969 0.5325 0.2852
vn -0.2457 0.1642 -0.9553
vn -0.8276 0.5530 0.0962
vn -0.0831 0.0555 0.9950
vn -0.0831 0.0555 -0.9950
vn -0.8276 0.5530 -0.0962
vn -0.2457 0.1642 0.9553
vn -0.7969 0.5325 -0.2852
vn -0.3979 0.2659 0.8781
vn -0.7364 0.4921 -0.4643
vn -0.5336 0.3565 0.7669
vn -0.6477 0.4328 -0.6270
vn -0.6477 0.4328 0.6270
vn -0.5325 0.7969 -0.2852
vn -0.2659 0.3979 0.8781
vn -0.4921 0.7364 -0.4643
vn -0.3565 0.5336 0.7669
vn -0.4328 0.6477 -0.6270
vn -0.4328 0.6477 0.6270
vn -0.3565 0.5336 -0.7669
vn -0.4921 0.7364 0.4643
vn -0.2659 0.3979 -0.8781
vn -0.5325 0.7969 0.2852
vn -0.1642 0.2457 -0.9553
vn -0.5530 0.8276 0.0962
vn -0.0555 0.0831 0.9950
vn -0.0555 0.0831 -0.9950
vn -0.5530 0.8276 -0.0962
vn -0.1642 0.2457 0.9553
vn -0.0934 0.4693 -0.8781
vn -0.1870 0.9401 0.2852
vn -0.0576 0.2898 -0.9553
vn -0.1942 0.9762 0.0962
vn -0.0195 0.0980 0.9950
vn -0.0195 0.0980 -0.9950
vn -0.1942 0.9762 -0.0962
vn -0.0576 0.2898 0.9553
vn -0.1870 0.9401 -0.2852
vn -0.0934 0.4693 0.8781
vn -0.1728 0.8687 -0.4643
vn -0.1252 0.6294 0.7669
vn -0.1520 0.7640 -0.6270
vn -0.1520 0.7640 0.6270
vn -0.1252 0.6294 -0.7669
vn -0.1728 0.8687 0.4643
vt 0.750000 0.312500
vt 0.750000 0.375000
vt 0.687500 0.375000
vt 0.687500 0.312500
vt 0.750000 0.750000
vt 0.750000 0.812500
vt 0.687500 0.812500
vt 0.687500 0.750000
vt 0.750000 0.250000
vt 0.687500 0.250000
vt 0.750000 0.687500
vt 0.687500 0.687500
vt 0.750000 0.187500
vt 0.687500 0.187500
vt 0.750000 0.625000
vt 0.687500 0.625000
vt 0.750000 0.125000
vt 0.687500 0.125000
vt 0.750000 0.562500
vt 0.687500 0.562500
vt 0.750000 0.062500
vt 0.687500 0.062500
vt 0.750000 0.500000
vt 0.687500 0.500000
vt 0.750000 0.937500
vt 0.718750 1.000000
vt 0.687500 0.937500
vt 0.718750 0.000000
vt 0.750000 0.437500
vt 0.687500 0.437500
vt 0.750000 0.875000
vt 0.687500 0.875000
vt 0.625000 0.937500
vt 0.625000 0.875000
vt 0.625000 0.437500
vt 0.625000 0.375000
vt 0.625000 0.812500
vt 0.625000 0.312500
vt 0.625000 0.750000
vt 0.625000 0.250000
vt 0.625000 0.687500
vt 0.625000 0.187500
vt 0.625000 0.625000
vt 0.625000 0.125000
vt 0.625000 0.562500
vt 0.625000 0.062500
vt 0.625000 0.500000
vt 0.656250 1.000000
vt 0.656250 0.000000
vt 0.562500 0.687500
vt 0.562500 0.625000
vt 0.562500 0.187500
vt 0.562500 0.125000
vt 0.562500 0.562500
vt 0.562500 0.062500
vt 0.562500 0.500000
vt 0.593750 1.000000
vt 0.562500 0.937500
vt 0.593750 0.000000
vt 0.562500 0.437500
vt 0.562500 0.875000
vt 0.562500 0.375000
vt 0.562500 0.812500
vt 0.562500 0.312500
vt 0.562500 0.750000
vt 0.562500 0.250000
vt 0.500000 0.437500
vt 0.500000 0.375000
vt 0.500000 0.875000
vt 0.500000 0.812500
vt 0.500000 0.312500
vt 0.500000 0.750000
vt 0.500000 0.250000
vt 0.500000 0.687500
vt 0.500000 0.187500
vt 0.500000 0.625000
vt 0.500000 0.125000
vt 0.500000 0.562500
vt 0.500000 0.062500
vt 0.500000 0.500000
vt 0.531250 1.000000
vt 0.500000 0.937500
vt 0.531250 0.000000
vt 0.437500 0.187500
vt 0.437500 0.125000
vt 0.437500 0.625000
vt 0.437500 0.562500
vt 0.437500 0.062500
vt 0.437500 0.500000
vt 0.468750 1.000000
vt 0.437500 0.937500
vt 0.468750 0.000000
vt 0.437500 0.437500
vt 0.437500 0.875000
vt 0.437500 0.375000
vt 0.437500 0.812500
vt 0.437500 0.312500
vt 0.437500 0.750000
vt 0.437500 0.250000
vt 0.437500 0.687500
vt 0.375000 0.375000
vt 0.375000 0.312500
vt 0.375000 0.812500
vt 0.375000 0.750000
vt 0.375000 0.250000
vt 0.375000 0.687500
vt 0.375000 0.187500
vt 0.375000 0.625000
vt 0.375000 0.125000
vt 0.375000 0.562500
vt 0.375000 0.062500
vt 0.375000 0.500000
vt 0.406250 1.000000
vt 0.375000 0.937500
vt 0.406250 0.000000
vt 0.375000 0.437500
vt 0.375000 0.875000
vt 0.312500 0.125000
vt 0.312500 0.062500
vt 0.312500 0.562500
vt 0.312500 0.500000
vt 0.343750 1.000000
vt 0.312500 0.937500
vt 0.343750 0.000000
vt 0.312500 0.437500
vt 0.312500 0.875000
vt 0.312500 0.375000
vt 0.312500 0.812500
vt 0.312500 0.312500
vt 0.312500 0.750000
vt 0.312500 0.250000
vt 0.312500 0.687500
vt 0.312500 0.187500
vt 0.312500 0.625000
vt 0.250000 0.812500
vt 0.250000 0.750000
vt 0.250000 0.312500
vt 0.250000 0.250000
vt 0.250000 0.687500
vt 0.250000 0.187500
vt 0.250000 0.625000
vt 0.250000 0.125000
vt 0.250000 0.562500
vt 0.250000 0.062500
vt 0.250000 0.500000
vt 0.281250 1.000000
vt 0.250000 0.937500
vt 0.281250 0.000000
vt 0.250000 0.437500
vt 0.250000 0.875000
vt 0.250000 0.375000
vt 0.187500 0.562500
vt 0.187500 0.500000
vt 0.218750 1.000000
vt 0.187500 0.937500
vt 0.218750 0.000000
vt 0.187500 0.062500
vt 0.187500 0.437500
vt 0.187500 0.875000
vt 0.187500 0.375000
vt 0.187500 0.812500
vt 0.187500 0.312500
vt 0.187500 0.750000
vt 0.187500 0.250000
vt 0.187500 0.687500
vt 0.187500 0.187500
vt 0.187500 0.625000
vt 0.187500 0.125000
vt 0.125000 0.312500
vt 0.125000 0.250000
vt 0.125000 0.750000
vt 0.125000 0.687500
vt 0.125000 0.187500
vt 0.125000 0.625000
vt 0.125000 0.125000
vt 0.125000 0.562500
vt 0.125000 0.062500
vt 0.125000 0.500000
vt 0.156250 1.000000
vt 0.125000 0.937500
vt 0.156250 0.000000
vt 0.125000 0.437500
vt 0.125000 0.875000
vt 0.125000 0.375000
vt 0.125000 0.812500
vt 0.093750 1.000000
vt 0.062500 0.937500
vt 0.093750 0.000000
vt 0.062500 0.062500
vt 0.062500 0.500000
vt 0.062500 0.437500
vt 0.062500 0.875000
vt 0.062500 0.375000
vt 0.062500 0.812500
vt 0.062500 0.312500
vt 0.062500 0.750000
vt 0.062500 0.250000
vt 0.062500 0.687500
vt 0.062500 0.187500
vt 0.062500 0.625000
vt 0.062500 0.125000
vt 0.062500 0.562500
vt 0.000000 0.750000
vt 0.000000 0.687500
vt 0.000000 0.250000
vt 0.000000 0.187500
vt 0.000000 0.625000
vt 0.000000 0.125000
vt 0.000000 0.562500
vt 0.000000 0.062500
vt 0.000000 0.500000
vt 0.031250 1.000000
vt 0.000000 0.937500
vt 0.031250 0.000000
vt 0.000000 0.437500
vt 0.000000 0.875000
vt 0.000000 0.375000
vt 0.000000 0.812500
vt 0.000000 0.312500
vt 1.000000 0.437500
vt 1.000000 0.500000
vt 0.937500 0.500000
vt 0.937500 0.437500
vt 1.000000 0.875000
vt 1.000000 0.937500
vt 0.937500 0.937500
vt 0.937500 0.875000
vt 1.000000 0.375000
vt 0.937500 0.375000
vt 1.000000 0.812500
vt 0.937500 0.812500
vt 1.000000 0.312500
vt 0.937500 0.312500
vt 1.000000 0.750000
vt 0.937500 0.750000
vt 1.000000 0.250000
vt 0.937500 0.250000
vt 1.000000 0.687500
vt 0.937500 0.687500
vt 1.000000 0.187500
vt 0.937500 0.187500
vt 1.000000 0.625000
vt 0.937500 0.625000
vt 1.000000 0.125000
vt 0.937500 0.125000
vt 1.000000 0.562500
vt 0.937500 0.562500
vt 1.000000 0.062500
vt 0.937500 0.062500
vt 0.968750 1.000000
vt 0.968750 0.000000
vt 0.875000 0.250000
vt 0.875000 0.187500
vt 0.875000 0.687500
vt 0.875000 0.625000
vt 0.875000 0.125000
vt 0.875000 0.562500
vt 0.875000 0.062500
vt 0.875000 0.500000
vt 0.906250 1.000000
vt 0.875000 0.937500
vt 0.906250 0.000000
vt 0.875000 0.437500
vt 0.875000 0.875000
vt 0.875000 0.375000
vt 0.875000 0.812500
vt 0.875000 0.312500
vt 0.875000 0.750000
vt 0.812500 0.437500
vt 0.812500 0.375000
vt 0.812500 0.875000
vt 0.812500 0.812500
vt 0.812500 0.312500
vt 0.812500 0.750000
vt 0.812500 0.250000
vt 0.812500 0.687500
vt 0.812500 0.187500
vt 0.812500 0.625000
vt 0.812500 0.125000
vt 0.812500 0.562500
vt 0.812500 0.062500
vt 0.812500 0.500000
vt 0.843750 1.000000
vt 0.812500 0.937500
vt 0.843750 0.000000
vt 0.781250 1.000000
vt 0.781250 0.000000
s 0
usemtl AngelW_Gold
f 40/67/19 39/68/19 55/69/19 56/70/19
f 35/71/20 272/72/20 48/73/20 49/74/20
f 41/75/21 40/67/21 56/70/21 57/76/21
f 273/77/22 35/71/22 49/74/22 50/78/22
f 42/79/23 41/75/23 57/76/23 58/80/23
f 36/81/24 273/77/24 50/78/24 51/82/24
f 43/83/25 42/79/25 58/80/25 59/84/25
f 37/85/26 36/81/26 51/82/26 52/86/26
f 44/87/27 43/83/27 59/84/27 60/88/27
f 274/89/28 37/85/28 52/86/28 53/90/28
f 34/91/29 33/92/29 46/93/29
f 45/94/30 44/87/30 60/88/30
f 38/95/31 274/89/31 53/90/31 54/96/31
f 271/97/32 34/91/32 46/93/32 47/98/32
f 39/68/33 38/95/33 54/96/33 55/69/33
f 272/72/34 271/97/34 47/98/34 48/73/34
f 47/98/35 46/93/35 61/99/35 62/100/35
f 55/69/36 54/96/36 69/101/36 70/102/36
f 48/73/37 47/98/37 62/100/37 63/103/37
f 56/70/38 55/69/38 70/102/38 71/104/38
f 49/74/39 48/73/39 63/103/39 64/105/39
f 57/76/40 56/70/40 71/104/40 72/106/40
f 50/78/41 49/74/41 64/105/41 65/107/41
f 58/80/42 57/76/42 72/106/42 73/108/42
f 51/82/43 50/78/43 65/107/43 66/109/43
f 59/84/44 58/80/44 73/108/44 74/110/44
f 52/86/45 51/82/45 66/109/45 67/111/45
f 60/88/46 59/84/46 74/110/46 75/112/46
f 53/90/47 52/86/47 67/111/47 68/113/47
f 46/93/48 33/114/48 61/99/48
f 45/115/49 60/88/49 75/112/49
f 54/96/50 53/90/50 68/113/50 69/101/50
f 66/109/51 65/107/51 80/116/51 81/117/51
f 74/110/52 73/108/52 88/118/52 89/119/52
f 67/111/53 66/109/53 81/117/53 82/120/53
f 75/112/54 74/110/54 89/119/54 90/121/54
f 68/113/55 67/111/55 82/120/55 83/122/55
f 61/99/56 33/123/56 76/124/56
f 45/125/57 75/112/57 90/121/57
f 69/101/58 68/113/58 83/122/58 84/126/58
f 62/100/59 61/99/59 76/124/59 77/127/59
f 70/102/60 69/101/60 84/126/60 85/128/60
f 63/103/61 62/100/61 77/127/61 78/129/61
f 71/104/62 70/102/62 85/128/62 86/130/62
f 64/105/63 63/103/63 78/129/63 79/131/63
f 72/106/64 71/104/64 86/130/64 87/132/64
f 65/107/65 64/105/65 79/131/65 80/116/65
f 73/108/66 72/106/66 87/132/66 88/118/66
f 85/128/67 84/126/67 99/133/67 100/134/67
f 78/129/68 77/127/68 92/135/68 93/136/68
f 86/130/69 85/128/69 100/134/69 101/137/69
f 79/131/70 78/129/70 93/136/70 94/138/70
f 87/132/71 86/130/71 101/137/71 102/139/71
f 80/116/72 79/131/72 94/138/72 95/140/72
f 88/118/73 87/132/73 102/139/73 103/141/73
f 81/117/74 80/116/74 95/140/74 96/142/74
f 89/119/75 88/118/75 103/141/75 104/143/75
f 82/120/76 81/117/76 96/142/76 97/144/76
f 90/121/77 89/119/77 104/143/77 105/145/77
f 83/122/78 82/120/78 97/144/78 98/146/78
f 76/124/79 33/147/79 91/148/79
f 45/149/80 90/121/80 105/145/80
f 84/126/81 83/122/81 98/146/81 99/133/81
f 77/127/82 76/124/82 91/148/82 92/135/82
f 104/143/83 103/141/83 118/150/83 119/151/83
f 97/144/84 96/142/84 111/152/84 112/153/84
f 105/145/85 104/143/85 119/151/85 120/154/85
f 98/146/86 97/144/86 112/153/86 113/155/86
f 91/148/87 33/156/87 106/157/87
f 45/158/88 105/145/88 120/154/88
f 99/133/89 98/146/89 113/155/89 114/159/89
f 92/135/90 91/148/90 106/157/90 107/160/90
f 100/134/91 99/133/91 114/159/91 115/161/91
f 93/136/92 92/135/92 107/160/92 108/162/92
f 101/137/93 100/134/93 115/161/93 116/163/93
f 94/138/94 93/136/94 108/162/94 109/164/94
f 102/139/95 101/137/95 116/163/95 117/165/95
f 95/140/96 94/138/96 109/164/96 110/166/96
f 103/141/97 102/139/97 117/165/97 118/150/97
f 96/142/98 95/140/98 110/166/98 111/152/98
f 116/163/99 115/161/99 130/167/99 131/168/99
f 109/164/100 108/162/100 123/169/100 124/170/100
f 117/165/101 116/163/101 131/168/101 132/171/101
f 110/166/102 109/164/102 124/170/102 125/172/102
f 118/150/103 117/165/103 132/171/103 133/173/103
f 111/152/104 110/166/104 125/172/104 126/174/104
f 119/151/105 118/150/105 133/173/105 134/175/105
f 112/153/106 111/152/106 126/174/106 127/176/106
f 120/154/107 119/151/107 134/175/107 135/177/107
f 113/155/108 112/153/108 127/176/108 128/178/108
f 106/157/109 33/179/109 121/180/109
f 45/181/110 120/154/110 135/177/110
f 114/159/111 113/155/111 128/178/111 129/182/111
f 107/160/112 106/157/112 121/180/112 122/183/112
f 115/161/113 114/159/113 129/182/113 130/167/113
f 108/162/114 107/160/114 122/183/114 123/169/114
f 135/177/115 134/175/115 149/184/115 150/185/115
f 128/178/116 127/176/116 142/186/116 143/187/116
f 121/180/117 33/188/117 136/189/117
f 45/190/118 135/177/118 150/185/118
f 129/182/119 128/178/119 143/187/119 144/191/119
f 122/183/120 121/180/120 136/189/120 137/192/120
f 130/167/121 129/182/121 144/191/121 145/193/121
f 123/169/122 122/183/122 137/192/122 138/194/122
f 131/168/123 130/167/123 145/193/123 146/195/123
f 124/170/124 123/169/124 138/194/124 139/196/124
f 132/171/125 131/168/125 146/195/125 147/197/125
f 125/172/126 124/170/126 139/196/126 140/198/126
f 133/173/127 132/171/127 147/197/127 148/199/127
f 126/174/128 125/172/128 140/198/128 141/200/128
f 134/175/129 133/173/129 148/199/129 149/184/129
f 127/176/130 126/174/130 141/200/130 142/186/130
f 139/196/131 138/194/131 153/201/131 154/202/131
f 147/197/132 146/195/132 161/203/132 162/204/132
f 140/198/133 139/196/133 154/202/133 155/205/133
f 148/199/134 147/197/134 162/204/134 163/206/134
f 141/200/135 140/198/135 155/205/135 156/207/135
f 149/184/136 148/199/136 163/206/136 164/208/136
f 142/186/137 141/200/137 156/207/137 157/209/137
f 150/185/138 149/184/138 164/208/138 165/210/138
f 143/187/139 142/186/139 157/209/139 158/211/139
f 136/189/140 33/212/140 151/213/140
f 45/214/141 150/185/141 165/210/141
f 144/191/142 143/187/142 158/211/142 159/215/142
f 137/192/143 136/189/143 151/213/143 152/216/143
f 145/193/144 144/191/144 159/215/144 160/217/144
f 138/194/145 137/192/145 152/216/145 153/201/145
f 146/195/146 145/193/146 160/217/146 161/203/146
f 158/211/147 157/209/147 172/218/147 173/219/147
f 151/213/148 33/220/148 166/221/148
f 45/222/149 165/210/149 180/223/149
f 159/215/150 158/211/150 173/219/150 174/224/150
f 152/216/151 151/213/151 166/221/151 167/225/151
f 160/217/152 159/215/152 174/224/152 175/226/152
f 153/201/153 152/216/153 167/225/153 168/227/153
f 161/203/154 160/217/154 175/226/154 176/228/154
f 154/202/155 153/201/155 168/227/155 169/229/155
f 162/204/156 161/203/156 176/228/156 177/230/156
f 155/205/157 154/202/157 169/229/157 170/231/157
f 163/206/158 162/204/158 177/230/158 178/232/158
f 156/207/159 155/205/159 170/231/159 171/233/159
f 164/208/160 163/206/160 178/232/160 179/234/160
f 157/209/161 156/207/161 171/233/161 172/218/161
f 165/210/162 164/208/162 179/234/162 180/223/162
f 177/230/163 176/228/163 191/235/163 192/236/163
f 170/231/164 169/229/164 184/237/164 185/238/164
f 178/232/165 177/230/165 192/236/165 193/239/165
f 171/233/166 170/231/166 185/238/166 186/240/166
f 179/234/167 178/232/167 193/239/167 194/241/167
f 172/218/168 171/233/168 186/240/168 187/242/168
f 180/223/169 179/234/169 194/241/169 195/243/169
f 173/219/170 172/218/170 187/242/170 188/244/170
f 166/221/171 33/245/171 181/246/171
f 45/247/172 180/223/172 195/243/172
f 174/224/173 173/219/173 188/244/173 189/248/173
f 167/225/174 166/221/174 181/246/174 182/249/174
f 175/226/175 174/224/175 189/248/175 190/250/175
f 168/227/176 167/225/176 182/249/176 183/251/176
f 176/228/177 175/226/177 190/250/177 191/235/177
f 169/229/178 168/227/178 183/251/178 184/237/178
f 181/246/179 33/252/179 196/253/179
f 45/254/180 195/243/180 210/255/180
f 189/248/181 188/244/181 203/256/181 204/257/181
f 182/249/182 181/246/182 196/253/182 197/258/182
f 190/250/183 189/248/183 204/257/183 205/259/183
f 183/251/184 182/249/184 197/258/184 198/260/184
f 191/235/185 190/250/185 205/259/185 206/261/185
f 184/237/186 183/251/186 198/260/186 199/262/186
f 192/236/187 191/235/187 206/261/187 207/263/187
f 185/238/188 184/237/188 199/262/188 200/264/188
f 193/239/189 192/236/189 207/263/189 208/265/189
f 186/240/190 185/238/190 200/264/190 201/266/190
f 194/241/191 193/239/191 208/265/191 209/267/191
f 187/242/192 186/240/192 201/266/192 202/268/192
f 195/243/193 194/241/193 209/267/193 210/255/193
f 188/244/194 187/242/194 202/268/194 203/256/194
f 200/264/195 199/262/195 214/269/195 215/270/195
f 208/265/196 207/263/196 222/271/196 223/272/196
f 201/266/197 200/264/197 215/270/197 216/273/197
f 209/267/198 208/265/198 223/272/198 224/274/198
f 202/268/199 201/266/199 216/273/199 217/275/199
f 210/255/200 209/267/200 224/274/200 225/276/200
f 203/256/201 202/268/201 217/275/201 218/277/201
f 196/253/202 33/278/202 211/279/202
f 45/280/203 210/255/203 225/276/203
f 204/257/204 203/256/204 218/277/204 219/281/204
f 197/258/205 196/253/205 211/279/205 212/282/205
f 205/259/206 204/257/206 219/281/206 220/283/206
f 198/260/207 197/258/207 212/282/207 213/284/207
f 206/261/208 205/259/208 220/283/208 221/285/208
f 199/262/209 198/260/209 213/284/209 214/269/209
f 207/263/210 206/261/210 221/285/210 222/271/210
f 219/286/211 218/287/211 233/288/211 234/289/211
f 212/290/212 211/291/212 226/292/212 227/293/212
f 220/294/213 219/286/213 234/289/213 235/295/213
f 213/296/214 212/290/214 227/293/214 228/297/214
f 221/298/215 220/294/215 235/295/215 236/299/215
f 214/300/216 213/296/216 228/297/216 229/301/216
f 222/302/217 221/298/217 236/299/217 237/303/217
f 215/304/218 214/300/218 229/301/218 230/305/218
f 223/306/219 222/302/219 237/303/219 238/307/219
f 216/308/220 215/304/220 230/305/220 231/309/220
f 224/310/221 223/306/221 238/307/221 239/311/221
f 217/312/222 216/308/222 231/309/222 232/313/222
f 225/314/223 224/310/223 239/311/223 240/315/223
f 218/287/224 217/312/224 232/313/224 233/288/224
f 211/291/225 33/316/225 226/292/225
f 45/317/226 225/314/226 240/315/226
f 238/307/227 237/303/227 252/318/227 253/319/227
f 231/309/228 230/305/228 245/320/228 246/321/228
f 239/311/229 238/307/229 253/319/229 254/322/229
f 232/313/230 231/309/230 246/321/230 247/323/230
f 240/315/231 239/311/231 254/322/231 255/324/231
f 233/288/232 232/313/232 247/323/232 248/325/232
f 226/292/233 33/326/233 241/327/233
f 45/328/234 240/315/234 255/324/234
f 234/289/235 233/288/235 248/325/235 249/329/235
f 227/293/236 226/292/236 241/327/236 242/330/236
f 235/295/237 234/289/237 249/329/237 250/331/237
f 228/297/238 227/293/238 242/330/238 243/332/238
f 236/299/239 235/295/239 250/331/239 251/333/239
f 229/301/240 228/297/240 243/332/240 244/334/240
f 237/303/241 236/299/241 251/333/241 252/318/241
f 230/305/242 229/301/242 244/334/242 245/320/242
f 250/331/243 249/329/243 264/335/243 265/336/243
f 243/332/244 242/330/244 257/337/244 258/338/244
f 251/333/245 250/331/245 265/336/245 266/339/245
f 244/334/246 243/332/246 258/338/246 259/340/246
f 252/318/247 251/333/247 266/339/247 267/341/247
f 245/320/248 244/334/248 259/340/248 260/342/248
f 253/319/249 252/318/249 267/341/249 268/343/249
f 246/321/250 245/320/250 260/342/250 261/344/250
f 254/322/251 253/319/251 268/343/251 269/345/251
f 247/323/252 246/321/252 261/344/252 262/346/252
f 255/324/253 254/322/253 269/345/253 270/347/253
f 248/325/254 247/323/254 262/346/254 263/348/254
f 241/327/255 33/349/255 256/350/255
f 45/351/256 255/324/256 270/347/256
f 249/329/257 248/325/257 263/348/257 264/335/257
f 242/330/258 241/327/258 256/350/258 257/337/258
f 269/345/259 268/343/259 42/79/259 43/83/259
f 262/346/260 261/344/260 36/81/260 37/85/260
f 270/347/261 269/345/261 43/83/261 44/87/261
f 263/348/262 262/346/262 37/85/262 274/89/262
f 256/350/263 33/352/263 34/91/263
f 45/353/264 270/347/264 44/87/264
f 264/335/265 263/348/265 274/89/265 38/95/265
f 257/337/266 256/350/266 34/91/266 271/97/266
f 265/336/267 264/335/267 38/95/267 39/68/267
f 258/338/268 257/337/268 271/97/268 272/72/268
f 266/339/269 265/336/269 39/68/269 40/67/269
f 259/340/270 258/338/270 272/72/270 35/71/270
f 267/341/271 266/339/271 40/67/271 41/75/271
f 260/342/272 259/340/272 35/71/272 273/77/272
f 268/343/273 267/341/273 41/75/273 42/79/273
f 261/344/274 260/342/274 273/77/274 36/81/274
o Crossguard_Wing_L
v -0.083346 0.370000 0.004104
v 0.036361 0.370000 0.332997
v -0.083346 0.430000 0.004104
v 0.036361 0.430000 0.332997
v -0.036361 0.370000 -0.012997
v 0.083346 0.370000 0.315896
v -0.036361 0.430000 -0.012997
v 0.083346 0.430000 0.315896
vn -0.9397 -0.0000 0.3420
vn -0.0000 1.0000 -0.0000
vn 0.9397 -0.0000 -0.3420
vn -0.0000 -1.0000 -0.0000
vn -0.3420 -0.0000 -0.9397
vn 0.3420 -0.0000 0.9397
vt 0.375000 0.000000
vt 0.625000 0.000000
vt 0.625000 0.250000
vt 0.375000 0.250000
vt 0.625000 0.500000
vt 0.375000 0.500000
vt 0.625000 0.750000
vt 0.375000 0.750000
vt 0.625000 1.000000
vt 0.375000 1.000000
vt 0.125000 0.500000
vt 0.125000 0.750000
vt 0.875000 0.500000
vt 0.875000 0.750000
s 0
usemtl AngelW_Gold
f 275/354/275 276/355/275 278/356/275 277/357/275
f 277/357/276 278/356/276 282/358/276 281/359/276
f 281/359/277 282/358/277 280/360/277 279/361/277
f 279/361/278 280/360/278 276/362/278 275/363/278
f 277/364/279 281/359/279 279/361/279 275/365/279
f 282/358/280 278/366/280 276/367/280 280/360/280
o Crossguard_Wing_R
v 0.036361 0.370000 -0.332997
v -0.083346 0.370000 -0.004104
v 0.036361 0.430000 -0.332997
v -0.083346 0.430000 -0.004104
v 0.083346 0.370000 -0.315896
v -0.036361 0.370000 0.012997
v 0.083346 0.430000 -0.315896
v -0.036361 0.430000 0.012997
vn -0.9397 -0.0000 -0.3420
vn -0.0000 1.0000 -0.0000
vn 0.9397 -0.0000 0.3420
vn -0.0000 -1.0000 -0.0000
vn 0.3420 -0.0000 -0.9397
vn -0.3420 -0.0000 0.9397
vt 0.375000 0.000000
vt 0.625000 0.000000
vt 0.625000 0.250000
vt 0.375000 0.250000
vt 0.625000 0.500000
vt 0.375000 0.500000
vt 0.625000 0.750000
vt 0.375000 0.750000
vt 0.625000 1.000000
vt 0.375000 1.000000
vt 0.125000 0.500000
vt 0.125000 0.750000
vt 0.875000 0.500000
vt 0.875000 0.750000
s 0
usemtl AngelW_Gold
f 283/368/281 284/369/281 286/370/281 285/371/281
f 285/371/282 286/370/282 290/372/282 289/373/282
f 289/373/283 290/372/283 288/374/283 287/375/283
f 287/375/284 288/374/284 284/376/284 283/377/284
f 285/378/285 289/373/285 287/375/285 283/379/285
f 290/372/286 286/380/286 284/381/286 288/374/286
o Sun_Gem
v 0.000000 0.400000 0.050000
v 0.000000 0.409755 0.049039
v 0.000000 0.435355 0.035355
v 0.000000 0.446194 0.019134
v 0.000000 0.449039 0.009755
v 0.000000 0.449039 -0.009755
v 0.000000 0.441574 -0.027779
v 0.000000 0.427779 -0.041573
v 0.000000 0.419134 -0.046194
v 0.000000 0.409755 -0.049039
v 0.000000 0.400000 -0.050000
v 0.003733 0.409012 0.049039
v 0.007322 0.417678 0.046194
v 0.010630 0.425664 0.041573
v 0.013530 0.432664 0.035355
v 0.015909 0.438409 0.027779
v 0.017678 0.442678 0.019134
v 0.018767 0.445306 0.009755
v 0.019134 0.446194 0.000000
v 0.018767 0.445306 -0.009755
v 0.017678 0.442678 -0.019134
v 0.015909 0.438409 -0.027779
v 0.013530 0.432664 -0.035355
v 0.010630 0.425664 -0.041573
v 0.007322 0.417678 -0.046194
v 0.003733 0.409012 -0.049039
v 0.006897 0.406897 0.049039
v 0.013530 0.413530 0.046194
v 0.019642 0.419642 0.041573
v 0.025000 0.425000 0.035355
v 0.029397 0.429397 0.027779
v 0.032664 0.432664 0.019134
v 0.034676 0.434676 0.009755
v 0.035355 0.435355 0.000000
v 0.034676 0.434676 -0.009755
v 0.032664 0.432664 -0.019134
v 0.029397 0.429397 -0.027779
v 0.025000 0.425000 -0.035355
v 0.019642 0.419642 -0.041573
v 0.013530 0.413530 -0.046194
v 0.006897 0.406897 -0.049039
v 0.009012 0.403733 0.049039
v 0.017678 0.407322 0.046194
v 0.025664 0.410630 0.041573
v 0.032664 0.413530 0.035355
v 0.038409 0.415909 0.027779
v 0.042678 0.417678 0.019134
v 0.045306 0.418766 0.009755
v 0.046194 0.419134 0.000000
v 0.045306 0.418766 -0.009755
v 0.042678 0.417678 -0.019134
v 0.038409 0.415909 -0.027779
v 0.032664 0.413530 -0.035355
v 0.025664 0.410630 -0.041573
v 0.017678 0.407322 -0.046194
v 0.009012 0.403733 -0.049039
v 0.009755 0.400000 0.049039
v 0.019134 0.400000 0.046194
v 0.027779 0.400000 0.041573
v 0.035355 0.400000 0.035355
v 0.041573 0.400000 0.027779
v 0.046194 0.400000 0.019134
v 0.049039 0.400000 0.009755
v 0.050000 0.400000 0.000000
v 0.049039 0.400000 -0.009755
v 0.046194 0.400000 -0.019134
v 0.041573 0.400000 -0.027779
v 0.035355 0.400000 -0.035355
v 0.027779 0.400000 -0.041573
v 0.019134 0.400000 -0.046194
v 0.009755 0.400000 -0.049039
v 0.009012 0.396267 0.049039
v 0.017678 0.392678 0.046194
v 0.025664 0.389370 0.041573
v 0.032664 0.386470 0.035355
v 0.038409 0.384091 0.027779
v 0.042678 0.382322 0.019134
v 0.045306 0.381233 0.009755
v 0.046194 0.380866 0.000000
v 0.045306 0.381233 -0.009755
v 0.042678 0.382322 -0.019134
v 0.038409 0.384091 -0.027779
v 0.032664 0.386470 -0.035355
v 0.025664 0.389370 -0.041573
v 0.017678 0.392678 -0.046194
v 0.009012 0.396267 -0.049039
v 0.006897 0.393103 0.049039
v 0.013530 0.386470 0.046194
v 0.019642 0.380358 0.041573
v 0.025000 0.375000 0.035355
v 0.029397 0.370603 0.027779
v 0.032664 0.367336 0.019134
v 0.034676 0.365324 0.009755
v 0.035355 0.364645 0.000000
v 0.034676 0.365324 -0.009755
v 0.032664 0.367336 -0.019134
v 0.029397 0.370603 -0.027779
v 0.025000 0.375000 -0.035355
v 0.019642 0.380358 -0.041573
v 0.013530 0.386470 -0.046194
v 0.006897 0.393103 -0.049039
v 0.003733 0.390988 0.049039
v 0.007322 0.382322 0.046194
v 0.010630 0.374336 0.041573
v 0.013530 0.367336 0.035355
v 0.015909 0.361591 0.027779
v 0.017678 0.357322 0.019134
v 0.018766 0.354694 0.009755
v 0.019134 0.353806 0.000000
v 0.018766 0.354694 -0.009755
v 0.017678 0.357322 -0.019134
v 0.015909 0.361591 -0.027779
v 0.013530 0.367336 -0.035355
v 0.010630 0.374336 -0.041573
v 0.007322 0.382322 -0.046194
v 0.003733 0.390988 -0.049039
v -0.000000 0.390245 0.049039
v -0.000000 0.380866 0.046194
v -0.000000 0.372221 0.041573
v -0.000000 0.364645 0.035355
v -0.000000 0.358427 0.027779
v -0.000000 0.353806 0.019134
v -0.000000 0.350961 0.009755
v -0.000000 0.350000 0.000000
v -0.000000 0.350961 -0.009755
v -0.000000 0.353806 -0.019134
v -0.000000 0.358427 -0.027779
v -0.000000 0.364645 -0.035355
v -0.000000 0.372221 -0.041573
v -0.000000 0.380866 -0.046194
v -0.000000 0.390245 -0.049039
v -0.003733 0.390988 0.049039
v -0.007322 0.382322 0.046194
v -0.010630 0.374336 0.041573
v -0.013530 0.367336 0.035355
v -0.015909 0.361591 0.027779
v -0.017678 0.357322 0.019134
v -0.018767 0.354694 0.009755
v -0.019134 0.353806 0.000000
v -0.018767 0.354694 -0.009755
v -0.017678 0.357322 -0.019134
v -0.015909 0.361591 -0.027779
v -0.013530 0.367336 -0.035355
v -0.010630 0.374336 -0.041573
v -0.007322 0.382322 -0.046194
v -0.003733 0.390988 -0.049039
v -0.006897 0.393103 0.049039
v -0.013530 0.386470 0.046194
v -0.019642 0.380358 0.041573
v -0.025000 0.375000 0.035355
v -0.029397 0.370603 0.027779
v -0.032664 0.367336 0.019134
v -0.034676 0.365324 0.009755
v -0.035355 0.364645 0.000000
v -0.034676 0.365324 -0.009755
v -0.032664 0.367336 -0.019134
v -0.029397 0.370603 -0.027779
v -0.025000 0.375000 -0.035355
v -0.019642 0.380358 -0.041573
v -0.013530 0.386470 -0.046194
v -0.006897 0.393103 -0.049039
v -0.009012 0.396267 0.049039
v -0.017678 0.392678 0.046194
v -0.025664 0.389370 0.041573
v -0.032664 0.386470 0.035355
v -0.038409 0.384091 0.027779
v -0.042678 0.382322 0.019134
v -0.045306 0.381234 0.009755
v -0.046194 0.380866 0.000000
v -0.045306 0.381234 -0.009755
v -0.042678 0.382322 -0.019134
v -0.038409 0.384091 -0.027779
v -0.032664 0.386470 -0.035355
v -0.025664 0.389370 -0.041573
v -0.017678 0.392678 -0.046194
v -0.009012 0.396267 -0.049039
v -0.009755 0.400000 0.049039
v -0.019134 0.400000 0.046194
v -0.027779 0.400000 0.041573
v -0.035355 0.400000 0.035355
v -0.041573 0.400000 0.027779
v -0.046194 0.400000 0.019134
v -0.049039 0.400000 0.009755
v -0.050000 0.400000 0.000000
v -0.049039 0.400000 -0.009755
v -0.046194 0.400000 -0.019134
v -0.041573 0.400000 -0.027779
v -0.035355 0.400000 -0.035355
v -0.027779 0.400000 -0.041573
v -0.019134 0.400000 -0.046194
v -0.009755 0.400000 -0.049039
v -0.009012 0.403733 0.049039
v -0.017678 0.407322 0.046194
v -0.025664 0.410630 0.041573
v -0.032664 0.413530 0.035355
v -0.038409 0.415909 0.027779
v -0.042678 0.417678 0.019134
v -0.045306 0.418767 0.009755
v -0.046194 0.419134 0.000000
v -0.045306 0.418767 -0.009755
v -0.042678 0.417678 -0.019134
v -0.038409 0.415909 -0.027779
v -0.032664 0.413530 -0.035355
v -0.025664 0.410630 -0.041573
v -0.017678 0.407322 -0.046194
v -0.009012 0.403733 -0.049039
v -0.006897 0.406897 0.049039
v -0.013530 0.413530 0.046194
v -0.019642 0.419642 0.041573
v -0.025000 0.425000 0.035355
v -0.029397 0.429397 0.027779
v -0.032664 0.432664 0.019134
v -0.034676 0.434676 0.009755
v -0.035355 0.435355 0.000000
v -0.034676 0.434676 -0.009755
v -0.032664 0.432664 -0.019134
v -0.029397 0.429397 -0.027779
v -0.025000 0.425000 -0.035355
v -0.019642 0.419642 -0.041573
v -0.013530 0.413530 -0.046194
v -0.006897 0.406897 -0.049039
v -0.003733 0.409012 0.049039
v -0.007322 0.417678 0.046194
v -0.010630 0.425664 0.041573
v -0.013530 0.432664 0.035355
v -0.015909 0.438409 0.027779
v -0.017678 0.442678 0.019134
v -0.018766 0.445306 0.009755
v -0.019134 0.446194 0.000000
v -0.018766 0.445306 -0.009755
v -0.017678 0.442678 -0.019134
v -0.015909 0.438409 -0.027779
v -0.013530 0.432664 -0.035355
v -0.010630 0.425664 -0.041573
v -0.007322 0.417678 -0.046194
v -0.003733 0.409012 -0.049039
v 0.000000 0.419134 0.046194
v 0.000000 0.427779 0.041573
v 0.000000 0.441573 0.027779
v 0.000000 0.450000 0.000000
v 0.000000 0.446194 -0.019134
v 0.000000 0.435355 -0.035355
vn 0.1728 0.8687 -0.4643
vn 0.1252 0.6294 0.7669
vn 0.1520 0.7640 -0.6270
vn 0.1520 0.7640 0.6270
vn 0.1252 0.6294 -0.7669
vn 0.1728 0.8687 0.4643
vn 0.0934 0.4693 -0.8781
vn 0.1870 0.9401 0.2852
vn 0.0576 0.2898 -0.9553
vn 0.1942 0.9762 0.0962
vn 0.0195 0.0980 0.9950
vn 0.0195 0.0980 -0.9950
vn 0.1942 0.9762 -0.0962
vn 0.0576 0.2898 0.9553
vn 0.1870 0.9401 -0.2852
vn 0.0934 0.4693 0.8781
vn 0.1642 0.2457 0.9553
vn 0.5325 0.7969 -0.2852
vn 0.2659 0.3979 0.8781
vn 0.4921 0.7364 -0.4643
vn 0.3565 0.5336 0.7669
vn 0.4328 0.6477 -0.6270
vn 0.4328 0.6477 0.6270
vn 0.3565 0.5336 -0.7669
vn 0.4921 0.7364 0.4643
vn 0.2659 0.3979 -0.8781
vn 0.5325 0.7969 0.2852
vn 0.1642 0.2457 -0.9553
vn 0.5530 0.8276 0.0962
vn 0.0555 0.0831 0.9950
vn 0.0555 0.0831 -0.9950
vn 0.5530 0.8276 -0.0962
vn 0.7364 0.4921 0.4643
vn 0.3979 0.2659 -0.8781
vn 0.7969 0.5325 0.2852
vn 0.2457 0.1642 -0.9553
vn 0.8276 0.5530 0.0962
vn 0.0831 0.0555 0.9950
vn 0.0831 0.0555 -0.9950
vn 0.8276 0.5530 -0.0962
vn 0.2457 0.1642 0.9553
vn 0.7969 0.5325 -0.2852
vn 0.3979 0.2659 0.8781
vn 0.7364 0.4921 -0.4643
vn 0.5336 0.3565 0.7669
vn 0.6477 0.4328 -0.6270
vn 0.6477 0.4328 0.6270
vn 0.5336 0.3565 -0.7669
vn 0.9401 0.1870 -0.2852
vn 0.4693 0.0934 0.8781
vn 0.8687 0.1728 -0.4643
vn 0.6294 0.1252 0.7669
vn 0.7640 0.1520 -0.6270
vn 0.7640 0.1520 0.6270
vn 0.6294 0.1252 -0.7669
vn 0.8687 0.1728 0.4643
vn 0.4693 0.0934 -0.8781
vn 0.9401 0.1870 0.2852
vn 0.2898 0.0576 -0.9553
vn 0.9762 0.1942 0.0962
vn 0.0980 0.0195 0.9950
vn 0.0980 0.0195 -0.9950
vn 0.9762 0.1942 -0.0962
vn 0.2898 0.0576 0.9553
vn 0.4693 -0.0934 -0.8781
vn 0.9401 -0.1870 0.2852
vn 0.2898 -0.0576 -0.9553
vn 0.9762 -0.1942 0.0962
vn 0.0980 -0.0195 0.9950
vn 0.0980 -0.0195 -0.9950
vn 0.9762 -0.1942 -0.0962
vn 0.2898 -0.0576 0.9553
vn 0.9401 -0.1870 -0.2852
vn 0.4693 -0.0934 0.8781
vn 0.8687 -0.1728 -0.4643
vn 0.6294 -0.1252 0.7669
vn 0.7640 -0.1520 -0.6270
vn 0.7640 -0.1520 0.6270
vn 0.6294 -0.1252 -0.7669
vn 0.8687 -0.1728 0.4643
vn 0.7364 -0.4921 -0.4643
vn 0.5336 -0.3565 0.7669
vn 0.6477 -0.4328 -0.6270
vn 0.6477 -0.4328 0.6270
vn 0.5336 -0.3565 -0.7669
vn 0.7364 -0.4921 0.4643
vn 0.3979 -0.2659 -0.8781
vn 0.7969 -0.5325 0.2852
vn 0.2457 -0.1642 -0.9553
vn 0.8276 -0.5530 0.0962
vn 0.0831 -0.0555 0.9950
vn 0.0831 -0.0555 -0.9950
vn 0.8276 -0.5530 -0.0962
vn 0.2457 -0.1642 0.9553
vn 0.7969 -0.5325 -0.2852
vn 0.3979 -0.2659 0.8781
vn 0.1642 -0.2457 -0.9553
vn 0.5530 -0.8276 0.0962
vn 0.0555 -0.0831 0.9950
vn 0.0555 -0.0831 -0.9950
vn 0.5530 -0.8276 -0.0962
vn 0.1642 -0.2457 0.9553
vn 0.5325 -0.7969 -0.2852
vn 0.2659 -0.3979 0.8781
vn 0.4921 -0.7364 -0.4643
vn 0.3565 -0.5336 0.7669
vn 0.4328 -0.6477 -0.6270
vn 0.4328 -0.6477 0.6270
vn 0.3565 -0.5336 -0.7669
vn 0.4921 -0.7364 0.4643
vn 0.2659 -0.3979 -0.8781
vn 0.5325 -0.7969 0.2852
vn 0.1252 -0.6294 0.7669
vn 0.1520 -0.7640 -0.6270
vn 0.1520 -0.7640 0.6270
vn 0.1252 -0.6294 -0.7669
vn 0.1728 -0.8687 0.4643
vn 0.0934 -0.4693 -0.8781
vn 0.1870 -0.9401 0.2852
vn 0.0576 -0.2898 -0.9553
vn 0.1942 -0.9762 0.0962
vn 0.0195 -0.0980 0.9950
vn 0.0195 -0.0980 -0.9950
vn 0.1942 -0.9762 -0.0962
vn 0.0576 -0.2898 0.9553
vn 0.1870 -0.9401 -0.2852
vn 0.0934 -0.4693 0.8781
vn 0.1728 -0.8687 -0.4643
vn -0.1942 -0.9762 0.0962
vn -0.0195 -0.0980 0.9950
vn -0.0195 -0.0980 -0.9950
vn -0.1942 -0.9762 -0.0962
vn -0.0576 -0.2898 0.9553
vn -0.1870 -0.9401 -0.2852
vn -0.0934 -0.4693 0.8781
vn -0.1728 -0.8687 -0.4643
vn -0.1252 -0.6294 0.7669
vn -0.1520 -0.7640 -0.6270
vn -0.1520 -0.7640 0.6270
vn -0.1252 -0.6294 -0.7669
vn -0.1728 -0.8687 0.4643
vn -0.0934 -0.4693 -0.8781
vn -0.1870 -0.9401 0.2852
vn -0.0576 -0.2898 -0.9553
vn -0.4328 -0.6477 -0.6270
vn -0.4328 -0.6477 0.6270
vn -0.3565 -0.5336 -0.7669
vn -0.4921 -0.7364 0.4643
vn -0.2659 -0.3979 -0.8781
vn -0.5325 -0.7969 0.2852
vn -0.1642 -0.2457 -0.9553
vn -0.5530 -0.8276 0.0962
vn -0.0555 -0.0831 0.9950
vn -0.0555 -0.0831 -0.9950
vn -0.5530 -0.8276 -0.0962
vn -0.1642 -0.2457 0.9553
vn -0.5325 -0.7969 -0.2852
vn -0.2659 -0.3979 0.8781
vn -0.4921 -0.7364 -0.4643
vn -0.3565 -0.5336 0.7669
vn -0.0831 -0.0555 0.9950
vn -0.0831 -0.0555 -0.9950
vn -0.8276 -0.5530 -0.0962
vn -0.2457 -0.1642 0.9553
vn -0.7969 -0.5325 -0.2852
vn -0.3979 -0.2659 0.8781
vn -0.7364 -0.4921 -0.4643
vn -0.5336 -0.3565 0.7669
vn -0.6477 -0.4328 -0.6270
vn -0.6477 -0.4328 0.6270
vn -0.5336 -0.3565 -0.7669
vn -0.7364 -0.4921 0.4643
vn -0.3979 -0.2659 -0.8781
vn -0.7969 -0.5325 0.2852
vn -0.2457 -0.1642 -0.9553
vn -0.8276 -0.5530 0.0962
vn -0.7640 -0.1520 0.6270
vn -0.6294 -0.1252 -0.7669
vn -0.8687 -0.1728 0.4643
vn -0.4693 -0.0934 -0.8781
vn -0.9401 -0.1870 0.2852
vn -0.2898 -0.0576 -0.9553
vn -0.9762 -0.1942 0.0962
vn -0.0980 -0.0195 0.9950
vn -0.0980 -0.0195 -0.9950
vn -0.9762 -0.1942 -0.0962
vn -0.2898 -0.0576 0.9553
vn -0.9401 -0.1870 -0.2852
vn -0.4693 -0.0934 0.8781
vn -0.8687 -0.1728 -0.4643
vn -0.6294 -0.1252 0.7669
vn -0.7640 -0.1520 -0.6270
vn -0.9762 0.1942 -0.0962
vn -0.2898 0.0576 0.9553
vn -0.9401 0.1870 -0.2852
vn -0.4693 0.0934 0.8781
vn -0.8687 0.1728 -0.4643
vn -0.6294 0.1252 0.7669
vn -0.7640 0.1520 -0.6270
vn -0.7640 0.1520 0.6270
vn -0.6294 0.1252 -0.7669
vn -0.8687 0.1728 0.4643
vn -0.4693 0.0934 -0.8781
vn -0.9401 0.1870 0.2852
vn -0.2898 0.0576 -0.9553
vn -0.9762 0.1942 0.0962
vn -0.0980 0.0195 0.9950
vn -0.0980 0.0195 -0.9950
vn -0.5336 0.3565 -0.7669
vn -0.7364 0.4921 0.4643
vn -0.3979 0.2659 -0.8781
vn -0.7969 0.5325 0.2852
vn -0.2457 0.1642 -0.9553
vn -0.8276 0.5530 0.0962
vn -0.0831 0.0555 0.9950
vn -0.0831 0.0555 -0.9950
vn -0.8276 0.5530 -0.0962
vn -0.2457 0.1642 0.9553
vn -0.7969 0.5325 -0.2852
vn -0.3979 0.2659 0.8781
vn -0.7364 0.4921 -0.4643
vn -0.5336 0.3565 0.7669
vn -0.6477 0.4328 -0.6270
vn -0.6477 0.4328 0.6270
vn -0.5325 0.7969 -0.2852
vn -0.2659 0.3979 0.8781
vn -0.4921 0.7364 -0.4643
vn -0.3565 0.5336 0.7669
vn -0.4328 0.6477 -0.6270
vn -0.4328 0.6477 0.6270
vn -0.3565 0.5336 -0.7669
vn -0.4921 0.7364 0.4643
vn -0.2659 0.3979 -0.8781
vn -0.5325 0.7969 0.2852
vn -0.1642 0.2457 -0.9553
vn -0.5530 0.8276 0.0962
vn -0.0555 0.0831 0.9950
vn -0.0555 0.0831 -0.9950
vn -0.5530 0.8276 -0.0962
vn -0.1642 0.2457 0.9553
vn -0.0934 0.4693 -0.8781
vn -0.1870 0.9401 0.2852
vn -0.0576 0.2898 -0.9553
vn -0.1942 0.9762 0.0962
vn -0.0195 0.0980 0.9950
vn -0.0195 0.0980 -0.9950
vn -0.1942 0.9762 -0.0962
vn -0.0576 0.2898 0.9553
vn -0.1870 0.9401 -0.2852
vn -0.0934 0.4693 0.8781
vn -0.1728 0.8687 -0.4643
vn -0.1252 0.6294 0.7669
vn -0.1520 0.7640 -0.6270
vn -0.1520 0.7640 0.6270
vn -0.1252 0.6294 -0.7669
vn -0.1728 0.8687 0.4643
vt 0.750000 0.312500
vt 0.750000 0.375000
vt 0.687500 0.375000
vt 0.687500 0.312500
vt 0.750000 0.750000
vt 0.750000 0.812500
vt 0.687500 0.812500
vt 0.687500 0.750000
vt 0.750000 0.250000
vt 0.687500 0.250000
vt 0.750000 0.687500
vt 0.687500 0.687500
vt 0.750000 0.187500
vt 0.687500 0.187500
vt 0.750000 0.625000
vt 0.687500 0.625000
vt 0.750000 0.125000
vt 0.687500 0.125000
vt 0.750000 0.562500
vt 0.687500 0.562500
vt 0.750000 0.062500
vt 0.687500 0.062500
vt 0.750000 0.500000
vt 0.687500 0.500000
vt 0.750000 0.937500
vt 0.718750 1.000000
vt 0.687500 0.937500
vt 0.718750 0.000000
vt 0.750000 0.437500
vt 0.687500 0.437500
vt 0.750000 0.875000
vt 0.687500 0.875000
vt 0.625000 0.937500
vt 0.625000 0.875000
vt 0.625000 0.437500
vt 0.625000 0.375000
vt 0.625000 0.812500
vt 0.625000 0.312500
vt 0.625000 0.750000
vt 0.625000 0.250000
vt 0.625000 0.687500
vt 0.625000 0.187500
vt 0.625000 0.625000
vt 0.625000 0.125000
vt 0.625000 0.562500
vt 0.625000 0.062500
vt 0.625000 0.500000
vt 0.656250 1.000000
vt 0.656250 0.000000
vt 0.562500 0.687500
vt 0.562500 0.625000
vt 0.562500 0.187500
vt 0.562500 0.125000
vt 0.562500 0.562500
vt 0.562500 0.062500
vt 0.562500 0.500000
vt 0.593750 1.000000
vt 0.562500 0.937500
vt 0.593750 0.000000
vt 0.562500 0.437500
vt 0.562500 0.875000
vt 0.562500 0.375000
vt 0.562500 0.812500
vt 0.562500 0.312500
vt 0.562500 0.750000
vt 0.562500 0.250000
vt 0.500000 0.437500
vt 0.500000 0.375000
vt 0.500000 0.875000
vt 0.500000 0.812500
vt 0.500000 0.312500
vt 0.500000 0.750000
vt 0.500000 0.250000
vt 0.500000 0.687500
vt 0.500000 0.187500
vt 0.500000 0.625000
vt 0.500000 0.125000
vt 0.500000 0.562500
vt 0.500000 0.062500
vt 0.500000 0.500000
vt 0.531250 1.000000
vt 0.500000 0.937500
vt 0.531250 0.000000
vt 0.437500 0.187500
vt 0.437500 0.125000
vt 0.437500 0.625000
vt 0.437500 0.562500
vt 0.437500 0.062500
vt 0.437500 0.500000
vt 0.468750 1.000000
vt 0.437500 0.937500
vt 0.468750 0.000000
vt 0.437500 0.437500
vt 0.437500 0.875000
vt 0.437500 0.375000
vt 0.437500 0.812500
vt 0.437500 0.312500
vt 0.437500 0.750000
vt 0.437500 0.250000
vt 0.437500 0.687500
vt 0.375000 0.375000
vt 0.375000 0.312500
vt 0.375000 0.812500
vt 0.375000 0.750000
vt 0.375000 0.250000
vt 0.375000 0.687500
vt 0.375000 0.187500
vt 0.375000 0.625000
vt 0.375000 0.125000
vt 0.375000 0.562500
vt 0.375000 0.062500
vt 0.375000 0.500000
vt 0.406250 1.000000
vt 0.375000 0.937500
vt 0.406250 0.000000
vt 0.375000 0.437500
vt 0.375000 0.875000
vt 0.312500 0.125000
vt 0.312500 0.062500
vt 0.312500 0.562500
vt 0.312500 0.500000
vt 0.343750 1.000000
vt 0.312500 0.937500
vt 0.343750 0.000000
vt 0.312500 0.437500
vt 0.312500 0.875000
vt 0.312500 0.375000
vt 0.312500 0.812500
vt 0.312500 0.312500
vt 0.312500 0.750000
vt 0.312500 0.250000
vt 0.312500 0.687500
vt 0.312500 0.187500
vt 0.312500 0.625000
vt 0.250000 0.812500
vt 0.250000 0.750000
vt 0.250000 0.312500
vt 0.250000 0.250000
vt 0.250000 0.687500
vt 0.250000 0.187500
vt 0.250000 0.625000
vt 0.250000 0.125000
vt 0.250000 0.562500
vt 0.250000 0.062500
vt 0.250000 0.500000
vt 0.281250 1.000000
vt 0.250000 0.937500
vt 0.281250 0.000000
vt 0.250000 0.437500
vt 0.250000 0.875000
vt 0.250000 0.375000
vt 0.187500 0.562500
vt 0.187500 0.500000
vt 0.218750 1.000000
vt 0.187500 0.937500
vt 0.218750 0.000000
vt 0.187500 0.062500
vt 0.187500 0.437500
vt 0.187500 0.875000
vt 0.187500 0.375000
vt 0.187500 0.812500
vt 0.187500 0.312500
vt 0.187500 0.750000
vt 0.187500 0.250000
vt 0.187500 0.687500
vt 0.187500 0.187500
vt 0.187500 0.625000
vt 0.187500 0.125000
vt 0.125000 0.312500
vt 0.125000 0.250000
vt 0.125000 0.750000
vt 0.125000 0.687500
vt 0.125000 0.187500
vt 0.125000 0.625000
vt 0.125000 0.125000
vt 0.125000 0.562500
vt 0.125000 0.062500
vt 0.125000 0.500000
vt 0.156250 1.000000
vt 0.125000 0.937500
vt 0.156250 0.000000
vt 0.125000 0.437500
vt 0.125000 0.875000
vt 0.125000 0.375000
vt 0.125000 0.812500
vt 0.093750 1.000000
vt 0.062500 0.937500
vt 0.093750 0.000000
vt 0.062500 0.062500
vt 0.062500 0.500000
vt 0.062500 0.437500
vt 0.062500 0.875000
vt 0.062500 0.375000
vt 0.062500 0.812500
vt 0.062500 0.312500
vt 0.062500 0.750000
vt 0.062500 0.250000
vt 0.062500 0.687500
vt 0.062500 0.187500
vt 0.062500 0.625000
vt 0.062500 0.125000
vt 0.062500 0.562500
vt 0.000000 0.750000
vt 0.000000 0.687500
vt 0.000000 0.250000
vt 0.000000 0.187500
vt 0.000000 0.625000
vt 0.000000 0.125000
vt 0.000000 0.562500
vt 0.000000 0.062500
vt 0.000000 0.500000
vt 0.031250 1.000000
vt 0.000000 0.937500
vt 0.031250 0.000000
vt 0.000000 0.437500
vt 0.000000 0.875000
vt 0.000000 0.375000
vt 0.000000 0.812500
vt 0.000000 0.312500
vt 1.000000 0.437500
vt 1.000000 0.500000
vt 0.937500 0.500000
vt 0.937500 0.437500
vt 1.000000 0.875000
vt 1.000000 0.937500
vt 0.937500 0.937500
vt 0.937500 0.875000
vt 1.000000 0.375000
vt 0.937500 0.375000
vt 1.000000 0.812500
vt 0.937500 0.812500
vt 1.000000 0.312500
vt 0.937500 0.312500
vt 1.000000 0.750000
vt 0.937500 0.750000
vt 1.000000 0.250000
vt 0.937500 0.250000
vt 1.000000 0.687500
vt 0.937500 0.687500
vt 1.000000 0.187500
vt 0.937500 0.187500
vt 1.000000 0.625000
vt 0.937500 0.625000
vt 1.000000 0.125000
vt 0.937500 0.125000
vt 1.000000 0.562500
vt 0.937500 0.562500
vt 1.000000 0.062500
vt 0.937500 0.062500
vt 0.968750 1.000000
vt 0.968750 0.000000
vt 0.875000 0.250000
vt 0.875000 0.187500
vt 0.875000 0.687500
vt 0.875000 0.625000
vt 0.875000 0.125000
vt 0.875000 0.562500
vt 0.875000 0.062500
vt 0.875000 0.500000
vt 0.906250 1.000000
vt 0.875000 0.937500
vt 0.906250 0.000000
vt 0.875000 0.437500
vt 0.875000 0.875000
vt 0.875000 0.375000
vt 0.875000 0.812500
vt 0.875000 0.312500
vt 0.875000 0.750000
vt 0.812500 0.437500
vt 0.812500 0.375000
vt 0.812500 0.875000
vt 0.812500 0.812500
vt 0.812500 0.312500
vt 0.812500 0.750000
vt 0.812500 0.250000
vt 0.812500 0.687500
vt 0.812500 0.187500
vt 0.812500 0.625000
vt 0.812500 0.125000
vt 0.812500 0.562500
vt 0.812500 0.062500
vt 0.812500 0.500000
vt 0.843750 1.000000
vt 0.812500 0.937500
vt 0.843750 0.000000
vt 0.781250 1.000000
vt 0.781250 0.000000
s 0
usemtl AngelW_SolarCore
f 297/382/287 531/383/287 311/384/287 312/385/287
f 293/386/288 528/387/288 304/388/288 305/389/288
f 532/390/289 297/382/289 312/385/289 313/391/289
f 529/392/290 293/386/290 305/389/290 306/393/290
f 298/394/291 532/390/291 313/391/291 314/395/291
f 294/396/292 529/392/292 306/393/292 307/397/292
f 299/398/293 298/394/293 314/395/293 315/399/293
f 295/400/294 294/396/294 307/397/294 308/401/294
f 300/402/295 299/398/295 315/399/295 316/403/295
f 530/404/296 295/400/296 308/401/296 309/405/296
f 292/406/297 291/407/297 302/408/297
f 301/409/298 300/402/298 316/403/298
f 296/410/299 530/404/299 309/405/299 310/411/299
f 527/412/300 292/406/300 302/408/300 303/413/300
f 531/383/301 296/410/301 310/411/301 311/384/301
f 528/387/302 527/412/302 303/413/302 304/388/302
f 303/413/303 302/408/303 317/414/303 318/415/303
f 311/384/304 310/411/304 325/416/304 326/417/304
f 304/388/305 303/413/305 318/415/305 319/418/305
f 312/385/306 311/384/306 326/417/306 327/419/306
f 305/389/307 304/388/307 319/418/307 320/420/307
f 313/391/308 312/385/308 327/419/308 328/421/308
f 306/393/309 305/389/309 320/420/309 321/422/309
f 314/395/310 313/391/310 328/421/310 329/423/310
f 307/397/311 306/393/311 321/422/311 322/424/311
f 315/399/312 314/395/312 329/423/312 330/425/312
f 308/401/313 307/397/313 322/424/313 323/426/313
f 316/403/314 315/399/314 330/425/314 331/427/314
f 309/405/315 308/401/315 323/426/315 324/428/315
f 302/408/316 291/429/316 317/414/316
f 301/430/317 316/403/317 331/427/317
f 310/411/318 309/405/318 324/428/318 325/416/318
f 322/424/319 321/422/319 336/431/319 337/432/319
f 330/425/320 329/423/320 344/433/320 345/434/320
f 323/426/321 322/424/321 337/432/321 338/435/321
f 331/427/322 330/425/322 345/434/322 346/436/322
f 324/428/323 323/426/323 338/435/323 339/437/323
f 317/414/324 291/438/324 332/439/324
f 301/440/325 331/427/325 346/436/325
f 325/416/326 324/428/326 339/437/326 340/441/326
f 318/415/327 317/414/327 332/439/327 333/442/327
f 326/417/328 325/416/328 340/441/328 341/443/328
f 319/418/329 318/415/329 333/442/329 334/444/329
f 327/419/330 326/417/330 341/443/330 342/445/330
f 320/420/331 319/418/331 334/444/331 335/446/331
f 328/421/332 327/419/332 342/445/332 343/447/332
f 321/422/333 320/420/333 335/446/333 336/431/333
f 329/423/334 328/421/334 343/447/334 344/433/334
f 341/443/335 340/441/335 355/448/335 356/449/335
f 334/444/336 333/442/336 348/450/336 349/451/336
f 342/445/337 341/443/337 356/449/337 357/452/337
f 335/446/338 334/444/338 349/451/338 350/453/338
f 343/447/339 342/445/339 357/452/339 358/454/339
f 336/431/340 335/446/340 350/453/340 351/455/340
f 344/433/341 343/447/341 358/454/341 359/456/341
f 337/432/342 336/431/342 351/455/342 352/457/342
f 345/434/343 344/433/343 359/456/343 360/458/343
f 338/435/344 337/432/344 352/457/344 353/459/344
f 346/436/345 345/434/345 360/458/345 361/460/345
f 339/437/346 338/435/346 353/459/346 354/461/346
f 332/439/347 291/462/347 347/463/347
f 301/464/348 346/436/348 361/460/348
f 340/441/349 339/437/349 354/461/349 355/448/349
f 333/442/350 332/439/350 347/463/350 348/450/350
f 360/458/351 359/456/351 374/465/351 375/466/351
f 353/459/352 352/457/352 367/467/352 368/468/352
f 361/460/353 360/458/353 375/466/353 376/469/353
f 354/461/354 353/459/354 368/468/354 369/470/354
f 347/463/355 291/471/355 362/472/355
f 301/473/356 361/460/356 376/469/356
f 355/448/357 354/461/357 369/470/357 370/474/357
f 348/450/358 347/463/358 362/472/358 363/475/358
f 356/449/359 355/448/359 370/474/359 371/476/359
f 349/451/360 348/450/360 363/475/360 364/477/360
f 357/452/361 356/449/361 371/476/361 372/478/361
f 350/453/362 349/451/362 364/477/362 365/479/362
f 358/454/363 357/452/363 372/478/363 373/480/363
f 351/455/364 350/453/364 365/479/364 366/481/364
f 359/456/365 358/454/365 373/480/365 374/465/365
f 352/457/366 351/455/366 366/481/366 367/467/366
f 372/478/367 371/476/367 386/482/367 387/483/367
f 365/479/368 364/477/368 379/484/368 380/485/368
f 373/480/369 372/478/369 387/483/369 388/486/369
f 366/481/370 365/479/370 380/485/370 381/487/370
f 374/465/371 373/480/371 388/486/371 389/488/371
f 367/467/372 366/481/372 381/487/372 382/489/372
f 375/466/373 374/465/373 389/488/373 390/490/373
f 368/468/374 367/467/374 382/489/374 383/491/374
f 376/469/375 375/466/375 390/490/375 391/492/375
f 369/470/376 368/468/376 383/491/376 384/493/376
f 362/472/377 291/494/377 377/495/377
f 301/496/378 376/469/378 391/492/378
f 370/474/379 369/470/379 384/493/379 385/497/379
f 363/475/380 362/472/380 377/495/380 378/498/380
f 371/476/381 370/474/381 385/497/381 386/482/381
f 364/477/382 363/475/382 378/498/382 379/484/382
f 391/492/383 390/490/383 405/499/383 406/500/383
f 384/493/384 383/491/384 398/501/384 399/502/384
f 377/495/385 291/503/385 392/504/385
f 301/505/386 391/492/386 406/500/386
f 385/497/387 384/493/387 399/502/387 400/506/387
f 378/498/388 377/495/388 392/504/388 393/507/388
f 386/482/389 385/497/389 400/506/389 401/508/389
f 379/484/390 378/498/390 393/507/390 394/509/390
f 387/483/391 386/482/391 401/508/391 402/510/391
f 380/485/392 379/484/392 394/509/392 395/511/392
f 388/486/393 387/483/393 402/510/393 403/512/393
f 381/487/394 380/485/394 395/511/394 396/513/394
f 389/488/395 388/486/395 403/512/395 404/514/395
f 382/489/396 381/487/396 396/513/396 397/515/396
f 390/490/397 389/488/397 404/514/397 405/499/397
f 383/491/398 382/489/398 397/515/398 398/501/398
f 395/511/399 394/509/399 409/516/399 410/517/399
f 403/512/400 402/510/400 417/518/400 418/519/400
f 396/513/401 395/511/401 410/517/401 411/520/401
f 404/514/402 403/512/402 418/519/402 419/521/402
f 397/515/403 396/513/403 411/520/403 412/522/403
f 405/499/404 404/514/404 419/521/404 420/523/404
f 398/501/405 397/515/405 412/522/405 413/524/405
f 406/500/406 405/499/406 420/523/406 421/525/406
f 399/502/407 398/501/407 413/524/407 414/526/407
f 392/504/408 291/527/408 407/528/408
f 301/529/409 406/500/409 421/525/409
f 400/506/410 399/502/410 414/526/410 415/530/410
f 393/507/411 392/504/411 407/528/411 408/531/411
f 401/508/412 400/506/412 415/530/412 416/532/412
f 394/509/413 393/507/413 408/531/413 409/516/413
f 402/510/414 401/508/414 416/532/414 417/518/414
f 414/526/415 413/524/415 428/533/415 429/534/415
f 407/528/416 291/535/416 422/536/416
f 301/537/417 421/525/417 436/538/417
f 415/530/418 414/526/418 429/534/418 430/539/418
f 408/531/419 407/528/419 422/536/419 423/540/419
f 416/532/420 415/530/420 430/539/420 431/541/420
f 409/516/421 408/531/421 423/540/421 424/542/421
f 417/518/422 416/532/422 431/541/422 432/543/422
f 410/517/423 409/516/423 424/542/423 425/544/423
f 418/519/424 417/518/424 432/543/424 433/545/424
f 411/520/425 410/517/425 425/544/425 426/546/425
f 419/521/426 418/519/426 433/545/426 434/547/426
f 412/522/427 411/520/427 426/546/427 427/548/427
f 420/523/428 419/521/428 434/547/428 435/549/428
f 413/524/429 412/522/429 427/548/429 428/533/429
f 421/525/430 420/523/430 435/549/430 436/538/430
f 433/545/431 432/543/431 447/550/431 448/551/431
f 426/546/432 425/544/432 440/552/432 441/553/432
f 434/547/433 433/545/433 448/551/433 449/554/433
f 427/548/434 426/546/434 441/553/434 442/555/434
f 435/549/435 434/547/435 449/554/435 450/556/435
f 428/533/436 427/548/436 442/555/436 443/557/436
f 436/538/437 435/549/437 450/556/437 451/558/437
f 429/534/438 428/533/438 443/557/438 444/559/438
f 422/536/439 291/560/439 437/561/439
f 301/562/440 436/538/440 451/558/440
f 430/539/441 429/534/441 444/559/441 445/563/441
f 423/540/442 422/536/442 437/561/442 438/564/442
f 431/541/443 430/539/443 445/563/443 446/565/443
f 424/542/444 423/540/444 438/564/444 439/566/444
f 432/543/445 431/541/445 446/565/445 447/550/445
f 425/544/446 424/542/446 439/566/446 440/552/446
f 437/561/447 291/567/447 452/568/447
f 301/569/448 451/558/448 466/570/448
f 445/563/449 444/559/449 459/571/449 460/572/449
f 438/564/450 437/561/450 452/568/450 453/573/450
f 446/565/451 445/563/451 460/572/451 461/574/451
f 439/566/452 438/564/452 453/573/452 454/575/452
f 447/550/453 446/565/453 461/574/453 462/576/453
f 440/552/454 439/566/454 454/575/454 455/577/454
f 448/551/455 447/550/455 462/576/455 463/578/455
f 441/553/456 440/552/456 455/577/456 456/579/456
f 449/554/457 448/551/457 463/578/457 464/580/457
f 442/555/458 441/553/458 456/579/458 457/581/458
f 450/556/459 449/554/459 464/580/459 465/582/459
f 443/557/460 442/555/460 457/581/460 458/583/460
f 451/558/461 450/556/461 465/582/461 466/570/461
f 444/559/462 443/557/462 458/583/462 459/571/462
f 456/579/463 455/577/463 470/584/463 471/585/463
f 464/580/464 463/578/464 478/586/464 479/587/464
f 457/581/465 456/579/465 471/585/465 472/588/465
f 465/582/466 464/580/466 479/587/466 480/589/466
f 458/583/467 457/581/467 472/588/467 473/590/467
f 466/570/468 465/582/468 480/589/468 481/591/468
f 459/571/469 458/583/469 473/590/469 474/592/469
f 452/568/470 291/593/470 467/594/470
f 301/595/471 466/570/471 481/591/471
f 460/572/472 459/571/472 474/592/472 475/596/472
f 453/573/473 452/568/473 467/594/473 468/597/473
f 461/574/474 460/572/474 475/596/474 476/598/474
f 454/575/475 453/573/475 468/597/475 469/599/475
f 462/576/476 461/574/476 476/598/476 477/600/476
f 455/577/477 454/575/477 469/599/477 470/584/477
f 463/578/478 462/576/478 477/600/478 478/586/478
f 475/601/479 474/602/479 489/603/479 490/604/479
f 468/605/480 467/606/480 482/607/480 483/608/480
f 476/609/481 475/601/481 490/604/481 491/610/481
f 469/611/482 468/605/482 483/608/482 484/612/482
f 477/613/483 476/609/483 491/610/483 492/614/483
f 470/615/484 469/611/484 484/612/484 485/616/484
f 478/617/485 477/613/485 492/614/485 493/618/485
f 471/619/486 470/615/486 485/616/486 486/620/486
f 479/621/487 478/617/487 493/618/487 494/622/487
f 472/623/488 471/619/488 486/620/488 487/624/488
f 480/625/489 479/621/489 494/622/489 495/626/489
f 473/627/490 472/623/490 487/624/490 488/628/490
f 481/629/491 480/625/491 495/626/491 496/630/491
f 474/602/492 473/627/492 488/628/492 489/603/492
f 467/606/493 291/631/493 482/607/493
f 301/632/494 481/629/494 496/630/494
f 494/622/495 493/618/495 508/633/495 509/634/495
f 487/624/496 486/620/496 501/635/496 502/636/496
f 495/626/497 494/622/497 509/634/497 510/637/497
f 488/628/498 487/624/498 502/636/498 503/638/498
f 496/630/499 495/626/499 510/637/499 511/639/499
f 489/603/500 488/628/500 503/638/500 504/640/500
f 482/607/501 291/641/501 497/642/501
f 301/643/502 496/630/502 511/639/502
f 490/604/503 489/603/503 504/640/503 505/644/503
f 483/608/504 482/607/504 497/642/504 498/645/504
f 491/610/505 490/604/505 505/644/505 506/646/505
f 484/612/506 483/608/506 498/645/506 499/647/506
f 492/614/507 491/610/507 506/646/507 507/648/507
f 485/616/508 484/612/508 499/647/508 500/649/508
f 493/618/509 492/614/509 507/648/509 508/633/509
f 486/620/510 485/616/510 500/649/510 501/635/510
f 506/646/511 505/644/511 520/650/511 521/651/511
f 499/647/512 498/645/512 513/652/512 514/653/512
f 507/648/513 506/646/513 521/651/513 522/654/513
f 500/649/514 499/647/514 514/653/514 515/655/514
f 508/633/515 507/648/515 522/654/515 523/656/515
f 501/635/516 500/649/516 515/655/516 516/657/516
f 509/634/517 508/633/517 523/656/517 524/658/517
f 502/636/518 501/635/518 516/657/518 517/659/518
f 510/637/519 509/634/519 524/658/519 525/660/519
f 503/638/520 502/636/520 517/659/520 518/661/520
f 511/639/521 510/637/521 525/660/521 526/662/521
f 504/640/522 503/638/522 518/661/522 519/663/522
f 497/642/523 291/664/523 512/665/523
f 301/666/524 511/639/524 526/662/524
f 505/644/525 504/640/525 519/663/525 520/650/525
f 498/645/526 497/642/526 512/665/526 513/652/526
f 525/660/527 524/658/527 298/394/527 299/398/527
f 518/661/528 517/659/528 294/396/528 295/400/528
f 526/662/529 525/660/529 299/398/529 300/402/529
f 519/663/530 518/661/530 295/400/530 530/404/530
f 512/665/531 291/667/531 292/406/531
f 301/668/532 526/662/532 300/402/532
f 520/650/533 519/663/533 530/404/533 296/410/533
f 513/652/534 512/665/534 292/406/534 527/412/534
f 521/651/535 520/650/535 296/410/535 531/383/535
f 514/653/536 513/652/536 527/412/536 528/387/536
f 522/654/537 521/651/537 531/383/537 297/382/537
f 515/655/538 514/653/538 528/387/538 293/386/538
f 523/656/539 522/654/539 297/382/539 532/390/539
f 516/657/540 515/655/540 293/386/540 529/392/540
f 524/658/541 523/656/541 532/390/541 298/394/541
f 517/659/542 516/657/542 529/392/542 294/396/542
o Blade
v -0.020000 0.425000 -0.070000
v -0.020000 0.425000 0.070000
v -0.020000 1.675000 -0.070000
v -0.020000 1.675000 0.070000
v 0.020000 0.425000 -0.070000
v 0.020000 0.425000 0.070000
v 0.020000 1.675000 -0.070000
v 0.020000 1.675000 0.070000
vn -1.0000 -0.0000 -0.0000
vn -0.0000 1.0000 -0.0000
vn 1.0000 -0.0000 -0.0000
vn -0.0000 -1.0000 -0.0000
vn -0.0000 -0.0000 -1.0000
vn -0.0000 -0.0000 1.0000
vt 0.375000 0.000000
vt 0.625000 0.000000
vt 0.625000 0.250000
vt 0.375000 0.250000
vt 0.625000 0.500000
vt 0.375000 0.500000
vt 0.625000 0.750000
vt 0.375000 0.750000
vt 0.625000 1.000000
vt 0.375000 1.000000
vt 0.125000 0.500000
vt 0.125000 0.750000
vt 0.875000 0.500000
vt 0.875000 0.750000
s 0
usemtl AngelW_Blade
f 533/669/543 534/670/543 536/671/543 535/672/543
f 535/672/544 536/671/544 540/673/544 539/674/544
f 539/674/545 540/673/545 538/675/545 537/676/545
f 537/676/546 538/675/546 534/677/546 533/678/546
f 535/679/547 539/674/547 537/676/547 533/680/547
f 540/673/548 536/681/548 534/682/548 538/675/548
o Blade_Solar_Fuller
v -0.025000 0.450000 -0.020000
v -0.025000 0.450000 0.020000
v -0.025000 1.450000 -0.020000
v -0.025000 1.450000 0.020000
v 0.025000 0.450000 -0.020000
v 0.025000 0.450000 0.020000
v 0.025000 1.450000 -0.020000
v 0.025000 1.450000 0.020000
vn -1.0000 -0.0000 -0.0000
vn -0.0000 1.0000 -0.0000
vn 1.0000 -0.0000 -0.0000
vn -0.0000 -1.0000 -0.0000
vn -0.0000 -0.0000 -1.0000
vn -0.0000 -0.0000 1.0000
vt 0.375000 0.000000
vt 0.625000 0.000000
vt 0.625000 0.250000
vt 0.375000 0.250000
vt 0.625000 0.500000
vt 0.375000 0.500000
vt 0.625000 0.750000
vt 0.375000 0.750000
vt 0.625000 1.000000
vt 0.375000 1.000000
vt 0.125000 0.500000
vt 0.125000 0.750000
vt 0.875000 0.500000
vt 0.875000 0.750000
s 0
usemtl AngelW_SolarCore
f 541/683/549 542/684/549 544/685/549 543/686/549
f 543/686/550 544/685/550 548/687/550 547/688/550
f 547/688/551 548/687/551 546/689/551 545/690/551
f 545/690/552 546/689/552 542/691/552 541/692/552
f 543/693/553 547/688/553 545/690/553 541/694/553
f 548/687/554 544/695/554 542/696/554 546/689/554
o Blade_Tip
v 0.000000 1.830000 -0.150000
v 0.030615 1.823910 -0.150000
v 0.056569 1.806569 -0.150000
v 0.073910 1.780615 -0.150000
v 0.080000 1.750000 -0.150000
v 0.073910 1.719385 -0.150000
v 0.056569 1.693431 -0.150000
v 0.030615 1.676090 -0.150000
v 0.000000 1.670000 -0.150000
v -0.030615 1.676090 -0.150000
v -0.056569 1.693431 -0.150000
v -0.073910 1.719385 -0.150000
v -0.080000 1.750000 -0.150000
v -0.073910 1.780615 -0.150000
v -0.056569 1.806569 -0.150000
v -0.030615 1.823910 -0.150000
v 0.000000 1.750000 0.150000
vn 0.1887 0.9489 0.2530
vn 0.5375 0.8044 0.2530
vn 0.8044 0.5375 0.2530
vn 0.9489 0.1887 0.2530
vn 0.9489 -0.1887 0.2530
vn 0.8044 -0.5375 0.2530
vn 0.5375 -0.8044 0.2530
vn 0.1887 -0.9489 0.2530
vn -0.1887 -0.9489 0.2530
vn -0.5375 -0.8044 0.2530
vn -0.8044 -0.5375 0.2530
vn -0.9489 -0.1887 0.2530
vn -0.9489 0.1887 0.2530
vn -0.8044 0.5375 0.2530
vn -0.0000 -0.0000 -1.0000
vn -0.5375 0.8044 0.2530
vn -0.1887 0.9489 0.2530
vt 0.250000 0.490000
vt 0.250000 0.250000
vt 0.341844 0.471731
vt 0.419706 0.419706
vt 0.471731 0.341844
vt 0.490000 0.250000
vt 0.471731 0.158156
vt 0.419706 0.080294
vt 0.341844 0.028269
vt 0.250000 0.010000
vt 0.158156 0.028269
vt 0.080294 0.080294
vt 0.028269 0.158156
vt 0.010000 0.250000
vt 0.028269 0.341844
vt 0.080294 0.419706
vt 0.750000 0.490000
vt 0.841844 0.471731
vt 0.919706 0.419706
vt 0.971731 0.341844
vt 0.990000 0.250000
vt 0.971731 0.158156
vt 0.919706 0.080294
vt 0.841844 0.028269
vt 0.750000 0.010000
vt 0.658156 0.028269
vt 0.580294 0.080294
vt 0.528269 0.158156
vt 0.510000 0.250000
vt 0.528269 0.341844
vt 0.580294 0.419706
vt 0.658156 0.471731
vt 0.158156 0.471731
s 0
usemtl AngelW_Blade
f 549/697/555 565/698/555 550/699/555
f 550/699/556 565/698/556 551/700/556
f 551/700/557 565/698/557 552/701/557
f 552/701/558 565/698/558 553/702/558
f 553/702/559 565/698/559 554/703/559
f 554/703/560 565/698/560 555/704/560
f 555/704/561 565/698/561 556/705/561
f 556/705/562 565/698/562 557/706/562
f 557/706/563 565/698/563 558/707/563
f 558/707/564 565/698/564 559/708/564
f 559/708/565 565/698/565 560/709/565
f 560/709/566 565/698/566 561/710/566
f 561/710/567 565/698/567 562/711/567
f 562/711/568 565/698/568 563/712/568
f 549/713/569 550/714/569 551/715/569 552/716/569 553/717/569 554/718/569 555/719/569 556/720/569 557/721/569 558/722/569 559/723/569 560/724/569 561/725/569 562/726/569 563/727/569 564/728/569
f 563/712/570 565/698/570 564/729/570
f 564/729/571 565/698/571 549/697/571
