# Blender 5.2.1 LTS
# www.blender.org
mtllib bow_weapon.mtl
o Grip_Wrap
v 0.000000 -0.110000 -0.036000
v 0.000000 0.110000 -0.036000
v 0.013777 -0.110000 -0.033260
v 0.013777 0.110000 -0.033260
v 0.025456 -0.110000 -0.025456
v 0.025456 0.110000 -0.025456
v 0.033260 -0.110000 -0.013777
v 0.033260 0.110000 -0.013777
v 0.036000 -0.110000 0.000000
v 0.036000 0.110000 0.000000
v 0.033260 -0.110000 0.013777
v 0.033260 0.110000 0.013777
v 0.025456 -0.110000 0.025456
v 0.025456 0.110000 0.025456
v 0.013777 -0.110000 0.033260
v 0.013777 0.110000 0.033260
v 0.000000 -0.110000 0.036000
v 0.000000 0.110000 0.036000
v -0.013777 -0.110000 0.033260
v -0.013777 0.110000 0.033260
v -0.025456 -0.110000 0.025456
v -0.025456 0.110000 0.025456
v -0.033260 -0.110000 0.013777
v -0.033260 0.110000 0.013777
v -0.036000 -0.110000 0.000000
v -0.036000 0.110000 0.000000
v -0.033260 -0.110000 -0.013777
v -0.033260 0.110000 -0.013777
v -0.025456 -0.110000 -0.025456
v -0.025456 0.110000 -0.025456
v -0.013777 -0.110000 -0.033260
v -0.013777 0.110000 -0.033260
vn 0.1951 -0.0000 -0.9808
vn 0.5556 -0.0000 -0.8315
vn 0.8315 -0.0000 -0.5556
vn 0.9808 -0.0000 -0.1951
vn 0.9808 -0.0000 0.1951
vn 0.8315 -0.0000 0.5556
vn 0.5556 -0.0000 0.8315
vn 0.1951 -0.0000 0.9808
vn -0.1951 -0.0000 0.9808
vn -0.5556 -0.0000 0.8315
vn -0.8315 -0.0000 0.5556
vn -0.9808 -0.0000 0.1951
vn -0.9808 -0.0000 -0.1951
vn -0.8315 -0.0000 -0.5556
vn -0.0000 1.0000 -0.0000
vn -0.5556 -0.0000 -0.8315
vn -0.1951 -0.0000 -0.9808
vn -0.0000 -1.0000 -0.0000
vt 1.000000 0.500000
vt 1.000000 1.000000
vt 0.937500 1.000000
vt 0.937500 0.500000
vt 0.875000 1.000000
vt 0.875000 0.500000
vt 0.812500 1.000000
vt 0.812500 0.500000
vt 0.750000 1.000000
vt 0.750000 0.500000
vt 0.687500 1.000000
vt 0.687500 0.500000
vt 0.625000 1.000000
vt 0.625000 0.500000
vt 0.562500 1.000000
vt 0.562500 0.500000
vt 0.500000 1.000000
vt 0.500000 0.500000
vt 0.437500 1.000000
vt 0.437500 0.500000
vt 0.375000 1.000000
vt 0.375000 0.500000
vt 0.312500 1.000000
vt 0.312500 0.500000
vt 0.250000 1.000000
vt 0.250000 0.500000
vt 0.187500 1.000000
vt 0.187500 0.500000
vt 0.125000 1.000000
vt 0.125000 0.500000
vt 0.341844 0.471731
vt 0.250000 0.490000
vt 0.158156 0.471731
vt 0.080294 0.419706
vt 0.028269 0.341844
vt 0.010000 0.250000
vt 0.028269 0.158156
vt 0.080294 0.080294
vt 0.158156 0.028269
vt 0.250000 0.010000
vt 0.341844 0.028269
vt 0.419706 0.080294
vt 0.471731 0.158156
vt 0.490000 0.250000
vt 0.471731 0.341844
vt 0.419706 0.419706
vt 0.062500 1.000000
vt 0.062500 0.500000
vt 0.000000 1.000000
vt 0.000000 0.500000
vt 0.750000 0.490000
vt 0.841844 0.471731
vt 0.919706 0.419706
vt 0.971731 0.341844
vt 0.990000 0.250000
vt 0.971731 0.158156
vt 0.919706 0.080294
vt 0.841844 0.028269
vt 0.750000 0.010000
vt 0.658156 0.028269
vt 0.580294 0.080294
vt 0.528269 0.158156
vt 0.510000 0.250000
vt 0.528269 0.341844
vt 0.580294 0.419706
vt 0.658156 0.471731
s 0
usemtl Bow_Leather
f 1/1/1 2/2/1 4/3/1 3/4/1
f 3/4/2 4/3/2 6/5/2 5/6/2
f 5/6/3 6/5/3 8/7/3 7/8/3
f 7/8/4 8/7/4 10/9/4 9/10/4
f 9/10/5 10/9/5 12/11/5 11/12/5
f 11/12/6 12/11/6 14/13/6 13/14/6
f 13/14/7 14/13/7 16/15/7 15/16/7
f 15/16/8 16/15/8 18/17/8 17/18/8
f 17/18/9 18/17/9 20/19/9 19/20/9
f 19/20/10 20/19/10 22/21/10 21/22/10
f 21/22/11 22/21/11 24/23/11 23/24/11
f 23/24/12 24/23/12 26/25/12 25/26/12
f 25/26/13 26/25/13 28/27/13 27/28/13
f 27/28/14 28/27/14 30/29/14 29/30/14
f 4/31/15 2/32/15 32/33/15 30/34/15 28/35/15 26/36/15 24/37/15 22/38/15 20/39/15 18/40/15 16/41/15 14/42/15 12/43/15 10/44/15 8/45/15 6/46/15
f 29/30/16 30/29/16 32/47/16 31/48/16
f 31/48/17 32/47/17 2/49/17 1/50/17
f 1/51/18 3/52/18 5/53/18 7/54/18 9/55/18 11/56/18 13/57/18 15/58/18 17/59/18 19/60/18 21/61/18 23/62/18 25/63/18 27/64/18 29/65/18 31/66/18
o Riser_Upper
v -0.025000 0.100000 0.020000
v -0.025000 0.260000 0.020000
v -0.025000 0.100000 -0.060000
v -0.025000 0.260000 -0.060000
v 0.025000 0.100000 0.020000
v 0.025000 0.260000 0.020000
v 0.025000 0.100000 -0.060000
v 0.025000 0.260000 -0.060000
vn -1.0000 -0.0000 -0.0000
vn -0.0000 -0.0000 -1.0000
vn 1.0000 -0.0000 -0.0000
vn -0.0000 -0.0000 1.0000
vn -0.0000 -1.0000 -0.0000
vn -0.0000 1.0000 -0.0000
vt 0.375000 0.000000
vt 0.625000 0.000000
vt 0.625000 0.250000
vt 0.375000 0.250000
vt 0.625000 0.500000
vt 0.375000 0.500000
vt 0.625000 0.750000
vt 0.375000 0.750000
vt 0.625000 1.000000
vt 0.375000 1.000000
vt 0.125000 0.500000
vt 0.125000 0.750000
vt 0.875000 0.500000
vt 0.875000 0.750000
s 0
usemtl Bow_Gold
f 33/67/19 34/68/19 36/69/19 35/70/19
f 35/70/20 36/69/20 40/71/20 39/72/20
f 39/72/21 40/71/21 38/73/21 37/74/21
f 37/74/22 38/73/22 34/75/22 33/76/22
f 35/77/23 39/72/23 37/74/23 33/78/23
f 40/71/24 36/79/24 34/80/24 38/73/24
o Riser_Lower
v -0.025000 -0.260000 0.020000
v -0.025000 -0.100000 0.020000
v -0.025000 -0.260000 -0.060000
v -0.025000 -0.100000 -0.060000
v 0.025000 -0.260000 0.020000
v 0.025000 -0.100000 0.020000
v 0.025000 -0.260000 -0.060000
v 0.025000 -0.100000 -0.060000
vn -1.0000 -0.0000 -0.0000
vn -0.0000 -0.0000 -1.0000
vn 1.0000 -0.0000 -0.0000
vn -0.0000 -0.0000 1.0000
vn -0.0000 -1.0000 -0.0000
vn -0.0000 1.0000 -0.0000
vt 0.375000 0.000000
vt 0.625000 0.000000
vt 0.625000 0.250000
vt 0.375000 0.250000
vt 0.625000 0.500000
vt 0.375000 0.500000
vt 0.625000 0.750000
vt 0.375000 0.750000
vt 0.625000 1.000000
vt 0.375000 1.000000
vt 0.125000 0.500000
vt 0.125000 0.750000
vt 0.875000 0.500000
vt 0.875000 0.750000
s 0
usemtl Bow_Gold
f 41/81/25 42/82/25 44/83/25 43/84/25
f 43/84/26 44/83/26 48/85/26 47/86/26
f 47/86/27 48/85/27 46/87/27 45/88/27
f 45/88/28 46/87/28 42/89/28 41/90/28
f 43/91/29 47/86/29 45/88/29 41/92/29
f 48/85/30 44/93/30 42/94/30 46/87/30
o Riser_Gem
v 0.000000 0.045000 -0.060000
v 0.000000 0.044135 -0.068779
v 0.000000 0.031820 -0.091820
v 0.000000 0.017221 -0.101575
v 0.000000 0.008779 -0.104135
v 0.000000 -0.008779 -0.104135
v 0.000000 -0.025001 -0.097416
v 0.000000 -0.037416 -0.085001
v 0.000000 -0.041575 -0.077221
v 0.000000 -0.044135 -0.068779
v 0.000000 -0.045000 -0.060000
v 0.003360 0.044135 -0.068111
v 0.006590 0.041575 -0.075910
v 0.009567 0.037416 -0.083098
v 0.012177 0.031820 -0.089398
v 0.014319 0.025001 -0.094568
v 0.015910 0.017221 -0.098410
v 0.016890 0.008779 -0.100776
v 0.017221 0.000000 -0.101575
v 0.016890 -0.008779 -0.100776
v 0.015910 -0.017221 -0.098410
v 0.014319 -0.025001 -0.094568
v 0.012177 -0.031820 -0.089398
v 0.009567 -0.037416 -0.083098
v 0.006590 -0.041575 -0.075910
v 0.003360 -0.044135 -0.068111
v 0.006208 0.044135 -0.066208
v 0.012177 0.041575 -0.072177
v 0.017678 0.037416 -0.077678
v 0.022500 0.031820 -0.082500
v 0.026457 0.025001 -0.086457
v 0.029398 0.017221 -0.089398
v 0.031208 0.008779 -0.091208
v 0.031820 0.000000 -0.091820
v 0.031208 -0.008779 -0.091208
v 0.029398 -0.017221 -0.089398
v 0.026457 -0.025001 -0.086457
v 0.022500 -0.031820 -0.082500
v 0.017678 -0.037416 -0.077678
v 0.012177 -0.041575 -0.072177
v 0.006208 -0.044135 -0.066208
v 0.008111 0.044135 -0.063360
v 0.015910 0.041575 -0.066590
v 0.023098 0.037416 -0.069567
v 0.029398 0.031820 -0.072177
v 0.034568 0.025001 -0.074319
v 0.038410 0.017221 -0.075910
v 0.040776 0.008779 -0.076890
v 0.041575 0.000000 -0.077221
v 0.040776 -0.008779 -0.076890
v 0.038410 -0.017221 -0.075910
v 0.034568 -0.025001 -0.074319
v 0.029398 -0.031820 -0.072177
v 0.023098 -0.037416 -0.069567
v 0.015910 -0.041575 -0.066590
v 0.008111 -0.044135 -0.063360
v 0.008779 0.044135 -0.060000
v 0.017221 0.041575 -0.060000
v 0.025001 0.037416 -0.060000
v 0.031820 0.031820 -0.060000
v 0.037416 0.025001 -0.060000
v 0.041575 0.017221 -0.060000
v 0.044135 0.008779 -0.060000
v 0.045000 0.000000 -0.060000
v 0.044135 -0.008779 -0.060000
v 0.041575 -0.017221 -0.060000
v 0.037416 -0.025001 -0.060000
v 0.031820 -0.031820 -0.060000
v 0.025001 -0.037416 -0.060000
v 0.017221 -0.041575 -0.060000
v 0.008779 -0.044135 -0.060000
v 0.008111 0.044135 -0.056640
v 0.015910 0.041575 -0.053410
v 0.023098 0.037416 -0.050433
v 0.029398 0.031820 -0.047823
v 0.034568 0.025001 -0.045681
v 0.038410 0.017221 -0.044090
v 0.040776 0.008779 -0.043110
v 0.041575 0.000000 -0.042779
v 0.040776 -0.008779 -0.043110
v 0.038410 -0.017221 -0.044090
v 0.034568 -0.025001 -0.045681
v 0.029398 -0.031820 -0.047823
v 0.023098 -0.037416 -0.050433
v 0.015910 -0.041575 -0.053410
v 0.008111 -0.044135 -0.056640
v 0.006208 0.044135 -0.053792
v 0.012177 0.041575 -0.047823
v 0.017678 0.037416 -0.042322
v 0.022500 0.031820 -0.037500
v 0.026457 0.025001 -0.033543
v 0.029398 0.017221 -0.030602
v 0.031208 0.008779 -0.028792
v 0.031820 0.000000 -0.028180
v 0.031208 -0.008779 -0.028792
v 0.029398 -0.017221 -0.030602
v 0.026457 -0.025001 -0.033543
v 0.022500 -0.031820 -0.037500
v 0.017678 -0.037416 -0.042322
v 0.012177 -0.041575 -0.047823
v 0.006208 -0.044135 -0.053792
v 0.003360 0.044135 -0.051889
v 0.006590 0.041575 -0.044090
v 0.009567 0.037416 -0.036902
v 0.012177 0.031820 -0.030602
v 0.014319 0.025001 -0.025432
v 0.015910 0.017221 -0.021590
v 0.016890 0.008779 -0.019224
v 0.017221 0.000000 -0.018425
v 0.016890 -0.008779 -0.019224
v 0.015910 -0.017221 -0.021590
v 0.014319 -0.025001 -0.025432
v 0.012177 -0.031820 -0.030602
v 0.009567 -0.037416 -0.036902
v 0.006590 -0.041575 -0.044090
v 0.003360 -0.044135 -0.051889
v -0.000000 0.044135 -0.051221
v -0.000000 0.041575 -0.042779
v -0.000000 0.037416 -0.034999
v -0.000000 0.031820 -0.028180
v -0.000000 0.025001 -0.022584
v -0.000000 0.017221 -0.018425
v -0.000000 0.008779 -0.015865
v -0.000000 0.000000 -0.015000
v -0.000000 -0.008779 -0.015865
v -0.000000 -0.017221 -0.018425
v -0.000000 -0.025001 -0.022584
v -0.000000 -0.031820 -0.028180
v -0.000000 -0.037416 -0.034999
v -0.000000 -0.041575 -0.042779
v -0.000000 -0.044135 -0.051221
v -0.003360 0.044135 -0.051889
v -0.006590 0.041575 -0.044090
v -0.009567 0.037416 -0.036902
v -0.012177 0.031820 -0.030602
v -0.014319 0.025001 -0.025432
v -0.015910 0.017221 -0.021590
v -0.016890 0.008779 -0.019224
v -0.017221 0.000000 -0.018425
v -0.016890 -0.008779 -0.019224
v -0.015910 -0.017221 -0.021590
v -0.014319 -0.025001 -0.025432
v -0.012177 -0.031820 -0.030602
v -0.009567 -0.037416 -0.036902
v -0.006590 -0.041575 -0.044090
v -0.003360 -0.044135 -0.051889
v -0.006208 0.044135 -0.053792
v -0.012177 0.041575 -0.047823
v -0.017678 0.037416 -0.042322
v -0.022500 0.031820 -0.037500
v -0.026457 0.025001 -0.033543
v -0.029398 0.017221 -0.030602
v -0.031208 0.008779 -0.028792
v -0.031820 0.000000 -0.028180
v -0.031208 -0.008779 -0.028792
v -0.029398 -0.017221 -0.030602
v -0.026457 -0.025001 -0.033543
v -0.022500 -0.031820 -0.037500
v -0.017678 -0.037416 -0.042322
v -0.012177 -0.041575 -0.047823
v -0.006208 -0.044135 -0.053792
v -0.008111 0.044135 -0.056640
v -0.015910 0.041575 -0.053410
v -0.023098 0.037416 -0.050433
v -0.029398 0.031820 -0.047823
v -0.034568 0.025001 -0.045681
v -0.038410 0.017221 -0.044090
v -0.040776 0.008779 -0.043110
v -0.041575 0.000000 -0.042779
v -0.040776 -0.008779 -0.043110
v -0.038410 -0.017221 -0.044090
v -0.034568 -0.025001 -0.045681
v -0.029398 -0.031820 -0.047823
v -0.023098 -0.037416 -0.050433
v -0.015910 -0.041575 -0.053410
v -0.008111 -0.044135 -0.056640
v -0.008779 0.044135 -0.060000
v -0.017221 0.041575 -0.060000
v -0.025001 0.037416 -0.060000
v -0.031820 0.031820 -0.060000
v -0.037416 0.025001 -0.060000
v -0.041575 0.017221 -0.060000
v -0.044135 0.008779 -0.060000
v -0.045000 0.000000 -0.060000
v -0.044135 -0.008779 -0.060000
v -0.041575 -0.017221 -0.060000
v -0.037416 -0.025001 -0.060000
v -0.031820 -0.031820 -0.060000
v -0.025001 -0.037416 -0.060000
v -0.017221 -0.041575 -0.060000
v -0.008779 -0.044135 -0.060000
v -0.008111 0.044135 -0.063360
v -0.015910 0.041575 -0.066590
v -0.023098 0.037416 -0.069567
v -0.029398 0.031820 -0.072177
v -0.034568 0.025001 -0.074319
v -0.038410 0.017221 -0.075910
v -0.040776 0.008779 -0.076890
v -0.041575 0.000000 -0.077221
v -0.040776 -0.008779 -0.076890
v -0.038410 -0.017221 -0.075910
v -0.034568 -0.025001 -0.074319
v -0.029398 -0.031820 -0.072177
v -0.023098 -0.037416 -0.069567
v -0.015910 -0.041575 -0.066590
v -0.008111 -0.044135 -0.063360
v -0.006208 0.044135 -0.066208
v -0.012177 0.041575 -0.072177
v -0.017678 0.037416 -0.077678
v -0.022500 0.031820 -0.082500
v -0.026457 0.025001 -0.086457
v -0.029398 0.017221 -0.089398
v -0.031208 0.008779 -0.091208
v -0.031820 0.000000 -0.091820
v -0.031208 -0.008779 -0.091208
v -0.029398 -0.017221 -0.089398
v -0.026457 -0.025001 -0.086457
v -0.022500 -0.031820 -0.082500
v -0.017678 -0.037416 -0.077678
v -0.012177 -0.041575 -0.072177
v -0.006208 -0.044135 -0.066208
v -0.003360 0.044135 -0.068111
v -0.006590 0.041575 -0.075910
v -0.009567 0.037416 -0.083098
v -0.012177 0.031820 -0.089398
v -0.014319 0.025001 -0.094568
v -0.015910 0.017221 -0.098410
v -0.016890 0.008779 -0.100776
v -0.017221 0.000000 -0.101575
v -0.016890 -0.008779 -0.100776
v -0.015910 -0.017221 -0.098410
v -0.014319 -0.025001 -0.094568
v -0.012177 -0.031820 -0.089398
v -0.009567 -0.037416 -0.083098
v -0.006590 -0.041575 -0.075910
v -0.003360 -0.044135 -0.068111
v 0.000000 0.041575 -0.077221
v 0.000000 0.037416 -0.085001
v 0.000000 0.025001 -0.097416
v 0.000000 0.000000 -0.105000
v 0.000000 -0.017221 -0.101575
v 0.000000 -0.031820 -0.091820
vn 0.1870 0.2852 -0.9401
vn 0.0576 -0.9553 -0.2898
vn 0.1942 0.0961 -0.9762
vn 0.0195 0.9950 -0.0980
vn 0.0195 -0.9950 -0.0980
vn 0.1942 -0.0961 -0.9762
vn 0.0576 0.9553 -0.2898
vn 0.1870 -0.2852 -0.9401
vn 0.0934 0.8781 -0.4693
vn 0.1728 -0.4643 -0.8687
vn 0.1252 0.7669 -0.6294
vn 0.1520 -0.6270 -0.7640
vn 0.1520 0.6270 -0.7640
vn 0.1252 -0.7669 -0.6294
vn 0.1728 0.4643 -0.8687
vn 0.0934 -0.8781 -0.4693
vn 0.3565 -0.7669 -0.5336
vn 0.4921 0.4643 -0.7364
vn 0.2659 -0.8781 -0.3979
vn 0.5325 0.2852 -0.7969
vn 0.1642 -0.9553 -0.2457
vn 0.5530 0.0962 -0.8276
vn 0.0555 0.9950 -0.0831
vn 0.0555 -0.9950 -0.0831
vn 0.5530 -0.0962 -0.8276
vn 0.1642 0.9553 -0.2457
vn 0.5325 -0.2852 -0.7969
vn 0.2659 0.8781 -0.3979
vn 0.4921 -0.4643 -0.7364
vn 0.3565 0.7669 -0.5336
vn 0.4328 -0.6270 -0.6477
vn 0.4328 0.6270 -0.6477
vn 0.7969 -0.2852 -0.5325
vn 0.3979 0.8781 -0.2659
vn 0.7364 -0.4643 -0.4921
vn 0.5336 0.7669 -0.3565
vn 0.6477 -0.6270 -0.4328
vn 0.6477 0.6270 -0.4328
vn 0.5336 -0.7669 -0.3565
vn 0.7364 0.4643 -0.4921
vn 0.3979 -0.8781 -0.2659
vn 0.7969 0.2852 -0.5325
vn 0.2457 -0.9553 -0.1642
vn 0.8276 0.0962 -0.5530
vn 0.0831 0.9950 -0.0555
vn 0.0831 -0.9950 -0.0555
vn 0.8276 -0.0962 -0.5530
vn 0.2457 0.9553 -0.1642
vn 0.4693 -0.8781 -0.0934
vn 0.9401 0.2852 -0.1870
vn 0.2898 -0.9553 -0.0576
vn 0.9762 0.0962 -0.1942
vn 0.0980 0.9950 -0.0195
vn 0.0980 -0.9950 -0.0195
vn 0.9762 -0.0962 -0.1942
vn 0.2898 0.9553 -0.0576
vn 0.9401 -0.2852 -0.1870
vn 0.4693 0.8781 -0.0934
vn 0.8687 -0.4643 -0.1728
vn 0.6294 0.7669 -0.1252
vn 0.7640 -0.6270 -0.1520
vn 0.7640 0.6270 -0.1520
vn 0.6294 -0.7669 -0.1252
vn 0.8687 0.4643 -0.1728
vn 0.4693 0.8781 0.0934
vn 0.8687 -0.4643 0.1728
vn 0.6294 0.7669 0.1252
vn 0.7640 -0.6270 0.1520
vn 0.7640 0.6270 0.1520
vn 0.6294 -0.7669 0.1252
vn 0.8687 0.4643 0.1728
vn 0.4693 -0.8781 0.0934
vn 0.9401 0.2852 0.1870
vn 0.2898 -0.9553 0.0576
vn 0.9762 0.0962 0.1942
vn 0.0980 0.9950 0.0195
vn 0.0980 -0.9950 0.0195
vn 0.9762 -0.0962 0.1942
vn 0.2898 0.9553 0.0576
vn 0.9401 -0.2852 0.1870
vn 0.7969 0.2852 0.5325
vn 0.2457 -0.9553 0.1642
vn 0.8276 0.0962 0.5530
vn 0.0831 0.9950 0.0555
vn 0.0831 -0.9950 0.0555
vn 0.8276 -0.0962 0.5530
vn 0.2457 0.9553 0.1642
vn 0.7969 -0.2852 0.5325
vn 0.3979 0.8781 0.2659
vn 0.7364 -0.4643 0.4921
vn 0.5336 0.7669 0.3565
vn 0.6477 -0.6270 0.4328
vn 0.6477 0.6270 0.4328
vn 0.5336 -0.7669 0.3565
vn 0.7364 0.4643 0.4921
vn 0.3979 -0.8781 0.2659
vn 0.4921 -0.4643 0.7364
vn 0.3565 0.7669 0.5336
vn 0.4328 -0.6270 0.6477
vn 0.4328 0.6270 0.6477
vn 0.3565 -0.7669 0.5336
vn 0.4921 0.4643 0.7364
vn 0.2659 -0.8781 0.3979
vn 0.5325 0.2852 0.7969
vn 0.1642 -0.9553 0.2457
vn 0.5530 0.0962 0.8276
vn 0.0555 0.9950 0.0831
vn 0.0555 -0.9950 0.0831
vn 0.5530 -0.0962 0.8276
vn 0.1642 0.9553 0.2457
vn 0.5325 -0.2852 0.7969
vn 0.2659 0.8781 0.3979
vn 0.0576 -0.9553 0.2898
vn 0.1942 0.0962 0.9762
vn 0.0195 0.9950 0.0980
vn 0.0195 -0.9950 0.0980
vn 0.1942 -0.0962 0.9762
vn 0.0576 0.9553 0.2898
vn 0.1870 -0.2852 0.9401
vn 0.0934 0.8781 0.4693
vn 0.1728 -0.4643 0.8687
vn 0.1252 0.7669 0.6294
vn 0.1520 -0.6270 0.7640
vn 0.1520 0.6270 0.7640
vn 0.1252 -0.7669 0.6294
vn 0.1728 0.4643 0.8687
vn 0.0934 -0.8781 0.4693
vn 0.1870 0.2852 0.9401
vn -0.1252 0.7669 0.6294
vn -0.1520 -0.6270 0.7640
vn -0.1520 0.6270 0.7640
vn -0.1252 -0.7669 0.6294
vn -0.1728 0.4643 0.8687
vn -0.0934 -0.8781 0.4693
vn -0.1870 0.2852 0.9401
vn -0.0576 -0.9553 0.2898
vn -0.1942 0.0962 0.9762
vn -0.0195 0.9950 0.0980
vn -0.0195 -0.9950 0.0980
vn -0.1942 -0.0962 0.9762
vn -0.0576 0.9553 0.2898
vn -0.1870 -0.2852 0.9401
vn -0.0934 0.8781 0.4693
vn -0.1728 -0.4643 0.8687
vn -0.5530 0.0962 0.8276
vn -0.0555 0.9950 0.0831
vn -0.0555 -0.9950 0.0831
vn -0.5530 -0.0962 0.8276
vn -0.1642 0.9553 0.2457
vn -0.5325 -0.2852 0.7969
vn -0.2659 0.8781 0.3979
vn -0.4921 -0.4643 0.7364
vn -0.3565 0.7669 0.5336
vn -0.4328 -0.6270 0.6477
vn -0.4328 0.6270 0.6477
vn -0.3565 -0.7669 0.5336
vn -0.4921 0.4643 0.7364
vn -0.2659 -0.8781 0.3979
vn -0.5325 0.2852 0.7969
vn -0.1642 -0.9553 0.2457
vn -0.6477 -0.6270 0.4328
vn -0.6477 0.6270 0.4328
vn -0.5336 -0.7669 0.3565
vn -0.7364 0.4643 0.4921
vn -0.3979 -0.8781 0.2659
vn -0.7969 0.2852 0.5325
vn -0.2457 -0.9553 0.1642
vn -0.8276 0.0962 0.5530
vn -0.0831 0.9950 0.0555
vn -0.0831 -0.9950 0.0555
vn -0.8276 -0.0962 0.5530
vn -0.2457 0.9553 0.1642
vn -0.7969 -0.2852 0.5325
vn -0.3979 0.8781 0.2659
vn -0.7364 -0.4643 0.4921
vn -0.5336 0.7669 0.3565
vn -0.0980 -0.9950 0.0195
vn -0.9762 -0.0962 0.1942
vn -0.2898 0.9553 0.0576
vn -0.9401 -0.2852 0.1870
vn -0.4693 0.8781 0.0934
vn -0.8687 -0.4643 0.1728
vn -0.6294 0.7669 0.1252
vn -0.7640 -0.6270 0.1520
vn -0.7640 0.6270 0.1520
vn -0.6294 -0.7669 0.1252
vn -0.8687 0.4643 0.1728
vn -0.4693 -0.8781 0.0934
vn -0.9401 0.2852 0.1870
vn -0.2898 -0.9553 0.0576
vn -0.9762 0.0962 0.1942
vn -0.0980 0.9950 0.0195
vn -0.6294 -0.7669 -0.1252
vn -0.8687 0.4643 -0.1728
vn -0.4693 -0.8781 -0.0934
vn -0.9401 0.2852 -0.1870
vn -0.2898 -0.9553 -0.0576
vn -0.9762 0.0962 -0.1942
vn -0.0980 0.9950 -0.0195
vn -0.0980 -0.9950 -0.0195
vn -0.9762 -0.0962 -0.1942
vn -0.2898 0.9553 -0.0576
vn -0.9401 -0.2852 -0.1870
vn -0.4693 0.8781 -0.0934
vn -0.8687 -0.4643 -0.1728
vn -0.6294 0.7669 -0.1252
vn -0.7640 -0.6270 -0.1520
vn -0.7640 0.6270 -0.1520
vn -0.2457 0.9553 -0.1642
vn -0.7969 -0.2852 -0.5325
vn -0.3979 0.8781 -0.2659
vn -0.7364 -0.4643 -0.4921
vn -0.5336 0.7669 -0.3565
vn -0.6477 -0.6270 -0.4328
vn -0.6477 0.6270 -0.4328
vn -0.5336 -0.7669 -0.3565
vn -0.7364 0.4643 -0.4921
vn -0.3979 -0.8781 -0.2659
vn -0.7969 0.2852 -0.5325
vn -0.2457 -0.9553 -0.1642
vn -0.8276 0.0962 -0.5530
vn -0.0831 0.9950 -0.0555
vn -0.0831 -0.9950 -0.0555
vn -0.8276 -0.0962 -0.5530
vn -0.4921 0.4643 -0.7364
vn -0.2659 -0.8781 -0.3979
vn -0.5325 0.2852 -0.7969
vn -0.1642 -0.9553 -0.2457
vn -0.5530 0.0962 -0.8276
vn -0.0555 0.9950 -0.0831
vn -0.0555 -0.9950 -0.0831
vn -0.5530 -0.0962 -0.8276
vn -0.1642 0.9553 -0.2457
vn -0.5325 -0.2852 -0.7969
vn -0.2659 0.8781 -0.3979
vn -0.4921 -0.4643 -0.7364
vn -0.3565 0.7669 -0.5336
vn -0.4328 -0.6270 -0.6477
vn -0.4328 0.6270 -0.6477
vn -0.3565 -0.7669 -0.5336
vn -0.1870 -0.2852 -0.9401
vn -0.0934 0.8781 -0.4693
vn -0.1728 -0.4643 -0.8687
vn -0.1252 0.7669 -0.6294
vn -0.1520 -0.6270 -0.7640
vn -0.1520 0.6270 -0.7640
vn -0.1252 -0.7669 -0.6294
vn -0.1728 0.4643 -0.8687
vn -0.0934 -0.8781 -0.4693
vn -0.1870 0.2852 -0.9401
vn -0.0576 -0.9553 -0.2898
vn -0.1942 0.0961 -0.9762
vn -0.0195 0.9950 -0.0980
vn -0.0195 -0.9950 -0.0980
vn -0.1942 -0.0961 -0.9762
vn -0.0576 0.9553 -0.2898
vt 0.750000 0.562500
vt 0.750000 0.625000
vt 0.687500 0.625000
vt 0.687500 0.562500
vt 0.750000 0.062500
vt 0.750000 0.125000
vt 0.687500 0.125000
vt 0.687500 0.062500
vt 0.750000 0.500000
vt 0.687500 0.500000
vt 0.750000 0.937500
vt 0.718750 1.000000
vt 0.687500 0.937500
vt 0.718750 0.000000
vt 0.750000 0.437500
vt 0.687500 0.437500
vt 0.750000 0.875000
vt 0.687500 0.875000
vt 0.750000 0.375000
vt 0.687500 0.375000
vt 0.750000 0.812500
vt 0.687500 0.812500
vt 0.750000 0.312500
vt 0.687500 0.312500
vt 0.750000 0.750000
vt 0.687500 0.750000
vt 0.750000 0.250000
vt 0.687500 0.250000
vt 0.750000 0.687500
vt 0.687500 0.687500
vt 0.750000 0.187500
vt 0.687500 0.187500
vt 0.625000 0.250000
vt 0.625000 0.187500
vt 0.625000 0.687500
vt 0.625000 0.625000
vt 0.625000 0.125000
vt 0.625000 0.562500
vt 0.625000 0.062500
vt 0.625000 0.500000
vt 0.656250 1.000000
vt 0.625000 0.937500
vt 0.656250 0.000000
vt 0.625000 0.437500
vt 0.625000 0.875000
vt 0.625000 0.375000
vt 0.625000 0.812500
vt 0.625000 0.312500
vt 0.625000 0.750000
vt 0.562500 0.437500
vt 0.562500 0.375000
vt 0.562500 0.875000
vt 0.562500 0.812500
vt 0.562500 0.312500
vt 0.562500 0.750000
vt 0.562500 0.250000
vt 0.562500 0.687500
vt 0.562500 0.187500
vt 0.562500 0.625000
vt 0.562500 0.125000
vt 0.562500 0.562500
vt 0.562500 0.062500
vt 0.562500 0.500000
vt 0.593750 1.000000
vt 0.562500 0.937500
vt 0.593750 0.000000
vt 0.500000 0.187500
vt 0.500000 0.125000
vt 0.500000 0.625000
vt 0.500000 0.562500
vt 0.500000 0.062500
vt 0.500000 0.500000
vt 0.531250 1.000000
vt 0.500000 0.937500
vt 0.531250 0.000000
vt 0.500000 0.437500
vt 0.500000 0.875000
vt 0.500000 0.375000
vt 0.500000 0.812500
vt 0.500000 0.312500
vt 0.500000 0.750000
vt 0.500000 0.250000
vt 0.500000 0.687500
vt 0.437500 0.875000
vt 0.437500 0.812500
vt 0.437500 0.375000
vt 0.437500 0.312500
vt 0.437500 0.750000
vt 0.437500 0.250000
vt 0.437500 0.687500
vt 0.437500 0.187500
vt 0.437500 0.625000
vt 0.437500 0.125000
vt 0.437500 0.562500
vt 0.437500 0.062500
vt 0.437500 0.500000
vt 0.468750 1.000000
vt 0.437500 0.937500
vt 0.468750 0.000000
vt 0.437500 0.437500
vt 0.375000 0.625000
vt 0.375000 0.562500
vt 0.375000 0.125000
vt 0.375000 0.062500
vt 0.375000 0.500000
vt 0.406250 1.000000
vt 0.375000 0.937500
vt 0.406250 0.000000
vt 0.375000 0.437500
vt 0.375000 0.875000
vt 0.375000 0.375000
vt 0.375000 0.812500
vt 0.375000 0.312500
vt 0.375000 0.750000
vt 0.375000 0.250000
vt 0.375000 0.687500
vt 0.375000 0.187500
vt 0.312500 0.375000
vt 0.312500 0.312500
vt 0.312500 0.812500
vt 0.312500 0.750000
vt 0.312500 0.250000
vt 0.312500 0.687500
vt 0.312500 0.187500
vt 0.312500 0.625000
vt 0.312500 0.125000
vt 0.312500 0.562500
vt 0.312500 0.062500
vt 0.312500 0.500000
vt 0.343750 1.000000
vt 0.312500 0.937500
vt 0.343750 0.000000
vt 0.312500 0.437500
vt 0.312500 0.875000
vt 0.250000 0.125000
vt 0.250000 0.062500
vt 0.250000 0.562500
vt 0.250000 0.500000
vt 0.281250 1.000000
vt 0.250000 0.937500
vt 0.281250 0.000000
vt 0.250000 0.437500
vt 0.250000 0.875000
vt 0.250000 0.375000
vt 0.250000 0.812500
vt 0.250000 0.312500
vt 0.250000 0.750000
vt 0.250000 0.250000
vt 0.250000 0.687500
vt 0.250000 0.187500
vt 0.250000 0.625000
vt 0.187500 0.812500
vt 0.187500 0.750000
vt 0.187500 0.312500
vt 0.187500 0.250000
vt 0.187500 0.687500
vt 0.187500 0.187500
vt 0.187500 0.625000
vt 0.187500 0.125000
vt 0.187500 0.562500
vt 0.187500 0.062500
vt 0.187500 0.500000
vt 0.218750 1.000000
vt 0.187500 0.937500
vt 0.218750 0.000000
vt 0.187500 0.437500
vt 0.187500 0.875000
vt 0.187500 0.375000
vt 0.125000 0.562500
vt 0.125000 0.500000
vt 0.156250 1.000000
vt 0.125000 0.937500
vt 0.156250 0.000000
vt 0.125000 0.062500
vt 0.125000 0.437500
vt 0.125000 0.875000
vt 0.125000 0.375000
vt 0.125000 0.812500
vt 0.125000 0.312500
vt 0.125000 0.750000
vt 0.125000 0.250000
vt 0.125000 0.687500
vt 0.125000 0.187500
vt 0.125000 0.625000
vt 0.125000 0.125000
vt 0.062500 0.312500
vt 0.062500 0.250000
vt 0.062500 0.750000
vt 0.062500 0.687500
vt 0.062500 0.187500
vt 0.062500 0.625000
vt 0.062500 0.125000
vt 0.062500 0.562500
vt 0.062500 0.062500
vt 0.062500 0.500000
vt 0.093750 1.000000
vt 0.062500 0.937500
vt 0.093750 0.000000
vt 0.062500 0.437500
vt 0.062500 0.875000
vt 0.062500 0.375000
vt 0.062500 0.812500
vt 0.031250 0.000000
vt 0.000000 0.062500
vt 0.000000 0.500000
vt 0.000000 0.437500
vt 0.000000 0.937500
vt 0.000000 0.875000
vt 0.000000 0.375000
vt 0.000000 0.812500
vt 0.000000 0.312500
vt 0.000000 0.750000
vt 0.000000 0.250000
vt 0.000000 0.687500
vt 0.000000 0.187500
vt 0.000000 0.625000
vt 0.000000 0.125000
vt 0.000000 0.562500
vt 0.031250 1.000000
vt 1.000000 0.187500
vt 1.000000 0.250000
vt 0.937500 0.250000
vt 0.937500 0.187500
vt 1.000000 0.625000
vt 1.000000 0.687500
vt 0.937500 0.687500
vt 0.937500 0.625000
vt 1.000000 0.125000
vt 0.937500 0.125000
vt 1.000000 0.562500
vt 0.937500 0.562500
vt 1.000000 0.062500
vt 0.937500 0.062500
vt 1.000000 0.500000
vt 0.937500 0.500000
vt 1.000000 0.937500
vt 0.968750 1.000000
vt 0.937500 0.937500
vt 0.968750 0.000000
vt 1.000000 0.437500
vt 0.937500 0.437500
vt 1.000000 0.875000
vt 0.937500 0.875000
vt 1.000000 0.375000
vt 0.937500 0.375000
vt 1.000000 0.812500
vt 0.937500 0.812500
vt 1.000000 0.312500
vt 0.937500 0.312500
vt 1.000000 0.750000
vt 0.937500 0.750000
vt 0.875000 0.937500
vt 0.875000 0.875000
vt 0.875000 0.437500
vt 0.875000 0.375000
vt 0.875000 0.812500
vt 0.875000 0.312500
vt 0.875000 0.750000
vt 0.875000 0.250000
vt 0.875000 0.687500
vt 0.875000 0.187500
vt 0.875000 0.625000
vt 0.875000 0.125000
vt 0.875000 0.562500
vt 0.875000 0.062500
vt 0.875000 0.500000
vt 0.906250 1.000000
vt 0.906250 0.000000
vt 0.812500 0.687500
vt 0.812500 0.625000
vt 0.812500 0.187500
vt 0.812500 0.125000
vt 0.812500 0.562500
vt 0.812500 0.062500
vt 0.812500 0.500000
vt 0.843750 1.000000
vt 0.812500 0.937500
vt 0.843750 0.000000
vt 0.812500 0.437500
vt 0.812500 0.875000
vt 0.812500 0.375000
vt 0.812500 0.812500
vt 0.812500 0.312500
vt 0.812500 0.750000
vt 0.812500 0.250000
vt 0.781250 1.000000
vt 0.781250 0.000000
s 0
usemtl Bow_Glow
f 53/95/31 52/96/31 65/97/31 66/98/31
f 58/99/32 57/100/32 73/101/32 74/102/32
f 288/103/33 53/95/33 66/98/33 67/104/33
f 50/105/34 49/106/34 60/107/34
f 59/108/35 58/99/35 74/102/35
f 54/109/36 288/103/36 67/104/36 68/110/36
f 285/111/37 50/105/37 60/107/37 61/112/37
f 289/113/38 54/109/38 68/110/38 69/114/38
f 286/115/39 285/111/39 61/112/39 62/116/39
f 55/117/40 289/113/40 69/114/40 70/118/40
f 51/119/41 286/115/41 62/116/41 63/120/41
f 290/121/42 55/117/42 70/118/42 71/122/42
f 287/123/43 51/119/43 63/120/43 64/124/43
f 56/125/44 290/121/44 71/122/44 72/126/44
f 52/96/45 287/123/45 64/124/45 65/97/45
f 57/100/46 56/125/46 72/126/46 73/101/46
f 72/126/47 71/122/47 86/127/47 87/128/47
f 65/97/48 64/124/48 79/129/48 80/130/48
f 73/101/49 72/126/49 87/128/49 88/131/49
f 66/98/50 65/97/50 80/130/50 81/132/50
f 74/102/51 73/101/51 88/131/51 89/133/51
f 67/104/52 66/98/52 81/132/52 82/134/52
f 60/107/53 49/135/53 75/136/53
f 59/137/54 74/102/54 89/133/54
f 68/110/55 67/104/55 82/134/55 83/138/55
f 61/112/56 60/107/56 75/136/56 76/139/56
f 69/114/57 68/110/57 83/138/57 84/140/57
f 62/116/58 61/112/58 76/139/58 77/141/58
f 70/118/59 69/114/59 84/140/59 85/142/59
f 63/120/60 62/116/60 77/141/60 78/143/60
f 71/122/61 70/118/61 85/142/61 86/127/61
f 64/124/62 63/120/62 78/143/62 79/129/62
f 84/140/63 83/138/63 98/144/63 99/145/63
f 77/141/64 76/139/64 91/146/64 92/147/64
f 85/142/65 84/140/65 99/145/65 100/148/65
f 78/143/66 77/141/66 92/147/66 93/149/66
f 86/127/67 85/142/67 100/148/67 101/150/67
f 79/129/68 78/143/68 93/149/68 94/151/68
f 87/128/69 86/127/69 101/150/69 102/152/69
f 80/130/70 79/129/70 94/151/70 95/153/70
f 88/131/71 87/128/71 102/152/71 103/154/71
f 81/132/72 80/130/72 95/153/72 96/155/72
f 89/133/73 88/131/73 103/154/73 104/156/73
f 82/134/74 81/132/74 96/155/74 97/157/74
f 75/136/75 49/158/75 90/159/75
f 59/160/76 89/133/76 104/156/76
f 83/138/77 82/134/77 97/157/77 98/144/77
f 76/139/78 75/136/78 90/159/78 91/146/78
f 103/154/79 102/152/79 117/161/79 118/162/79
f 96/155/80 95/153/80 110/163/80 111/164/80
f 104/156/81 103/154/81 118/162/81 119/165/81
f 97/157/82 96/155/82 111/164/82 112/166/82
f 90/159/83 49/167/83 105/168/83
f 59/169/84 104/156/84 119/165/84
f 98/144/85 97/157/85 112/166/85 113/170/85
f 91/146/86 90/159/86 105/168/86 106/171/86
f 99/145/87 98/144/87 113/170/87 114/172/87
f 92/147/88 91/146/88 106/171/88 107/173/88
f 100/148/89 99/145/89 114/172/89 115/174/89
f 93/149/90 92/147/90 107/173/90 108/175/90
f 101/150/91 100/148/91 115/174/91 116/176/91
f 94/151/92 93/149/92 108/175/92 109/177/92
f 102/152/93 101/150/93 116/176/93 117/161/93
f 95/153/94 94/151/94 109/177/94 110/163/94
f 107/173/95 106/171/95 121/178/95 122/179/95
f 115/174/96 114/172/96 129/180/96 130/181/96
f 108/175/97 107/173/97 122/179/97 123/182/97
f 116/176/98 115/174/98 130/181/98 131/183/98
f 109/177/99 108/175/99 123/182/99 124/184/99
f 117/161/100 116/176/100 131/183/100 132/185/100
f 110/163/101 109/177/101 124/184/101 125/186/101
f 118/162/102 117/161/102 132/185/102 133/187/102
f 111/164/103 110/163/103 125/186/103 126/188/103
f 119/165/104 118/162/104 133/187/104 134/189/104
f 112/166/105 111/164/105 126/188/105 127/190/105
f 105/168/106 49/191/106 120/192/106
f 59/193/107 119/165/107 134/189/107
f 113/170/108 112/166/108 127/190/108 128/194/108
f 106/171/109 105/168/109 120/192/109 121/178/109
f 114/172/110 113/170/110 128/194/110 129/180/110
f 126/188/111 125/186/111 140/195/111 141/196/111
f 134/189/112 133/187/112 148/197/112 149/198/112
f 127/190/113 126/188/113 141/196/113 142/199/113
f 120/192/114 49/200/114 135/201/114
f 59/202/115 134/189/115 149/198/115
f 128/194/116 127/190/116 142/199/116 143/203/116
f 121/178/117 120/192/117 135/201/117 136/204/117
f 129/180/118 128/194/118 143/203/118 144/205/118
f 122/179/119 121/178/119 136/204/119 137/206/119
f 130/181/120 129/180/120 144/205/120 145/207/120
f 123/182/121 122/179/121 137/206/121 138/208/121
f 131/183/122 130/181/122 145/207/122 146/209/122
f 124/184/123 123/182/123 138/208/123 139/210/123
f 132/185/124 131/183/124 146/209/124 147/211/124
f 125/186/125 124/184/125 139/210/125 140/195/125
f 133/187/126 132/185/126 147/211/126 148/197/126
f 145/207/127 144/205/127 159/212/127 160/213/127
f 138/208/128 137/206/128 152/214/128 153/215/128
f 146/209/129 145/207/129 160/213/129 161/216/129
f 139/210/130 138/208/130 153/215/130 154/217/130
f 147/211/131 146/209/131 161/216/131 162/218/131
f 140/195/132 139/210/132 154/217/132 155/219/132
f 148/197/133 147/211/133 162/218/133 163/220/133
f 141/196/134 140/195/134 155/219/134 156/221/134
f 149/198/135 148/197/135 163/220/135 164/222/135
f 142/199/136 141/196/136 156/221/136 157/223/136
f 135/201/137 49/224/137 150/225/137
f 59/226/138 149/198/138 164/222/138
f 143/203/139 142/199/139 157/223/139 158/227/139
f 136/204/140 135/201/140 150/225/140 151/228/140
f 144/205/141 143/203/141 158/227/141 159/212/141
f 137/206/142 136/204/142 151/228/142 152/214/142
f 164/222/143 163/220/143 178/229/143 179/230/143
f 157/223/144 156/221/144 171/231/144 172/232/144
f 150/225/145 49/233/145 165/234/145
f 59/235/146 164/222/146 179/230/146
f 158/227/147 157/223/147 172/232/147 173/236/147
f 151/228/148 150/225/148 165/234/148 166/237/148
f 159/212/149 158/227/149 173/236/149 174/238/149
f 152/214/150 151/228/150 166/237/150 167/239/150
f 160/213/151 159/212/151 174/238/151 175/240/151
f 153/215/152 152/214/152 167/239/152 168/241/152
f 161/216/153 160/213/153 175/240/153 176/242/153
f 154/217/154 153/215/154 168/241/154 169/243/154
f 162/218/155 161/216/155 176/242/155 177/244/155
f 155/219/156 154/217/156 169/243/156 170/245/156
f 163/220/157 162/218/157 177/244/157 178/229/157
f 156/221/158 155/219/158 170/245/158 171/231/158
f 168/241/159 167/239/159 182/246/159 183/247/159
f 176/242/160 175/240/160 190/248/160 191/249/160
f 169/243/161 168/241/161 183/247/161 184/250/161
f 177/244/162 176/242/162 191/249/162 192/251/162
f 170/245/163 169/243/163 184/250/163 185/252/163
f 178/229/164 177/244/164 192/251/164 193/253/164
f 171/231/165 170/245/165 185/252/165 186/254/165
f 179/230/166 178/229/166 193/253/166 194/255/166
f 172/232/167 171/231/167 186/254/167 187/256/167
f 165/234/168 49/257/168 180/258/168
f 59/259/169 179/230/169 194/255/169
f 173/236/170 172/232/170 187/256/170 188/260/170
f 166/237/171 165/234/171 180/258/171 181/261/171
f 174/238/172 173/236/172 188/260/172 189/262/172
f 167/239/173 166/237/173 181/261/173 182/246/173
f 175/240/174 174/238/174 189/262/174 190/248/174
f 187/256/175 186/254/175 201/263/175 202/264/175
f 180/258/176 49/265/176 195/266/176
f 59/267/177 194/255/177 209/268/177
f 188/260/178 187/256/178 202/264/178 203/269/178
f 181/261/179 180/258/179 195/266/179 196/270/179
f 189/262/180 188/260/180 203/269/180 204/271/180
f 182/246/181 181/261/181 196/270/181 197/272/181
f 190/248/182 189/262/182 204/271/182 205/273/182
f 183/247/183 182/246/183 197/272/183 198/274/183
f 191/249/184 190/248/184 205/273/184 206/275/184
f 184/250/185 183/247/185 198/274/185 199/276/185
f 192/251/186 191/249/186 206/275/186 207/277/186
f 185/252/187 184/250/187 199/276/187 200/278/187
f 193/253/188 192/251/188 207/277/188 208/279/188
f 186/254/189 185/252/189 200/278/189 201/263/189
f 194/255/190 193/253/190 208/279/190 209/268/190
f 206/275/191 205/273/191 220/280/191 221/281/191
f 199/276/192 198/274/192 213/282/192 214/283/192
f 207/277/193 206/275/193 221/281/193 222/284/193
f 200/278/194 199/276/194 214/283/194 215/285/194
f 208/279/195 207/277/195 222/284/195 223/286/195
f 201/263/196 200/278/196 215/285/196 216/287/196
f 209/268/197 208/279/197 223/286/197 224/288/197
f 202/264/198 201/263/198 216/287/198 217/289/198
f 195/266/199 49/290/199 210/291/199
f 59/292/200 209/268/200 224/288/200
f 203/269/201 202/264/201 217/289/201 218/293/201
f 196/270/202 195/266/202 210/291/202 211/294/202
f 204/271/203 203/269/203 218/293/203 219/295/203
f 197/272/204 196/270/204 211/294/204 212/296/204
f 205/273/205 204/271/205 219/295/205 220/280/205
f 198/274/206 197/272/206 212/296/206 213/282/206
f 59/297/207 224/288/207 239/298/207
f 218/293/208 217/289/208 232/299/208 233/300/208
f 211/294/209 210/291/209 225/301/209 226/302/209
f 219/295/210 218/293/210 233/300/210 234/303/210
f 212/296/211 211/294/211 226/302/211 227/304/211
f 220/280/212 219/295/212 234/303/212 235/305/212
f 213/282/213 212/296/213 227/304/213 228/306/213
f 221/281/214 220/280/214 235/305/214 236/307/214
f 214/283/215 213/282/215 228/306/215 229/308/215
f 222/284/216 221/281/216 236/307/216 237/309/216
f 215/285/217 214/283/217 229/308/217 230/310/217
f 223/286/218 222/284/218 237/309/218 238/311/218
f 216/287/219 215/285/219 230/310/219 231/312/219
f 224/288/220 223/286/220 238/311/220 239/298/220
f 217/289/221 216/287/221 231/312/221 232/299/221
f 210/291/222 49/313/222 225/301/222
f 237/314/223 236/315/223 251/316/223 252/317/223
f 230/318/224 229/319/224 244/320/224 245/321/224
f 238/322/225 237/314/225 252/317/225 253/323/225
f 231/324/226 230/318/226 245/321/226 246/325/226
f 239/326/227 238/322/227 253/323/227 254/327/227
f 232/328/228 231/324/228 246/325/228 247/329/228
f 225/330/229 49/331/229 240/332/229
f 59/333/230 239/326/230 254/327/230
f 233/334/231 232/328/231 247/329/231 248/335/231
f 226/336/232 225/330/232 240/332/232 241/337/232
f 234/338/233 233/334/233 248/335/233 249/339/233
f 227/340/234 226/336/234 241/337/234 242/341/234
f 235/342/235 234/338/235 249/339/235 250/343/235
f 228/344/236 227/340/236 242/341/236 243/345/236
f 236/315/237 235/342/237 250/343/237 251/316/237
f 229/319/238 228/344/238 243/345/238 244/320/238
f 241/337/239 240/332/239 255/346/239 256/347/239
f 249/339/240 248/335/240 263/348/240 264/349/240
f 242/341/241 241/337/241 256/347/241 257/350/241
f 250/343/242 249/339/242 264/349/242 265/351/242
f 243/345/243 242/341/243 257/350/243 258/352/243
f 251/316/244 250/343/244 265/351/244 266/353/244
f 244/320/245 243/345/245 258/352/245 259/354/245
f 252/317/246 251/316/246 266/353/246 267/355/246
f 245/321/247 244/320/247 259/354/247 260/356/247
f 253/323/248 252/317/248 267/355/248 268/357/248
f 246/325/249 245/321/249 260/356/249 261/358/249
f 254/327/250 253/323/250 268/357/250 269/359/250
f 247/329/251 246/325/251 261/358/251 262/360/251
f 240/332/252 49/361/252 255/346/252
f 59/362/253 254/327/253 269/359/253
f 248/335/254 247/329/254 262/360/254 263/348/254
f 260/356/255 259/354/255 274/363/255 275/364/255
f 268/357/256 267/355/256 282/365/256 283/366/256
f 261/358/257 260/356/257 275/364/257 276/367/257
f 269/359/258 268/357/258 283/366/258 284/368/258
f 262/360/259 261/358/259 276/367/259 277/369/259
f 255/346/260 49/370/260 270/371/260
f 59/372/261 269/359/261 284/368/261
f 263/348/262 262/360/262 277/369/262 278/373/262
f 256/347/263 255/346/263 270/371/263 271/374/263
f 264/349/264 263/348/264 278/373/264 279/375/264
f 257/350/265 256/347/265 271/374/265 272/376/265
f 265/351/266 264/349/266 279/375/266 280/377/266
f 258/352/267 257/350/267 272/376/267 273/378/267
f 266/353/268 265/351/268 280/377/268 281/379/268
f 259/354/269 258/352/269 273/378/269 274/363/269
f 267/355/270 266/353/270 281/379/270 282/365/270
f 279/375/271 278/373/271 54/109/271 289/113/271
f 272/376/272 271/374/272 285/111/272 286/115/272
f 280/377/273 279/375/273 289/113/273 55/117/273
f 273/378/274 272/376/274 286/115/274 51/119/274
f 281/379/275 280/377/275 55/117/275 290/121/275
f 274/363/276 273/378/276 51/119/276 287/123/276
f 282/365/277 281/379/277 290/121/277 56/125/277
f 275/364/278 274/363/278 287/123/278 52/96/278
f 283/366/279 282/365/279 56/125/279 57/100/279
f 276/367/280 275/364/280 52/96/280 53/95/280
f 284/368/281 283/366/281 57/100/281 58/99/281
f 277/369/282 276/367/282 53/95/282 288/103/282
f 270/371/283 49/380/283 50/105/283
f 59/381/284 284/368/284 58/99/284
f 278/373/285 277/369/285 288/103/285 54/109/285
f 271/374/286 270/371/286 50/105/286 285/111/286
o Upper_Limb_1
v -0.022500 0.245814 0.028044
v -0.022500 0.574707 -0.091663
v -0.022500 0.225293 -0.028337
v -0.022500 0.554186 -0.148044
v 0.022500 0.245814 0.028044
v 0.022500 0.574707 -0.091663
v 0.022500 0.225293 -0.028337
v 0.022500 0.554186 -0.148044
vn -1.0000 -0.0000 -0.0000
vn -0.0000 -0.3420 -0.9397
vn 1.0000 -0.0000 -0.0000
vn -0.0000 0.3420 0.9397
vn -0.0000 -0.9397 0.3420
vn -0.0000 0.9397 -0.3420
vt 0.375000 0.000000
vt 0.625000 0.000000
vt 0.625000 0.250000
vt 0.375000 0.250000
vt 0.625000 0.500000
vt 0.375000 0.500000
vt 0.625000 0.750000
vt 0.375000 0.750000
vt 0.625000 1.000000
vt 0.375000 1.000000
vt 0.125000 0.500000
vt 0.125000 0.750000
vt 0.875000 0.500000
vt 0.875000 0.750000
s 0
usemtl Bow_Wood
f 291/382/287 292/383/287 294/384/287 293/385/287
f 293/385/288 294/384/288 298/386/288 297/387/288
f 297/387/289 298/386/289 296/388/289 295/389/289
f 295/389/290 296/388/290 292/390/290 291/391/290
f 293/392/291 297/387/291 295/389/291 291/393/291
f 298/386/292 294/394/292 292/395/292 296/388/292
o Upper_Limb_2
v -0.019000 0.522285 -0.176757
v -0.019000 0.818984 -0.056883
v -0.019000 0.541016 -0.223117
v -0.019000 0.837715 -0.103243
v 0.019000 0.522285 -0.176757
v 0.019000 0.818984 -0.056883
v 0.019000 0.541016 -0.223117
v 0.019000 0.837715 -0.103243
vn -1.0000 -0.0000 -0.0000
vn -0.0000 0.3746 -0.9272
vn 1.0000 -0.0000 -0.0000
vn -0.0000 -0.3746 0.9272
vn -0.0000 -0.9272 -0.3746
vn -0.0000 0.9272 0.3746
vt 0.375000 0.000000
vt 0.625000 0.000000
vt 0.625000 0.250000
vt 0.375000 0.250000
vt 0.625000 0.500000
vt 0.375000 0.500000
vt 0.625000 0.750000
vt 0.375000 0.750000
vt 0.625000 1.000000
vt 0.375000 1.000000
vt 0.125000 0.500000
vt 0.125000 0.750000
vt 0.875000 0.500000
vt 0.875000 0.750000
s 0
usemtl Bow_Wood
f 299/396/293 300/397/293 302/398/293 301/399/293
f 301/399/294 302/398/294 306/400/294 305/401/294
f 305/401/295 306/400/295 304/402/295 303/403/295
f 303/403/296 304/402/296 300/404/296 299/405/296
f 301/406/297 305/401/297 303/403/297 299/407/297
f 306/400/298 302/408/298 300/409/298 304/402/298
o Upper_Tip
v 0.000000 0.842735 -0.188821
v 0.013394 0.841206 -0.186638
v 0.024749 0.836855 -0.180423
v 0.032336 0.830342 -0.171122
v 0.035000 0.822659 -0.160150
v 0.032336 0.814977 -0.149179
v 0.024749 0.808464 -0.139877
v 0.013394 0.804112 -0.133662
v 0.000000 0.802584 -0.131480
v -0.013394 0.804112 -0.133662
v -0.024749 0.808464 -0.139877
v -0.032336 0.814977 -0.149179
v -0.035000 0.822659 -0.160150
v -0.032336 0.830342 -0.171122
v -0.024749 0.836855 -0.180423
v -0.013394 0.841206 -0.186638
v 0.000000 0.937341 -0.079850
vn 0.1895 0.7414 -0.6437
vn 0.5396 0.6583 -0.5249
vn 0.8075 0.5046 -0.3054
vn 0.9526 0.3038 -0.0186
vn 0.9526 0.0864 0.2918
vn 0.8075 -0.1144 0.5786
vn 0.5396 -0.2681 0.7981
vn 0.1895 -0.3513 0.9169
vn -0.1895 -0.3513 0.9169
vn -0.5396 -0.2681 0.7981
vn -0.8075 -0.1144 0.5786
vn -0.9526 0.0864 0.2918
vn -0.9526 0.3038 -0.0186
vn -0.8075 0.5046 -0.3054
vn -0.0000 -0.8192 -0.5736
vn -0.5396 0.6583 -0.5249
vn -0.1895 0.7414 -0.6437
vt 0.250000 0.490000
vt 0.250000 0.250000
vt 0.341844 0.471731
vt 0.419706 0.419706
vt 0.471731 0.341844
vt 0.490000 0.250000
vt 0.471731 0.158156
vt 0.419706 0.080294
vt 0.341844 0.028269
vt 0.250000 0.010000
vt 0.158156 0.028269
vt 0.080294 0.080294
vt 0.028269 0.158156
vt 0.010000 0.250000
vt 0.028269 0.341844
vt 0.080294 0.419706
vt 0.750000 0.490000
vt 0.841844 0.471731
vt 0.919706 0.419706
vt 0.971731 0.341844
vt 0.990000 0.250000
vt 0.971731 0.158156
vt 0.919706 0.080294
vt 0.841844 0.028269
vt 0.750000 0.010000
vt 0.658156 0.028269
vt 0.580294 0.080294
vt 0.528269 0.158156
vt 0.510000 0.250000
vt 0.528269 0.341844
vt 0.580294 0.419706
vt 0.658156 0.471731
vt 0.158156 0.471731
s 0
usemtl Bow_Gold
f 307/410/299 323/411/299 308/412/299
f 308/412/300 323/411/300 309/413/300
f 309/413/301 323/411/301 310/414/301
f 310/414/302 323/411/302 311/415/302
f 311/415/303 323/411/303 312/416/303
f 312/416/304 323/411/304 313/417/304
f 313/417/305 323/411/305 314/418/305
f 314/418/306 323/411/306 315/419/306
f 315/419/307 323/411/307 316/420/307
f 316/420/308 323/411/308 317/421/308
f 317/421/309 323/411/309 318/422/309
f 318/422/310 323/411/310 319/423/310
f 319/423/311 323/411/311 320/424/311
f 320/424/312 323/411/312 321/425/312
f 307/426/313 308/427/313 309/428/313 310/429/313 311/430/313 312/431/313 313/432/313 314/433/313 315/434/313 316/435/313 317/436/313 318/437/313 319/438/313 320/439/313 321/440/313 322/441/313
f 321/425/314 323/411/314 322/442/314
f 322/442/315 323/411/315 307/410/315
o Lower_Limb_1
v -0.022500 -0.574707 -0.091663
v -0.022500 -0.245814 0.028044
v -0.022500 -0.554186 -0.148044
v -0.022500 -0.225293 -0.028337
v 0.022500 -0.574707 -0.091663
v 0.022500 -0.245814 0.028044
v 0.022500 -0.554186 -0.148044
v 0.022500 -0.225293 -0.028337
vn -1.0000 -0.0000 -0.0000
vn -0.0000 0.3420 -0.9397
vn 1.0000 -0.0000 -0.0000
vn -0.0000 -0.3420 0.9397
vn -0.0000 -0.9397 -0.3420
vn -0.0000 0.9397 0.3420
vt 0.375000 0.000000
vt 0.625000 0.000000
vt 0.625000 0.250000
vt 0.375000 0.250000
vt 0.625000 0.500000
vt 0.375000 0.500000
vt 0.625000 0.750000
vt 0.375000 0.750000
vt 0.625000 1.000000
vt 0.375000 1.000000
vt 0.125000 0.500000
vt 0.125000 0.750000
vt 0.875000 0.500000
vt 0.875000 0.750000
s 0
usemtl Bow_Wood
f 324/443/316 325/444/316 327/445/316 326/446/316
f 326/446/317 327/445/317 331/447/317 330/448/317
f 330/448/318 331/447/318 329/449/318 328/450/318
f 328/450/319 329/449/319 325/451/319 324/452/319
f 326/453/320 330/448/320 328/450/320 324/454/320
f 331/447/321 327/455/321 325/456/321 329/449/321
o Lower_Limb_2
v -0.019000 -0.818984 -0.056883
v -0.019000 -0.522285 -0.176757
v -0.019000 -0.837715 -0.103243
v -0.019000 -0.541016 -0.223117
v 0.019000 -0.818984 -0.056883
v 0.019000 -0.522285 -0.176757
v 0.019000 -0.837715 -0.103243
v 0.019000 -0.541016 -0.223117
vn -1.0000 -0.0000 -0.0000
vn -0.0000 -0.3746 -0.9272
vn 1.0000 -0.0000 -0.0000
vn -0.0000 0.3746 0.9272
vn -0.0000 -0.9272 0.3746
vn -0.0000 0.9272 -0.3746
vt 0.375000 0.000000
vt 0.625000 0.000000
vt 0.625000 0.250000
vt 0.375000 0.250000
vt 0.625000 0.500000
vt 0.375000 0.500000
vt 0.625000 0.750000
vt 0.375000 0.750000
vt 0.625000 1.000000
vt 0.375000 1.000000
vt 0.125000 0.500000
vt 0.125000 0.750000
vt 0.875000 0.500000
vt 0.875000 0.750000
s 0
usemtl Bow_Wood
f 332/457/322 333/458/322 335/459/322 334/460/322
f 334/460/323 335/459/323 339/461/323 338/462/323
f 338/462/324 339/461/324 337/463/324 336/464/324
f 336/464/325 337/463/325 333/465/325 332/466/325
f 334/467/326 338/462/326 336/464/326 332/468/326
f 339/461/327 335/469/327 333/470/327 337/463/327
o Lower_Tip
v 0.000000 -0.957416 -0.108520
v 0.013394 -0.955888 -0.106338
v 0.024749 -0.951536 -0.100123
v 0.032336 -0.945023 -0.090821
v 0.035000 -0.937341 -0.079850
v 0.032336 -0.929658 -0.068878
v 0.024749 -0.923145 -0.059577
v 0.013394 -0.918794 -0.053362
v 0.000000 -0.917265 -0.051179
v -0.013394 -0.918794 -0.053362
v -0.024749 -0.923145 -0.059577
v -0.032336 -0.929658 -0.068878
v -0.035000 -0.937341 -0.079850
v -0.032336 -0.945023 -0.090821
v -0.024749 -0.951536 -0.100123
v -0.013394 -0.955888 -0.106338
v 0.000000 -0.822659 -0.160150
vn 0.1895 -0.3513 -0.9169
vn 0.5396 -0.2681 -0.7981
vn 0.8075 -0.1144 -0.5786
vn 0.9526 0.0864 -0.2918
vn 0.9526 0.3038 0.0186
vn 0.8075 0.5046 0.3054
vn 0.5396 0.6583 0.5249
vn 0.1895 0.7414 0.6437
vn -0.1895 0.7414 0.6437
vn -0.5396 0.6583 0.5249
vn -0.8075 0.5046 0.3054
vn -0.9526 0.3038 0.0186
vn -0.9526 0.0864 -0.2918
vn -0.8075 -0.1144 -0.5786
vn -0.0000 -0.8192 0.5736
vn -0.5396 -0.2681 -0.7981
vn -0.1895 -0.3513 -0.9169
vt 0.250000 0.490000
vt 0.250000 0.250000
vt 0.341844 0.471731
vt 0.419706 0.419706
vt 0.471731 0.341844
vt 0.490000 0.250000
vt 0.471731 0.158156
vt 0.419706 0.080294
vt 0.341844 0.028269
vt 0.250000 0.010000
vt 0.158156 0.028269
vt 0.080294 0.080294
vt 0.028269 0.158156
vt 0.010000 0.250000
vt 0.028269 0.341844
vt 0.080294 0.419706
vt 0.750000 0.490000
vt 0.841844 0.471731
vt 0.919706 0.419706
vt 0.971731 0.341844
vt 0.990000 0.250000
vt 0.971731 0.158156
vt 0.919706 0.080294
vt 0.841844 0.028269
vt 0.750000 0.010000
vt 0.658156 0.028269
vt 0.580294 0.080294
vt 0.528269 0.158156
vt 0.510000 0.250000
vt 0.528269 0.341844
vt 0.580294 0.419706
vt 0.658156 0.471731
vt 0.158156 0.471731
s 0
usemtl Bow_Gold
f 340/471/328 356/472/328 341/473/328
f 341/473/329 356/472/329 342/474/329
f 342/474/330 356/472/330 343/475/330
f 343/475/331 356/472/331 344/476/331
f 344/476/332 356/472/332 345/477/332
f 345/477/333 356/472/333 346/478/333
f 346/478/334 356/472/334 347/479/334
f 347/479/335 356/472/335 348/480/335
f 348/480/336 356/472/336 349/481/336
f 349/481/337 356/472/337 350/482/337
f 350/482/338 356/472/338 351/483/338
f 351/483/339 356/472/339 352/484/339
f 352/484/340 356/472/340 353/485/340
f 353/485/341 356/472/341 354/486/341
f 340/487/342 341/488/342 342/489/342 343/490/342 344/491/342 345/492/342 346/493/342 347/494/342 348/495/342 349/496/342 350/497/342 351/498/342 352/499/342 353/500/342 354/501/342 355/502/342
f 354/486/343 356/472/343 355/503/343
f 355/503/344 356/472/344 340/471/344
o Bowstring
v 0.000000 -0.870000 -0.087000
v 0.000000 0.870000 -0.087000
v 0.002679 -0.870000 -0.086467
v 0.002679 0.870000 -0.086467
v 0.004950 -0.870000 -0.084950
v 0.004950 0.870000 -0.084950
v 0.006467 -0.870000 -0.082679
v 0.006467 0.870000 -0.082679
v 0.007000 -0.870000 -0.080000
v 0.007000 0.870000 -0.080000
v 0.006467 -0.870000 -0.077321
v 0.006467 0.870000 -0.077321
v 0.004950 -0.870000 -0.075050
v 0.004950 0.870000 -0.075050
v 0.002679 -0.870000 -0.073533
v 0.002679 0.870000 -0.073533
v 0.000000 -0.870000 -0.073000
v 0.000000 0.870000 -0.073000
v -0.002679 -0.870000 -0.073533
v -0.002679 0.870000 -0.073533
v -0.004950 -0.870000 -0.075050
v -0.004950 0.870000 -0.075050
v -0.006467 -0.870000 -0.077321
v -0.006467 0.870000 -0.077321
v -0.007000 -0.870000 -0.080000
v -0.007000 0.870000 -0.080000
v -0.006467 -0.870000 -0.082679
v -0.006467 0.870000 -0.082679
v -0.004950 -0.870000 -0.084950
v -0.004950 0.870000 -0.084950
v -0.002679 -0.870000 -0.086467
v -0.002679 0.870000 -0.086467
vn 0.1951 -0.0000 -0.9808
vn 0.5556 -0.0000 -0.8315
vn 0.8315 -0.0000 -0.5556
vn 0.9808 -0.0000 -0.1951
vn 0.9808 -0.0000 0.1951
vn 0.8315 -0.0000 0.5556
vn 0.5556 -0.0000 0.8315
vn 0.1951 -0.0000 0.9808
vn -0.1951 -0.0000 0.9808
vn -0.5556 -0.0000 0.8315
vn -0.8315 -0.0000 0.5556
vn -0.9808 -0.0000 0.1951
vn -0.9808 -0.0000 -0.1951
vn -0.8315 -0.0000 -0.5556
vn -0.0000 1.0000 -0.0000
vn -0.5556 -0.0000 -0.8315
vn -0.1951 -0.0000 -0.9808
vn -0.0000 -1.0000 -0.0000
vt 1.000000 0.500000
vt 1.000000 1.000000
vt 0.937500 1.000000
vt 0.937500 0.500000
vt 0.875000 1.000000
vt 0.875000 0.500000
vt 0.812500 1.000000
vt 0.812500 0.500000
vt 0.750000 1.000000
vt 0.750000 0.500000
vt 0.687500 1.000000
vt 0.687500 0.500000
vt 0.625000 1.000000
vt 0.625000 0.500000
vt 0.562500 1.000000
vt 0.562500 0.500000
vt 0.500000 1.000000
vt 0.500000 0.500000
vt 0.437500 1.000000
vt 0.437500 0.500000
vt 0.375000 1.000000
vt 0.375000 0.500000
vt 0.312500 1.000000
vt 0.312500 0.500000
vt 0.250000 1.000000
vt 0.250000 0.500000
vt 0.187500 1.000000
vt 0.187500 0.500000
vt 0.125000 1.000000
vt 0.125000 0.500000
vt 0.341844 0.471731
vt 0.250000 0.490000
vt 0.158156 0.471731
vt 0.080294 0.419706
vt 0.028269 0.341844
vt 0.010000 0.250000
vt 0.028269 0.158156
vt 0.080294 0.080294
vt 0.158156 0.028269
vt 0.250000 0.010000
vt 0.341844 0.028269
vt 0.419706 0.080294
vt 0.471731 0.158156
vt 0.490000 0.250000
vt 0.471731 0.341844
vt 0.419706 0.419706
vt 0.062500 1.000000
vt 0.062500 0.500000
vt 0.000000 1.000000
vt 0.000000 0.500000
vt 0.750000 0.490000
vt 0.841844 0.471731
vt 0.919706 0.419706
vt 0.971731 0.341844
vt 0.990000 0.250000
vt 0.971731 0.158156
vt 0.919706 0.080294
vt 0.841844 0.028269
vt 0.750000 0.010000
vt 0.658156 0.028269
vt 0.580294 0.080294
vt 0.528269 0.158156
vt 0.510000 0.250000
vt 0.528269 0.341844
vt 0.580294 0.419706
vt 0.658156 0.471731
s 0
usemtl Bow_Glow
f 357/504/345 358/505/345 360/506/345 359/507/345
f 359/507/346 360/506/346 362/508/346 361/509/346
f 361/509/347 362/508/347 364/510/347 363/511/347
f 363/511/348 364/510/348 366/512/348 365/513/348
f 365/513/349 366/512/349 368/514/349 367/515/349
f 367/515/350 368/514/350 370/516/350 369/517/350
f 369/517/351 370/516/351 372/518/351 371/519/351
f 371/519/352 372/518/352 374/520/352 373/521/352
f 373/521/353 374/520/353 376/522/353 375/523/353
f 375/523/354 376/522/354 378/524/354 377/525/354
f 377/525/355 378/524/355 380/526/355 379/527/355
f 379/527/356 380/526/356 382/528/356 381/529/356
f 381/529/357 382/528/357 384/530/357 383/531/357
f 383/531/358 384/530/358 386/532/358 385/533/358
f 360/534/359 358/535/359 388/536/359 386/537/359 384/538/359 382/539/359 380/540/359 378/541/359 376/542/359 374/543/359 372/544/359 370/545/359 368/546/359 366/547/359 364/548/359 362/549/359
f 385/533/360 386/532/360 388/550/360 387/551/360
f 387/551/361 388/550/361 358/552/361 357/553/361
f 357/554/362 359/555/362 361/556/362 363/557/362 365/558/362 367/559/362 369/560/362 371/561/362 373/562/362 375/563/362 377/564/362 379/565/362 381/566/362 383/567/362 385/568/362 387/569/362
