# Blender 5.2.1 LTS
# www.blender.org
mtllib chainsword.mtl
o Grip
v 0.000000 0.192000 -0.200000
v 0.000000 0.192000 0.200000
v 0.016073 0.188803 -0.200000
v 0.016073 0.188803 0.200000
v 0.029698 0.179698 -0.200000
v 0.029698 0.179698 0.200000
v 0.038803 0.166073 -0.200000
v 0.038803 0.166073 0.200000
v 0.042000 0.150000 -0.200000
v 0.042000 0.150000 0.200000
v 0.038803 0.133927 -0.200000
v 0.038803 0.133927 0.200000
v 0.029698 0.120302 -0.200000
v 0.029698 0.120302 0.200000
v 0.016073 0.111197 -0.200000
v 0.016073 0.111197 0.200000
v 0.000000 0.108000 -0.200000
v 0.000000 0.108000 0.200000
v -0.016073 0.111197 -0.200000
v -0.016073 0.111197 0.200000
v -0.029698 0.120302 -0.200000
v -0.029698 0.120302 0.200000
v -0.038803 0.133927 -0.200000
v -0.038803 0.133927 0.200000
v -0.042000 0.150000 -0.200000
v -0.042000 0.150000 0.200000
v -0.038803 0.166073 -0.200000
v -0.038803 0.166073 0.200000
v -0.029698 0.179698 -0.200000
v -0.029698 0.179698 0.200000
v -0.016073 0.188803 -0.200000
v -0.016073 0.188803 0.200000
vn 0.1951 0.9808 -0.0000
vn 0.5556 0.8315 -0.0000
vn 0.8315 0.5556 -0.0000
vn 0.9808 0.1951 -0.0000
vn 0.9808 -0.1951 -0.0000
vn 0.8315 -0.5556 -0.0000
vn 0.5556 -0.8315 -0.0000
vn 0.1951 -0.9808 -0.0000
vn -0.1951 -0.9808 -0.0000
vn -0.5556 -0.8315 -0.0000
vn -0.8315 -0.5556 -0.0000
vn -0.9808 -0.1951 -0.0000
vn -0.9808 0.1951 -0.0000
vn -0.8315 0.5556 -0.0000
vn -0.0000 -0.0000 1.0000
vn -0.5556 0.8315 -0.0000
vn -0.1951 0.9808 -0.0000
vn -0.0000 -0.0000 -1.0000
vt 1.000000 0.500000
vt 1.000000 1.000000
vt 0.937500 1.000000
vt 0.937500 0.500000
vt 0.875000 1.000000
vt 0.875000 0.500000
vt 0.812500 1.000000
vt 0.812500 0.500000
vt 0.750000 1.000000
vt 0.750000 0.500000
vt 0.687500 1.000000
vt 0.687500 0.500000
vt 0.625000 1.000000
vt 0.625000 0.500000
vt 0.562500 1.000000
vt 0.562500 0.500000
vt 0.500000 1.000000
vt 0.500000 0.500000
vt 0.437500 1.000000
vt 0.437500 0.500000
vt 0.375000 1.000000
vt 0.375000 0.500000
vt 0.312500 1.000000
vt 0.312500 0.500000
vt 0.250000 1.000000
vt 0.250000 0.500000
vt 0.187500 1.000000
vt 0.187500 0.500000
vt 0.125000 1.000000
vt 0.125000 0.500000
vt 0.341844 0.471731
vt 0.250000 0.490000
vt 0.158156 0.471731
vt 0.080294 0.419706
vt 0.028269 0.341844
vt 0.010000 0.250000
vt 0.028269 0.158156
vt 0.080294 0.080294
vt 0.158156 0.028269
vt 0.250000 0.010000
vt 0.341844 0.028269
vt 0.419706 0.080294
vt 0.471731 0.158156
vt 0.490000 0.250000
vt 0.471731 0.341844
vt 0.419706 0.419706
vt 0.062500 1.000000
vt 0.062500 0.500000
vt 0.000000 1.000000
vt 0.000000 0.500000
vt 0.750000 0.490000
vt 0.841844 0.471731
vt 0.919706 0.419706
vt 0.971731 0.341844
vt 0.990000 0.250000
vt 0.971731 0.158156
vt 0.919706 0.080294
vt 0.841844 0.028269
vt 0.750000 0.010000
vt 0.658156 0.028269
vt 0.580294 0.080294
vt 0.528269 0.158156
vt 0.510000 0.250000
vt 0.528269 0.341844
vt 0.580294 0.419706
vt 0.658156 0.471731
s 0
usemtl Chain_Casing
f 1/1/1 2/2/1 4/3/1 3/4/1
f 3/4/2 4/3/2 6/5/2 5/6/2
f 5/6/3 6/5/3 8/7/3 7/8/3
f 7/8/4 8/7/4 10/9/4 9/10/4
f 9/10/5 10/9/5 12/11/5 11/12/5
f 11/12/6 12/11/6 14/13/6 13/14/6
f 13/14/7 14/13/7 16/15/7 15/16/7
f 15/16/8 16/15/8 18/17/8 17/18/8
f 17/18/9 18/17/9 20/19/9 19/20/9
f 19/20/10 20/19/10 22/21/10 21/22/10
f 21/22/11 22/21/11 24/23/11 23/24/11
f 23/24/12 24/23/12 26/25/12 25/26/12
f 25/26/13 26/25/13 28/27/13 27/28/13
f 27/28/14 28/27/14 30/29/14 29/30/14
f 4/31/15 2/32/15 32/33/15 30/34/15 28/35/15 26/36/15 24/37/15 22/38/15 20/39/15 18/40/15 16/41/15 14/42/15 12/43/15 10/44/15 8/45/15 6/46/15
f 29/30/16 30/29/16 32/47/16 31/48/16
f 31/48/17 32/47/17 2/49/17 1/50/17
f 1/51/18 3/52/18 5/53/18 7/54/18 9/55/18 11/56/18 13/57/18 15/58/18 17/59/18 19/60/18 21/61/18 23/62/18 25/63/18 27/64/18 29/65/18 31/66/18
o Pommel_Skull
v 0.000000 -0.080000 0.070000
v 0.000000 -0.061883 0.067615
v 0.000000 -0.045000 0.060622
v 0.000000 -0.019378 0.035000
v 0.000000 -0.012385 0.018117
v 0.000000 -0.010000 0.000000
v 0.000000 -0.019378 -0.035000
v 0.000000 -0.045000 -0.060622
v 0.000000 -0.061883 -0.067615
v 0.000000 -0.080000 -0.070000
v 0.006933 -0.063262 0.067615
v 0.013394 -0.047664 0.060622
v 0.018942 -0.034270 0.049497
v 0.023199 -0.023993 0.035000
v 0.025875 -0.017532 0.018117
v 0.026788 -0.015328 0.000000
v 0.025875 -0.017532 -0.018117
v 0.023199 -0.023993 -0.035000
v 0.018942 -0.034270 -0.049497
v 0.013394 -0.047664 -0.060622
v 0.006933 -0.063262 -0.067615
v 0.012811 -0.067189 0.067615
v 0.024749 -0.055251 0.060622
v 0.035000 -0.045000 0.049497
v 0.042866 -0.037134 0.035000
v 0.047811 -0.032189 0.018117
v 0.049497 -0.030503 0.000000
v 0.047811 -0.032189 -0.018117
v 0.042866 -0.037134 -0.035000
v 0.035000 -0.045000 -0.049497
v 0.024749 -0.055251 -0.060622
v 0.012811 -0.067189 -0.067615
v 0.016738 -0.073067 0.067615
v 0.032336 -0.066606 0.060622
v 0.045730 -0.061058 0.049497
v 0.056007 -0.056801 0.035000
v 0.062468 -0.054125 0.018117
v 0.064672 -0.053212 0.000000
v 0.062468 -0.054125 -0.018117
v 0.056007 -0.056801 -0.035000
v 0.045730 -0.061058 -0.049497
v 0.032336 -0.066606 -0.060622
v 0.016738 -0.073067 -0.067615
v 0.018117 -0.080000 0.067615
v 0.035000 -0.080000 0.060622
v 0.049497 -0.080000 0.049497
v 0.060622 -0.080000 0.035000
v 0.067615 -0.080000 0.018117
v 0.070000 -0.080000 0.000000
v 0.067615 -0.080000 -0.018117
v 0.060622 -0.080000 -0.035000
v 0.049497 -0.080000 -0.049497
v 0.035000 -0.080000 -0.060622
v 0.018117 -0.080000 -0.067615
v 0.016738 -0.086933 0.067615
v 0.032336 -0.093394 0.060622
v 0.045730 -0.098942 0.049497
v 0.056007 -0.103199 0.035000
v 0.062468 -0.105875 0.018117
v 0.064672 -0.106788 0.000000
v 0.062468 -0.105875 -0.018117
v 0.056007 -0.103199 -0.035000
v 0.045730 -0.098942 -0.049497
v 0.032336 -0.093394 -0.060622
v 0.016738 -0.086933 -0.067615
v 0.012811 -0.092811 0.067615
v 0.024749 -0.104749 0.060622
v 0.035000 -0.115000 0.049497
v 0.042866 -0.122866 0.035000
v 0.047811 -0.127811 0.018117
v 0.049497 -0.129497 0.000000
v 0.047811 -0.127811 -0.018117
v 0.042866 -0.122866 -0.035000
v 0.035000 -0.115000 -0.049497
v 0.024749 -0.104749 -0.060622
v 0.012811 -0.092811 -0.067615
v 0.006933 -0.096738 0.067615
v 0.013394 -0.112336 0.060622
v 0.018942 -0.125730 0.049497
v 0.023199 -0.136007 0.035000
v 0.025875 -0.142468 0.018117
v 0.026788 -0.144672 0.000000
v 0.025875 -0.142468 -0.018117
v 0.023199 -0.136007 -0.035000
v 0.018942 -0.125730 -0.049497
v 0.013394 -0.112336 -0.060622
v 0.006933 -0.096738 -0.067615
v -0.000000 -0.098117 0.067615
v -0.000000 -0.115000 0.060622
v -0.000000 -0.129497 0.049497
v -0.000000 -0.140622 0.035000
v -0.000000 -0.147615 0.018117
v -0.000000 -0.150000 0.000000
v -0.000000 -0.147615 -0.018117
v -0.000000 -0.140622 -0.035000
v -0.000000 -0.129497 -0.049497
v -0.000000 -0.115000 -0.060622
v -0.000000 -0.098117 -0.067615
v -0.006933 -0.096738 0.067615
v -0.013394 -0.112336 0.060622
v -0.018942 -0.125730 0.049497
v -0.023199 -0.136007 0.035000
v -0.025875 -0.142468 0.018117
v -0.026788 -0.144672 0.000000
v -0.025875 -0.142468 -0.018117
v -0.023199 -0.136007 -0.035000
v -0.018942 -0.125730 -0.049497
v -0.013394 -0.112336 -0.060622
v -0.006933 -0.096738 -0.067615
v -0.012811 -0.092811 0.067615
v -0.024749 -0.104749 0.060622
v -0.035000 -0.115000 0.049497
v -0.042866 -0.122866 0.035000
v -0.047811 -0.127811 0.018117
v -0.049497 -0.129497 0.000000
v -0.047811 -0.127811 -0.018117
v -0.042866 -0.122866 -0.035000
v -0.035000 -0.115000 -0.049497
v -0.024749 -0.104749 -0.060622
v -0.012811 -0.092811 -0.067615
v -0.016738 -0.086933 0.067615
v -0.032336 -0.093394 0.060622
v -0.045730 -0.098942 0.049497
v -0.056007 -0.103199 0.035000
v -0.062468 -0.105875 0.018117
v -0.064672 -0.106788 0.000000
v -0.062468 -0.105875 -0.018117
v -0.056007 -0.103199 -0.035000
v -0.045730 -0.098942 -0.049497
v -0.032336 -0.093394 -0.060622
v -0.016738 -0.086933 -0.067615
v -0.018117 -0.080000 0.067615
v -0.035000 -0.080000 0.060622
v -0.049497 -0.080000 0.049497
v -0.060622 -0.080000 0.035000
v -0.067615 -0.080000 0.018117
v -0.070000 -0.080000 0.000000
v -0.067615 -0.080000 -0.018117
v -0.060622 -0.080000 -0.035000
v -0.049497 -0.080000 -0.049497
v -0.035000 -0.080000 -0.060622
v -0.018117 -0.080000 -0.067615
v -0.016738 -0.073067 0.067615
v -0.032336 -0.066606 0.060622
v -0.045730 -0.061058 0.049497
v -0.056007 -0.056801 0.035000
v -0.062468 -0.054125 0.018117
v -0.064672 -0.053212 0.000000
v -0.062468 -0.054125 -0.018117
v -0.056007 -0.056801 -0.035000
v -0.045730 -0.061058 -0.049497
v -0.032336 -0.066606 -0.060622
v -0.016738 -0.073067 -0.067615
v -0.012811 -0.067189 0.067615
v -0.024749 -0.055251 0.060622
v -0.035000 -0.045000 0.049497
v -0.042866 -0.037134 0.035000
v -0.047811 -0.032189 0.018117
v -0.049497 -0.030503 0.000000
v -0.047811 -0.032189 -0.018117
v -0.042866 -0.037134 -0.035000
v -0.035000 -0.045000 -0.049497
v -0.024749 -0.055251 -0.060622
v -0.012811 -0.067189 -0.067615
v -0.006933 -0.063262 0.067615
v -0.013394 -0.047664 0.060622
v -0.018942 -0.034270 0.049497
v -0.023199 -0.023993 0.035000
v -0.025875 -0.017532 0.018117
v -0.026788 -0.015328 0.000000
v -0.025875 -0.017532 -0.018117
v -0.023199 -0.023993 -0.035000
v -0.018942 -0.034270 -0.049497
v -0.013394 -0.047664 -0.060622
v -0.006933 -0.063262 -0.067615
v 0.000000 -0.030503 0.049497
v 0.000000 -0.012385 -0.018117
v 0.000000 -0.030503 -0.049497
vn 0.1935 0.9727 0.1281
vn 0.1202 0.6043 0.7876
vn 0.1202 0.6043 -0.7876
vn 0.1935 0.9727 -0.1281
vn 0.1559 0.7837 0.6013
vn 0.0759 0.3816 -0.9212
vn 0.0260 0.1305 0.9911
vn 0.1807 0.9087 -0.3764
vn 0.1807 0.9087 0.3764
vn 0.0260 0.1305 -0.9911
vn 0.0759 0.3816 0.9212
vn 0.1559 0.7837 -0.6013
vn 0.4439 0.6644 0.6013
vn 0.2161 0.3235 -0.9212
vn 0.0739 0.1106 0.9911
vn 0.5147 0.7703 -0.3764
vn 0.5147 0.7703 0.3764
vn 0.0739 0.1106 -0.9911
vn 0.2161 0.3235 0.9212
vn 0.4439 0.6644 -0.6013
vn 0.5510 0.8246 0.1281
vn 0.3423 0.5123 0.7876
vn 0.3423 0.5123 -0.7876
vn 0.5510 0.8246 -0.1281
vn 0.5123 0.3423 0.7876
vn 0.5123 0.3423 -0.7876
vn 0.8246 0.5510 -0.1281
vn 0.6644 0.4439 0.6013
vn 0.3235 0.2161 -0.9212
vn 0.1106 0.0739 0.9911
vn 0.7703 0.5147 -0.3764
vn 0.7703 0.5147 0.3764
vn 0.1106 0.0739 -0.9911
vn 0.3235 0.2161 0.9212
vn 0.6644 0.4439 -0.6013
vn 0.8246 0.5510 0.1281
vn 0.9087 0.1807 0.3764
vn 0.1305 0.0260 -0.9911
vn 0.3816 0.0759 0.9212
vn 0.7837 0.1559 -0.6013
vn 0.9727 0.1935 0.1281
vn 0.6043 0.1202 0.7876
vn 0.6043 0.1202 -0.7876
vn 0.9727 0.1935 -0.1281
vn 0.7837 0.1559 0.6013
vn 0.3816 0.0759 -0.9212
vn 0.1305 0.0260 0.9911
vn 0.9087 0.1807 -0.3764
vn 0.7837 -0.1559 0.6013
vn 0.3816 -0.0759 -0.9212
vn 0.1305 -0.0260 0.9911
vn 0.9087 -0.1807 -0.3764
vn 0.9087 -0.1807 0.3764
vn 0.1305 -0.0260 -0.9911
vn 0.3816 -0.0759 0.9212
vn 0.7837 -0.1559 -0.6013
vn 0.9727 -0.1935 0.1281
vn 0.6043 -0.1202 0.7876
vn 0.6043 -0.1202 -0.7876
vn 0.9727 -0.1935 -0.1281
vn 0.8246 -0.5510 0.1281
vn 0.5123 -0.3423 0.7876
vn 0.5123 -0.3423 -0.7876
vn 0.8246 -0.5510 -0.1281
vn 0.6644 -0.4439 0.6013
vn 0.3235 -0.2161 -0.9212
vn 0.1106 -0.0739 0.9911
vn 0.7703 -0.5147 -0.3764
vn 0.7703 -0.5147 0.3764
vn 0.1106 -0.0739 -0.9911
vn 0.3235 -0.2161 0.9212
vn 0.6644 -0.4439 -0.6013
vn 0.5147 -0.7703 0.3764
vn 0.0739 -0.1106 -0.9911
vn 0.2161 -0.3235 0.9212
vn 0.4439 -0.6644 -0.6013
vn 0.5510 -0.8246 0.1281
vn 0.3423 -0.5123 0.7876
vn 0.3423 -0.5123 -0.7876
vn 0.5510 -0.8246 -0.1281
vn 0.4439 -0.6644 0.6013
vn 0.2161 -0.3235 -0.9212
vn 0.0739 -0.1106 0.9911
vn 0.5147 -0.7703 -0.3764
vn 0.1935 -0.9727 -0.1281
vn 0.1559 -0.7837 0.6013
vn 0.0759 -0.3816 -0.9212
vn 0.0260 -0.1305 0.9911
vn 0.1807 -0.9087 -0.3764
vn 0.1807 -0.9087 0.3764
vn 0.0260 -0.1305 -0.9911
vn 0.0759 -0.3816 0.9212
vn 0.1559 -0.7837 -0.6013
vn 0.1935 -0.9727 0.1281
vn 0.1202 -0.6043 0.7876
vn 0.1202 -0.6043 -0.7876
vn -0.1935 -0.9727 0.1281
vn -0.1202 -0.6043 0.7876
vn -0.1202 -0.6043 -0.7876
vn -0.1935 -0.9727 -0.1281
vn -0.1559 -0.7837 0.6013
vn -0.0759 -0.3816 -0.9212
vn -0.0260 -0.1305 0.9911
vn -0.1807 -0.9087 -0.3764
vn -0.1807 -0.9087 0.3764
vn -0.0260 -0.1305 -0.9911
vn -0.0759 -0.3816 0.9212
vn -0.1559 -0.7837 -0.6013
vn -0.5147 -0.7703 -0.3764
vn -0.5147 -0.7703 0.3764
vn -0.0739 -0.1106 -0.9911
vn -0.2161 -0.3235 0.9212
vn -0.4439 -0.6644 -0.6013
vn -0.5510 -0.8246 0.1281
vn -0.3423 -0.5123 0.7876
vn -0.3423 -0.5123 -0.7876
vn -0.5510 -0.8246 -0.1281
vn -0.4439 -0.6644 0.6013
vn -0.2161 -0.3235 -0.9212
vn -0.0739 -0.1106 0.9911
vn -0.8246 -0.5510 -0.1281
vn -0.6644 -0.4439 0.6013
vn -0.3235 -0.2161 -0.9212
vn -0.1106 -0.0739 0.9911
vn -0.7703 -0.5147 -0.3764
vn -0.7703 -0.5147 0.3764
vn -0.1106 -0.0739 -0.9911
vn -0.3235 -0.2161 0.9212
vn -0.6644 -0.4439 -0.6013
vn -0.8246 -0.5510 0.1281
vn -0.5123 -0.3423 0.7876
vn -0.5123 -0.3423 -0.7876
vn -0.7837 -0.1559 -0.6013
vn -0.9727 -0.1935 0.1281
vn -0.6043 -0.1202 0.7876
vn -0.6043 -0.1202 -0.7876
vn -0.9727 -0.1935 -0.1281
vn -0.7837 -0.1559 0.6013
vn -0.3816 -0.0759 -0.9212
vn -0.1305 -0.0260 0.9911
vn -0.9087 -0.1807 -0.3764
vn -0.9087 -0.1807 0.3764
vn -0.1305 -0.0260 -0.9911
vn -0.3816 -0.0759 0.9212
vn -0.1305 0.0260 0.9911
vn -0.9087 0.1807 -0.3764
vn -0.9087 0.1807 0.3764
vn -0.1305 0.0260 -0.9911
vn -0.3816 0.0759 0.9212
vn -0.7837 0.1559 -0.6013
vn -0.9727 0.1935 0.1281
vn -0.6043 0.1202 0.7876
vn -0.6043 0.1202 -0.7876
vn -0.9727 0.1935 -0.1281
vn -0.7837 0.1559 0.6013
vn -0.3816 0.0759 -0.9212
vn -0.5123 0.3423 -0.7876
vn -0.8246 0.5510 -0.1281
vn -0.6644 0.4439 0.6013
vn -0.3235 0.2161 -0.9212
vn -0.1106 0.0739 0.9911
vn -0.7703 0.5147 -0.3764
vn -0.7703 0.5147 0.3764
vn -0.1106 0.0739 -0.9911
vn -0.3235 0.2161 0.9212
vn -0.6644 0.4439 -0.6013
vn -0.8246 0.5510 0.1281
vn -0.5123 0.3423 0.7876
vn -0.2161 0.3235 0.9212
vn -0.4439 0.6644 -0.6013
vn -0.5510 0.8246 0.1281
vn -0.3423 0.5123 0.7876
vn -0.3423 0.5123 -0.7876
vn -0.5510 0.8246 -0.1281
vn -0.4439 0.6644 0.6013
vn -0.2161 0.3235 -0.9212
vn -0.0739 0.1106 0.9911
vn -0.5147 0.7703 -0.3764
vn -0.5147 0.7703 0.3764
vn -0.0739 0.1106 -0.9911
vn -0.0759 0.3816 -0.9212
vn -0.0260 0.1305 0.9911
vn -0.1807 0.9087 -0.3764
vn -0.1807 0.9087 0.3764
vn -0.0260 0.1305 -0.9911
vn -0.0759 0.3816 0.9212
vn -0.1559 0.7837 -0.6013
vn -0.1935 0.9727 0.1281
vn -0.1202 0.6043 0.7876
vn -0.1202 0.6043 -0.7876
vn -0.1935 0.9727 -0.1281
vn -0.1559 0.7837 0.6013
vt 0.750000 0.500000
vt 0.750000 0.583333
vt 0.687500 0.583333
vt 0.687500 0.500000
vt 0.750000 0.750000
vt 0.750000 0.833333
vt 0.687500 0.833333
vt 0.687500 0.750000
vt 0.750000 0.166667
vt 0.750000 0.250000
vt 0.687500 0.250000
vt 0.687500 0.166667
vt 0.750000 0.416667
vt 0.687500 0.416667
vt 0.750000 0.666667
vt 0.687500 0.666667
vt 0.750000 0.083333
vt 0.687500 0.083333
vt 0.750000 0.916667
vt 0.718750 1.000000
vt 0.687500 0.916667
vt 0.750000 0.333333
vt 0.687500 0.333333
vt 0.718750 0.000000
vt 0.625000 0.750000
vt 0.625000 0.666667
vt 0.625000 0.166667
vt 0.625000 0.083333
vt 0.656250 1.000000
vt 0.625000 0.916667
vt 0.625000 0.416667
vt 0.625000 0.333333
vt 0.625000 0.583333
vt 0.656250 0.000000
vt 0.625000 0.833333
vt 0.625000 0.250000
vt 0.625000 0.500000
vt 0.562500 0.833333
vt 0.562500 0.750000
vt 0.562500 0.250000
vt 0.562500 0.166667
vt 0.562500 0.500000
vt 0.562500 0.416667
vt 0.562500 0.666667
vt 0.562500 0.083333
vt 0.593750 1.000000
vt 0.562500 0.916667
vt 0.562500 0.333333
vt 0.562500 0.583333
vt 0.593750 0.000000
vt 0.500000 0.666667
vt 0.500000 0.583333
vt 0.531250 0.000000
vt 0.500000 0.083333
vt 0.500000 0.916667
vt 0.500000 0.833333
vt 0.500000 0.333333
vt 0.500000 0.250000
vt 0.500000 0.500000
vt 0.500000 0.750000
vt 0.500000 0.166667
vt 0.500000 0.416667
vt 0.531250 1.000000
vt 0.437500 0.750000
vt 0.437500 0.666667
vt 0.437500 0.166667
vt 0.437500 0.083333
vt 0.468750 1.000000
vt 0.437500 0.916667
vt 0.437500 0.416667
vt 0.437500 0.333333
vt 0.437500 0.583333
vt 0.468750 0.000000
vt 0.437500 0.833333
vt 0.437500 0.250000
vt 0.437500 0.500000
vt 0.375000 0.583333
vt 0.375000 0.500000
vt 0.375000 0.833333
vt 0.375000 0.750000
vt 0.375000 0.250000
vt 0.375000 0.166667
vt 0.375000 0.416667
vt 0.375000 0.666667
vt 0.375000 0.083333
vt 0.406250 1.000000
vt 0.375000 0.916667
vt 0.375000 0.333333
vt 0.406250 0.000000
vt 0.312500 0.666667
vt 0.312500 0.583333
vt 0.343750 0.000000
vt 0.312500 0.083333
vt 0.312500 0.916667
vt 0.312500 0.833333
vt 0.312500 0.333333
vt 0.312500 0.250000
vt 0.312500 0.500000
vt 0.312500 0.750000
vt 0.312500 0.166667
vt 0.312500 0.416667
vt 0.343750 1.000000
vt 0.250000 0.500000
vt 0.250000 0.416667
vt 0.250000 0.750000
vt 0.250000 0.666667
vt 0.250000 0.166667
vt 0.250000 0.083333
vt 0.281250 1.000000
vt 0.250000 0.916667
vt 0.250000 0.333333
vt 0.250000 0.583333
vt 0.281250 0.000000
vt 0.250000 0.833333
vt 0.250000 0.250000
vt 0.187500 0.583333
vt 0.187500 0.500000
vt 0.187500 0.833333
vt 0.187500 0.750000
vt 0.187500 0.250000
vt 0.187500 0.166667
vt 0.187500 0.416667
vt 0.187500 0.666667
vt 0.187500 0.083333
vt 0.218750 1.000000
vt 0.187500 0.916667
vt 0.187500 0.333333
vt 0.218750 0.000000
vt 0.125000 0.416667
vt 0.125000 0.333333
vt 0.125000 0.666667
vt 0.125000 0.583333
vt 0.156250 0.000000
vt 0.125000 0.083333
vt 0.125000 0.916667
vt 0.125000 0.833333
vt 0.125000 0.250000
vt 0.125000 0.500000
vt 0.125000 0.750000
vt 0.125000 0.166667
vt 0.156250 1.000000
vt 0.062500 0.500000
vt 0.062500 0.416667
vt 0.062500 0.750000
vt 0.062500 0.666667
vt 0.062500 0.166667
vt 0.062500 0.083333
vt 0.093750 1.000000
vt 0.062500 0.916667
vt 0.062500 0.333333
vt 0.062500 0.583333
vt 0.093750 0.000000
vt 0.062500 0.833333
vt 0.062500 0.250000
vt 0.000000 0.333333
vt 0.000000 0.250000
vt 0.000000 0.583333
vt 0.000000 0.500000
vt 0.000000 0.833333
vt 0.000000 0.750000
vt 0.000000 0.166667
vt 0.000000 0.416667
vt 0.000000 0.666667
vt 0.000000 0.083333
vt 0.031250 1.000000
vt 0.000000 0.916667
vt 0.031250 0.000000
vt 1.000000 0.916667
vt 0.968750 1.000000
vt 0.937500 0.916667
vt 1.000000 0.333333
vt 1.000000 0.416667
vt 0.937500 0.416667
vt 0.937500 0.333333
vt 1.000000 0.583333
vt 1.000000 0.666667
vt 0.937500 0.666667
vt 0.937500 0.583333
vt 0.968750 0.000000
vt 1.000000 0.083333
vt 0.937500 0.083333
vt 1.000000 0.833333
vt 0.937500 0.833333
vt 1.000000 0.250000
vt 0.937500 0.250000
vt 1.000000 0.500000
vt 0.937500 0.500000
vt 1.000000 0.750000
vt 0.937500 0.750000
vt 1.000000 0.166667
vt 0.937500 0.166667
vt 0.875000 0.250000
vt 0.875000 0.166667
vt 0.875000 0.500000
vt 0.875000 0.416667
vt 0.875000 0.750000
vt 0.875000 0.666667
vt 0.875000 0.083333
vt 0.906250 1.000000
vt 0.875000 0.916667
vt 0.875000 0.333333
vt 0.875000 0.583333
vt 0.906250 0.000000
vt 0.875000 0.833333
vt 0.812500 0.916667
vt 0.812500 0.833333
vt 0.812500 0.333333
vt 0.812500 0.250000
vt 0.812500 0.583333
vt 0.812500 0.500000
vt 0.812500 0.750000
vt 0.812500 0.166667
vt 0.812500 0.416667
vt 0.812500 0.666667
vt 0.812500 0.083333
vt 0.843750 1.000000
vt 0.843750 0.000000
vt 0.781250 1.000000
vt 0.781250 0.000000
s 0
usemtl Chain_Gold
f 38/67/19 37/68/19 47/69/19 48/70/19
f 208/71/20 35/72/20 44/73/20 45/74/20
f 40/75/21 210/76/21 51/77/21 52/78/21
f 209/79/22 38/67/22 48/70/22 49/80/22
f 36/81/23 208/71/23 45/74/23 46/82/23
f 41/83/24 40/75/24 52/78/24 53/84/24
f 34/85/25 33/86/25 43/87/25
f 39/88/26 209/79/26 49/80/26 50/89/26
f 37/68/27 36/81/27 46/82/27 47/69/27
f 42/90/28 41/83/28 53/84/28
f 35/72/29 34/85/29 43/87/29 44/73/29
f 210/76/30 39/88/30 50/89/30 51/77/30
f 46/82/31 45/74/31 56/91/31 57/92/31
f 53/84/32 52/78/32 63/93/32 64/94/32
f 43/87/33 33/95/33 54/96/33
f 50/89/34 49/80/34 60/97/34 61/98/34
f 47/69/35 46/82/35 57/92/35 58/99/35
f 42/100/36 53/84/36 64/94/36
f 44/73/37 43/87/37 54/96/37 55/101/37
f 51/77/38 50/89/38 61/98/38 62/102/38
f 48/70/39 47/69/39 58/99/39 59/103/39
f 45/74/40 44/73/40 55/101/40 56/91/40
f 52/78/41 51/77/41 62/102/41 63/93/41
f 49/80/42 48/70/42 59/103/42 60/97/42
f 56/91/43 55/101/43 66/104/43 67/105/43
f 63/93/44 62/102/44 73/106/44 74/107/44
f 60/97/45 59/103/45 70/108/45 71/109/45
f 57/92/46 56/91/46 67/105/46 68/110/46
f 64/94/47 63/93/47 74/107/47 75/111/47
f 54/96/48 33/112/48 65/113/48
f 61/98/49 60/97/49 71/109/49 72/114/49
f 58/99/50 57/92/50 68/110/50 69/115/50
f 42/116/51 64/94/51 75/111/51
f 55/101/52 54/96/52 65/113/52 66/104/52
f 62/102/53 61/98/53 72/114/53 73/106/53
f 59/103/54 58/99/54 69/115/54 70/108/54
f 69/115/55 68/110/55 79/117/55 80/118/55
f 42/119/56 75/111/56 86/120/56
f 66/104/57 65/113/57 76/121/57 77/122/57
f 73/106/58 72/114/58 83/123/58 84/124/58
f 70/108/59 69/115/59 80/118/59 81/125/59
f 67/105/60 66/104/60 77/122/60 78/126/60
f 74/107/61 73/106/61 84/124/61 85/127/61
f 71/109/62 70/108/62 81/125/62 82/128/62
f 68/110/63 67/105/63 78/126/63 79/117/63
f 75/111/64 74/107/64 85/127/64 86/120/64
f 65/113/65 33/129/65 76/121/65
f 72/114/66 71/109/66 82/128/66 83/123/66
f 79/117/67 78/126/67 89/130/67 90/131/67
f 86/120/68 85/127/68 96/132/68 97/133/68
f 76/121/69 33/134/69 87/135/69
f 83/123/70 82/128/70 93/136/70 94/137/70
f 80/118/71 79/117/71 90/131/71 91/138/71
f 42/139/72 86/120/72 97/133/72
f 77/122/73 76/121/73 87/135/73 88/140/73
f 84/124/74 83/123/74 94/137/74 95/141/74
f 81/125/75 80/118/75 91/138/75 92/142/75
f 78/126/76 77/122/76 88/140/76 89/130/76
f 85/127/77 84/124/77 95/141/77 96/132/77
f 82/128/78 81/125/78 92/142/78 93/136/78
f 92/142/79 91/138/79 102/143/79 103/144/79
f 89/130/80 88/140/80 99/145/80 100/146/80
f 96/132/81 95/141/81 106/147/81 107/148/81
f 93/136/82 92/142/82 103/144/82 104/149/82
f 90/131/83 89/130/83 100/146/83 101/150/83
f 97/133/84 96/132/84 107/148/84 108/151/84
f 87/135/85 33/152/85 98/153/85
f 94/137/86 93/136/86 104/149/86 105/154/86
f 91/138/87 90/131/87 101/150/87 102/143/87
f 42/155/88 97/133/88 108/151/88
f 88/140/89 87/135/89 98/153/89 99/145/89
f 95/141/90 94/137/90 105/154/90 106/147/90
f 102/143/91 101/150/91 112/156/91 113/157/91
f 42/158/92 108/151/92 119/159/92
f 99/145/93 98/153/93 109/160/93 110/161/93
f 106/147/94 105/154/94 116/162/94 117/163/94
f 103/144/95 102/143/95 113/157/95 114/164/95
f 100/146/96 99/145/96 110/161/96 111/165/96
f 107/148/97 106/147/97 117/163/97 118/166/97
f 104/149/98 103/144/98 114/164/98 115/167/98
f 101/150/99 100/146/99 111/165/99 112/156/99
f 108/151/100 107/148/100 118/166/100 119/159/100
f 98/153/101 33/168/101 109/160/101
f 105/154/102 104/149/102 115/167/102 116/162/102
f 115/167/103 114/164/103 125/169/103 126/170/103
f 112/156/104 111/165/104 122/171/104 123/172/104
f 119/159/105 118/166/105 129/173/105 130/174/105
f 109/160/106 33/175/106 120/176/106
f 116/162/107 115/167/107 126/170/107 127/177/107
f 113/157/108 112/156/108 123/172/108 124/178/108
f 42/179/109 119/159/109 130/174/109
f 110/161/110 109/160/110 120/176/110 121/180/110
f 117/163/111 116/162/111 127/177/111 128/181/111
f 114/164/112 113/157/112 124/178/112 125/169/112
f 111/165/113 110/161/113 121/180/113 122/171/113
f 118/166/114 117/163/114 128/181/114 129/173/114
f 125/169/115 124/178/115 135/182/115 136/183/115
f 122/171/116 121/180/116 132/184/116 133/185/116
f 129/173/117 128/181/117 139/186/117 140/187/117
f 126/170/118 125/169/118 136/183/118 137/188/118
f 123/172/119 122/171/119 133/185/119 134/189/119
f 130/174/120 129/173/120 140/187/120 141/190/120
f 120/176/121 33/191/121 131/192/121
f 127/177/122 126/170/122 137/188/122 138/193/122
f 124/178/123 123/172/123 134/189/123 135/182/123
f 42/194/124 130/174/124 141/190/124
f 121/180/125 120/176/125 131/192/125 132/184/125
f 128/181/126 127/177/126 138/193/126 139/186/126
f 138/193/127 137/188/127 148/195/127 149/196/127
f 135/182/128 134/189/128 145/197/128 146/198/128
f 42/199/129 141/190/129 152/200/129
f 132/184/130 131/192/130 142/201/130 143/202/130
f 139/186/131 138/193/131 149/196/131 150/203/131
f 136/183/132 135/182/132 146/198/132 147/204/132
f 133/185/133 132/184/133 143/202/133 144/205/133
f 140/187/134 139/186/134 150/203/134 151/206/134
f 137/188/135 136/183/135 147/204/135 148/195/135
f 134/189/136 133/185/136 144/205/136 145/197/136
f 141/190/137 140/187/137 151/206/137 152/200/137
f 131/192/138 33/207/138 142/201/138
f 148/195/139 147/204/139 158/208/139 159/209/139
f 145/197/140 144/205/140 155/210/140 156/211/140
f 152/200/141 151/206/141 162/212/141 163/213/141
f 142/201/142 33/214/142 153/215/142
f 149/196/143 148/195/143 159/209/143 160/216/143
f 146/198/144 145/197/144 156/211/144 157/217/144
f 42/218/145 152/200/145 163/213/145
f 143/202/146 142/201/146 153/215/146 154/219/146
f 150/203/147 149/196/147 160/216/147 161/220/147
f 147/204/148 146/198/148 157/217/148 158/208/148
f 144/205/149 143/202/149 154/219/149 155/210/149
f 151/206/150 150/203/150 161/220/150 162/212/150
f 161/220/151 160/216/151 171/221/151 172/222/151
f 158/208/152 157/217/152 168/223/152 169/224/152
f 155/210/153 154/219/153 165/225/153 166/226/153
f 162/212/154 161/220/154 172/222/154 173/227/154
f 159/209/155 158/208/155 169/224/155 170/228/155
f 156/211/156 155/210/156 166/226/156 167/229/156
f 163/213/157 162/212/157 173/227/157 174/230/157
f 153/215/158 33/231/158 164/232/158
f 160/216/159 159/209/159 170/228/159 171/221/159
f 157/217/160 156/211/160 167/229/160 168/223/160
f 42/233/161 163/213/161 174/230/161
f 154/219/162 153/215/162 164/232/162 165/225/162
f 164/234/163 33/235/163 175/236/163
f 171/237/164 170/238/164 181/239/164 182/240/164
f 168/241/165 167/242/165 178/243/165 179/244/165
f 42/245/166 174/246/166 185/247/166
f 165/248/167 164/234/167 175/236/167 176/249/167
f 172/250/168 171/237/168 182/240/168 183/251/168
f 169/252/169 168/241/169 179/244/169 180/253/169
f 166/254/170 165/248/170 176/249/170 177/255/170
f 173/256/171 172/250/171 183/251/171 184/257/171
f 170/238/172 169/252/172 180/253/172 181/239/172
f 167/242/173 166/254/173 177/255/173 178/243/173
f 174/246/174 173/256/174 184/257/174 185/247/174
f 184/257/175 183/251/175 194/258/175 195/259/175
f 181/239/176 180/253/176 191/260/176 192/261/176
f 178/243/177 177/255/177 188/262/177 189/263/177
f 185/247/178 184/257/178 195/259/178 196/264/178
f 175/236/179 33/265/179 186/266/179
f 182/240/180 181/239/180 192/261/180 193/267/180
f 179/244/181 178/243/181 189/263/181 190/268/181
f 42/269/182 185/247/182 196/264/182
f 176/249/183 175/236/183 186/266/183 187/270/183
f 183/251/184 182/240/184 193/267/184 194/258/184
f 180/253/185 179/244/185 190/268/185 191/260/185
f 177/255/186 176/249/186 187/270/186 188/262/186
f 187/270/187 186/266/187 197/271/187 198/272/187
f 194/258/188 193/267/188 204/273/188 205/274/188
f 191/260/189 190/268/189 201/275/189 202/276/189
f 188/262/190 187/270/190 198/272/190 199/277/190
f 195/259/191 194/258/191 205/274/191 206/278/191
f 192/261/192 191/260/192 202/276/192 203/279/192
f 189/263/193 188/262/193 199/277/193 200/280/193
f 196/264/194 195/259/194 206/278/194 207/281/194
f 186/266/195 33/282/195 197/271/195
f 193/267/196 192/261/196 203/279/196 204/273/196
f 190/268/197 189/263/197 200/280/197 201/275/197
f 42/283/198 196/264/198 207/281/198
f 207/281/199 206/278/199 40/75/199 41/83/199
f 197/271/200 33/284/200 34/85/200
f 204/273/201 203/279/201 209/79/201 39/88/201
f 201/275/202 200/280/202 36/81/202 37/68/202
f 42/285/203 207/281/203 41/83/203
f 198/272/204 197/271/204 34/85/204 35/72/204
f 205/274/205 204/273/205 39/88/205 210/76/205
f 202/276/206 201/275/206 37/68/206 38/67/206
f 199/277/207 198/272/207 35/72/207 208/71/207
f 206/278/208 205/274/208 210/76/208 40/75/208
f 203/279/209 202/276/209 38/67/209 209/79/209
f 200/280/210 199/277/210 208/71/210 36/81/210
o Crossguard
v -0.110000 0.340000 -0.070000
v -0.110000 0.340000 0.070000
v -0.110000 0.420000 -0.070000
v -0.110000 0.420000 0.070000
v 0.110000 0.340000 -0.070000
v 0.110000 0.340000 0.070000
v 0.110000 0.420000 -0.070000
v 0.110000 0.420000 0.070000
vn -1.0000 -0.0000 -0.0000
vn -0.0000 1.0000 -0.0000
vn 1.0000 -0.0000 -0.0000
vn -0.0000 -1.0000 -0.0000
vn -0.0000 -0.0000 -1.0000
vn -0.0000 -0.0000 1.0000
vt 0.375000 0.000000
vt 0.625000 0.000000
vt 0.625000 0.250000
vt 0.375000 0.250000
vt 0.625000 0.500000
vt 0.375000 0.500000
vt 0.625000 0.750000
vt 0.375000 0.750000
vt 0.625000 1.000000
vt 0.375000 1.000000
vt 0.125000 0.500000
vt 0.125000 0.750000
vt 0.875000 0.500000
vt 0.875000 0.750000
s 0
usemtl Chain_Gold
f 211/286/211 212/287/211 214/288/211 213/289/211
f 213/289/212 214/288/212 218/290/212 217/291/212
f 217/291/213 218/290/213 216/292/213 215/293/213
f 215/293/214 216/292/214 212/294/214 211/295/214
f 213/296/215 217/291/215 215/293/215 211/297/215
f 218/290/216 214/298/216 212/299/216 216/292/216
o Knuckle_Guard
v 0.090000 0.220000 -0.120000
v 0.090000 0.220000 0.200000
v 0.097654 0.218478 -0.120000
v 0.097654 0.218478 0.200000
v 0.104142 0.214142 -0.120000
v 0.104142 0.214142 0.200000
v 0.108478 0.207654 -0.120000
v 0.108478 0.207654 0.200000
v 0.110000 0.200000 -0.120000
v 0.110000 0.200000 0.200000
v 0.108478 0.192346 -0.120000
v 0.108478 0.192346 0.200000
v 0.104142 0.185858 -0.120000
v 0.104142 0.185858 0.200000
v 0.097654 0.181522 -0.120000
v 0.097654 0.181522 0.200000
v 0.090000 0.180000 -0.120000
v 0.090000 0.180000 0.200000
v 0.082346 0.181522 -0.120000
v 0.082346 0.181522 0.200000
v 0.075858 0.185858 -0.120000
v 0.075858 0.185858 0.200000
v 0.071522 0.192346 -0.120000
v 0.071522 0.192346 0.200000
v 0.070000 0.200000 -0.120000
v 0.070000 0.200000 0.200000
v 0.071522 0.207654 -0.120000
v 0.071522 0.207654 0.200000
v 0.075858 0.214142 -0.120000
v 0.075858 0.214142 0.200000
v 0.082346 0.218478 -0.120000
v 0.082346 0.218478 0.200000
vn 0.1951 0.9808 -0.0000
vn 0.5556 0.8315 -0.0000
vn 0.8315 0.5556 -0.0000
vn 0.9808 0.1951 -0.0000
vn 0.9808 -0.1951 -0.0000
vn 0.8315 -0.5556 -0.0000
vn 0.5556 -0.8315 -0.0000
vn 0.1951 -0.9808 -0.0000
vn -0.1951 -0.9808 -0.0000
vn -0.5556 -0.8315 -0.0000
vn -0.8315 -0.5556 -0.0000
vn -0.9808 -0.1951 -0.0000
vn -0.9808 0.1951 -0.0000
vn -0.8315 0.5556 -0.0000
vn -0.0000 -0.0000 1.0000
vn -0.5556 0.8315 -0.0000
vn -0.1951 0.9808 -0.0000
vn -0.0000 -0.0000 -1.0000
vt 1.000000 0.500000
vt 1.000000 1.000000
vt 0.937500 1.000000
vt 0.937500 0.500000
vt 0.875000 1.000000
vt 0.875000 0.500000
vt 0.812500 1.000000
vt 0.812500 0.500000
vt 0.750000 1.000000
vt 0.750000 0.500000
vt 0.687500 1.000000
vt 0.687500 0.500000
vt 0.625000 1.000000
vt 0.625000 0.500000
vt 0.562500 1.000000
vt 0.562500 0.500000
vt 0.500000 1.000000
vt 0.500000 0.500000
vt 0.437500 1.000000
vt 0.437500 0.500000
vt 0.375000 1.000000
vt 0.375000 0.500000
vt 0.312500 1.000000
vt 0.312500 0.500000
vt 0.250000 1.000000
vt 0.250000 0.500000
vt 0.187500 1.000000
vt 0.187500 0.500000
vt 0.125000 1.000000
vt 0.125000 0.500000
vt 0.341844 0.471731
vt 0.250000 0.490000
vt 0.158156 0.471731
vt 0.080294 0.419706
vt 0.028269 0.341844
vt 0.010000 0.250000
vt 0.028269 0.158156
vt 0.080294 0.080294
vt 0.158156 0.028269
vt 0.250000 0.010000
vt 0.341844 0.028269
vt 0.419706 0.080294
vt 0.471731 0.158156
vt 0.490000 0.250000
vt 0.471731 0.341844
vt 0.419706 0.419706
vt 0.062500 1.000000
vt 0.062500 0.500000
vt 0.000000 1.000000
vt 0.000000 0.500000
vt 0.750000 0.490000
vt 0.841844 0.471731
vt 0.919706 0.419706
vt 0.971731 0.341844
vt 0.990000 0.250000
vt 0.971731 0.158156
vt 0.919706 0.080294
vt 0.841844 0.028269
vt 0.750000 0.010000
vt 0.658156 0.028269
vt 0.580294 0.080294
vt 0.528269 0.158156
vt 0.510000 0.250000
vt 0.528269 0.341844
vt 0.580294 0.419706
vt 0.658156 0.471731
s 0
usemtl Chain_Steel
f 219/300/217 220/301/217 222/302/217 221/303/217
f 221/303/218 222/302/218 224/304/218 223/305/218
f 223/305/219 224/304/219 226/306/219 225/307/219
f 225/307/220 226/306/220 228/308/220 227/309/220
f 227/309/221 228/308/221 230/310/221 229/311/221
f 229/311/222 230/310/222 232/312/222 231/313/222
f 231/313/223 232/312/223 234/314/223 233/315/223
f 233/315/224 234/314/224 236/316/224 235/317/224
f 235/317/225 236/316/225 238/318/225 237/319/225
f 237/319/226 238/318/226 240/320/226 239/321/226
f 239/321/227 240/320/227 242/322/227 241/323/227
f 241/323/228 242/322/228 244/324/228 243/325/228
f 243/325/229 244/324/229 246/326/229 245/327/229
f 245/327/230 246/326/230 248/328/230 247/329/230
f 222/330/231 220/331/231 250/332/231 248/333/231 246/334/231 244/335/231 242/336/231 240/337/231 238/338/231 236/339/231 234/340/231 232/341/231 230/342/231 228/343/231 226/344/231 224/345/231
f 247/329/232 248/328/232 250/346/232 249/347/232
f 249/347/233 250/346/233 220/348/233 219/349/233
f 219/350/234 221/351/234 223/352/234 225/353/234 227/354/234 229/355/234 231/356/234 233/357/234 235/358/234 237/359/234 239/360/234 241/361/234 243/362/234 245/363/234 247/364/234 249/365/234
o Motor_Housing
v -0.080000 0.410000 -0.080000
v -0.080000 0.410000 0.080000
v -0.080000 0.670000 -0.080000
v -0.080000 0.670000 0.080000
v 0.080000 0.410000 -0.080000
v 0.080000 0.410000 0.080000
v 0.080000 0.670000 -0.080000
v 0.080000 0.670000 0.080000
vn -1.0000 -0.0000 -0.0000
vn -0.0000 1.0000 -0.0000
vn 1.0000 -0.0000 -0.0000
vn -0.0000 -1.0000 -0.0000
vn -0.0000 -0.0000 -1.0000
vn -0.0000 -0.0000 1.0000
vt 0.375000 0.000000
vt 0.625000 0.000000
vt 0.625000 0.250000
vt 0.375000 0.250000
vt 0.625000 0.500000
vt 0.375000 0.500000
vt 0.625000 0.750000
vt 0.375000 0.750000
vt 0.625000 1.000000
vt 0.375000 1.000000
vt 0.125000 0.500000
vt 0.125000 0.750000
vt 0.875000 0.500000
vt 0.875000 0.750000
s 0
usemtl Chain_Casing
f 251/366/235 252/367/235 254/368/235 253/369/235
f 253/369/236 254/368/236 258/370/236 257/371/236
f 257/371/237 258/370/237 256/372/237 255/373/237
f 255/373/238 256/372/238 252/374/238 251/375/238
f 253/376/239 257/371/239 255/373/239 251/377/239
f 258/370/240 254/378/240 252/379/240 256/372/240
o Blade_Chassis
v -0.060000 0.625000 -0.070000
v -0.060000 0.625000 0.070000
v -0.060000 1.575000 -0.070000
v -0.060000 1.575000 0.070000
v 0.060000 0.625000 -0.070000
v 0.060000 0.625000 0.070000
v 0.060000 1.575000 -0.070000
v 0.060000 1.575000 0.070000
vn -1.0000 -0.0000 -0.0000
vn -0.0000 1.0000 -0.0000
vn 1.0000 -0.0000 -0.0000
vn -0.0000 -1.0000 -0.0000
vn -0.0000 -0.0000 -1.0000
vn -0.0000 -0.0000 1.0000
vt 0.375000 0.000000
vt 0.625000 0.000000
vt 0.625000 0.250000
vt 0.375000 0.250000
vt 0.625000 0.500000
vt 0.375000 0.500000
vt 0.625000 0.750000
vt 0.375000 0.750000
vt 0.625000 1.000000
vt 0.375000 1.000000
vt 0.125000 0.500000
vt 0.125000 0.750000
vt 0.875000 0.500000
vt 0.875000 0.750000
s 0
usemtl Chain_Hazard
f 259/380/241 260/381/241 262/382/241 261/383/241
f 261/383/242 262/382/242 266/384/242 265/385/242
f 265/385/243 266/384/243 264/386/243 263/387/243
f 263/387/244 264/386/244 260/388/244 259/389/244
f 261/390/245 265/385/245 263/387/245 259/391/245
f 266/384/246 262/392/246 260/393/246 264/386/246
o Blade_Stripe_1
v -0.061000 0.780000 -0.071000
v -0.061000 0.780000 0.071000
v -0.061000 0.920000 -0.071000
v -0.061000 0.920000 0.071000
v 0.061000 0.780000 -0.071000
v 0.061000 0.780000 0.071000
v 0.061000 0.920000 -0.071000
v 0.061000 0.920000 0.071000
vn -1.0000 -0.0000 -0.0000
vn -0.0000 1.0000 -0.0000
vn 1.0000 -0.0000 -0.0000
vn -0.0000 -1.0000 -0.0000
vn -0.0000 -0.0000 -1.0000
vn -0.0000 -0.0000 1.0000
vt 0.375000 0.000000
vt 0.625000 0.000000
vt 0.625000 0.250000
vt 0.375000 0.250000
vt 0.625000 0.500000
vt 0.375000 0.500000
vt 0.625000 0.750000
vt 0.375000 0.750000
vt 0.625000 1.000000
vt 0.375000 1.000000
vt 0.125000 0.500000
vt 0.125000 0.750000
vt 0.875000 0.500000
vt 0.875000 0.750000
s 0
usemtl Chain_Casing
f 267/394/247 268/395/247 270/396/247 269/397/247
f 269/397/248 270/396/248 274/398/248 273/399/248
f 273/399/249 274/398/249 272/400/249 271/401/249
f 271/401/250 272/400/250 268/402/250 267/403/250
f 269/404/251 273/399/251 271/401/251 267/405/251
f 274/398/252 270/406/252 268/407/252 272/400/252
o Blade_Stripe_2
v -0.061000 1.080000 -0.071000
v -0.061000 1.080000 0.071000
v -0.061000 1.220000 -0.071000
v -0.061000 1.220000 0.071000
v 0.061000 1.080000 -0.071000
v 0.061000 1.080000 0.071000
v 0.061000 1.220000 -0.071000
v 0.061000 1.220000 0.071000
vn -1.0000 -0.0000 -0.0000
vn -0.0000 1.0000 -0.0000
vn 1.0000 -0.0000 -0.0000
vn -0.0000 -1.0000 -0.0000
vn -0.0000 -0.0000 -1.0000
vn -0.0000 -0.0000 1.0000
vt 0.375000 0.000000
vt 0.625000 0.000000
vt 0.625000 0.250000
vt 0.375000 0.250000
vt 0.625000 0.500000
vt 0.375000 0.500000
vt 0.625000 0.750000
vt 0.375000 0.750000
vt 0.625000 1.000000
vt 0.375000 1.000000
vt 0.125000 0.500000
vt 0.125000 0.750000
vt 0.875000 0.500000
vt 0.875000 0.750000
s 0
usemtl Chain_Casing
f 275/408/253 276/409/253 278/410/253 277/411/253
f 277/411/254 278/410/254 282/412/254 281/413/254
f 281/413/255 282/412/255 280/414/255 279/415/255
f 279/415/256 280/414/256 276/416/256 275/417/256
f 277/418/257 281/413/257 279/415/257 275/419/257
f 282/412/258 278/420/258 276/421/258 280/414/258
o Blade_Stripe_3
v -0.061000 1.380000 -0.071000
v -0.061000 1.380000 0.071000
v -0.061000 1.520000 -0.071000
v -0.061000 1.520000 0.071000
v 0.061000 1.380000 -0.071000
v 0.061000 1.380000 0.071000
v 0.061000 1.520000 -0.071000
v 0.061000 1.520000 0.071000
vn -1.0000 -0.0000 -0.0000
vn -0.0000 1.0000 -0.0000
vn 1.0000 -0.0000 -0.0000
vn -0.0000 -1.0000 -0.0000
vn -0.0000 -0.0000 -1.0000
vn -0.0000 -0.0000 1.0000
vt 0.375000 0.000000
vt 0.625000 0.000000
vt 0.625000 0.250000
vt 0.375000 0.250000
vt 0.625000 0.500000
vt 0.375000 0.500000
vt 0.625000 0.750000
vt 0.375000 0.750000
vt 0.625000 1.000000
vt 0.375000 1.000000
vt 0.125000 0.500000
vt 0.125000 0.750000
vt 0.875000 0.500000
vt 0.875000 0.750000
s 0
usemtl Chain_Casing
f 283/422/259 284/423/259 286/424/259 285/425/259
f 285/425/260 286/424/260 290/426/260 289/427/260
f 289/427/261 290/426/261 288/428/261 287/429/261
f 287/429/262 288/428/262 284/430/262 283/431/262
f 285/432/263 289/427/263 287/429/263 283/433/263
f 290/426/264 286/434/264 284/435/264 288/428/264
o Tooth_F_0
v 0.000000 0.759868 0.104511
v 0.011481 0.758903 0.102441
v 0.021213 0.756154 0.096547
v 0.027716 0.752041 0.087726
v 0.030000 0.747189 0.077321
v 0.027716 0.742337 0.066917
v 0.021213 0.738224 0.058096
v 0.011481 0.735476 0.052202
v 0.000000 0.734511 0.050132
v -0.011481 0.735476 0.052202
v -0.021213 0.738224 0.058096
v -0.027716 0.742337 0.066917
v -0.030000 0.747189 0.077321
v -0.027716 0.752041 0.087726
v -0.021213 0.756154 0.096547
v -0.011481 0.758903 0.102441
v 0.000000 0.692811 0.102679
vn 0.1752 -0.0269 0.9842
vn 0.4988 -0.0835 0.8627
vn 0.7465 -0.1882 0.6382
vn 0.8806 -0.3250 0.3448
vn 0.8806 -0.4731 0.0273
vn 0.7465 -0.6099 -0.2660
vn 0.4988 -0.7145 -0.4905
vn 0.1752 -0.7712 -0.6120
vn -0.1752 -0.7712 -0.6120
vn -0.4988 -0.7145 -0.4905
vn -0.7465 -0.6099 -0.2660
vn -0.8806 -0.4731 0.0273
vn -0.8806 -0.3250 0.3448
vn -0.7465 -0.1882 0.6382
vn -0.0000 0.9063 -0.4226
vn -0.4988 -0.0835 0.8627
vn -0.1752 -0.0269 0.9842
vt 0.250000 0.490000
vt 0.250000 0.250000
vt 0.341844 0.471731
vt 0.419706 0.419706
vt 0.471731 0.341844
vt 0.490000 0.250000
vt 0.471731 0.158156
vt 0.419706 0.080294
vt 0.341844 0.028269
vt 0.250000 0.010000
vt 0.158156 0.028269
vt 0.080294 0.080294
vt 0.028269 0.158156
vt 0.010000 0.250000
vt 0.028269 0.341844
vt 0.080294 0.419706
vt 0.750000 0.490000
vt 0.841844 0.471731
vt 0.919706 0.419706
vt 0.971731 0.341844
vt 0.990000 0.250000
vt 0.971731 0.158156
vt 0.919706 0.080294
vt 0.841844 0.028269
vt 0.750000 0.010000
vt 0.658156 0.028269
vt 0.580294 0.080294
vt 0.528269 0.158156
vt 0.510000 0.250000
vt 0.528269 0.341844
vt 0.580294 0.419706
vt 0.658156 0.471731
vt 0.158156 0.471731
s 0
usemtl Chain_Teeth
f 291/436/265 307/437/265 292/438/265
f 292/438/266 307/437/266 293/439/266
f 293/439/267 307/437/267 294/440/267
f 294/440/268 307/437/268 295/441/268
f 295/441/269 307/437/269 296/442/269
f 296/442/270 307/437/270 297/443/270
f 297/443/271 307/437/271 298/444/271
f 298/444/272 307/437/272 299/445/272
f 299/445/273 307/437/273 300/446/273
f 300/446/274 307/437/274 301/447/274
f 301/447/275 307/437/275 302/448/275
f 302/448/276 307/437/276 303/449/276
f 303/449/277 307/437/277 304/450/277
f 304/450/278 307/437/278 305/451/278
f 291/452/279 292/453/279 293/454/279 294/455/279 295/456/279 296/457/279 297/458/279 298/459/279 299/460/279 300/461/279 301/462/279 302/463/279 303/464/279 304/465/279 305/466/279 306/467/279
f 305/451/280 307/437/280 306/468/280
f 306/468/281 307/437/281 291/436/281
o Tooth_B_0
v 0.000000 0.705489 -0.129868
v 0.011481 0.704524 -0.127798
v 0.021213 0.701776 -0.121904
v 0.027716 0.697663 -0.113083
v 0.030000 0.692811 -0.102679
v 0.027716 0.687959 -0.092274
v 0.021213 0.683846 -0.083453
v 0.011481 0.681097 -0.077559
v 0.000000 0.680132 -0.075489
v -0.011481 0.681097 -0.077559
v -0.021213 0.683846 -0.083453
v -0.027716 0.687959 -0.092274
v -0.030000 0.692811 -0.102679
v -0.027716 0.697663 -0.113083
v -0.021213 0.701776 -0.121904
v -0.011481 0.704524 -0.127798
v 0.000000 0.747189 -0.077321
vn 0.1752 0.7712 -0.6120
vn 0.4988 0.7145 -0.4905
vn 0.7465 0.6099 -0.2660
vn 0.8806 0.4731 0.0273
vn 0.8806 0.3250 0.3448
vn 0.7465 0.1882 0.6382
vn 0.4988 0.0835 0.8627
vn 0.1752 0.0269 0.9842
vn -0.1752 0.0269 0.9842
vn -0.4988 0.0835 0.8627
vn -0.7465 0.1882 0.6382
vn -0.8806 0.3250 0.3448
vn -0.8806 0.4731 0.0273
vn -0.7465 0.6099 -0.2660
vn -0.0000 -0.9063 -0.4226
vn -0.4988 0.7145 -0.4905
vn -0.1752 0.7712 -0.6120
vt 0.250000 0.490000
vt 0.250000 0.250000
vt 0.341844 0.471731
vt 0.419706 0.419706
vt 0.471731 0.341844
vt 0.490000 0.250000
vt 0.471731 0.158156
vt 0.419706 0.080294
vt 0.341844 0.028269
vt 0.250000 0.010000
vt 0.158156 0.028269
vt 0.080294 0.080294
vt 0.028269 0.158156
vt 0.010000 0.250000
vt 0.028269 0.341844
vt 0.080294 0.419706
vt 0.750000 0.490000
vt 0.841844 0.471731
vt 0.919706 0.419706
vt 0.971731 0.341844
vt 0.990000 0.250000
vt 0.971731 0.158156
vt 0.919706 0.080294
vt 0.841844 0.028269
vt 0.750000 0.010000
vt 0.658156 0.028269
vt 0.580294 0.080294
vt 0.528269 0.158156
vt 0.510000 0.250000
vt 0.528269 0.341844
vt 0.580294 0.419706
vt 0.658156 0.471731
vt 0.158156 0.471731
s 0
usemtl Chain_Teeth
f 308/469/282 324/470/282 309/471/282
f 309/471/283 324/470/283 310/472/283
f 310/472/284 324/470/284 311/473/284
f 311/473/285 324/470/285 312/474/285
f 312/474/286 324/470/286 313/475/286
f 313/475/287 324/470/287 314/476/287
f 314/476/288 324/470/288 315/477/288
f 315/477/289 324/470/289 316/478/289
f 316/478/290 324/470/290 317/479/290
f 317/479/291 324/470/291 318/480/291
f 318/480/292 324/470/292 319/481/292
f 319/481/293 324/470/293 320/482/293
f 320/482/294 324/470/294 321/483/294
f 321/483/295 324/470/295 322/484/295
f 308/485/296 309/486/296 310/487/296 311/488/296 312/489/296 313/490/296 314/491/296 315/492/296 316/493/296 317/494/296 318/495/296 319/496/296 320/497/296 321/498/296 322/499/296 323/500/296
f 322/484/297 324/470/297 323/501/297
f 323/501/298 324/470/298 308/469/298
o Tooth_F_1
v 0.000000 0.829868 0.104511
v 0.011481 0.828903 0.102441
v 0.021213 0.826154 0.096547
v 0.027716 0.822041 0.087726
v 0.030000 0.817189 0.077321
v 0.027716 0.812337 0.066917
v 0.021213 0.808224 0.058096
v 0.011481 0.805476 0.052202
v 0.000000 0.804511 0.050132
v -0.011481 0.805476 0.052202
v -0.021213 0.808224 0.058096
v -0.027716 0.812337 0.066917
v -0.030000 0.817189 0.077321
v -0.027716 0.822041 0.087726
v -0.021213 0.826154 0.096547
v -0.011481 0.828903 0.102441
v 0.000000 0.762811 0.102679
vn 0.1752 -0.0269 0.9842
vn 0.4988 -0.0835 0.8627
vn 0.7465 -0.1882 0.6382
vn 0.8806 -0.3250 0.3448
vn 0.8806 -0.4731 0.0273
vn 0.7465 -0.6099 -0.2660
vn 0.4988 -0.7145 -0.4905
vn 0.1752 -0.7712 -0.6120
vn -0.1752 -0.7712 -0.6120
vn -0.4988 -0.7145 -0.4905
vn -0.7465 -0.6099 -0.2660
vn -0.8806 -0.4731 0.0273
vn -0.8806 -0.3250 0.3448
vn -0.7465 -0.1882 0.6382
vn -0.0000 0.9063 -0.4226
vn -0.4988 -0.0835 0.8627
vn -0.1752 -0.0269 0.9842
vt 0.250000 0.490000
vt 0.250000 0.250000
vt 0.341844 0.471731
vt 0.419706 0.419706
vt 0.471731 0.341844
vt 0.490000 0.250000
vt 0.471731 0.158156
vt 0.419706 0.080294
vt 0.341844 0.028269
vt 0.250000 0.010000
vt 0.158156 0.028269
vt 0.080294 0.080294
vt 0.028269 0.158156
vt 0.010000 0.250000
vt 0.028269 0.341844
vt 0.080294 0.419706
vt 0.750000 0.490000
vt 0.841844 0.471731
vt 0.919706 0.419706
vt 0.971731 0.341844
vt 0.990000 0.250000
vt 0.971731 0.158156
vt 0.919706 0.080294
vt 0.841844 0.028269
vt 0.750000 0.010000
vt 0.658156 0.028269
vt 0.580294 0.080294
vt 0.528269 0.158156
vt 0.510000 0.250000
vt 0.528269 0.341844
vt 0.580294 0.419706
vt 0.658156 0.471731
vt 0.158156 0.471731
s 0
usemtl Chain_Teeth
f 325/502/299 341/503/299 326/504/299
f 326/504/300 341/503/300 327/505/300
f 327/505/301 341/503/301 328/506/301
f 328/506/302 341/503/302 329/507/302
f 329/507/303 341/503/303 330/508/303
f 330/508/304 341/503/304 331/509/304
f 331/509/305 341/503/305 332/510/305
f 332/510/306 341/503/306 333/511/306
f 333/511/307 341/503/307 334/512/307
f 334/512/308 341/503/308 335/513/308
f 335/513/309 341/503/309 336/514/309
f 336/514/310 341/503/310 337/515/310
f 337/515/311 341/503/311 338/516/311
f 338/516/312 341/503/312 339/517/312
f 325/518/313 326/519/313 327/520/313 328/521/313 329/522/313 330/523/313 331/524/313 332/525/313 333/526/313 334/527/313 335/528/313 336/529/313 337/530/313 338/531/313 339/532/313 340/533/313
f 339/517/314 341/503/314 340/534/314
f 340/534/315 341/503/315 325/502/315
o Tooth_B_1
v 0.000000 0.775489 -0.129868
v 0.011481 0.774524 -0.127798
v 0.021213 0.771776 -0.121904
v 0.027716 0.767663 -0.113083
v 0.030000 0.762811 -0.102679
v 0.027716 0.757959 -0.092274
v 0.021213 0.753846 -0.083453
v 0.011481 0.751097 -0.077559
v 0.000000 0.750132 -0.075489
v -0.011481 0.751097 -0.077559
v -0.021213 0.753846 -0.083453
v -0.027716 0.757959 -0.092274
v -0.030000 0.762811 -0.102679
v -0.027716 0.767663 -0.113083
v -0.021213 0.771776 -0.121904
v -0.011481 0.774524 -0.127798
v 0.000000 0.817189 -0.077321
vn 0.1752 0.7712 -0.6120
vn 0.4988 0.7145 -0.4905
vn 0.7465 0.6099 -0.2660
vn 0.8806 0.4731 0.0273
vn 0.8806 0.3250 0.3448
vn 0.7465 0.1882 0.6382
vn 0.4988 0.0835 0.8627
vn 0.1752 0.0269 0.9842
vn -0.1752 0.0269 0.9842
vn -0.4988 0.0835 0.8627
vn -0.7465 0.1882 0.6382
vn -0.8806 0.3250 0.3448
vn -0.8806 0.4731 0.0273
vn -0.7465 0.6099 -0.2660
vn -0.0000 -0.9063 -0.4226
vn -0.4988 0.7145 -0.4905
vn -0.1752 0.7712 -0.6120
vt 0.250000 0.490000
vt 0.250000 0.250000
vt 0.341844 0.471731
vt 0.419706 0.419706
vt 0.471731 0.341844
vt 0.490000 0.250000
vt 0.471731 0.158156
vt 0.419706 0.080294
vt 0.341844 0.028269
vt 0.250000 0.010000
vt 0.158156 0.028269
vt 0.080294 0.080294
vt 0.028269 0.158156
vt 0.010000 0.250000
vt 0.028269 0.341844
vt 0.080294 0.419706
vt 0.750000 0.490000
vt 0.841844 0.471731
vt 0.919706 0.419706
vt 0.971731 0.341844
vt 0.990000 0.250000
vt 0.971731 0.158156
vt 0.919706 0.080294
vt 0.841844 0.028269
vt 0.750000 0.010000
vt 0.658156 0.028269
vt 0.580294 0.080294
vt 0.528269 0.158156
vt 0.510000 0.250000
vt 0.528269 0.341844
vt 0.580294 0.419706
vt 0.658156 0.471731
vt 0.158156 0.471731
s 0
usemtl Chain_Teeth
f 342/535/316 358/536/316 343/537/316
f 343/537/317 358/536/317 344/538/317
f 344/538/318 358/536/318 345/539/318
f 345/539/319 358/536/319 346/540/319
f 346/540/320 358/536/320 347/541/320
f 347/541/321 358/536/321 348/542/321
f 348/542/322 358/536/322 349/543/322
f 349/543/323 358/536/323 350/544/323
f 350/544/324 358/536/324 351/545/324
f 351/545/325 358/536/325 352/546/325
f 352/546/326 358/536/326 353/547/326
f 353/547/327 358/536/327 354/548/327
f 354/548/328 358/536/328 355/549/328
f 355/549/329 358/536/329 356/550/329
f 342/551/330 343/552/330 344/553/330 345/554/330 346/555/330 347/556/330 348/557/330 349/558/330 350/559/330 351/560/330 352/561/330 353/562/330 354/563/330 355/564/330 356/565/330 357/566/330
f 356/550/331 358/536/331 357/567/331
f 357/567/332 358/536/332 342/535/332
o Tooth_F_2
v 0.000000 0.899868 0.104511
v 0.011481 0.898903 0.102441
v 0.021213 0.896154 0.096547
v 0.027716 0.892041 0.087726
v 0.030000 0.887189 0.077321
v 0.027716 0.882337 0.066917
v 0.021213 0.878224 0.058096
v 0.011481 0.875476 0.052202
v 0.000000 0.874511 0.050132
v -0.011481 0.875476 0.052202
v -0.021213 0.878224 0.058096
v -0.027716 0.882337 0.066917
v -0.030000 0.887189 0.077321
v -0.027716 0.892041 0.087726
v -0.021213 0.896154 0.096547
v -0.011481 0.898903 0.102441
v 0.000000 0.832811 0.102679
vn 0.1752 -0.0269 0.9842
vn 0.4988 -0.0835 0.8627
vn 0.7465 -0.1882 0.6382
vn 0.8806 -0.3250 0.3448
vn 0.8806 -0.4731 0.0273
vn 0.7465 -0.6099 -0.2660
vn 0.4988 -0.7145 -0.4905
vn 0.1752 -0.7712 -0.6120
vn -0.1752 -0.7712 -0.6120
vn -0.4988 -0.7145 -0.4905
vn -0.7465 -0.6099 -0.2660
vn -0.8806 -0.4731 0.0273
vn -0.8806 -0.3250 0.3448
vn -0.7465 -0.1882 0.6382
vn -0.0000 0.9063 -0.4226
vn -0.4988 -0.0835 0.8627
vn -0.1752 -0.0269 0.9842
vt 0.250000 0.490000
vt 0.250000 0.250000
vt 0.341844 0.471731
vt 0.419706 0.419706
vt 0.471731 0.341844
vt 0.490000 0.250000
vt 0.471731 0.158156
vt 0.419706 0.080294
vt 0.341844 0.028269
vt 0.250000 0.010000
vt 0.158156 0.028269
vt 0.080294 0.080294
vt 0.028269 0.158156
vt 0.010000 0.250000
vt 0.028269 0.341844
vt 0.080294 0.419706
vt 0.750000 0.490000
vt 0.841844 0.471731
vt 0.919706 0.419706
vt 0.971731 0.341844
vt 0.990000 0.250000
vt 0.971731 0.158156
vt 0.919706 0.080294
vt 0.841844 0.028269
vt 0.750000 0.010000
vt 0.658156 0.028269
vt 0.580294 0.080294
vt 0.528269 0.158156
vt 0.510000 0.250000
vt 0.528269 0.341844
vt 0.580294 0.419706
vt 0.658156 0.471731
vt 0.158156 0.471731
s 0
usemtl Chain_Teeth
f 359/568/333 375/569/333 360/570/333
f 360/570/334 375/569/334 361/571/334
f 361/571/335 375/569/335 362/572/335
f 362/572/336 375/569/336 363/573/336
f 363/573/337 375/569/337 364/574/337
f 364/574/338 375/569/338 365/575/338
f 365/575/339 375/569/339 366/576/339
f 366/576/340 375/569/340 367/577/340
f 367/577/341 375/569/341 368/578/341
f 368/578/342 375/569/342 369/579/342
f 369/579/343 375/569/343 370/580/343
f 370/580/344 375/569/344 371/581/344
f 371/581/345 375/569/345 372/582/345
f 372/582/346 375/569/346 373/583/346
f 359/584/347 360/585/347 361/586/347 362/587/347 363/588/347 364/589/347 365/590/347 366/591/347 367/592/347 368/593/347 369/594/347 370/595/347 371/596/347 372/597/347 373/598/347 374/599/347
f 373/583/348 375/569/348 374/600/348
f 374/600/349 375/569/349 359/568/349
o Tooth_B_2
v 0.000000 0.845489 -0.129868
v 0.011481 0.844524 -0.127798
v 0.021213 0.841776 -0.121904
v 0.027716 0.837663 -0.113083
v 0.030000 0.832811 -0.102679
v 0.027716 0.827959 -0.092274
v 0.021213 0.823846 -0.083453
v 0.011481 0.821097 -0.077559
v 0.000000 0.820132 -0.075489
v -0.011481 0.821097 -0.077559
v -0.021213 0.823846 -0.083453
v -0.027716 0.827959 -0.092274
v -0.030000 0.832811 -0.102679
v -0.027716 0.837663 -0.113083
v -0.021213 0.841776 -0.121904
v -0.011481 0.844524 -0.127798
v 0.000000 0.887189 -0.077321
vn 0.1752 0.7712 -0.6120
vn 0.4988 0.7145 -0.4905
vn 0.7465 0.6099 -0.2660
vn 0.8806 0.4731 0.0273
vn 0.8806 0.3250 0.3448
vn 0.7465 0.1882 0.6382
vn 0.4988 0.0835 0.8627
vn 0.1752 0.0269 0.9842
vn -0.1752 0.0269 0.9842
vn -0.4988 0.0835 0.8627
vn -0.7465 0.1882 0.6382
vn -0.8806 0.3250 0.3448
vn -0.8806 0.4731 0.0273
vn -0.7465 0.6099 -0.2660
vn -0.0000 -0.9063 -0.4226
vn -0.4988 0.7145 -0.4905
vn -0.1752 0.7712 -0.6120
vt 0.250000 0.490000
vt 0.250000 0.250000
vt 0.341844 0.471731
vt 0.419706 0.419706
vt 0.471731 0.341844
vt 0.490000 0.250000
vt 0.471731 0.158156
vt 0.419706 0.080294
vt 0.341844 0.028269
vt 0.250000 0.010000
vt 0.158156 0.028269
vt 0.080294 0.080294
vt 0.028269 0.158156
vt 0.010000 0.250000
vt 0.028269 0.341844
vt 0.080294 0.419706
vt 0.750000 0.490000
vt 0.841844 0.471731
vt 0.919706 0.419706
vt 0.971731 0.341844
vt 0.990000 0.250000
vt 0.971731 0.158156
vt 0.919706 0.080294
vt 0.841844 0.028269
vt 0.750000 0.010000
vt 0.658156 0.028269
vt 0.580294 0.080294
vt 0.528269 0.158156
vt 0.510000 0.250000
vt 0.528269 0.341844
vt 0.580294 0.419706
vt 0.658156 0.471731
vt 0.158156 0.471731
s 0
usemtl Chain_Teeth
f 376/601/350 392/602/350 377/603/350
f 377/603/351 392/602/351 378/604/351
f 378/604/352 392/602/352 379/605/352
f 379/605/353 392/602/353 380/606/353
f 380/606/354 392/602/354 381/607/354
f 381/607/355 392/602/355 382/608/355
f 382/608/356 392/602/356 383/609/356
f 383/609/357 392/602/357 384/610/357
f 384/610/358 392/602/358 385/611/358
f 385/611/359 392/602/359 386/612/359
f 386/612/360 392/602/360 387/613/360
f 387/613/361 392/602/361 388/614/361
f 388/614/362 392/602/362 389/615/362
f 389/615/363 392/602/363 390/616/363
f 376/617/364 377/618/364 378/619/364 379/620/364 380/621/364 381/622/364 382/623/364 383/624/364 384/625/364 385/626/364 386/627/364 387/628/364 388/629/364 389/630/364 390/631/364 391/632/364
f 390/616/365 392/602/365 391/633/365
f 391/633/366 392/602/366 376/601/366
o Tooth_F_3
v 0.000000 0.969868 0.104511
v 0.011481 0.968903 0.102441
v 0.021213 0.966154 0.096547
v 0.027716 0.962041 0.087726
v 0.030000 0.957189 0.077321
v 0.027716 0.952337 0.066917
v 0.021213 0.948224 0.058096
v 0.011481 0.945476 0.052202
v 0.000000 0.944511 0.050132
v -0.011481 0.945476 0.052202
v -0.021213 0.948224 0.058096
v -0.027716 0.952337 0.066917
v -0.030000 0.957189 0.077321
v -0.027716 0.962041 0.087726
v -0.021213 0.966154 0.096547
v -0.011481 0.968903 0.102441
v 0.000000 0.902811 0.102679
vn 0.1752 -0.0269 0.9842
vn 0.4988 -0.0835 0.8627
vn 0.7465 -0.1882 0.6382
vn 0.8806 -0.3250 0.3448
vn 0.8806 -0.4731 0.0273
vn 0.7465 -0.6099 -0.2660
vn 0.4988 -0.7145 -0.4905
vn 0.1752 -0.7712 -0.6120
vn -0.1752 -0.7712 -0.6120
vn -0.4988 -0.7145 -0.4905
vn -0.7465 -0.6099 -0.2660
vn -0.8806 -0.4731 0.0273
vn -0.8806 -0.3250 0.3448
vn -0.7465 -0.1882 0.6382
vn -0.0000 0.9063 -0.4226
vn -0.4988 -0.0835 0.8627
vn -0.1752 -0.0269 0.9842
vt 0.250000 0.490000
vt 0.250000 0.250000
vt 0.341844 0.471731
vt 0.419706 0.419706
vt 0.471731 0.341844
vt 0.490000 0.250000
vt 0.471731 0.158156
vt 0.419706 0.080294
vt 0.341844 0.028269
vt 0.250000 0.010000
vt 0.158156 0.028269
vt 0.080294 0.080294
vt 0.028269 0.158156
vt 0.010000 0.250000
vt 0.028269 0.341844
vt 0.080294 0.419706
vt 0.750000 0.490000
vt 0.841844 0.471731
vt 0.919706 0.419706
vt 0.971731 0.341844
vt 0.990000 0.250000
vt 0.971731 0.158156
vt 0.919706 0.080294
vt 0.841844 0.028269
vt 0.750000 0.010000
vt 0.658156 0.028269
vt 0.580294 0.080294
vt 0.528269 0.158156
vt 0.510000 0.250000
vt 0.528269 0.341844
vt 0.580294 0.419706
vt 0.658156 0.471731
vt 0.158156 0.471731
s 0
usemtl Chain_Teeth
f 393/634/367 409/635/367 394/636/367
f 394/636/368 409/635/368 395/637/368
f 395/637/369 409/635/369 396/638/369
f 396/638/370 409/635/370 397/639/370
f 397/639/371 409/635/371 398/640/371
f 398/640/372 409/635/372 399/641/372
f 399/641/373 409/635/373 400/642/373
f 400/642/374 409/635/374 401/643/374
f 401/643/375 409/635/375 402/644/375
f 402/644/376 409/635/376 403/645/376
f 403/645/377 409/635/377 404/646/377
f 404/646/378 409/635/378 405/647/378
f 405/647/379 409/635/379 406/648/379
f 406/648/380 409/635/380 407/649/380
f 393/650/381 394/651/381 395/652/381 396/653/381 397/654/381 398/655/381 399/656/381 400/657/381 401/658/381 402/659/381 403/660/381 404/661/381 405/662/381 406/663/381 407/664/381 408/665/381
f 407/649/382 409/635/382 408/666/382
f 408/666/383 409/635/383 393/634/383
o Tooth_B_3
v 0.000000 0.915489 -0.129868
v 0.011481 0.914524 -0.127798
v 0.021213 0.911776 -0.121904
v 0.027716 0.907663 -0.113083
v 0.030000 0.902811 -0.102679
v 0.027716 0.897959 -0.092274
v 0.021213 0.893846 -0.083453
v 0.011481 0.891097 -0.077559
v 0.000000 0.890132 -0.075489
v -0.011481 0.891097 -0.077559
v -0.021213 0.893846 -0.083453
v -0.027716 0.897959 -0.092274
v -0.030000 0.902811 -0.102679
v -0.027716 0.907663 -0.113083
v -0.021213 0.911776 -0.121904
v -0.011481 0.914524 -0.127798
v 0.000000 0.957189 -0.077321
vn 0.1752 0.7712 -0.6120
vn 0.4988 0.7145 -0.4905
vn 0.7465 0.6099 -0.2660
vn 0.8806 0.4731 0.0273
vn 0.8806 0.3250 0.3448
vn 0.7465 0.1882 0.6382
vn 0.4988 0.0835 0.8627
vn 0.1752 0.0269 0.9842
vn -0.1752 0.0269 0.9842
vn -0.4988 0.0835 0.8627
vn -0.7465 0.1882 0.6382
vn -0.8806 0.3250 0.3448
vn -0.8806 0.4731 0.0273
vn -0.7465 0.6099 -0.2660
vn -0.0000 -0.9063 -0.4226
vn -0.4988 0.7145 -0.4905
vn -0.1752 0.7712 -0.6120
vt 0.250000 0.490000
vt 0.250000 0.250000
vt 0.341844 0.471731
vt 0.419706 0.419706
vt 0.471731 0.341844
vt 0.490000 0.250000
vt 0.471731 0.158156
vt 0.419706 0.080294
vt 0.341844 0.028269
vt 0.250000 0.010000
vt 0.158156 0.028269
vt 0.080294 0.080294
vt 0.028269 0.158156
vt 0.010000 0.250000
vt 0.028269 0.341844
vt 0.080294 0.419706
vt 0.750000 0.490000
vt 0.841844 0.471731
vt 0.919706 0.419706
vt 0.971731 0.341844
vt 0.990000 0.250000
vt 0.971731 0.158156
vt 0.919706 0.080294
vt 0.841844 0.028269
vt 0.750000 0.010000
vt 0.658156 0.028269
vt 0.580294 0.080294
vt 0.528269 0.158156
vt 0.510000 0.250000
vt 0.528269 0.341844
vt 0.580294 0.419706
vt 0.658156 0.471731
vt 0.158156 0.471731
s 0
usemtl Chain_Teeth
f 410/667/384 426/668/384 411/669/384
f 411/669/385 426/668/385 412/670/385
f 412/670/386 426/668/386 413/671/386
f 413/671/387 426/668/387 414/672/387
f 414/672/388 426/668/388 415/673/388
f 415/673/389 426/668/389 416/674/389
f 416/674/390 426/668/390 417/675/390
f 417/675/391 426/668/391 418/676/391
f 418/676/392 426/668/392 419/677/392
f 419/677/393 426/668/393 420/678/393
f 420/678/394 426/668/394 421/679/394
f 421/679/395 426/668/395 422/680/395
f 422/680/396 426/668/396 423/681/396
f 423/681/397 426/668/397 424/682/397
f 410/683/398 411/684/398 412/685/398 413/686/398 414/687/398 415/688/398 416/689/398 417/690/398 418/691/398 419/692/398 420/693/398 421/694/398 422/695/398 423/696/398 424/697/398 425/698/398
f 424/682/399 426/668/399 425/699/399
f 425/699/400 426/668/400 410/667/400
o Tooth_F_4
v 0.000000 1.039868 0.104511
v 0.011481 1.038903 0.102441
v 0.021213 1.036154 0.096547
v 0.027716 1.032041 0.087726
v 0.030000 1.027189 0.077321
v 0.027716 1.022337 0.066917
v 0.021213 1.018224 0.058096
v 0.011481 1.015476 0.052202
v 0.000000 1.014511 0.050132
v -0.011481 1.015476 0.052202
v -0.021213 1.018224 0.058096
v -0.027716 1.022337 0.066917
v -0.030000 1.027189 0.077321
v -0.027716 1.032041 0.087726
v -0.021213 1.036154 0.096547
v -0.011481 1.038903 0.102441
v 0.000000 0.972811 0.102679
vn 0.1752 -0.0269 0.9842
vn 0.4988 -0.0835 0.8627
vn 0.7465 -0.1882 0.6382
vn 0.8806 -0.3250 0.3448
vn 0.8806 -0.4731 0.0273
vn 0.7465 -0.6099 -0.2660
vn 0.4988 -0.7145 -0.4905
vn 0.1752 -0.7712 -0.6120
vn -0.1752 -0.7712 -0.6120
vn -0.4988 -0.7145 -0.4905
vn -0.7465 -0.6099 -0.2660
vn -0.8806 -0.4731 0.0273
vn -0.8806 -0.3250 0.3448
vn -0.7465 -0.1882 0.6382
vn -0.0000 0.9063 -0.4226
vn -0.4988 -0.0835 0.8627
vn -0.1752 -0.0269 0.9842
vt 0.250000 0.490000
vt 0.250000 0.250000
vt 0.341844 0.471731
vt 0.419706 0.419706
vt 0.471731 0.341844
vt 0.490000 0.250000
vt 0.471731 0.158156
vt 0.419706 0.080294
vt 0.341844 0.028269
vt 0.250000 0.010000
vt 0.158156 0.028269
vt 0.080294 0.080294
vt 0.028269 0.158156
vt 0.010000 0.250000
vt 0.028269 0.341844
vt 0.080294 0.419706
vt 0.750000 0.490000
vt 0.841844 0.471731
vt 0.919706 0.419706
vt 0.971731 0.341844
vt 0.990000 0.250000
vt 0.971731 0.158156
vt 0.919706 0.080294
vt 0.841844 0.028269
vt 0.750000 0.010000
vt 0.658156 0.028269
vt 0.580294 0.080294
vt 0.528269 0.158156
vt 0.510000 0.250000
vt 0.528269 0.341844
vt 0.580294 0.419706
vt 0.658156 0.471731
vt 0.158156 0.471731
s 0
usemtl Chain_Teeth
f 427/700/401 443/701/401 428/702/401
f 428/702/402 443/701/402 429/703/402
f 429/703/403 443/701/403 430/704/403
f 430/704/404 443/701/404 431/705/404
f 431/705/405 443/701/405 432/706/405
f 432/706/406 443/701/406 433/707/406
f 433/707/407 443/701/407 434/708/407
f 434/708/408 443/701/408 435/709/408
f 435/709/409 443/701/409 436/710/409
f 436/710/410 443/701/410 437/711/410
f 437/711/411 443/701/411 438/712/411
f 438/712/412 443/701/412 439/713/412
f 439/713/413 443/701/413 440/714/413
f 440/714/414 443/701/414 441/715/414
f 427/716/415 428/717/415 429/718/415 430/719/415 431/720/415 432/721/415 433/722/415 434/723/415 435/724/415 436/725/415 437/726/415 438/727/415 439/728/415 440/729/415 441/730/415 442/731/415
f 441/715/416 443/701/416 442/732/416
f 442/732/417 443/701/417 427/700/417
o Tooth_B_4
v 0.000000 0.985489 -0.129868
v 0.011481 0.984524 -0.127798
v 0.021213 0.981776 -0.121904
v 0.027716 0.977663 -0.113083
v 0.030000 0.972811 -0.102679
v 0.027716 0.967959 -0.092274
v 0.021213 0.963846 -0.083453
v 0.011481 0.961097 -0.077559
v 0.000000 0.960132 -0.075489
v -0.011481 0.961097 -0.077559
v -0.021213 0.963846 -0.083453
v -0.027716 0.967959 -0.092274
v -0.030000 0.972811 -0.102679
v -0.027716 0.977663 -0.113083
v -0.021213 0.981776 -0.121904
v -0.011481 0.984524 -0.127798
v 0.000000 1.027189 -0.077321
vn 0.1752 0.7712 -0.6120
vn 0.4988 0.7145 -0.4905
vn 0.7465 0.6099 -0.2660
vn 0.8806 0.4731 0.0273
vn 0.8806 0.3250 0.3448
vn 0.7465 0.1882 0.6382
vn 0.4988 0.0835 0.8627
vn 0.1752 0.0269 0.9842
vn -0.1752 0.0269 0.9842
vn -0.4988 0.0835 0.8627
vn -0.7465 0.1882 0.6382
vn -0.8806 0.3250 0.3448
vn -0.8806 0.4731 0.0273
vn -0.7465 0.6099 -0.2660
vn -0.0000 -0.9063 -0.4226
vn -0.4988 0.7145 -0.4905
vn -0.1752 0.7712 -0.6120
vt 0.250000 0.490000
vt 0.250000 0.250000
vt 0.341844 0.471731
vt 0.419706 0.419706
vt 0.471731 0.341844
vt 0.490000 0.250000
vt 0.471731 0.158156
vt 0.419706 0.080294
vt 0.341844 0.028269
vt 0.250000 0.010000
vt 0.158156 0.028269
vt 0.080294 0.080294
vt 0.028269 0.158156
vt 0.010000 0.250000
vt 0.028269 0.341844
vt 0.080294 0.419706
vt 0.750000 0.490000
vt 0.841844 0.471731
vt 0.919706 0.419706
vt 0.971731 0.341844
vt 0.990000 0.250000
vt 0.971731 0.158156
vt 0.919706 0.080294
vt 0.841844 0.028269
vt 0.750000 0.010000
vt 0.658156 0.028269
vt 0.580294 0.080294
vt 0.528269 0.158156
vt 0.510000 0.250000
vt 0.528269 0.341844
vt 0.580294 0.419706
vt 0.658156 0.471731
vt 0.158156 0.471731
s 0
usemtl Chain_Teeth
f 444/733/418 460/734/418 445/735/418
f 445/735/419 460/734/419 446/736/419
f 446/736/420 460/734/420 447/737/420
f 447/737/421 460/734/421 448/738/421
f 448/738/422 460/734/422 449/739/422
f 449/739/423 460/734/423 450/740/423
f 450/740/424 460/734/424 451/741/424
f 451/741/425 460/734/425 452/742/425
f 452/742/426 460/734/426 453/743/426
f 453/743/427 460/734/427 454/744/427
f 454/744/428 460/734/428 455/745/428
f 455/745/429 460/734/429 456/746/429
f 456/746/430 460/734/430 457/747/430
f 457/747/431 460/734/431 458/748/431
f 444/749/432 445/750/432 446/751/432 447/752/432 448/753/432 449/754/432 450/755/432 451/756/432 452/757/432 453/758/432 454/759/432 455/760/432 456/761/432 457/762/432 458/763/432 459/764/432
f 458/748/433 460/734/433 459/765/433
f 459/765/434 460/734/434 444/733/434
o Tooth_F_5
v 0.000000 1.109868 0.104511
v 0.011481 1.108903 0.102441
v 0.021213 1.106154 0.096547
v 0.027716 1.102041 0.087726
v 0.030000 1.097189 0.077321
v 0.027716 1.092337 0.066917
v 0.021213 1.088224 0.058096
v 0.011481 1.085476 0.052202
v 0.000000 1.084511 0.050132
v -0.011481 1.085476 0.052202
v -0.021213 1.088224 0.058096
v -0.027716 1.092337 0.066917
v -0.030000 1.097189 0.077321
v -0.027716 1.102041 0.087726
v -0.021213 1.106154 0.096547
v -0.011481 1.108903 0.102441
v 0.000000 1.042811 0.102679
vn 0.1752 -0.0269 0.9842
vn 0.4988 -0.0835 0.8627
vn 0.7465 -0.1882 0.6382
vn 0.8806 -0.3250 0.3448
vn 0.8806 -0.4731 0.0273
vn 0.7465 -0.6099 -0.2660
vn 0.4988 -0.7145 -0.4905
vn 0.1752 -0.7712 -0.6120
vn -0.1752 -0.7712 -0.6120
vn -0.4988 -0.7145 -0.4905
vn -0.7465 -0.6099 -0.2660
vn -0.8806 -0.4731 0.0273
vn -0.8806 -0.3250 0.3448
vn -0.7465 -0.1882 0.6382
vn -0.0000 0.9063 -0.4226
vn -0.4988 -0.0835 0.8627
vn -0.1752 -0.0269 0.9842
vt 0.250000 0.490000
vt 0.250000 0.250000
vt 0.341844 0.471731
vt 0.419706 0.419706
vt 0.471731 0.341844
vt 0.490000 0.250000
vt 0.471731 0.158156
vt 0.419706 0.080294
vt 0.341844 0.028269
vt 0.250000 0.010000
vt 0.158156 0.028269
vt 0.080294 0.080294
vt 0.028269 0.158156
vt 0.010000 0.250000
vt 0.028269 0.341844
vt 0.080294 0.419706
vt 0.750000 0.490000
vt 0.841844 0.471731
vt 0.919706 0.419706
vt 0.971731 0.341844
vt 0.990000 0.250000
vt 0.971731 0.158156
vt 0.919706 0.080294
vt 0.841844 0.028269
vt 0.750000 0.010000
vt 0.658156 0.028269
vt 0.580294 0.080294
vt 0.528269 0.158156
vt 0.510000 0.250000
vt 0.528269 0.341844
vt 0.580294 0.419706
vt 0.658156 0.471731
vt 0.158156 0.471731
s 0
usemtl Chain_Teeth
f 461/766/435 477/767/435 462/768/435
f 462/768/436 477/767/436 463/769/436
f 463/769/437 477/767/437 464/770/437
f 464/770/438 477/767/438 465/771/438
f 465/771/439 477/767/439 466/772/439
f 466/772/440 477/767/440 467/773/440
f 467/773/441 477/767/441 468/774/441
f 468/774/442 477/767/442 469/775/442
f 469/775/443 477/767/443 470/776/443
f 470/776/444 477/767/444 471/777/444
f 471/777/445 477/767/445 472/778/445
f 472/778/446 477/767/446 473/779/446
f 473/779/447 477/767/447 474/780/447
f 474/780/448 477/767/448 475/781/448
f 461/782/449 462/783/449 463/784/449 464/785/449 465/786/449 466/787/449 467/788/449 468/789/449 469/790/449 470/791/449 471/792/449 472/793/449 473/794/449 474/795/449 475/796/449 476/797/449
f 475/781/450 477/767/450 476/798/450
f 476/798/451 477/767/451 461/766/451
o Tooth_B_5
v 0.000000 1.055489 -0.129868
v 0.011481 1.054524 -0.127798
v 0.021213 1.051776 -0.121904
v 0.027716 1.047663 -0.113083
v 0.030000 1.042811 -0.102679
v 0.027716 1.037959 -0.092274
v 0.021213 1.033846 -0.083453
v 0.011481 1.031097 -0.077559
v 0.000000 1.030132 -0.075489
v -0.011481 1.031097 -0.077559
v -0.021213 1.033846 -0.083453
v -0.027716 1.037959 -0.092274
v -0.030000 1.042811 -0.102679
v -0.027716 1.047663 -0.113083
v -0.021213 1.051776 -0.121904
v -0.011481 1.054524 -0.127798
v 0.000000 1.097189 -0.077321
vn 0.1752 0.7712 -0.6120
vn 0.4988 0.7145 -0.4905
vn 0.7465 0.6099 -0.2660
vn 0.8806 0.4731 0.0273
vn 0.8806 0.3250 0.3448
vn 0.7465 0.1882 0.6382
vn 0.4988 0.0835 0.8627
vn 0.1752 0.0269 0.9842
vn -0.1752 0.0269 0.9842
vn -0.4988 0.0835 0.8627
vn -0.7465 0.1882 0.6382
vn -0.8806 0.3250 0.3448
vn -0.8806 0.4731 0.0273
vn -0.7465 0.6099 -0.2660
vn -0.0000 -0.9063 -0.4226
vn -0.4988 0.7145 -0.4905
vn -0.1752 0.7712 -0.6120
vt 0.250000 0.490000
vt 0.250000 0.250000
vt 0.341844 0.471731
vt 0.419706 0.419706
vt 0.471731 0.341844
vt 0.490000 0.250000
vt 0.471731 0.158156
vt 0.419706 0.080294
vt 0.341844 0.028269
vt 0.250000 0.010000
vt 0.158156 0.028269
vt 0.080294 0.080294
vt 0.028269 0.158156
vt 0.010000 0.250000
vt 0.028269 0.341844
vt 0.080294 0.419706
vt 0.750000 0.490000
vt 0.841844 0.471731
vt 0.919706 0.419706
vt 0.971731 0.341844
vt 0.990000 0.250000
vt 0.971731 0.158156
vt 0.919706 0.080294
vt 0.841844 0.028269
vt 0.750000 0.010000
vt 0.658156 0.028269
vt 0.580294 0.080294
vt 0.528269 0.158156
vt 0.510000 0.250000
vt 0.528269 0.341844
vt 0.580294 0.419706
vt 0.658156 0.471731
vt 0.158156 0.471731
s 0
usemtl Chain_Teeth
f 478/799/452 494/800/452 479/801/452
f 479/801/453 494/800/453 480/802/453
f 480/802/454 494/800/454 481/803/454
f 481/803/455 494/800/455 482/804/455
f 482/804/456 494/800/456 483/805/456
f 483/805/457 494/800/457 484/806/457
f 484/806/458 494/800/458 485/807/458
f 485/807/459 494/800/459 486/808/459
f 486/808/460 494/800/460 487/809/460
f 487/809/461 494/800/461 488/810/461
f 488/810/462 494/800/462 489/811/462
f 489/811/463 494/800/463 490/812/463
f 490/812/464 494/800/464 491/813/464
f 491/813/465 494/800/465 492/814/465
f 478/815/466 479/816/466 480/817/466 481/818/466 482/819/466 483/820/466 484/821/466 485/822/466 486/823/466 487/824/466 488/825/466 489/826/466 490/827/466 491/828/466 492/829/466 493/830/466
f 492/814/467 494/800/467 493/831/467
f 493/831/468 494/800/468 478/799/468
o Tooth_F_6
v 0.000000 1.179868 0.104511
v 0.011481 1.178903 0.102441
v 0.021213 1.176154 0.096547
v 0.027716 1.172041 0.087726
v 0.030000 1.167189 0.077321
v 0.027716 1.162337 0.066917
v 0.021213 1.158224 0.058096
v 0.011481 1.155476 0.052202
v 0.000000 1.154511 0.050132
v -0.011481 1.155476 0.052202
v -0.021213 1.158224 0.058096
v -0.027716 1.162337 0.066917
v -0.030000 1.167189 0.077321
v -0.027716 1.172041 0.087726
v -0.021213 1.176154 0.096547
v -0.011481 1.178903 0.102441
v 0.000000 1.112811 0.102679
vn 0.1752 -0.0269 0.9842
vn 0.4988 -0.0835 0.8627
vn 0.7465 -0.1882 0.6382
vn 0.8806 -0.3250 0.3448
vn 0.8806 -0.4731 0.0273
vn 0.7465 -0.6099 -0.2660
vn 0.4988 -0.7145 -0.4905
vn 0.1752 -0.7712 -0.6120
vn -0.1752 -0.7712 -0.6120
vn -0.4988 -0.7145 -0.4905
vn -0.7465 -0.6099 -0.2660
vn -0.8806 -0.4731 0.0273
vn -0.8806 -0.3250 0.3448
vn -0.7465 -0.1882 0.6382
vn -0.0000 0.9063 -0.4226
vn -0.4988 -0.0835 0.8627
vn -0.1752 -0.0269 0.9842
vt 0.250000 0.490000
vt 0.250000 0.250000
vt 0.341844 0.471731
vt 0.419706 0.419706
vt 0.471731 0.341844
vt 0.490000 0.250000
vt 0.471731 0.158156
vt 0.419706 0.080294
vt 0.341844 0.028269
vt 0.250000 0.010000
vt 0.158156 0.028269
vt 0.080294 0.080294
vt 0.028269 0.158156
vt 0.010000 0.250000
vt 0.028269 0.341844
vt 0.080294 0.419706
vt 0.750000 0.490000
vt 0.841844 0.471731
vt 0.919706 0.419706
vt 0.971731 0.341844
vt 0.990000 0.250000
vt 0.971731 0.158156
vt 0.919706 0.080294
vt 0.841844 0.028269
vt 0.750000 0.010000
vt 0.658156 0.028269
vt 0.580294 0.080294
vt 0.528269 0.158156
vt 0.510000 0.250000
vt 0.528269 0.341844
vt 0.580294 0.419706
vt 0.658156 0.471731
vt 0.158156 0.471731
s 0
usemtl Chain_Teeth
f 495/832/469 511/833/469 496/834/469
f 496/834/470 511/833/470 497/835/470
f 497/835/471 511/833/471 498/836/471
f 498/836/472 511/833/472 499/837/472
f 499/837/473 511/833/473 500/838/473
f 500/838/474 511/833/474 501/839/474
f 501/839/475 511/833/475 502/840/475
f 502/840/476 511/833/476 503/841/476
f 503/841/477 511/833/477 504/842/477
f 504/842/478 511/833/478 505/843/478
f 505/843/479 511/833/479 506/844/479
f 506/844/480 511/833/480 507/845/480
f 507/845/481 511/833/481 508/846/481
f 508/846/482 511/833/482 509/847/482
f 495/848/483 496/849/483 497/850/483 498/851/483 499/852/483 500/853/483 501/854/483 502/855/483 503/856/483 504/857/483 505/858/483 506/859/483 507/860/483 508/861/483 509/862/483 510/863/483
f 509/847/484 511/833/484 510/864/484
f 510/864/485 511/833/485 495/832/485
o Tooth_B_6
v 0.000000 1.125489 -0.129868
v 0.011481 1.124524 -0.127798
v 0.021213 1.121776 -0.121904
v 0.027716 1.117663 -0.113083
v 0.030000 1.112811 -0.102679
v 0.027716 1.107959 -0.092274
v 0.021213 1.103846 -0.083453
v 0.011481 1.101097 -0.077559
v 0.000000 1.100132 -0.075489
v -0.011481 1.101097 -0.077559
v -0.021213 1.103846 -0.083453
v -0.027716 1.107959 -0.092274
v -0.030000 1.112811 -0.102679
v -0.027716 1.117663 -0.113083
v -0.021213 1.121776 -0.121904
v -0.011481 1.124524 -0.127798
v 0.000000 1.167189 -0.077321
vn 0.1752 0.7712 -0.6120
vn 0.4988 0.7145 -0.4905
vn 0.7465 0.6099 -0.2660
vn 0.8806 0.4731 0.0273
vn 0.8806 0.3250 0.3448
vn 0.7465 0.1882 0.6382
vn 0.4988 0.0835 0.8627
vn 0.1752 0.0269 0.9842
vn -0.1752 0.0269 0.9842
vn -0.4988 0.0835 0.8627
vn -0.7465 0.1882 0.6382
vn -0.8806 0.3250 0.3448
vn -0.8806 0.4731 0.0273
vn -0.7465 0.6099 -0.2660
vn -0.0000 -0.9063 -0.4226
vn -0.4988 0.7145 -0.4905
vn -0.1752 0.7712 -0.6120
vt 0.250000 0.490000
vt 0.250000 0.250000
vt 0.341844 0.471731
vt 0.419706 0.419706
vt 0.471731 0.341844
vt 0.490000 0.250000
vt 0.471731 0.158156
vt 0.419706 0.080294
vt 0.341844 0.028269
vt 0.250000 0.010000
vt 0.158156 0.028269
vt 0.080294 0.080294
vt 0.028269 0.158156
vt 0.010000 0.250000
vt 0.028269 0.341844
vt 0.080294 0.419706
vt 0.750000 0.490000
vt 0.841844 0.471731
vt 0.919706 0.419706
vt 0.971731 0.341844
vt 0.990000 0.250000
vt 0.971731 0.158156
vt 0.919706 0.080294
vt 0.841844 0.028269
vt 0.750000 0.010000
vt 0.658156 0.028269
vt 0.580294 0.080294
vt 0.528269 0.158156
vt 0.510000 0.250000
vt 0.528269 0.341844
vt 0.580294 0.419706
vt 0.658156 0.471731
vt 0.158156 0.471731
s 0
usemtl Chain_Teeth
f 512/865/486 528/866/486 513/867/486
f 513/867/487 528/866/487 514/868/487
f 514/868/488 528/866/488 515/869/488
f 515/869/489 528/866/489 516/870/489
f 516/870/490 528/866/490 517/871/490
f 517/871/491 528/866/491 518/872/491
f 518/872/492 528/866/492 519/873/492
f 519/873/493 528/866/493 520/874/493
f 520/874/494 528/866/494 521/875/494
f 521/875/495 528/866/495 522/876/495
f 522/876/496 528/866/496 523/877/496
f 523/877/497 528/866/497 524/878/497
f 524/878/498 528/866/498 525/879/498
f 525/879/499 528/866/499 526/880/499
f 512/881/500 513/882/500 514/883/500 515/884/500 516/885/500 517/886/500 518/887/500 519/888/500 520/889/500 521/890/500 522/891/500 523/892/500 524/893/500 525/894/500 526/895/500 527/896/500
f 526/880/501 528/866/501 527/897/501
f 527/897/502 528/866/502 512/865/502
o Tooth_F_7
v 0.000000 1.249868 0.104511
v 0.011481 1.248903 0.102441
v 0.021213 1.246154 0.096547
v 0.027716 1.242041 0.087726
v 0.030000 1.237189 0.077321
v 0.027716 1.232337 0.066917
v 0.021213 1.228224 0.058096
v 0.011481 1.225476 0.052202
v 0.000000 1.224511 0.050132
v -0.011481 1.225476 0.052202
v -0.021213 1.228224 0.058096
v -0.027716 1.232337 0.066917
v -0.030000 1.237189 0.077321
v -0.027716 1.242041 0.087726
v -0.021213 1.246154 0.096547
v -0.011481 1.248903 0.102441
v 0.000000 1.182811 0.102679
vn 0.1752 -0.0269 0.9842
vn 0.4988 -0.0835 0.8627
vn 0.7465 -0.1882 0.6382
vn 0.8806 -0.3250 0.3448
vn 0.8806 -0.4731 0.0273
vn 0.7465 -0.6099 -0.2660
vn 0.4988 -0.7145 -0.4905
vn 0.1752 -0.7712 -0.6120
vn -0.1752 -0.7712 -0.6120
vn -0.4988 -0.7145 -0.4905
vn -0.7465 -0.6099 -0.2660
vn -0.8806 -0.4731 0.0273
vn -0.8806 -0.3250 0.3448
vn -0.7465 -0.1882 0.6382
vn -0.0000 0.9063 -0.4226
vn -0.4988 -0.0835 0.8627
vn -0.1752 -0.0269 0.9842
vt 0.250000 0.490000
vt 0.250000 0.250000
vt 0.341844 0.471731
vt 0.419706 0.419706
vt 0.471731 0.341844
vt 0.490000 0.250000
vt 0.471731 0.158156
vt 0.419706 0.080294
vt 0.341844 0.028269
vt 0.250000 0.010000
vt 0.158156 0.028269
vt 0.080294 0.080294
vt 0.028269 0.158156
vt 0.010000 0.250000
vt 0.028269 0.341844
vt 0.080294 0.419706
vt 0.750000 0.490000
vt 0.841844 0.471731
vt 0.919706 0.419706
vt 0.971731 0.341844
vt 0.990000 0.250000
vt 0.971731 0.158156
vt 0.919706 0.080294
vt 0.841844 0.028269
vt 0.750000 0.010000
vt 0.658156 0.028269
vt 0.580294 0.080294
vt 0.528269 0.158156
vt 0.510000 0.250000
vt 0.528269 0.341844
vt 0.580294 0.419706
vt 0.658156 0.471731
vt 0.158156 0.471731
s 0
usemtl Chain_Teeth
f 529/898/503 545/899/503 530/900/503
f 530/900/504 545/899/504 531/901/504
f 531/901/505 545/899/505 532/902/505
f 532/902/506 545/899/506 533/903/506
f 533/903/507 545/899/507 534/904/507
f 534/904/508 545/899/508 535/905/508
f 535/905/509 545/899/509 536/906/509
f 536/906/510 545/899/510 537/907/510
f 537/907/511 545/899/511 538/908/511
f 538/908/512 545/899/512 539/909/512
f 539/909/513 545/899/513 540/910/513
f 540/910/514 545/899/514 541/911/514
f 541/911/515 545/899/515 542/912/515
f 542/912/516 545/899/516 543/913/516
f 529/914/517 530/915/517 531/916/517 532/917/517 533/918/517 534/919/517 535/920/517 536/921/517 537/922/517 538/923/517 539/924/517 540/925/517 541/926/517 542/927/517 543/928/517 544/929/517
f 543/913/518 545/899/518 544/930/518
f 544/930/519 545/899/519 529/898/519
o Tooth_B_7
v 0.000000 1.195489 -0.129868
v 0.011481 1.194524 -0.127798
v 0.021213 1.191776 -0.121904
v 0.027716 1.187663 -0.113083
v 0.030000 1.182811 -0.102679
v 0.027716 1.177959 -0.092274
v 0.021213 1.173846 -0.083453
v 0.011481 1.171097 -0.077559
v 0.000000 1.170132 -0.075489
v -0.011481 1.171097 -0.077559
v -0.021213 1.173846 -0.083453
v -0.027716 1.177959 -0.092274
v -0.030000 1.182811 -0.102679
v -0.027716 1.187663 -0.113083
v -0.021213 1.191776 -0.121904
v -0.011481 1.194524 -0.127798
v 0.000000 1.237189 -0.077321
vn 0.1752 0.7712 -0.6120
vn 0.4988 0.7145 -0.4905
vn 0.7465 0.6099 -0.2660
vn 0.8806 0.4731 0.0273
vn 0.8806 0.3250 0.3448
vn 0.7465 0.1882 0.6382
vn 0.4988 0.0835 0.8627
vn 0.1752 0.0269 0.9842
vn -0.1752 0.0269 0.9842
vn -0.4988 0.0835 0.8627
vn -0.7465 0.1882 0.6382
vn -0.8806 0.3250 0.3448
vn -0.8806 0.4731 0.0273
vn -0.7465 0.6099 -0.2660
vn -0.0000 -0.9063 -0.4226
vn -0.4988 0.7145 -0.4905
vn -0.1752 0.7712 -0.6120
vt 0.250000 0.490000
vt 0.250000 0.250000
vt 0.341844 0.471731
vt 0.419706 0.419706
vt 0.471731 0.341844
vt 0.490000 0.250000
vt 0.471731 0.158156
vt 0.419706 0.080294
vt 0.341844 0.028269
vt 0.250000 0.010000
vt 0.158156 0.028269
vt 0.080294 0.080294
vt 0.028269 0.158156
vt 0.010000 0.250000
vt 0.028269 0.341844
vt 0.080294 0.419706
vt 0.750000 0.490000
vt 0.841844 0.471731
vt 0.919706 0.419706
vt 0.971731 0.341844
vt 0.990000 0.250000
vt 0.971731 0.158156
vt 0.919706 0.080294
vt 0.841844 0.028269
vt 0.750000 0.010000
vt 0.658156 0.028269
vt 0.580294 0.080294
vt 0.528269 0.158156
vt 0.510000 0.250000
vt 0.528269 0.341844
vt 0.580294 0.419706
vt 0.658156 0.471731
vt 0.158156 0.471731
s 0
usemtl Chain_Teeth
f 546/931/520 562/932/520 547/933/520
f 547/933/521 562/932/521 548/934/521
f 548/934/522 562/932/522 549/935/522
f 549/935/523 562/932/523 550/936/523
f 550/936/524 562/932/524 551/937/524
f 551/937/525 562/932/525 552/938/525
f 552/938/526 562/932/526 553/939/526
f 553/939/527 562/932/527 554/940/527
f 554/940/528 562/932/528 555/941/528
f 555/941/529 562/932/529 556/942/529
f 556/942/530 562/932/530 557/943/530
f 557/943/531 562/932/531 558/944/531
f 558/944/532 562/932/532 559/945/532
f 559/945/533 562/932/533 560/946/533
f 546/947/534 547/948/534 548/949/534 549/950/534 550/951/534 551/952/534 552/953/534 553/954/534 554/955/534 555/956/534 556/957/534 557/958/534 558/959/534 559/960/534 560/961/534 561/962/534
f 560/946/535 562/932/535 561/963/535
f 561/963/536 562/932/536 546/931/536
o Tooth_F_8
v 0.000000 1.319868 0.104511
v 0.011481 1.318903 0.102441
v 0.021213 1.316154 0.096547
v 0.027716 1.312041 0.087726
v 0.030000 1.307189 0.077321
v 0.027716 1.302337 0.066917
v 0.021213 1.298224 0.058096
v 0.011481 1.295476 0.052202
v 0.000000 1.294511 0.050132
v -0.011481 1.295476 0.052202
v -0.021213 1.298224 0.058096
v -0.027716 1.302337 0.066917
v -0.030000 1.307189 0.077321
v -0.027716 1.312041 0.087726
v -0.021213 1.316154 0.096547
v -0.011481 1.318903 0.102441
v 0.000000 1.252811 0.102679
vn 0.1752 -0.0269 0.9842
vn 0.4988 -0.0835 0.8627
vn 0.7465 -0.1882 0.6382
vn 0.8806 -0.3250 0.3448
vn 0.8806 -0.4731 0.0273
vn 0.7465 -0.6099 -0.2660
vn 0.4988 -0.7145 -0.4905
vn 0.1752 -0.7712 -0.6120
vn -0.1752 -0.7712 -0.6120
vn -0.4988 -0.7145 -0.4905
vn -0.7465 -0.6099 -0.2660
vn -0.8806 -0.4731 0.0273
vn -0.8806 -0.3250 0.3448
vn -0.7465 -0.1882 0.6382
vn -0.0000 0.9063 -0.4226
vn -0.4988 -0.0835 0.8627
vn -0.1752 -0.0269 0.9842
vt 0.250000 0.490000
vt 0.250000 0.250000
vt 0.341844 0.471731
vt 0.419706 0.419706
vt 0.471731 0.341844
vt 0.490000 0.250000
vt 0.471731 0.158156
vt 0.419706 0.080294
vt 0.341844 0.028269
vt 0.250000 0.010000
vt 0.158156 0.028269
vt 0.080294 0.080294
vt 0.028269 0.158156
vt 0.010000 0.250000
vt 0.028269 0.341844
vt 0.080294 0.419706
vt 0.750000 0.490000
vt 0.841844 0.471731
vt 0.919706 0.419706
vt 0.971731 0.341844
vt 0.990000 0.250000
vt 0.971731 0.158156
vt 0.919706 0.080294
vt 0.841844 0.028269
vt 0.750000 0.010000
vt 0.658156 0.028269
vt 0.580294 0.080294
vt 0.528269 0.158156
vt 0.510000 0.250000
vt 0.528269 0.341844
vt 0.580294 0.419706
vt 0.658156 0.471731
vt 0.158156 0.471731
s 0
usemtl Chain_Teeth
f 563/964/537 579/965/537 564/966/537
f 564/966/538 579/965/538 565/967/538
f 565/967/539 579/965/539 566/968/539
f 566/968/540 579/965/540 567/969/540
f 567/969/541 579/965/541 568/970/541
f 568/970/542 579/965/542 569/971/542
f 569/971/543 579/965/543 570/972/543
f 570/972/544 579/965/544 571/973/544
f 571/973/545 579/965/545 572/974/545
f 572/974/546 579/965/546 573/975/546
f 573/975/547 579/965/547 574/976/547
f 574/976/548 579/965/548 575/977/548
f 575/977/549 579/965/549 576/978/549
f 576/978/550 579/965/550 577/979/550
f 563/980/551 564/981/551 565/982/551 566/983/551 567/984/551 568/985/551 569/986/551 570/987/551 571/988/551 572/989/551 573/990/551 574/991/551 575/992/551 576/993/551 577/994/551 578/995/551
f 577/979/552 579/965/552 578/996/552
f 578/996/553 579/965/553 563/964/553
o Tooth_B_8
v 0.000000 1.265489 -0.129868
v 0.011481 1.264524 -0.127798
v 0.021213 1.261776 -0.121904
v 0.027716 1.257663 -0.113083
v 0.030000 1.252811 -0.102679
v 0.027716 1.247959 -0.092274
v 0.021213 1.243846 -0.083453
v 0.011481 1.241097 -0.077559
v 0.000000 1.240132 -0.075489
v -0.011481 1.241097 -0.077559
v -0.021213 1.243846 -0.083453
v -0.027716 1.247959 -0.092274
v -0.030000 1.252811 -0.102679
v -0.027716 1.257663 -0.113083
v -0.021213 1.261776 -0.121904
v -0.011481 1.264524 -0.127798
v 0.000000 1.307189 -0.077321
vn 0.1752 0.7712 -0.6120
vn 0.4988 0.7145 -0.4905
vn 0.7465 0.6099 -0.2660
vn 0.8806 0.4731 0.0273
vn 0.8806 0.3250 0.3448
vn 0.7465 0.1882 0.6382
vn 0.4988 0.0835 0.8627
vn 0.1752 0.0269 0.9842
vn -0.1752 0.0269 0.9842
vn -0.4988 0.0835 0.8627
vn -0.7465 0.1882 0.6382
vn -0.8806 0.3250 0.3448
vn -0.8806 0.4731 0.0273
vn -0.7465 0.6099 -0.2660
vn -0.0000 -0.9063 -0.4226
vn -0.4988 0.7145 -0.4905
vn -0.1752 0.7712 -0.6120
vt 0.250000 0.490000
vt 0.250000 0.250000
vt 0.341844 0.471731
vt 0.419706 0.419706
vt 0.471731 0.341844
vt 0.490000 0.250000
vt 0.471731 0.158156
vt 0.419706 0.080294
vt 0.341844 0.028269
vt 0.250000 0.010000
vt 0.158156 0.028269
vt 0.080294 0.080294
vt 0.028269 0.158156
vt 0.010000 0.250000
vt 0.028269 0.341844
vt 0.080294 0.419706
vt 0.750000 0.490000
vt 0.841844 0.471731
vt 0.919706 0.419706
vt 0.971731 0.341844
vt 0.990000 0.250000
vt 0.971731 0.158156
vt 0.919706 0.080294
vt 0.841844 0.028269
vt 0.750000 0.010000
vt 0.658156 0.028269
vt 0.580294 0.080294
vt 0.528269 0.158156
vt 0.510000 0.250000
vt 0.528269 0.341844
vt 0.580294 0.419706
vt 0.658156 0.471731
vt 0.158156 0.471731
s 0
usemtl Chain_Teeth
f 580/997/554 596/998/554 581/999/554
f 581/999/555 596/998/555 582/1000/555
f 582/1000/556 596/998/556 583/1001/556
f 583/1001/557 596/998/557 584/1002/557
f 584/1002/558 596/998/558 585/1003/558
f 585/1003/559 596/998/559 586/1004/559
f 586/1004/560 596/998/560 587/1005/560
f 587/1005/561 596/998/561 588/1006/561
f 588/1006/562 596/998/562 589/1007/562
f 589/1007/563 596/998/563 590/1008/563
f 590/1008/564 596/998/564 591/1009/564
f 591/1009/565 596/998/565 592/1010/565
f 592/1010/566 596/998/566 593/1011/566
f 593/1011/567 596/998/567 594/1012/567
f 580/1013/568 581/1014/568 582/1015/568 583/1016/568 584/1017/568 585/1018/568 586/1019/568 587/1020/568 588/1021/568 589/1022/568 590/1023/568 591/1024/568 592/1025/568 593/1026/568 594/1027/568 595/1028/568
f 594/1012/569 596/998/569 595/1029/569
f 595/1029/570 596/998/570 580/997/570
o Tooth_F_9
v 0.000000 1.389868 0.104511
v 0.011481 1.388903 0.102441
v 0.021213 1.386154 0.096547
v 0.027716 1.382041 0.087726
v 0.030000 1.377189 0.077321
v 0.027716 1.372337 0.066917
v 0.021213 1.368224 0.058096
v 0.011481 1.365476 0.052202
v 0.000000 1.364511 0.050132
v -0.011481 1.365476 0.052202
v -0.021213 1.368224 0.058096
v -0.027716 1.372337 0.066917
v -0.030000 1.377189 0.077321
v -0.027716 1.382041 0.087726
v -0.021213 1.386154 0.096547
v -0.011481 1.388903 0.102441
v 0.000000 1.322811 0.102679
vn 0.1752 -0.0269 0.9842
vn 0.4988 -0.0835 0.8627
vn 0.7465 -0.1882 0.6382
vn 0.8806 -0.3250 0.3448
vn 0.8806 -0.4731 0.0273
vn 0.7465 -0.6099 -0.2660
vn 0.4988 -0.7145 -0.4905
vn 0.1752 -0.7712 -0.6120
vn -0.1752 -0.7712 -0.6120
vn -0.4988 -0.7145 -0.4905
vn -0.7465 -0.6099 -0.2660
vn -0.8806 -0.4731 0.0273
vn -0.8806 -0.3250 0.3448
vn -0.7465 -0.1882 0.6382
vn -0.0000 0.9063 -0.4226
vn -0.4988 -0.0835 0.8627
vn -0.1752 -0.0269 0.9842
vt 0.250000 0.490000
vt 0.250000 0.250000
vt 0.341844 0.471731
vt 0.419706 0.419706
vt 0.471731 0.341844
vt 0.490000 0.250000
vt 0.471731 0.158156
vt 0.419706 0.080294
vt 0.341844 0.028269
vt 0.250000 0.010000
vt 0.158156 0.028269
vt 0.080294 0.080294
vt 0.028269 0.158156
vt 0.010000 0.250000
vt 0.028269 0.341844
vt 0.080294 0.419706
vt 0.750000 0.490000
vt 0.841844 0.471731
vt 0.919706 0.419706
vt 0.971731 0.341844
vt 0.990000 0.250000
vt 0.971731 0.158156
vt 0.919706 0.080294
vt 0.841844 0.028269
vt 0.750000 0.010000
vt 0.658156 0.028269
vt 0.580294 0.080294
vt 0.528269 0.158156
vt 0.510000 0.250000
vt 0.528269 0.341844
vt 0.580294 0.419706
vt 0.658156 0.471731
vt 0.158156 0.471731
s 0
usemtl Chain_Teeth
f 597/1030/571 613/1031/571 598/1032/571
f 598/1032/572 613/1031/572 599/1033/572
f 599/1033/573 613/1031/573 600/1034/573
f 600/1034/574 613/1031/574 601/1035/574
f 601/1035/575 613/1031/575 602/1036/575
f 602/1036/576 613/1031/576 603/1037/576
f 603/1037/577 613/1031/577 604/1038/577
f 604/1038/578 613/1031/578 605/1039/578
f 605/1039/579 613/1031/579 606/1040/579
f 606/1040/580 613/1031/580 607/1041/580
f 607/1041/581 613/1031/581 608/1042/581
f 608/1042/582 613/1031/582 609/1043/582
f 609/1043/583 613/1031/583 610/1044/583
f 610/1044/584 613/1031/584 611/1045/584
f 597/1046/585 598/1047/585 599/1048/585 600/1049/585 601/1050/585 602/1051/585 603/1052/585 604/1053/585 605/1054/585 606/1055/585 607/1056/585 608/1057/585 609/1058/585 610/1059/585 611/1060/585 612/1061/585
f 611/1045/586 613/1031/586 612/1062/586
f 612/1062/587 613/1031/587 597/1030/587
o Tooth_B_9
v 0.000000 1.335489 -0.129868
v 0.011481 1.334524 -0.127798
v 0.021213 1.331776 -0.121904
v 0.027716 1.327663 -0.113083
v 0.030000 1.322811 -0.102679
v 0.027716 1.317959 -0.092274
v 0.021213 1.313846 -0.083453
v 0.011481 1.311097 -0.077559
v 0.000000 1.310132 -0.075489
v -0.011481 1.311097 -0.077559
v -0.021213 1.313846 -0.083453
v -0.027716 1.317959 -0.092274
v -0.030000 1.322811 -0.102679
v -0.027716 1.327663 -0.113083
v -0.021213 1.331776 -0.121904
v -0.011481 1.334524 -0.127798
v 0.000000 1.377189 -0.077321
vn 0.1752 0.7712 -0.6120
vn 0.4988 0.7145 -0.4905
vn 0.7465 0.6099 -0.2660
vn 0.8806 0.4731 0.0273
vn 0.8806 0.3250 0.3448
vn 0.7465 0.1882 0.6382
vn 0.4988 0.0835 0.8627
vn 0.1752 0.0269 0.9842
vn -0.1752 0.0269 0.9842
vn -0.4988 0.0835 0.8627
vn -0.7465 0.1882 0.6382
vn -0.8806 0.3250 0.3448
vn -0.8806 0.4731 0.0273
vn -0.7465 0.6099 -0.2660
vn -0.0000 -0.9063 -0.4226
vn -0.4988 0.7145 -0.4905
vn -0.1752 0.7712 -0.6120
vt 0.250000 0.490000
vt 0.250000 0.250000
vt 0.341844 0.471731
vt 0.419706 0.419706
vt 0.471731 0.341844
vt 0.490000 0.250000
vt 0.471731 0.158156
vt 0.419706 0.080294
vt 0.341844 0.028269
vt 0.250000 0.010000
vt 0.158156 0.028269
vt 0.080294 0.080294
vt 0.028269 0.158156
vt 0.010000 0.250000
vt 0.028269 0.341844
vt 0.080294 0.419706
vt 0.750000 0.490000
vt 0.841844 0.471731
vt 0.919706 0.419706
vt 0.971731 0.341844
vt 0.990000 0.250000
vt 0.971731 0.158156
vt 0.919706 0.080294
vt 0.841844 0.028269
vt 0.750000 0.010000
vt 0.658156 0.028269
vt 0.580294 0.080294
vt 0.528269 0.158156
vt 0.510000 0.250000
vt 0.528269 0.341844
vt 0.580294 0.419706
vt 0.658156 0.471731
vt 0.158156 0.471731
s 0
usemtl Chain_Teeth
f 614/1063/588 630/1064/588 615/1065/588
f 615/1065/589 630/1064/589 616/1066/589
f 616/1066/590 630/1064/590 617/1067/590
f 617/1067/591 630/1064/591 618/1068/591
f 618/1068/592 630/1064/592 619/1069/592
f 619/1069/593 630/1064/593 620/1070/593
f 620/1070/594 630/1064/594 621/1071/594
f 621/1071/595 630/1064/595 622/1072/595
f 622/1072/596 630/1064/596 623/1073/596
f 623/1073/597 630/1064/597 624/1074/597
f 624/1074/598 630/1064/598 625/1075/598
f 625/1075/599 630/1064/599 626/1076/599
f 626/1076/600 630/1064/600 627/1077/600
f 627/1077/601 630/1064/601 628/1078/601
f 614/1079/602 615/1080/602 616/1081/602 617/1082/602 618/1083/602 619/1084/602 620/1085/602 621/1086/602 622/1087/602 623/1088/602 624/1089/602 625/1090/602 626/1091/602 627/1092/602 628/1093/602 629/1094/602
f 628/1078/603 630/1064/603 629/1095/603
f 629/1095/604 630/1064/604 614/1063/604
o Tooth_F_10
v 0.000000 1.459868 0.104511
v 0.011481 1.458903 0.102441
v 0.021213 1.456154 0.096547
v 0.027716 1.452041 0.087726
v 0.030000 1.447189 0.077321
v 0.027716 1.442337 0.066917
v 0.021213 1.438224 0.058096
v 0.011481 1.435476 0.052202
v 0.000000 1.434511 0.050132
v -0.011481 1.435476 0.052202
v -0.021213 1.438224 0.058096
v -0.027716 1.442337 0.066917
v -0.030000 1.447189 0.077321
v -0.027716 1.452041 0.087726
v -0.021213 1.456154 0.096547
v -0.011481 1.458903 0.102441
v 0.000000 1.392811 0.102679
vn 0.1752 -0.0269 0.9842
vn 0.4988 -0.0835 0.8627
vn 0.7465 -0.1882 0.6382
vn 0.8806 -0.3250 0.3448
vn 0.8806 -0.4731 0.0273
vn 0.7465 -0.6099 -0.2660
vn 0.4988 -0.7145 -0.4905
vn 0.1752 -0.7712 -0.6120
vn -0.1752 -0.7712 -0.6120
vn -0.4988 -0.7145 -0.4905
vn -0.7465 -0.6099 -0.2660
vn -0.8806 -0.4731 0.0273
vn -0.8806 -0.3250 0.3448
vn -0.7465 -0.1882 0.6382
vn -0.0000 0.9063 -0.4226
vn -0.4988 -0.0835 0.8627
vn -0.1752 -0.0269 0.9842
vt 0.250000 0.490000
vt 0.250000 0.250000
vt 0.341844 0.471731
vt 0.419706 0.419706
vt 0.471731 0.341844
vt 0.490000 0.250000
vt 0.471731 0.158156
vt 0.419706 0.080294
vt 0.341844 0.028269
vt 0.250000 0.010000
vt 0.158156 0.028269
vt 0.080294 0.080294
vt 0.028269 0.158156
vt 0.010000 0.250000
vt 0.028269 0.341844
vt 0.080294 0.419706
vt 0.750000 0.490000
vt 0.841844 0.471731
vt 0.919706 0.419706
vt 0.971731 0.341844
vt 0.990000 0.250000
vt 0.971731 0.158156
vt 0.919706 0.080294
vt 0.841844 0.028269
vt 0.750000 0.010000
vt 0.658156 0.028269
vt 0.580294 0.080294
vt 0.528269 0.158156
vt 0.510000 0.250000
vt 0.528269 0.341844
vt 0.580294 0.419706
vt 0.658156 0.471731
vt 0.158156 0.471731
s 0
usemtl Chain_Teeth
f 631/1096/605 647/1097/605 632/1098/605
f 632/1098/606 647/1097/606 633/1099/606
f 633/1099/607 647/1097/607 634/1100/607
f 634/1100/608 647/1097/608 635/1101/608
f 635/1101/609 647/1097/609 636/1102/609
f 636/1102/610 647/1097/610 637/1103/610
f 637/1103/611 647/1097/611 638/1104/611
f 638/1104/612 647/1097/612 639/1105/612
f 639/1105/613 647/1097/613 640/1106/613
f 640/1106/614 647/1097/614 641/1107/614
f 641/1107/615 647/1097/615 642/1108/615
f 642/1108/616 647/1097/616 643/1109/616
f 643/1109/617 647/1097/617 644/1110/617
f 644/1110/618 647/1097/618 645/1111/618
f 631/1112/619 632/1113/619 633/1114/619 634/1115/619 635/1116/619 636/1117/619 637/1118/619 638/1119/619 639/1120/619 640/1121/619 641/1122/619 642/1123/619 643/1124/619 644/1125/619 645/1126/619 646/1127/619
f 645/1111/620 647/1097/620 646/1128/620
f 646/1128/621 647/1097/621 631/1096/621
o Tooth_B_10
v 0.000000 1.405489 -0.129868
v 0.011481 1.404524 -0.127798
v 0.021213 1.401776 -0.121904
v 0.027716 1.397663 -0.113083
v 0.030000 1.392811 -0.102679
v 0.027716 1.387959 -0.092274
v 0.021213 1.383846 -0.083453
v 0.011481 1.381097 -0.077559
v 0.000000 1.380132 -0.075489
v -0.011481 1.381097 -0.077559
v -0.021213 1.383846 -0.083453
v -0.027716 1.387959 -0.092274
v -0.030000 1.392811 -0.102679
v -0.027716 1.397663 -0.113083
v -0.021213 1.401776 -0.121904
v -0.011481 1.404524 -0.127798
v 0.000000 1.447189 -0.077321
vn 0.1752 0.7712 -0.6120
vn 0.4988 0.7145 -0.4905
vn 0.7465 0.6099 -0.2660
vn 0.8806 0.4731 0.0273
vn 0.8806 0.3250 0.3448
vn 0.7465 0.1882 0.6382
vn 0.4988 0.0835 0.8627
vn 0.1752 0.0269 0.9842
vn -0.1752 0.0269 0.9842
vn -0.4988 0.0835 0.8627
vn -0.7465 0.1882 0.6382
vn -0.8806 0.3250 0.3448
vn -0.8806 0.4731 0.0273
vn -0.7465 0.6099 -0.2660
vn -0.0000 -0.9063 -0.4226
vn -0.4988 0.7145 -0.4905
vn -0.1752 0.7712 -0.6120
vt 0.250000 0.490000
vt 0.250000 0.250000
vt 0.341844 0.471731
vt 0.419706 0.419706
vt 0.471731 0.341844
vt 0.490000 0.250000
vt 0.471731 0.158156
vt 0.419706 0.080294
vt 0.341844 0.028269
vt 0.250000 0.010000
vt 0.158156 0.028269
vt 0.080294 0.080294
vt 0.028269 0.158156
vt 0.010000 0.250000
vt 0.028269 0.341844
vt 0.080294 0.419706
vt 0.750000 0.490000
vt 0.841844 0.471731
vt 0.919706 0.419706
vt 0.971731 0.341844
vt 0.990000 0.250000
vt 0.971731 0.158156
vt 0.919706 0.080294
vt 0.841844 0.028269
vt 0.750000 0.010000
vt 0.658156 0.028269
vt 0.580294 0.080294
vt 0.528269 0.158156
vt 0.510000 0.250000
vt 0.528269 0.341844
vt 0.580294 0.419706
vt 0.658156 0.471731
vt 0.158156 0.471731
s 0
usemtl Chain_Teeth
f 648/1129/622 664/1130/622 649/1131/622
f 649/1131/623 664/1130/623 650/1132/623
f 650/1132/624 664/1130/624 651/1133/624
f 651/1133/625 664/1130/625 652/1134/625
f 652/1134/626 664/1130/626 653/1135/626
f 653/1135/627 664/1130/627 654/1136/627
f 654/1136/628 664/1130/628 655/1137/628
f 655/1137/629 664/1130/629 656/1138/629
f 656/1138/630 664/1130/630 657/1139/630
f 657/1139/631 664/1130/631 658/1140/631
f 658/1140/632 664/1130/632 659/1141/632
f 659/1141/633 664/1130/633 660/1142/633
f 660/1142/634 664/1130/634 661/1143/634
f 661/1143/635 664/1130/635 662/1144/635
f 648/1145/636 649/1146/636 650/1147/636 651/1148/636 652/1149/636 653/1150/636 654/1151/636 655/1152/636 656/1153/636 657/1154/636 658/1155/636 659/1156/636 660/1157/636 661/1158/636 662/1159/636 663/1160/636
f 662/1144/637 664/1130/637 663/1161/637
f 663/1161/638 664/1130/638 648/1129/638
o Tooth_F_11
v 0.000000 1.529868 0.104511
v 0.011481 1.528903 0.102441
v 0.021213 1.526154 0.096547
v 0.027716 1.522041 0.087726
v 0.030000 1.517189 0.077321
v 0.027716 1.512337 0.066917
v 0.021213 1.508224 0.058096
v 0.011481 1.505476 0.052202
v 0.000000 1.504511 0.050132
v -0.011481 1.505476 0.052202
v -0.021213 1.508224 0.058096
v -0.027716 1.512337 0.066917
v -0.030000 1.517189 0.077321
v -0.027716 1.522041 0.087726
v -0.021213 1.526154 0.096547
v -0.011481 1.528903 0.102441
v 0.000000 1.462811 0.102679
vn 0.1752 -0.0269 0.9842
vn 0.4988 -0.0835 0.8627
vn 0.7465 -0.1882 0.6382
vn 0.8806 -0.3250 0.3448
vn 0.8806 -0.4731 0.0273
vn 0.7465 -0.6099 -0.2660
vn 0.4988 -0.7145 -0.4905
vn 0.1752 -0.7712 -0.6120
vn -0.1752 -0.7712 -0.6120
vn -0.4988 -0.7145 -0.4905
vn -0.7465 -0.6099 -0.2660
vn -0.8806 -0.4731 0.0273
vn -0.8806 -0.3250 0.3448
vn -0.7465 -0.1882 0.6382
vn -0.0000 0.9063 -0.4226
vn -0.4988 -0.0835 0.8627
vn -0.1752 -0.0269 0.9842
vt 0.250000 0.490000
vt 0.250000 0.250000
vt 0.341844 0.471731
vt 0.419706 0.419706
vt 0.471731 0.341844
vt 0.490000 0.250000
vt 0.471731 0.158156
vt 0.419706 0.080294
vt 0.341844 0.028269
vt 0.250000 0.010000
vt 0.158156 0.028269
vt 0.080294 0.080294
vt 0.028269 0.158156
vt 0.010000 0.250000
vt 0.028269 0.341844
vt 0.080294 0.419706
vt 0.750000 0.490000
vt 0.841844 0.471731
vt 0.919706 0.419706
vt 0.971731 0.341844
vt 0.990000 0.250000
vt 0.971731 0.158156
vt 0.919706 0.080294
vt 0.841844 0.028269
vt 0.750000 0.010000
vt 0.658156 0.028269
vt 0.580294 0.080294
vt 0.528269 0.158156
vt 0.510000 0.250000
vt 0.528269 0.341844
vt 0.580294 0.419706
vt 0.658156 0.471731
vt 0.158156 0.471731
s 0
usemtl Chain_Teeth
f 665/1162/639 681/1163/639 666/1164/639
f 666/1164/640 681/1163/640 667/1165/640
f 667/1165/641 681/1163/641 668/1166/641
f 668/1166/642 681/1163/642 669/1167/642
f 669/1167/643 681/1163/643 670/1168/643
f 670/1168/644 681/1163/644 671/1169/644
f 671/1169/645 681/1163/645 672/1170/645
f 672/1170/646 681/1163/646 673/1171/646
f 673/1171/647 681/1163/647 674/1172/647
f 674/1172/648 681/1163/648 675/1173/648
f 675/1173/649 681/1163/649 676/1174/649
f 676/1174/650 681/1163/650 677/1175/650
f 677/1175/651 681/1163/651 678/1176/651
f 678/1176/652 681/1163/652 679/1177/652
f 665/1178/653 666/1179/653 667/1180/653 668/1181/653 669/1182/653 670/1183/653 671/1184/653 672/1185/653 673/1186/653 674/1187/653 675/1188/653 676/1189/653 677/1190/653 678/1191/653 679/1192/653 680/1193/653
f 679/1177/654 681/1163/654 680/1194/654
f 680/1194/655 681/1163/655 665/1162/655
o Tooth_B_11
v 0.000000 1.475489 -0.129868
v 0.011481 1.474524 -0.127798
v 0.021213 1.471776 -0.121904
v 0.027716 1.467663 -0.113083
v 0.030000 1.462811 -0.102679
v 0.027716 1.457959 -0.092274
v 0.021213 1.453846 -0.083453
v 0.011481 1.451097 -0.077559
v 0.000000 1.450132 -0.075489
v -0.011481 1.451097 -0.077559
v -0.021213 1.453846 -0.083453
v -0.027716 1.457959 -0.092274
v -0.030000 1.462811 -0.102679
v -0.027716 1.467663 -0.113083
v -0.021213 1.471776 -0.121904
v -0.011481 1.474524 -0.127798
v 0.000000 1.517189 -0.077321
vn 0.1752 0.7712 -0.6120
vn 0.4988 0.7145 -0.4905
vn 0.7465 0.6099 -0.2660
vn 0.8806 0.4731 0.0273
vn 0.8806 0.3250 0.3448
vn 0.7465 0.1882 0.6382
vn 0.4988 0.0835 0.8627
vn 0.1752 0.0269 0.9842
vn -0.1752 0.0269 0.9842
vn -0.4988 0.0835 0.8627
vn -0.7465 0.1882 0.6382
vn -0.8806 0.3250 0.3448
vn -0.8806 0.4731 0.0273
vn -0.7465 0.6099 -0.2660
vn -0.0000 -0.9063 -0.4226
vn -0.4988 0.7145 -0.4905
vn -0.1752 0.7712 -0.6120
vt 0.250000 0.490000
vt 0.250000 0.250000
vt 0.341844 0.471731
vt 0.419706 0.419706
vt 0.471731 0.341844
vt 0.490000 0.250000
vt 0.471731 0.158156
vt 0.419706 0.080294
vt 0.341844 0.028269
vt 0.250000 0.010000
vt 0.158156 0.028269
vt 0.080294 0.080294
vt 0.028269 0.158156
vt 0.010000 0.250000
vt 0.028269 0.341844
vt 0.080294 0.419706
vt 0.750000 0.490000
vt 0.841844 0.471731
vt 0.919706 0.419706
vt 0.971731 0.341844
vt 0.990000 0.250000
vt 0.971731 0.158156
vt 0.919706 0.080294
vt 0.841844 0.028269
vt 0.750000 0.010000
vt 0.658156 0.028269
vt 0.580294 0.080294
vt 0.528269 0.158156
vt 0.510000 0.250000
vt 0.528269 0.341844
vt 0.580294 0.419706
vt 0.658156 0.471731
vt 0.158156 0.471731
s 0
usemtl Chain_Teeth
f 682/1195/656 698/1196/656 683/1197/656
f 683/1197/657 698/1196/657 684/1198/657
f 684/1198/658 698/1196/658 685/1199/658
f 685/1199/659 698/1196/659 686/1200/659
f 686/1200/660 698/1196/660 687/1201/660
f 687/1201/661 698/1196/661 688/1202/661
f 688/1202/662 698/1196/662 689/1203/662
f 689/1203/663 698/1196/663 690/1204/663
f 690/1204/664 698/1196/664 691/1205/664
f 691/1205/665 698/1196/665 692/1206/665
f 692/1206/666 698/1196/666 693/1207/666
f 693/1207/667 698/1196/667 694/1208/667
f 694/1208/668 698/1196/668 695/1209/668
f 695/1209/669 698/1196/669 696/1210/669
f 682/1211/670 683/1212/670 684/1213/670 685/1214/670 686/1215/670 687/1216/670 688/1217/670 689/1218/670 690/1219/670 691/1220/670 692/1221/670 693/1222/670 694/1223/670 695/1224/670 696/1225/670 697/1226/670
f 696/1210/671 698/1196/671 697/1227/671
f 697/1227/672 698/1196/672 682/1195/672
