# Blender 5.2.1 LTS
# www.blender.org
mtllib cursed_knight.mtl
o Helm
v -0.180000 0.600000 -0.180000
v -0.180000 0.600000 0.180000
v -0.180000 0.960000 -0.180000
v -0.180000 0.960000 0.180000
v 0.180000 0.600000 -0.180000
v 0.180000 0.600000 0.180000
v 0.180000 0.960000 -0.180000
v 0.180000 0.960000 0.180000
vn -1.0000 -0.0000 -0.0000
vn -0.0000 1.0000 -0.0000
vn 1.0000 -0.0000 -0.0000
vn -0.0000 -1.0000 -0.0000
vn -0.0000 -0.0000 -1.0000
vn -0.0000 -0.0000 1.0000
vt 0.375000 0.000000
vt 0.625000 0.000000
vt 0.625000 0.250000
vt 0.375000 0.250000
vt 0.625000 0.500000
vt 0.375000 0.500000
vt 0.625000 0.750000
vt 0.375000 0.750000
vt 0.625000 1.000000
vt 0.375000 1.000000
vt 0.125000 0.500000
vt 0.125000 0.750000
vt 0.875000 0.500000
vt 0.875000 0.750000
s 0
usemtl CursedK_Plate
f 1/1/1 2/2/1 4/3/1 3/4/1
f 3/4/2 4/3/2 8/5/2 7/6/2
f 7/6/3 8/5/3 6/7/3 5/8/3
f 5/8/4 6/7/4 2/9/4 1/10/4
f 3/11/5 7/6/5 5/8/5 1/12/5
f 8/5/6 4/13/6 2/14/6 6/7/6
o Helm_Crest
v 0.000000 1.110000 -0.150000
v 0.026788 1.104671 -0.150000
v 0.049497 1.089497 -0.150000
v 0.064672 1.066788 -0.150000
v 0.070000 1.040000 -0.150000
v 0.064672 1.013212 -0.150000
v 0.049497 0.990502 -0.150000
v 0.026788 0.975328 -0.150000
v 0.000000 0.970000 -0.150000
v -0.026788 0.975328 -0.150000
v -0.049497 0.990502 -0.150000
v -0.064672 1.013212 -0.150000
v -0.070000 1.040000 -0.150000
v -0.064672 1.066788 -0.150000
v -0.049497 1.089497 -0.150000
v -0.026788 1.104671 -0.150000
v 0.000000 1.040000 0.150000
vn 0.1902 0.9561 0.2231
vn 0.5416 0.8105 0.2231
vn 0.8105 0.5416 0.2231
vn 0.9561 0.1902 0.2231
vn 0.9561 -0.1902 0.2231
vn 0.8105 -0.5416 0.2231
vn 0.5416 -0.8105 0.2231
vn 0.1902 -0.9561 0.2231
vn -0.1902 -0.9561 0.2231
vn -0.5416 -0.8105 0.2231
vn -0.8105 -0.5416 0.2231
vn -0.9561 -0.1902 0.2231
vn -0.9561 0.1902 0.2231
vn -0.8105 0.5416 0.2231
vn -0.0000 -0.0000 -1.0000
vn -0.5416 0.8105 0.2231
vn -0.1902 0.9561 0.2231
vt 0.250000 0.490000
vt 0.250000 0.250000
vt 0.341844 0.471731
vt 0.419706 0.419706
vt 0.471731 0.341844
vt 0.490000 0.250000
vt 0.471731 0.158156
vt 0.419706 0.080294
vt 0.341844 0.028269
vt 0.250000 0.010000
vt 0.158156 0.028269
vt 0.080294 0.080294
vt 0.028269 0.158156
vt 0.010000 0.250000
vt 0.028269 0.341844
vt 0.080294 0.419706
vt 0.750000 0.490000
vt 0.841844 0.471731
vt 0.919706 0.419706
vt 0.971731 0.341844
vt 0.990000 0.250000
vt 0.971731 0.158156
vt 0.919706 0.080294
vt 0.841844 0.028269
vt 0.750000 0.010000
vt 0.658156 0.028269
vt 0.580294 0.080294
vt 0.528269 0.158156
vt 0.510000 0.250000
vt 0.528269 0.341844
vt 0.580294 0.419706
vt 0.658156 0.471731
vt 0.158156 0.471731
s 0
usemtl CursedK_TarnishedGold
f 9/15/7 25/16/7 10/17/7
f 10/17/8 25/16/8 11/18/8
f 11/18/9 25/16/9 12/19/9
f 12/19/10 25/16/10 13/20/10
f 13/20/11 25/16/11 14/21/11
f 14/21/12 25/16/12 15/22/12
f 15/22/13 25/16/13 16/23/13
f 16/23/14 25/16/14 17/24/14
f 17/24/15 25/16/15 18/25/15
f 18/25/16 25/16/16 19/26/16
f 19/26/17 25/16/17 20/27/17
f 20/27/18 25/16/18 21/28/18
f 21/28/19 25/16/19 22/29/19
f 22/29/20 25/16/20 23/30/20
f 9/31/21 10/32/21 11/33/21 12/34/21 13/35/21 14/36/21 15/37/21 16/38/21 17/39/21 18/40/21 19/41/21 20/42/21 21/43/21 22/44/21 23/45/21 24/46/21
f 23/30/22 25/16/22 24/47/22
f 24/47/23 25/16/23 9/15/23
o Visor_Slit
v -0.140000 0.777500 0.160000
v -0.140000 0.777500 0.220000
v -0.140000 0.822500 0.160000
v -0.140000 0.822500 0.220000
v 0.140000 0.777500 0.160000
v 0.140000 0.777500 0.220000
v 0.140000 0.822500 0.160000
v 0.140000 0.822500 0.220000
vn -1.0000 -0.0000 -0.0000
vn -0.0000 1.0000 -0.0000
vn 1.0000 -0.0000 -0.0000
vn -0.0000 -1.0000 -0.0000
vn -0.0000 -0.0000 -1.0000
vn -0.0000 -0.0000 1.0000
vt 0.375000 0.000000
vt 0.625000 0.000000
vt 0.625000 0.250000
vt 0.375000 0.250000
vt 0.625000 0.500000
vt 0.375000 0.500000
vt 0.625000 0.750000
vt 0.375000 0.750000
vt 0.625000 1.000000
vt 0.375000 1.000000
vt 0.125000 0.500000
vt 0.125000 0.750000
vt 0.875000 0.500000
vt 0.875000 0.750000
s 0
usemtl CursedK_Glow
f 26/48/24 27/49/24 29/50/24 28/51/24
f 28/51/25 29/50/25 33/52/25 32/53/25
f 32/53/26 33/52/26 31/54/26 30/55/26
f 30/55/27 31/54/27 27/56/27 26/57/27
f 28/58/28 32/53/28 30/55/28 26/59/28
f 33/52/29 29/60/29 27/61/29 31/54/29
o Cuirass
v -0.260000 0.070000 -0.190000
v -0.260000 0.070000 0.190000
v -0.260000 0.650000 -0.190000
v -0.260000 0.650000 0.190000
v 0.260000 0.070000 -0.190000
v 0.260000 0.070000 0.190000
v 0.260000 0.650000 -0.190000
v 0.260000 0.650000 0.190000
vn -1.0000 -0.0000 -0.0000
vn -0.0000 1.0000 -0.0000
vn 1.0000 -0.0000 -0.0000
vn -0.0000 -1.0000 -0.0000
vn -0.0000 -0.0000 -1.0000
vn -0.0000 -0.0000 1.0000
vt 0.375000 0.000000
vt 0.625000 0.000000
vt 0.625000 0.250000
vt 0.375000 0.250000
vt 0.625000 0.500000
vt 0.375000 0.500000
vt 0.625000 0.750000
vt 0.375000 0.750000
vt 0.625000 1.000000
vt 0.375000 1.000000
vt 0.125000 0.500000
vt 0.125000 0.750000
vt 0.875000 0.500000
vt 0.875000 0.750000
s 0
usemtl CursedK_Plate
f 34/62/30 35/63/30 37/64/30 36/65/30
f 36/65/31 37/64/31 41/66/31 40/67/31
f 40/67/32 41/66/32 39/68/32 38/69/32
f 38/69/33 39/68/33 35/70/33 34/71/33
f 36/72/34 40/67/34 38/69/34 34/73/34
f 41/66/35 37/74/35 35/75/35 39/68/35
o Gold_Trim
v -0.210000 0.430000 -0.200000
v -0.210000 0.430000 0.200000
v -0.210000 0.490000 -0.200000
v -0.210000 0.490000 0.200000
v 0.210000 0.430000 -0.200000
v 0.210000 0.430000 0.200000
v 0.210000 0.490000 -0.200000
v 0.210000 0.490000 0.200000
vn -1.0000 -0.0000 -0.0000
vn -0.0000 1.0000 -0.0000
vn 1.0000 -0.0000 -0.0000
vn -0.0000 -1.0000 -0.0000
vn -0.0000 -0.0000 -1.0000
vn -0.0000 -0.0000 1.0000
vt 0.375000 0.000000
vt 0.625000 0.000000
vt 0.625000 0.250000
vt 0.375000 0.250000
vt 0.625000 0.500000
vt 0.375000 0.500000
vt 0.625000 0.750000
vt 0.375000 0.750000
vt 0.625000 1.000000
vt 0.375000 1.000000
vt 0.125000 0.500000
vt 0.125000 0.750000
vt 0.875000 0.500000
vt 0.875000 0.750000
s 0
usemtl CursedK_TarnishedGold
f 42/76/36 43/77/36 45/78/36 44/79/36
f 44/79/37 45/78/37 49/80/37 48/81/37
f 48/81/38 49/80/38 47/82/38 46/83/38
f 46/83/39 47/82/39 43/84/39 42/85/39
f 44/86/40 48/81/40 46/83/40 42/87/40
f 49/80/41 45/88/41 43/89/41 47/82/41
o Shoulder_L
v -0.480000 0.420000 -0.130000
v -0.480000 0.420000 0.130000
v -0.480000 0.620000 -0.130000
v -0.480000 0.620000 0.130000
v -0.240000 0.420000 -0.130000
v -0.240000 0.420000 0.130000
v -0.240000 0.620000 -0.130000
v -0.240000 0.620000 0.130000
vn -1.0000 -0.0000 -0.0000
vn -0.0000 1.0000 -0.0000
vn 1.0000 -0.0000 -0.0000
vn -0.0000 -1.0000 -0.0000
vn -0.0000 -0.0000 -1.0000
vn -0.0000 -0.0000 1.0000
vt 0.375000 0.000000
vt 0.625000 0.000000
vt 0.625000 0.250000
vt 0.375000 0.250000
vt 0.625000 0.500000
vt 0.375000 0.500000
vt 0.625000 0.750000
vt 0.375000 0.750000
vt 0.625000 1.000000
vt 0.375000 1.000000
vt 0.125000 0.500000
vt 0.125000 0.750000
vt 0.875000 0.500000
vt 0.875000 0.750000
s 0
usemtl CursedK_Plate
f 50/90/42 51/91/42 53/92/42 52/93/42
f 52/93/43 53/92/43 57/94/43 56/95/43
f 56/95/44 57/94/44 55/96/44 54/97/44
f 54/97/45 55/96/45 51/98/45 50/99/45
f 52/100/46 56/95/46 54/97/46 50/101/46
f 57/94/47 53/102/47 51/103/47 55/96/47
o Shoulder_Spike_L
v -0.420000 0.720000 -0.100000
v -0.397039 0.715433 -0.100000
v -0.377574 0.702426 -0.100000
v -0.364567 0.682961 -0.100000
v -0.360000 0.660000 -0.100000
v -0.364567 0.637039 -0.100000
v -0.377574 0.617574 -0.100000
v -0.397039 0.604567 -0.100000
v -0.420000 0.600000 -0.100000
v -0.442961 0.604567 -0.100000
v -0.462426 0.617574 -0.100000
v -0.475433 0.637039 -0.100000
v -0.480000 0.660000 -0.100000
v -0.475433 0.682961 -0.100000
v -0.462426 0.702426 -0.100000
v -0.442961 0.715433 -0.100000
v -0.420000 0.660000 0.100000
vn 0.1872 0.9409 0.2823
vn 0.5330 0.7977 0.2823
vn 0.7977 0.5330 0.2823
vn 0.9409 0.1872 0.2823
vn 0.9409 -0.1872 0.2823
vn 0.7977 -0.5330 0.2823
vn 0.5330 -0.7977 0.2823
vn 0.1872 -0.9409 0.2823
vn -0.1872 -0.9409 0.2823
vn -0.5330 -0.7977 0.2823
vn -0.7977 -0.5330 0.2823
vn -0.9409 -0.1872 0.2823
vn -0.9409 0.1872 0.2823
vn -0.7977 0.5330 0.2823
vn -0.0000 -0.0000 -1.0000
vn -0.5330 0.7977 0.2823
vn -0.1872 0.9409 0.2823
vt 0.250000 0.490000
vt 0.250000 0.250000
vt 0.341844 0.471731
vt 0.419706 0.419706
vt 0.471731 0.341844
vt 0.490000 0.250000
vt 0.471731 0.158156
vt 0.419706 0.080294
vt 0.341844 0.028269
vt 0.250000 0.010000
vt 0.158156 0.028269
vt 0.080294 0.080294
vt 0.028269 0.158156
vt 0.010000 0.250000
vt 0.028269 0.341844
vt 0.080294 0.419706
vt 0.750000 0.490000
vt 0.841844 0.471731
vt 0.919706 0.419706
vt 0.971731 0.341844
vt 0.990000 0.250000
vt 0.971731 0.158156
vt 0.919706 0.080294
vt 0.841844 0.028269
vt 0.750000 0.010000
vt 0.658156 0.028269
vt 0.580294 0.080294
vt 0.528269 0.158156
vt 0.510000 0.250000
vt 0.528269 0.341844
vt 0.580294 0.419706
vt 0.658156 0.471731
vt 0.158156 0.471731
s 0
usemtl CursedK_TarnishedGold
f 58/104/48 74/105/48 59/106/48
f 59/106/49 74/105/49 60/107/49
f 60/107/50 74/105/50 61/108/50
f 61/108/51 74/105/51 62/109/51
f 62/109/52 74/105/52 63/110/52
f 63/110/53 74/105/53 64/111/53
f 64/111/54 74/105/54 65/112/54
f 65/112/55 74/105/55 66/113/55
f 66/113/56 74/105/56 67/114/56
f 67/114/57 74/105/57 68/115/57
f 68/115/58 74/105/58 69/116/58
f 69/116/59 74/105/59 70/117/59
f 70/117/60 74/105/60 71/118/60
f 71/118/61 74/105/61 72/119/61
f 58/120/62 59/121/62 60/122/62 61/123/62 62/124/62 63/125/62 64/126/62 65/127/62 66/128/62 67/129/62 68/130/62 69/131/62 70/132/62 71/133/62 72/134/62 73/135/62
f 72/119/63 74/105/63 73/136/63
f 73/136/64 74/105/64 58/104/64
o Shoulder_R
v 0.240000 0.420000 -0.130000
v 0.240000 0.420000 0.130000
v 0.240000 0.620000 -0.130000
v 0.240000 0.620000 0.130000
v 0.480000 0.420000 -0.130000
v 0.480000 0.420000 0.130000
v 0.480000 0.620000 -0.130000
v 0.480000 0.620000 0.130000
vn -1.0000 -0.0000 -0.0000
vn -0.0000 1.0000 -0.0000
vn 1.0000 -0.0000 -0.0000
vn -0.0000 -1.0000 -0.0000
vn -0.0000 -0.0000 -1.0000
vn -0.0000 -0.0000 1.0000
vt 0.375000 0.000000
vt 0.625000 0.000000
vt 0.625000 0.250000
vt 0.375000 0.250000
vt 0.625000 0.500000
vt 0.375000 0.500000
vt 0.625000 0.750000
vt 0.375000 0.750000
vt 0.625000 1.000000
vt 0.375000 1.000000
vt 0.125000 0.500000
vt 0.125000 0.750000
vt 0.875000 0.500000
vt 0.875000 0.750000
s 0
usemtl CursedK_Plate
f 75/137/65 76/138/65 78/139/65 77/140/65
f 77/140/66 78/139/66 82/141/66 81/142/66
f 81/142/67 82/141/67 80/143/67 79/144/67
f 79/144/68 80/143/68 76/145/68 75/146/68
f 77/147/69 81/142/69 79/144/69 75/148/69
f 82/141/70 78/149/70 76/150/70 80/143/70
o Shoulder_Spike_R
v 0.420000 0.720000 -0.100000
v 0.442961 0.715433 -0.100000
v 0.462426 0.702426 -0.100000
v 0.475433 0.682961 -0.100000
v 0.480000 0.660000 -0.100000
v 0.475433 0.637039 -0.100000
v 0.462426 0.617574 -0.100000
v 0.442961 0.604567 -0.100000
v 0.420000 0.600000 -0.100000
v 0.397039 0.604567 -0.100000
v 0.377574 0.617574 -0.100000
v 0.364567 0.637039 -0.100000
v 0.360000 0.660000 -0.100000
v 0.364567 0.682961 -0.100000
v 0.377574 0.702426 -0.100000
v 0.397039 0.715433 -0.100000
v 0.420000 0.660000 0.100000
vn 0.1872 0.9409 0.2823
vn 0.5330 0.7977 0.2823
vn 0.7977 0.5330 0.2823
vn 0.9409 0.1872 0.2823
vn 0.9409 -0.1872 0.2823
vn 0.7977 -0.5330 0.2823
vn 0.5330 -0.7977 0.2823
vn 0.1872 -0.9409 0.2823
vn -0.1872 -0.9409 0.2823
vn -0.5330 -0.7977 0.2823
vn -0.7977 -0.5330 0.2823
vn -0.9409 -0.1872 0.2823
vn -0.9409 0.1872 0.2823
vn -0.7977 0.5330 0.2823
vn -0.0000 -0.0000 -1.0000
vn -0.5330 0.7977 0.2823
vn -0.1872 0.9409 0.2823
vt 0.250000 0.490000
vt 0.250000 0.250000
vt 0.341844 0.471731
vt 0.419706 0.419706
vt 0.471731 0.341844
vt 0.490000 0.250000
vt 0.471731 0.158156
vt 0.419706 0.080294
vt 0.341844 0.028269
vt 0.250000 0.010000
vt 0.158156 0.028269
vt 0.080294 0.080294
vt 0.028269 0.158156
vt 0.010000 0.250000
vt 0.028269 0.341844
vt 0.080294 0.419706
vt 0.750000 0.490000
vt 0.841844 0.471731
vt 0.919706 0.419706
vt 0.971731 0.341844
vt 0.990000 0.250000
vt 0.971731 0.158156
vt 0.919706 0.080294
vt 0.841844 0.028269
vt 0.750000 0.010000
vt 0.658156 0.028269
vt 0.580294 0.080294
vt 0.528269 0.158156
vt 0.510000 0.250000
vt 0.528269 0.341844
vt 0.580294 0.419706
vt 0.658156 0.471731
vt 0.158156 0.471731
s 0
usemtl CursedK_TarnishedGold
f 83/151/71 99/152/71 84/153/71
f 84/153/72 99/152/72 85/154/72
f 85/154/73 99/152/73 86/155/73
f 86/155/74 99/152/74 87/156/74
f 87/156/75 99/152/75 88/157/75
f 88/157/76 99/152/76 89/158/76
f 89/158/77 99/152/77 90/159/77
f 90/159/78 99/152/78 91/160/78
f 91/160/79 99/152/79 92/161/79
f 92/161/80 99/152/80 93/162/80
f 93/162/81 99/152/81 94/163/81
f 94/163/82 99/152/82 95/164/82
f 95/164/83 99/152/83 96/165/83
f 96/165/84 99/152/84 97/166/84
f 83/167/85 84/168/85 85/169/85 86/170/85 87/171/85 88/172/85 89/173/85 90/174/85 91/175/85 92/176/85 93/177/85 94/178/85 95/179/85 96/180/85 97/181/85 98/182/85
f 97/166/86 99/152/86 98/183/86
f 98/183/87 99/152/87 83/151/87
o Tower_Shield
v -0.437710 -0.220000 -0.071015
v -0.618883 -0.220000 0.605133
v -0.437710 0.980000 -0.071015
v -0.618883 0.980000 0.605133
v -0.341117 -0.220000 -0.045133
v -0.522290 -0.220000 0.631015
v -0.341117 0.980000 -0.045133
v -0.522290 0.980000 0.631015
vn -0.9659 -0.0000 -0.2588
vn -0.0000 1.0000 -0.0000
vn 0.9659 -0.0000 0.2588
vn -0.0000 -1.0000 -0.0000
vn 0.2588 -0.0000 -0.9659
vn -0.2588 -0.0000 0.9659
vt 0.375000 0.000000
vt 0.625000 0.000000
vt 0.625000 0.250000
vt 0.375000 0.250000
vt 0.625000 0.500000
vt 0.375000 0.500000
vt 0.625000 0.750000
vt 0.375000 0.750000
vt 0.625000 1.000000
vt 0.375000 1.000000
vt 0.125000 0.500000
vt 0.125000 0.750000
vt 0.875000 0.500000
vt 0.875000 0.750000
s 0
usemtl CursedK_Plate
f 100/184/88 101/185/88 103/186/88 102/187/88
f 102/187/89 103/186/89 107/188/89 106/189/89
f 106/189/90 107/188/90 105/190/90 104/191/90
f 104/191/91 105/190/91 101/192/91 100/193/91
f 102/194/92 106/189/92 104/191/92 100/195/92
f 107/188/93 103/196/93 101/197/93 105/190/93
o Shield_Border
v -0.453839 -0.195000 -0.049455
v -0.622072 -0.195000 0.578397
v -0.453839 0.955000 -0.049455
v -0.622072 0.955000 0.578397
v -0.337928 -0.195000 -0.018397
v -0.506161 -0.195000 0.609455
v -0.337928 0.955000 -0.018397
v -0.506161 0.955000 0.609455
vn -0.9659 -0.0000 -0.2588
vn -0.0000 1.0000 -0.0000
vn 0.9659 -0.0000 0.2588
vn -0.0000 -1.0000 -0.0000
vn 0.2588 -0.0000 -0.9659
vn -0.2588 -0.0000 0.9659
vt 0.375000 0.000000
vt 0.625000 0.000000
vt 0.625000 0.250000
vt 0.375000 0.250000
vt 0.625000 0.500000
vt 0.375000 0.500000
vt 0.625000 0.750000
vt 0.375000 0.750000
vt 0.625000 1.000000
vt 0.375000 1.000000
vt 0.125000 0.500000
vt 0.125000 0.750000
vt 0.875000 0.500000
vt 0.875000 0.750000
s 0
usemtl CursedK_TarnishedGold
f 108/198/94 109/199/94 111/200/94 110/201/94
f 110/201/95 111/200/95 115/202/95 114/203/95
f 114/203/96 115/202/96 113/204/96 112/205/96
f 112/205/97 113/204/97 109/206/97 108/207/97
f 110/208/98 114/203/98 112/205/98 108/209/98
f 115/202/99 111/210/99 109/211/99 113/204/99
o Shield_Boss_Spike
v -0.570000 0.360000 0.190000
v -0.570000 0.360000 0.370000
v -0.570000 0.540000 0.190000
v -0.570000 0.540000 0.370000
v -0.430000 0.360000 0.190000
v -0.430000 0.360000 0.370000
v -0.430000 0.540000 0.190000
v -0.430000 0.540000 0.370000
vn -1.0000 -0.0000 -0.0000
vn -0.0000 1.0000 -0.0000
vn 1.0000 -0.0000 -0.0000
vn -0.0000 -1.0000 -0.0000
vn -0.0000 -0.0000 -1.0000
vn -0.0000 -0.0000 1.0000
vt 0.375000 0.000000
vt 0.625000 0.000000
vt 0.625000 0.250000
vt 0.375000 0.250000
vt 0.625000 0.500000
vt 0.375000 0.500000
vt 0.625000 0.750000
vt 0.375000 0.750000
vt 0.625000 1.000000
vt 0.375000 1.000000
vt 0.125000 0.500000
vt 0.125000 0.750000
vt 0.875000 0.500000
vt 0.875000 0.750000
s 0
usemtl CursedK_Glow
f 116/212/100 117/213/100 119/214/100 118/215/100
f 118/215/101 119/214/101 123/216/101 122/217/101
f 122/217/102 123/216/102 121/218/102 120/219/102
f 120/219/103 121/218/103 117/220/103 116/221/103
f 118/222/104 122/217/104 120/219/104 116/223/104
f 123/216/105 119/224/105 117/225/105 121/218/105
o Sword_Blade
v 0.415000 -0.025000 0.150000
v 0.415000 -0.025000 0.290000
v 0.415000 0.925000 0.150000
v 0.415000 0.925000 0.290000
v 0.465000 -0.025000 0.150000
v 0.465000 -0.025000 0.290000
v 0.465000 0.925000 0.150000
v 0.465000 0.925000 0.290000
vn -1.0000 -0.0000 -0.0000
vn -0.0000 1.0000 -0.0000
vn 1.0000 -0.0000 -0.0000
vn -0.0000 -1.0000 -0.0000
vn -0.0000 -0.0000 -1.0000
vn -0.0000 -0.0000 1.0000
vt 0.375000 0.000000
vt 0.625000 0.000000
vt 0.625000 0.250000
vt 0.375000 0.250000
vt 0.625000 0.500000
vt 0.375000 0.500000
vt 0.625000 0.750000
vt 0.375000 0.750000
vt 0.625000 1.000000
vt 0.375000 1.000000
vt 0.125000 0.500000
vt 0.125000 0.750000
vt 0.875000 0.500000
vt 0.875000 0.750000
s 0
usemtl CursedK_Plate
f 124/226/106 125/227/106 127/228/106 126/229/106
f 126/229/107 127/228/107 131/230/107 130/231/107
f 130/231/108 131/230/108 129/232/108 128/233/108
f 128/233/109 129/232/109 125/234/109 124/235/109
f 126/236/110 130/231/110 128/233/110 124/237/110
f 131/230/111 127/238/111 125/239/111 129/232/111
o Sword_Guard
v 0.400000 -0.010000 0.090000
v 0.400000 -0.010000 0.350000
v 0.400000 0.050000 0.090000
v 0.400000 0.050000 0.350000
v 0.480000 -0.010000 0.090000
v 0.480000 -0.010000 0.350000
v 0.480000 0.050000 0.090000
v 0.480000 0.050000 0.350000
vn -1.0000 -0.0000 -0.0000
vn -0.0000 1.0000 -0.0000
vn 1.0000 -0.0000 -0.0000
vn -0.0000 -1.0000 -0.0000
vn -0.0000 -0.0000 -1.0000
vn -0.0000 -0.0000 1.0000
vt 0.375000 0.000000
vt 0.625000 0.000000
vt 0.625000 0.250000
vt 0.375000 0.250000
vt 0.625000 0.500000
vt 0.375000 0.500000
vt 0.625000 0.750000
vt 0.375000 0.750000
vt 0.625000 1.000000
vt 0.375000 1.000000
vt 0.125000 0.500000
vt 0.125000 0.750000
vt 0.875000 0.500000
vt 0.875000 0.750000
s 0
usemtl CursedK_TarnishedGold
f 132/240/112 133/241/112 135/242/112 134/243/112
f 134/243/113 135/242/113 139/244/113 138/245/113
f 138/245/114 139/244/114 137/246/114 136/247/114
f 136/247/115 137/246/115 133/248/115 132/249/115
f 134/250/116 138/245/116 136/247/116 132/251/116
f 139/244/117 135/252/117 133/253/117 137/246/117
