# Blender 5.2.1 LTS
# www.blender.org
mtllib demon_lord.mtl
o Head
v 0.000000 1.680000 0.380000
v 0.000000 1.754134 0.372698
v 0.000000 1.948701 0.268701
v 0.000000 2.031074 0.145420
v 0.000000 2.052698 0.074134
v 0.000000 2.052698 -0.074134
v 0.000000 2.031074 -0.145420
v 0.000000 1.995958 -0.211117
v 0.000000 1.891117 -0.315958
v 0.000000 1.825420 -0.351074
v 0.000000 1.754134 -0.372698
v 0.000000 1.680000 -0.380000
v 0.028370 1.748491 0.372698
v 0.055650 1.814350 0.351074
v 0.080791 1.875046 0.315958
v 0.102827 1.928247 0.268701
v 0.120912 1.971907 0.211117
v 0.134350 2.004350 0.145420
v 0.142626 2.024328 0.074134
v 0.145420 2.031074 0.000000
v 0.142626 2.024328 -0.074134
v 0.134350 2.004350 -0.145420
v 0.120912 1.971907 -0.211117
v 0.102827 1.928247 -0.268701
v 0.080791 1.875046 -0.315958
v 0.055650 1.814350 -0.351074
v 0.028370 1.748491 -0.372698
v 0.052421 1.732421 0.372698
v 0.102827 1.782827 0.351074
v 0.149282 1.829282 0.315958
v 0.190000 1.870000 0.268701
v 0.223416 1.903416 0.211117
v 0.248247 1.928247 0.145420
v 0.263538 1.943537 0.074134
v 0.268701 1.948700 0.000000
v 0.263538 1.943537 -0.074134
v 0.248247 1.928247 -0.145420
v 0.223416 1.903416 -0.211117
v 0.190000 1.870000 -0.268701
v 0.149282 1.829282 -0.315958
v 0.102827 1.782827 -0.351074
v 0.052421 1.732421 -0.372698
v 0.068491 1.708370 0.372698
v 0.134350 1.735650 0.351074
v 0.195046 1.760791 0.315958
v 0.248247 1.782827 0.268701
v 0.291908 1.800912 0.211117
v 0.324350 1.814350 0.145420
v 0.344328 1.822625 0.074134
v 0.351074 1.825420 0.000000
v 0.344328 1.822625 -0.074134
v 0.324350 1.814350 -0.145420
v 0.291908 1.800912 -0.211117
v 0.248247 1.782827 -0.268701
v 0.195046 1.760791 -0.315958
v 0.134350 1.735650 -0.351074
v 0.068491 1.708370 -0.372698
v 0.074134 1.680000 0.372698
v 0.145420 1.680000 0.351074
v 0.211117 1.680000 0.315958
v 0.268701 1.680000 0.268701
v 0.315958 1.680000 0.211117
v 0.351074 1.680000 0.145420
v 0.372698 1.680000 0.074134
v 0.380000 1.680000 0.000000
v 0.372698 1.680000 -0.074134
v 0.351074 1.680000 -0.145420
v 0.315958 1.680000 -0.211117
v 0.268701 1.680000 -0.268701
v 0.211117 1.680000 -0.315958
v 0.145420 1.680000 -0.351074
v 0.074134 1.680000 -0.372698
v 0.068491 1.651630 0.372698
v 0.134350 1.624350 0.351074
v 0.195046 1.599209 0.315958
v 0.248247 1.577173 0.268701
v 0.291907 1.559088 0.211117
v 0.324350 1.545650 0.145420
v 0.344328 1.537374 0.074134
v 0.351074 1.534580 0.000000
v 0.344328 1.537374 -0.074134
v 0.324350 1.545650 -0.145420
v 0.291907 1.559088 -0.211117
v 0.248247 1.577173 -0.268701
v 0.195046 1.599209 -0.315958
v 0.134350 1.624350 -0.351074
v 0.068491 1.651630 -0.372698
v 0.052421 1.627579 0.372698
v 0.102827 1.577173 0.351074
v 0.149282 1.530718 0.315958
v 0.190000 1.490000 0.268701
v 0.223416 1.456584 0.211117
v 0.248247 1.431753 0.145420
v 0.263537 1.416462 0.074134
v 0.268700 1.411299 0.000000
v 0.263537 1.416462 -0.074134
v 0.248247 1.431753 -0.145420
v 0.223416 1.456584 -0.211117
v 0.190000 1.490000 -0.268701
v 0.149282 1.530718 -0.315958
v 0.102827 1.577173 -0.351074
v 0.052421 1.627579 -0.372698
v 0.028370 1.611509 0.372698
v 0.055650 1.545650 0.351074
v 0.080791 1.484954 0.315958
v 0.102827 1.431753 0.268701
v 0.120912 1.388092 0.211117
v 0.134350 1.355650 0.145420
v 0.142625 1.335672 0.074134
v 0.145420 1.328926 0.000000
v 0.142625 1.335672 -0.074134
v 0.134350 1.355650 -0.145420
v 0.120912 1.388092 -0.211117
v 0.102827 1.431753 -0.268701
v 0.080791 1.484954 -0.315958
v 0.055650 1.545650 -0.351074
v 0.028370 1.611509 -0.372698
v -0.000000 1.605866 0.372698
v -0.000000 1.534580 0.351074
v -0.000000 1.468883 0.315958
v -0.000000 1.411299 0.268701
v -0.000000 1.364042 0.211117
v -0.000000 1.328926 0.145420
v -0.000000 1.307302 0.074134
v -0.000000 1.300000 0.000000
v -0.000000 1.307302 -0.074134
v -0.000000 1.328926 -0.145420
v -0.000000 1.364042 -0.211117
v -0.000000 1.411299 -0.268701
v -0.000000 1.468883 -0.315958
v -0.000000 1.534580 -0.351074
v -0.000000 1.605866 -0.372698
v -0.028370 1.611509 0.372698
v -0.055650 1.545650 0.351074
v -0.080791 1.484954 0.315958
v -0.102827 1.431753 0.268701
v -0.120912 1.388093 0.211117
v -0.134350 1.355650 0.145420
v -0.142626 1.335672 0.074134
v -0.145420 1.328926 0.000000
v -0.142626 1.335672 -0.074134
v -0.134350 1.355650 -0.145420
v -0.120912 1.388093 -0.211117
v -0.102827 1.431753 -0.268701
v -0.080791 1.484954 -0.315958
v -0.055650 1.545650 -0.351074
v -0.028370 1.611509 -0.372698
v -0.052421 1.627579 0.372698
v -0.102827 1.577173 0.351074
v -0.149282 1.530718 0.315958
v -0.190000 1.490000 0.268701
v -0.223416 1.456584 0.211117
v -0.248247 1.431753 0.145420
v -0.263538 1.416463 0.074134
v -0.268701 1.411299 0.000000
v -0.263538 1.416463 -0.074134
v -0.248247 1.431753 -0.145420
v -0.223416 1.456584 -0.211117
v -0.190000 1.490000 -0.268701
v -0.149282 1.530718 -0.315958
v -0.102827 1.577173 -0.351074
v -0.052421 1.627579 -0.372698
v -0.068491 1.651630 0.372698
v -0.134350 1.624350 0.351074
v -0.195046 1.599209 0.315958
v -0.248247 1.577173 0.268701
v -0.291908 1.559088 0.211117
v -0.324350 1.545650 0.145420
v -0.344328 1.537375 0.074134
v -0.351074 1.534580 0.000000
v -0.344328 1.537375 -0.074134
v -0.324350 1.545650 -0.145420
v -0.291908 1.559088 -0.211117
v -0.248247 1.577173 -0.268701
v -0.195046 1.599209 -0.315958
v -0.134350 1.624350 -0.351074
v -0.068491 1.651630 -0.372698
v -0.074134 1.680000 0.372698
v -0.145420 1.680000 0.351074
v -0.211117 1.680000 0.315958
v -0.268700 1.680000 0.268701
v -0.315958 1.680000 0.211117
v -0.351074 1.680000 0.145420
v -0.372698 1.680000 0.074134
v -0.380000 1.680000 0.000000
v -0.372698 1.680000 -0.074134
v -0.351074 1.680000 -0.145420
v -0.315958 1.680000 -0.211117
v -0.268700 1.680000 -0.268701
v -0.211117 1.680000 -0.315958
v -0.145420 1.680000 -0.351074
v -0.074134 1.680000 -0.372698
v -0.068491 1.708370 0.372698
v -0.134350 1.735650 0.351074
v -0.195046 1.760791 0.315958
v -0.248247 1.782827 0.268701
v -0.291907 1.800912 0.211117
v -0.324350 1.814350 0.145420
v -0.344328 1.822626 0.074134
v -0.351074 1.825420 0.000000
v -0.344328 1.822626 -0.074134
v -0.324350 1.814350 -0.145420
v -0.291907 1.800912 -0.211117
v -0.248247 1.782827 -0.268701
v -0.195046 1.760791 -0.315958
v -0.134350 1.735650 -0.351074
v -0.068491 1.708370 -0.372698
v -0.052421 1.732421 0.372698
v -0.102827 1.782827 0.351074
v -0.149282 1.829282 0.315958
v -0.190000 1.870000 0.268701
v -0.223416 1.903416 0.211117
v -0.248247 1.928247 0.145420
v -0.263537 1.943537 0.074134
v -0.268700 1.948701 0.000000
v -0.263537 1.943537 -0.074134
v -0.248247 1.928247 -0.145420
v -0.223416 1.903416 -0.211117
v -0.190000 1.870000 -0.268701
v -0.149282 1.829282 -0.315958
v -0.102827 1.782827 -0.351074
v -0.052421 1.732421 -0.372698
v -0.028370 1.748491 0.372698
v -0.055650 1.814350 0.351074
v -0.080791 1.875046 0.315958
v -0.102827 1.928247 0.268701
v -0.120912 1.971907 0.211117
v -0.134350 2.004350 0.145420
v -0.142625 2.024328 0.074134
v -0.145419 2.031074 0.000000
v -0.142625 2.024328 -0.074134
v -0.134350 2.004350 -0.145420
v -0.120912 1.971907 -0.211117
v -0.102827 1.928247 -0.268701
v -0.080791 1.875046 -0.315958
v -0.055650 1.814350 -0.351074
v -0.028370 1.748491 -0.372698
v 0.000000 1.825420 0.351074
v 0.000000 1.891117 0.315958
v 0.000000 1.995958 0.211117
v 0.000000 2.060000 0.000000
v 0.000000 1.948700 -0.268701
vn 0.1870 0.9401 0.2852
vn 0.0576 0.2898 -0.9553
vn 0.1942 0.9762 0.0962
vn 0.0195 0.0980 0.9950
vn 0.0195 0.0980 -0.9950
vn 0.1942 0.9762 -0.0962
vn 0.0576 0.2898 0.9553
vn 0.1870 0.9401 -0.2852
vn 0.0934 0.4693 0.8781
vn 0.1728 0.8687 -0.4643
vn 0.1252 0.6294 0.7669
vn 0.1520 0.7640 -0.6270
vn 0.1520 0.7640 0.6270
vn 0.1252 0.6294 -0.7669
vn 0.1728 0.8687 0.4643
vn 0.0934 0.4693 -0.8781
vn 0.4921 0.7364 0.4643
vn 0.2659 0.3979 -0.8781
vn 0.5325 0.7969 0.2852
vn 0.1642 0.2457 -0.9553
vn 0.5530 0.8276 0.0962
vn 0.0555 0.0831 0.9950
vn 0.0555 0.0831 -0.9950
vn 0.5530 0.8276 -0.0962
vn 0.1642 0.2457 0.9553
vn 0.5325 0.7969 -0.2852
vn 0.2659 0.3979 0.8781
vn 0.4921 0.7364 -0.4643
vn 0.3565 0.5336 0.7669
vn 0.4328 0.6477 -0.6270
vn 0.4328 0.6477 0.6270
vn 0.3565 0.5336 -0.7669
vn 0.7969 0.5325 -0.2852
vn 0.3979 0.2659 0.8781
vn 0.7364 0.4921 -0.4643
vn 0.5336 0.3565 0.7669
vn 0.6477 0.4328 -0.6270
vn 0.6477 0.4328 0.6270
vn 0.5336 0.3565 -0.7669
vn 0.7364 0.4921 0.4643
vn 0.3979 0.2659 -0.8781
vn 0.7969 0.5325 0.2852
vn 0.2457 0.1642 -0.9553
vn 0.8276 0.5530 0.0962
vn 0.0831 0.0555 0.9950
vn 0.0831 0.0555 -0.9950
vn 0.8276 0.5530 -0.0962
vn 0.2457 0.1642 0.9553
vn 0.4693 0.0934 -0.8781
vn 0.9401 0.1870 0.2852
vn 0.2898 0.0576 -0.9553
vn 0.9762 0.1942 0.0962
vn 0.0980 0.0195 0.9950
vn 0.0980 0.0195 -0.9950
vn 0.9762 0.1942 -0.0962
vn 0.2898 0.0576 0.9553
vn 0.9401 0.1870 -0.2852
vn 0.4693 0.0934 0.8781
vn 0.8687 0.1728 -0.4643
vn 0.6294 0.1252 0.7669
vn 0.7640 0.1520 -0.6270
vn 0.7640 0.1520 0.6270
vn 0.6294 0.1252 -0.7669
vn 0.8687 0.1728 0.4643
vn 0.4693 -0.0934 0.8781
vn 0.8687 -0.1728 -0.4643
vn 0.6294 -0.1252 0.7669
vn 0.7640 -0.1520 -0.6270
vn 0.7640 -0.1520 0.6270
vn 0.6294 -0.1252 -0.7669
vn 0.8687 -0.1728 0.4643
vn 0.4693 -0.0934 -0.8781
vn 0.9401 -0.1870 0.2852
vn 0.2898 -0.0576 -0.9553
vn 0.9762 -0.1942 0.0962
vn 0.0980 -0.0195 0.9950
vn 0.0980 -0.0195 -0.9950
vn 0.9762 -0.1942 -0.0962
vn 0.2898 -0.0576 0.9553
vn 0.9401 -0.1870 -0.2852
vn 0.7969 -0.5325 0.2852
vn 0.2457 -0.1642 -0.9553
vn 0.8276 -0.5530 0.0962
vn 0.0831 -0.0555 0.9950
vn 0.0831 -0.0555 -0.9950
vn 0.8276 -0.5530 -0.0962
vn 0.2457 -0.1642 0.9553
vn 0.7969 -0.5325 -0.2852
vn 0.3979 -0.2659 0.8781
vn 0.7364 -0.4921 -0.4643
vn 0.5336 -0.3565 0.7669
vn 0.6477 -0.4328 -0.6270
vn 0.6477 -0.4328 0.6270
vn 0.5336 -0.3565 -0.7669
vn 0.7364 -0.4921 0.4643
vn 0.3979 -0.2659 -0.8781
vn 0.4921 -0.7364 -0.4643
vn 0.3565 -0.5336 0.7669
vn 0.4328 -0.6477 -0.6270
vn 0.4328 -0.6477 0.6270
vn 0.3565 -0.5336 -0.7669
vn 0.4921 -0.7364 0.4643
vn 0.2659 -0.3979 -0.8781
vn 0.5325 -0.7969 0.2852
vn 0.1642 -0.2457 -0.9553
vn 0.5530 -0.8276 0.0962
vn 0.0555 -0.0831 0.9950
vn 0.0555 -0.0831 -0.9950
vn 0.5530 -0.8276 -0.0962
vn 0.1642 -0.2457 0.9553
vn 0.5325 -0.7969 -0.2852
vn 0.2659 -0.3979 0.8781
vn 0.0576 -0.2898 -0.9553
vn 0.1942 -0.9762 0.0962
vn 0.0195 -0.0980 0.9950
vn 0.0195 -0.0980 -0.9950
vn 0.1942 -0.9762 -0.0962
vn 0.0576 -0.2898 0.9553
vn 0.1870 -0.9401 -0.2852
vn 0.0934 -0.4693 0.8781
vn 0.1728 -0.8687 -0.4643
vn 0.1252 -0.6294 0.7669
vn 0.1520 -0.7640 -0.6270
vn 0.1520 -0.7640 0.6270
vn 0.1252 -0.6294 -0.7669
vn 0.1728 -0.8687 0.4643
vn 0.0934 -0.4693 -0.8781
vn 0.1870 -0.9401 0.2852
vn -0.1520 -0.7640 -0.6270
vn -0.1520 -0.7640 0.6270
vn -0.1252 -0.6294 -0.7669
vn -0.1728 -0.8687 0.4643
vn -0.0934 -0.4693 -0.8781
vn -0.1870 -0.9401 0.2852
vn -0.0576 -0.2898 -0.9553
vn -0.1942 -0.9762 0.0962
vn -0.0195 -0.0980 0.9950
vn -0.0195 -0.0980 -0.9950
vn -0.1942 -0.9762 -0.0962
vn -0.0576 -0.2898 0.9553
vn -0.1870 -0.9401 -0.2852
vn -0.0934 -0.4693 0.8781
vn -0.1728 -0.8687 -0.4643
vn -0.1252 -0.6294 0.7669
vn -0.0555 -0.0831 0.9950
vn -0.0555 -0.0831 -0.9950
vn -0.5530 -0.8276 -0.0962
vn -0.1642 -0.2457 0.9553
vn -0.5325 -0.7969 -0.2852
vn -0.2659 -0.3979 0.8781
vn -0.4921 -0.7364 -0.4643
vn -0.3565 -0.5336 0.7669
vn -0.4328 -0.6477 -0.6270
vn -0.4328 -0.6477 0.6270
vn -0.3565 -0.5336 -0.7669
vn -0.4921 -0.7364 0.4643
vn -0.2659 -0.3979 -0.8781
vn -0.5325 -0.7969 0.2852
vn -0.1642 -0.2457 -0.9553
vn -0.5530 -0.8276 0.0962
vn -0.6477 -0.4328 0.6270
vn -0.5336 -0.3565 -0.7669
vn -0.7364 -0.4921 0.4643
vn -0.3979 -0.2659 -0.8781
vn -0.7969 -0.5325 0.2852
vn -0.2457 -0.1642 -0.9553
vn -0.8276 -0.5530 0.0962
vn -0.0831 -0.0555 0.9950
vn -0.0831 -0.0555 -0.9950
vn -0.8276 -0.5530 -0.0962
vn -0.2457 -0.1642 0.9553
vn -0.7969 -0.5325 -0.2852
vn -0.3979 -0.2659 0.8781
vn -0.7364 -0.4921 -0.4643
vn -0.5336 -0.3565 0.7669
vn -0.6477 -0.4328 -0.6270
vn -0.9762 -0.1942 -0.0962
vn -0.2898 -0.0576 0.9553
vn -0.9401 -0.1870 -0.2852
vn -0.4693 -0.0934 0.8781
vn -0.8687 -0.1728 -0.4643
vn -0.6294 -0.1252 0.7669
vn -0.7640 -0.1520 -0.6270
vn -0.7640 -0.1520 0.6270
vn -0.6294 -0.1252 -0.7669
vn -0.8687 -0.1728 0.4643
vn -0.4693 -0.0934 -0.8781
vn -0.9401 -0.1870 0.2852
vn -0.2898 -0.0576 -0.9553
vn -0.9762 -0.1942 0.0962
vn -0.0980 -0.0195 0.9950
vn -0.0980 -0.0195 -0.9950
vn -0.6294 0.1252 -0.7669
vn -0.8687 0.1728 0.4643
vn -0.4693 0.0934 -0.8781
vn -0.9401 0.1870 0.2852
vn -0.2898 0.0576 -0.9553
vn -0.9762 0.1942 0.0962
vn -0.0980 0.0195 0.9950
vn -0.0980 0.0195 -0.9950
vn -0.9762 0.1942 -0.0962
vn -0.2898 0.0576 0.9553
vn -0.9401 0.1870 -0.2852
vn -0.4693 0.0934 0.8781
vn -0.8687 0.1728 -0.4643
vn -0.6294 0.1252 0.7669
vn -0.7640 0.1520 -0.6270
vn -0.7640 0.1520 0.6270
vn -0.2457 0.1642 0.9553
vn -0.7969 0.5325 -0.2852
vn -0.3979 0.2659 0.8781
vn -0.7364 0.4921 -0.4643
vn -0.5336 0.3565 0.7669
vn -0.6477 0.4328 -0.6270
vn -0.6477 0.4328 0.6270
vn -0.5336 0.3565 -0.7669
vn -0.7364 0.4921 0.4643
vn -0.3979 0.2659 -0.8781
vn -0.7969 0.5325 0.2852
vn -0.2457 0.1642 -0.9553
vn -0.8276 0.5530 0.0962
vn -0.0831 0.0555 0.9950
vn -0.0831 0.0555 -0.9950
vn -0.8276 0.5530 -0.0962
vn -0.4921 0.7364 0.4643
vn -0.2659 0.3979 -0.8781
vn -0.5325 0.7969 0.2852
vn -0.1642 0.2457 -0.9553
vn -0.5530 0.8276 0.0962
vn -0.0555 0.0831 0.9950
vn -0.0555 0.0831 -0.9950
vn -0.5530 0.8276 -0.0962
vn -0.1642 0.2457 0.9553
vn -0.5325 0.7969 -0.2852
vn -0.2659 0.3979 0.8781
vn -0.4921 0.7364 -0.4643
vn -0.3565 0.5336 0.7669
vn -0.4328 0.6477 -0.6270
vn -0.4328 0.6477 0.6270
vn -0.3565 0.5336 -0.7669
vn -0.1870 0.9401 -0.2852
vn -0.0934 0.4693 0.8781
vn -0.1728 0.8687 -0.4643
vn -0.1252 0.6294 0.7669
vn -0.1520 0.7640 -0.6270
vn -0.1520 0.7640 0.6270
vn -0.1252 0.6294 -0.7669
vn -0.1728 0.8687 0.4643
vn -0.0934 0.4693 -0.8781
vn -0.1870 0.9401 0.2852
vn -0.0576 0.2898 -0.9553
vn -0.1942 0.9762 0.0962
vn -0.0195 0.0980 0.9950
vn -0.0195 0.0980 -0.9950
vn -0.1942 0.9762 -0.0962
vn -0.0576 0.2898 0.9553
vt 0.750000 0.562500
vt 0.750000 0.625000
vt 0.687500 0.625000
vt 0.687500 0.562500
vt 0.750000 0.062500
vt 0.750000 0.125000
vt 0.687500 0.125000
vt 0.687500 0.062500
vt 0.750000 0.500000
vt 0.687500 0.500000
vt 0.750000 0.937500
vt 0.718750 1.000000
vt 0.687500 0.937500
vt 0.718750 0.000000
vt 0.750000 0.437500
vt 0.687500 0.437500
vt 0.750000 0.875000
vt 0.687500 0.875000
vt 0.750000 0.375000
vt 0.687500 0.375000
vt 0.750000 0.812500
vt 0.687500 0.812500
vt 0.750000 0.312500
vt 0.687500 0.312500
vt 0.750000 0.750000
vt 0.687500 0.750000
vt 0.750000 0.250000
vt 0.687500 0.250000
vt 0.750000 0.687500
vt 0.687500 0.687500
vt 0.750000 0.187500
vt 0.687500 0.187500
vt 0.625000 0.687500
vt 0.625000 0.625000
vt 0.625000 0.187500
vt 0.625000 0.125000
vt 0.625000 0.562500
vt 0.625000 0.062500
vt 0.625000 0.500000
vt 0.656250 1.000000
vt 0.625000 0.937500
vt 0.656250 0.000000
vt 0.625000 0.437500
vt 0.625000 0.875000
vt 0.625000 0.375000
vt 0.625000 0.812500
vt 0.625000 0.312500
vt 0.625000 0.750000
vt 0.625000 0.250000
vt 0.562500 0.437500
vt 0.562500 0.375000
vt 0.562500 0.875000
vt 0.562500 0.812500
vt 0.562500 0.312500
vt 0.562500 0.750000
vt 0.562500 0.250000
vt 0.562500 0.687500
vt 0.562500 0.187500
vt 0.562500 0.625000
vt 0.562500 0.125000
vt 0.562500 0.562500
vt 0.562500 0.062500
vt 0.562500 0.500000
vt 0.593750 1.000000
vt 0.562500 0.937500
vt 0.593750 0.000000
vt 0.500000 0.187500
vt 0.500000 0.125000
vt 0.500000 0.625000
vt 0.500000 0.562500
vt 0.500000 0.062500
vt 0.500000 0.500000
vt 0.531250 1.000000
vt 0.500000 0.937500
vt 0.531250 0.000000
vt 0.500000 0.437500
vt 0.500000 0.875000
vt 0.500000 0.375000
vt 0.500000 0.812500
vt 0.500000 0.312500
vt 0.500000 0.750000
vt 0.500000 0.250000
vt 0.500000 0.687500
vt 0.437500 0.875000
vt 0.437500 0.812500
vt 0.437500 0.375000
vt 0.437500 0.312500
vt 0.437500 0.750000
vt 0.437500 0.250000
vt 0.437500 0.687500
vt 0.437500 0.187500
vt 0.437500 0.625000
vt 0.437500 0.125000
vt 0.437500 0.562500
vt 0.437500 0.062500
vt 0.437500 0.500000
vt 0.468750 1.000000
vt 0.437500 0.937500
vt 0.468750 0.000000
vt 0.437500 0.437500
vt 0.375000 0.625000
vt 0.375000 0.562500
vt 0.375000 0.125000
vt 0.375000 0.062500
vt 0.375000 0.500000
vt 0.406250 1.000000
vt 0.375000 0.937500
vt 0.406250 0.000000
vt 0.375000 0.437500
vt 0.375000 0.875000
vt 0.375000 0.375000
vt 0.375000 0.812500
vt 0.375000 0.312500
vt 0.375000 0.750000
vt 0.375000 0.250000
vt 0.375000 0.687500
vt 0.375000 0.187500
vt 0.312500 0.375000
vt 0.312500 0.312500
vt 0.312500 0.812500
vt 0.312500 0.750000
vt 0.312500 0.250000
vt 0.312500 0.687500
vt 0.312500 0.187500
vt 0.312500 0.625000
vt 0.312500 0.125000
vt 0.312500 0.562500
vt 0.312500 0.062500
vt 0.312500 0.500000
vt 0.343750 1.000000
vt 0.312500 0.937500
vt 0.343750 0.000000
vt 0.312500 0.437500
vt 0.312500 0.875000
vt 0.250000 0.125000
vt 0.250000 0.062500
vt 0.250000 0.562500
vt 0.250000 0.500000
vt 0.281250 1.000000
vt 0.250000 0.937500
vt 0.281250 0.000000
vt 0.250000 0.437500
vt 0.250000 0.875000
vt 0.250000 0.375000
vt 0.250000 0.812500
vt 0.250000 0.312500
vt 0.250000 0.750000
vt 0.250000 0.250000
vt 0.250000 0.687500
vt 0.250000 0.187500
vt 0.250000 0.625000
vt 0.187500 0.312500
vt 0.187500 0.250000
vt 0.187500 0.750000
vt 0.187500 0.687500
vt 0.187500 0.187500
vt 0.187500 0.625000
vt 0.187500 0.125000
vt 0.187500 0.562500
vt 0.187500 0.062500
vt 0.187500 0.500000
vt 0.218750 1.000000
vt 0.187500 0.937500
vt 0.218750 0.000000
vt 0.187500 0.437500
vt 0.187500 0.875000
vt 0.187500 0.375000
vt 0.187500 0.812500
vt 0.156250 1.000000
vt 0.125000 0.937500
vt 0.156250 0.000000
vt 0.125000 0.062500
vt 0.125000 0.500000
vt 0.125000 0.437500
vt 0.125000 0.875000
vt 0.125000 0.375000
vt 0.125000 0.812500
vt 0.125000 0.312500
vt 0.125000 0.750000
vt 0.125000 0.250000
vt 0.125000 0.687500
vt 0.125000 0.187500
vt 0.125000 0.625000
vt 0.125000 0.125000
vt 0.125000 0.562500
vt 0.062500 0.750000
vt 0.062500 0.687500
vt 0.062500 0.250000
vt 0.062500 0.187500
vt 0.062500 0.625000
vt 0.062500 0.125000
vt 0.062500 0.562500
vt 0.062500 0.062500
vt 0.062500 0.500000
vt 0.093750 1.000000
vt 0.062500 0.937500
vt 0.093750 0.000000
vt 0.062500 0.437500
vt 0.062500 0.875000
vt 0.062500 0.375000
vt 0.062500 0.812500
vt 0.062500 0.312500
vt 0.000000 0.500000
vt 0.000000 0.437500
vt 0.000000 0.937500
vt 0.000000 0.875000
vt 0.000000 0.375000
vt 0.000000 0.812500
vt 0.000000 0.312500
vt 0.000000 0.750000
vt 0.000000 0.250000
vt 0.000000 0.687500
vt 0.000000 0.187500
vt 0.000000 0.625000
vt 0.000000 0.125000
vt 0.000000 0.562500
vt 0.000000 0.062500
vt 0.031250 1.000000
vt 0.031250 0.000000
vt 1.000000 0.187500
vt 1.000000 0.250000
vt 0.937500 0.250000
vt 0.937500 0.187500
vt 1.000000 0.625000
vt 1.000000 0.687500
vt 0.937500 0.687500
vt 0.937500 0.625000
vt 1.000000 0.125000
vt 0.937500 0.125000
vt 1.000000 0.562500
vt 0.937500 0.562500
vt 1.000000 0.062500
vt 0.937500 0.062500
vt 1.000000 0.500000
vt 0.937500 0.500000
vt 1.000000 0.937500
vt 0.968750 1.000000
vt 0.937500 0.937500
vt 0.968750 0.000000
vt 1.000000 0.437500
vt 0.937500 0.437500
vt 1.000000 0.875000
vt 0.937500 0.875000
vt 1.000000 0.375000
vt 0.937500 0.375000
vt 1.000000 0.812500
vt 0.937500 0.812500
vt 1.000000 0.312500
vt 0.937500 0.312500
vt 1.000000 0.750000
vt 0.937500 0.750000
vt 0.875000 0.937500
vt 0.875000 0.875000
vt 0.875000 0.437500
vt 0.875000 0.375000
vt 0.875000 0.812500
vt 0.875000 0.312500
vt 0.875000 0.750000
vt 0.875000 0.250000
vt 0.875000 0.687500
vt 0.875000 0.187500
vt 0.875000 0.625000
vt 0.875000 0.125000
vt 0.875000 0.562500
vt 0.875000 0.062500
vt 0.875000 0.500000
vt 0.906250 1.000000
vt 0.906250 0.000000
vt 0.812500 0.687500
vt 0.812500 0.625000
vt 0.812500 0.187500
vt 0.812500 0.125000
vt 0.812500 0.562500
vt 0.812500 0.062500
vt 0.812500 0.500000
vt 0.843750 1.000000
vt 0.812500 0.937500
vt 0.843750 0.000000
vt 0.812500 0.437500
vt 0.812500 0.875000
vt 0.812500 0.375000
vt 0.812500 0.812500
vt 0.812500 0.312500
vt 0.812500 0.750000
vt 0.812500 0.250000
vt 0.781250 1.000000
vt 0.781250 0.000000
s 0
usemtl Demon_Obsidian
f 5/1/1 4/2/1 18/3/1 19/4/1
f 11/5/2 10/6/2 26/7/2 27/8/2
f 241/9/3 5/1/3 19/4/3 20/10/3
f 2/11/4 1/12/4 13/13/4
f 12/14/5 11/5/5 27/8/5
f 6/15/6 241/9/6 20/10/6 21/16/6
f 238/17/7 2/11/7 13/13/7 14/18/7
f 7/19/8 6/15/8 21/16/8 22/20/8
f 239/21/9 238/17/9 14/18/9 15/22/9
f 8/23/10 7/19/10 22/20/10 23/24/10
f 3/25/11 239/21/11 15/22/11 16/26/11
f 242/27/12 8/23/12 23/24/12 24/28/12
f 240/29/13 3/25/13 16/26/13 17/30/13
f 9/31/14 242/27/14 24/28/14 25/32/14
f 4/2/15 240/29/15 17/30/15 18/3/15
f 10/6/16 9/31/16 25/32/16 26/7/16
f 18/3/17 17/30/17 32/33/17 33/34/17
f 26/7/18 25/32/18 40/35/18 41/36/18
f 19/4/19 18/3/19 33/34/19 34/37/19
f 27/8/20 26/7/20 41/36/20 42/38/20
f 20/10/21 19/4/21 34/37/21 35/39/21
f 13/13/22 1/40/22 28/41/22
f 12/42/23 27/8/23 42/38/23
f 21/16/24 20/10/24 35/39/24 36/43/24
f 14/18/25 13/13/25 28/41/25 29/44/25
f 22/20/26 21/16/26 36/43/26 37/45/26
f 15/22/27 14/18/27 29/44/27 30/46/27
f 23/24/28 22/20/28 37/45/28 38/47/28
f 16/26/29 15/22/29 30/46/29 31/48/29
f 24/28/30 23/24/30 38/47/30 39/49/30
f 17/30/31 16/26/31 31/48/31 32/33/31
f 25/32/32 24/28/32 39/49/32 40/35/32
f 37/45/33 36/43/33 51/50/33 52/51/33
f 30/46/34 29/44/34 44/52/34 45/53/34
f 38/47/35 37/45/35 52/51/35 53/54/35
f 31/48/36 30/46/36 45/53/36 46/55/36
f 39/49/37 38/47/37 53/54/37 54/56/37
f 32/33/38 31/48/38 46/55/38 47/57/38
f 40/35/39 39/49/39 54/56/39 55/58/39
f 33/34/40 32/33/40 47/57/40 48/59/40
f 41/36/41 40/35/41 55/58/41 56/60/41
f 34/37/42 33/34/42 48/59/42 49/61/42
f 42/38/43 41/36/43 56/60/43 57/62/43
f 35/39/44 34/37/44 49/61/44 50/63/44
f 28/41/45 1/64/45 43/65/45
f 12/66/46 42/38/46 57/62/46
f 36/43/47 35/39/47 50/63/47 51/50/47
f 29/44/48 28/41/48 43/65/48 44/52/48
f 56/60/49 55/58/49 70/67/49 71/68/49
f 49/61/50 48/59/50 63/69/50 64/70/50
f 57/62/51 56/60/51 71/68/51 72/71/51
f 50/63/52 49/61/52 64/70/52 65/72/52
f 43/65/53 1/73/53 58/74/53
f 12/75/54 57/62/54 72/71/54
f 51/50/55 50/63/55 65/72/55 66/76/55
f 44/52/56 43/65/56 58/74/56 59/77/56
f 52/51/57 51/50/57 66/76/57 67/78/57
f 45/53/58 44/52/58 59/77/58 60/79/58
f 53/54/59 52/51/59 67/78/59 68/80/59
f 46/55/60 45/53/60 60/79/60 61/81/60
f 54/56/61 53/54/61 68/80/61 69/82/61
f 47/57/62 46/55/62 61/81/62 62/83/62
f 55/58/63 54/56/63 69/82/63 70/67/63
f 48/59/64 47/57/64 62/83/64 63/69/64
f 60/79/65 59/77/65 74/84/65 75/85/65
f 68/80/66 67/78/66 82/86/66 83/87/66
f 61/81/67 60/79/67 75/85/67 76/88/67
f 69/82/68 68/80/68 83/87/68 84/89/68
f 62/83/69 61/81/69 76/88/69 77/90/69
f 70/67/70 69/82/70 84/89/70 85/91/70
f 63/69/71 62/83/71 77/90/71 78/92/71
f 71/68/72 70/67/72 85/91/72 86/93/72
f 64/70/73 63/69/73 78/92/73 79/94/73
f 72/71/74 71/68/74 86/93/74 87/95/74
f 65/72/75 64/70/75 79/94/75 80/96/75
f 58/74/76 1/97/76 73/98/76
f 12/99/77 72/71/77 87/95/77
f 66/76/78 65/72/78 80/96/78 81/100/78
f 59/77/79 58/74/79 73/98/79 74/84/79
f 67/78/80 66/76/80 81/100/80 82/86/80
f 79/94/81 78/92/81 93/101/81 94/102/81
f 87/95/82 86/93/82 101/103/82 102/104/82
f 80/96/83 79/94/83 94/102/83 95/105/83
f 73/98/84 1/106/84 88/107/84
f 12/108/85 87/95/85 102/104/85
f 81/100/86 80/96/86 95/105/86 96/109/86
f 74/84/87 73/98/87 88/107/87 89/110/87
f 82/86/88 81/100/88 96/109/88 97/111/88
f 75/85/89 74/84/89 89/110/89 90/112/89
f 83/87/90 82/86/90 97/111/90 98/113/90
f 76/88/91 75/85/91 90/112/91 91/114/91
f 84/89/92 83/87/92 98/113/92 99/115/92
f 77/90/93 76/88/93 91/114/93 92/116/93
f 85/91/94 84/89/94 99/115/94 100/117/94
f 78/92/95 77/90/95 92/116/95 93/101/95
f 86/93/96 85/91/96 100/117/96 101/103/96
f 98/113/97 97/111/97 112/118/97 113/119/97
f 91/114/98 90/112/98 105/120/98 106/121/98
f 99/115/99 98/113/99 113/119/99 114/122/99
f 92/116/100 91/114/100 106/121/100 107/123/100
f 100/117/101 99/115/101 114/122/101 115/124/101
f 93/101/102 92/116/102 107/123/102 108/125/102
f 101/103/103 100/117/103 115/124/103 116/126/103
f 94/102/104 93/101/104 108/125/104 109/127/104
f 102/104/105 101/103/105 116/126/105 117/128/105
f 95/105/106 94/102/106 109/127/106 110/129/106
f 88/107/107 1/130/107 103/131/107
f 12/132/108 102/104/108 117/128/108
f 96/109/109 95/105/109 110/129/109 111/133/109
f 89/110/110 88/107/110 103/131/110 104/134/110
f 97/111/111 96/109/111 111/133/111 112/118/111
f 90/112/112 89/110/112 104/134/112 105/120/112
f 117/128/113 116/126/113 131/135/113 132/136/113
f 110/129/114 109/127/114 124/137/114 125/138/114
f 103/131/115 1/139/115 118/140/115
f 12/141/116 117/128/116 132/136/116
f 111/133/117 110/129/117 125/138/117 126/142/117
f 104/134/118 103/131/118 118/140/118 119/143/118
f 112/118/119 111/133/119 126/142/119 127/144/119
f 105/120/120 104/134/120 119/143/120 120/145/120
f 113/119/121 112/118/121 127/144/121 128/146/121
f 106/121/122 105/120/122 120/145/122 121/147/122
f 114/122/123 113/119/123 128/146/123 129/148/123
f 107/123/124 106/121/124 121/147/124 122/149/124
f 115/124/125 114/122/125 129/148/125 130/150/125
f 108/125/126 107/123/126 122/149/126 123/151/126
f 116/126/127 115/124/127 130/150/127 131/135/127
f 109/127/128 108/125/128 123/151/128 124/137/128
f 129/148/129 128/146/129 143/152/129 144/153/129
f 122/149/130 121/147/130 136/154/130 137/155/130
f 130/150/131 129/148/131 144/153/131 145/156/131
f 123/151/132 122/149/132 137/155/132 138/157/132
f 131/135/133 130/150/133 145/156/133 146/158/133
f 124/137/134 123/151/134 138/157/134 139/159/134
f 132/136/135 131/135/135 146/158/135 147/160/135
f 125/138/136 124/137/136 139/159/136 140/161/136
f 118/140/137 1/162/137 133/163/137
f 12/164/138 132/136/138 147/160/138
f 126/142/139 125/138/139 140/161/139 141/165/139
f 119/143/140 118/140/140 133/163/140 134/166/140
f 127/144/141 126/142/141 141/165/141 142/167/141
f 120/145/142 119/143/142 134/166/142 135/168/142
f 128/146/143 127/144/143 142/167/143 143/152/143
f 121/147/144 120/145/144 135/168/144 136/154/144
f 133/163/145 1/169/145 148/170/145
f 12/171/146 147/160/146 162/172/146
f 141/165/147 140/161/147 155/173/147 156/174/147
f 134/166/148 133/163/148 148/170/148 149/175/148
f 142/167/149 141/165/149 156/174/149 157/176/149
f 135/168/150 134/166/150 149/175/150 150/177/150
f 143/152/151 142/167/151 157/176/151 158/178/151
f 136/154/152 135/168/152 150/177/152 151/179/152
f 144/153/153 143/152/153 158/178/153 159/180/153
f 137/155/154 136/154/154 151/179/154 152/181/154
f 145/156/155 144/153/155 159/180/155 160/182/155
f 138/157/156 137/155/156 152/181/156 153/183/156
f 146/158/157 145/156/157 160/182/157 161/184/157
f 139/159/158 138/157/158 153/183/158 154/185/158
f 147/160/159 146/158/159 161/184/159 162/172/159
f 140/161/160 139/159/160 154/185/160 155/173/160
f 152/181/161 151/179/161 166/186/161 167/187/161
f 160/182/162 159/180/162 174/188/162 175/189/162
f 153/183/163 152/181/163 167/187/163 168/190/163
f 161/184/164 160/182/164 175/189/164 176/191/164
f 154/185/165 153/183/165 168/190/165 169/192/165
f 162/172/166 161/184/166 176/191/166 177/193/166
f 155/173/167 154/185/167 169/192/167 170/194/167
f 148/170/168 1/195/168 163/196/168
f 12/197/169 162/172/169 177/193/169
f 156/174/170 155/173/170 170/194/170 171/198/170
f 149/175/171 148/170/171 163/196/171 164/199/171
f 157/176/172 156/174/172 171/198/172 172/200/172
f 150/177/173 149/175/173 164/199/173 165/201/173
f 158/178/174 157/176/174 172/200/174 173/202/174
f 151/179/175 150/177/175 165/201/175 166/186/175
f 159/180/176 158/178/176 173/202/176 174/188/176
f 171/198/177 170/194/177 185/203/177 186/204/177
f 164/199/178 163/196/178 178/205/178 179/206/178
f 172/200/179 171/198/179 186/204/179 187/207/179
f 165/201/180 164/199/180 179/206/180 180/208/180
f 173/202/181 172/200/181 187/207/181 188/209/181
f 166/186/182 165/201/182 180/208/182 181/210/182
f 174/188/183 173/202/183 188/209/183 189/211/183
f 167/187/184 166/186/184 181/210/184 182/212/184
f 175/189/185 174/188/185 189/211/185 190/213/185
f 168/190/186 167/187/186 182/212/186 183/214/186
f 176/191/187 175/189/187 190/213/187 191/215/187
f 169/192/188 168/190/188 183/214/188 184/216/188
f 177/193/189 176/191/189 191/215/189 192/217/189
f 170/194/190 169/192/190 184/216/190 185/203/190
f 163/196/191 1/218/191 178/205/191
f 12/219/192 177/193/192 192/217/192
f 190/220/193 189/221/193 204/222/193 205/223/193
f 183/224/194 182/225/194 197/226/194 198/227/194
f 191/228/195 190/220/195 205/223/195 206/229/195
f 184/230/196 183/224/196 198/227/196 199/231/196
f 192/232/197 191/228/197 206/229/197 207/233/197
f 185/234/198 184/230/198 199/231/198 200/235/198
f 178/236/199 1/237/199 193/238/199
f 12/239/200 192/232/200 207/233/200
f 186/240/201 185/234/201 200/235/201 201/241/201
f 179/242/202 178/236/202 193/238/202 194/243/202
f 187/244/203 186/240/203 201/241/203 202/245/203
f 180/246/204 179/242/204 194/243/204 195/247/204
f 188/248/205 187/244/205 202/245/205 203/249/205
f 181/250/206 180/246/206 195/247/206 196/251/206
f 189/221/207 188/248/207 203/249/207 204/222/207
f 182/225/208 181/250/208 196/251/208 197/226/208
f 194/243/209 193/238/209 208/252/209 209/253/209
f 202/245/210 201/241/210 216/254/210 217/255/210
f 195/247/211 194/243/211 209/253/211 210/256/211
f 203/249/212 202/245/212 217/255/212 218/257/212
f 196/251/213 195/247/213 210/256/213 211/258/213
f 204/222/214 203/249/214 218/257/214 219/259/214
f 197/226/215 196/251/215 211/258/215 212/260/215
f 205/223/216 204/222/216 219/259/216 220/261/216
f 198/227/217 197/226/217 212/260/217 213/262/217
f 206/229/218 205/223/218 220/261/218 221/263/218
f 199/231/219 198/227/219 213/262/219 214/264/219
f 207/233/220 206/229/220 221/263/220 222/265/220
f 200/235/221 199/231/221 214/264/221 215/266/221
f 193/238/222 1/267/222 208/252/222
f 12/268/223 207/233/223 222/265/223
f 201/241/224 200/235/224 215/266/224 216/254/224
f 213/262/225 212/260/225 227/269/225 228/270/225
f 221/263/226 220/261/226 235/271/226 236/272/226
f 214/264/227 213/262/227 228/270/227 229/273/227
f 222/265/228 221/263/228 236/272/228 237/274/228
f 215/266/229 214/264/229 229/273/229 230/275/229
f 208/252/230 1/276/230 223/277/230
f 12/278/231 222/265/231 237/274/231
f 216/254/232 215/266/232 230/275/232 231/279/232
f 209/253/233 208/252/233 223/277/233 224/280/233
f 217/255/234 216/254/234 231/279/234 232/281/234
f 210/256/235 209/253/235 224/280/235 225/282/235
f 218/257/236 217/255/236 232/281/236 233/283/236
f 211/258/237 210/256/237 225/282/237 226/284/237
f 219/259/238 218/257/238 233/283/238 234/285/238
f 212/260/239 211/258/239 226/284/239 227/269/239
f 220/261/240 219/259/240 234/285/240 235/271/240
f 232/281/241 231/279/241 6/15/241 7/19/241
f 225/282/242 224/280/242 238/17/242 239/21/242
f 233/283/243 232/281/243 7/19/243 8/23/243
f 226/284/244 225/282/244 239/21/244 3/25/244
f 234/285/245 233/283/245 8/23/245 242/27/245
f 227/269/246 226/284/246 3/25/246 240/29/246
f 235/271/247 234/285/247 242/27/247 9/31/247
f 228/270/248 227/269/248 240/29/248 4/2/248
f 236/272/249 235/271/249 9/31/249 10/6/249
f 229/273/250 228/270/250 4/2/250 5/1/250
f 237/274/251 236/272/251 10/6/251 11/5/251
f 230/275/252 229/273/252 5/1/252 241/9/252
f 223/277/253 1/286/253 2/11/253
f 12/287/254 237/274/254 11/5/254
f 231/279/255 230/275/255 241/9/255 6/15/255
f 224/280/256 223/277/256 2/11/256 238/17/256
o Horn_L1
v -0.327659 1.960498 -0.413696
v -0.297530 1.930137 -0.410157
v -0.280692 1.891966 -0.400080
v -0.279711 1.851795 -0.384998
v -0.294735 1.815741 -0.367208
v -0.323476 1.789292 -0.349418
v -0.361560 1.776475 -0.334336
v -0.403188 1.779241 -0.324258
v -0.442023 1.797170 -0.320720
v -0.472153 1.827531 -0.324258
v -0.488990 1.865702 -0.334336
v -0.489972 1.905873 -0.349418
v -0.474948 1.941927 -0.367208
v -0.446207 1.968376 -0.384998
v -0.408123 1.981193 -0.400080
v -0.366494 1.978427 -0.410157
v -0.215159 2.121166 0.267208
vn 0.6988 0.6618 -0.2716
vn 0.9139 0.3479 -0.2092
vn 0.9955 -0.0110 -0.0940
vn 0.9312 -0.3601 0.0566
vn 0.7307 -0.6464 0.2195
vn 0.4246 -0.8263 0.3701
vn 0.0595 -0.8723 0.4853
vn -0.3090 -0.7775 0.5477
vn -0.6249 -0.5563 0.5477
vn -0.8400 -0.2424 0.4853
vn -0.9217 0.1164 0.3701
vn -0.8573 0.4656 0.2195
vn -0.6569 0.7519 0.0566
vn -0.3508 0.9317 -0.0940
vn -0.2424 -0.3462 -0.9063
vn 0.0143 0.9778 -0.2092
vn 0.3829 0.8830 -0.2716
vt 0.250000 0.490000
vt 0.250000 0.250000
vt 0.341844 0.471731
vt 0.419706 0.419706
vt 0.471731 0.341844
vt 0.490000 0.250000
vt 0.471731 0.158156
vt 0.419706 0.080294
vt 0.341844 0.028269
vt 0.250000 0.010000
vt 0.158156 0.028269
vt 0.080294 0.080294
vt 0.028269 0.158156
vt 0.010000 0.250000
vt 0.028269 0.341844
vt 0.080294 0.419706
vt 0.750000 0.490000
vt 0.841844 0.471731
vt 0.919706 0.419706
vt 0.971731 0.341844
vt 0.990000 0.250000
vt 0.971731 0.158156
vt 0.919706 0.080294
vt 0.841844 0.028269
vt 0.750000 0.010000
vt 0.658156 0.028269
vt 0.580294 0.080294
vt 0.528269 0.158156
vt 0.510000 0.250000
vt 0.528269 0.341844
vt 0.580294 0.419706
vt 0.658156 0.471731
vt 0.158156 0.471731
s 0
usemtl Demon_Obsidian
f 243/288/257 259/289/257 244/290/257
f 244/290/258 259/289/258 245/291/258
f 245/291/259 259/289/259 246/292/259
f 246/292/260 259/289/260 247/293/260
f 247/293/261 259/289/261 248/294/261
f 248/294/262 259/289/262 249/295/262
f 249/295/263 259/289/263 250/296/263
f 250/296/264 259/289/264 251/297/264
f 251/297/265 259/289/265 252/298/265
f 252/298/266 259/289/266 253/299/266
f 253/299/267 259/289/267 254/300/267
f 254/300/268 259/289/268 255/301/268
f 255/301/269 259/289/269 256/302/269
f 256/302/270 259/289/270 257/303/270
f 243/304/271 244/305/271 245/306/271 246/307/271 247/308/271 248/309/271 249/310/271 250/311/271 251/312/271 252/313/271 253/314/271 254/315/271 255/316/271 256/317/271 257/318/271 258/319/271
f 257/303/272 259/289/272 258/320/272
f 258/320/273 259/289/273 243/288/273
o Horn_L2
v -0.604066 2.290183 -0.115274
v -0.575702 2.277753 -0.111359
v -0.554071 2.258204 -0.100212
v -0.542466 2.234511 -0.083529
v -0.542654 2.210282 -0.063851
v -0.554606 2.189205 -0.044172
v -0.576502 2.174489 -0.027489
v -0.605010 2.168375 -0.016342
v -0.635789 2.171792 -0.012428
v -0.664153 2.184222 -0.016342
v -0.685784 2.203771 -0.027489
v -0.697390 2.227464 -0.044172
v -0.697202 2.251693 -0.063851
v -0.685250 2.272770 -0.083529
v -0.663353 2.287486 -0.100212
v -0.634845 2.293601 -0.111359
v -0.540072 2.529012 0.303851
vn 0.4047 0.7665 -0.4986
vn 0.7191 0.5654 -0.4039
vn 0.9282 0.2935 -0.2289
vn 1.0000 -0.0079 -0.0002
vn 0.9236 -0.2928 0.2473
vn 0.7107 -0.5179 0.4760
vn 0.3938 -0.6489 0.6510
vn 0.0209 -0.6659 0.7458
vn -0.3510 -0.5662 0.7458
vn -0.6655 -0.3651 0.6510
vn -0.8745 -0.0932 0.4760
vn -0.9463 0.2082 0.2473
vn -0.8699 0.4931 -0.0002
vn -0.6571 0.7182 -0.2289
vn -0.1664 -0.6209 -0.7660
vn -0.3401 0.8493 -0.4039
vn 0.0328 0.8662 -0.4986
vt 0.250000 0.490000
vt 0.250000 0.250000
vt 0.341844 0.471731
vt 0.419706 0.419706
vt 0.471731 0.341844
vt 0.490000 0.250000
vt 0.471731 0.158156
vt 0.419706 0.080294
vt 0.341844 0.028269
vt 0.250000 0.010000
vt 0.158156 0.028269
vt 0.080294 0.080294
vt 0.028269 0.158156
vt 0.010000 0.250000
vt 0.028269 0.341844
vt 0.080294 0.419706
vt 0.750000 0.490000
vt 0.841844 0.471731
vt 0.919706 0.419706
vt 0.971731 0.341844
vt 0.990000 0.250000
vt 0.971731 0.158156
vt 0.919706 0.080294
vt 0.841844 0.028269
vt 0.750000 0.010000
vt 0.658156 0.028269
vt 0.580294 0.080294
vt 0.528269 0.158156
vt 0.510000 0.250000
vt 0.528269 0.341844
vt 0.580294 0.419706
vt 0.658156 0.471731
vt 0.158156 0.471731
s 0
usemtl Demon_Magma
f 260/321/274 276/322/274 261/323/274
f 261/323/275 276/322/275 262/324/275
f 262/324/276 276/322/276 263/325/276
f 263/325/277 276/322/277 264/326/277
f 264/326/278 276/322/278 265/327/278
f 265/327/279 276/322/279 266/328/279
f 266/328/280 276/322/280 267/329/280
f 267/329/281 276/322/281 268/330/281
f 268/330/282 276/322/282 269/331/282
f 269/331/283 276/322/283 270/332/283
f 270/332/284 276/322/284 271/333/284
f 271/333/285 276/322/285 272/334/285
f 272/334/286 276/322/286 273/335/286
f 273/335/287 276/322/287 274/336/287
f 260/337/288 261/338/288 262/339/288 263/340/288 264/341/288 265/342/288 266/343/288 267/344/288 268/345/288 269/346/288 270/347/288 271/348/288 272/349/288 273/350/288 274/351/288 275/352/288
f 274/336/289 276/322/289 275/353/289
f 275/353/290 276/322/290 260/321/290
o Horn_R1
v 0.327659 1.960498 -0.413696
v 0.366494 1.978427 -0.410157
v 0.408123 1.981193 -0.400080
v 0.446207 1.968376 -0.384998
v 0.474948 1.941927 -0.367208
v 0.489972 1.905873 -0.349418
v 0.488990 1.865702 -0.334336
v 0.472153 1.827531 -0.324258
v 0.442023 1.797170 -0.320720
v 0.403188 1.779241 -0.324258
v 0.361560 1.776475 -0.334336
v 0.323476 1.789292 -0.349418
v 0.294735 1.815741 -0.367208
v 0.279711 1.851795 -0.384998
v 0.280692 1.891966 -0.400080
v 0.297530 1.930137 -0.410157
v 0.215159 2.121166 0.267208
vn -0.3829 0.8830 -0.2716
vn -0.0143 0.9778 -0.2092
vn 0.3508 0.9317 -0.0940
vn 0.6569 0.7519 0.0566
vn 0.8573 0.4656 0.2195
vn 0.9217 0.1164 0.3701
vn 0.8400 -0.2424 0.4853
vn 0.6249 -0.5563 0.5477
vn 0.3090 -0.7775 0.5477
vn -0.0595 -0.8723 0.4853
vn -0.4246 -0.8263 0.3701
vn -0.7307 -0.6464 0.2195
vn -0.9312 -0.3601 0.0566
vn -0.9955 -0.0110 -0.0940
vn 0.2424 -0.3462 -0.9063
vn -0.9139 0.3479 -0.2092
vn -0.6988 0.6618 -0.2716
vt 0.250000 0.490000
vt 0.250000 0.250000
vt 0.341844 0.471731
vt 0.419706 0.419706
vt 0.471731 0.341844
vt 0.490000 0.250000
vt 0.471731 0.158156
vt 0.419706 0.080294
vt 0.341844 0.028269
vt 0.250000 0.010000
vt 0.158156 0.028269
vt 0.080294 0.080294
vt 0.028269 0.158156
vt 0.010000 0.250000
vt 0.028269 0.341844
vt 0.080294 0.419706
vt 0.750000 0.490000
vt 0.841844 0.471731
vt 0.919706 0.419706
vt 0.971731 0.341844
vt 0.990000 0.250000
vt 0.971731 0.158156
vt 0.919706 0.080294
vt 0.841844 0.028269
vt 0.750000 0.010000
vt 0.658156 0.028269
vt 0.580294 0.080294
vt 0.528269 0.158156
vt 0.510000 0.250000
vt 0.528269 0.341844
vt 0.580294 0.419706
vt 0.658156 0.471731
vt 0.158156 0.471731
s 0
usemtl Demon_Obsidian
f 277/354/291 293/355/291 278/356/291
f 278/356/292 293/355/292 279/357/292
f 279/357/293 293/355/293 280/358/293
f 280/358/294 293/355/294 281/359/294
f 281/359/295 293/355/295 282/360/295
f 282/360/296 293/355/296 283/361/296
f 283/361/297 293/355/297 284/362/297
f 284/362/298 293/355/298 285/363/298
f 285/363/299 293/355/299 286/364/299
f 286/364/300 293/355/300 287/365/300
f 287/365/301 293/355/301 288/366/301
f 288/366/302 293/355/302 289/367/302
f 289/367/303 293/355/303 290/368/303
f 290/368/304 293/355/304 291/369/304
f 277/370/305 278/371/305 279/372/305 280/373/305 281/374/305 282/375/305 283/376/305 284/377/305 285/378/305 286/379/305 287/380/305 288/381/305 289/382/305 290/383/305 291/384/305 292/385/305
f 291/369/306 293/355/306 292/386/306
f 292/386/307 293/355/307 277/354/307
o Horn_R2
v 0.604066 2.290183 -0.115274
v 0.634845 2.293601 -0.111359
v 0.663353 2.287486 -0.100212
v 0.685250 2.272770 -0.083529
v 0.697202 2.251693 -0.063851
v 0.697390 2.227464 -0.044172
v 0.685784 2.203771 -0.027489
v 0.664153 2.184222 -0.016342
v 0.635789 2.171792 -0.012428
v 0.605010 2.168375 -0.016342
v 0.576502 2.174489 -0.027489
v 0.554606 2.189205 -0.044172
v 0.542654 2.210282 -0.063851
v 0.542466 2.234511 -0.083529
v 0.554071 2.258204 -0.100212
v 0.575702 2.277753 -0.111359
v 0.540072 2.529012 0.303851
vn -0.0328 0.8662 -0.4986
vn 0.3401 0.8493 -0.4039
vn 0.6571 0.7182 -0.2289
vn 0.8699 0.4931 -0.0002
vn 0.9463 0.2082 0.2473
vn 0.8745 -0.0932 0.4760
vn 0.6655 -0.3651 0.6510
vn 0.3510 -0.5662 0.7458
vn -0.0209 -0.6659 0.7458
vn -0.3938 -0.6489 0.6510
vn -0.7107 -0.5179 0.4760
vn -0.9236 -0.2928 0.2473
vn -1.0000 -0.0079 -0.0002
vn -0.9282 0.2935 -0.2289
vn 0.1664 -0.6209 -0.7660
vn -0.7191 0.5654 -0.4039
vn -0.4047 0.7665 -0.4986
vt 0.250000 0.490000
vt 0.250000 0.250000
vt 0.341844 0.471731
vt 0.419706 0.419706
vt 0.471731 0.341844
vt 0.490000 0.250000
vt 0.471731 0.158156
vt 0.419706 0.080294
vt 0.341844 0.028269
vt 0.250000 0.010000
vt 0.158156 0.028269
vt 0.080294 0.080294
vt 0.028269 0.158156
vt 0.010000 0.250000
vt 0.028269 0.341844
vt 0.080294 0.419706
vt 0.750000 0.490000
vt 0.841844 0.471731
vt 0.919706 0.419706
vt 0.971731 0.341844
vt 0.990000 0.250000
vt 0.971731 0.158156
vt 0.919706 0.080294
vt 0.841844 0.028269
vt 0.750000 0.010000
vt 0.658156 0.028269
vt 0.580294 0.080294
vt 0.528269 0.158156
vt 0.510000 0.250000
vt 0.528269 0.341844
vt 0.580294 0.419706
vt 0.658156 0.471731
vt 0.158156 0.471731
s 0
usemtl Demon_Magma
f 294/387/308 310/388/308 295/389/308
f 295/389/309 310/388/309 296/390/309
f 296/390/310 310/388/310 297/391/310
f 297/391/311 310/388/311 298/392/311
f 298/392/312 310/388/312 299/393/312
f 299/393/313 310/388/313 300/394/313
f 300/394/314 310/388/314 301/395/314
f 301/395/315 310/388/315 302/396/315
f 302/396/316 310/388/316 303/397/316
f 303/397/317 310/388/317 304/398/317
f 304/398/318 310/388/318 305/399/318
f 305/399/319 310/388/319 306/400/319
f 306/400/320 310/388/320 307/401/320
f 307/401/321 310/388/321 308/402/321
f 294/403/322 295/404/322 296/405/322 297/406/322 298/407/322 299/408/322 300/409/322 301/410/322 302/411/322 303/412/322 304/413/322 305/414/322 306/415/322 307/416/322 308/417/322 309/418/322
f 308/402/323 310/388/323 309/419/323
f 309/419/324 310/388/324 294/387/324
o Eye_L
v -0.180000 1.695000 0.290000
v -0.180000 1.695000 0.350000
v -0.180000 1.745000 0.290000
v -0.180000 1.745000 0.350000
v -0.100000 1.695000 0.290000
v -0.100000 1.695000 0.350000
v -0.100000 1.745000 0.290000
v -0.100000 1.745000 0.350000
vn -1.0000 -0.0000 -0.0000
vn -0.0000 1.0000 -0.0000
vn 1.0000 -0.0000 -0.0000
vn -0.0000 -1.0000 -0.0000
vn -0.0000 -0.0000 -1.0000
vn -0.0000 -0.0000 1.0000
vt 0.375000 0.000000
vt 0.625000 0.000000
vt 0.625000 0.250000
vt 0.375000 0.250000
vt 0.625000 0.500000
vt 0.375000 0.500000
vt 0.625000 0.750000
vt 0.375000 0.750000
vt 0.625000 1.000000
vt 0.375000 1.000000
vt 0.125000 0.500000
vt 0.125000 0.750000
vt 0.875000 0.500000
vt 0.875000 0.750000
s 0
usemtl Demon_Magma
f 311/420/325 312/421/325 314/422/325 313/423/325
f 313/423/326 314/422/326 318/424/326 317/425/326
f 317/425/327 318/424/327 316/426/327 315/427/327
f 315/427/328 316/426/328 312/428/328 311/429/328
f 313/430/329 317/425/329 315/427/329 311/431/329
f 318/424/330 314/432/330 312/433/330 316/426/330
o Eye_R
v 0.100000 1.695000 0.290000
v 0.100000 1.695000 0.350000
v 0.100000 1.745000 0.290000
v 0.100000 1.745000 0.350000
v 0.180000 1.695000 0.290000
v 0.180000 1.695000 0.350000
v 0.180000 1.745000 0.290000
v 0.180000 1.745000 0.350000
vn -1.0000 -0.0000 -0.0000
vn -0.0000 1.0000 -0.0000
vn 1.0000 -0.0000 -0.0000
vn -0.0000 -1.0000 -0.0000
vn -0.0000 -0.0000 -1.0000
vn -0.0000 -0.0000 1.0000
vt 0.375000 0.000000
vt 0.625000 0.000000
vt 0.625000 0.250000
vt 0.375000 0.250000
vt 0.625000 0.500000
vt 0.375000 0.500000
vt 0.625000 0.750000
vt 0.375000 0.750000
vt 0.625000 1.000000
vt 0.375000 1.000000
vt 0.125000 0.500000
vt 0.125000 0.750000
vt 0.875000 0.500000
vt 0.875000 0.750000
s 0
usemtl Demon_Magma
f 319/434/331 320/435/331 322/436/331 321/437/331
f 321/437/332 322/436/332 326/438/332 325/439/332
f 325/439/333 326/438/333 324/440/333 323/441/333
f 323/441/334 324/440/334 320/442/334 319/443/334
f 321/444/335 325/439/335 323/441/335 319/445/335
f 326/438/336 322/446/336 320/447/336 324/440/336
o Molten_Maw
v -0.150000 1.440000 0.160000
v -0.150000 1.440000 0.400000
v -0.150000 1.560000 0.160000
v -0.150000 1.560000 0.400000
v 0.150000 1.440000 0.160000
v 0.150000 1.440000 0.400000
v 0.150000 1.560000 0.160000
v 0.150000 1.560000 0.400000
vn -1.0000 -0.0000 -0.0000
vn -0.0000 1.0000 -0.0000
vn 1.0000 -0.0000 -0.0000
vn -0.0000 -1.0000 -0.0000
vn -0.0000 -0.0000 -1.0000
vn -0.0000 -0.0000 1.0000
vt 0.375000 0.000000
vt 0.625000 0.000000
vt 0.625000 0.250000
vt 0.375000 0.250000
vt 0.625000 0.500000
vt 0.375000 0.500000
vt 0.625000 0.750000
vt 0.375000 0.750000
vt 0.625000 1.000000
vt 0.375000 1.000000
vt 0.125000 0.500000
vt 0.125000 0.750000
vt 0.875000 0.500000
vt 0.875000 0.750000
s 0
usemtl Demon_Magma
f 327/448/337 328/449/337 330/450/337 329/451/337
f 329/451/338 330/450/338 334/452/338 333/453/338
f 333/453/339 334/452/339 332/454/339 331/455/339
f 331/455/340 332/454/340 328/456/340 327/457/340
f 329/458/341 333/453/341 331/455/341 327/459/341
f 334/452/342 330/460/342 328/461/342 332/454/342
o Torso_Armor
v -0.475000 0.325000 -0.350000
v -0.475000 0.325000 0.350000
v -0.475000 1.375000 -0.350000
v -0.475000 1.375000 0.350000
v 0.475000 0.325000 -0.350000
v 0.475000 0.325000 0.350000
v 0.475000 1.375000 -0.350000
v 0.475000 1.375000 0.350000
vn -1.0000 -0.0000 -0.0000
vn -0.0000 1.0000 -0.0000
vn 1.0000 -0.0000 -0.0000
vn -0.0000 -1.0000 -0.0000
vn -0.0000 -0.0000 -1.0000
vn -0.0000 -0.0000 1.0000
vt 0.375000 0.000000
vt 0.625000 0.000000
vt 0.625000 0.250000
vt 0.375000 0.250000
vt 0.625000 0.500000
vt 0.375000 0.500000
vt 0.625000 0.750000
vt 0.375000 0.750000
vt 0.625000 1.000000
vt 0.375000 1.000000
vt 0.125000 0.500000
vt 0.125000 0.750000
vt 0.875000 0.500000
vt 0.875000 0.750000
s 0
usemtl Demon_Obsidian
f 335/462/343 336/463/343 338/464/343 337/465/343
f 337/465/344 338/464/344 342/466/344 341/467/344
f 341/467/345 342/466/345 340/468/345 339/469/345
f 339/469/346 340/468/346 336/470/346 335/471/346
f 337/472/347 341/467/347 339/469/347 335/473/347
f 342/466/348 338/474/348 336/475/348 340/468/348
o Magma_Core
v 0.000000 0.950000 0.620000
v 0.000000 1.012429 0.613851
v 0.000000 1.176274 0.526274
v 0.000000 1.216070 0.477782
v 0.000000 1.245641 0.422459
v 0.000000 1.263851 0.362429
v 0.000000 1.263851 0.237571
v 0.000000 1.216070 0.122218
v 0.000000 1.127782 0.033930
v 0.000000 1.072459 0.004359
v 0.000000 1.012429 -0.013851
v 0.000000 0.950000 -0.020000
v 0.023891 1.007677 0.613851
v 0.046863 1.063137 0.595641
v 0.068034 1.114250 0.566070
v 0.086591 1.159050 0.526274
v 0.101821 1.195817 0.477782
v 0.113137 1.223137 0.422459
v 0.120106 1.239961 0.362429
v 0.122459 1.245641 0.300000
v 0.120106 1.239961 0.237571
v 0.113137 1.223137 0.177541
v 0.101821 1.195817 0.122218
v 0.086591 1.159050 0.073726
v 0.068034 1.114250 0.033930
v 0.046863 1.063137 0.004359
v 0.023891 1.007677 -0.013851
v 0.044144 0.994144 0.613851
v 0.086591 1.036591 0.595641
v 0.125711 1.075711 0.566070
v 0.160000 1.110000 0.526274
v 0.188140 1.138140 0.477782
v 0.209050 1.159050 0.422459
v 0.221926 1.171926 0.362429
v 0.226274 1.176274 0.300000
v 0.221926 1.171926 0.237571
v 0.209050 1.159050 0.177541
v 0.188140 1.138140 0.122218
v 0.160000 1.110000 0.073726
v 0.125711 1.075711 0.033930
v 0.086591 1.036591 0.004359
v 0.044144 0.994144 -0.013851
v 0.057677 0.973890 0.613851
v 0.113137 0.996863 0.595641
v 0.164250 1.018034 0.566070
v 0.209050 1.036591 0.526274
v 0.245817 1.051821 0.477782
v 0.273137 1.063137 0.422459
v 0.289961 1.070106 0.362429
v 0.295641 1.072459 0.300000
v 0.289961 1.070106 0.237571
v 0.273137 1.063137 0.177541
v 0.245817 1.051821 0.122218
v 0.209050 1.036591 0.073726
v 0.164250 1.018034 0.033930
v 0.113137 0.996863 0.004359
v 0.057677 0.973890 -0.013851
v 0.062429 0.950000 0.613851
v 0.122459 0.950000 0.595641
v 0.177782 0.950000 0.566070
v 0.226274 0.950000 0.526274
v 0.266070 0.950000 0.477782
v 0.295641 0.950000 0.422459
v 0.313851 0.950000 0.362429
v 0.320000 0.950000 0.300000
v 0.313851 0.950000 0.237571
v 0.295641 0.950000 0.177541
v 0.266070 0.950000 0.122218
v 0.226274 0.950000 0.073726
v 0.177782 0.950000 0.033930
v 0.122459 0.950000 0.004359
v 0.062429 0.950000 -0.013851
v 0.057677 0.926109 0.613851
v 0.113137 0.903137 0.595641
v 0.164250 0.881966 0.566070
v 0.209050 0.863409 0.526274
v 0.245817 0.848179 0.477782
v 0.273137 0.836863 0.422459
v 0.289961 0.829894 0.362429
v 0.295641 0.827541 0.300000
v 0.289961 0.829894 0.237571
v 0.273137 0.836863 0.177541
v 0.245817 0.848179 0.122218
v 0.209050 0.863409 0.073726
v 0.164250 0.881966 0.033930
v 0.113137 0.903137 0.004359
v 0.057677 0.926109 -0.013851
v 0.044144 0.905856 0.613851
v 0.086591 0.863409 0.595641
v 0.125711 0.824289 0.566070
v 0.160000 0.790000 0.526274
v 0.188140 0.761860 0.477782
v 0.209050 0.740950 0.422459
v 0.221926 0.728074 0.362429
v 0.226274 0.723726 0.300000
v 0.221926 0.728074 0.237571
v 0.209050 0.740950 0.177541
v 0.188140 0.761860 0.122218
v 0.160000 0.790000 0.073726
v 0.125711 0.824289 0.033930
v 0.086591 0.863409 0.004359
v 0.044144 0.905856 -0.013851
v 0.023890 0.892323 0.613851
v 0.046863 0.836863 0.595641
v 0.068034 0.785750 0.566070
v 0.086591 0.740950 0.526274
v 0.101821 0.704183 0.477782
v 0.113137 0.676863 0.422459
v 0.120106 0.660039 0.362429
v 0.122459 0.654359 0.300000
v 0.120106 0.660039 0.237571
v 0.113137 0.676863 0.177541
v 0.101821 0.704183 0.122218
v 0.086591 0.740950 0.073726
v 0.068034 0.785750 0.033930
v 0.046863 0.836863 0.004359
v 0.023890 0.892323 -0.013851
v -0.000000 0.887571 0.613851
v -0.000000 0.827541 0.595641
v -0.000000 0.772218 0.566070
v -0.000000 0.723726 0.526274
v -0.000000 0.683930 0.477782
v -0.000000 0.654359 0.422459
v -0.000000 0.636149 0.362429
v -0.000000 0.630000 0.300000
v -0.000000 0.636149 0.237571
v -0.000000 0.654359 0.177541
v -0.000000 0.683930 0.122218
v -0.000000 0.723726 0.073726
v -0.000000 0.772218 0.033930
v -0.000000 0.827541 0.004359
v -0.000000 0.887571 -0.013851
v -0.023891 0.892323 0.613851
v -0.046863 0.836863 0.595641
v -0.068034 0.785750 0.566070
v -0.086591 0.740950 0.526274
v -0.101821 0.704183 0.477782
v -0.113137 0.676863 0.422459
v -0.120106 0.660039 0.362429
v -0.122459 0.654359 0.300000
v -0.120106 0.660039 0.237571
v -0.113137 0.676863 0.177541
v -0.101821 0.704183 0.122218
v -0.086591 0.740950 0.073726
v -0.068034 0.785750 0.033930
v -0.046863 0.836863 0.004359
v -0.023891 0.892323 -0.013851
v -0.044144 0.905856 0.613851
v -0.086591 0.863409 0.595641
v -0.125711 0.824289 0.566070
v -0.160000 0.790000 0.526274
v -0.188140 0.761860 0.477782
v -0.209050 0.740950 0.422459
v -0.221926 0.728074 0.362429
v -0.226274 0.723726 0.300000
v -0.221926 0.728074 0.237571
v -0.209050 0.740950 0.177541
v -0.188140 0.761860 0.122218
v -0.160000 0.790000 0.073726
v -0.125711 0.824289 0.033930
v -0.086591 0.863409 0.004359
v -0.044144 0.905856 -0.013851
v -0.057677 0.926109 0.613851
v -0.113137 0.903137 0.595641
v -0.164250 0.881966 0.566070
v -0.209050 0.863409 0.526274
v -0.245817 0.848179 0.477782
v -0.273137 0.836863 0.422459
v -0.289961 0.829894 0.362429
v -0.295641 0.827541 0.300000
v -0.289961 0.829894 0.237571
v -0.273137 0.836863 0.177541
v -0.245817 0.848179 0.122218
v -0.209050 0.863409 0.073726
v -0.164250 0.881966 0.033930
v -0.113137 0.903137 0.004359
v -0.057677 0.926109 -0.013851
v -0.062429 0.950000 0.613851
v -0.122459 0.950000 0.595641
v -0.177782 0.950000 0.566070
v -0.226274 0.950000 0.526274
v -0.266070 0.950000 0.477782
v -0.295641 0.950000 0.422459
v -0.313851 0.950000 0.362429
v -0.320000 0.950000 0.300000
v -0.313851 0.950000 0.237571
v -0.295641 0.950000 0.177541
v -0.266070 0.950000 0.122218
v -0.226274 0.950000 0.073726
v -0.177782 0.950000 0.033930
v -0.122459 0.950000 0.004359
v -0.062429 0.950000 -0.013851
v -0.057677 0.973891 0.613851
v -0.113137 0.996863 0.595641
v -0.164250 1.018034 0.566070
v -0.209050 1.036591 0.526274
v -0.245817 1.051821 0.477782
v -0.273137 1.063137 0.422459
v -0.289961 1.070106 0.362429
v -0.295641 1.072459 0.300000
v -0.289961 1.070106 0.237571
v -0.273137 1.063137 0.177541
v -0.245817 1.051821 0.122218
v -0.209050 1.036591 0.073726
v -0.164250 1.018034 0.033930
v -0.113137 0.996863 0.004359
v -0.057677 0.973891 -0.013851
v -0.044144 0.994144 0.613851
v -0.086591 1.036591 0.595641
v -0.125711 1.075711 0.566070
v -0.160000 1.110000 0.526274
v -0.188140 1.138140 0.477782
v -0.209050 1.159050 0.422459
v -0.221926 1.171926 0.362429
v -0.226274 1.176274 0.300000
v -0.221926 1.171926 0.237571
v -0.209050 1.159050 0.177541
v -0.188140 1.138140 0.122218
v -0.160000 1.110000 0.073726
v -0.125711 1.075711 0.033930
v -0.086591 1.036591 0.004359
v -0.044144 0.994144 -0.013851
v -0.023890 1.007677 0.613851
v -0.046863 1.063137 0.595641
v -0.068034 1.114250 0.566070
v -0.086591 1.159050 0.526274
v -0.101821 1.195817 0.477782
v -0.113137 1.223137 0.422459
v -0.120105 1.239961 0.362429
v -0.122459 1.245641 0.300000
v -0.120105 1.239961 0.237571
v -0.113137 1.223137 0.177541
v -0.101821 1.195817 0.122218
v -0.086591 1.159050 0.073726
v -0.068034 1.114250 0.033930
v -0.046863 1.063137 0.004359
v -0.023890 1.007677 -0.013851
v 0.000000 1.072459 0.595641
v 0.000000 1.127782 0.566070
v 0.000000 1.270000 0.300000
v 0.000000 1.245641 0.177541
v 0.000000 1.176274 0.073726
vn 0.1870 0.9401 0.2852
vn 0.0576 0.2898 -0.9553
vn 0.1942 0.9762 0.0962
vn 0.0195 0.0980 0.9950
vn 0.0195 0.0980 -0.9950
vn 0.1942 0.9762 -0.0962
vn 0.0576 0.2898 0.9553
vn 0.1870 0.9401 -0.2852
vn 0.0934 0.4693 0.8781
vn 0.1728 0.8687 -0.4643
vn 0.1252 0.6294 0.7669
vn 0.1520 0.7640 -0.6270
vn 0.1520 0.7640 0.6270
vn 0.1252 0.6294 -0.7669
vn 0.1728 0.8687 0.4643
vn 0.0934 0.4693 -0.8781
vn 0.4921 0.7364 0.4643
vn 0.2659 0.3979 -0.8781
vn 0.5325 0.7969 0.2852
vn 0.1642 0.2457 -0.9553
vn 0.5530 0.8276 0.0962
vn 0.0555 0.0831 0.9950
vn 0.0555 0.0831 -0.9950
vn 0.5530 0.8276 -0.0962
vn 0.1642 0.2457 0.9553
vn 0.5325 0.7969 -0.2852
vn 0.2659 0.3979 0.8781
vn 0.4921 0.7364 -0.4643
vn 0.3565 0.5336 0.7669
vn 0.4328 0.6477 -0.6270
vn 0.4328 0.6477 0.6270
vn 0.3565 0.5336 -0.7669
vn 0.7969 0.5325 -0.2852
vn 0.3979 0.2659 0.8781
vn 0.7364 0.4921 -0.4643
vn 0.5336 0.3565 0.7669
vn 0.6477 0.4328 -0.6270
vn 0.6477 0.4328 0.6270
vn 0.5336 0.3565 -0.7669
vn 0.7364 0.4921 0.4643
vn 0.3979 0.2659 -0.8781
vn 0.7969 0.5325 0.2852
vn 0.2457 0.1642 -0.9553
vn 0.8276 0.5530 0.0962
vn 0.0831 0.0555 0.9950
vn 0.0831 0.0555 -0.9950
vn 0.8276 0.5530 -0.0962
vn 0.2457 0.1642 0.9553
vn 0.4693 0.0934 -0.8781
vn 0.9401 0.1870 0.2852
vn 0.2898 0.0576 -0.9553
vn 0.9762 0.1942 0.0962
vn 0.0980 0.0195 0.9950
vn 0.0980 0.0195 -0.9950
vn 0.9762 0.1942 -0.0962
vn 0.2898 0.0576 0.9553
vn 0.9401 0.1870 -0.2852
vn 0.4693 0.0934 0.8781
vn 0.8687 0.1728 -0.4643
vn 0.6294 0.1252 0.7669
vn 0.7640 0.1520 -0.6270
vn 0.7640 0.1520 0.6270
vn 0.6294 0.1252 -0.7669
vn 0.8687 0.1728 0.4643
vn 0.4693 -0.0934 0.8781
vn 0.8687 -0.1728 -0.4643
vn 0.6294 -0.1252 0.7669
vn 0.7640 -0.1520 -0.6270
vn 0.7640 -0.1520 0.6270
vn 0.6294 -0.1252 -0.7669
vn 0.8687 -0.1728 0.4643
vn 0.4693 -0.0934 -0.8781
vn 0.9401 -0.1870 0.2852
vn 0.2898 -0.0576 -0.9553
vn 0.9762 -0.1942 0.0962
vn 0.0980 -0.0195 0.9950
vn 0.0980 -0.0195 -0.9950
vn 0.9762 -0.1942 -0.0962
vn 0.2898 -0.0576 0.9553
vn 0.9401 -0.1870 -0.2852
vn 0.7969 -0.5325 0.2852
vn 0.2457 -0.1642 -0.9553
vn 0.8276 -0.5530 0.0962
vn 0.0831 -0.0555 0.9950
vn 0.0831 -0.0555 -0.9950
vn 0.8276 -0.5530 -0.0962
vn 0.2457 -0.1642 0.9553
vn 0.7969 -0.5325 -0.2852
vn 0.3979 -0.2659 0.8781
vn 0.7364 -0.4921 -0.4643
vn 0.5336 -0.3565 0.7669
vn 0.6477 -0.4328 -0.6270
vn 0.6477 -0.4328 0.6270
vn 0.5336 -0.3565 -0.7669
vn 0.7364 -0.4921 0.4643
vn 0.3979 -0.2659 -0.8781
vn 0.4921 -0.7364 -0.4643
vn 0.3565 -0.5336 0.7669
vn 0.4328 -0.6477 -0.6270
vn 0.4328 -0.6477 0.6270
vn 0.3565 -0.5336 -0.7669
vn 0.4921 -0.7364 0.4643
vn 0.2659 -0.3979 -0.8781
vn 0.5325 -0.7969 0.2852
vn 0.1642 -0.2457 -0.9553
vn 0.5530 -0.8276 0.0962
vn 0.0555 -0.0831 0.9950
vn 0.0555 -0.0831 -0.9950
vn 0.5530 -0.8276 -0.0962
vn 0.1642 -0.2457 0.9553
vn 0.5325 -0.7969 -0.2852
vn 0.2659 -0.3979 0.8781
vn 0.0576 -0.2898 -0.9553
vn 0.1942 -0.9762 0.0962
vn 0.0195 -0.0980 0.9950
vn 0.0195 -0.0980 -0.9950
vn 0.1942 -0.9762 -0.0962
vn 0.0576 -0.2898 0.9553
vn 0.1870 -0.9401 -0.2852
vn 0.0934 -0.4693 0.8781
vn 0.1728 -0.8687 -0.4643
vn 0.1252 -0.6294 0.7669
vn 0.1520 -0.7640 -0.6270
vn 0.1520 -0.7640 0.6270
vn 0.1252 -0.6294 -0.7669
vn 0.1728 -0.8687 0.4643
vn 0.0934 -0.4693 -0.8781
vn 0.1870 -0.9401 0.2852
vn -0.1520 -0.7640 -0.6270
vn -0.1520 -0.7640 0.6270
vn -0.1252 -0.6294 -0.7669
vn -0.1728 -0.8687 0.4643
vn -0.0934 -0.4693 -0.8781
vn -0.1870 -0.9401 0.2852
vn -0.0576 -0.2898 -0.9553
vn -0.1942 -0.9762 0.0962
vn -0.0195 -0.0980 0.9950
vn -0.0195 -0.0980 -0.9950
vn -0.1942 -0.9762 -0.0962
vn -0.0576 -0.2898 0.9553
vn -0.1870 -0.9401 -0.2852
vn -0.0934 -0.4693 0.8781
vn -0.1728 -0.8687 -0.4643
vn -0.1252 -0.6294 0.7669
vn -0.0555 -0.0831 0.9950
vn -0.0555 -0.0831 -0.9950
vn -0.5530 -0.8276 -0.0962
vn -0.1642 -0.2457 0.9553
vn -0.5325 -0.7969 -0.2852
vn -0.2659 -0.3979 0.8781
vn -0.4921 -0.7364 -0.4643
vn -0.3565 -0.5336 0.7669
vn -0.4328 -0.6477 -0.6270
vn -0.4328 -0.6477 0.6270
vn -0.3565 -0.5336 -0.7669
vn -0.4921 -0.7364 0.4643
vn -0.2659 -0.3979 -0.8781
vn -0.5325 -0.7969 0.2852
vn -0.1642 -0.2457 -0.9553
vn -0.5530 -0.8276 0.0962
vn -0.6477 -0.4328 0.6270
vn -0.5336 -0.3565 -0.7669
vn -0.7364 -0.4921 0.4643
vn -0.3979 -0.2659 -0.8781
vn -0.7969 -0.5325 0.2852
vn -0.2457 -0.1642 -0.9553
vn -0.8276 -0.5530 0.0962
vn -0.0831 -0.0555 0.9950
vn -0.0831 -0.0555 -0.9950
vn -0.8276 -0.5530 -0.0962
vn -0.2457 -0.1642 0.9553
vn -0.7969 -0.5325 -0.2852
vn -0.3979 -0.2659 0.8781
vn -0.7364 -0.4921 -0.4643
vn -0.5336 -0.3565 0.7669
vn -0.6477 -0.4328 -0.6270
vn -0.9762 -0.1942 -0.0962
vn -0.2898 -0.0576 0.9553
vn -0.9401 -0.1870 -0.2852
vn -0.4693 -0.0934 0.8781
vn -0.8687 -0.1728 -0.4643
vn -0.6294 -0.1252 0.7669
vn -0.7640 -0.1520 -0.6270
vn -0.7640 -0.1520 0.6270
vn -0.6294 -0.1252 -0.7669
vn -0.8687 -0.1728 0.4643
vn -0.4693 -0.0934 -0.8781
vn -0.9401 -0.1870 0.2852
vn -0.2898 -0.0576 -0.9553
vn -0.9762 -0.1942 0.0962
vn -0.0980 -0.0195 0.9950
vn -0.0980 -0.0195 -0.9950
vn -0.6294 0.1252 -0.7669
vn -0.8687 0.1728 0.4643
vn -0.4693 0.0934 -0.8781
vn -0.9401 0.1870 0.2852
vn -0.2898 0.0576 -0.9553
vn -0.9762 0.1942 0.0962
vn -0.0980 0.0195 0.9950
vn -0.0980 0.0195 -0.9950
vn -0.9762 0.1942 -0.0962
vn -0.2898 0.0576 0.9553
vn -0.9401 0.1870 -0.2852
vn -0.4693 0.0934 0.8781
vn -0.8687 0.1728 -0.4643
vn -0.6294 0.1252 0.7669
vn -0.7640 0.1520 -0.6270
vn -0.7640 0.1520 0.6270
vn -0.2457 0.1642 0.9553
vn -0.7969 0.5325 -0.2852
vn -0.3979 0.2659 0.8781
vn -0.7364 0.4921 -0.4643
vn -0.5336 0.3565 0.7669
vn -0.6477 0.4328 -0.6270
vn -0.6477 0.4328 0.6270
vn -0.5336 0.3565 -0.7669
vn -0.7364 0.4921 0.4643
vn -0.3979 0.2659 -0.8781
vn -0.7969 0.5325 0.2852
vn -0.2457 0.1642 -0.9553
vn -0.8276 0.5530 0.0962
vn -0.0831 0.0555 0.9950
vn -0.0831 0.0555 -0.9950
vn -0.8276 0.5530 -0.0962
vn -0.4921 0.7364 0.4643
vn -0.2659 0.3979 -0.8781
vn -0.5325 0.7969 0.2852
vn -0.1642 0.2457 -0.9553
vn -0.5530 0.8276 0.0962
vn -0.0555 0.0831 0.9950
vn -0.0555 0.0831 -0.9950
vn -0.5530 0.8276 -0.0962
vn -0.1642 0.2457 0.9553
vn -0.5325 0.7969 -0.2852
vn -0.2659 0.3979 0.8781
vn -0.4921 0.7364 -0.4643
vn -0.3565 0.5336 0.7669
vn -0.4328 0.6477 -0.6270
vn -0.4328 0.6477 0.6270
vn -0.3565 0.5336 -0.7669
vn -0.1870 0.9401 -0.2852
vn -0.0934 0.4693 0.8781
vn -0.1728 0.8687 -0.4643
vn -0.1252 0.6294 0.7669
vn -0.1520 0.7640 -0.6270
vn -0.1520 0.7640 0.6270
vn -0.1252 0.6294 -0.7669
vn -0.1728 0.8687 0.4643
vn -0.0934 0.4693 -0.8781
vn -0.1870 0.9401 0.2852
vn -0.0576 0.2898 -0.9553
vn -0.1942 0.9762 0.0962
vn -0.0195 0.0980 0.9950
vn -0.0195 0.0980 -0.9950
vn -0.1942 0.9762 -0.0962
vn -0.0576 0.2898 0.9553
vt 0.750000 0.562500
vt 0.750000 0.625000
vt 0.687500 0.625000
vt 0.687500 0.562500
vt 0.750000 0.062500
vt 0.750000 0.125000
vt 0.687500 0.125000
vt 0.687500 0.062500
vt 0.750000 0.500000
vt 0.687500 0.500000
vt 0.750000 0.937500
vt 0.718750 1.000000
vt 0.687500 0.937500
vt 0.718750 0.000000
vt 0.750000 0.437500
vt 0.687500 0.437500
vt 0.750000 0.875000
vt 0.687500 0.875000
vt 0.750000 0.375000
vt 0.687500 0.375000
vt 0.750000 0.812500
vt 0.687500 0.812500
vt 0.750000 0.312500
vt 0.687500 0.312500
vt 0.750000 0.750000
vt 0.687500 0.750000
vt 0.750000 0.250000
vt 0.687500 0.250000
vt 0.750000 0.687500
vt 0.687500 0.687500
vt 0.750000 0.187500
vt 0.687500 0.187500
vt 0.625000 0.687500
vt 0.625000 0.625000
vt 0.625000 0.187500
vt 0.625000 0.125000
vt 0.625000 0.562500
vt 0.625000 0.062500
vt 0.625000 0.500000
vt 0.656250 1.000000
vt 0.625000 0.937500
vt 0.656250 0.000000
vt 0.625000 0.437500
vt 0.625000 0.875000
vt 0.625000 0.375000
vt 0.625000 0.812500
vt 0.625000 0.312500
vt 0.625000 0.750000
vt 0.625000 0.250000
vt 0.562500 0.437500
vt 0.562500 0.375000
vt 0.562500 0.875000
vt 0.562500 0.812500
vt 0.562500 0.312500
vt 0.562500 0.750000
vt 0.562500 0.250000
vt 0.562500 0.687500
vt 0.562500 0.187500
vt 0.562500 0.625000
vt 0.562500 0.125000
vt 0.562500 0.562500
vt 0.562500 0.062500
vt 0.562500 0.500000
vt 0.593750 1.000000
vt 0.562500 0.937500
vt 0.593750 0.000000
vt 0.500000 0.187500
vt 0.500000 0.125000
vt 0.500000 0.625000
vt 0.500000 0.562500
vt 0.500000 0.062500
vt 0.500000 0.500000
vt 0.531250 1.000000
vt 0.500000 0.937500
vt 0.531250 0.000000
vt 0.500000 0.437500
vt 0.500000 0.875000
vt 0.500000 0.375000
vt 0.500000 0.812500
vt 0.500000 0.312500
vt 0.500000 0.750000
vt 0.500000 0.250000
vt 0.500000 0.687500
vt 0.437500 0.875000
vt 0.437500 0.812500
vt 0.437500 0.375000
vt 0.437500 0.312500
vt 0.437500 0.750000
vt 0.437500 0.250000
vt 0.437500 0.687500
vt 0.437500 0.187500
vt 0.437500 0.625000
vt 0.437500 0.125000
vt 0.437500 0.562500
vt 0.437500 0.062500
vt 0.437500 0.500000
vt 0.468750 1.000000
vt 0.437500 0.937500
vt 0.468750 0.000000
vt 0.437500 0.437500
vt 0.375000 0.625000
vt 0.375000 0.562500
vt 0.375000 0.125000
vt 0.375000 0.062500
vt 0.375000 0.500000
vt 0.406250 1.000000
vt 0.375000 0.937500
vt 0.406250 0.000000
vt 0.375000 0.437500
vt 0.375000 0.875000
vt 0.375000 0.375000
vt 0.375000 0.812500
vt 0.375000 0.312500
vt 0.375000 0.750000
vt 0.375000 0.250000
vt 0.375000 0.687500
vt 0.375000 0.187500
vt 0.312500 0.375000
vt 0.312500 0.312500
vt 0.312500 0.812500
vt 0.312500 0.750000
vt 0.312500 0.250000
vt 0.312500 0.687500
vt 0.312500 0.187500
vt 0.312500 0.625000
vt 0.312500 0.125000
vt 0.312500 0.562500
vt 0.312500 0.062500
vt 0.312500 0.500000
vt 0.343750 1.000000
vt 0.312500 0.937500
vt 0.343750 0.000000
vt 0.312500 0.437500
vt 0.312500 0.875000
vt 0.250000 0.125000
vt 0.250000 0.062500
vt 0.250000 0.562500
vt 0.250000 0.500000
vt 0.281250 1.000000
vt 0.250000 0.937500
vt 0.281250 0.000000
vt 0.250000 0.437500
vt 0.250000 0.875000
vt 0.250000 0.375000
vt 0.250000 0.812500
vt 0.250000 0.312500
vt 0.250000 0.750000
vt 0.250000 0.250000
vt 0.250000 0.687500
vt 0.250000 0.187500
vt 0.250000 0.625000
vt 0.187500 0.312500
vt 0.187500 0.250000
vt 0.187500 0.750000
vt 0.187500 0.687500
vt 0.187500 0.187500
vt 0.187500 0.625000
vt 0.187500 0.125000
vt 0.187500 0.562500
vt 0.187500 0.062500
vt 0.187500 0.500000
vt 0.218750 1.000000
vt 0.187500 0.937500
vt 0.218750 0.000000
vt 0.187500 0.437500
vt 0.187500 0.875000
vt 0.187500 0.375000
vt 0.187500 0.812500
vt 0.156250 1.000000
vt 0.125000 0.937500
vt 0.156250 0.000000
vt 0.125000 0.062500
vt 0.125000 0.500000
vt 0.125000 0.437500
vt 0.125000 0.875000
vt 0.125000 0.375000
vt 0.125000 0.812500
vt 0.125000 0.312500
vt 0.125000 0.750000
vt 0.125000 0.250000
vt 0.125000 0.687500
vt 0.125000 0.187500
vt 0.125000 0.625000
vt 0.125000 0.125000
vt 0.125000 0.562500
vt 0.062500 0.750000
vt 0.062500 0.687500
vt 0.062500 0.250000
vt 0.062500 0.187500
vt 0.062500 0.625000
vt 0.062500 0.125000
vt 0.062500 0.562500
vt 0.062500 0.062500
vt 0.062500 0.500000
vt 0.093750 1.000000
vt 0.062500 0.937500
vt 0.093750 0.000000
vt 0.062500 0.437500
vt 0.062500 0.875000
vt 0.062500 0.375000
vt 0.062500 0.812500
vt 0.062500 0.312500
vt 0.000000 0.500000
vt 0.000000 0.437500
vt 0.000000 0.937500
vt 0.000000 0.875000
vt 0.000000 0.375000
vt 0.000000 0.812500
vt 0.000000 0.312500
vt 0.000000 0.750000
vt 0.000000 0.250000
vt 0.000000 0.687500
vt 0.000000 0.187500
vt 0.000000 0.625000
vt 0.000000 0.125000
vt 0.000000 0.562500
vt 0.000000 0.062500
vt 0.031250 1.000000
vt 0.031250 0.000000
vt 1.000000 0.187500
vt 1.000000 0.250000
vt 0.937500 0.250000
vt 0.937500 0.187500
vt 1.000000 0.625000
vt 1.000000 0.687500
vt 0.937500 0.687500
vt 0.937500 0.625000
vt 1.000000 0.125000
vt 0.937500 0.125000
vt 1.000000 0.562500
vt 0.937500 0.562500
vt 1.000000 0.062500
vt 0.937500 0.062500
vt 1.000000 0.500000
vt 0.937500 0.500000
vt 1.000000 0.937500
vt 0.968750 1.000000
vt 0.937500 0.937500
vt 0.968750 0.000000
vt 1.000000 0.437500
vt 0.937500 0.437500
vt 1.000000 0.875000
vt 0.937500 0.875000
vt 1.000000 0.375000
vt 0.937500 0.375000
vt 1.000000 0.812500
vt 0.937500 0.812500
vt 1.000000 0.312500
vt 0.937500 0.312500
vt 1.000000 0.750000
vt 0.937500 0.750000
vt 0.875000 0.937500
vt 0.875000 0.875000
vt 0.875000 0.437500
vt 0.875000 0.375000
vt 0.875000 0.812500
vt 0.875000 0.312500
vt 0.875000 0.750000
vt 0.875000 0.250000
vt 0.875000 0.687500
vt 0.875000 0.187500
vt 0.875000 0.625000
vt 0.875000 0.125000
vt 0.875000 0.562500
vt 0.875000 0.062500
vt 0.875000 0.500000
vt 0.906250 1.000000
vt 0.906250 0.000000
vt 0.812500 0.687500
vt 0.812500 0.625000
vt 0.812500 0.187500
vt 0.812500 0.125000
vt 0.812500 0.562500
vt 0.812500 0.062500
vt 0.812500 0.500000
vt 0.843750 1.000000
vt 0.812500 0.937500
vt 0.843750 0.000000
vt 0.812500 0.437500
vt 0.812500 0.875000
vt 0.812500 0.375000
vt 0.812500 0.812500
vt 0.812500 0.312500
vt 0.812500 0.750000
vt 0.812500 0.250000
vt 0.781250 1.000000
vt 0.781250 0.000000
s 0
usemtl Demon_Magma
f 348/476/349 347/477/349 360/478/349 361/479/349
f 353/480/350 352/481/350 368/482/350 369/483/350
f 582/484/351 348/476/351 361/479/351 362/485/351
f 344/486/352 343/487/352 355/488/352
f 354/489/353 353/480/353 369/483/353
f 349/490/354 582/484/354 362/485/354 363/491/354
f 580/492/355 344/486/355 355/488/355 356/493/355
f 583/494/356 349/490/356 363/491/356 364/495/356
f 581/496/357 580/492/357 356/493/357 357/497/357
f 350/498/358 583/494/358 364/495/358 365/499/358
f 345/500/359 581/496/359 357/497/359 358/501/359
f 584/502/360 350/498/360 365/499/360 366/503/360
f 346/504/361 345/500/361 358/501/361 359/505/361
f 351/506/362 584/502/362 366/503/362 367/507/362
f 347/477/363 346/504/363 359/505/363 360/478/363
f 352/481/364 351/506/364 367/507/364 368/482/364
f 360/478/365 359/505/365 374/508/365 375/509/365
f 368/482/366 367/507/366 382/510/366 383/511/366
f 361/479/367 360/478/367 375/509/367 376/512/367
f 369/483/368 368/482/368 383/511/368 384/513/368
f 362/485/369 361/479/369 376/512/369 377/514/369
f 355/488/370 343/515/370 370/516/370
f 354/517/371 369/483/371 384/513/371
f 363/491/372 362/485/372 377/514/372 378/518/372
f 356/493/373 355/488/373 370/516/373 371/519/373
f 364/495/374 363/491/374 378/518/374 379/520/374
f 357/497/375 356/493/375 371/519/375 372/521/375
f 365/499/376 364/495/376 379/520/376 380/522/376
f 358/501/377 357/497/377 372/521/377 373/523/377
f 366/503/378 365/499/378 380/522/378 381/524/378
f 359/505/379 358/501/379 373/523/379 374/508/379
f 367/507/380 366/503/380 381/524/380 382/510/380
f 379/520/381 378/518/381 393/525/381 394/526/381
f 372/521/382 371/519/382 386/527/382 387/528/382
f 380/522/383 379/520/383 394/526/383 395/529/383
f 373/523/384 372/521/384 387/528/384 388/530/384
f 381/524/385 380/522/385 395/529/385 396/531/385
f 374/508/386 373/523/386 388/530/386 389/532/386
f 382/510/387 381/524/387 396/531/387 397/533/387
f 375/509/388 374/508/388 389/532/388 390/534/388
f 383/511/389 382/510/389 397/533/389 398/535/389
f 376/512/390 375/509/390 390/534/390 391/536/390
f 384/513/391 383/511/391 398/535/391 399/537/391
f 377/514/392 376/512/392 391/536/392 392/538/392
f 370/516/393 343/539/393 385/540/393
f 354/541/394 384/513/394 399/537/394
f 378/518/395 377/514/395 392/538/395 393/525/395
f 371/519/396 370/516/396 385/540/396 386/527/396
f 398/535/397 397/533/397 412/542/397 413/543/397
f 391/536/398 390/534/398 405/544/398 406/545/398
f 399/537/399 398/535/399 413/543/399 414/546/399
f 392/538/400 391/536/400 406/545/400 407/547/400
f 385/540/401 343/548/401 400/549/401
f 354/550/402 399/537/402 414/546/402
f 393/525/403 392/538/403 407/547/403 408/551/403
f 386/527/404 385/540/404 400/549/404 401/552/404
f 394/526/405 393/525/405 408/551/405 409/553/405
f 387/528/406 386/527/406 401/552/406 402/554/406
f 395/529/407 394/526/407 409/553/407 410/555/407
f 388/530/408 387/528/408 402/554/408 403/556/408
f 396/531/409 395/529/409 410/555/409 411/557/409
f 389/532/410 388/530/410 403/556/410 404/558/410
f 397/533/411 396/531/411 411/557/411 412/542/411
f 390/534/412 389/532/412 404/558/412 405/544/412
f 402/554/413 401/552/413 416/559/413 417/560/413
f 410/555/414 409/553/414 424/561/414 425/562/414
f 403/556/415 402/554/415 417/560/415 418/563/415
f 411/557/416 410/555/416 425/562/416 426/564/416
f 404/558/417 403/556/417 418/563/417 419/565/417
f 412/542/418 411/557/418 426/564/418 427/566/418
f 405/544/419 404/558/419 419/565/419 420/567/419
f 413/543/420 412/542/420 427/566/420 428/568/420
f 406/545/421 405/544/421 420/567/421 421/569/421
f 414/546/422 413/543/422 428/568/422 429/570/422
f 407/547/423 406/545/423 421/569/423 422/571/423
f 400/549/424 343/572/424 415/573/424
f 354/574/425 414/546/425 429/570/425
f 408/551/426 407/547/426 422/571/426 423/575/426
f 401/552/427 400/549/427 415/573/427 416/559/427
f 409/553/428 408/551/428 423/575/428 424/561/428
f 421/569/429 420/567/429 435/576/429 436/577/429
f 429/570/430 428/568/430 443/578/430 444/579/430
f 422/571/431 421/569/431 436/577/431 437/580/431
f 415/573/432 343/581/432 430/582/432
f 354/583/433 429/570/433 444/579/433
f 423/575/434 422/571/434 437/580/434 438/584/434
f 416/559/435 415/573/435 430/582/435 431/585/435
f 424/561/436 423/575/436 438/584/436 439/586/436
f 417/560/437 416/559/437 431/585/437 432/587/437
f 425/562/438 424/561/438 439/586/438 440/588/438
f 418/563/439 417/560/439 432/587/439 433/589/439
f 426/564/440 425/562/440 440/588/440 441/590/440
f 419/565/441 418/563/441 433/589/441 434/591/441
f 427/566/442 426/564/442 441/590/442 442/592/442
f 420/567/443 419/565/443 434/591/443 435/576/443
f 428/568/444 427/566/444 442/592/444 443/578/444
f 440/588/445 439/586/445 454/593/445 455/594/445
f 433/589/446 432/587/446 447/595/446 448/596/446
f 441/590/447 440/588/447 455/594/447 456/597/447
f 434/591/448 433/589/448 448/596/448 449/598/448
f 442/592/449 441/590/449 456/597/449 457/599/449
f 435/576/450 434/591/450 449/598/450 450/600/450
f 443/578/451 442/592/451 457/599/451 458/601/451
f 436/577/452 435/576/452 450/600/452 451/602/452
f 444/579/453 443/578/453 458/601/453 459/603/453
f 437/580/454 436/577/454 451/602/454 452/604/454
f 430/582/455 343/605/455 445/606/455
f 354/607/456 444/579/456 459/603/456
f 438/584/457 437/580/457 452/604/457 453/608/457
f 431/585/458 430/582/458 445/606/458 446/609/458
f 439/586/459 438/584/459 453/608/459 454/593/459
f 432/587/460 431/585/460 446/609/460 447/595/460
f 459/603/461 458/601/461 473/610/461 474/611/461
f 452/604/462 451/602/462 466/612/462 467/613/462
f 445/606/463 343/614/463 460/615/463
f 354/616/464 459/603/464 474/611/464
f 453/608/465 452/604/465 467/613/465 468/617/465
f 446/609/466 445/606/466 460/615/466 461/618/466
f 454/593/467 453/608/467 468/617/467 469/619/467
f 447/595/468 446/609/468 461/618/468 462/620/468
f 455/594/469 454/593/469 469/619/469 470/621/469
f 448/596/470 447/595/470 462/620/470 463/622/470
f 456/597/471 455/594/471 470/621/471 471/623/471
f 449/598/472 448/596/472 463/622/472 464/624/472
f 457/599/473 456/597/473 471/623/473 472/625/473
f 450/600/474 449/598/474 464/624/474 465/626/474
f 458/601/475 457/599/475 472/625/475 473/610/475
f 451/602/476 450/600/476 465/626/476 466/612/476
f 471/623/477 470/621/477 485/627/477 486/628/477
f 464/624/478 463/622/478 478/629/478 479/630/478
f 472/625/479 471/623/479 486/628/479 487/631/479
f 465/626/480 464/624/480 479/630/480 480/632/480
f 473/610/481 472/625/481 487/631/481 488/633/481
f 466/612/482 465/626/482 480/632/482 481/634/482
f 474/611/483 473/610/483 488/633/483 489/635/483
f 467/613/484 466/612/484 481/634/484 482/636/484
f 460/615/485 343/637/485 475/638/485
f 354/639/486 474/611/486 489/635/486
f 468/617/487 467/613/487 482/636/487 483/640/487
f 461/618/488 460/615/488 475/638/488 476/641/488
f 469/619/489 468/617/489 483/640/489 484/642/489
f 462/620/490 461/618/490 476/641/490 477/643/490
f 470/621/491 469/619/491 484/642/491 485/627/491
f 463/622/492 462/620/492 477/643/492 478/629/492
f 475/638/493 343/644/493 490/645/493
f 354/646/494 489/635/494 504/647/494
f 483/640/495 482/636/495 497/648/495 498/649/495
f 476/641/496 475/638/496 490/645/496 491/650/496
f 484/642/497 483/640/497 498/649/497 499/651/497
f 477/643/498 476/641/498 491/650/498 492/652/498
f 485/627/499 484/642/499 499/651/499 500/653/499
f 478/629/500 477/643/500 492/652/500 493/654/500
f 486/628/501 485/627/501 500/653/501 501/655/501
f 479/630/502 478/629/502 493/654/502 494/656/502
f 487/631/503 486/628/503 501/655/503 502/657/503
f 480/632/504 479/630/504 494/656/504 495/658/504
f 488/633/505 487/631/505 502/657/505 503/659/505
f 481/634/506 480/632/506 495/658/506 496/660/506
f 489/635/507 488/633/507 503/659/507 504/647/507
f 482/636/508 481/634/508 496/660/508 497/648/508
f 494/656/509 493/654/509 508/661/509 509/662/509
f 502/657/510 501/655/510 516/663/510 517/664/510
f 495/658/511 494/656/511 509/662/511 510/665/511
f 503/659/512 502/657/512 517/664/512 518/666/512
f 496/660/513 495/658/513 510/665/513 511/667/513
f 504/647/514 503/659/514 518/666/514 519/668/514
f 497/648/515 496/660/515 511/667/515 512/669/515
f 490/645/516 343/670/516 505/671/516
f 354/672/517 504/647/517 519/668/517
f 498/649/518 497/648/518 512/669/518 513/673/518
f 491/650/519 490/645/519 505/671/519 506/674/519
f 499/651/520 498/649/520 513/673/520 514/675/520
f 492/652/521 491/650/521 506/674/521 507/676/521
f 500/653/522 499/651/522 514/675/522 515/677/522
f 493/654/523 492/652/523 507/676/523 508/661/523
f 501/655/524 500/653/524 515/677/524 516/663/524
f 513/673/525 512/669/525 527/678/525 528/679/525
f 506/674/526 505/671/526 520/680/526 521/681/526
f 514/675/527 513/673/527 528/679/527 529/682/527
f 507/676/528 506/674/528 521/681/528 522/683/528
f 515/677/529 514/675/529 529/682/529 530/684/529
f 508/661/530 507/676/530 522/683/530 523/685/530
f 516/663/531 515/677/531 530/684/531 531/686/531
f 509/662/532 508/661/532 523/685/532 524/687/532
f 517/664/533 516/663/533 531/686/533 532/688/533
f 510/665/534 509/662/534 524/687/534 525/689/534
f 518/666/535 517/664/535 532/688/535 533/690/535
f 511/667/536 510/665/536 525/689/536 526/691/536
f 519/668/537 518/666/537 533/690/537 534/692/537
f 512/669/538 511/667/538 526/691/538 527/678/538
f 505/671/539 343/693/539 520/680/539
f 354/694/540 519/668/540 534/692/540
f 532/695/541 531/696/541 546/697/541 547/698/541
f 525/699/542 524/700/542 539/701/542 540/702/542
f 533/703/543 532/695/543 547/698/543 548/704/543
f 526/705/544 525/699/544 540/702/544 541/706/544
f 534/707/545 533/703/545 548/704/545 549/708/545
f 527/709/546 526/705/546 541/706/546 542/710/546
f 520/711/547 343/712/547 535/713/547
f 354/714/548 534/707/548 549/708/548
f 528/715/549 527/709/549 542/710/549 543/716/549
f 521/717/550 520/711/550 535/713/550 536/718/550
f 529/719/551 528/715/551 543/716/551 544/720/551
f 522/721/552 521/717/552 536/718/552 537/722/552
f 530/723/553 529/719/553 544/720/553 545/724/553
f 523/725/554 522/721/554 537/722/554 538/726/554
f 531/696/555 530/723/555 545/724/555 546/697/555
f 524/700/556 523/725/556 538/726/556 539/701/556
f 536/718/557 535/713/557 550/727/557 551/728/557
f 544/720/558 543/716/558 558/729/558 559/730/558
f 537/722/559 536/718/559 551/728/559 552/731/559
f 545/724/560 544/720/560 559/730/560 560/732/560
f 538/726/561 537/722/561 552/731/561 553/733/561
f 546/697/562 545/724/562 560/732/562 561/734/562
f 539/701/563 538/726/563 553/733/563 554/735/563
f 547/698/564 546/697/564 561/734/564 562/736/564
f 540/702/565 539/701/565 554/735/565 555/737/565
f 548/704/566 547/698/566 562/736/566 563/738/566
f 541/706/567 540/702/567 555/737/567 556/739/567
f 549/708/568 548/704/568 563/738/568 564/740/568
f 542/710/569 541/706/569 556/739/569 557/741/569
f 535/713/570 343/742/570 550/727/570
f 354/743/571 549/708/571 564/740/571
f 543/716/572 542/710/572 557/741/572 558/729/572
f 555/737/573 554/735/573 569/744/573 570/745/573
f 563/738/574 562/736/574 577/746/574 578/747/574
f 556/739/575 555/737/575 570/745/575 571/748/575
f 564/740/576 563/738/576 578/747/576 579/749/576
f 557/741/577 556/739/577 571/748/577 572/750/577
f 550/727/578 343/751/578 565/752/578
f 354/753/579 564/740/579 579/749/579
f 558/729/580 557/741/580 572/750/580 573/754/580
f 551/728/581 550/727/581 565/752/581 566/755/581
f 559/730/582 558/729/582 573/754/582 574/756/582
f 552/731/583 551/728/583 566/755/583 567/757/583
f 560/732/584 559/730/584 574/756/584 575/758/584
f 553/733/585 552/731/585 567/757/585 568/759/585
f 561/734/586 560/732/586 575/758/586 576/760/586
f 554/735/587 553/733/587 568/759/587 569/744/587
f 562/736/588 561/734/588 576/760/588 577/746/588
f 574/756/589 573/754/589 349/490/589 583/494/589
f 567/757/590 566/755/590 580/492/590 581/496/590
f 575/758/591 574/756/591 583/494/591 350/498/591
f 568/759/592 567/757/592 581/496/592 345/500/592
f 576/760/593 575/758/593 350/498/593 584/502/593
f 569/744/594 568/759/594 345/500/594 346/504/594
f 577/746/595 576/760/595 584/502/595 351/506/595
f 570/745/596 569/744/596 346/504/596 347/477/596
f 578/747/597 577/746/597 351/506/597 352/481/597
f 571/748/598 570/745/598 347/477/598 348/476/598
f 579/749/599 578/747/599 352/481/599 353/480/599
f 572/750/600 571/748/600 348/476/600 582/484/600
f 565/752/601 343/761/601 344/486/601
f 354/762/602 579/749/602 353/480/602
f 573/754/603 572/750/603 582/484/603 349/490/603
f 566/755/604 565/752/604 344/486/604 580/492/604
o Pauldron_L
v -0.945000 1.090000 -0.240000
v -0.945000 1.090000 0.240000
v -0.945000 1.470000 -0.240000
v -0.945000 1.470000 0.240000
v -0.495000 1.090000 -0.240000
v -0.495000 1.090000 0.240000
v -0.495000 1.470000 -0.240000
v -0.495000 1.470000 0.240000
vn -1.0000 -0.0000 -0.0000
vn -0.0000 1.0000 -0.0000
vn 1.0000 -0.0000 -0.0000
vn -0.0000 -1.0000 -0.0000
vn -0.0000 -0.0000 -1.0000
vn -0.0000 -0.0000 1.0000
vt 0.375000 0.000000
vt 0.625000 0.000000
vt 0.625000 0.250000
vt 0.375000 0.250000
vt 0.625000 0.500000
vt 0.375000 0.500000
vt 0.625000 0.750000
vt 0.375000 0.750000
vt 0.625000 1.000000
vt 0.375000 1.000000
vt 0.125000 0.500000
vt 0.125000 0.750000
vt 0.875000 0.500000
vt 0.875000 0.750000
s 0
usemtl Demon_IronPlate
f 585/763/605 586/764/605 588/765/605 587/766/605
f 587/766/606 588/765/606 592/767/606 591/768/606
f 591/768/607 592/767/607 590/769/607 589/770/607
f 589/770/608 590/769/608 586/771/608 585/772/608
f 587/773/609 591/768/609 589/770/609 585/774/609
f 592/767/610 588/775/610 586/776/610 590/769/610
o Spike_L
v -0.800000 1.650000 -0.200000
v -0.761732 1.642388 -0.200000
v -0.729289 1.620711 -0.200000
v -0.707612 1.588268 -0.200000
v -0.700000 1.550000 -0.200000
v -0.707612 1.511732 -0.200000
v -0.729289 1.479289 -0.200000
v -0.761732 1.457612 -0.200000
v -0.800000 1.450000 -0.200000
v -0.838268 1.457612 -0.200000
v -0.870711 1.479289 -0.200000
v -0.892388 1.511732 -0.200000
v -0.900000 1.550000 -0.200000
v -0.892388 1.588268 -0.200000
v -0.870711 1.620711 -0.200000
v -0.838268 1.642388 -0.200000
v -0.800000 1.550000 0.200000
vn 0.1895 0.9526 0.2381
vn 0.5396 0.8075 0.2381
vn 0.8075 0.5396 0.2381
vn 0.9526 0.1895 0.2381
vn 0.9526 -0.1895 0.2381
vn 0.8075 -0.5396 0.2381
vn 0.5396 -0.8075 0.2381
vn 0.1895 -0.9526 0.2381
vn -0.1895 -0.9526 0.2381
vn -0.5396 -0.8075 0.2381
vn -0.8075 -0.5396 0.2381
vn -0.9526 -0.1895 0.2381
vn -0.9526 0.1895 0.2381
vn -0.8075 0.5396 0.2381
vn -0.0000 -0.0000 -1.0000
vn -0.5396 0.8075 0.2381
vn -0.1895 0.9526 0.2381
vt 0.250000 0.490000
vt 0.250000 0.250000
vt 0.341844 0.471731
vt 0.419706 0.419706
vt 0.471731 0.341844
vt 0.490000 0.250000
vt 0.471731 0.158156
vt 0.419706 0.080294
vt 0.341844 0.028269
vt 0.250000 0.010000
vt 0.158156 0.028269
vt 0.080294 0.080294
vt 0.028269 0.158156
vt 0.010000 0.250000
vt 0.028269 0.341844
vt 0.080294 0.419706
vt 0.750000 0.490000
vt 0.841844 0.471731
vt 0.919706 0.419706
vt 0.971731 0.341844
vt 0.990000 0.250000
vt 0.971731 0.158156
vt 0.919706 0.080294
vt 0.841844 0.028269
vt 0.750000 0.010000
vt 0.658156 0.028269
vt 0.580294 0.080294
vt 0.528269 0.158156
vt 0.510000 0.250000
vt 0.528269 0.341844
vt 0.580294 0.419706
vt 0.658156 0.471731
vt 0.158156 0.471731
s 0
usemtl Demon_Magma
f 593/777/611 609/778/611 594/779/611
f 594/779/612 609/778/612 595/780/612
f 595/780/613 609/778/613 596/781/613
f 596/781/614 609/778/614 597/782/614
f 597/782/615 609/778/615 598/783/615
f 598/783/616 609/778/616 599/784/616
f 599/784/617 609/778/617 600/785/617
f 600/785/618 609/778/618 601/786/618
f 601/786/619 609/778/619 602/787/619
f 602/787/620 609/778/620 603/788/620
f 603/788/621 609/778/621 604/789/621
f 604/789/622 609/778/622 605/790/622
f 605/790/623 609/778/623 606/791/623
f 606/791/624 609/778/624 607/792/624
f 593/793/625 594/794/625 595/795/625 596/796/625 597/797/625 598/798/625 599/799/625 600/800/625 601/801/625 602/802/625 603/803/625 604/804/625 605/805/625 606/806/625 607/807/625 608/808/625
f 607/792/626 609/778/626 608/809/626
f 608/809/627 609/778/627 593/777/627
o Pauldron_R
v 0.495000 1.090000 -0.240000
v 0.495000 1.090000 0.240000
v 0.495000 1.470000 -0.240000
v 0.495000 1.470000 0.240000
v 0.945000 1.090000 -0.240000
v 0.945000 1.090000 0.240000
v 0.945000 1.470000 -0.240000
v 0.945000 1.470000 0.240000
vn -1.0000 -0.0000 -0.0000
vn -0.0000 1.0000 -0.0000
vn 1.0000 -0.0000 -0.0000
vn -0.0000 -1.0000 -0.0000
vn -0.0000 -0.0000 -1.0000
vn -0.0000 -0.0000 1.0000
vt 0.375000 0.000000
vt 0.625000 0.000000
vt 0.625000 0.250000
vt 0.375000 0.250000
vt 0.625000 0.500000
vt 0.375000 0.500000
vt 0.625000 0.750000
vt 0.375000 0.750000
vt 0.625000 1.000000
vt 0.375000 1.000000
vt 0.125000 0.500000
vt 0.125000 0.750000
vt 0.875000 0.500000
vt 0.875000 0.750000
s 0
usemtl Demon_IronPlate
f 610/810/628 611/811/628 613/812/628 612/813/628
f 612/813/629 613/812/629 617/814/629 616/815/629
f 616/815/630 617/814/630 615/816/630 614/817/630
f 614/817/631 615/816/631 611/818/631 610/819/631
f 612/820/632 616/815/632 614/817/632 610/821/632
f 617/814/633 613/822/633 611/823/633 615/816/633
o Spike_R
v 0.800000 1.650000 -0.200000
v 0.838268 1.642388 -0.200000
v 0.870711 1.620711 -0.200000
v 0.892388 1.588268 -0.200000
v 0.900000 1.550000 -0.200000
v 0.892388 1.511732 -0.200000
v 0.870711 1.479289 -0.200000
v 0.838268 1.457612 -0.200000
v 0.800000 1.450000 -0.200000
v 0.761732 1.457612 -0.200000
v 0.729289 1.479289 -0.200000
v 0.707612 1.511732 -0.200000
v 0.700000 1.550000 -0.200000
v 0.707612 1.588268 -0.200000
v 0.729289 1.620711 -0.200000
v 0.761732 1.642388 -0.200000
v 0.800000 1.550000 0.200000
vn 0.1895 0.9526 0.2381
vn 0.5396 0.8075 0.2381
vn 0.8075 0.5396 0.2381
vn 0.9526 0.1895 0.2381
vn 0.9526 -0.1895 0.2381
vn 0.8075 -0.5396 0.2381
vn 0.5396 -0.8075 0.2381
vn 0.1895 -0.9526 0.2381
vn -0.1895 -0.9526 0.2381
vn -0.5396 -0.8075 0.2381
vn -0.8075 -0.5396 0.2381
vn -0.9526 -0.1895 0.2381
vn -0.9526 0.1895 0.2381
vn -0.8075 0.5396 0.2381
vn -0.0000 -0.0000 -1.0000
vn -0.5396 0.8075 0.2381
vn -0.1895 0.9526 0.2381
vt 0.250000 0.490000
vt 0.250000 0.250000
vt 0.341844 0.471731
vt 0.419706 0.419706
vt 0.471731 0.341844
vt 0.490000 0.250000
vt 0.471731 0.158156
vt 0.419706 0.080294
vt 0.341844 0.028269
vt 0.250000 0.010000
vt 0.158156 0.028269
vt 0.080294 0.080294
vt 0.028269 0.158156
vt 0.010000 0.250000
vt 0.028269 0.341844
vt 0.080294 0.419706
vt 0.750000 0.490000
vt 0.841844 0.471731
vt 0.919706 0.419706
vt 0.971731 0.341844
vt 0.990000 0.250000
vt 0.971731 0.158156
vt 0.919706 0.080294
vt 0.841844 0.028269
vt 0.750000 0.010000
vt 0.658156 0.028269
vt 0.580294 0.080294
vt 0.528269 0.158156
vt 0.510000 0.250000
vt 0.528269 0.341844
vt 0.580294 0.419706
vt 0.658156 0.471731
vt 0.158156 0.471731
s 0
usemtl Demon_Magma
f 618/824/634 634/825/634 619/826/634
f 619/826/635 634/825/635 620/827/635
f 620/827/636 634/825/636 621/828/636
f 621/828/637 634/825/637 622/829/637
f 622/829/638 634/825/638 623/830/638
f 623/830/639 634/825/639 624/831/639
f 624/831/640 634/825/640 625/832/640
f 625/832/641 634/825/641 626/833/641
f 626/833/642 634/825/642 627/834/642
f 627/834/643 634/825/643 628/835/643
f 628/835/644 634/825/644 629/836/644
f 629/836/645 634/825/645 630/837/645
f 630/837/646 634/825/646 631/838/646
f 631/838/647 634/825/647 632/839/647
f 618/840/648 619/841/648 620/842/648 621/843/648 622/844/648 623/845/648 624/846/648 625/847/648 626/848/648 627/849/648 628/850/648 629/851/648 630/852/648 631/853/648 632/854/648 633/855/648
f 632/839/649 634/825/649 633/856/649
f 633/856/650 634/825/650 618/824/650
o Wing_L1
v -1.453300 0.960229 -0.759641
v -1.489552 0.943324 -0.690359
v -1.630799 1.340878 -0.759641
v -1.667051 1.323973 -0.690359
v -0.432948 1.436027 -0.109641
v -0.469201 1.419122 -0.040359
v -0.610448 1.816676 -0.109641
v -0.646700 1.799771 -0.040359
vn -0.7849 -0.3660 -0.5000
vn -0.4226 0.9063 -0.0000
vn 0.7849 0.3660 0.5000
vn 0.4226 -0.9063 -0.0000
vn 0.4532 0.2113 -0.8660
vn -0.4532 -0.2113 0.8660
vt 0.375000 0.000000
vt 0.625000 0.000000
vt 0.625000 0.250000
vt 0.375000 0.250000
vt 0.625000 0.500000
vt 0.375000 0.500000
vt 0.625000 0.750000
vt 0.375000 0.750000
vt 0.625000 1.000000
vt 0.375000 1.000000
vt 0.125000 0.500000
vt 0.125000 0.750000
vt 0.875000 0.500000
vt 0.875000 0.750000
s 0
usemtl Demon_Obsidian
f 635/857/651 636/858/651 638/859/651 637/860/651
f 637/860/652 638/859/652 642/861/652 641/862/652
f 641/862/653 642/861/653 640/863/653 639/864/653
f 639/864/654 640/863/654 636/865/654 635/866/654
f 637/867/655 641/862/655 639/864/655 635/868/655
f 642/861/656 638/869/656 636/870/656 640/863/656
o Wing_L2
v -1.713850 1.226530 -0.878305
v -1.741122 1.199259 -0.832343
v -2.173470 1.686150 -0.878305
v -2.200741 1.658878 -0.832343
v -1.199259 1.741122 -0.267657
v -1.226530 1.713850 -0.221695
v -1.658878 2.200741 -0.267657
v -1.686150 2.173470 -0.221695
vn -0.5417 -0.5417 -0.6428
vn -0.7071 0.7071 -0.0000
vn 0.5417 0.5417 0.6428
vn 0.7071 -0.7071 -0.0000
vn 0.4545 0.4545 -0.7660
vn -0.4545 -0.4545 0.7660
vt 0.375000 0.000000
vt 0.625000 0.000000
vt 0.625000 0.250000
vt 0.375000 0.250000
vt 0.625000 0.500000
vt 0.375000 0.500000
vt 0.625000 0.750000
vt 0.375000 0.750000
vt 0.625000 1.000000
vt 0.375000 1.000000
vt 0.125000 0.500000
vt 0.125000 0.750000
vt 0.875000 0.500000
vt 0.875000 0.750000
s 0
usemtl Demon_Magma
f 643/871/657 644/872/657 646/873/657 645/874/657
f 645/874/658 646/873/658 650/875/658 649/876/658
f 649/876/659 650/875/659 648/877/659 647/878/659
f 647/878/660 648/877/660 644/879/660 643/880/660
f 645/881/661 649/876/661 647/878/661 643/882/661
f 650/875/662 646/883/662 644/884/662 648/877/662
o Wing_R1
v 0.432948 1.436027 -0.109641
v 0.469201 1.419122 -0.040359
v 0.610448 1.816676 -0.109641
v 0.646700 1.799771 -0.040359
v 1.453300 0.960229 -0.759641
v 1.489552 0.943324 -0.690359
v 1.630799 1.340878 -0.759641
v 1.667051 1.323973 -0.690359
vn -0.7849 0.3660 0.5000
vn 0.4226 0.9063 -0.0000
vn 0.7849 -0.3660 -0.5000
vn -0.4226 -0.9063 -0.0000
vn -0.4532 0.2113 -0.8660
vn 0.4532 -0.2113 0.8660
vt 0.375000 0.000000
vt 0.625000 0.000000
vt 0.625000 0.250000
vt 0.375000 0.250000
vt 0.625000 0.500000
vt 0.375000 0.500000
vt 0.625000 0.750000
vt 0.375000 0.750000
vt 0.625000 1.000000
vt 0.375000 1.000000
vt 0.125000 0.500000
vt 0.125000 0.750000
vt 0.875000 0.500000
vt 0.875000 0.750000
s 0
usemtl Demon_Obsidian
f 651/885/663 652/886/663 654/887/663 653/888/663
f 653/888/664 654/887/664 658/889/664 657/890/664
f 657/890/665 658/889/665 656/891/665 655/892/665
f 655/892/666 656/891/666 652/893/666 651/894/666
f 653/895/667 657/890/667 655/892/667 651/896/667
f 658/889/668 654/897/668 652/898/668 656/891/668
o Wing_R2
v 1.199259 1.741122 -0.267657
v 1.226530 1.713850 -0.221695
v 1.658878 2.200741 -0.267657
v 1.686150 2.173470 -0.221695
v 1.713850 1.226530 -0.878305
v 1.741122 1.199259 -0.832343
v 2.173470 1.686150 -0.878305
v 2.200741 1.658878 -0.832343
vn -0.5417 0.5417 0.6428
vn 0.7071 0.7071 -0.0000
vn 0.5417 -0.5417 -0.6428
vn -0.7071 -0.7071 -0.0000
vn -0.4545 0.4545 -0.7660
vn 0.4545 -0.4545 0.7660
vt 0.375000 0.000000
vt 0.625000 0.000000
vt 0.625000 0.250000
vt 0.375000 0.250000
vt 0.625000 0.500000
vt 0.375000 0.500000
vt 0.625000 0.750000
vt 0.375000 0.750000
vt 0.625000 1.000000
vt 0.375000 1.000000
vt 0.125000 0.500000
vt 0.125000 0.750000
vt 0.875000 0.500000
vt 0.875000 0.750000
s 0
usemtl Demon_Magma
f 659/899/669 660/900/669 662/901/669 661/902/669
f 661/902/670 662/901/670 666/903/670 665/904/670
f 665/904/671 666/903/671 664/905/671 663/906/671
f 663/906/672 664/905/672 660/907/672 659/908/672
f 661/909/673 665/904/673 663/906/673 659/910/673
f 666/903/674 662/911/674 660/912/674 664/905/674
o Axe_Handle
v 0.900000 0.765000 -0.600000
v 0.900000 0.765000 1.400000
v 0.924874 0.760052 -0.600000
v 0.924874 0.760052 1.400000
v 0.945962 0.745962 -0.600000
v 0.945962 0.745962 1.400000
v 0.960052 0.724874 -0.600000
v 0.960052 0.724874 1.400000
v 0.965000 0.700000 -0.600000
v 0.965000 0.700000 1.400000
v 0.960052 0.675126 -0.600000
v 0.960052 0.675126 1.400000
v 0.945962 0.654038 -0.600000
v 0.945962 0.654038 1.400000
v 0.924874 0.639948 -0.600000
v 0.924874 0.639948 1.400000
v 0.900000 0.635000 -0.600000
v 0.900000 0.635000 1.400000
v 0.875126 0.639948 -0.600000
v 0.875126 0.639948 1.400000
v 0.854038 0.654038 -0.600000
v 0.854038 0.654038 1.400000
v 0.839948 0.675126 -0.600000
v 0.839948 0.675126 1.400000
v 0.835000 0.700000 -0.600000
v 0.835000 0.700000 1.400000
v 0.839948 0.724874 -0.600000
v 0.839948 0.724874 1.400000
v 0.854038 0.745962 -0.600000
v 0.854038 0.745962 1.400000
v 0.875126 0.760052 -0.600000
v 0.875126 0.760052 1.400000
vn 0.1951 0.9808 -0.0000
vn 0.5556 0.8315 -0.0000
vn 0.8315 0.5556 -0.0000
vn 0.9808 0.1951 -0.0000
vn 0.9808 -0.1951 -0.0000
vn 0.8315 -0.5556 -0.0000
vn 0.5556 -0.8315 -0.0000
vn 0.1951 -0.9808 -0.0000
vn -0.1951 -0.9808 -0.0000
vn -0.5556 -0.8315 -0.0000
vn -0.8315 -0.5556 -0.0000
vn -0.9808 -0.1951 -0.0000
vn -0.9808 0.1951 -0.0000
vn -0.8315 0.5556 -0.0000
vn -0.0000 -0.0000 1.0000
vn -0.5556 0.8315 -0.0000
vn -0.1951 0.9808 -0.0000
vn -0.0000 -0.0000 -1.0000
vt 1.000000 0.500000
vt 1.000000 1.000000
vt 0.937500 1.000000
vt 0.937500 0.500000
vt 0.875000 1.000000
vt 0.875000 0.500000
vt 0.812500 1.000000
vt 0.812500 0.500000
vt 0.750000 1.000000
vt 0.750000 0.500000
vt 0.687500 1.000000
vt 0.687500 0.500000
vt 0.625000 1.000000
vt 0.625000 0.500000
vt 0.562500 1.000000
vt 0.562500 0.500000
vt 0.500000 1.000000
vt 0.500000 0.500000
vt 0.437500 1.000000
vt 0.437500 0.500000
vt 0.375000 1.000000
vt 0.375000 0.500000
vt 0.312500 1.000000
vt 0.312500 0.500000
vt 0.250000 1.000000
vt 0.250000 0.500000
vt 0.187500 1.000000
vt 0.187500 0.500000
vt 0.125000 1.000000
vt 0.125000 0.500000
vt 0.341844 0.471731
vt 0.250000 0.490000
vt 0.158156 0.471731
vt 0.080294 0.419706
vt 0.028269 0.341844
vt 0.010000 0.250000
vt 0.028269 0.158156
vt 0.080294 0.080294
vt 0.158156 0.028269
vt 0.250000 0.010000
vt 0.341844 0.028269
vt 0.419706 0.080294
vt 0.471731 0.158156
vt 0.490000 0.250000
vt 0.471731 0.341844
vt 0.419706 0.419706
vt 0.062500 1.000000
vt 0.062500 0.500000
vt 0.000000 1.000000
vt 0.000000 0.500000
vt 0.750000 0.490000
vt 0.841844 0.471731
vt 0.919706 0.419706
vt 0.971731 0.341844
vt 0.990000 0.250000
vt 0.971731 0.158156
vt 0.919706 0.080294
vt 0.841844 0.028269
vt 0.750000 0.010000
vt 0.658156 0.028269
vt 0.580294 0.080294
vt 0.528269 0.158156
vt 0.510000 0.250000
vt 0.528269 0.341844
vt 0.580294 0.419706
vt 0.658156 0.471731
s 0
usemtl Demon_IronPlate
f 667/913/675 668/914/675 670/915/675 669/916/675
f 669/916/676 670/915/676 672/917/676 671/918/676
f 671/918/677 672/917/677 674/919/677 673/920/677
f 673/920/678 674/919/678 676/921/678 675/922/678
f 675/922/679 676/921/679 678/923/679 677/924/679
f 677/924/680 678/923/680 680/925/680 679/926/680
f 679/926/681 680/925/681 682/927/681 681/928/681
f 681/928/682 682/927/682 684/929/682 683/930/682
f 683/930/683 684/929/683 686/931/683 685/932/683
f 685/932/684 686/931/684 688/933/684 687/934/684
f 687/934/685 688/933/685 690/935/685 689/936/685
f 689/936/686 690/935/686 692/937/686 691/938/686
f 691/938/687 692/937/687 694/939/687 693/940/687
f 693/940/688 694/939/688 696/941/688 695/942/688
f 670/943/689 668/944/689 698/945/689 696/946/689 694/947/689 692/948/689 690/949/689 688/950/689 686/951/689 684/952/689 682/953/689 680/954/689 678/955/689 676/956/689 674/957/689 672/958/689
f 695/942/690 696/941/690 698/959/690 697/960/690
f 697/960/691 698/959/691 668/961/691 667/962/691
f 667/963/692 669/964/692 671/965/692 673/966/692 675/967/692 677/968/692 679/969/692 681/970/692 683/971/692 685/972/692 687/973/692 689/974/692 691/975/692 693/976/692 695/977/692 697/978/692
o Axe_Blade
v 0.850000 0.875000 0.375000
v 0.850000 0.875000 1.125000
v 0.850000 1.825000 0.375000
v 0.850000 1.825000 1.125000
v 0.950000 0.875000 0.375000
v 0.950000 0.875000 1.125000
v 0.950000 1.825000 0.375000
v 0.950000 1.825000 1.125000
vn -1.0000 -0.0000 -0.0000
vn -0.0000 1.0000 -0.0000
vn 1.0000 -0.0000 -0.0000
vn -0.0000 -1.0000 -0.0000
vn -0.0000 -0.0000 -1.0000
vn -0.0000 -0.0000 1.0000
vt 0.375000 0.000000
vt 0.625000 0.000000
vt 0.625000 0.250000
vt 0.375000 0.250000
vt 0.625000 0.500000
vt 0.375000 0.500000
vt 0.625000 0.750000
vt 0.375000 0.750000
vt 0.625000 1.000000
vt 0.375000 1.000000
vt 0.125000 0.500000
vt 0.125000 0.750000
vt 0.875000 0.500000
vt 0.875000 0.750000
s 0
usemtl Demon_Magma
f 699/979/693 700/980/693 702/981/693 701/982/693
f 701/982/694 702/981/694 706/983/694 705/984/694
f 705/984/695 706/983/695 704/985/695 703/986/695
f 703/986/696 704/985/696 700/987/696 699/988/696
f 701/989/697 705/984/697 703/986/697 699/990/697
f 706/983/698 702/991/698 700/992/698 704/985/698
