# Blender 5.2.1 LTS
# www.blender.org
mtllib gargoyle.mtl
o Head
v 0.000000 0.760000 0.240000
v 0.000000 0.806822 0.235388
v 0.000000 0.929706 0.169706
v 0.000000 0.981731 0.091844
v 0.000000 0.995388 0.046822
v 0.000000 0.995388 -0.046822
v 0.000000 0.981731 -0.091844
v 0.000000 0.959553 -0.133337
v 0.000000 0.929706 -0.169706
v 0.000000 0.893337 -0.199553
v 0.000000 0.851844 -0.221731
v 0.000000 0.806822 -0.235388
v 0.000000 0.760000 -0.240000
v 0.017918 0.803258 0.235388
v 0.035147 0.844853 0.221731
v 0.051026 0.883187 0.199553
v 0.064944 0.916788 0.169706
v 0.076366 0.944363 0.133337
v 0.084853 0.964853 0.091844
v 0.090079 0.977471 0.046822
v 0.091844 0.981731 0.000000
v 0.090079 0.977471 -0.046822
v 0.084853 0.964853 -0.091844
v 0.076366 0.944363 -0.133337
v 0.064944 0.916788 -0.169706
v 0.051026 0.883187 -0.199553
v 0.035147 0.844853 -0.221731
v 0.017918 0.803258 -0.235388
v 0.033108 0.793108 0.235388
v 0.064944 0.824944 0.221731
v 0.094283 0.854283 0.199553
v 0.120000 0.880000 0.169706
v 0.141105 0.901105 0.133337
v 0.156788 0.916788 0.091844
v 0.166445 0.926445 0.046822
v 0.169706 0.929706 0.000000
v 0.166445 0.926445 -0.046822
v 0.156788 0.916788 -0.091844
v 0.141105 0.901105 -0.133337
v 0.120000 0.880000 -0.169706
v 0.094283 0.854283 -0.199553
v 0.064944 0.824944 -0.221731
v 0.033108 0.793108 -0.235388
v 0.043258 0.777918 0.235388
v 0.084853 0.795147 0.221731
v 0.123187 0.811026 0.199553
v 0.156788 0.824944 0.169706
v 0.184363 0.836365 0.133337
v 0.204853 0.844853 0.091844
v 0.217471 0.850079 0.046822
v 0.221731 0.851844 0.000000
v 0.217471 0.850079 -0.046822
v 0.204853 0.844853 -0.091844
v 0.184363 0.836365 -0.133337
v 0.156788 0.824944 -0.169706
v 0.123187 0.811026 -0.199553
v 0.084853 0.795147 -0.221731
v 0.043258 0.777918 -0.235388
v 0.046822 0.760000 0.235388
v 0.091844 0.760000 0.221731
v 0.133337 0.760000 0.199553
v 0.169706 0.760000 0.169706
v 0.199553 0.760000 0.133337
v 0.221731 0.760000 0.091844
v 0.235388 0.760000 0.046822
v 0.240000 0.760000 0.000000
v 0.235388 0.760000 -0.046822
v 0.221731 0.760000 -0.091844
v 0.199553 0.760000 -0.133337
v 0.169706 0.760000 -0.169706
v 0.133337 0.760000 -0.199553
v 0.091844 0.760000 -0.221731
v 0.046822 0.760000 -0.235388
v 0.043258 0.742082 0.235388
v 0.084853 0.724853 0.221731
v 0.123187 0.708974 0.199553
v 0.156788 0.695056 0.169706
v 0.184363 0.683634 0.133337
v 0.204853 0.675147 0.091844
v 0.217471 0.669921 0.046822
v 0.221731 0.668156 0.000000
v 0.217471 0.669921 -0.046822
v 0.204853 0.675147 -0.091844
v 0.184363 0.683634 -0.133337
v 0.156788 0.695056 -0.169706
v 0.123187 0.708974 -0.199553
v 0.084853 0.724853 -0.221731
v 0.043258 0.742082 -0.235388
v 0.033108 0.726892 0.235388
v 0.064944 0.695056 0.221731
v 0.094283 0.665717 0.199553
v 0.120000 0.640000 0.169706
v 0.141105 0.618895 0.133337
v 0.156788 0.603212 0.091844
v 0.166445 0.593555 0.046822
v 0.169706 0.590294 0.000000
v 0.166445 0.593555 -0.046822
v 0.156788 0.603212 -0.091844
v 0.141105 0.618895 -0.133337
v 0.120000 0.640000 -0.169706
v 0.094283 0.665717 -0.199553
v 0.064944 0.695056 -0.221731
v 0.033108 0.726892 -0.235388
v 0.017918 0.716742 0.235388
v 0.035147 0.675147 0.221731
v 0.051026 0.636813 0.199553
v 0.064944 0.603212 0.169706
v 0.076365 0.575637 0.133337
v 0.084853 0.555147 0.091844
v 0.090079 0.542529 0.046822
v 0.091844 0.538269 0.000000
v 0.090079 0.542529 -0.046822
v 0.084853 0.555147 -0.091844
v 0.076365 0.575637 -0.133337
v 0.064944 0.603212 -0.169706
v 0.051026 0.636813 -0.199553
v 0.035147 0.675147 -0.221731
v 0.017918 0.716742 -0.235388
v -0.000000 0.713178 0.235388
v -0.000000 0.668156 0.221731
v -0.000000 0.626663 0.199553
v -0.000000 0.590294 0.169706
v -0.000000 0.560447 0.133337
v -0.000000 0.538269 0.091844
v -0.000000 0.524612 0.046822
v -0.000000 0.520000 0.000000
v -0.000000 0.524612 -0.046822
v -0.000000 0.538269 -0.091844
v -0.000000 0.560447 -0.133337
v -0.000000 0.590294 -0.169706
v -0.000000 0.626663 -0.199553
v -0.000000 0.668156 -0.221731
v -0.000000 0.713178 -0.235388
v -0.017918 0.716742 0.235388
v -0.035147 0.675147 0.221731
v -0.051026 0.636813 0.199553
v -0.064944 0.603212 0.169706
v -0.076366 0.575637 0.133337
v -0.084853 0.555147 0.091844
v -0.090079 0.542530 0.046822
v -0.091844 0.538269 0.000000
v -0.090079 0.542530 -0.046822
v -0.084853 0.555147 -0.091844
v -0.076366 0.575637 -0.133337
v -0.064944 0.603212 -0.169706
v -0.051026 0.636813 -0.199553
v -0.035147 0.675147 -0.221731
v -0.017918 0.716742 -0.235388
v -0.033108 0.726892 0.235388
v -0.064944 0.695056 0.221731
v -0.094283 0.665717 0.199553
v -0.120000 0.640000 0.169706
v -0.141105 0.618895 0.133337
v -0.156788 0.603213 0.091844
v -0.166445 0.593555 0.046822
v -0.169706 0.590294 0.000000
v -0.166445 0.593555 -0.046822
v -0.156788 0.603213 -0.091844
v -0.141105 0.618895 -0.133337
v -0.120000 0.640000 -0.169706
v -0.094283 0.665717 -0.199553
v -0.064944 0.695056 -0.221731
v -0.033108 0.726892 -0.235388
v -0.043258 0.742082 0.235388
v -0.084853 0.724853 0.221731
v -0.123187 0.708974 0.199553
v -0.156788 0.695056 0.169706
v -0.184363 0.683635 0.133337
v -0.204853 0.675147 0.091844
v -0.217471 0.669921 0.046822
v -0.221731 0.668156 0.000000
v -0.217471 0.669921 -0.046822
v -0.204853 0.675147 -0.091844
v -0.184363 0.683635 -0.133337
v -0.156788 0.695056 -0.169706
v -0.123187 0.708974 -0.199553
v -0.084853 0.724853 -0.221731
v -0.043258 0.742082 -0.235388
v -0.046822 0.760000 0.235388
v -0.091844 0.760000 0.221731
v -0.133337 0.760000 0.199553
v -0.169706 0.760000 0.169706
v -0.199553 0.760000 0.133337
v -0.221731 0.760000 0.091844
v -0.235388 0.760000 0.046822
v -0.240000 0.760000 0.000000
v -0.235388 0.760000 -0.046822
v -0.221731 0.760000 -0.091844
v -0.199553 0.760000 -0.133337
v -0.169706 0.760000 -0.169706
v -0.133337 0.760000 -0.199553
v -0.091844 0.760000 -0.221731
v -0.046822 0.760000 -0.235388
v -0.043258 0.777918 0.235388
v -0.084853 0.795147 0.221731
v -0.123187 0.811026 0.199553
v -0.156788 0.824944 0.169706
v -0.184363 0.836366 0.133337
v -0.204853 0.844853 0.091844
v -0.217470 0.850079 0.046822
v -0.221731 0.851844 0.000000
v -0.217470 0.850079 -0.046822
v -0.204853 0.844853 -0.091844
v -0.184363 0.836366 -0.133337
v -0.156788 0.824944 -0.169706
v -0.123187 0.811026 -0.199553
v -0.084853 0.795147 -0.221731
v -0.043258 0.777918 -0.235388
v -0.033108 0.793108 0.235388
v -0.064943 0.824944 0.221731
v -0.094283 0.854283 0.199553
v -0.120000 0.880000 0.169706
v -0.141105 0.901105 0.133337
v -0.156787 0.916788 0.091844
v -0.166445 0.926445 0.046822
v -0.169706 0.929706 0.000000
v -0.166445 0.926445 -0.046822
v -0.156787 0.916788 -0.091844
v -0.141105 0.901105 -0.133337
v -0.120000 0.880000 -0.169706
v -0.094283 0.854283 -0.199553
v -0.064943 0.824944 -0.221731
v -0.033108 0.793108 -0.235388
v -0.017918 0.803258 0.235388
v -0.035147 0.844853 0.221731
v -0.051026 0.883187 0.199553
v -0.064943 0.916788 0.169706
v -0.076365 0.944363 0.133337
v -0.084853 0.964853 0.091844
v -0.090079 0.977471 0.046822
v -0.091844 0.981731 0.000000
v -0.090079 0.977471 -0.046822
v -0.084853 0.964853 -0.091844
v -0.076365 0.944363 -0.133337
v -0.064943 0.916788 -0.169706
v -0.051026 0.883187 -0.199553
v -0.035147 0.844853 -0.221731
v -0.017918 0.803258 -0.235388
v 0.000000 0.851844 0.221731
v 0.000000 0.893337 0.199553
v 0.000000 0.959553 0.133337
v 0.000000 1.000000 0.000000
vn 0.0934 0.4693 -0.8781
vn 0.1870 0.9401 0.2852
vn 0.0576 0.2898 -0.9553
vn 0.1942 0.9762 0.0962
vn 0.0195 0.0980 0.9950
vn 0.0195 0.0980 -0.9950
vn 0.1942 0.9762 -0.0962
vn 0.0576 0.2898 0.9553
vn 0.1870 0.9401 -0.2852
vn 0.0934 0.4693 0.8781
vn 0.1728 0.8687 -0.4643
vn 0.1252 0.6294 0.7669
vn 0.1520 0.7640 -0.6270
vn 0.1520 0.7640 0.6270
vn 0.1252 0.6294 -0.7669
vn 0.1728 0.8687 0.4643
vn 0.4328 0.6477 0.6270
vn 0.3565 0.5336 -0.7669
vn 0.4921 0.7364 0.4643
vn 0.2659 0.3979 -0.8781
vn 0.5325 0.7969 0.2852
vn 0.1642 0.2457 -0.9553
vn 0.5530 0.8276 0.0962
vn 0.0555 0.0831 0.9950
vn 0.0555 0.0831 -0.9950
vn 0.5530 0.8276 -0.0962
vn 0.1642 0.2457 0.9553
vn 0.5325 0.7969 -0.2852
vn 0.2659 0.3979 0.8781
vn 0.4921 0.7364 -0.4643
vn 0.3565 0.5336 0.7669
vn 0.4328 0.6477 -0.6270
vn 0.8276 0.5530 -0.0962
vn 0.2457 0.1642 0.9553
vn 0.7969 0.5325 -0.2852
vn 0.3979 0.2659 0.8781
vn 0.7364 0.4921 -0.4643
vn 0.5336 0.3565 0.7669
vn 0.6477 0.4328 -0.6270
vn 0.6477 0.4328 0.6270
vn 0.5336 0.3565 -0.7669
vn 0.7364 0.4921 0.4643
vn 0.3979 0.2659 -0.8781
vn 0.7969 0.5325 0.2852
vn 0.2457 0.1642 -0.9553
vn 0.8276 0.5530 0.0962
vn 0.0831 0.0555 0.9950
vn 0.0831 0.0555 -0.9950
vn 0.6294 0.1252 -0.7669
vn 0.8687 0.1728 0.4643
vn 0.4693 0.0934 -0.8781
vn 0.9401 0.1870 0.2852
vn 0.2898 0.0576 -0.9553
vn 0.9762 0.1942 0.0962
vn 0.0980 0.0195 0.9950
vn 0.0980 0.0195 -0.9950
vn 0.9762 0.1942 -0.0962
vn 0.2898 0.0576 0.9553
vn 0.9401 0.1870 -0.2852
vn 0.4693 0.0934 0.8781
vn 0.8687 0.1728 -0.4643
vn 0.6294 0.1252 0.7669
vn 0.7640 0.1520 -0.6270
vn 0.7640 0.1520 0.6270
vn 0.9401 -0.1870 -0.2852
vn 0.4693 -0.0934 0.8781
vn 0.8687 -0.1728 -0.4643
vn 0.6294 -0.1252 0.7669
vn 0.7640 -0.1520 -0.6270
vn 0.7640 -0.1520 0.6270
vn 0.6294 -0.1252 -0.7669
vn 0.8687 -0.1728 0.4643
vn 0.4693 -0.0934 -0.8781
vn 0.9401 -0.1870 0.2852
vn 0.2898 -0.0576 -0.9553
vn 0.9762 -0.1942 0.0962
vn 0.0980 -0.0195 0.9950
vn 0.0980 -0.0195 -0.9950
vn 0.9762 -0.1942 -0.0962
vn 0.2898 -0.0576 0.9553
vn 0.3979 -0.2659 -0.8781
vn 0.7969 -0.5325 0.2852
vn 0.2457 -0.1642 -0.9553
vn 0.8276 -0.5530 0.0962
vn 0.0831 -0.0555 0.9950
vn 0.0831 -0.0555 -0.9950
vn 0.8276 -0.5530 -0.0962
vn 0.2457 -0.1642 0.9553
vn 0.7969 -0.5325 -0.2852
vn 0.3979 -0.2659 0.8781
vn 0.7364 -0.4921 -0.4643
vn 0.5336 -0.3565 0.7669
vn 0.6477 -0.4328 -0.6270
vn 0.6477 -0.4328 0.6270
vn 0.5336 -0.3565 -0.7669
vn 0.7364 -0.4921 0.4643
vn 0.2659 -0.3979 0.8781
vn 0.4921 -0.7364 -0.4643
vn 0.3565 -0.5336 0.7669
vn 0.4328 -0.6477 -0.6270
vn 0.4328 -0.6477 0.6270
vn 0.3565 -0.5336 -0.7669
vn 0.4921 -0.7364 0.4643
vn 0.2659 -0.3979 -0.8781
vn 0.5325 -0.7969 0.2852
vn 0.1642 -0.2457 -0.9553
vn 0.5530 -0.8276 0.0962
vn 0.0555 -0.0831 0.9950
vn 0.0555 -0.0831 -0.9950
vn 0.5530 -0.8276 -0.0962
vn 0.1642 -0.2457 0.9553
vn 0.5325 -0.7969 -0.2852
vn 0.1870 -0.9401 0.2852
vn 0.0576 -0.2898 -0.9553
vn 0.1942 -0.9762 0.0962
vn 0.0195 -0.0980 0.9950
vn 0.0195 -0.0980 -0.9950
vn 0.1942 -0.9762 -0.0962
vn 0.0576 -0.2898 0.9553
vn 0.1870 -0.9401 -0.2852
vn 0.0934 -0.4693 0.8781
vn 0.1728 -0.8687 -0.4643
vn 0.1252 -0.6294 0.7669
vn 0.1520 -0.7640 -0.6270
vn 0.1520 -0.7640 0.6270
vn 0.1252 -0.6294 -0.7669
vn 0.1728 -0.8687 0.4643
vn 0.0934 -0.4693 -0.8781
vn -0.1728 -0.8687 -0.4643
vn -0.1252 -0.6294 0.7669
vn -0.1520 -0.7640 -0.6270
vn -0.1520 -0.7640 0.6270
vn -0.1252 -0.6294 -0.7669
vn -0.1728 -0.8687 0.4643
vn -0.0934 -0.4693 -0.8781
vn -0.1870 -0.9401 0.2852
vn -0.0576 -0.2898 -0.9553
vn -0.1942 -0.9762 0.0962
vn -0.0195 -0.0980 0.9950
vn -0.0195 -0.0980 -0.9950
vn -0.1942 -0.9762 -0.0962
vn -0.0576 -0.2898 0.9553
vn -0.1870 -0.9401 -0.2852
vn -0.0934 -0.4693 0.8781
vn -0.1642 -0.2457 -0.9553
vn -0.5530 -0.8276 0.0962
vn -0.0555 -0.0831 0.9950
vn -0.0555 -0.0831 -0.9950
vn -0.5530 -0.8276 -0.0962
vn -0.1642 -0.2457 0.9553
vn -0.5325 -0.7969 -0.2852
vn -0.2659 -0.3979 0.8781
vn -0.4921 -0.7364 -0.4643
vn -0.3565 -0.5336 0.7669
vn -0.4328 -0.6477 -0.6270
vn -0.4328 -0.6477 0.6270
vn -0.3565 -0.5336 -0.7669
vn -0.4921 -0.7364 0.4643
vn -0.2659 -0.3979 -0.8781
vn -0.5325 -0.7969 0.2852
vn -0.5336 -0.3565 0.7669
vn -0.6477 -0.4328 -0.6270
vn -0.6477 -0.4328 0.6270
vn -0.5336 -0.3565 -0.7669
vn -0.7364 -0.4921 0.4643
vn -0.3979 -0.2659 -0.8781
vn -0.7969 -0.5325 0.2852
vn -0.2457 -0.1642 -0.9553
vn -0.8276 -0.5530 0.0962
vn -0.0831 -0.0555 0.9950
vn -0.0831 -0.0555 -0.9950
vn -0.8276 -0.5530 -0.0962
vn -0.2457 -0.1642 0.9553
vn -0.7969 -0.5325 -0.2852
vn -0.3979 -0.2659 0.8781
vn -0.7364 -0.4921 -0.4643
vn -0.9762 -0.1942 0.0962
vn -0.0980 -0.0195 0.9950
vn -0.0980 -0.0195 -0.9950
vn -0.9762 -0.1942 -0.0962
vn -0.2898 -0.0576 0.9553
vn -0.9401 -0.1870 -0.2852
vn -0.4693 -0.0934 0.8781
vn -0.8687 -0.1728 -0.4643
vn -0.6294 -0.1252 0.7669
vn -0.7640 -0.1520 -0.6270
vn -0.7640 -0.1520 0.6270
vn -0.6294 -0.1252 -0.7669
vn -0.8687 -0.1728 0.4643
vn -0.4693 -0.0934 -0.8781
vn -0.9401 -0.1870 0.2852
vn -0.2898 -0.0576 -0.9553
vn -0.7640 0.1520 -0.6270
vn -0.7640 0.1520 0.6270
vn -0.6294 0.1252 -0.7669
vn -0.8687 0.1728 0.4643
vn -0.4693 0.0934 -0.8781
vn -0.9401 0.1870 0.2852
vn -0.2898 0.0576 -0.9553
vn -0.9762 0.1942 0.0962
vn -0.0980 0.0195 0.9950
vn -0.0980 0.0195 -0.9950
vn -0.9762 0.1942 -0.0962
vn -0.2898 0.0576 0.9553
vn -0.9401 0.1870 -0.2852
vn -0.4693 0.0934 0.8781
vn -0.8687 0.1728 -0.4643
vn -0.6294 0.1252 0.7669
vn -0.0831 0.0555 -0.9950
vn -0.8276 0.5530 -0.0962
vn -0.2457 0.1642 0.9553
vn -0.7969 0.5325 -0.2852
vn -0.3979 0.2659 0.8781
vn -0.7364 0.4921 -0.4643
vn -0.5336 0.3565 0.7669
vn -0.6477 0.4328 -0.6270
vn -0.6477 0.4328 0.6270
vn -0.5336 0.3565 -0.7669
vn -0.7364 0.4921 0.4643
vn -0.3979 0.2659 -0.8781
vn -0.7969 0.5325 0.2852
vn -0.2457 0.1642 -0.9553
vn -0.8276 0.5530 0.0962
vn -0.0831 0.0555 0.9950
vn -0.3565 0.5336 -0.7669
vn -0.4921 0.7364 0.4643
vn -0.2659 0.3979 -0.8781
vn -0.5325 0.7969 0.2852
vn -0.1642 0.2457 -0.9553
vn -0.5530 0.8276 0.0962
vn -0.0555 0.0831 0.9950
vn -0.0555 0.0831 -0.9950
vn -0.5530 0.8276 -0.0962
vn -0.1642 0.2457 0.9553
vn -0.5325 0.7969 -0.2852
vn -0.2659 0.3979 0.8781
vn -0.4921 0.7364 -0.4643
vn -0.3565 0.5336 0.7669
vn -0.4328 0.6477 -0.6270
vn -0.4328 0.6477 0.6270
vn -0.0576 0.2898 0.9553
vn -0.1870 0.9401 -0.2852
vn -0.0934 0.4693 0.8781
vn -0.1728 0.8687 -0.4643
vn -0.1252 0.6294 0.7669
vn -0.1520 0.7640 -0.6270
vn -0.1520 0.7640 0.6270
vn -0.1252 0.6294 -0.7669
vn -0.1728 0.8687 0.4643
vn -0.0934 0.4693 -0.8781
vn -0.1870 0.9401 0.2852
vn -0.0576 0.2898 -0.9553
vn -0.1942 0.9762 0.0962
vn -0.0195 0.0980 0.9950
vn -0.0195 0.0980 -0.9950
vn -0.1942 0.9762 -0.0962
vt 0.750000 0.125000
vt 0.750000 0.187500
vt 0.687500 0.187500
vt 0.687500 0.125000
vt 0.750000 0.562500
vt 0.750000 0.625000
vt 0.687500 0.625000
vt 0.687500 0.562500
vt 0.750000 0.062500
vt 0.687500 0.062500
vt 0.750000 0.500000
vt 0.687500 0.500000
vt 0.750000 0.937500
vt 0.718750 1.000000
vt 0.687500 0.937500
vt 0.718750 0.000000
vt 0.750000 0.437500
vt 0.687500 0.437500
vt 0.750000 0.875000
vt 0.687500 0.875000
vt 0.750000 0.375000
vt 0.687500 0.375000
vt 0.750000 0.812500
vt 0.687500 0.812500
vt 0.750000 0.312500
vt 0.687500 0.312500
vt 0.750000 0.750000
vt 0.687500 0.750000
vt 0.750000 0.250000
vt 0.687500 0.250000
vt 0.750000 0.687500
vt 0.687500 0.687500
vt 0.625000 0.750000
vt 0.625000 0.687500
vt 0.625000 0.250000
vt 0.625000 0.187500
vt 0.625000 0.625000
vt 0.625000 0.125000
vt 0.625000 0.562500
vt 0.625000 0.062500
vt 0.625000 0.500000
vt 0.656250 1.000000
vt 0.625000 0.937500
vt 0.656250 0.000000
vt 0.625000 0.437500
vt 0.625000 0.875000
vt 0.625000 0.375000
vt 0.625000 0.812500
vt 0.625000 0.312500
vt 0.562500 0.500000
vt 0.562500 0.437500
vt 0.562500 0.937500
vt 0.562500 0.875000
vt 0.562500 0.375000
vt 0.562500 0.812500
vt 0.562500 0.312500
vt 0.562500 0.750000
vt 0.562500 0.250000
vt 0.562500 0.687500
vt 0.562500 0.187500
vt 0.562500 0.625000
vt 0.562500 0.125000
vt 0.562500 0.562500
vt 0.562500 0.062500
vt 0.593750 1.000000
vt 0.593750 0.000000
vt 0.500000 0.250000
vt 0.500000 0.187500
vt 0.500000 0.687500
vt 0.500000 0.625000
vt 0.500000 0.125000
vt 0.500000 0.562500
vt 0.500000 0.062500
vt 0.500000 0.500000
vt 0.531250 1.000000
vt 0.500000 0.937500
vt 0.531250 0.000000
vt 0.500000 0.437500
vt 0.500000 0.875000
vt 0.500000 0.375000
vt 0.500000 0.812500
vt 0.500000 0.312500
vt 0.500000 0.750000
vt 0.437500 0.437500
vt 0.437500 0.375000
vt 0.437500 0.875000
vt 0.437500 0.812500
vt 0.437500 0.312500
vt 0.437500 0.750000
vt 0.437500 0.250000
vt 0.437500 0.687500
vt 0.437500 0.187500
vt 0.437500 0.625000
vt 0.437500 0.125000
vt 0.437500 0.562500
vt 0.437500 0.062500
vt 0.437500 0.500000
vt 0.468750 1.000000
vt 0.437500 0.937500
vt 0.468750 0.000000
vt 0.375000 0.187500
vt 0.375000 0.125000
vt 0.375000 0.625000
vt 0.375000 0.562500
vt 0.375000 0.062500
vt 0.375000 0.500000
vt 0.406250 1.000000
vt 0.375000 0.937500
vt 0.406250 0.000000
vt 0.375000 0.437500
vt 0.375000 0.875000
vt 0.375000 0.375000
vt 0.375000 0.812500
vt 0.375000 0.312500
vt 0.375000 0.750000
vt 0.375000 0.250000
vt 0.375000 0.687500
vt 0.312500 0.875000
vt 0.312500 0.812500
vt 0.312500 0.375000
vt 0.312500 0.312500
vt 0.312500 0.750000
vt 0.312500 0.250000
vt 0.312500 0.687500
vt 0.312500 0.187500
vt 0.312500 0.625000
vt 0.312500 0.125000
vt 0.312500 0.562500
vt 0.312500 0.062500
vt 0.312500 0.500000
vt 0.343750 1.000000
vt 0.312500 0.937500
vt 0.343750 0.000000
vt 0.312500 0.437500
vt 0.250000 0.625000
vt 0.250000 0.562500
vt 0.250000 0.125000
vt 0.250000 0.062500
vt 0.250000 0.500000
vt 0.281250 1.000000
vt 0.250000 0.937500
vt 0.281250 0.000000
vt 0.250000 0.437500
vt 0.250000 0.875000
vt 0.250000 0.375000
vt 0.250000 0.812500
vt 0.250000 0.312500
vt 0.250000 0.750000
vt 0.250000 0.250000
vt 0.250000 0.687500
vt 0.250000 0.187500
vt 0.187500 0.375000
vt 0.187500 0.312500
vt 0.187500 0.812500
vt 0.187500 0.750000
vt 0.187500 0.250000
vt 0.187500 0.687500
vt 0.187500 0.187500
vt 0.187500 0.625000
vt 0.187500 0.125000
vt 0.187500 0.562500
vt 0.187500 0.062500
vt 0.187500 0.500000
vt 0.218750 1.000000
vt 0.187500 0.937500
vt 0.218750 0.000000
vt 0.187500 0.437500
vt 0.187500 0.875000
vt 0.125000 0.125000
vt 0.125000 0.062500
vt 0.125000 0.562500
vt 0.125000 0.500000
vt 0.156250 1.000000
vt 0.125000 0.937500
vt 0.156250 0.000000
vt 0.125000 0.437500
vt 0.125000 0.875000
vt 0.125000 0.375000
vt 0.125000 0.812500
vt 0.125000 0.312500
vt 0.125000 0.750000
vt 0.125000 0.250000
vt 0.125000 0.687500
vt 0.125000 0.187500
vt 0.125000 0.625000
vt 0.062500 0.812500
vt 0.062500 0.750000
vt 0.062500 0.312500
vt 0.062500 0.250000
vt 0.062500 0.687500
vt 0.062500 0.187500
vt 0.062500 0.625000
vt 0.062500 0.125000
vt 0.062500 0.562500
vt 0.062500 0.062500
vt 0.062500 0.500000
vt 0.093750 1.000000
vt 0.062500 0.937500
vt 0.093750 0.000000
vt 0.062500 0.437500
vt 0.062500 0.875000
vt 0.062500 0.375000
vt 0.000000 0.562500
vt 0.000000 0.500000
vt 0.031250 1.000000
vt 0.000000 0.937500
vt 0.031250 0.000000
vt 0.000000 0.062500
vt 0.000000 0.437500
vt 0.000000 0.875000
vt 0.000000 0.375000
vt 0.000000 0.812500
vt 0.000000 0.312500
vt 0.000000 0.750000
vt 0.000000 0.250000
vt 0.000000 0.687500
vt 0.000000 0.187500
vt 0.000000 0.625000
vt 0.000000 0.125000
vt 1.000000 0.250000
vt 1.000000 0.312500
vt 0.937500 0.312500
vt 0.937500 0.250000
vt 1.000000 0.687500
vt 1.000000 0.750000
vt 0.937500 0.750000
vt 0.937500 0.687500
vt 1.000000 0.187500
vt 0.937500 0.187500
vt 1.000000 0.625000
vt 0.937500 0.625000
vt 1.000000 0.125000
vt 0.937500 0.125000
vt 1.000000 0.562500
vt 0.937500 0.562500
vt 1.000000 0.062500
vt 0.937500 0.062500
vt 1.000000 0.500000
vt 0.937500 0.500000
vt 1.000000 0.937500
vt 0.968750 1.000000
vt 0.937500 0.937500
vt 0.968750 0.000000
vt 1.000000 0.437500
vt 0.937500 0.437500
vt 1.000000 0.875000
vt 0.937500 0.875000
vt 1.000000 0.375000
vt 0.937500 0.375000
vt 1.000000 0.812500
vt 0.937500 0.812500
vt 0.906250 0.000000
vt 0.875000 0.062500
vt 0.875000 0.500000
vt 0.875000 0.437500
vt 0.875000 0.937500
vt 0.875000 0.875000
vt 0.875000 0.375000
vt 0.875000 0.812500
vt 0.875000 0.312500
vt 0.875000 0.750000
vt 0.875000 0.250000
vt 0.875000 0.687500
vt 0.875000 0.187500
vt 0.875000 0.625000
vt 0.875000 0.125000
vt 0.875000 0.562500
vt 0.906250 1.000000
vt 0.812500 0.250000
vt 0.812500 0.187500
vt 0.812500 0.687500
vt 0.812500 0.625000
vt 0.812500 0.125000
vt 0.812500 0.562500
vt 0.812500 0.062500
vt 0.812500 0.500000
vt 0.843750 1.000000
vt 0.812500 0.937500
vt 0.843750 0.000000
vt 0.812500 0.437500
vt 0.812500 0.875000
vt 0.812500 0.375000
vt 0.812500 0.812500
vt 0.812500 0.312500
vt 0.812500 0.750000
vt 0.781250 1.000000
vt 0.781250 0.000000
s 0
usemtl Garg_Stone
f 11/1/1 10/2/1 26/3/1 27/4/1
f 5/5/2 4/6/2 19/7/2 20/8/2
f 12/9/3 11/1/3 27/4/3 28/10/3
f 242/11/4 5/5/4 20/8/4 21/12/4
f 2/13/5 1/14/5 14/15/5
f 13/16/6 12/9/6 28/10/6
f 6/17/7 242/11/7 21/12/7 22/18/7
f 239/19/8 2/13/8 14/15/8 15/20/8
f 7/21/9 6/17/9 22/18/9 23/22/9
f 240/23/10 239/19/10 15/20/10 16/24/10
f 8/25/11 7/21/11 23/22/11 24/26/11
f 3/27/12 240/23/12 16/24/12 17/28/12
f 9/29/13 8/25/13 24/26/13 25/30/13
f 241/31/14 3/27/14 17/28/14 18/32/14
f 10/2/15 9/29/15 25/30/15 26/3/15
f 4/6/16 241/31/16 18/32/16 19/7/16
f 18/32/17 17/28/17 32/33/17 33/34/17
f 26/3/18 25/30/18 40/35/18 41/36/18
f 19/7/19 18/32/19 33/34/19 34/37/19
f 27/4/20 26/3/20 41/36/20 42/38/20
f 20/8/21 19/7/21 34/37/21 35/39/21
f 28/10/22 27/4/22 42/38/22 43/40/22
f 21/12/23 20/8/23 35/39/23 36/41/23
f 14/15/24 1/42/24 29/43/24
f 13/44/25 28/10/25 43/40/25
f 22/18/26 21/12/26 36/41/26 37/45/26
f 15/20/27 14/15/27 29/43/27 30/46/27
f 23/22/28 22/18/28 37/45/28 38/47/28
f 16/24/29 15/20/29 30/46/29 31/48/29
f 24/26/30 23/22/30 38/47/30 39/49/30
f 17/28/31 16/24/31 31/48/31 32/33/31
f 25/30/32 24/26/32 39/49/32 40/35/32
f 37/45/33 36/41/33 51/50/33 52/51/33
f 30/46/34 29/43/34 44/52/34 45/53/34
f 38/47/35 37/45/35 52/51/35 53/54/35
f 31/48/36 30/46/36 45/53/36 46/55/36
f 39/49/37 38/47/37 53/54/37 54/56/37
f 32/33/38 31/48/38 46/55/38 47/57/38
f 40/35/39 39/49/39 54/56/39 55/58/39
f 33/34/40 32/33/40 47/57/40 48/59/40
f 41/36/41 40/35/41 55/58/41 56/60/41
f 34/37/42 33/34/42 48/59/42 49/61/42
f 42/38/43 41/36/43 56/60/43 57/62/43
f 35/39/44 34/37/44 49/61/44 50/63/44
f 43/40/45 42/38/45 57/62/45 58/64/45
f 36/41/46 35/39/46 50/63/46 51/50/46
f 29/43/47 1/65/47 44/52/47
f 13/66/48 43/40/48 58/64/48
f 56/60/49 55/58/49 70/67/49 71/68/49
f 49/61/50 48/59/50 63/69/50 64/70/50
f 57/62/51 56/60/51 71/68/51 72/71/51
f 50/63/52 49/61/52 64/70/52 65/72/52
f 58/64/53 57/62/53 72/71/53 73/73/53
f 51/50/54 50/63/54 65/72/54 66/74/54
f 44/52/55 1/75/55 59/76/55
f 13/77/56 58/64/56 73/73/56
f 52/51/57 51/50/57 66/74/57 67/78/57
f 45/53/58 44/52/58 59/76/58 60/79/58
f 53/54/59 52/51/59 67/78/59 68/80/59
f 46/55/60 45/53/60 60/79/60 61/81/60
f 54/56/61 53/54/61 68/80/61 69/82/61
f 47/57/62 46/55/62 61/81/62 62/83/62
f 55/58/63 54/56/63 69/82/63 70/67/63
f 48/59/64 47/57/64 62/83/64 63/69/64
f 68/80/65 67/78/65 82/84/65 83/85/65
f 61/81/66 60/79/66 75/86/66 76/87/66
f 69/82/67 68/80/67 83/85/67 84/88/67
f 62/83/68 61/81/68 76/87/68 77/89/68
f 70/67/69 69/82/69 84/88/69 85/90/69
f 63/69/70 62/83/70 77/89/70 78/91/70
f 71/68/71 70/67/71 85/90/71 86/92/71
f 64/70/72 63/69/72 78/91/72 79/93/72
f 72/71/73 71/68/73 86/92/73 87/94/73
f 65/72/74 64/70/74 79/93/74 80/95/74
f 73/73/75 72/71/75 87/94/75 88/96/75
f 66/74/76 65/72/76 80/95/76 81/97/76
f 59/76/77 1/98/77 74/99/77
f 13/100/78 73/73/78 88/96/78
f 67/78/79 66/74/79 81/97/79 82/84/79
f 60/79/80 59/76/80 74/99/80 75/86/80
f 87/94/81 86/92/81 101/101/81 102/102/81
f 80/95/82 79/93/82 94/103/82 95/104/82
f 88/96/83 87/94/83 102/102/83 103/105/83
f 81/97/84 80/95/84 95/104/84 96/106/84
f 74/99/85 1/107/85 89/108/85
f 13/109/86 88/96/86 103/105/86
f 82/84/87 81/97/87 96/106/87 97/110/87
f 75/86/88 74/99/88 89/108/88 90/111/88
f 83/85/89 82/84/89 97/110/89 98/112/89
f 76/87/90 75/86/90 90/111/90 91/113/90
f 84/88/91 83/85/91 98/112/91 99/114/91
f 77/89/92 76/87/92 91/113/92 92/115/92
f 85/90/93 84/88/93 99/114/93 100/116/93
f 78/91/94 77/89/94 92/115/94 93/117/94
f 86/92/95 85/90/95 100/116/95 101/101/95
f 79/93/96 78/91/96 93/117/96 94/103/96
f 91/113/97 90/111/97 105/118/97 106/119/97
f 99/114/98 98/112/98 113/120/98 114/121/98
f 92/115/99 91/113/99 106/119/99 107/122/99
f 100/116/100 99/114/100 114/121/100 115/123/100
f 93/117/101 92/115/101 107/122/101 108/124/101
f 101/101/102 100/116/102 115/123/102 116/125/102
f 94/103/103 93/117/103 108/124/103 109/126/103
f 102/102/104 101/101/104 116/125/104 117/127/104
f 95/104/105 94/103/105 109/126/105 110/128/105
f 103/105/106 102/102/106 117/127/106 118/129/106
f 96/106/107 95/104/107 110/128/107 111/130/107
f 89/108/108 1/131/108 104/132/108
f 13/133/109 103/105/109 118/129/109
f 97/110/110 96/106/110 111/130/110 112/134/110
f 90/111/111 89/108/111 104/132/111 105/118/111
f 98/112/112 97/110/112 112/134/112 113/120/112
f 110/128/113 109/126/113 124/135/113 125/136/113
f 118/129/114 117/127/114 132/137/114 133/138/114
f 111/130/115 110/128/115 125/136/115 126/139/115
f 104/132/116 1/140/116 119/141/116
f 13/142/117 118/129/117 133/138/117
f 112/134/118 111/130/118 126/139/118 127/143/118
f 105/118/119 104/132/119 119/141/119 120/144/119
f 113/120/120 112/134/120 127/143/120 128/145/120
f 106/119/121 105/118/121 120/144/121 121/146/121
f 114/121/122 113/120/122 128/145/122 129/147/122
f 107/122/123 106/119/123 121/146/123 122/148/123
f 115/123/124 114/121/124 129/147/124 130/149/124
f 108/124/125 107/122/125 122/148/125 123/150/125
f 116/125/126 115/123/126 130/149/126 131/151/126
f 109/126/127 108/124/127 123/150/127 124/135/127
f 117/127/128 116/125/128 131/151/128 132/137/128
f 129/147/129 128/145/129 143/152/129 144/153/129
f 122/148/130 121/146/130 136/154/130 137/155/130
f 130/149/131 129/147/131 144/153/131 145/156/131
f 123/150/132 122/148/132 137/155/132 138/157/132
f 131/151/133 130/149/133 145/156/133 146/158/133
f 124/135/134 123/150/134 138/157/134 139/159/134
f 132/137/135 131/151/135 146/158/135 147/160/135
f 125/136/136 124/135/136 139/159/136 140/161/136
f 133/138/137 132/137/137 147/160/137 148/162/137
f 126/139/138 125/136/138 140/161/138 141/163/138
f 119/141/139 1/164/139 134/165/139
f 13/166/140 133/138/140 148/162/140
f 127/143/141 126/139/141 141/163/141 142/167/141
f 120/144/142 119/141/142 134/165/142 135/168/142
f 128/145/143 127/143/143 142/167/143 143/152/143
f 121/146/144 120/144/144 135/168/144 136/154/144
f 148/162/145 147/160/145 162/169/145 163/170/145
f 141/163/146 140/161/146 155/171/146 156/172/146
f 134/165/147 1/173/147 149/174/147
f 13/175/148 148/162/148 163/170/148
f 142/167/149 141/163/149 156/172/149 157/176/149
f 135/168/150 134/165/150 149/174/150 150/177/150
f 143/152/151 142/167/151 157/176/151 158/178/151
f 136/154/152 135/168/152 150/177/152 151/179/152
f 144/153/153 143/152/153 158/178/153 159/180/153
f 137/155/154 136/154/154 151/179/154 152/181/154
f 145/156/155 144/153/155 159/180/155 160/182/155
f 138/157/156 137/155/156 152/181/156 153/183/156
f 146/158/157 145/156/157 160/182/157 161/184/157
f 139/159/158 138/157/158 153/183/158 154/185/158
f 147/160/159 146/158/159 161/184/159 162/169/159
f 140/161/160 139/159/160 154/185/160 155/171/160
f 152/181/161 151/179/161 166/186/161 167/187/161
f 160/182/162 159/180/162 174/188/162 175/189/162
f 153/183/163 152/181/163 167/187/163 168/190/163
f 161/184/164 160/182/164 175/189/164 176/191/164
f 154/185/165 153/183/165 168/190/165 169/192/165
f 162/169/166 161/184/166 176/191/166 177/193/166
f 155/171/167 154/185/167 169/192/167 170/194/167
f 163/170/168 162/169/168 177/193/168 178/195/168
f 156/172/169 155/171/169 170/194/169 171/196/169
f 149/174/170 1/197/170 164/198/170
f 13/199/171 163/170/171 178/195/171
f 157/176/172 156/172/172 171/196/172 172/200/172
f 150/177/173 149/174/173 164/198/173 165/201/173
f 158/178/174 157/176/174 172/200/174 173/202/174
f 151/179/175 150/177/175 165/201/175 166/186/175
f 159/180/176 158/178/176 173/202/176 174/188/176
f 171/196/177 170/194/177 185/203/177 186/204/177
f 164/198/178 1/205/178 179/206/178
f 13/207/179 178/195/179 193/208/179
f 172/200/180 171/196/180 186/204/180 187/209/180
f 165/201/181 164/198/181 179/206/181 180/210/181
f 173/202/182 172/200/182 187/209/182 188/211/182
f 166/186/183 165/201/183 180/210/183 181/212/183
f 174/188/184 173/202/184 188/211/184 189/213/184
f 167/187/185 166/186/185 181/212/185 182/214/185
f 175/189/186 174/188/186 189/213/186 190/215/186
f 168/190/187 167/187/187 182/214/187 183/216/187
f 176/191/188 175/189/188 190/215/188 191/217/188
f 169/192/189 168/190/189 183/216/189 184/218/189
f 177/193/190 176/191/190 191/217/190 192/219/190
f 170/194/191 169/192/191 184/218/191 185/203/191
f 178/195/192 177/193/192 192/219/192 193/208/192
f 190/220/193 189/221/193 204/222/193 205/223/193
f 183/224/194 182/225/194 197/226/194 198/227/194
f 191/228/195 190/220/195 205/223/195 206/229/195
f 184/230/196 183/224/196 198/227/196 199/231/196
f 192/232/197 191/228/197 206/229/197 207/233/197
f 185/234/198 184/230/198 199/231/198 200/235/198
f 193/236/199 192/232/199 207/233/199 208/237/199
f 186/238/200 185/234/200 200/235/200 201/239/200
f 179/240/201 1/241/201 194/242/201
f 13/243/202 193/236/202 208/237/202
f 187/244/203 186/238/203 201/239/203 202/245/203
f 180/246/204 179/240/204 194/242/204 195/247/204
f 188/248/205 187/244/205 202/245/205 203/249/205
f 181/250/206 180/246/206 195/247/206 196/251/206
f 189/221/207 188/248/207 203/249/207 204/222/207
f 182/225/208 181/250/208 196/251/208 197/226/208
f 13/252/209 208/237/209 223/253/209
f 202/245/210 201/239/210 216/254/210 217/255/210
f 195/247/211 194/242/211 209/256/211 210/257/211
f 203/249/212 202/245/212 217/255/212 218/258/212
f 196/251/213 195/247/213 210/257/213 211/259/213
f 204/222/214 203/249/214 218/258/214 219/260/214
f 197/226/215 196/251/215 211/259/215 212/261/215
f 205/223/216 204/222/216 219/260/216 220/262/216
f 198/227/217 197/226/217 212/261/217 213/263/217
f 206/229/218 205/223/218 220/262/218 221/264/218
f 199/231/219 198/227/219 213/263/219 214/265/219
f 207/233/220 206/229/220 221/264/220 222/266/220
f 200/235/221 199/231/221 214/265/221 215/267/221
f 208/237/222 207/233/222 222/266/222 223/253/222
f 201/239/223 200/235/223 215/267/223 216/254/223
f 194/242/224 1/268/224 209/256/224
f 221/264/225 220/262/225 235/269/225 236/270/225
f 214/265/226 213/263/226 228/271/226 229/272/226
f 222/266/227 221/264/227 236/270/227 237/273/227
f 215/267/228 214/265/228 229/272/228 230/274/228
f 223/253/229 222/266/229 237/273/229 238/275/229
f 216/254/230 215/267/230 230/274/230 231/276/230
f 209/256/231 1/277/231 224/278/231
f 13/279/232 223/253/232 238/275/232
f 217/255/233 216/254/233 231/276/233 232/280/233
f 210/257/234 209/256/234 224/278/234 225/281/234
f 218/258/235 217/255/235 232/280/235 233/282/235
f 211/259/236 210/257/236 225/281/236 226/283/236
f 219/260/237 218/258/237 233/282/237 234/284/237
f 212/261/238 211/259/238 226/283/238 227/285/238
f 220/262/239 219/260/239 234/284/239 235/269/239
f 213/263/240 212/261/240 227/285/240 228/271/240
f 225/281/241 224/278/241 2/13/241 239/19/241
f 233/282/242 232/280/242 6/17/242 7/21/242
f 226/283/243 225/281/243 239/19/243 240/23/243
f 234/284/244 233/282/244 7/21/244 8/25/244
f 227/285/245 226/283/245 240/23/245 3/27/245
f 235/269/246 234/284/246 8/25/246 9/29/246
f 228/271/247 227/285/247 3/27/247 241/31/247
f 236/270/248 235/269/248 9/29/248 10/2/248
f 229/272/249 228/271/249 241/31/249 4/6/249
f 237/273/250 236/270/250 10/2/250 11/1/250
f 230/274/251 229/272/251 4/6/251 5/5/251
f 238/275/252 237/273/252 11/1/252 12/9/252
f 231/276/253 230/274/253 5/5/253 242/11/253
f 224/278/254 1/286/254 2/13/254
f 13/287/255 238/275/255 12/9/255
f 232/280/256 231/276/256 242/11/256 6/17/256
o Horn_L1
v -0.159299 0.981503 -0.220872
v -0.140303 0.967910 -0.219310
v -0.127827 0.948606 -0.214861
v -0.123769 0.926532 -0.208204
v -0.128749 0.905047 -0.200351
v -0.142006 0.887422 -0.192498
v -0.161525 0.876341 -0.185840
v -0.184331 0.873491 -0.181392
v -0.206955 0.879305 -0.179830
v -0.225951 0.892898 -0.181392
v -0.238427 0.912202 -0.185840
v -0.242485 0.934276 -0.192498
v -0.237505 0.955761 -0.200351
v -0.224248 0.973386 -0.208204
v -0.204730 0.984467 -0.214861
v -0.181923 0.987317 -0.219310
v -0.136873 1.029596 0.100351
vn 0.5831 0.7965 -0.1600
vn 0.8461 0.5216 -0.1097
vn 0.9843 0.1758 -0.0169
vn 0.9766 -0.1882 0.1043
vn 0.8242 -0.5150 0.2356
vn 0.5503 -0.7549 0.3568
vn 0.1966 -0.8713 0.4496
vn -0.1830 -0.8465 0.4999
vn -0.5308 -0.6844 0.4999
vn -0.7938 -0.4095 0.4496
vn -0.9320 -0.0637 0.3568
vn -0.9243 0.3003 0.2356
vn -0.7719 0.6271 0.1043
vn -0.4980 0.8670 -0.0169
vn -0.1445 -0.3100 -0.9397
vn -0.1443 0.9834 -0.1097
vn 0.2353 0.9587 -0.1600
vt 0.250000 0.490000
vt 0.250000 0.250000
vt 0.341844 0.471731
vt 0.419706 0.419706
vt 0.471731 0.341844
vt 0.490000 0.250000
vt 0.471731 0.158156
vt 0.419706 0.080294
vt 0.341844 0.028269
vt 0.250000 0.010000
vt 0.158156 0.028269
vt 0.080294 0.080294
vt 0.028269 0.158156
vt 0.010000 0.250000
vt 0.028269 0.341844
vt 0.080294 0.419706
vt 0.750000 0.490000
vt 0.841844 0.471731
vt 0.919706 0.419706
vt 0.971731 0.341844
vt 0.990000 0.250000
vt 0.971731 0.158156
vt 0.919706 0.080294
vt 0.841844 0.028269
vt 0.750000 0.010000
vt 0.658156 0.028269
vt 0.580294 0.080294
vt 0.528269 0.158156
vt 0.510000 0.250000
vt 0.528269 0.341844
vt 0.580294 0.419706
vt 0.658156 0.471731
vt 0.158156 0.471731
s 0
usemtl Garg_DarkStone
f 243/288/257 259/289/257 244/290/257
f 244/290/258 259/289/258 245/291/258
f 245/291/259 259/289/259 246/292/259
f 246/292/260 259/289/260 247/293/260
f 247/293/261 259/289/261 248/294/261
f 248/294/262 259/289/262 249/295/262
f 249/295/263 259/289/263 250/296/263
f 250/296/264 259/289/264 251/297/264
f 251/297/265 259/289/265 252/298/265
f 252/298/266 259/289/266 253/299/266
f 253/299/267 259/289/267 254/300/267
f 254/300/268 259/289/268 255/301/268
f 255/301/269 259/289/269 256/302/269
f 256/302/270 259/289/270 257/303/270
f 243/304/271 244/305/271 245/306/271 246/307/271 247/308/271 248/309/271 249/310/271 250/311/271 251/312/271 252/313/271 253/314/271 254/315/271 255/316/271 256/317/271 257/318/271 258/319/271
f 257/303/272 259/289/272 258/320/272
f 258/320/273 259/289/273 243/288/273
o Horn_R1
v 0.159299 0.981503 -0.220872
v 0.181923 0.987317 -0.219310
v 0.204730 0.984467 -0.214861
v 0.224248 0.973386 -0.208204
v 0.237505 0.955761 -0.200351
v 0.242485 0.934276 -0.192498
v 0.238427 0.912202 -0.185840
v 0.225951 0.892898 -0.181392
v 0.206955 0.879305 -0.179830
v 0.184331 0.873491 -0.181392
v 0.161525 0.876341 -0.185840
v 0.142006 0.887422 -0.192498
v 0.128749 0.905047 -0.200351
v 0.123769 0.926532 -0.208204
v 0.127827 0.948606 -0.214861
v 0.140303 0.967910 -0.219310
v 0.136873 1.029596 0.100351
vn -0.2353 0.9587 -0.1600
vn 0.1443 0.9834 -0.1097
vn 0.4980 0.8670 -0.0169
vn 0.7719 0.6271 0.1043
vn 0.9243 0.3003 0.2356
vn 0.9320 -0.0637 0.3568
vn 0.7938 -0.4095 0.4496
vn 0.5308 -0.6844 0.4999
vn 0.1830 -0.8465 0.4999
vn -0.1966 -0.8713 0.4496
vn -0.5503 -0.7549 0.3568
vn -0.8242 -0.5150 0.2356
vn -0.9766 -0.1882 0.1043
vn -0.9843 0.1758 -0.0169
vn 0.1445 -0.3100 -0.9397
vn -0.8461 0.5216 -0.1097
vn -0.5831 0.7965 -0.1600
vt 0.250000 0.490000
vt 0.250000 0.250000
vt 0.341844 0.471731
vt 0.419706 0.419706
vt 0.471731 0.341844
vt 0.490000 0.250000
vt 0.471731 0.158156
vt 0.419706 0.080294
vt 0.341844 0.028269
vt 0.250000 0.010000
vt 0.158156 0.028269
vt 0.080294 0.080294
vt 0.028269 0.158156
vt 0.010000 0.250000
vt 0.028269 0.341844
vt 0.080294 0.419706
vt 0.750000 0.490000
vt 0.841844 0.471731
vt 0.919706 0.419706
vt 0.971731 0.341844
vt 0.990000 0.250000
vt 0.971731 0.158156
vt 0.919706 0.080294
vt 0.841844 0.028269
vt 0.750000 0.010000
vt 0.658156 0.028269
vt 0.580294 0.080294
vt 0.528269 0.158156
vt 0.510000 0.250000
vt 0.528269 0.341844
vt 0.580294 0.419706
vt 0.658156 0.471731
vt 0.158156 0.471731
s 0
usemtl Garg_DarkStone
f 260/321/274 276/322/274 261/323/274
f 261/323/275 276/322/275 262/324/275
f 262/324/276 276/322/276 263/325/276
f 263/325/277 276/322/277 264/326/277
f 264/326/278 276/322/278 265/327/278
f 265/327/279 276/322/279 266/328/279
f 266/328/280 276/322/280 267/329/280
f 267/329/281 276/322/281 268/330/281
f 268/330/282 276/322/282 269/331/282
f 269/331/283 276/322/283 270/332/283
f 270/332/284 276/322/284 271/333/284
f 271/333/285 276/322/285 272/334/285
f 272/334/286 276/322/286 273/335/286
f 273/335/287 276/322/287 274/336/287
f 260/337/288 261/338/288 262/339/288 263/340/288 264/341/288 265/342/288 266/343/288 267/344/288 268/345/288 269/346/288 270/347/288 271/348/288 272/349/288 273/350/288 274/351/288 275/352/288
f 274/336/289 276/322/289 275/353/289
f 275/353/290 276/322/290 260/321/290
o Eye_L
v -0.115000 0.762500 0.200000
v -0.115000 0.762500 0.240000
v -0.115000 0.797500 0.200000
v -0.115000 0.797500 0.240000
v -0.065000 0.762500 0.200000
v -0.065000 0.762500 0.240000
v -0.065000 0.797500 0.200000
v -0.065000 0.797500 0.240000
vn -1.0000 -0.0000 -0.0000
vn -0.0000 1.0000 -0.0000
vn 1.0000 -0.0000 -0.0000
vn -0.0000 -1.0000 -0.0000
vn -0.0000 -0.0000 -1.0000
vn -0.0000 -0.0000 1.0000
vt 0.375000 0.000000
vt 0.625000 0.000000
vt 0.625000 0.250000
vt 0.375000 0.250000
vt 0.625000 0.500000
vt 0.375000 0.500000
vt 0.625000 0.750000
vt 0.375000 0.750000
vt 0.625000 1.000000
vt 0.375000 1.000000
vt 0.125000 0.500000
vt 0.125000 0.750000
vt 0.875000 0.500000
vt 0.875000 0.750000
s 0
usemtl Garg_AmberEyes
f 277/354/291 278/355/291 280/356/291 279/357/291
f 279/357/292 280/356/292 284/358/292 283/359/292
f 283/359/293 284/358/293 282/360/293 281/361/293
f 281/361/294 282/360/294 278/362/294 277/363/294
f 279/364/295 283/359/295 281/361/295 277/365/295
f 284/358/296 280/366/296 278/367/296 282/360/296
o Eye_R
v 0.065000 0.762500 0.200000
v 0.065000 0.762500 0.240000
v 0.065000 0.797500 0.200000
v 0.065000 0.797500 0.240000
v 0.115000 0.762500 0.200000
v 0.115000 0.762500 0.240000
v 0.115000 0.797500 0.200000
v 0.115000 0.797500 0.240000
vn -1.0000 -0.0000 -0.0000
vn -0.0000 1.0000 -0.0000
vn 1.0000 -0.0000 -0.0000
vn -0.0000 -1.0000 -0.0000
vn -0.0000 -0.0000 -1.0000
vn -0.0000 -0.0000 1.0000
vt 0.375000 0.000000
vt 0.625000 0.000000
vt 0.625000 0.250000
vt 0.375000 0.250000
vt 0.625000 0.500000
vt 0.375000 0.500000
vt 0.625000 0.750000
vt 0.375000 0.750000
vt 0.625000 1.000000
vt 0.375000 1.000000
vt 0.125000 0.500000
vt 0.125000 0.750000
vt 0.875000 0.500000
vt 0.875000 0.750000
s 0
usemtl Garg_AmberEyes
f 285/368/297 286/369/297 288/370/297 287/371/297
f 287/371/298 288/370/298 292/372/298 291/373/298
f 291/373/299 292/372/299 290/374/299 289/375/299
f 289/375/300 290/374/300 286/376/300 285/377/300
f 287/378/301 291/373/301 289/375/301 285/379/301
f 292/372/302 288/380/302 286/381/302 290/374/302
o Snout_Fangs
v -0.090000 0.605000 0.090000
v -0.090000 0.605000 0.230000
v -0.090000 0.695000 0.090000
v -0.090000 0.695000 0.230000
v 0.090000 0.605000 0.090000
v 0.090000 0.605000 0.230000
v 0.090000 0.695000 0.090000
v 0.090000 0.695000 0.230000
vn -1.0000 -0.0000 -0.0000
vn -0.0000 1.0000 -0.0000
vn 1.0000 -0.0000 -0.0000
vn -0.0000 -1.0000 -0.0000
vn -0.0000 -0.0000 -1.0000
vn -0.0000 -0.0000 1.0000
vt 0.375000 0.000000
vt 0.625000 0.000000
vt 0.625000 0.250000
vt 0.375000 0.250000
vt 0.625000 0.500000
vt 0.375000 0.500000
vt 0.625000 0.750000
vt 0.375000 0.750000
vt 0.625000 1.000000
vt 0.375000 1.000000
vt 0.125000 0.500000
vt 0.125000 0.750000
vt 0.875000 0.500000
vt 0.875000 0.750000
s 0
usemtl Garg_DarkStone
f 293/382/303 294/383/303 296/384/303 295/385/303
f 295/385/304 296/384/304 300/386/304 299/387/304
f 299/387/305 300/386/305 298/388/305 297/389/305
f 297/389/306 298/388/306 294/390/306 293/391/306
f 295/392/307 299/387/307 297/389/307 293/393/307
f 300/386/308 296/394/308 294/395/308 298/388/308
o Torso
v -0.220000 0.100000 -0.170000
v -0.220000 0.100000 0.170000
v -0.220000 0.620000 -0.170000
v -0.220000 0.620000 0.170000
v 0.220000 0.100000 -0.170000
v 0.220000 0.100000 0.170000
v 0.220000 0.620000 -0.170000
v 0.220000 0.620000 0.170000
vn -1.0000 -0.0000 -0.0000
vn -0.0000 1.0000 -0.0000
vn 1.0000 -0.0000 -0.0000
vn -0.0000 -1.0000 -0.0000
vn -0.0000 -0.0000 -1.0000
vn -0.0000 -0.0000 1.0000
vt 0.375000 0.000000
vt 0.625000 0.000000
vt 0.625000 0.250000
vt 0.375000 0.250000
vt 0.625000 0.500000
vt 0.375000 0.500000
vt 0.625000 0.750000
vt 0.375000 0.750000
vt 0.625000 1.000000
vt 0.375000 1.000000
vt 0.125000 0.500000
vt 0.125000 0.750000
vt 0.875000 0.500000
vt 0.875000 0.750000
s 0
usemtl Garg_Stone
f 301/396/309 302/397/309 304/398/309 303/399/309
f 303/399/310 304/398/310 308/400/310 307/401/310
f 307/401/311 308/400/311 306/402/311 305/403/311
f 305/403/312 306/402/312 302/404/312 301/405/312
f 303/406/313 307/401/313 305/403/313 301/407/313
f 308/400/314 304/408/314 302/409/314 306/402/314
o Stone_Rib_0
v -0.180000 0.420000 -0.160000
v -0.180000 0.420000 0.200000
v -0.180000 0.460000 -0.160000
v -0.180000 0.460000 0.200000
v 0.180000 0.420000 -0.160000
v 0.180000 0.420000 0.200000
v 0.180000 0.460000 -0.160000
v 0.180000 0.460000 0.200000
vn -1.0000 -0.0000 -0.0000
vn -0.0000 1.0000 -0.0000
vn 1.0000 -0.0000 -0.0000
vn -0.0000 -1.0000 -0.0000
vn -0.0000 -0.0000 -1.0000
vn -0.0000 -0.0000 1.0000
vt 0.375000 0.000000
vt 0.625000 0.000000
vt 0.625000 0.250000
vt 0.375000 0.250000
vt 0.625000 0.500000
vt 0.375000 0.500000
vt 0.625000 0.750000
vt 0.375000 0.750000
vt 0.625000 1.000000
vt 0.375000 1.000000
vt 0.125000 0.500000
vt 0.125000 0.750000
vt 0.875000 0.500000
vt 0.875000 0.750000
s 0
usemtl Garg_DarkStone
f 309/410/315 310/411/315 312/412/315 311/413/315
f 311/413/316 312/412/316 316/414/316 315/415/316
f 315/415/317 316/414/317 314/416/317 313/417/317
f 313/417/318 314/416/318 310/418/318 309/419/318
f 311/420/319 315/415/319 313/417/319 309/421/319
f 316/414/320 312/422/320 310/423/320 314/416/320
o Stone_Rib_1
v -0.150000 0.320000 -0.160000
v -0.150000 0.320000 0.200000
v -0.150000 0.360000 -0.160000
v -0.150000 0.360000 0.200000
v 0.150000 0.320000 -0.160000
v 0.150000 0.320000 0.200000
v 0.150000 0.360000 -0.160000
v 0.150000 0.360000 0.200000
vn -1.0000 -0.0000 -0.0000
vn -0.0000 1.0000 -0.0000
vn 1.0000 -0.0000 -0.0000
vn -0.0000 -1.0000 -0.0000
vn -0.0000 -0.0000 -1.0000
vn -0.0000 -0.0000 1.0000
vt 0.375000 0.000000
vt 0.625000 0.000000
vt 0.625000 0.250000
vt 0.375000 0.250000
vt 0.625000 0.500000
vt 0.375000 0.500000
vt 0.625000 0.750000
vt 0.375000 0.750000
vt 0.625000 1.000000
vt 0.375000 1.000000
vt 0.125000 0.500000
vt 0.125000 0.750000
vt 0.875000 0.500000
vt 0.875000 0.750000
s 0
usemtl Garg_DarkStone
f 317/424/321 318/425/321 320/426/321 319/427/321
f 319/427/322 320/426/322 324/428/322 323/429/322
f 323/429/323 324/428/323 322/430/323 321/431/323
f 321/431/324 322/430/324 318/432/324 317/433/324
f 319/434/325 323/429/325 321/431/325 317/435/325
f 324/428/326 320/436/326 318/437/326 322/430/326
o Wing_L1
v -0.857591 0.349207 -0.301750
v -0.873447 0.342801 -0.254765
v -0.940004 0.553188 -0.301750
v -0.955860 0.546781 -0.254765
v -0.204140 0.613218 -0.045235
v -0.219996 0.606812 0.001750
v -0.286553 0.817199 -0.045235
v -0.302409 0.810793 0.001750
vn -0.8713 -0.3520 -0.3420
vn -0.3746 0.9272 -0.0000
vn 0.8713 0.3520 0.3420
vn 0.3746 -0.9272 -0.0000
vn 0.3171 0.1281 -0.9397
vn -0.3171 -0.1281 0.9397
vt 0.375000 0.000000
vt 0.625000 0.000000
vt 0.625000 0.250000
vt 0.375000 0.250000
vt 0.625000 0.500000
vt 0.375000 0.500000
vt 0.625000 0.750000
vt 0.375000 0.750000
vt 0.625000 1.000000
vt 0.375000 1.000000
vt 0.125000 0.500000
vt 0.125000 0.750000
vt 0.875000 0.500000
vt 0.875000 0.750000
s 0
usemtl Garg_Stone
f 325/438/327 326/439/327 328/440/327 327/441/327
f 327/441/328 328/440/328 332/442/328 331/443/328
f 331/443/329 332/442/329 330/444/329 329/445/329
f 329/445/330 330/444/330 326/446/330 325/447/330
f 327/448/331 331/443/331 329/445/331 325/449/331
f 332/442/332 328/450/332 326/451/332 330/444/332
o Wing_L2
v -1.042814 0.429811 -0.374821
v -1.058575 0.417497 -0.340180
v -1.276766 0.729255 -0.374821
v -1.292526 0.716941 -0.340180
v -0.667474 0.723059 -0.099820
v -0.683234 0.710745 -0.065179
v -0.901425 1.022503 -0.099820
v -0.917186 1.010190 -0.065179
vn -0.6824 -0.5332 -0.5000
vn -0.6157 0.7880 -0.0000
vn 0.6824 0.5332 0.5000
vn 0.6157 -0.7880 -0.0000
vn 0.3940 0.3078 -0.8660
vn -0.3940 -0.3078 0.8660
vt 0.375000 0.000000
vt 0.625000 0.000000
vt 0.625000 0.250000
vt 0.375000 0.250000
vt 0.625000 0.500000
vt 0.375000 0.500000
vt 0.625000 0.750000
vt 0.375000 0.750000
vt 0.625000 1.000000
vt 0.375000 1.000000
vt 0.125000 0.500000
vt 0.125000 0.750000
vt 0.875000 0.500000
vt 0.875000 0.750000
s 0
usemtl Garg_DarkStone
f 333/452/333 334/453/333 336/454/333 335/455/333
f 335/455/334 336/454/334 340/456/334 339/457/334
f 339/457/335 340/456/335 338/458/335 337/459/335
f 337/459/336 338/458/336 334/460/336 333/461/336
f 335/462/337 339/457/337 337/459/337 333/463/337
f 340/456/338 336/464/338 334/465/338 338/458/338
o Wing_R1
v 0.204140 0.613218 -0.045235
v 0.219996 0.606812 0.001750
v 0.286553 0.817199 -0.045235
v 0.302409 0.810793 0.001750
v 0.857591 0.349207 -0.301750
v 0.873447 0.342801 -0.254765
v 0.940004 0.553188 -0.301750
v 0.955860 0.546781 -0.254765
vn -0.8713 0.3520 0.3420
vn 0.3746 0.9272 -0.0000
vn 0.8713 -0.3520 -0.3420
vn -0.3746 -0.9272 -0.0000
vn -0.3171 0.1281 -0.9397
vn 0.3171 -0.1281 0.9397
vt 0.375000 0.000000
vt 0.625000 0.000000
vt 0.625000 0.250000
vt 0.375000 0.250000
vt 0.625000 0.500000
vt 0.375000 0.500000
vt 0.625000 0.750000
vt 0.375000 0.750000
vt 0.625000 1.000000
vt 0.375000 1.000000
vt 0.125000 0.500000
vt 0.125000 0.750000
vt 0.875000 0.500000
vt 0.875000 0.750000
s 0
usemtl Garg_Stone
f 341/466/339 342/467/339 344/468/339 343/469/339
f 343/469/340 344/468/340 348/470/340 347/471/340
f 347/471/341 348/470/341 346/472/341 345/473/341
f 345/473/342 346/472/342 342/474/342 341/475/342
f 343/476/343 347/471/343 345/473/343 341/477/343
f 348/470/344 344/478/344 342/479/344 346/472/344
o Wing_R2
v 0.667474 0.723059 -0.099820
v 0.683234 0.710745 -0.065179
v 0.901425 1.022503 -0.099820
v 0.917186 1.010190 -0.065179
v 1.042814 0.429811 -0.374821
v 1.058575 0.417497 -0.340180
v 1.276766 0.729255 -0.374821
v 1.292526 0.716941 -0.340180
vn -0.6824 0.5332 0.5000
vn 0.6157 0.7880 -0.0000
vn 0.6824 -0.5332 -0.5000
vn -0.6157 -0.7880 -0.0000
vn -0.3940 0.3078 -0.8660
vn 0.3940 -0.3078 0.8660
vt 0.375000 0.000000
vt 0.625000 0.000000
vt 0.625000 0.250000
vt 0.375000 0.250000
vt 0.625000 0.500000
vt 0.375000 0.500000
vt 0.625000 0.750000
vt 0.375000 0.750000
vt 0.625000 1.000000
vt 0.375000 1.000000
vt 0.125000 0.500000
vt 0.125000 0.750000
vt 0.875000 0.500000
vt 0.875000 0.750000
s 0
usemtl Garg_DarkStone
f 349/480/345 350/481/345 352/482/345 351/483/345
f 351/483/346 352/482/346 356/484/346 355/485/346
f 355/485/347 356/484/347 354/486/347 353/487/347
f 353/487/348 354/486/348 350/488/348 349/489/348
f 351/490/349 355/485/349 353/487/349 349/491/349
f 356/484/350 352/492/350 350/493/350 354/486/350
o Arm_L
v -0.260000 0.410622 -0.020885
v -0.260000 0.230622 0.290885
v -0.233212 0.406007 -0.023549
v -0.233212 0.226007 0.288220
v -0.210503 0.392866 -0.031136
v -0.210503 0.212866 0.280633
v -0.195328 0.373199 -0.042491
v -0.195328 0.193199 0.269278
v -0.190000 0.350000 -0.055885
v -0.190000 0.170000 0.255885
v -0.195328 0.326801 -0.069279
v -0.195328 0.146801 0.242491
v -0.210503 0.307134 -0.080633
v -0.210503 0.127134 0.231136
v -0.233212 0.293993 -0.088220
v -0.233212 0.113993 0.223549
v -0.260000 0.289378 -0.090885
v -0.260000 0.109378 0.220885
v -0.286788 0.293993 -0.088220
v -0.286788 0.113993 0.223549
v -0.309497 0.307134 -0.080633
v -0.309497 0.127134 0.231136
v -0.324672 0.326801 -0.069279
v -0.324672 0.146801 0.242491
v -0.330000 0.350000 -0.055885
v -0.330000 0.170000 0.255885
v -0.324672 0.373199 -0.042491
v -0.324672 0.193199 0.269278
v -0.309497 0.392866 -0.031136
v -0.309497 0.212866 0.280633
v -0.286788 0.406007 -0.023549
v -0.286788 0.226007 0.288220
vn 0.1951 0.8494 0.4904
vn 0.5556 0.7201 0.4157
vn 0.8315 0.4811 0.2778
vn 0.9808 0.1690 0.0975
vn 0.9808 -0.1690 -0.0975
vn 0.8315 -0.4811 -0.2778
vn 0.5556 -0.7201 -0.4157
vn 0.1951 -0.8494 -0.4904
vn -0.1951 -0.8494 -0.4904
vn -0.5556 -0.7201 -0.4157
vn -0.8315 -0.4811 -0.2778
vn -0.9808 -0.1690 -0.0975
vn -0.9808 0.1690 0.0975
vn -0.8315 0.4811 0.2778
vn -0.0000 -0.5000 0.8660
vn -0.5556 0.7201 0.4157
vn -0.1951 0.8494 0.4904
vn -0.0000 0.5000 -0.8660
vt 1.000000 0.500000
vt 1.000000 1.000000
vt 0.937500 1.000000
vt 0.937500 0.500000
vt 0.875000 1.000000
vt 0.875000 0.500000
vt 0.812500 1.000000
vt 0.812500 0.500000
vt 0.750000 1.000000
vt 0.750000 0.500000
vt 0.687500 1.000000
vt 0.687500 0.500000
vt 0.625000 1.000000
vt 0.625000 0.500000
vt 0.562500 1.000000
vt 0.562500 0.500000
vt 0.500000 1.000000
vt 0.500000 0.500000
vt 0.437500 1.000000
vt 0.437500 0.500000
vt 0.375000 1.000000
vt 0.375000 0.500000
vt 0.312500 1.000000
vt 0.312500 0.500000
vt 0.250000 1.000000
vt 0.250000 0.500000
vt 0.187500 1.000000
vt 0.187500 0.500000
vt 0.125000 1.000000
vt 0.125000 0.500000
vt 0.341844 0.471731
vt 0.250000 0.490000
vt 0.158156 0.471731
vt 0.080294 0.419706
vt 0.028269 0.341844
vt 0.010000 0.250000
vt 0.028269 0.158156
vt 0.080294 0.080294
vt 0.158156 0.028269
vt 0.250000 0.010000
vt 0.341844 0.028269
vt 0.419706 0.080294
vt 0.471731 0.158156
vt 0.490000 0.250000
vt 0.471731 0.341844
vt 0.419706 0.419706
vt 0.062500 1.000000
vt 0.062500 0.500000
vt 0.000000 1.000000
vt 0.000000 0.500000
vt 0.750000 0.490000
vt 0.841844 0.471731
vt 0.919706 0.419706
vt 0.971731 0.341844
vt 0.990000 0.250000
vt 0.971731 0.158156
vt 0.919706 0.080294
vt 0.841844 0.028269
vt 0.750000 0.010000
vt 0.658156 0.028269
vt 0.580294 0.080294
vt 0.528269 0.158156
vt 0.510000 0.250000
vt 0.528269 0.341844
vt 0.580294 0.419706
vt 0.658156 0.471731
s 0
usemtl Garg_Stone
f 357/494/351 358/495/351 360/496/351 359/497/351
f 359/497/352 360/496/352 362/498/352 361/499/352
f 361/499/353 362/498/353 364/500/353 363/501/353
f 363/501/354 364/500/354 366/502/354 365/503/354
f 365/503/355 366/502/355 368/504/355 367/505/355
f 367/505/356 368/504/356 370/506/356 369/507/356
f 369/507/357 370/506/357 372/508/357 371/509/357
f 371/509/358 372/508/358 374/510/358 373/511/358
f 373/511/359 374/510/359 376/512/359 375/513/359
f 375/513/360 376/512/360 378/514/360 377/515/360
f 377/515/361 378/514/361 380/516/361 379/517/361
f 379/517/362 380/516/362 382/518/362 381/519/362
f 381/519/363 382/518/363 384/520/363 383/521/363
f 383/521/364 384/520/364 386/522/364 385/523/364
f 360/524/365 358/525/365 388/526/365 386/527/365 384/528/365 382/529/365 380/530/365 378/531/365 376/532/365 374/533/365 372/534/365 370/535/365 368/536/365 366/537/365 364/538/365 362/539/365
f 385/523/366 386/522/366 388/540/366 387/541/366
f 387/541/367 388/540/367 358/542/367 357/543/367
f 357/544/368 359/545/368 361/546/368 363/547/368 365/548/368 367/549/368 369/550/368 371/551/368 373/552/368 375/553/368 377/554/368 379/555/368 381/556/368 383/557/368 385/558/368 387/559/368
o Talon_L
v -0.260000 0.156603 0.261962
v -0.237039 0.154319 0.258006
v -0.217574 0.147816 0.246742
v -0.204567 0.138083 0.229885
v -0.200000 0.126603 0.210000
v -0.204567 0.115122 0.190115
v -0.217574 0.105389 0.173258
v -0.237039 0.098886 0.161994
v -0.260000 0.096603 0.158038
v -0.282961 0.098886 0.161994
v -0.302426 0.105389 0.173258
v -0.315433 0.115122 0.190115
v -0.320000 0.126603 0.210000
v -0.315433 0.138083 0.229885
v -0.302426 0.147816 0.246742
v -0.282961 0.154319 0.258006
v -0.260000 -0.046603 0.310000
vn 0.1872 0.2260 0.9560
vn 0.5330 0.1544 0.8319
vn 0.7977 0.0220 0.6027
vn 0.9409 -0.1509 0.3032
vn 0.9409 -0.3380 -0.0209
vn 0.7977 -0.5109 -0.3204
vn 0.5330 -0.6433 -0.5497
vn 0.1872 -0.7149 -0.6737
vn -0.1872 -0.7149 -0.6737
vn -0.5330 -0.6433 -0.5497
vn -0.7977 -0.5109 -0.3204
vn -0.9409 -0.3380 -0.0209
vn -0.9409 -0.1509 0.3032
vn -0.7977 0.0220 0.6027
vn -0.0000 0.8660 -0.5000
vn -0.5330 0.1544 0.8319
vn -0.1872 0.2260 0.9560
vt 0.250000 0.490000
vt 0.250000 0.250000
vt 0.341844 0.471731
vt 0.419706 0.419706
vt 0.471731 0.341844
vt 0.490000 0.250000
vt 0.471731 0.158156
vt 0.419706 0.080294
vt 0.341844 0.028269
vt 0.250000 0.010000
vt 0.158156 0.028269
vt 0.080294 0.080294
vt 0.028269 0.158156
vt 0.010000 0.250000
vt 0.028269 0.341844
vt 0.080294 0.419706
vt 0.750000 0.490000
vt 0.841844 0.471731
vt 0.919706 0.419706
vt 0.971731 0.341844
vt 0.990000 0.250000
vt 0.971731 0.158156
vt 0.919706 0.080294
vt 0.841844 0.028269
vt 0.750000 0.010000
vt 0.658156 0.028269
vt 0.580294 0.080294
vt 0.528269 0.158156
vt 0.510000 0.250000
vt 0.528269 0.341844
vt 0.580294 0.419706
vt 0.658156 0.471731
vt 0.158156 0.471731
s 0
usemtl Garg_DarkStone
f 389/560/369 405/561/369 390/562/369
f 390/562/370 405/561/370 391/563/370
f 391/563/371 405/561/371 392/564/371
f 392/564/372 405/561/372 393/565/372
f 393/565/373 405/561/373 394/566/373
f 394/566/374 405/561/374 395/567/374
f 395/567/375 405/561/375 396/568/375
f 396/568/376 405/561/376 397/569/376
f 397/569/377 405/561/377 398/570/377
f 398/570/378 405/561/378 399/571/378
f 399/571/379 405/561/379 400/572/379
f 400/572/380 405/561/380 401/573/380
f 401/573/381 405/561/381 402/574/381
f 402/574/382 405/561/382 403/575/382
f 389/576/383 390/577/383 391/578/383 392/579/383 393/580/383 394/581/383 395/582/383 396/583/383 397/584/383 398/585/383 399/586/383 400/587/383 401/588/383 402/589/383 403/590/383 404/591/383
f 403/575/384 405/561/384 404/592/384
f 404/592/385 405/561/385 389/560/385
o Arm_R
v 0.260000 0.410622 -0.020885
v 0.260000 0.230622 0.290885
v 0.286788 0.406007 -0.023549
v 0.286788 0.226007 0.288220
v 0.309497 0.392866 -0.031136
v 0.309497 0.212866 0.280633
v 0.324672 0.373199 -0.042491
v 0.324672 0.193199 0.269278
v 0.330000 0.350000 -0.055885
v 0.330000 0.170000 0.255885
v 0.324672 0.326801 -0.069279
v 0.324672 0.146801 0.242491
v 0.309497 0.307134 -0.080633
v 0.309497 0.127134 0.231136
v 0.286788 0.293993 -0.088220
v 0.286788 0.113993 0.223549
v 0.260000 0.289378 -0.090885
v 0.260000 0.109378 0.220885
v 0.233212 0.293993 -0.088220
v 0.233212 0.113993 0.223549
v 0.210503 0.307134 -0.080633
v 0.210503 0.127134 0.231136
v 0.195328 0.326801 -0.069279
v 0.195328 0.146801 0.242491
v 0.190000 0.350000 -0.055885
v 0.190000 0.170000 0.255885
v 0.195328 0.373199 -0.042491
v 0.195328 0.193199 0.269278
v 0.210503 0.392866 -0.031136
v 0.210503 0.212866 0.280633
v 0.233212 0.406007 -0.023549
v 0.233212 0.226007 0.288220
vn 0.1951 0.8494 0.4904
vn 0.5556 0.7201 0.4157
vn 0.8315 0.4811 0.2778
vn 0.9808 0.1690 0.0975
vn 0.9808 -0.1690 -0.0975
vn 0.8315 -0.4811 -0.2778
vn 0.5556 -0.7201 -0.4157
vn 0.1951 -0.8494 -0.4904
vn -0.1951 -0.8494 -0.4904
vn -0.5556 -0.7201 -0.4157
vn -0.8315 -0.4811 -0.2778
vn -0.9808 -0.1690 -0.0975
vn -0.9808 0.1690 0.0975
vn -0.8315 0.4811 0.2778
vn -0.0000 -0.5000 0.8660
vn -0.5556 0.7201 0.4157
vn -0.1951 0.8494 0.4904
vn -0.0000 0.5000 -0.8660
vt 1.000000 0.500000
vt 1.000000 1.000000
vt 0.937500 1.000000
vt 0.937500 0.500000
vt 0.875000 1.000000
vt 0.875000 0.500000
vt 0.812500 1.000000
vt 0.812500 0.500000
vt 0.750000 1.000000
vt 0.750000 0.500000
vt 0.687500 1.000000
vt 0.687500 0.500000
vt 0.625000 1.000000
vt 0.625000 0.500000
vt 0.562500 1.000000
vt 0.562500 0.500000
vt 0.500000 1.000000
vt 0.500000 0.500000
vt 0.437500 1.000000
vt 0.437500 0.500000
vt 0.375000 1.000000
vt 0.375000 0.500000
vt 0.312500 1.000000
vt 0.312500 0.500000
vt 0.250000 1.000000
vt 0.250000 0.500000
vt 0.187500 1.000000
vt 0.187500 0.500000
vt 0.125000 1.000000
vt 0.125000 0.500000
vt 0.341844 0.471731
vt 0.250000 0.490000
vt 0.158156 0.471731
vt 0.080294 0.419706
vt 0.028269 0.341844
vt 0.010000 0.250000
vt 0.028269 0.158156
vt 0.080294 0.080294
vt 0.158156 0.028269
vt 0.250000 0.010000
vt 0.341844 0.028269
vt 0.419706 0.080294
vt 0.471731 0.158156
vt 0.490000 0.250000
vt 0.471731 0.341844
vt 0.419706 0.419706
vt 0.062500 1.000000
vt 0.062500 0.500000
vt 0.000000 1.000000
vt 0.000000 0.500000
vt 0.750000 0.490000
vt 0.841844 0.471731
vt 0.919706 0.419706
vt 0.971731 0.341844
vt 0.990000 0.250000
vt 0.971731 0.158156
vt 0.919706 0.080294
vt 0.841844 0.028269
vt 0.750000 0.010000
vt 0.658156 0.028269
vt 0.580294 0.080294
vt 0.528269 0.158156
vt 0.510000 0.250000
vt 0.528269 0.341844
vt 0.580294 0.419706
vt 0.658156 0.471731
s 0
usemtl Garg_Stone
f 406/593/386 407/594/386 409/595/386 408/596/386
f 408/596/387 409/595/387 411/597/387 410/598/387
f 410/598/388 411/597/388 413/599/388 412/600/388
f 412/600/389 413/599/389 415/601/389 414/602/389
f 414/602/390 415/601/390 417/603/390 416/604/390
f 416/604/391 417/603/391 419/605/391 418/606/391
f 418/606/392 419/605/392 421/607/392 420/608/392
f 420/608/393 421/607/393 423/609/393 422/610/393
f 422/610/394 423/609/394 425/611/394 424/612/394
f 424/612/395 425/611/395 427/613/395 426/614/395
f 426/614/396 427/613/396 429/615/396 428/616/396
f 428/616/397 429/615/397 431/617/397 430/618/397
f 430/618/398 431/617/398 433/619/398 432/620/398
f 432/620/399 433/619/399 435/621/399 434/622/399
f 409/623/400 407/624/400 437/625/400 435/626/400 433/627/400 431/628/400 429/629/400 427/630/400 425/631/400 423/632/400 421/633/400 419/634/400 417/635/400 415/636/400 413/637/400 411/638/400
f 434/622/401 435/621/401 437/639/401 436/640/401
f 436/640/402 437/639/402 407/641/402 406/642/402
f 406/643/403 408/644/403 410/645/403 412/646/403 414/647/403 416/648/403 418/649/403 420/650/403 422/651/403 424/652/403 426/653/403 428/654/403 430/655/403 432/656/403 434/657/403 436/658/403
o Talon_R
v 0.260000 0.156603 0.261962
v 0.282961 0.154319 0.258006
v 0.302426 0.147816 0.246742
v 0.315433 0.138083 0.229885
v 0.320000 0.126603 0.210000
v 0.315433 0.115122 0.190115
v 0.302426 0.105389 0.173258
v 0.282961 0.098886 0.161994
v 0.260000 0.096603 0.158038
v 0.237039 0.098886 0.161994
v 0.217574 0.105389 0.173258
v 0.204567 0.115122 0.190115
v 0.200000 0.126603 0.210000
v 0.204567 0.138083 0.229885
v 0.217574 0.147816 0.246742
v 0.237039 0.154319 0.258006
v 0.260000 -0.046603 0.310000
vn 0.1872 0.2260 0.9560
vn 0.5330 0.1544 0.8319
vn 0.7977 0.0220 0.6027
vn 0.9409 -0.1509 0.3032
vn 0.9409 -0.3380 -0.0209
vn 0.7977 -0.5109 -0.3204
vn 0.5330 -0.6433 -0.5497
vn 0.1872 -0.7149 -0.6737
vn -0.1872 -0.7149 -0.6737
vn -0.5330 -0.6433 -0.5497
vn -0.7977 -0.5109 -0.3204
vn -0.9409 -0.3380 -0.0209
vn -0.9409 -0.1509 0.3032
vn -0.7977 0.0220 0.6027
vn -0.0000 0.8660 -0.5000
vn -0.5330 0.1544 0.8319
vn -0.1872 0.2260 0.9560
vt 0.250000 0.490000
vt 0.250000 0.250000
vt 0.341844 0.471731
vt 0.419706 0.419706
vt 0.471731 0.341844
vt 0.490000 0.250000
vt 0.471731 0.158156
vt 0.419706 0.080294
vt 0.341844 0.028269
vt 0.250000 0.010000
vt 0.158156 0.028269
vt 0.080294 0.080294
vt 0.028269 0.158156
vt 0.010000 0.250000
vt 0.028269 0.341844
vt 0.080294 0.419706
vt 0.750000 0.490000
vt 0.841844 0.471731
vt 0.919706 0.419706
vt 0.971731 0.341844
vt 0.990000 0.250000
vt 0.971731 0.158156
vt 0.919706 0.080294
vt 0.841844 0.028269
vt 0.750000 0.010000
vt 0.658156 0.028269
vt 0.580294 0.080294
vt 0.528269 0.158156
vt 0.510000 0.250000
vt 0.528269 0.341844
vt 0.580294 0.419706
vt 0.658156 0.471731
vt 0.158156 0.471731
s 0
usemtl Garg_DarkStone
f 438/659/404 454/660/404 439/661/404
f 439/661/405 454/660/405 440/662/405
f 440/662/406 454/660/406 441/663/406
f 441/663/407 454/660/407 442/664/407
f 442/664/408 454/660/408 443/665/408
f 443/665/409 454/660/409 444/666/409
f 444/666/410 454/660/410 445/667/410
f 445/667/411 454/660/411 446/668/411
f 446/668/412 454/660/412 447/669/412
f 447/669/413 454/660/413 448/670/413
f 448/670/414 454/660/414 449/671/414
f 449/671/415 454/660/415 450/672/415
f 450/672/416 454/660/416 451/673/416
f 451/673/417 454/660/417 452/674/417
f 438/675/418 439/676/418 440/677/418 441/678/418 442/679/418 443/680/418 444/681/418 445/682/418 446/683/418 447/684/418 448/685/418 449/686/418 450/687/418 451/688/418 452/689/418 453/690/418
f 452/674/419 454/660/419 453/691/419
f 453/691/420 454/660/420 438/659/420
o Tail
v 0.000000 -0.070039 -0.583378
v 0.000000 0.427890 -0.165566
v 0.017221 -0.072241 -0.580754
v 0.017221 0.425688 -0.162942
v 0.031820 -0.078511 -0.573281
v 0.031820 0.419418 -0.155469
v 0.041575 -0.087895 -0.562098
v 0.041575 0.410034 -0.144286
v 0.045000 -0.098964 -0.548906
v 0.045000 0.398964 -0.131094
v 0.041575 -0.110034 -0.535714
v 0.041575 0.387895 -0.117902
v 0.031820 -0.119418 -0.524531
v 0.031820 0.378511 -0.106719
v 0.017221 -0.125688 -0.517058
v 0.017221 0.372241 -0.099246
v 0.000000 -0.127890 -0.514434
v 0.000000 0.370039 -0.096622
v -0.017221 -0.125688 -0.517058
v -0.017221 0.372241 -0.099246
v -0.031820 -0.119418 -0.524531
v -0.031820 0.378511 -0.106719
v -0.041575 -0.110034 -0.535714
v -0.041575 0.387895 -0.117902
v -0.045000 -0.098964 -0.548906
v -0.045000 0.398964 -0.131094
v -0.041575 -0.087895 -0.562098
v -0.041575 0.410034 -0.144286
v -0.031820 -0.078511 -0.573281
v -0.031820 0.419418 -0.155469
v -0.017221 -0.072241 -0.580754
v -0.017221 0.425688 -0.162942
vn 0.1951 0.6304 -0.7513
vn 0.5556 0.5345 -0.6369
vn 0.8315 0.3571 -0.4256
vn 0.9808 0.1254 -0.1494
vn 0.9808 -0.1254 0.1494
vn 0.8315 -0.3571 0.4256
vn 0.5556 -0.5345 0.6369
vn 0.1951 -0.6304 0.7513
vn -0.1951 -0.6304 0.7513
vn -0.5556 -0.5345 0.6369
vn -0.8315 -0.3571 0.4256
vn -0.9808 -0.1254 0.1494
vn -0.9808 0.1254 -0.1494
vn -0.8315 0.3571 -0.4256
vn -0.0000 0.7660 0.6428
vn -0.5556 0.5345 -0.6369
vn -0.1951 0.6304 -0.7513
vn -0.0000 -0.7660 -0.6428
vt 1.000000 0.500000
vt 1.000000 1.000000
vt 0.937500 1.000000
vt 0.937500 0.500000
vt 0.875000 1.000000
vt 0.875000 0.500000
vt 0.812500 1.000000
vt 0.812500 0.500000
vt 0.750000 1.000000
vt 0.750000 0.500000
vt 0.687500 1.000000
vt 0.687500 0.500000
vt 0.625000 1.000000
vt 0.625000 0.500000
vt 0.562500 1.000000
vt 0.562500 0.500000
vt 0.500000 1.000000
vt 0.500000 0.500000
vt 0.437500 1.000000
vt 0.437500 0.500000
vt 0.375000 1.000000
vt 0.375000 0.500000
vt 0.312500 1.000000
vt 0.312500 0.500000
vt 0.250000 1.000000
vt 0.250000 0.500000
vt 0.187500 1.000000
vt 0.187500 0.500000
vt 0.125000 1.000000
vt 0.125000 0.500000
vt 0.341844 0.471731
vt 0.250000 0.490000
vt 0.158156 0.471731
vt 0.080294 0.419706
vt 0.028269 0.341844
vt 0.010000 0.250000
vt 0.028269 0.158156
vt 0.080294 0.080294
vt 0.158156 0.028269
vt 0.250000 0.010000
vt 0.341844 0.028269
vt 0.419706 0.080294
vt 0.471731 0.158156
vt 0.490000 0.250000
vt 0.471731 0.341844
vt 0.419706 0.419706
vt 0.062500 1.000000
vt 0.062500 0.500000
vt 0.000000 1.000000
vt 0.000000 0.500000
vt 0.750000 0.490000
vt 0.841844 0.471731
vt 0.919706 0.419706
vt 0.971731 0.341844
vt 0.990000 0.250000
vt 0.971731 0.158156
vt 0.919706 0.080294
vt 0.841844 0.028269
vt 0.750000 0.010000
vt 0.658156 0.028269
vt 0.580294 0.080294
vt 0.528269 0.158156
vt 0.510000 0.250000
vt 0.528269 0.341844
vt 0.580294 0.419706
vt 0.658156 0.471731
s 0
usemtl Garg_Stone
f 455/692/421 456/693/421 458/694/421 457/695/421
f 457/695/422 458/694/422 460/696/422 459/697/422
f 459/697/423 460/696/423 462/698/423 461/699/423
f 461/699/424 462/698/424 464/700/424 463/701/424
f 463/701/425 464/700/425 466/702/425 465/703/425
f 465/703/426 466/702/426 468/704/426 467/705/426
f 467/705/427 468/704/427 470/706/427 469/707/427
f 469/707/428 470/706/428 472/708/428 471/709/428
f 471/709/429 472/708/429 474/710/429 473/711/429
f 473/711/430 474/710/430 476/712/430 475/713/430
f 475/713/431 476/712/431 478/714/431 477/715/431
f 477/715/432 478/714/432 480/716/432 479/717/432
f 479/717/433 480/716/433 482/718/433 481/719/433
f 481/719/434 482/718/434 484/720/434 483/721/434
f 458/722/435 456/723/435 486/724/435 484/725/435 482/726/435 480/727/435 478/728/435 476/729/435 474/730/435 472/731/435 470/732/435 468/733/435 466/734/435 464/735/435 462/736/435 460/737/435
f 483/721/436 484/720/436 486/738/436 485/739/436
f 485/739/437 486/738/437 456/740/437 455/741/437
f 455/742/438 457/743/438 459/744/438 461/745/438 463/746/438 465/747/438 467/748/438 469/749/438 471/750/438 473/751/438 475/752/438 477/753/438 479/754/438 481/755/438 483/756/438 485/757/438
o Tail_Spike
v 0.000000 -0.159270 -0.704330
v 0.026788 -0.162695 -0.700248
v 0.049497 -0.172449 -0.688624
v 0.064672 -0.187046 -0.671227
v 0.070000 -0.204265 -0.650707
v 0.064672 -0.221484 -0.630186
v 0.049497 -0.236081 -0.612789
v 0.026788 -0.245835 -0.601165
v 0.000000 -0.249260 -0.597084
v -0.026788 -0.245835 -0.601165
v -0.049497 -0.236081 -0.612789
v -0.064672 -0.221484 -0.630186
v -0.070000 -0.204265 -0.650707
v -0.064672 -0.187046 -0.671227
v -0.049497 -0.172449 -0.688624
v -0.026788 -0.162695 -0.700248
v 0.000000 -0.035735 -0.509293
vn 0.1862 0.8300 -0.5257
vn 0.5303 0.7384 -0.4165
vn 0.7937 0.5691 -0.2148
vn 0.9363 0.3479 0.0488
vn 0.9363 0.1085 0.3341
vn 0.7937 -0.1127 0.5978
vn 0.5303 -0.2820 0.7995
vn 0.1862 -0.3736 0.9087
vn -0.1862 -0.3736 0.9087
vn -0.5303 -0.2820 0.7995
vn -0.7937 -0.1127 0.5978
vn -0.9363 0.1085 0.3341
vn -0.9363 0.3479 0.0488
vn -0.7937 0.5691 -0.2148
vn -0.0000 -0.7660 -0.6428
vn -0.5303 0.7384 -0.4165
vn -0.1862 0.8300 -0.5257
vt 0.250000 0.490000
vt 0.250000 0.250000
vt 0.341844 0.471731
vt 0.419706 0.419706
vt 0.471731 0.341844
vt 0.490000 0.250000
vt 0.471731 0.158156
vt 0.419706 0.080294
vt 0.341844 0.028269
vt 0.250000 0.010000
vt 0.158156 0.028269
vt 0.080294 0.080294
vt 0.028269 0.158156
vt 0.010000 0.250000
vt 0.028269 0.341844
vt 0.080294 0.419706
vt 0.750000 0.490000
vt 0.841844 0.471731
vt 0.919706 0.419706
vt 0.971731 0.341844
vt 0.990000 0.250000
vt 0.971731 0.158156
vt 0.919706 0.080294
vt 0.841844 0.028269
vt 0.750000 0.010000
vt 0.658156 0.028269
vt 0.580294 0.080294
vt 0.528269 0.158156
vt 0.510000 0.250000
vt 0.528269 0.341844
vt 0.580294 0.419706
vt 0.658156 0.471731
vt 0.158156 0.471731
s 0
usemtl Garg_DarkStone
f 487/758/439 503/759/439 488/760/439
f 488/760/440 503/759/440 489/761/440
f 489/761/441 503/759/441 490/762/441
f 490/762/442 503/759/442 491/763/442
f 491/763/443 503/759/443 492/764/443
f 492/764/444 503/759/444 493/765/444
f 493/765/445 503/759/445 494/766/445
f 494/766/446 503/759/446 495/767/446
f 495/767/447 503/759/447 496/768/447
f 496/768/448 503/759/448 497/769/448
f 497/769/449 503/759/449 498/770/449
f 498/770/450 503/759/450 499/771/450
f 499/771/451 503/759/451 500/772/451
f 500/772/452 503/759/452 501/773/452
f 487/774/453 488/775/453 489/776/453 490/777/453 491/778/453 492/779/453 493/780/453 494/781/453 495/782/453 496/783/453 497/784/453 498/785/453 499/786/453 500/787/453 501/788/453 502/789/453
f 501/773/454 503/759/454 502/790/454
f 502/790/455 503/759/455 487/758/455
