# Blender 5.2.1 LTS
# www.blender.org
mtllib ice_pillar.mtl
o Ice_Base
v 0.000000 1.600000 -0.400000
v 0.000000 1.600000 0.400000
v 0.848528 1.248528 -0.400000
v 0.848528 1.248528 0.400000
v 1.200000 0.400000 -0.400000
v 1.200000 0.400000 0.400000
v 0.848528 -0.448528 -0.400000
v 0.848528 -0.448528 0.400000
v 0.000000 -0.800000 -0.400000
v 0.000000 -0.800000 0.400000
v -0.848528 -0.448528 -0.400000
v -0.848528 -0.448528 0.400000
v -1.200000 0.400000 -0.400000
v -1.200000 0.400000 0.400000
v -0.848528 1.248528 -0.400000
v -0.848528 1.248528 0.400000
vn 0.3827 0.9239 -0.0000
vn 0.9239 0.3827 -0.0000
vn 0.9239 -0.3827 -0.0000
vn 0.3827 -0.9239 -0.0000
vn -0.3827 -0.9239 -0.0000
vn -0.9239 -0.3827 -0.0000
vn -0.0000 -0.0000 1.0000
vn -0.9239 0.3827 -0.0000
vn -0.3827 0.9239 -0.0000
vn -0.0000 -0.0000 -1.0000
vt 1.000000 0.500000
vt 1.000000 1.000000
vt 0.875000 1.000000
vt 0.875000 0.500000
vt 0.750000 1.000000
vt 0.750000 0.500000
vt 0.625000 1.000000
vt 0.625000 0.500000
vt 0.500000 1.000000
vt 0.500000 0.500000
vt 0.375000 1.000000
vt 0.375000 0.500000
vt 0.250000 1.000000
vt 0.250000 0.500000
vt 0.419706 0.419706
vt 0.250000 0.490000
vt 0.080294 0.419706
vt 0.010000 0.250000
vt 0.080294 0.080294
vt 0.250000 0.010000
vt 0.419706 0.080294
vt 0.490000 0.250000
vt 0.125000 1.000000
vt 0.125000 0.500000
vt 0.000000 1.000000
vt 0.000000 0.500000
vt 0.750000 0.490000
vt 0.919706 0.419706
vt 0.990000 0.250000
vt 0.919706 0.080294
vt 0.750000 0.010000
vt 0.580294 0.080294
vt 0.510000 0.250000
vt 0.580294 0.419706
s 0
usemtl Ice_Glacier
f 1/1/1 2/2/1 4/3/1 3/4/1
f 3/4/2 4/3/2 6/5/2 5/6/2
f 5/6/3 6/5/3 8/7/3 7/8/3
f 7/8/4 8/7/4 10/9/4 9/10/4
f 9/10/5 10/9/5 12/11/5 11/12/5
f 11/12/6 12/11/6 14/13/6 13/14/6
f 4/15/7 2/16/7 16/17/7 14/18/7 12/19/7 10/20/7 8/21/7 6/22/7
f 13/14/8 14/13/8 16/23/8 15/24/8
f 15/24/9 16/23/9 2/25/9 1/26/9
f 1/27/10 3/28/10 5/29/10 7/30/10 9/31/10 11/32/10 13/33/10 15/34/10
o Spire_Shaft
v 0.000000 5.250000 -3.750000
v 0.000000 5.250000 3.750000
v 0.530330 5.030330 -3.750000
v 0.530330 5.030330 3.750000
v 0.750000 4.500000 -3.750000
v 0.750000 4.500000 3.750000
v 0.530330 3.969670 -3.750000
v 0.530330 3.969670 3.750000
v 0.000000 3.750000 -3.750000
v 0.000000 3.750000 3.750000
v -0.530330 3.969670 -3.750000
v -0.530330 3.969670 3.750000
v -0.750000 4.500000 -3.750000
v -0.750000 4.500000 3.750000
v -0.530330 5.030330 -3.750000
v -0.530330 5.030330 3.750000
vn 0.3827 0.9239 -0.0000
vn 0.9239 0.3827 -0.0000
vn 0.9239 -0.3827 -0.0000
vn 0.3827 -0.9239 -0.0000
vn -0.3827 -0.9239 -0.0000
vn -0.9239 -0.3827 -0.0000
vn -0.0000 -0.0000 1.0000
vn -0.9239 0.3827 -0.0000
vn -0.3827 0.9239 -0.0000
vn -0.0000 -0.0000 -1.0000
vt 1.000000 0.500000
vt 1.000000 1.000000
vt 0.875000 1.000000
vt 0.875000 0.500000
vt 0.750000 1.000000
vt 0.750000 0.500000
vt 0.625000 1.000000
vt 0.625000 0.500000
vt 0.500000 1.000000
vt 0.500000 0.500000
vt 0.375000 1.000000
vt 0.375000 0.500000
vt 0.250000 1.000000
vt 0.250000 0.500000
vt 0.419706 0.419706
vt 0.250000 0.490000
vt 0.080294 0.419706
vt 0.010000 0.250000
vt 0.080294 0.080294
vt 0.250000 0.010000
vt 0.419706 0.080294
vt 0.490000 0.250000
vt 0.125000 1.000000
vt 0.125000 0.500000
vt 0.000000 1.000000
vt 0.000000 0.500000
vt 0.750000 0.490000
vt 0.919706 0.419706
vt 0.990000 0.250000
vt 0.919706 0.080294
vt 0.750000 0.010000
vt 0.580294 0.080294
vt 0.510000 0.250000
vt 0.580294 0.419706
s 0
usemtl Ice_Glacier
f 17/35/11 18/36/11 20/37/11 19/38/11
f 19/38/12 20/37/12 22/39/12 21/40/12
f 21/40/13 22/39/13 24/41/13 23/42/13
f 23/42/14 24/41/14 26/43/14 25/44/14
f 25/44/15 26/43/15 28/45/15 27/46/15
f 27/46/16 28/45/16 30/47/16 29/48/16
f 20/49/17 18/50/17 32/51/17 30/52/17 28/53/17 26/54/17 24/55/17 22/56/17
f 29/48/18 30/47/18 32/57/18 31/58/18
f 31/58/19 32/57/19 18/59/19 17/60/19
f 17/61/20 19/62/20 21/63/20 23/64/20 25/65/20 27/66/20 29/67/20 31/68/20
o Bone_Rib_0
v -0.050714 4.108757 -0.100000
v -0.005234 4.119886 -0.100000
v 0.041042 4.112763 -0.100000
v 0.081071 4.088473 -0.100000
v 0.108757 4.050714 -0.100000
v 0.119886 4.005234 -0.100000
v 0.112763 3.958958 -0.100000
v 0.088473 3.918929 -0.100000
v 0.050714 3.891243 -0.100000
v 0.005234 3.880114 -0.100000
v -0.041042 3.887237 -0.100000
v -0.081071 3.911527 -0.100000
v -0.108757 3.949286 -0.100000
v -0.119886 3.994766 -0.100000
v -0.112763 4.041042 -0.100000
v -0.088473 4.081071 -0.100000
v 0.000000 4.000000 1.700000
vn -0.2372 0.9693 0.0652
vn 0.1518 0.9863 0.0652
vn 0.5177 0.8531 0.0652
vn 0.8047 0.5900 0.0652
vn 0.9693 0.2372 0.0652
vn 0.9863 -0.1518 0.0652
vn 0.8531 -0.5177 0.0652
vn 0.5900 -0.8047 0.0652
vn 0.2372 -0.9693 0.0652
vn -0.1518 -0.9863 0.0652
vn -0.5177 -0.8531 0.0652
vn -0.8047 -0.5900 0.0652
vn -0.9693 -0.2372 0.0652
vn -0.9863 0.1518 0.0652
vn -0.0000 -0.0000 -1.0000
vn -0.8531 0.5177 0.0652
vn -0.5900 0.8047 0.0652
vt 0.250000 0.490000
vt 0.250000 0.250000
vt 0.341844 0.471731
vt 0.419706 0.419706
vt 0.471731 0.341844
vt 0.490000 0.250000
vt 0.471731 0.158156
vt 0.419706 0.080294
vt 0.341844 0.028269
vt 0.250000 0.010000
vt 0.158156 0.028269
vt 0.080294 0.080294
vt 0.028269 0.158156
vt 0.010000 0.250000
vt 0.028269 0.341844
vt 0.080294 0.419706
vt 0.750000 0.490000
vt 0.841844 0.471731
vt 0.919706 0.419706
vt 0.971731 0.341844
vt 0.990000 0.250000
vt 0.971731 0.158156
vt 0.919706 0.080294
vt 0.841844 0.028269
vt 0.750000 0.010000
vt 0.658156 0.028269
vt 0.580294 0.080294
vt 0.528269 0.158156
vt 0.510000 0.250000
vt 0.528269 0.341844
vt 0.580294 0.419706
vt 0.658156 0.471731
vt 0.158156 0.471731
s 0
usemtl Ice_AncientBone
f 33/69/21 49/70/21 34/71/21
f 34/71/22 49/70/22 35/72/22
f 35/72/23 49/70/23 36/73/23
f 36/73/24 49/70/24 37/74/24
f 37/74/25 49/70/25 38/75/25
f 38/75/26 49/70/26 39/76/26
f 39/76/27 49/70/27 40/77/27
f 40/77/28 49/70/28 41/78/28
f 41/78/29 49/70/29 42/79/29
f 42/79/30 49/70/30 43/80/30
f 43/80/31 49/70/31 44/81/31
f 44/81/32 49/70/32 45/82/32
f 45/82/33 49/70/33 46/83/33
f 46/83/34 49/70/34 47/84/34
f 33/85/35 34/86/35 35/87/35 36/88/35 37/89/35 38/90/35 39/91/35 40/92/35 41/93/35 42/94/35 43/95/35 44/96/35 45/97/35 46/98/35 47/99/35 48/100/35
f 47/84/36 49/70/36 48/101/36
f 48/101/37 49/70/37 33/69/37
o Bone_Rib_1
v 0.749286 5.308757 -0.900000
v 0.794766 5.319886 -0.900000
v 0.841042 5.312763 -0.900000
v 0.881071 5.288473 -0.900000
v 0.908757 5.250714 -0.900000
v 0.919886 5.205234 -0.900000
v 0.912763 5.158957 -0.900000
v 0.888473 5.118929 -0.900000
v 0.850714 5.091243 -0.900000
v 0.805234 5.080114 -0.900000
v 0.758958 5.087237 -0.900000
v 0.718929 5.111526 -0.900000
v 0.691243 5.149286 -0.900000
v 0.680114 5.194766 -0.900000
v 0.687237 5.241042 -0.900000
v 0.711527 5.281071 -0.900000
v 0.800000 5.200000 0.900000
vn -0.2372 0.9693 0.0652
vn 0.1518 0.9863 0.0652
vn 0.5177 0.8531 0.0652
vn 0.8047 0.5900 0.0652
vn 0.9693 0.2372 0.0652
vn 0.9863 -0.1518 0.0652
vn 0.8531 -0.5177 0.0652
vn 0.5900 -0.8047 0.0652
vn 0.2372 -0.9693 0.0652
vn -0.1518 -0.9863 0.0652
vn -0.5177 -0.8531 0.0652
vn -0.8047 -0.5900 0.0652
vn -0.9693 -0.2372 0.0652
vn -0.9863 0.1518 0.0652
vn -0.0000 -0.0000 -1.0000
vn -0.8531 0.5177 0.0652
vn -0.5900 0.8047 0.0652
vt 0.250000 0.490000
vt 0.250000 0.250000
vt 0.341844 0.471731
vt 0.419706 0.419706
vt 0.471731 0.341844
vt 0.490000 0.250000
vt 0.471731 0.158156
vt 0.419706 0.080294
vt 0.341844 0.028269
vt 0.250000 0.010000
vt 0.158156 0.028269
vt 0.080294 0.080294
vt 0.028269 0.158156
vt 0.010000 0.250000
vt 0.028269 0.341844
vt 0.080294 0.419706
vt 0.750000 0.490000
vt 0.841844 0.471731
vt 0.919706 0.419706
vt 0.971731 0.341844
vt 0.990000 0.250000
vt 0.971731 0.158156
vt 0.919706 0.080294
vt 0.841844 0.028269
vt 0.750000 0.010000
vt 0.658156 0.028269
vt 0.580294 0.080294
vt 0.528269 0.158156
vt 0.510000 0.250000
vt 0.528269 0.341844
vt 0.580294 0.419706
vt 0.658156 0.471731
vt 0.158156 0.471731
s 0
usemtl Ice_AncientBone
f 50/102/38 66/103/38 51/104/38
f 51/104/39 66/103/39 52/105/39
f 52/105/40 66/103/40 53/106/40
f 53/106/41 66/103/41 54/107/41
f 54/107/42 66/103/42 55/108/42
f 55/108/43 66/103/43 56/109/43
f 56/109/44 66/103/44 57/110/44
f 57/110/45 66/103/45 58/111/45
f 58/111/46 66/103/46 59/112/46
f 59/112/47 66/103/47 60/113/47
f 60/113/48 66/103/48 61/114/48
f 61/114/49 66/103/49 62/115/49
f 62/115/50 66/103/50 63/116/50
f 63/116/51 66/103/51 64/117/51
f 50/118/52 51/119/52 52/120/52 53/121/52 54/122/52 55/123/52 56/124/52 57/125/52 58/126/52 59/127/52 60/128/52 61/129/52 62/130/52 63/131/52 64/132/52 65/133/52
f 64/117/53 66/103/53 65/134/53
f 65/134/54 66/103/54 50/102/54
o Bone_Rib_2
v -0.050714 6.508757 -1.700000
v -0.005234 6.519886 -1.700000
v 0.041042 6.512763 -1.700000
v 0.081071 6.488473 -1.700000
v 0.108757 6.450714 -1.700000
v 0.119886 6.405234 -1.700000
v 0.112763 6.358958 -1.700000
v 0.088473 6.318929 -1.700000
v 0.050714 6.291243 -1.700000
v 0.005234 6.280114 -1.700000
v -0.041042 6.287237 -1.700000
v -0.081071 6.311527 -1.700000
v -0.108757 6.349286 -1.700000
v -0.119886 6.394766 -1.700000
v -0.112763 6.441042 -1.700000
v -0.088473 6.481071 -1.700000
v 0.000000 6.400000 0.100000
vn -0.2372 0.9693 0.0652
vn 0.1518 0.9863 0.0652
vn 0.5177 0.8531 0.0652
vn 0.8047 0.5900 0.0652
vn 0.9693 0.2372 0.0652
vn 0.9863 -0.1518 0.0652
vn 0.8531 -0.5177 0.0652
vn 0.5900 -0.8047 0.0652
vn 0.2372 -0.9693 0.0652
vn -0.1518 -0.9863 0.0652
vn -0.5177 -0.8531 0.0652
vn -0.8047 -0.5900 0.0652
vn -0.9693 -0.2372 0.0652
vn -0.9863 0.1518 0.0652
vn -0.0000 -0.0000 -1.0000
vn -0.8531 0.5177 0.0652
vn -0.5900 0.8047 0.0652
vt 0.250000 0.490000
vt 0.250000 0.250000
vt 0.341844 0.471731
vt 0.419706 0.419706
vt 0.471731 0.341844
vt 0.490000 0.250000
vt 0.471731 0.158156
vt 0.419706 0.080294
vt 0.341844 0.028269
vt 0.250000 0.010000
vt 0.158156 0.028269
vt 0.080294 0.080294
vt 0.028269 0.158156
vt 0.010000 0.250000
vt 0.028269 0.341844
vt 0.080294 0.419706
vt 0.750000 0.490000
vt 0.841844 0.471731
vt 0.919706 0.419706
vt 0.971731 0.341844
vt 0.990000 0.250000
vt 0.971731 0.158156
vt 0.919706 0.080294
vt 0.841844 0.028269
vt 0.750000 0.010000
vt 0.658156 0.028269
vt 0.580294 0.080294
vt 0.528269 0.158156
vt 0.510000 0.250000
vt 0.528269 0.341844
vt 0.580294 0.419706
vt 0.658156 0.471731
vt 0.158156 0.471731
s 0
usemtl Ice_AncientBone
f 67/135/55 83/136/55 68/137/55
f 68/137/56 83/136/56 69/138/56
f 69/138/57 83/136/57 70/139/57
f 70/139/58 83/136/58 71/140/58
f 71/140/59 83/136/59 72/141/59
f 72/141/60 83/136/60 73/142/60
f 73/142/61 83/136/61 74/143/61
f 74/143/62 83/136/62 75/144/62
f 75/144/63 83/136/63 76/145/63
f 76/145/64 83/136/64 77/146/64
f 77/146/65 83/136/65 78/147/65
f 78/147/66 83/136/66 79/148/66
f 79/148/67 83/136/67 80/149/67
f 80/149/68 83/136/68 81/150/68
f 67/151/69 68/152/69 69/153/69 70/154/69 71/155/69 72/156/69 73/157/69 74/158/69 75/159/69 76/160/69 77/161/69 78/162/69 79/163/69 80/164/69 81/165/69 82/166/69
f 81/150/70 83/136/70 82/167/70
f 82/167/71 83/136/71 67/135/71
o Bone_Rib_3
v -0.850714 7.708757 -0.900000
v -0.805234 7.719886 -0.900000
v -0.758958 7.712763 -0.900000
v -0.718929 7.688473 -0.900000
v -0.691243 7.650714 -0.900000
v -0.680114 7.605234 -0.900000
v -0.687237 7.558958 -0.900000
v -0.711527 7.518929 -0.900000
v -0.749286 7.491243 -0.900000
v -0.794766 7.480114 -0.900000
v -0.841042 7.487237 -0.900000
v -0.881071 7.511527 -0.900000
v -0.908757 7.549286 -0.900000
v -0.919886 7.594766 -0.900000
v -0.912763 7.641042 -0.900000
v -0.888473 7.681071 -0.900000
v -0.800000 7.600000 0.900000
vn -0.2372 0.9693 0.0652
vn 0.1518 0.9863 0.0652
vn 0.5177 0.8531 0.0652
vn 0.8047 0.5900 0.0652
vn 0.9693 0.2372 0.0652
vn 0.9863 -0.1518 0.0652
vn 0.8531 -0.5177 0.0652
vn 0.5900 -0.8047 0.0652
vn 0.2372 -0.9693 0.0652
vn -0.1518 -0.9863 0.0652
vn -0.5177 -0.8531 0.0652
vn -0.8047 -0.5900 0.0652
vn -0.9693 -0.2372 0.0652
vn -0.9863 0.1518 0.0652
vn -0.0000 -0.0000 -1.0000
vn -0.8531 0.5177 0.0652
vn -0.5900 0.8047 0.0652
vt 0.250000 0.490000
vt 0.250000 0.250000
vt 0.341844 0.471731
vt 0.419706 0.419706
vt 0.471731 0.341844
vt 0.490000 0.250000
vt 0.471731 0.158156
vt 0.419706 0.080294
vt 0.341844 0.028269
vt 0.250000 0.010000
vt 0.158156 0.028269
vt 0.080294 0.080294
vt 0.028269 0.158156
vt 0.010000 0.250000
vt 0.028269 0.341844
vt 0.080294 0.419706
vt 0.750000 0.490000
vt 0.841844 0.471731
vt 0.919706 0.419706
vt 0.971731 0.341844
vt 0.990000 0.250000
vt 0.971731 0.158156
vt 0.919706 0.080294
vt 0.841844 0.028269
vt 0.750000 0.010000
vt 0.658156 0.028269
vt 0.580294 0.080294
vt 0.528269 0.158156
vt 0.510000 0.250000
vt 0.528269 0.341844
vt 0.580294 0.419706
vt 0.658156 0.471731
vt 0.158156 0.471731
s 0
usemtl Ice_AncientBone
f 84/168/72 100/169/72 85/170/72
f 85/170/73 100/169/73 86/171/73
f 86/171/74 100/169/74 87/172/74
f 87/172/75 100/169/75 88/173/75
f 88/173/76 100/169/76 89/174/76
f 89/174/77 100/169/77 90/175/77
f 90/175/78 100/169/78 91/176/78
f 91/176/79 100/169/79 92/177/79
f 92/177/80 100/169/80 93/178/80
f 93/178/81 100/169/81 94/179/81
f 94/179/82 100/169/82 95/180/82
f 95/180/83 100/169/83 96/181/83
f 96/181/84 100/169/84 97/182/84
f 97/182/85 100/169/85 98/183/85
f 84/184/86 85/185/86 86/186/86 87/187/86 88/188/86 89/189/86 90/190/86 91/191/86 92/192/86 93/193/86 94/194/86 95/195/86 96/196/86 97/197/86 98/198/86 99/199/86
f 98/183/87 100/169/87 99/200/87
f 99/200/88 100/169/88 84/168/88
o Top_Ice_Spire
v 0.000000 10.100000 -1.250000
v 0.424264 9.924264 -1.250000
v 0.600000 9.500000 -1.250000
v 0.424264 9.075736 -1.250000
v 0.000000 8.900000 -1.250000
v -0.424264 9.075736 -1.250000
v -0.600000 9.500000 -1.250000
v -0.424264 9.924264 -1.250000
v 0.000000 9.500000 1.250000
vn 0.3736 0.9020 0.2165
vn 0.9020 0.3736 0.2165
vn 0.9020 -0.3736 0.2165
vn 0.3736 -0.9020 0.2165
vn -0.3736 -0.9020 0.2165
vn -0.9020 -0.3736 0.2165
vn -0.0000 -0.0000 -1.0000
vn -0.9020 0.3736 0.2165
vn -0.3736 0.9020 0.2165
vt 0.250000 0.490000
vt 0.250000 0.250000
vt 0.419706 0.419706
vt 0.490000 0.250000
vt 0.419706 0.080294
vt 0.250000 0.010000
vt 0.080294 0.080294
vt 0.010000 0.250000
vt 0.750000 0.490000
vt 0.919706 0.419706
vt 0.990000 0.250000
vt 0.919706 0.080294
vt 0.750000 0.010000
vt 0.580294 0.080294
vt 0.510000 0.250000
vt 0.580294 0.419706
vt 0.080294 0.419706
s 0
usemtl Ice_Glacier
f 101/201/89 109/202/89 102/203/89
f 102/203/90 109/202/90 103/204/90
f 103/204/91 109/202/91 104/205/91
f 104/205/92 109/202/92 105/206/92
f 105/206/93 109/202/93 106/207/93
f 106/207/94 109/202/94 107/208/94
f 101/209/95 102/210/95 103/211/95 104/212/95 105/213/95 106/214/95 107/215/95 108/216/95
f 107/208/96 109/202/96 108/217/96
f 108/217/97 109/202/97 101/201/97
