# Blender 5.2.1 LTS
# www.blender.org
mtllib ork_choppa.mtl
o Ork_Choppa
v 0.000000 0.720000 -0.380000
v -0.035000 0.420000 0.050000
v 0.000000 -0.325000 -0.038000
v 0.000000 0.625000 -0.038000
v 0.019000 -0.325000 -0.032909
v 0.019000 0.625000 -0.032909
v 0.032909 -0.325000 -0.019000
v 0.032909 0.625000 -0.019000
v 0.038000 -0.325000 0.000000
v 0.038000 0.625000 0.000000
v 0.032909 -0.325000 0.019000
v 0.032909 0.625000 0.019000
v 0.019000 -0.325000 0.032909
v 0.019000 0.625000 0.032909
v 0.000000 -0.325000 0.038000
v 0.000000 0.625000 0.038000
v -0.019000 -0.325000 0.032909
v -0.019000 0.625000 0.032909
v -0.032909 -0.325000 0.019000
v -0.032909 0.625000 0.019000
v -0.038000 -0.325000 0.000000
v -0.038000 0.625000 0.000000
v -0.032909 -0.325000 -0.019000
v -0.032909 0.625000 -0.019000
v -0.019000 -0.325000 -0.032909
v -0.019000 0.625000 -0.032909
v 0.000000 -0.305000 0.050000
v 0.000000 0.580000 -0.240000
v 0.035355 -0.305000 0.035355
v 0.000000 0.450000 -0.280000
v 0.050000 -0.305000 -0.000000
v 0.030000 1.020000 0.050000
v 0.035355 -0.305000 -0.035355
v -0.030000 1.020000 0.050000
v 0.000000 -0.305000 -0.050000
v 0.035000 0.750000 0.060000
v -0.035355 -0.305000 -0.035355
v -0.035000 0.750000 0.060000
v -0.050000 -0.305000 -0.000000
v 0.035000 0.420000 0.050000
v -0.035355 -0.305000 0.035355
v 0.000000 -0.455000 0.000000
v 0.000000 0.850000 -0.320000
v 0.000000 1.050000 -0.460000
v 0.000000 1.120000 -0.150000
v 0.000000 0.690000 0.300000
v 0.000000 0.740000 0.020000
v 0.051962 0.720000 0.300000
v 0.008660 0.745000 0.020000
v 0.051962 0.780000 0.300000
v 0.008660 0.755000 0.020000
v 0.000000 0.810000 0.300000
v 0.000000 0.760000 0.020000
v -0.051962 0.780000 0.300000
v -0.008660 0.755000 0.020000
v -0.051962 0.720000 0.300000
v -0.008660 0.745000 0.020000
v 0.000000 0.360000 -0.055000
v 0.000000 0.440000 -0.055000
v 0.032328 0.360000 -0.044496
v 0.032328 0.440000 -0.044496
v 0.052308 0.360000 -0.016996
v 0.052308 0.440000 -0.016996
v 0.052308 0.360000 0.016996
v 0.052308 0.440000 0.016996
v 0.032328 0.360000 0.044496
v 0.032328 0.440000 0.044496
v 0.000000 0.360000 0.055000
v 0.000000 0.440000 0.055000
v -0.032328 0.360000 0.044496
v -0.032328 0.440000 0.044496
v -0.052308 0.360000 0.016996
v -0.052308 0.440000 0.016996
v -0.052308 0.360000 -0.016996
v -0.052308 0.440000 -0.016996
v -0.032328 0.360000 -0.044496
v -0.032328 0.440000 -0.044496
v 0.000000 -0.280000 -0.052000
v 0.000000 -0.220000 -0.052000
v 0.030565 -0.280000 -0.042069
v 0.030565 -0.220000 -0.042069
v 0.049455 -0.280000 -0.016069
v 0.049455 -0.220000 -0.016069
v 0.049455 -0.280000 0.016069
v 0.049455 -0.220000 0.016069
v 0.030565 -0.280000 0.042069
v 0.030565 -0.220000 0.042069
v 0.000000 -0.280000 0.052000
v 0.000000 -0.220000 0.052000
v -0.030565 -0.280000 0.042069
v -0.030565 -0.220000 0.042069
v -0.049455 -0.280000 0.016069
v -0.049455 -0.220000 0.016069
v -0.049455 -0.280000 -0.016069
v -0.049455 -0.220000 -0.016069
v -0.030565 -0.280000 -0.042069
v -0.030565 -0.220000 -0.042069
vn -0.0000 0.0370 0.9993
vn 0.4941 -0.8559 -0.1528
vn 0.2588 -0.0000 -0.9659
vn 0.9970 0.0291 -0.0718
vn 0.7071 -0.0000 -0.7071
vn -0.0000 1.0000 -0.0000
vn 0.8830 -0.2943 -0.3657
vn 0.9659 -0.0000 -0.2588
vn -0.9948 -0.0151 -0.1008
vn 0.3090 -0.0000 0.9511
vn 0.9659 -0.0000 0.2588
vn -0.8830 -0.2943 -0.3657
vn -0.0000 -0.0303 0.9995
vn 0.7071 -0.0000 0.7071
vn 0.8090 -0.0000 -0.5878
vn 0.8830 -0.2943 0.3657
vn 0.2588 -0.0000 0.9659
vn -0.9970 0.0291 -0.0718
vn -0.2588 -0.0000 0.9659
vn -0.3657 -0.2943 -0.8830
vn -0.0000 -0.9959 -0.0905
vn -0.7071 -0.0000 0.7071
vn 0.3657 -0.2943 0.8830
vn -0.9659 -0.0000 0.2588
vn 0.9948 -0.0151 -0.1008
vn 0.9883 -0.0000 -0.1528
vn -0.9659 -0.0000 -0.2588
vn -0.0000 0.8944 0.4472
vn -0.7071 -0.0000 -0.7071
vn -0.8830 -0.2943 0.3657
vn 0.3657 -0.2943 -0.8830
vn -0.2588 -0.0000 -0.9659
vn -0.0000 -1.0000 -0.0000
vn -0.3657 -0.2943 0.8830
vn 0.3090 -0.0000 -0.9511
vn 0.4941 0.8559 -0.1528
vn -0.3090 -0.0000 0.9511
vn -0.4941 0.8559 -0.1528
vn -0.0000 -0.0000 -1.0000
vn 1.0000 -0.0000 -0.0000
vn -0.9883 -0.0000 -0.1528
vn -0.4941 -0.8559 -0.1528
vn -0.0000 -0.0000 1.0000
vn 0.8090 -0.0000 0.5878
vn -0.8090 -0.0000 0.5878
vn -1.0000 -0.0000 -0.0000
vn -0.8090 -0.0000 -0.5878
vn -0.3090 -0.0000 -0.9511
s 0
usemtl Ork_Choppa_Blade
f 36//4 1//4 43//4 44//4 45//4 32//4
f 2//9 38//9 1//9 28//9 30//9
f 38//18 34//18 45//18 44//18 43//18 1//18
f 40//25 30//25 28//25 1//25 36//25
usemtl Ork_RustyIron
f 38//1 36//1 32//1 34//1
f 41//6 27//6 29//6 31//6 33//6 35//6 37//6 39//6
f 31//7 42//7 33//7
f 37//12 42//12 39//12
f 2//13 40//13 36//13 38//13
f 29//16 42//16 31//16
f 35//20 42//20 37//20
f 2//21 30//21 40//21
f 27//23 42//23 29//23
f 6//6 4//6 26//6 24//6 22//6 20//6 18//6 16//6 14//6 12//6 10//6 8//6
f 34//28 32//28 45//28
f 39//30 42//30 41//30
f 33//31 42//31 35//31
f 3//33 5//33 7//33 9//33 11//33 13//33 15//33 17//33 19//33 21//33 23//33 25//33
f 41//34 42//34 27//34
f 58//35 59//35 61//35 60//35
f 51//39 49//39 47//39 57//39 55//39 53//39
f 62//40 63//40 65//40 64//40
f 60//15 61//15 63//15 62//15
f 64//44 65//44 67//44 66//44
f 66//10 67//10 69//10 68//10
f 68//37 69//37 71//37 70//37
f 70//45 71//45 73//45 72//45
f 72//46 73//46 75//46 74//46
f 64//33 66//33 68//33 70//33 72//33 74//33 76//33 58//33 60//33 62//33
f 74//47 75//47 77//47 76//47
f 76//48 77//48 59//48 58//48
f 65//6 63//6 61//6 59//6 77//6 75//6 73//6 71//6 69//6 67//6
f 88//33 90//33 92//33 94//33 96//33 78//33 80//33 82//33 84//33 86//33
usemtl Ork_Leather_Brown
f 3//3 4//3 6//3 5//3
f 5//5 6//5 8//5 7//5
f 7//8 8//8 10//8 9//8
f 86//10 87//10 89//10 88//10
f 9//11 10//11 12//11 11//11
f 11//14 12//14 14//14 13//14
f 80//15 81//15 83//15 82//15
f 13//17 14//17 16//17 15//17
f 15//19 16//19 18//19 17//19
f 17//22 18//22 20//22 19//22
f 19//24 20//24 22//24 21//24
f 21//27 22//27 24//27 23//27
f 23//29 24//29 26//29 25//29
f 25//32 26//32 4//32 3//32
f 88//37 89//37 91//37 90//37
f 82//40 83//40 85//40 84//40
f 78//35 79//35 81//35 80//35
f 84//44 85//44 87//44 86//44
f 90//45 91//45 93//45 92//45
f 92//46 93//46 95//46 94//46
f 91//6 89//6 87//6 85//6 83//6 81//6 79//6 97//6 95//6 93//6
f 94//47 95//47 97//47 96//47
f 96//48 97//48 79//48 78//48
usemtl Ork_WarPaint_Red
f 46//2 47//2 49//2 48//2
f 48//26 49//26 51//26 50//26
f 50//36 51//36 53//36 52//36
f 52//38 53//38 55//38 54//38
f 54//41 55//41 57//41 56//41
f 56//42 57//42 47//42 46//42
f 50//43 52//43 54//43 56//43 46//43 48//43
