# Blender 5.2.1 LTS
# www.blender.org
mtllib reaper_scythe.mtl
o Shaft
v 0.000000 0.688000 -1.050000
v 0.000000 0.688000 1.050000
v 0.014542 0.685107 -1.050000
v 0.014542 0.685107 1.050000
v 0.026870 0.676870 -1.050000
v 0.026870 0.676870 1.050000
v 0.035107 0.664542 -1.050000
v 0.035107 0.664542 1.050000
v 0.038000 0.650000 -1.050000
v 0.038000 0.650000 1.050000
v 0.035107 0.635458 -1.050000
v 0.035107 0.635458 1.050000
v 0.026870 0.623130 -1.050000
v 0.026870 0.623130 1.050000
v 0.014542 0.614893 -1.050000
v 0.014542 0.614893 1.050000
v 0.000000 0.612000 -1.050000
v 0.000000 0.612000 1.050000
v -0.014542 0.614893 -1.050000
v -0.014542 0.614893 1.050000
v -0.026870 0.623130 -1.050000
v -0.026870 0.623130 1.050000
v -0.035107 0.635458 -1.050000
v -0.035107 0.635458 1.050000
v -0.038000 0.650000 -1.050000
v -0.038000 0.650000 1.050000
v -0.035107 0.664542 -1.050000
v -0.035107 0.664542 1.050000
v -0.026870 0.676870 -1.050000
v -0.026870 0.676870 1.050000
v -0.014542 0.685107 -1.050000
v -0.014542 0.685107 1.050000
vn 0.1951 0.9808 -0.0000
vn 0.5556 0.8315 -0.0000
vn 0.8315 0.5556 -0.0000
vn 0.9808 0.1951 -0.0000
vn 0.9808 -0.1951 -0.0000
vn 0.8315 -0.5556 -0.0000
vn 0.5556 -0.8315 -0.0000
vn 0.1951 -0.9808 -0.0000
vn -0.1951 -0.9808 -0.0000
vn -0.5556 -0.8315 -0.0000
vn -0.8315 -0.5556 -0.0000
vn -0.9808 -0.1951 -0.0000
vn -0.9808 0.1951 -0.0000
vn -0.8315 0.5556 -0.0000
vn -0.0000 -0.0000 1.0000
vn -0.5556 0.8315 -0.0000
vn -0.1951 0.9808 -0.0000
vn -0.0000 -0.0000 -1.0000
vt 1.000000 0.500000
vt 1.000000 1.000000
vt 0.937500 1.000000
vt 0.937500 0.500000
vt 0.875000 1.000000
vt 0.875000 0.500000
vt 0.812500 1.000000
vt 0.812500 0.500000
vt 0.750000 1.000000
vt 0.750000 0.500000
vt 0.687500 1.000000
vt 0.687500 0.500000
vt 0.625000 1.000000
vt 0.625000 0.500000
vt 0.562500 1.000000
vt 0.562500 0.500000
vt 0.500000 1.000000
vt 0.500000 0.500000
vt 0.437500 1.000000
vt 0.437500 0.500000
vt 0.375000 1.000000
vt 0.375000 0.500000
vt 0.312500 1.000000
vt 0.312500 0.500000
vt 0.250000 1.000000
vt 0.250000 0.500000
vt 0.187500 1.000000
vt 0.187500 0.500000
vt 0.125000 1.000000
vt 0.125000 0.500000
vt 0.341844 0.471731
vt 0.250000 0.490000
vt 0.158156 0.471731
vt 0.080294 0.419706
vt 0.028269 0.341844
vt 0.010000 0.250000
vt 0.028269 0.158156
vt 0.080294 0.080294
vt 0.158156 0.028269
vt 0.250000 0.010000
vt 0.341844 0.028269
vt 0.419706 0.080294
vt 0.471731 0.158156
vt 0.490000 0.250000
vt 0.471731 0.341844
vt 0.419706 0.419706
vt 0.062500 1.000000
vt 0.062500 0.500000
vt 0.000000 1.000000
vt 0.000000 0.500000
vt 0.750000 0.490000
vt 0.841844 0.471731
vt 0.919706 0.419706
vt 0.971731 0.341844
vt 0.990000 0.250000
vt 0.971731 0.158156
vt 0.919706 0.080294
vt 0.841844 0.028269
vt 0.750000 0.010000
vt 0.658156 0.028269
vt 0.580294 0.080294
vt 0.528269 0.158156
vt 0.510000 0.250000
vt 0.528269 0.341844
vt 0.580294 0.419706
vt 0.658156 0.471731
s 0
usemtl Scythe_Pole
f 1/1/1 2/2/1 4/3/1 3/4/1
f 3/4/2 4/3/2 6/5/2 5/6/2
f 5/6/3 6/5/3 8/7/3 7/8/3
f 7/8/4 8/7/4 10/9/4 9/10/4
f 9/10/5 10/9/5 12/11/5 11/12/5
f 11/12/6 12/11/6 14/13/6 13/14/6
f 13/14/7 14/13/7 16/15/7 15/16/7
f 15/16/8 16/15/8 18/17/8 17/18/8
f 17/18/9 18/17/9 20/19/9 19/20/9
f 19/20/10 20/19/10 22/21/10 21/22/10
f 21/22/11 22/21/11 24/23/11 23/24/11
f 23/24/12 24/23/12 26/25/12 25/26/12
f 25/26/13 26/25/13 28/27/13 27/28/13
f 27/28/14 28/27/14 30/29/14 29/30/14
f 4/31/15 2/32/15 32/33/15 30/34/15 28/35/15 26/36/15 24/37/15 22/38/15 20/39/15 18/40/15 16/41/15 14/42/15 12/43/15 10/44/15 8/45/15 6/46/15
f 29/30/16 30/29/16 32/47/16 31/48/16
f 31/48/17 32/47/17 2/49/17 1/50/17
f 1/51/18 3/52/18 5/53/18 7/54/18 9/55/18 11/56/18 13/57/18 15/58/18 17/59/18 19/60/18 21/61/18 23/62/18 25/63/18 27/64/18 29/65/18 31/66/18
o Pommel_Gold
v 0.000000 -0.320000 -0.090000
v 0.000000 -0.320000 0.090000
v 0.022961 -0.324567 -0.090000
v 0.022961 -0.324567 0.090000
v 0.042426 -0.337574 -0.090000
v 0.042426 -0.337574 0.090000
v 0.055433 -0.357039 -0.090000
v 0.055433 -0.357039 0.090000
v 0.060000 -0.380000 -0.090000
v 0.060000 -0.380000 0.090000
v 0.055433 -0.402961 -0.090000
v 0.055433 -0.402961 0.090000
v 0.042426 -0.422426 -0.090000
v 0.042426 -0.422426 0.090000
v 0.022961 -0.435433 -0.090000
v 0.022961 -0.435433 0.090000
v 0.000000 -0.440000 -0.090000
v 0.000000 -0.440000 0.090000
v -0.022961 -0.435433 -0.090000
v -0.022961 -0.435433 0.090000
v -0.042426 -0.422426 -0.090000
v -0.042426 -0.422426 0.090000
v -0.055433 -0.402961 -0.090000
v -0.055433 -0.402961 0.090000
v -0.060000 -0.380000 -0.090000
v -0.060000 -0.380000 0.090000
v -0.055433 -0.357039 -0.090000
v -0.055433 -0.357039 0.090000
v -0.042426 -0.337574 -0.090000
v -0.042426 -0.337574 0.090000
v -0.022961 -0.324567 -0.090000
v -0.022961 -0.324567 0.090000
vn 0.1951 0.9808 -0.0000
vn 0.5556 0.8315 -0.0000
vn 0.8315 0.5556 -0.0000
vn 0.9808 0.1951 -0.0000
vn 0.9808 -0.1951 -0.0000
vn 0.8315 -0.5556 -0.0000
vn 0.5556 -0.8315 -0.0000
vn 0.1951 -0.9808 -0.0000
vn -0.1951 -0.9808 -0.0000
vn -0.5556 -0.8315 -0.0000
vn -0.8315 -0.5556 -0.0000
vn -0.9808 -0.1951 -0.0000
vn -0.9808 0.1951 -0.0000
vn -0.8315 0.5556 -0.0000
vn -0.0000 -0.0000 1.0000
vn -0.5556 0.8315 -0.0000
vn -0.1951 0.9808 -0.0000
vn -0.0000 -0.0000 -1.0000
vt 1.000000 0.500000
vt 1.000000 1.000000
vt 0.937500 1.000000
vt 0.937500 0.500000
vt 0.875000 1.000000
vt 0.875000 0.500000
vt 0.812500 1.000000
vt 0.812500 0.500000
vt 0.750000 1.000000
vt 0.750000 0.500000
vt 0.687500 1.000000
vt 0.687500 0.500000
vt 0.625000 1.000000
vt 0.625000 0.500000
vt 0.562500 1.000000
vt 0.562500 0.500000
vt 0.500000 1.000000
vt 0.500000 0.500000
vt 0.437500 1.000000
vt 0.437500 0.500000
vt 0.375000 1.000000
vt 0.375000 0.500000
vt 0.312500 1.000000
vt 0.312500 0.500000
vt 0.250000 1.000000
vt 0.250000 0.500000
vt 0.187500 1.000000
vt 0.187500 0.500000
vt 0.125000 1.000000
vt 0.125000 0.500000
vt 0.341844 0.471731
vt 0.250000 0.490000
vt 0.158156 0.471731
vt 0.080294 0.419706
vt 0.028269 0.341844
vt 0.010000 0.250000
vt 0.028269 0.158156
vt 0.080294 0.080294
vt 0.158156 0.028269
vt 0.250000 0.010000
vt 0.341844 0.028269
vt 0.419706 0.080294
vt 0.471731 0.158156
vt 0.490000 0.250000
vt 0.471731 0.341844
vt 0.419706 0.419706
vt 0.062500 1.000000
vt 0.062500 0.500000
vt 0.000000 1.000000
vt 0.000000 0.500000
vt 0.750000 0.490000
vt 0.841844 0.471731
vt 0.919706 0.419706
vt 0.971731 0.341844
vt 0.990000 0.250000
vt 0.971731 0.158156
vt 0.919706 0.080294
vt 0.841844 0.028269
vt 0.750000 0.010000
vt 0.658156 0.028269
vt 0.580294 0.080294
vt 0.528269 0.158156
vt 0.510000 0.250000
vt 0.528269 0.341844
vt 0.580294 0.419706
vt 0.658156 0.471731
s 0
usemtl Scythe_Gold
f 33/67/19 34/68/19 36/69/19 35/70/19
f 35/70/20 36/69/20 38/71/20 37/72/20
f 37/72/21 38/71/21 40/73/21 39/74/21
f 39/74/22 40/73/22 42/75/22 41/76/22
f 41/76/23 42/75/23 44/77/23 43/78/23
f 43/78/24 44/77/24 46/79/24 45/80/24
f 45/80/25 46/79/25 48/81/25 47/82/25
f 47/82/26 48/81/26 50/83/26 49/84/26
f 49/84/27 50/83/27 52/85/27 51/86/27
f 51/86/28 52/85/28 54/87/28 53/88/28
f 53/88/29 54/87/29 56/89/29 55/90/29
f 55/90/30 56/89/30 58/91/30 57/92/30
f 57/92/31 58/91/31 60/93/31 59/94/31
f 59/94/32 60/93/32 62/95/32 61/96/32
f 36/97/33 34/98/33 64/99/33 62/100/33 60/101/33 58/102/33 56/103/33 54/104/33 52/105/33 50/106/33 48/107/33 46/108/33 44/109/33 42/110/33 40/111/33 38/112/33
f 61/96/34 62/95/34 64/113/34 63/114/34
f 63/114/35 64/113/35 34/115/35 33/116/35
f 33/117/36 35/118/36 37/119/36 39/120/36 41/121/36 43/122/36 45/123/36 47/124/36 49/125/36 51/126/36 53/127/36 55/128/36 57/129/36 59/130/36 61/131/36 63/132/36
o Pommel_Gem
v 0.000000 -0.490000 0.065000
v 0.000000 -0.477319 0.063751
v 0.000000 -0.444038 0.045962
v 0.000000 -0.429948 0.024874
v 0.000000 -0.426249 0.012681
v 0.000000 -0.426249 -0.012681
v 0.000000 -0.429948 -0.024874
v 0.000000 -0.435954 -0.036112
v 0.000000 -0.453888 -0.054046
v 0.000000 -0.465126 -0.060052
v 0.000000 -0.477319 -0.063751
v 0.000000 -0.490000 -0.065000
v 0.004853 -0.478284 0.063751
v 0.009519 -0.467019 0.060052
v 0.013819 -0.456637 0.054046
v 0.017589 -0.447537 0.045962
v 0.020682 -0.440068 0.036112
v 0.022981 -0.434519 0.024874
v 0.024396 -0.431102 0.012681
v 0.024874 -0.429948 0.000000
v 0.024396 -0.431102 -0.012681
v 0.022981 -0.434519 -0.024874
v 0.020682 -0.440068 -0.036112
v 0.017589 -0.447537 -0.045962
v 0.013819 -0.456637 -0.054046
v 0.009519 -0.467019 -0.060052
v 0.004853 -0.478284 -0.063751
v 0.008967 -0.481033 0.063751
v 0.017589 -0.472411 0.060052
v 0.025535 -0.464465 0.054046
v 0.032500 -0.457500 0.045962
v 0.038216 -0.451784 0.036112
v 0.042463 -0.447537 0.024874
v 0.045079 -0.444921 0.012681
v 0.045962 -0.444038 0.000000
v 0.045079 -0.444921 -0.012681
v 0.042463 -0.447537 -0.024874
v 0.038216 -0.451784 -0.036112
v 0.032500 -0.457500 -0.045962
v 0.025535 -0.464465 -0.054046
v 0.017589 -0.472411 -0.060052
v 0.008967 -0.481033 -0.063751
v 0.011716 -0.485147 0.063751
v 0.022981 -0.480481 0.060052
v 0.033363 -0.476181 0.054046
v 0.042463 -0.472411 0.045962
v 0.049932 -0.469318 0.036112
v 0.055481 -0.467019 0.024874
v 0.058898 -0.465604 0.012681
v 0.060052 -0.465126 0.000000
v 0.058898 -0.465604 -0.012681
v 0.055481 -0.467019 -0.024874
v 0.049932 -0.469318 -0.036112
v 0.042463 -0.472411 -0.045962
v 0.033363 -0.476181 -0.054046
v 0.022981 -0.480481 -0.060052
v 0.011716 -0.485147 -0.063751
v 0.012681 -0.490000 0.063751
v 0.024874 -0.490000 0.060052
v 0.036112 -0.490000 0.054046
v 0.045962 -0.490000 0.045962
v 0.054046 -0.490000 0.036112
v 0.060052 -0.490000 0.024874
v 0.063751 -0.490000 0.012681
v 0.065000 -0.490000 0.000000
v 0.063751 -0.490000 -0.012681
v 0.060052 -0.490000 -0.024874
v 0.054046 -0.490000 -0.036112
v 0.045962 -0.490000 -0.045962
v 0.036112 -0.490000 -0.054046
v 0.024874 -0.490000 -0.060052
v 0.012681 -0.490000 -0.063751
v 0.011716 -0.494853 0.063751
v 0.022981 -0.499519 0.060052
v 0.033363 -0.503820 0.054046
v 0.042463 -0.507589 0.045962
v 0.049932 -0.510682 0.036112
v 0.055481 -0.512981 0.024874
v 0.058898 -0.514396 0.012681
v 0.060052 -0.514874 0.000000
v 0.058898 -0.514396 -0.012681
v 0.055481 -0.512981 -0.024874
v 0.049932 -0.510682 -0.036112
v 0.042463 -0.507589 -0.045962
v 0.033363 -0.503820 -0.054046
v 0.022981 -0.499519 -0.060052
v 0.011716 -0.494853 -0.063751
v 0.008967 -0.498967 0.063751
v 0.017589 -0.507589 0.060052
v 0.025535 -0.515535 0.054046
v 0.032500 -0.522500 0.045962
v 0.038216 -0.528216 0.036112
v 0.042463 -0.532463 0.024874
v 0.045079 -0.535079 0.012681
v 0.045962 -0.535962 0.000000
v 0.045079 -0.535079 -0.012681
v 0.042463 -0.532463 -0.024874
v 0.038216 -0.528216 -0.036112
v 0.032500 -0.522500 -0.045962
v 0.025535 -0.515535 -0.054046
v 0.017589 -0.507589 -0.060052
v 0.008967 -0.498967 -0.063751
v 0.004853 -0.501716 0.063751
v 0.009519 -0.512981 0.060052
v 0.013819 -0.523363 0.054046
v 0.017589 -0.532463 0.045962
v 0.020682 -0.539932 0.036112
v 0.022981 -0.545481 0.024874
v 0.024396 -0.548898 0.012681
v 0.024874 -0.550052 0.000000
v 0.024396 -0.548898 -0.012681
v 0.022981 -0.545481 -0.024874
v 0.020682 -0.539932 -0.036112
v 0.017589 -0.532463 -0.045962
v 0.013819 -0.523363 -0.054046
v 0.009519 -0.512981 -0.060052
v 0.004853 -0.501716 -0.063751
v -0.000000 -0.502681 0.063751
v -0.000000 -0.514874 0.060052
v -0.000000 -0.526112 0.054046
v -0.000000 -0.535962 0.045962
v -0.000000 -0.544046 0.036112
v -0.000000 -0.550052 0.024874
v -0.000000 -0.553751 0.012681
v -0.000000 -0.555000 0.000000
v -0.000000 -0.553751 -0.012681
v -0.000000 -0.550052 -0.024874
v -0.000000 -0.544046 -0.036112
v -0.000000 -0.535962 -0.045962
v -0.000000 -0.526112 -0.054046
v -0.000000 -0.514874 -0.060052
v -0.000000 -0.502681 -0.063751
v -0.004853 -0.501716 0.063751
v -0.009519 -0.512981 0.060052
v -0.013820 -0.523363 0.054046
v -0.017589 -0.532463 0.045962
v -0.020682 -0.539932 0.036112
v -0.022981 -0.545481 0.024874
v -0.024396 -0.548898 0.012681
v -0.024874 -0.550052 0.000000
v -0.024396 -0.548898 -0.012681
v -0.022981 -0.545481 -0.024874
v -0.020682 -0.539932 -0.036112
v -0.017589 -0.532463 -0.045962
v -0.013820 -0.523363 -0.054046
v -0.009519 -0.512981 -0.060052
v -0.004853 -0.501716 -0.063751
v -0.008967 -0.498967 0.063751
v -0.017589 -0.507589 0.060052
v -0.025535 -0.515535 0.054046
v -0.032500 -0.522500 0.045962
v -0.038216 -0.528216 0.036112
v -0.042463 -0.532463 0.024874
v -0.045079 -0.535079 0.012681
v -0.045962 -0.535962 0.000000
v -0.045079 -0.535079 -0.012681
v -0.042463 -0.532463 -0.024874
v -0.038216 -0.528216 -0.036112
v -0.032500 -0.522500 -0.045962
v -0.025535 -0.515535 -0.054046
v -0.017589 -0.507589 -0.060052
v -0.008967 -0.498967 -0.063751
v -0.011716 -0.494853 0.063751
v -0.022981 -0.499519 0.060052
v -0.033363 -0.503819 0.054046
v -0.042463 -0.507589 0.045962
v -0.049932 -0.510682 0.036112
v -0.055481 -0.512981 0.024874
v -0.058898 -0.514396 0.012681
v -0.060052 -0.514874 0.000000
v -0.058898 -0.514396 -0.012681
v -0.055481 -0.512981 -0.024874
v -0.049932 -0.510682 -0.036112
v -0.042463 -0.507589 -0.045962
v -0.033363 -0.503819 -0.054046
v -0.022981 -0.499519 -0.060052
v -0.011716 -0.494853 -0.063751
v -0.012681 -0.490000 0.063751
v -0.024874 -0.490000 0.060052
v -0.036112 -0.490000 0.054046
v -0.045962 -0.490000 0.045962
v -0.054046 -0.490000 0.036112
v -0.060052 -0.490000 0.024874
v -0.063751 -0.490000 0.012681
v -0.065000 -0.490000 0.000000
v -0.063751 -0.490000 -0.012681
v -0.060052 -0.490000 -0.024874
v -0.054046 -0.490000 -0.036112
v -0.045962 -0.490000 -0.045962
v -0.036112 -0.490000 -0.054046
v -0.024874 -0.490000 -0.060052
v -0.012681 -0.490000 -0.063751
v -0.011716 -0.485147 0.063751
v -0.022981 -0.480481 0.060052
v -0.033363 -0.476180 0.054046
v -0.042463 -0.472411 0.045962
v -0.049932 -0.469318 0.036112
v -0.055481 -0.467019 0.024874
v -0.058898 -0.465604 0.012681
v -0.060052 -0.465126 0.000000
v -0.058898 -0.465604 -0.012681
v -0.055481 -0.467019 -0.024874
v -0.049932 -0.469318 -0.036112
v -0.042463 -0.472411 -0.045962
v -0.033363 -0.476180 -0.054046
v -0.022981 -0.480481 -0.060052
v -0.011716 -0.485147 -0.063751
v -0.008967 -0.481033 0.063751
v -0.017589 -0.472411 0.060052
v -0.025535 -0.464465 0.054046
v -0.032500 -0.457500 0.045962
v -0.038216 -0.451784 0.036112
v -0.042463 -0.447537 0.024874
v -0.045079 -0.444921 0.012681
v -0.045962 -0.444038 0.000000
v -0.045079 -0.444921 -0.012681
v -0.042463 -0.447537 -0.024874
v -0.038216 -0.451784 -0.036112
v -0.032500 -0.457500 -0.045962
v -0.025535 -0.464465 -0.054046
v -0.017589 -0.472411 -0.060052
v -0.008967 -0.481033 -0.063751
v -0.004853 -0.478284 0.063751
v -0.009519 -0.467019 0.060052
v -0.013819 -0.456637 0.054046
v -0.017589 -0.447537 0.045962
v -0.020682 -0.440068 0.036112
v -0.022981 -0.434519 0.024874
v -0.024396 -0.431102 0.012681
v -0.024874 -0.429948 0.000000
v -0.024396 -0.431102 -0.012681
v -0.022981 -0.434519 -0.024874
v -0.020682 -0.440068 -0.036112
v -0.017589 -0.447537 -0.045962
v -0.013819 -0.456637 -0.054046
v -0.009519 -0.467019 -0.060052
v -0.004853 -0.478284 -0.063751
v 0.000000 -0.465126 0.060052
v 0.000000 -0.453888 0.054046
v 0.000000 -0.435955 0.036112
v 0.000000 -0.425000 0.000000
v 0.000000 -0.444038 -0.045962
vn 0.0934 0.4693 -0.8781
vn 0.1870 0.9401 0.2852
vn 0.0576 0.2898 -0.9553
vn 0.1942 0.9762 0.0961
vn 0.0195 0.0980 0.9950
vn 0.0195 0.0980 -0.9950
vn 0.1942 0.9762 -0.0961
vn 0.0576 0.2898 0.9553
vn 0.1870 0.9401 -0.2852
vn 0.0934 0.4693 0.8781
vn 0.1728 0.8687 -0.4643
vn 0.1252 0.6294 0.7669
vn 0.1520 0.7640 -0.6270
vn 0.1520 0.7640 0.6270
vn 0.1252 0.6294 -0.7669
vn 0.1728 0.8687 0.4643
vn 0.4328 0.6477 0.6270
vn 0.3565 0.5336 -0.7669
vn 0.4921 0.7364 0.4643
vn 0.2659 0.3979 -0.8781
vn 0.5325 0.7969 0.2852
vn 0.1642 0.2457 -0.9553
vn 0.5530 0.8276 0.0962
vn 0.0555 0.0831 0.9950
vn 0.0555 0.0831 -0.9950
vn 0.5530 0.8276 -0.0962
vn 0.1642 0.2457 0.9553
vn 0.5325 0.7969 -0.2852
vn 0.2659 0.3979 0.8781
vn 0.4921 0.7364 -0.4643
vn 0.3565 0.5336 0.7669
vn 0.4328 0.6477 -0.6270
vn 0.8276 0.5530 -0.0962
vn 0.2457 0.1642 0.9553
vn 0.7969 0.5325 -0.2852
vn 0.3979 0.2659 0.8781
vn 0.7364 0.4921 -0.4643
vn 0.5336 0.3565 0.7669
vn 0.6477 0.4328 -0.6270
vn 0.6477 0.4328 0.6270
vn 0.5336 0.3565 -0.7669
vn 0.7364 0.4921 0.4643
vn 0.3979 0.2659 -0.8781
vn 0.7969 0.5325 0.2852
vn 0.2457 0.1642 -0.9553
vn 0.8276 0.5530 0.0962
vn 0.0831 0.0555 0.9950
vn 0.0831 0.0555 -0.9950
vn 0.6294 0.1252 -0.7669
vn 0.8687 0.1728 0.4643
vn 0.4693 0.0934 -0.8781
vn 0.9401 0.1870 0.2852
vn 0.2898 0.0576 -0.9553
vn 0.9762 0.1942 0.0962
vn 0.0980 0.0195 0.9950
vn 0.0980 0.0195 -0.9950
vn 0.9762 0.1942 -0.0962
vn 0.2898 0.0576 0.9553
vn 0.9401 0.1870 -0.2852
vn 0.4693 0.0934 0.8781
vn 0.8687 0.1728 -0.4643
vn 0.6294 0.1252 0.7669
vn 0.7640 0.1520 -0.6270
vn 0.7640 0.1520 0.6270
vn 0.9401 -0.1870 -0.2852
vn 0.4693 -0.0934 0.8781
vn 0.8687 -0.1728 -0.4643
vn 0.6294 -0.1252 0.7669
vn 0.7640 -0.1520 -0.6270
vn 0.7640 -0.1520 0.6270
vn 0.6294 -0.1252 -0.7669
vn 0.8687 -0.1728 0.4643
vn 0.4693 -0.0934 -0.8781
vn 0.9401 -0.1870 0.2852
vn 0.2898 -0.0576 -0.9553
vn 0.9762 -0.1942 0.0962
vn 0.0980 -0.0195 0.9950
vn 0.0980 -0.0195 -0.9950
vn 0.9762 -0.1942 -0.0962
vn 0.2898 -0.0576 0.9553
vn 0.3979 -0.2659 -0.8781
vn 0.7969 -0.5325 0.2852
vn 0.2457 -0.1642 -0.9553
vn 0.8276 -0.5530 0.0962
vn 0.0831 -0.0555 0.9950
vn 0.0831 -0.0555 -0.9950
vn 0.8276 -0.5530 -0.0962
vn 0.2457 -0.1642 0.9553
vn 0.7969 -0.5325 -0.2852
vn 0.3979 -0.2659 0.8781
vn 0.7364 -0.4921 -0.4643
vn 0.5336 -0.3565 0.7669
vn 0.6477 -0.4328 -0.6270
vn 0.6477 -0.4328 0.6270
vn 0.5336 -0.3565 -0.7669
vn 0.7364 -0.4921 0.4643
vn 0.2659 -0.3979 0.8781
vn 0.4921 -0.7364 -0.4643
vn 0.3565 -0.5336 0.7669
vn 0.4328 -0.6477 -0.6270
vn 0.4328 -0.6477 0.6270
vn 0.3565 -0.5336 -0.7669
vn 0.4921 -0.7364 0.4643
vn 0.2659 -0.3979 -0.8781
vn 0.5325 -0.7969 0.2852
vn 0.1642 -0.2457 -0.9553
vn 0.5530 -0.8276 0.0962
vn 0.0555 -0.0831 0.9950
vn 0.0555 -0.0831 -0.9950
vn 0.5530 -0.8276 -0.0962
vn 0.1642 -0.2457 0.9553
vn 0.5325 -0.7969 -0.2852
vn 0.1870 -0.9401 0.2852
vn 0.0576 -0.2898 -0.9553
vn 0.1942 -0.9762 0.0962
vn 0.0195 -0.0980 0.9950
vn 0.0195 -0.0980 -0.9950
vn 0.1942 -0.9762 -0.0962
vn 0.0576 -0.2898 0.9553
vn 0.1870 -0.9401 -0.2852
vn 0.0934 -0.4693 0.8781
vn 0.1728 -0.8687 -0.4643
vn 0.1252 -0.6294 0.7669
vn 0.1520 -0.7640 -0.6270
vn 0.1520 -0.7640 0.6270
vn 0.1252 -0.6294 -0.7669
vn 0.1728 -0.8687 0.4643
vn 0.0934 -0.4693 -0.8781
vn -0.1728 -0.8687 -0.4643
vn -0.1252 -0.6294 0.7669
vn -0.1520 -0.7640 -0.6270
vn -0.1520 -0.7640 0.6270
vn -0.1252 -0.6294 -0.7669
vn -0.1728 -0.8687 0.4643
vn -0.0934 -0.4693 -0.8781
vn -0.1870 -0.9401 0.2852
vn -0.0576 -0.2898 -0.9553
vn -0.1942 -0.9762 0.0962
vn -0.0195 -0.0980 0.9950
vn -0.0195 -0.0980 -0.9950
vn -0.1942 -0.9762 -0.0962
vn -0.0576 -0.2898 0.9553
vn -0.1870 -0.9401 -0.2852
vn -0.0934 -0.4693 0.8781
vn -0.1642 -0.2457 -0.9553
vn -0.5530 -0.8276 0.0962
vn -0.0555 -0.0831 0.9950
vn -0.0555 -0.0831 -0.9950
vn -0.5530 -0.8276 -0.0962
vn -0.1642 -0.2457 0.9553
vn -0.5325 -0.7969 -0.2852
vn -0.2659 -0.3979 0.8781
vn -0.4921 -0.7364 -0.4643
vn -0.3565 -0.5336 0.7669
vn -0.4328 -0.6477 -0.6270
vn -0.4328 -0.6477 0.6270
vn -0.3565 -0.5336 -0.7669
vn -0.4921 -0.7364 0.4643
vn -0.2659 -0.3979 -0.8781
vn -0.5325 -0.7969 0.2852
vn -0.5336 -0.3565 0.7669
vn -0.6477 -0.4328 -0.6270
vn -0.6477 -0.4328 0.6270
vn -0.5336 -0.3565 -0.7669
vn -0.7364 -0.4921 0.4643
vn -0.3979 -0.2659 -0.8781
vn -0.7969 -0.5325 0.2852
vn -0.2457 -0.1642 -0.9553
vn -0.8276 -0.5530 0.0962
vn -0.0831 -0.0555 0.9950
vn -0.0831 -0.0555 -0.9950
vn -0.8276 -0.5530 -0.0962
vn -0.2457 -0.1642 0.9553
vn -0.7969 -0.5325 -0.2852
vn -0.3979 -0.2659 0.8781
vn -0.7364 -0.4921 -0.4643
vn -0.9762 -0.1942 0.0962
vn -0.0980 -0.0195 0.9950
vn -0.0980 -0.0195 -0.9950
vn -0.9762 -0.1942 -0.0962
vn -0.2898 -0.0576 0.9553
vn -0.9401 -0.1870 -0.2852
vn -0.4693 -0.0934 0.8781
vn -0.8687 -0.1728 -0.4643
vn -0.6294 -0.1252 0.7669
vn -0.7640 -0.1520 -0.6270
vn -0.7640 -0.1520 0.6270
vn -0.6294 -0.1252 -0.7669
vn -0.8687 -0.1728 0.4643
vn -0.4693 -0.0934 -0.8781
vn -0.9401 -0.1870 0.2852
vn -0.2898 -0.0576 -0.9553
vn -0.7640 0.1520 -0.6270
vn -0.7640 0.1520 0.6270
vn -0.6294 0.1252 -0.7669
vn -0.8687 0.1728 0.4643
vn -0.4693 0.0934 -0.8781
vn -0.9401 0.1870 0.2852
vn -0.2898 0.0576 -0.9553
vn -0.9762 0.1942 0.0962
vn -0.0980 0.0195 0.9950
vn -0.0980 0.0195 -0.9950
vn -0.9762 0.1942 -0.0962
vn -0.2898 0.0576 0.9553
vn -0.9401 0.1870 -0.2852
vn -0.4693 0.0934 0.8781
vn -0.8687 0.1728 -0.4643
vn -0.6294 0.1252 0.7669
vn -0.0831 0.0555 -0.9950
vn -0.8276 0.5530 -0.0962
vn -0.2457 0.1642 0.9553
vn -0.7969 0.5325 -0.2852
vn -0.3979 0.2659 0.8781
vn -0.7364 0.4921 -0.4643
vn -0.5336 0.3565 0.7669
vn -0.6477 0.4328 -0.6270
vn -0.6477 0.4328 0.6270
vn -0.5336 0.3565 -0.7669
vn -0.7364 0.4921 0.4643
vn -0.3979 0.2659 -0.8781
vn -0.7969 0.5325 0.2852
vn -0.2457 0.1642 -0.9553
vn -0.8276 0.5530 0.0962
vn -0.0831 0.0555 0.9950
vn -0.3565 0.5336 -0.7669
vn -0.4921 0.7364 0.4643
vn -0.2659 0.3979 -0.8781
vn -0.5325 0.7969 0.2852
vn -0.1642 0.2457 -0.9553
vn -0.5530 0.8276 0.0962
vn -0.0555 0.0831 0.9950
vn -0.0555 0.0831 -0.9950
vn -0.5530 0.8276 -0.0962
vn -0.1642 0.2457 0.9553
vn -0.5325 0.7969 -0.2852
vn -0.2659 0.3979 0.8781
vn -0.4921 0.7364 -0.4643
vn -0.3565 0.5336 0.7669
vn -0.4328 0.6477 -0.6270
vn -0.4328 0.6477 0.6270
vn -0.0576 0.2898 0.9553
vn -0.1870 0.9401 -0.2852
vn -0.0934 0.4693 0.8781
vn -0.1728 0.8687 -0.4643
vn -0.1252 0.6294 0.7669
vn -0.1520 0.7640 -0.6270
vn -0.1520 0.7640 0.6270
vn -0.1252 0.6294 -0.7669
vn -0.1728 0.8687 0.4643
vn -0.0934 0.4693 -0.8781
vn -0.1870 0.9401 0.2852
vn -0.0576 0.2898 -0.9553
vn -0.1942 0.9762 0.0962
vn -0.0195 0.0980 0.9950
vn -0.0195 0.0980 -0.9950
vn -0.1942 0.9762 -0.0962
vt 0.750000 0.125000
vt 0.750000 0.187500
vt 0.687500 0.187500
vt 0.687500 0.125000
vt 0.750000 0.562500
vt 0.750000 0.625000
vt 0.687500 0.625000
vt 0.687500 0.562500
vt 0.750000 0.062500
vt 0.687500 0.062500
vt 0.750000 0.500000
vt 0.687500 0.500000
vt 0.750000 0.937500
vt 0.718750 1.000000
vt 0.687500 0.937500
vt 0.718750 0.000000
vt 0.750000 0.437500
vt 0.687500 0.437500
vt 0.750000 0.875000
vt 0.687500 0.875000
vt 0.750000 0.375000
vt 0.687500 0.375000
vt 0.750000 0.812500
vt 0.687500 0.812500
vt 0.750000 0.312500
vt 0.687500 0.312500
vt 0.750000 0.750000
vt 0.687500 0.750000
vt 0.750000 0.250000
vt 0.687500 0.250000
vt 0.750000 0.687500
vt 0.687500 0.687500
vt 0.625000 0.750000
vt 0.625000 0.687500
vt 0.625000 0.250000
vt 0.625000 0.187500
vt 0.625000 0.625000
vt 0.625000 0.125000
vt 0.625000 0.562500
vt 0.625000 0.062500
vt 0.625000 0.500000
vt 0.656250 1.000000
vt 0.625000 0.937500
vt 0.656250 0.000000
vt 0.625000 0.437500
vt 0.625000 0.875000
vt 0.625000 0.375000
vt 0.625000 0.812500
vt 0.625000 0.312500
vt 0.562500 0.500000
vt 0.562500 0.437500
vt 0.562500 0.937500
vt 0.562500 0.875000
vt 0.562500 0.375000
vt 0.562500 0.812500
vt 0.562500 0.312500
vt 0.562500 0.750000
vt 0.562500 0.250000
vt 0.562500 0.687500
vt 0.562500 0.187500
vt 0.562500 0.625000
vt 0.562500 0.125000
vt 0.562500 0.562500
vt 0.562500 0.062500
vt 0.593750 1.000000
vt 0.593750 0.000000
vt 0.500000 0.250000
vt 0.500000 0.187500
vt 0.500000 0.687500
vt 0.500000 0.625000
vt 0.500000 0.125000
vt 0.500000 0.562500
vt 0.500000 0.062500
vt 0.500000 0.500000
vt 0.531250 1.000000
vt 0.500000 0.937500
vt 0.531250 0.000000
vt 0.500000 0.437500
vt 0.500000 0.875000
vt 0.500000 0.375000
vt 0.500000 0.812500
vt 0.500000 0.312500
vt 0.500000 0.750000
vt 0.437500 0.437500
vt 0.437500 0.375000
vt 0.437500 0.875000
vt 0.437500 0.812500
vt 0.437500 0.312500
vt 0.437500 0.750000
vt 0.437500 0.250000
vt 0.437500 0.687500
vt 0.437500 0.187500
vt 0.437500 0.625000
vt 0.437500 0.125000
vt 0.437500 0.562500
vt 0.437500 0.062500
vt 0.437500 0.500000
vt 0.468750 1.000000
vt 0.437500 0.937500
vt 0.468750 0.000000
vt 0.375000 0.187500
vt 0.375000 0.125000
vt 0.375000 0.625000
vt 0.375000 0.562500
vt 0.375000 0.062500
vt 0.375000 0.500000
vt 0.406250 1.000000
vt 0.375000 0.937500
vt 0.406250 0.000000
vt 0.375000 0.437500
vt 0.375000 0.875000
vt 0.375000 0.375000
vt 0.375000 0.812500
vt 0.375000 0.312500
vt 0.375000 0.750000
vt 0.375000 0.250000
vt 0.375000 0.687500
vt 0.312500 0.875000
vt 0.312500 0.812500
vt 0.312500 0.375000
vt 0.312500 0.312500
vt 0.312500 0.750000
vt 0.312500 0.250000
vt 0.312500 0.687500
vt 0.312500 0.187500
vt 0.312500 0.625000
vt 0.312500 0.125000
vt 0.312500 0.562500
vt 0.312500 0.062500
vt 0.312500 0.500000
vt 0.343750 1.000000
vt 0.312500 0.937500
vt 0.343750 0.000000
vt 0.312500 0.437500
vt 0.250000 0.625000
vt 0.250000 0.562500
vt 0.250000 0.125000
vt 0.250000 0.062500
vt 0.250000 0.500000
vt 0.281250 1.000000
vt 0.250000 0.937500
vt 0.281250 0.000000
vt 0.250000 0.437500
vt 0.250000 0.875000
vt 0.250000 0.375000
vt 0.250000 0.812500
vt 0.250000 0.312500
vt 0.250000 0.750000
vt 0.250000 0.250000
vt 0.250000 0.687500
vt 0.250000 0.187500
vt 0.187500 0.375000
vt 0.187500 0.312500
vt 0.187500 0.812500
vt 0.187500 0.750000
vt 0.187500 0.250000
vt 0.187500 0.687500
vt 0.187500 0.187500
vt 0.187500 0.625000
vt 0.187500 0.125000
vt 0.187500 0.562500
vt 0.187500 0.062500
vt 0.187500 0.500000
vt 0.218750 1.000000
vt 0.187500 0.937500
vt 0.218750 0.000000
vt 0.187500 0.437500
vt 0.187500 0.875000
vt 0.125000 0.125000
vt 0.125000 0.062500
vt 0.125000 0.562500
vt 0.125000 0.500000
vt 0.156250 1.000000
vt 0.125000 0.937500
vt 0.156250 0.000000
vt 0.125000 0.437500
vt 0.125000 0.875000
vt 0.125000 0.375000
vt 0.125000 0.812500
vt 0.125000 0.312500
vt 0.125000 0.750000
vt 0.125000 0.250000
vt 0.125000 0.687500
vt 0.125000 0.187500
vt 0.125000 0.625000
vt 0.062500 0.812500
vt 0.062500 0.750000
vt 0.062500 0.312500
vt 0.062500 0.250000
vt 0.062500 0.687500
vt 0.062500 0.187500
vt 0.062500 0.625000
vt 0.062500 0.125000
vt 0.062500 0.562500
vt 0.062500 0.062500
vt 0.062500 0.500000
vt 0.093750 1.000000
vt 0.062500 0.937500
vt 0.093750 0.000000
vt 0.062500 0.437500
vt 0.062500 0.875000
vt 0.062500 0.375000
vt 0.000000 0.562500
vt 0.000000 0.500000
vt 0.031250 1.000000
vt 0.000000 0.937500
vt 0.031250 0.000000
vt 0.000000 0.062500
vt 0.000000 0.437500
vt 0.000000 0.875000
vt 0.000000 0.375000
vt 0.000000 0.812500
vt 0.000000 0.312500
vt 0.000000 0.750000
vt 0.000000 0.250000
vt 0.000000 0.687500
vt 0.000000 0.187500
vt 0.000000 0.625000
vt 0.000000 0.125000
vt 1.000000 0.250000
vt 1.000000 0.312500
vt 0.937500 0.312500
vt 0.937500 0.250000
vt 1.000000 0.687500
vt 1.000000 0.750000
vt 0.937500 0.750000
vt 0.937500 0.687500
vt 1.000000 0.187500
vt 0.937500 0.187500
vt 1.000000 0.625000
vt 0.937500 0.625000
vt 1.000000 0.125000
vt 0.937500 0.125000
vt 1.000000 0.562500
vt 0.937500 0.562500
vt 1.000000 0.062500
vt 0.937500 0.062500
vt 1.000000 0.500000
vt 0.937500 0.500000
vt 1.000000 0.937500
vt 0.968750 1.000000
vt 0.937500 0.937500
vt 0.968750 0.000000
vt 1.000000 0.437500
vt 0.937500 0.437500
vt 1.000000 0.875000
vt 0.937500 0.875000
vt 1.000000 0.375000
vt 0.937500 0.375000
vt 1.000000 0.812500
vt 0.937500 0.812500
vt 0.906250 0.000000
vt 0.875000 0.062500
vt 0.875000 0.500000
vt 0.875000 0.437500
vt 0.875000 0.937500
vt 0.875000 0.875000
vt 0.875000 0.375000
vt 0.875000 0.812500
vt 0.875000 0.312500
vt 0.875000 0.750000
vt 0.875000 0.250000
vt 0.875000 0.687500
vt 0.875000 0.187500
vt 0.875000 0.625000
vt 0.875000 0.125000
vt 0.875000 0.562500
vt 0.906250 1.000000
vt 0.812500 0.250000
vt 0.812500 0.187500
vt 0.812500 0.687500
vt 0.812500 0.625000
vt 0.812500 0.125000
vt 0.812500 0.562500
vt 0.812500 0.062500
vt 0.812500 0.500000
vt 0.843750 1.000000
vt 0.812500 0.937500
vt 0.843750 0.000000
vt 0.812500 0.437500
vt 0.812500 0.875000
vt 0.812500 0.375000
vt 0.812500 0.812500
vt 0.812500 0.312500
vt 0.812500 0.750000
vt 0.781250 1.000000
vt 0.781250 0.000000
s 0
usemtl Scythe_SoulBlade
f 74/133/37 73/134/37 89/135/37 90/136/37
f 69/137/38 68/138/38 82/139/38 83/140/38
f 75/141/39 74/133/39 90/136/39 91/142/39
f 305/143/40 69/137/40 83/140/40 84/144/40
f 66/145/41 65/146/41 77/147/41
f 76/148/42 75/141/42 91/142/42
f 70/149/43 305/143/43 84/144/43 85/150/43
f 302/151/44 66/145/44 77/147/44 78/152/44
f 71/153/45 70/149/45 85/150/45 86/154/45
f 303/155/46 302/151/46 78/152/46 79/156/46
f 72/157/47 71/153/47 86/154/47 87/158/47
f 67/159/48 303/155/48 79/156/48 80/160/48
f 306/161/49 72/157/49 87/158/49 88/162/49
f 304/163/50 67/159/50 80/160/50 81/164/50
f 73/134/51 306/161/51 88/162/51 89/135/51
f 68/138/52 304/163/52 81/164/52 82/139/52
f 81/164/53 80/160/53 95/165/53 96/166/53
f 89/135/54 88/162/54 103/167/54 104/168/54
f 82/139/55 81/164/55 96/166/55 97/169/55
f 90/136/56 89/135/56 104/168/56 105/170/56
f 83/140/57 82/139/57 97/169/57 98/171/57
f 91/142/58 90/136/58 105/170/58 106/172/58
f 84/144/59 83/140/59 98/171/59 99/173/59
f 77/147/60 65/174/60 92/175/60
f 76/176/61 91/142/61 106/172/61
f 85/150/62 84/144/62 99/173/62 100/177/62
f 78/152/63 77/147/63 92/175/63 93/178/63
f 86/154/64 85/150/64 100/177/64 101/179/64
f 79/156/65 78/152/65 93/178/65 94/180/65
f 87/158/66 86/154/66 101/179/66 102/181/66
f 80/160/67 79/156/67 94/180/67 95/165/67
f 88/162/68 87/158/68 102/181/68 103/167/68
f 100/177/69 99/173/69 114/182/69 115/183/69
f 93/178/70 92/175/70 107/184/70 108/185/70
f 101/179/71 100/177/71 115/183/71 116/186/71
f 94/180/72 93/178/72 108/185/72 109/187/72
f 102/181/73 101/179/73 116/186/73 117/188/73
f 95/165/74 94/180/74 109/187/74 110/189/74
f 103/167/75 102/181/75 117/188/75 118/190/75
f 96/166/76 95/165/76 110/189/76 111/191/76
f 104/168/77 103/167/77 118/190/77 119/192/77
f 97/169/78 96/166/78 111/191/78 112/193/78
f 105/170/79 104/168/79 119/192/79 120/194/79
f 98/171/80 97/169/80 112/193/80 113/195/80
f 106/172/81 105/170/81 120/194/81 121/196/81
f 99/173/82 98/171/82 113/195/82 114/182/82
f 92/175/83 65/197/83 107/184/83
f 76/198/84 106/172/84 121/196/84
f 119/192/85 118/190/85 133/199/85 134/200/85
f 112/193/86 111/191/86 126/201/86 127/202/86
f 120/194/87 119/192/87 134/200/87 135/203/87
f 113/195/88 112/193/88 127/202/88 128/204/88
f 121/196/89 120/194/89 135/203/89 136/205/89
f 114/182/90 113/195/90 128/204/90 129/206/90
f 107/184/91 65/207/91 122/208/91
f 76/209/92 121/196/92 136/205/92
f 115/183/93 114/182/93 129/206/93 130/210/93
f 108/185/94 107/184/94 122/208/94 123/211/94
f 116/186/95 115/183/95 130/210/95 131/212/95
f 109/187/96 108/185/96 123/211/96 124/213/96
f 117/188/97 116/186/97 131/212/97 132/214/97
f 110/189/98 109/187/98 124/213/98 125/215/98
f 118/190/99 117/188/99 132/214/99 133/199/99
f 111/191/100 110/189/100 125/215/100 126/201/100
f 131/212/101 130/210/101 145/216/101 146/217/101
f 124/213/102 123/211/102 138/218/102 139/219/102
f 132/214/103 131/212/103 146/217/103 147/220/103
f 125/215/104 124/213/104 139/219/104 140/221/104
f 133/199/105 132/214/105 147/220/105 148/222/105
f 126/201/106 125/215/106 140/221/106 141/223/106
f 134/200/107 133/199/107 148/222/107 149/224/107
f 127/202/108 126/201/108 141/223/108 142/225/108
f 135/203/109 134/200/109 149/224/109 150/226/109
f 128/204/110 127/202/110 142/225/110 143/227/110
f 136/205/111 135/203/111 150/226/111 151/228/111
f 129/206/112 128/204/112 143/227/112 144/229/112
f 122/208/113 65/230/113 137/231/113
f 76/232/114 136/205/114 151/228/114
f 130/210/115 129/206/115 144/229/115 145/216/115
f 123/211/116 122/208/116 137/231/116 138/218/116
f 150/226/117 149/224/117 164/233/117 165/234/117
f 143/227/118 142/225/118 157/235/118 158/236/118
f 151/228/119 150/226/119 165/234/119 166/237/119
f 144/229/120 143/227/120 158/236/120 159/238/120
f 137/231/121 65/239/121 152/240/121
f 76/241/122 151/228/122 166/237/122
f 145/216/123 144/229/123 159/238/123 160/242/123
f 138/218/124 137/231/124 152/240/124 153/243/124
f 146/217/125 145/216/125 160/242/125 161/244/125
f 139/219/126 138/218/126 153/243/126 154/245/126
f 147/220/127 146/217/127 161/244/127 162/246/127
f 140/221/128 139/219/128 154/245/128 155/247/128
f 148/222/129 147/220/129 162/246/129 163/248/129
f 141/223/130 140/221/130 155/247/130 156/249/130
f 149/224/131 148/222/131 163/248/131 164/233/131
f 142/225/132 141/223/132 156/249/132 157/235/132
f 154/245/133 153/243/133 168/250/133 169/251/133
f 162/246/134 161/244/134 176/252/134 177/253/134
f 155/247/135 154/245/135 169/251/135 170/254/135
f 163/248/136 162/246/136 177/253/136 178/255/136
f 156/249/137 155/247/137 170/254/137 171/256/137
f 164/233/138 163/248/138 178/255/138 179/257/138
f 157/235/139 156/249/139 171/256/139 172/258/139
f 165/234/140 164/233/140 179/257/140 180/259/140
f 158/236/141 157/235/141 172/258/141 173/260/141
f 166/237/142 165/234/142 180/259/142 181/261/142
f 159/238/143 158/236/143 173/260/143 174/262/143
f 152/240/144 65/263/144 167/264/144
f 76/265/145 166/237/145 181/261/145
f 160/242/146 159/238/146 174/262/146 175/266/146
f 153/243/147 152/240/147 167/264/147 168/250/147
f 161/244/148 160/242/148 175/266/148 176/252/148
f 173/260/149 172/258/149 187/267/149 188/268/149
f 181/261/150 180/259/150 195/269/150 196/270/150
f 174/262/151 173/260/151 188/268/151 189/271/151
f 167/264/152 65/272/152 182/273/152
f 76/274/153 181/261/153 196/270/153
f 175/266/154 174/262/154 189/271/154 190/275/154
f 168/250/155 167/264/155 182/273/155 183/276/155
f 176/252/156 175/266/156 190/275/156 191/277/156
f 169/251/157 168/250/157 183/276/157 184/278/157
f 177/253/158 176/252/158 191/277/158 192/279/158
f 170/254/159 169/251/159 184/278/159 185/280/159
f 178/255/160 177/253/160 192/279/160 193/281/160
f 171/256/161 170/254/161 185/280/161 186/282/161
f 179/257/162 178/255/162 193/281/162 194/283/162
f 172/258/163 171/256/163 186/282/163 187/267/163
f 180/259/164 179/257/164 194/283/164 195/269/164
f 192/279/165 191/277/165 206/284/165 207/285/165
f 185/280/166 184/278/166 199/286/166 200/287/166
f 193/281/167 192/279/167 207/285/167 208/288/167
f 186/282/168 185/280/168 200/287/168 201/289/168
f 194/283/169 193/281/169 208/288/169 209/290/169
f 187/267/170 186/282/170 201/289/170 202/291/170
f 195/269/171 194/283/171 209/290/171 210/292/171
f 188/268/172 187/267/172 202/291/172 203/293/172
f 196/270/173 195/269/173 210/292/173 211/294/173
f 189/271/174 188/268/174 203/293/174 204/295/174
f 182/273/175 65/296/175 197/297/175
f 76/298/176 196/270/176 211/294/176
f 190/275/177 189/271/177 204/295/177 205/299/177
f 183/276/178 182/273/178 197/297/178 198/300/178
f 191/277/179 190/275/179 205/299/179 206/284/179
f 184/278/180 183/276/180 198/300/180 199/286/180
f 211/294/181 210/292/181 225/301/181 226/302/181
f 204/295/182 203/293/182 218/303/182 219/304/182
f 197/297/183 65/305/183 212/306/183
f 76/307/184 211/294/184 226/302/184
f 205/299/185 204/295/185 219/304/185 220/308/185
f 198/300/186 197/297/186 212/306/186 213/309/186
f 206/284/187 205/299/187 220/308/187 221/310/187
f 199/286/188 198/300/188 213/309/188 214/311/188
f 207/285/189 206/284/189 221/310/189 222/312/189
f 200/287/190 199/286/190 214/311/190 215/313/190
f 208/288/191 207/285/191 222/312/191 223/314/191
f 201/289/192 200/287/192 215/313/192 216/315/192
f 209/290/193 208/288/193 223/314/193 224/316/193
f 202/291/194 201/289/194 216/315/194 217/317/194
f 210/292/195 209/290/195 224/316/195 225/301/195
f 203/293/196 202/291/196 217/317/196 218/303/196
f 215/313/197 214/311/197 229/318/197 230/319/197
f 223/314/198 222/312/198 237/320/198 238/321/198
f 216/315/199 215/313/199 230/319/199 231/322/199
f 224/316/200 223/314/200 238/321/200 239/323/200
f 217/317/201 216/315/201 231/322/201 232/324/201
f 225/301/202 224/316/202 239/323/202 240/325/202
f 218/303/203 217/317/203 232/324/203 233/326/203
f 226/302/204 225/301/204 240/325/204 241/327/204
f 219/304/205 218/303/205 233/326/205 234/328/205
f 212/306/206 65/329/206 227/330/206
f 76/331/207 226/302/207 241/327/207
f 220/308/208 219/304/208 234/328/208 235/332/208
f 213/309/209 212/306/209 227/330/209 228/333/209
f 221/310/210 220/308/210 235/332/210 236/334/210
f 214/311/211 213/309/211 228/333/211 229/318/211
f 222/312/212 221/310/212 236/334/212 237/320/212
f 234/328/213 233/326/213 248/335/213 249/336/213
f 227/330/214 65/337/214 242/338/214
f 76/339/215 241/327/215 256/340/215
f 235/332/216 234/328/216 249/336/216 250/341/216
f 228/333/217 227/330/217 242/338/217 243/342/217
f 236/334/218 235/332/218 250/341/218 251/343/218
f 229/318/219 228/333/219 243/342/219 244/344/219
f 237/320/220 236/334/220 251/343/220 252/345/220
f 230/319/221 229/318/221 244/344/221 245/346/221
f 238/321/222 237/320/222 252/345/222 253/347/222
f 231/322/223 230/319/223 245/346/223 246/348/223
f 239/323/224 238/321/224 253/347/224 254/349/224
f 232/324/225 231/322/225 246/348/225 247/350/225
f 240/325/226 239/323/226 254/349/226 255/351/226
f 233/326/227 232/324/227 247/350/227 248/335/227
f 241/327/228 240/325/228 255/351/228 256/340/228
f 253/352/229 252/353/229 267/354/229 268/355/229
f 246/356/230 245/357/230 260/358/230 261/359/230
f 254/360/231 253/352/231 268/355/231 269/361/231
f 247/362/232 246/356/232 261/359/232 262/363/232
f 255/364/233 254/360/233 269/361/233 270/365/233
f 248/366/234 247/362/234 262/363/234 263/367/234
f 256/368/235 255/364/235 270/365/235 271/369/235
f 249/370/236 248/366/236 263/367/236 264/371/236
f 242/372/237 65/373/237 257/374/237
f 76/375/238 256/368/238 271/369/238
f 250/376/239 249/370/239 264/371/239 265/377/239
f 243/378/240 242/372/240 257/374/240 258/379/240
f 251/380/241 250/376/241 265/377/241 266/381/241
f 244/382/242 243/378/242 258/379/242 259/383/242
f 252/353/243 251/380/243 266/381/243 267/354/243
f 245/357/244 244/382/244 259/383/244 260/358/244
f 76/384/245 271/369/245 286/385/245
f 265/377/246 264/371/246 279/386/246 280/387/246
f 258/379/247 257/374/247 272/388/247 273/389/247
f 266/381/248 265/377/248 280/387/248 281/390/248
f 259/383/249 258/379/249 273/389/249 274/391/249
f 267/354/250 266/381/250 281/390/250 282/392/250
f 260/358/251 259/383/251 274/391/251 275/393/251
f 268/355/252 267/354/252 282/392/252 283/394/252
f 261/359/253 260/358/253 275/393/253 276/395/253
f 269/361/254 268/355/254 283/394/254 284/396/254
f 262/363/255 261/359/255 276/395/255 277/397/255
f 270/365/256 269/361/256 284/396/256 285/398/256
f 263/367/257 262/363/257 277/397/257 278/399/257
f 271/369/258 270/365/258 285/398/258 286/385/258
f 264/371/259 263/367/259 278/399/259 279/386/259
f 257/374/260 65/400/260 272/388/260
f 284/396/261 283/394/261 298/401/261 299/402/261
f 277/397/262 276/395/262 291/403/262 292/404/262
f 285/398/263 284/396/263 299/402/263 300/405/263
f 278/399/264 277/397/264 292/404/264 293/406/264
f 286/385/265 285/398/265 300/405/265 301/407/265
f 279/386/266 278/399/266 293/406/266 294/408/266
f 272/388/267 65/409/267 287/410/267
f 76/411/268 286/385/268 301/407/268
f 280/387/269 279/386/269 294/408/269 295/412/269
f 273/389/270 272/388/270 287/410/270 288/413/270
f 281/390/271 280/387/271 295/412/271 296/414/271
f 274/391/272 273/389/272 288/413/272 289/415/272
f 282/392/273 281/390/273 296/414/273 297/416/273
f 275/393/274 274/391/274 289/415/274 290/417/274
f 283/394/275 282/392/275 297/416/275 298/401/275
f 276/395/276 275/393/276 290/417/276 291/403/276
f 288/413/277 287/410/277 66/145/277 302/151/277
f 296/414/278 295/412/278 70/149/278 71/153/278
f 289/415/279 288/413/279 302/151/279 303/155/279
f 297/416/280 296/414/280 71/153/280 72/157/280
f 290/417/281 289/415/281 303/155/281 67/159/281
f 298/401/282 297/416/282 72/157/282 306/161/282
f 291/403/283 290/417/283 67/159/283 304/163/283
f 299/402/284 298/401/284 306/161/284 73/134/284
f 292/404/285 291/403/285 304/163/285 68/138/285
f 300/405/286 299/402/286 73/134/286 74/133/286
f 293/406/287 292/404/287 68/138/287 69/137/287
f 301/407/288 300/405/288 74/133/288 75/141/288
f 294/408/289 293/406/289 69/137/289 305/143/289
f 287/410/290 65/418/290 66/145/290
f 76/419/291 301/407/291 75/141/291
f 295/412/292 294/408/292 305/143/292 70/149/292
o Top_Skull
v 0.000000 1.620000 0.140000
v 0.000000 1.647313 0.137310
v 0.000000 1.718995 0.098995
v 0.000000 1.749343 0.053576
v 0.000000 1.757310 0.027313
v 0.000000 1.757310 -0.027313
v 0.000000 1.749343 -0.053576
v 0.000000 1.736406 -0.077780
v 0.000000 1.697780 -0.116406
v 0.000000 1.673576 -0.129343
v 0.000000 1.647313 -0.137310
v 0.000000 1.620000 -0.140000
v 0.010452 1.645234 0.137310
v 0.020503 1.669497 0.129343
v 0.029765 1.691859 0.116406
v 0.037884 1.711459 0.098995
v 0.044547 1.727545 0.077780
v 0.049497 1.739497 0.053576
v 0.052546 1.746858 0.027313
v 0.053576 1.749343 0.000000
v 0.052546 1.746858 -0.027313
v 0.049497 1.739497 -0.053576
v 0.044547 1.727545 -0.077780
v 0.037884 1.711459 -0.098995
v 0.029765 1.691859 -0.116406
v 0.020503 1.669497 -0.129343
v 0.010452 1.645234 -0.137310
v 0.019313 1.639313 0.137310
v 0.037884 1.657884 0.129343
v 0.054999 1.674999 0.116406
v 0.070000 1.690000 0.098995
v 0.082311 1.702311 0.077780
v 0.091459 1.711459 0.053576
v 0.097093 1.717093 0.027313
v 0.098995 1.718995 0.000000
v 0.097093 1.717093 -0.027313
v 0.091459 1.711459 -0.053576
v 0.082311 1.702311 -0.077780
v 0.070000 1.690000 -0.098995
v 0.054999 1.674999 -0.116406
v 0.037884 1.657884 -0.129343
v 0.019313 1.639313 -0.137310
v 0.025234 1.630452 0.137310
v 0.049497 1.640503 0.129343
v 0.071859 1.649765 0.116406
v 0.091459 1.657884 0.098995
v 0.107545 1.664546 0.077780
v 0.119497 1.669497 0.053576
v 0.126858 1.672546 0.027313
v 0.129343 1.673576 0.000000
v 0.126858 1.672546 -0.027313
v 0.119497 1.669497 -0.053576
v 0.107545 1.664546 -0.077780
v 0.091459 1.657884 -0.098995
v 0.071859 1.649765 -0.116406
v 0.049497 1.640503 -0.129343
v 0.025234 1.630452 -0.137310
v 0.027313 1.620000 0.137310
v 0.053576 1.620000 0.129343
v 0.077780 1.620000 0.116406
v 0.098995 1.620000 0.098995
v 0.116406 1.620000 0.077780
v 0.129343 1.620000 0.053576
v 0.137310 1.620000 0.027313
v 0.140000 1.620000 0.000000
v 0.137310 1.620000 -0.027313
v 0.129343 1.620000 -0.053576
v 0.116406 1.620000 -0.077780
v 0.098995 1.620000 -0.098995
v 0.077780 1.620000 -0.116406
v 0.053576 1.620000 -0.129343
v 0.027313 1.620000 -0.137310
v 0.025234 1.609548 0.137310
v 0.049497 1.599497 0.129343
v 0.071859 1.590235 0.116406
v 0.091459 1.582116 0.098995
v 0.107545 1.575453 0.077780
v 0.119497 1.570503 0.053576
v 0.126858 1.567454 0.027313
v 0.129343 1.566424 0.000000
v 0.126858 1.567454 -0.027313
v 0.119497 1.570503 -0.053576
v 0.107545 1.575453 -0.077780
v 0.091459 1.582116 -0.098995
v 0.071859 1.590235 -0.116406
v 0.049497 1.599497 -0.129343
v 0.025234 1.609548 -0.137310
v 0.019313 1.600687 0.137310
v 0.037884 1.582116 0.129343
v 0.054999 1.565001 0.116406
v 0.070000 1.550000 0.098995
v 0.082311 1.537689 0.077780
v 0.091459 1.528541 0.053576
v 0.097093 1.522907 0.027313
v 0.098995 1.521005 0.000000
v 0.097093 1.522907 -0.027313
v 0.091459 1.528541 -0.053576
v 0.082311 1.537689 -0.077780
v 0.070000 1.550000 -0.098995
v 0.054999 1.565001 -0.116406
v 0.037884 1.582116 -0.129343
v 0.019313 1.600687 -0.137310
v 0.010452 1.594766 0.137310
v 0.020503 1.570503 0.129343
v 0.029765 1.548141 0.116406
v 0.037884 1.528541 0.098995
v 0.044547 1.512455 0.077780
v 0.049497 1.500503 0.053576
v 0.052546 1.493142 0.027313
v 0.053576 1.490657 0.000000
v 0.052546 1.493142 -0.027313
v 0.049497 1.500503 -0.053576
v 0.044547 1.512455 -0.077780
v 0.037884 1.528541 -0.098995
v 0.029765 1.548141 -0.116406
v 0.020503 1.570503 -0.129343
v 0.010452 1.594766 -0.137310
v -0.000000 1.592687 0.137310
v -0.000000 1.566424 0.129343
v -0.000000 1.542220 0.116406
v -0.000000 1.521005 0.098995
v -0.000000 1.503594 0.077780
v -0.000000 1.490657 0.053576
v -0.000000 1.482690 0.027313
v -0.000000 1.480000 0.000000
v -0.000000 1.482690 -0.027313
v -0.000000 1.490657 -0.053576
v -0.000000 1.503594 -0.077780
v -0.000000 1.521005 -0.098995
v -0.000000 1.542220 -0.116406
v -0.000000 1.566424 -0.129343
v -0.000000 1.592687 -0.137310
v -0.010452 1.594766 0.137310
v -0.020503 1.570503 0.129343
v -0.029765 1.548141 0.116406
v -0.037884 1.528541 0.098995
v -0.044547 1.512455 0.077780
v -0.049498 1.500503 0.053576
v -0.052546 1.493142 0.027313
v -0.053576 1.490657 0.000000
v -0.052546 1.493142 -0.027313
v -0.049498 1.500503 -0.053576
v -0.044547 1.512455 -0.077780
v -0.037884 1.528541 -0.098995
v -0.029765 1.548141 -0.116406
v -0.020503 1.570503 -0.129343
v -0.010452 1.594766 -0.137310
v -0.019313 1.600687 0.137310
v -0.037884 1.582116 0.129343
v -0.054999 1.565001 0.116406
v -0.070000 1.550000 0.098995
v -0.082311 1.537689 0.077780
v -0.091459 1.528541 0.053576
v -0.097093 1.522907 0.027313
v -0.098995 1.521005 0.000000
v -0.097093 1.522907 -0.027313
v -0.091459 1.528541 -0.053576
v -0.082311 1.537689 -0.077780
v -0.070000 1.550000 -0.098995
v -0.054999 1.565001 -0.116406
v -0.037884 1.582116 -0.129343
v -0.019313 1.600687 -0.137310
v -0.025234 1.609548 0.137310
v -0.049497 1.599498 0.129343
v -0.071859 1.590235 0.116406
v -0.091459 1.582116 0.098995
v -0.107545 1.575454 0.077780
v -0.119497 1.570503 0.053576
v -0.126858 1.567454 0.027313
v -0.129343 1.566424 0.000000
v -0.126858 1.567454 -0.027313
v -0.119497 1.570503 -0.053576
v -0.107545 1.575454 -0.077780
v -0.091459 1.582116 -0.098995
v -0.071859 1.590235 -0.116406
v -0.049497 1.599498 -0.129343
v -0.025234 1.609548 -0.137310
v -0.027313 1.620000 0.137310
v -0.053576 1.620000 0.129343
v -0.077780 1.620000 0.116406
v -0.098995 1.620000 0.098995
v -0.116406 1.620000 0.077780
v -0.129343 1.620000 0.053576
v -0.137310 1.620000 0.027313
v -0.140000 1.620000 0.000000
v -0.137310 1.620000 -0.027313
v -0.129343 1.620000 -0.053576
v -0.116406 1.620000 -0.077780
v -0.098995 1.620000 -0.098995
v -0.077780 1.620000 -0.116406
v -0.053576 1.620000 -0.129343
v -0.027313 1.620000 -0.137310
v -0.025234 1.630452 0.137310
v -0.049497 1.640503 0.129343
v -0.071859 1.649765 0.116406
v -0.091459 1.657884 0.098995
v -0.107545 1.664547 0.077780
v -0.119497 1.669497 0.053576
v -0.126858 1.672546 0.027313
v -0.129343 1.673576 0.000000
v -0.126858 1.672546 -0.027313
v -0.119497 1.669497 -0.053576
v -0.107545 1.664547 -0.077780
v -0.091459 1.657884 -0.098995
v -0.071859 1.649765 -0.116406
v -0.049497 1.640503 -0.129343
v -0.025234 1.630452 -0.137310
v -0.019313 1.639313 0.137310
v -0.037884 1.657884 0.129343
v -0.054999 1.674999 0.116406
v -0.070000 1.690000 0.098995
v -0.082311 1.702311 0.077780
v -0.091459 1.711459 0.053576
v -0.097093 1.717093 0.027313
v -0.098995 1.718995 0.000000
v -0.097093 1.717093 -0.027313
v -0.091459 1.711459 -0.053576
v -0.082311 1.702311 -0.077780
v -0.070000 1.690000 -0.098995
v -0.054999 1.674999 -0.116406
v -0.037884 1.657884 -0.129343
v -0.019313 1.639313 -0.137310
v -0.010452 1.645234 0.137310
v -0.020502 1.669497 0.129343
v -0.029765 1.691859 0.116406
v -0.037884 1.711459 0.098995
v -0.044546 1.727545 0.077780
v -0.049497 1.739498 0.053576
v -0.052546 1.746858 0.027313
v -0.053576 1.749343 0.000000
v -0.052546 1.746858 -0.027313
v -0.049497 1.739498 -0.053576
v -0.044546 1.727545 -0.077780
v -0.037884 1.711459 -0.098995
v -0.029765 1.691859 -0.116406
v -0.020502 1.669497 -0.129343
v -0.010452 1.645234 -0.137310
v 0.000000 1.673576 0.129343
v 0.000000 1.697780 0.116406
v 0.000000 1.736406 0.077780
v 0.000000 1.760000 0.000000
v 0.000000 1.718995 -0.098995
vn 0.0934 0.4693 -0.8781
vn 0.1870 0.9401 0.2852
vn 0.0576 0.2898 -0.9553
vn 0.1942 0.9762 0.0962
vn 0.0195 0.0980 0.9950
vn 0.0195 0.0980 -0.9950
vn 0.1942 0.9762 -0.0962
vn 0.0576 0.2898 0.9553
vn 0.1870 0.9401 -0.2852
vn 0.0934 0.4693 0.8781
vn 0.1728 0.8687 -0.4643
vn 0.1252 0.6294 0.7669
vn 0.1520 0.7640 -0.6270
vn 0.1520 0.7640 0.6270
vn 0.1252 0.6294 -0.7669
vn 0.1728 0.8687 0.4643
vn 0.3565 0.5336 -0.7669
vn 0.4921 0.7364 0.4643
vn 0.2659 0.3979 -0.8781
vn 0.5325 0.7969 0.2852
vn 0.1642 0.2457 -0.9553
vn 0.5530 0.8276 0.0962
vn 0.0555 0.0831 0.9950
vn 0.0555 0.0831 -0.9950
vn 0.5530 0.8276 -0.0962
vn 0.1642 0.2457 0.9553
vn 0.5325 0.7969 -0.2852
vn 0.2659 0.3979 0.8781
vn 0.4921 0.7364 -0.4643
vn 0.3565 0.5336 0.7669
vn 0.4328 0.6477 -0.6270
vn 0.4328 0.6477 0.6270
vn 0.2457 0.1642 0.9553
vn 0.7969 0.5325 -0.2852
vn 0.3979 0.2659 0.8781
vn 0.7364 0.4921 -0.4643
vn 0.5336 0.3565 0.7669
vn 0.6477 0.4328 -0.6270
vn 0.6477 0.4328 0.6270
vn 0.5336 0.3565 -0.7669
vn 0.7364 0.4921 0.4643
vn 0.3979 0.2659 -0.8781
vn 0.7969 0.5325 0.2852
vn 0.2457 0.1642 -0.9553
vn 0.8276 0.5530 0.0962
vn 0.0831 0.0555 0.9950
vn 0.0831 0.0555 -0.9950
vn 0.8276 0.5530 -0.0962
vn 0.8687 0.1728 0.4643
vn 0.4693 0.0934 -0.8781
vn 0.9401 0.1870 0.2852
vn 0.2898 0.0576 -0.9553
vn 0.9762 0.1942 0.0962
vn 0.0980 0.0195 0.9950
vn 0.0980 0.0195 -0.9950
vn 0.9762 0.1942 -0.0962
vn 0.2898 0.0576 0.9553
vn 0.9401 0.1870 -0.2852
vn 0.4693 0.0934 0.8781
vn 0.8687 0.1728 -0.4643
vn 0.6294 0.1252 0.7669
vn 0.7640 0.1520 -0.6270
vn 0.7640 0.1520 0.6270
vn 0.6294 0.1252 -0.7669
vn 0.9401 -0.1870 -0.2852
vn 0.4693 -0.0934 0.8781
vn 0.8687 -0.1728 -0.4643
vn 0.6294 -0.1252 0.7669
vn 0.7640 -0.1520 -0.6270
vn 0.7640 -0.1520 0.6270
vn 0.6294 -0.1252 -0.7669
vn 0.8687 -0.1728 0.4643
vn 0.4693 -0.0934 -0.8781
vn 0.9401 -0.1870 0.2852
vn 0.2898 -0.0576 -0.9553
vn 0.9762 -0.1942 0.0962
vn 0.0980 -0.0195 0.9950
vn 0.0980 -0.0195 -0.9950
vn 0.9762 -0.1942 -0.0962
vn 0.2898 -0.0576 0.9553
vn 0.3979 -0.2659 -0.8781
vn 0.7969 -0.5325 0.2852
vn 0.2457 -0.1642 -0.9553
vn 0.8276 -0.5530 0.0962
vn 0.0831 -0.0555 0.9950
vn 0.0831 -0.0555 -0.9950
vn 0.8276 -0.5530 -0.0962
vn 0.2457 -0.1642 0.9553
vn 0.7969 -0.5325 -0.2852
vn 0.3979 -0.2659 0.8781
vn 0.7364 -0.4921 -0.4643
vn 0.5336 -0.3565 0.7669
vn 0.6477 -0.4328 -0.6270
vn 0.6477 -0.4328 0.6270
vn 0.5336 -0.3565 -0.7669
vn 0.7364 -0.4921 0.4643
vn 0.4921 -0.7364 -0.4643
vn 0.3565 -0.5336 0.7669
vn 0.4328 -0.6477 -0.6270
vn 0.4328 -0.6477 0.6270
vn 0.3565 -0.5336 -0.7669
vn 0.4921 -0.7364 0.4643
vn 0.2659 -0.3979 -0.8781
vn 0.5325 -0.7969 0.2852
vn 0.1642 -0.2457 -0.9553
vn 0.5530 -0.8276 0.0962
vn 0.0555 -0.0831 0.9950
vn 0.0555 -0.0831 -0.9950
vn 0.5530 -0.8276 -0.0962
vn 0.1642 -0.2457 0.9553
vn 0.5325 -0.7969 -0.2852
vn 0.2659 -0.3979 0.8781
vn 0.0576 -0.2898 -0.9553
vn 0.1942 -0.9762 0.0962
vn 0.0195 -0.0980 0.9950
vn 0.0195 -0.0980 -0.9950
vn 0.1942 -0.9762 -0.0962
vn 0.0576 -0.2898 0.9553
vn 0.1870 -0.9401 -0.2852
vn 0.0934 -0.4693 0.8781
vn 0.1728 -0.8687 -0.4643
vn 0.1252 -0.6294 0.7669
vn 0.1520 -0.7640 -0.6270
vn 0.1520 -0.7640 0.6270
vn 0.1252 -0.6294 -0.7669
vn 0.1728 -0.8687 0.4643
vn 0.0934 -0.4693 -0.8781
vn 0.1870 -0.9401 0.2852
vn -0.1252 -0.6294 0.7669
vn -0.1520 -0.7640 -0.6270
vn -0.1520 -0.7640 0.6270
vn -0.1252 -0.6294 -0.7669
vn -0.1728 -0.8687 0.4643
vn -0.0934 -0.4693 -0.8781
vn -0.1870 -0.9401 0.2852
vn -0.0576 -0.2898 -0.9553
vn -0.1942 -0.9762 0.0962
vn -0.0195 -0.0980 0.9950
vn -0.0195 -0.0980 -0.9950
vn -0.1942 -0.9762 -0.0962
vn -0.0576 -0.2898 0.9553
vn -0.1870 -0.9401 -0.2852
vn -0.0934 -0.4693 0.8781
vn -0.1728 -0.8687 -0.4643
vn -0.5530 -0.8276 0.0962
vn -0.0555 -0.0831 0.9950
vn -0.0555 -0.0831 -0.9950
vn -0.5530 -0.8276 -0.0962
vn -0.1642 -0.2457 0.9553
vn -0.5325 -0.7969 -0.2852
vn -0.2659 -0.3979 0.8781
vn -0.4921 -0.7364 -0.4643
vn -0.3565 -0.5336 0.7669
vn -0.4328 -0.6477 -0.6270
vn -0.4328 -0.6477 0.6270
vn -0.3565 -0.5336 -0.7669
vn -0.4921 -0.7364 0.4643
vn -0.2659 -0.3979 -0.8781
vn -0.5325 -0.7969 0.2852
vn -0.1642 -0.2457 -0.9553
vn -0.6477 -0.4328 -0.6270
vn -0.6477 -0.4328 0.6270
vn -0.5336 -0.3565 -0.7669
vn -0.7364 -0.4921 0.4643
vn -0.3979 -0.2659 -0.8781
vn -0.7969 -0.5325 0.2852
vn -0.2457 -0.1642 -0.9553
vn -0.8276 -0.5530 0.0962
vn -0.0831 -0.0555 0.9950
vn -0.0831 -0.0555 -0.9950
vn -0.8276 -0.5530 -0.0962
vn -0.2457 -0.1642 0.9553
vn -0.7969 -0.5325 -0.2852
vn -0.3979 -0.2659 0.8781
vn -0.7364 -0.4921 -0.4643
vn -0.5336 -0.3565 0.7669
vn -0.0980 -0.0195 0.9950
vn -0.0980 -0.0195 -0.9950
vn -0.9762 -0.1942 -0.0962
vn -0.2898 -0.0576 0.9553
vn -0.9401 -0.1870 -0.2852
vn -0.4693 -0.0934 0.8781
vn -0.8687 -0.1728 -0.4643
vn -0.6294 -0.1252 0.7669
vn -0.7640 -0.1520 -0.6270
vn -0.7640 -0.1520 0.6270
vn -0.6294 -0.1252 -0.7669
vn -0.8687 -0.1728 0.4643
vn -0.4693 -0.0934 -0.8781
vn -0.9401 -0.1870 0.2852
vn -0.2898 -0.0576 -0.9553
vn -0.9762 -0.1942 0.0962
vn -0.7640 0.1520 0.6270
vn -0.6294 0.1252 -0.7669
vn -0.8687 0.1728 0.4643
vn -0.4693 0.0934 -0.8781
vn -0.9401 0.1870 0.2852
vn -0.2898 0.0576 -0.9553
vn -0.9762 0.1942 0.0962
vn -0.0980 0.0195 0.9950
vn -0.0980 0.0195 -0.9950
vn -0.9762 0.1942 -0.0962
vn -0.2898 0.0576 0.9553
vn -0.9401 0.1870 -0.2852
vn -0.4693 0.0934 0.8781
vn -0.8687 0.1728 -0.4643
vn -0.6294 0.1252 0.7669
vn -0.7640 0.1520 -0.6270
vn -0.8276 0.5530 -0.0962
vn -0.2457 0.1642 0.9553
vn -0.7969 0.5325 -0.2852
vn -0.3979 0.2659 0.8781
vn -0.7364 0.4921 -0.4643
vn -0.5336 0.3565 0.7669
vn -0.6477 0.4328 -0.6270
vn -0.6477 0.4328 0.6270
vn -0.5336 0.3565 -0.7669
vn -0.7364 0.4921 0.4643
vn -0.3979 0.2659 -0.8781
vn -0.7969 0.5325 0.2852
vn -0.2457 0.1642 -0.9553
vn -0.8276 0.5530 0.0962
vn -0.0831 0.0555 0.9950
vn -0.0831 0.0555 -0.9950
vn -0.3565 0.5336 -0.7669
vn -0.4921 0.7364 0.4643
vn -0.2659 0.3979 -0.8781
vn -0.5325 0.7969 0.2852
vn -0.1642 0.2457 -0.9553
vn -0.5530 0.8276 0.0962
vn -0.0555 0.0831 0.9950
vn -0.0555 0.0831 -0.9950
vn -0.5530 0.8276 -0.0962
vn -0.1642 0.2457 0.9553
vn -0.5325 0.7969 -0.2852
vn -0.2659 0.3979 0.8781
vn -0.4921 0.7364 -0.4643
vn -0.3565 0.5336 0.7669
vn -0.4328 0.6477 -0.6270
vn -0.4328 0.6477 0.6270
vn -0.1870 0.9401 -0.2852
vn -0.0934 0.4693 0.8781
vn -0.1728 0.8687 -0.4643
vn -0.1252 0.6294 0.7669
vn -0.1520 0.7640 -0.6270
vn -0.1520 0.7640 0.6270
vn -0.1252 0.6294 -0.7669
vn -0.1728 0.8687 0.4643
vn -0.0934 0.4693 -0.8781
vn -0.1870 0.9401 0.2852
vn -0.0576 0.2898 -0.9553
vn -0.1942 0.9762 0.0962
vn -0.0195 0.0980 0.9950
vn -0.0195 0.0980 -0.9950
vn -0.1942 0.9762 -0.0962
vn -0.0576 0.2898 0.9553
vt 0.750000 0.125000
vt 0.750000 0.187500
vt 0.687500 0.187500
vt 0.687500 0.125000
vt 0.750000 0.562500
vt 0.750000 0.625000
vt 0.687500 0.625000
vt 0.687500 0.562500
vt 0.750000 0.062500
vt 0.687500 0.062500
vt 0.750000 0.500000
vt 0.687500 0.500000
vt 0.750000 0.937500
vt 0.718750 1.000000
vt 0.687500 0.937500
vt 0.718750 0.000000
vt 0.750000 0.437500
vt 0.687500 0.437500
vt 0.750000 0.875000
vt 0.687500 0.875000
vt 0.750000 0.375000
vt 0.687500 0.375000
vt 0.750000 0.812500
vt 0.687500 0.812500
vt 0.750000 0.312500
vt 0.687500 0.312500
vt 0.750000 0.750000
vt 0.687500 0.750000
vt 0.750000 0.250000
vt 0.687500 0.250000
vt 0.750000 0.687500
vt 0.687500 0.687500
vt 0.625000 0.250000
vt 0.625000 0.187500
vt 0.625000 0.687500
vt 0.625000 0.625000
vt 0.625000 0.125000
vt 0.625000 0.562500
vt 0.625000 0.062500
vt 0.625000 0.500000
vt 0.656250 1.000000
vt 0.625000 0.937500
vt 0.656250 0.000000
vt 0.625000 0.437500
vt 0.625000 0.875000
vt 0.625000 0.375000
vt 0.625000 0.812500
vt 0.625000 0.312500
vt 0.625000 0.750000
vt 0.562500 0.937500
vt 0.562500 0.875000
vt 0.562500 0.437500
vt 0.562500 0.375000
vt 0.562500 0.812500
vt 0.562500 0.312500
vt 0.562500 0.750000
vt 0.562500 0.250000
vt 0.562500 0.687500
vt 0.562500 0.187500
vt 0.562500 0.625000
vt 0.562500 0.125000
vt 0.562500 0.562500
vt 0.562500 0.062500
vt 0.562500 0.500000
vt 0.593750 1.000000
vt 0.593750 0.000000
vt 0.500000 0.687500
vt 0.500000 0.625000
vt 0.500000 0.187500
vt 0.500000 0.125000
vt 0.500000 0.562500
vt 0.500000 0.062500
vt 0.500000 0.500000
vt 0.531250 1.000000
vt 0.500000 0.937500
vt 0.531250 0.000000
vt 0.500000 0.437500
vt 0.500000 0.875000
vt 0.500000 0.375000
vt 0.500000 0.812500
vt 0.500000 0.312500
vt 0.500000 0.750000
vt 0.500000 0.250000
vt 0.437500 0.437500
vt 0.437500 0.375000
vt 0.437500 0.875000
vt 0.437500 0.812500
vt 0.437500 0.312500
vt 0.437500 0.750000
vt 0.437500 0.250000
vt 0.437500 0.687500
vt 0.437500 0.187500
vt 0.437500 0.625000
vt 0.437500 0.125000
vt 0.437500 0.562500
vt 0.437500 0.062500
vt 0.437500 0.500000
vt 0.468750 1.000000
vt 0.437500 0.937500
vt 0.468750 0.000000
vt 0.375000 0.187500
vt 0.375000 0.125000
vt 0.375000 0.625000
vt 0.375000 0.562500
vt 0.375000 0.062500
vt 0.375000 0.500000
vt 0.406250 1.000000
vt 0.375000 0.937500
vt 0.406250 0.000000
vt 0.375000 0.437500
vt 0.375000 0.875000
vt 0.375000 0.375000
vt 0.375000 0.812500
vt 0.375000 0.312500
vt 0.375000 0.750000
vt 0.375000 0.250000
vt 0.375000 0.687500
vt 0.312500 0.375000
vt 0.312500 0.312500
vt 0.312500 0.812500
vt 0.312500 0.750000
vt 0.312500 0.250000
vt 0.312500 0.687500
vt 0.312500 0.187500
vt 0.312500 0.625000
vt 0.312500 0.125000
vt 0.312500 0.562500
vt 0.312500 0.062500
vt 0.312500 0.500000
vt 0.343750 1.000000
vt 0.312500 0.937500
vt 0.343750 0.000000
vt 0.312500 0.437500
vt 0.312500 0.875000
vt 0.250000 0.125000
vt 0.250000 0.062500
vt 0.250000 0.562500
vt 0.250000 0.500000
vt 0.281250 1.000000
vt 0.250000 0.937500
vt 0.281250 0.000000
vt 0.250000 0.437500
vt 0.250000 0.875000
vt 0.250000 0.375000
vt 0.250000 0.812500
vt 0.250000 0.312500
vt 0.250000 0.750000
vt 0.250000 0.250000
vt 0.250000 0.687500
vt 0.250000 0.187500
vt 0.250000 0.625000
vt 0.187500 0.812500
vt 0.187500 0.750000
vt 0.187500 0.312500
vt 0.187500 0.250000
vt 0.187500 0.687500
vt 0.187500 0.187500
vt 0.187500 0.625000
vt 0.187500 0.125000
vt 0.187500 0.562500
vt 0.187500 0.062500
vt 0.187500 0.500000
vt 0.218750 1.000000
vt 0.187500 0.937500
vt 0.218750 0.000000
vt 0.187500 0.437500
vt 0.187500 0.875000
vt 0.187500 0.375000
vt 0.125000 0.562500
vt 0.125000 0.500000
vt 0.156250 1.000000
vt 0.125000 0.937500
vt 0.156250 0.000000
vt 0.125000 0.062500
vt 0.125000 0.437500
vt 0.125000 0.875000
vt 0.125000 0.375000
vt 0.125000 0.812500
vt 0.125000 0.312500
vt 0.125000 0.750000
vt 0.125000 0.250000
vt 0.125000 0.687500
vt 0.125000 0.187500
vt 0.125000 0.625000
vt 0.125000 0.125000
vt 0.062500 0.312500
vt 0.062500 0.250000
vt 0.062500 0.750000
vt 0.062500 0.687500
vt 0.062500 0.187500
vt 0.062500 0.625000
vt 0.062500 0.125000
vt 0.062500 0.562500
vt 0.062500 0.062500
vt 0.062500 0.500000
vt 0.093750 1.000000
vt 0.062500 0.937500
vt 0.093750 0.000000
vt 0.062500 0.437500
vt 0.062500 0.875000
vt 0.062500 0.375000
vt 0.062500 0.812500
vt 0.031250 1.000000
vt 0.000000 0.937500
vt 0.031250 0.000000
vt 0.000000 0.062500
vt 0.000000 0.500000
vt 0.000000 0.437500
vt 0.000000 0.875000
vt 0.000000 0.375000
vt 0.000000 0.812500
vt 0.000000 0.312500
vt 0.000000 0.750000
vt 0.000000 0.250000
vt 0.000000 0.687500
vt 0.000000 0.187500
vt 0.000000 0.625000
vt 0.000000 0.125000
vt 0.000000 0.562500
vt 1.000000 0.687500
vt 1.000000 0.750000
vt 0.937500 0.750000
vt 0.937500 0.687500
vt 1.000000 0.187500
vt 1.000000 0.250000
vt 0.937500 0.250000
vt 0.937500 0.187500
vt 1.000000 0.625000
vt 0.937500 0.625000
vt 1.000000 0.125000
vt 0.937500 0.125000
vt 1.000000 0.562500
vt 0.937500 0.562500
vt 1.000000 0.062500
vt 0.937500 0.062500
vt 1.000000 0.500000
vt 0.937500 0.500000
vt 1.000000 0.937500
vt 0.968750 1.000000
vt 0.937500 0.937500
vt 0.968750 0.000000
vt 1.000000 0.437500
vt 0.937500 0.437500
vt 1.000000 0.875000
vt 0.937500 0.875000
vt 1.000000 0.375000
vt 0.937500 0.375000
vt 1.000000 0.812500
vt 0.937500 0.812500
vt 1.000000 0.312500
vt 0.937500 0.312500
vt 0.875000 0.500000
vt 0.875000 0.437500
vt 0.875000 0.937500
vt 0.875000 0.875000
vt 0.875000 0.375000
vt 0.875000 0.812500
vt 0.875000 0.312500
vt 0.875000 0.750000
vt 0.875000 0.250000
vt 0.875000 0.687500
vt 0.875000 0.187500
vt 0.875000 0.625000
vt 0.875000 0.125000
vt 0.875000 0.562500
vt 0.875000 0.062500
vt 0.906250 1.000000
vt 0.906250 0.000000
vt 0.812500 0.250000
vt 0.812500 0.187500
vt 0.812500 0.687500
vt 0.812500 0.625000
vt 0.812500 0.125000
vt 0.812500 0.562500
vt 0.812500 0.062500
vt 0.812500 0.500000
vt 0.843750 1.000000
vt 0.812500 0.937500
vt 0.843750 0.000000
vt 0.812500 0.437500
vt 0.812500 0.875000
vt 0.812500 0.375000
vt 0.812500 0.812500
vt 0.812500 0.312500
vt 0.812500 0.750000
vt 0.781250 1.000000
vt 0.781250 0.000000
s 0
usemtl Scythe_Gold
f 316/420/293 315/421/293 331/422/293 332/423/293
f 311/424/294 310/425/294 324/426/294 325/427/294
f 317/428/295 316/420/295 332/423/295 333/429/295
f 547/430/296 311/424/296 325/427/296 326/431/296
f 308/432/297 307/433/297 319/434/297
f 318/435/298 317/428/298 333/429/298
f 312/436/299 547/430/299 326/431/299 327/437/299
f 544/438/300 308/432/300 319/434/300 320/439/300
f 313/440/301 312/436/301 327/437/301 328/441/301
f 545/442/302 544/438/302 320/439/302 321/443/302
f 314/444/303 313/440/303 328/441/303 329/445/303
f 309/446/304 545/442/304 321/443/304 322/447/304
f 548/448/305 314/444/305 329/445/305 330/449/305
f 546/450/306 309/446/306 322/447/306 323/451/306
f 315/421/307 548/448/307 330/449/307 331/422/307
f 310/425/308 546/450/308 323/451/308 324/426/308
f 331/422/309 330/449/309 345/452/309 346/453/309
f 324/426/310 323/451/310 338/454/310 339/455/310
f 332/423/311 331/422/311 346/453/311 347/456/311
f 325/427/312 324/426/312 339/455/312 340/457/312
f 333/429/313 332/423/313 347/456/313 348/458/313
f 326/431/314 325/427/314 340/457/314 341/459/314
f 319/434/315 307/460/315 334/461/315
f 318/462/316 333/429/316 348/458/316
f 327/437/317 326/431/317 341/459/317 342/463/317
f 320/439/318 319/434/318 334/461/318 335/464/318
f 328/441/319 327/437/319 342/463/319 343/465/319
f 321/443/320 320/439/320 335/464/320 336/466/320
f 329/445/321 328/441/321 343/465/321 344/467/321
f 322/447/322 321/443/322 336/466/322 337/468/322
f 330/449/323 329/445/323 344/467/323 345/452/323
f 323/451/324 322/447/324 337/468/324 338/454/324
f 335/464/325 334/461/325 349/469/325 350/470/325
f 343/465/326 342/463/326 357/471/326 358/472/326
f 336/466/327 335/464/327 350/470/327 351/473/327
f 344/467/328 343/465/328 358/472/328 359/474/328
f 337/468/329 336/466/329 351/473/329 352/475/329
f 345/452/330 344/467/330 359/474/330 360/476/330
f 338/454/331 337/468/331 352/475/331 353/477/331
f 346/453/332 345/452/332 360/476/332 361/478/332
f 339/455/333 338/454/333 353/477/333 354/479/333
f 347/456/334 346/453/334 361/478/334 362/480/334
f 340/457/335 339/455/335 354/479/335 355/481/335
f 348/458/336 347/456/336 362/480/336 363/482/336
f 341/459/337 340/457/337 355/481/337 356/483/337
f 334/461/338 307/484/338 349/469/338
f 318/485/339 348/458/339 363/482/339
f 342/463/340 341/459/340 356/483/340 357/471/340
f 354/479/341 353/477/341 368/486/341 369/487/341
f 362/480/342 361/478/342 376/488/342 377/489/342
f 355/481/343 354/479/343 369/487/343 370/490/343
f 363/482/344 362/480/344 377/489/344 378/491/344
f 356/483/345 355/481/345 370/490/345 371/492/345
f 349/469/346 307/493/346 364/494/346
f 318/495/347 363/482/347 378/491/347
f 357/471/348 356/483/348 371/492/348 372/496/348
f 350/470/349 349/469/349 364/494/349 365/497/349
f 358/472/350 357/471/350 372/496/350 373/498/350
f 351/473/351 350/470/351 365/497/351 366/499/351
f 359/474/352 358/472/352 373/498/352 374/500/352
f 352/475/353 351/473/353 366/499/353 367/501/353
f 360/476/354 359/474/354 374/500/354 375/502/354
f 353/477/355 352/475/355 367/501/355 368/486/355
f 361/478/356 360/476/356 375/502/356 376/488/356
f 373/498/357 372/496/357 387/503/357 388/504/357
f 366/499/358 365/497/358 380/505/358 381/506/358
f 374/500/359 373/498/359 388/504/359 389/507/359
f 367/501/360 366/499/360 381/506/360 382/508/360
f 375/502/361 374/500/361 389/507/361 390/509/361
f 368/486/362 367/501/362 382/508/362 383/510/362
f 376/488/363 375/502/363 390/509/363 391/511/363
f 369/487/364 368/486/364 383/510/364 384/512/364
f 377/489/365 376/488/365 391/511/365 392/513/365
f 370/490/366 369/487/366 384/512/366 385/514/366
f 378/491/367 377/489/367 392/513/367 393/515/367
f 371/492/368 370/490/368 385/514/368 386/516/368
f 364/494/369 307/517/369 379/518/369
f 318/519/370 378/491/370 393/515/370
f 372/496/371 371/492/371 386/516/371 387/503/371
f 365/497/372 364/494/372 379/518/372 380/505/372
f 392/513/373 391/511/373 406/520/373 407/521/373
f 385/514/374 384/512/374 399/522/374 400/523/374
f 393/515/375 392/513/375 407/521/375 408/524/375
f 386/516/376 385/514/376 400/523/376 401/525/376
f 379/518/377 307/526/377 394/527/377
f 318/528/378 393/515/378 408/524/378
f 387/503/379 386/516/379 401/525/379 402/529/379
f 380/505/380 379/518/380 394/527/380 395/530/380
f 388/504/381 387/503/381 402/529/381 403/531/381
f 381/506/382 380/505/382 395/530/382 396/532/382
f 389/507/383 388/504/383 403/531/383 404/533/383
f 382/508/384 381/506/384 396/532/384 397/534/384
f 390/509/385 389/507/385 404/533/385 405/535/385
f 383/510/386 382/508/386 397/534/386 398/536/386
f 391/511/387 390/509/387 405/535/387 406/520/387
f 384/512/388 383/510/388 398/536/388 399/522/388
f 404/533/389 403/531/389 418/537/389 419/538/389
f 397/534/390 396/532/390 411/539/390 412/540/390
f 405/535/391 404/533/391 419/538/391 420/541/391
f 398/536/392 397/534/392 412/540/392 413/542/392
f 406/520/393 405/535/393 420/541/393 421/543/393
f 399/522/394 398/536/394 413/542/394 414/544/394
f 407/521/395 406/520/395 421/543/395 422/545/395
f 400/523/396 399/522/396 414/544/396 415/546/396
f 408/524/397 407/521/397 422/545/397 423/547/397
f 401/525/398 400/523/398 415/546/398 416/548/398
f 394/527/399 307/549/399 409/550/399
f 318/551/400 408/524/400 423/547/400
f 402/529/401 401/525/401 416/548/401 417/552/401
f 395/530/402 394/527/402 409/550/402 410/553/402
f 403/531/403 402/529/403 417/552/403 418/537/403
f 396/532/404 395/530/404 410/553/404 411/539/404
f 423/547/405 422/545/405 437/554/405 438/555/405
f 416/548/406 415/546/406 430/556/406 431/557/406
f 409/550/407 307/558/407 424/559/407
f 318/560/408 423/547/408 438/555/408
f 417/552/409 416/548/409 431/557/409 432/561/409
f 410/553/410 409/550/410 424/559/410 425/562/410
f 418/537/411 417/552/411 432/561/411 433/563/411
f 411/539/412 410/553/412 425/562/412 426/564/412
f 419/538/413 418/537/413 433/563/413 434/565/413
f 412/540/414 411/539/414 426/564/414 427/566/414
f 420/541/415 419/538/415 434/565/415 435/567/415
f 413/542/416 412/540/416 427/566/416 428/568/416
f 421/543/417 420/541/417 435/567/417 436/569/417
f 414/544/418 413/542/418 428/568/418 429/570/418
f 422/545/419 421/543/419 436/569/419 437/554/419
f 415/546/420 414/544/420 429/570/420 430/556/420
f 427/566/421 426/564/421 441/571/421 442/572/421
f 435/567/422 434/565/422 449/573/422 450/574/422
f 428/568/423 427/566/423 442/572/423 443/575/423
f 436/569/424 435/567/424 450/574/424 451/576/424
f 429/570/425 428/568/425 443/575/425 444/577/425
f 437/554/426 436/569/426 451/576/426 452/578/426
f 430/556/427 429/570/427 444/577/427 445/579/427
f 438/555/428 437/554/428 452/578/428 453/580/428
f 431/557/429 430/556/429 445/579/429 446/581/429
f 424/559/430 307/582/430 439/583/430
f 318/584/431 438/555/431 453/580/431
f 432/561/432 431/557/432 446/581/432 447/585/432
f 425/562/433 424/559/433 439/583/433 440/586/433
f 433/563/434 432/561/434 447/585/434 448/587/434
f 426/564/435 425/562/435 440/586/435 441/571/435
f 434/565/436 433/563/436 448/587/436 449/573/436
f 446/581/437 445/579/437 460/588/437 461/589/437
f 439/583/438 307/590/438 454/591/438
f 318/592/439 453/580/439 468/593/439
f 447/585/440 446/581/440 461/589/440 462/594/440
f 440/586/441 439/583/441 454/591/441 455/595/441
f 448/587/442 447/585/442 462/594/442 463/596/442
f 441/571/443 440/586/443 455/595/443 456/597/443
f 449/573/444 448/587/444 463/596/444 464/598/444
f 442/572/445 441/571/445 456/597/445 457/599/445
f 450/574/446 449/573/446 464/598/446 465/600/446
f 443/575/447 442/572/447 457/599/447 458/601/447
f 451/576/448 450/574/448 465/600/448 466/602/448
f 444/577/449 443/575/449 458/601/449 459/603/449
f 452/578/450 451/576/450 466/602/450 467/604/450
f 445/579/451 444/577/451 459/603/451 460/588/451
f 453/580/452 452/578/452 467/604/452 468/593/452
f 465/600/453 464/598/453 479/605/453 480/606/453
f 458/601/454 457/599/454 472/607/454 473/608/454
f 466/602/455 465/600/455 480/606/455 481/609/455
f 459/603/456 458/601/456 473/608/456 474/610/456
f 467/604/457 466/602/457 481/609/457 482/611/457
f 460/588/458 459/603/458 474/610/458 475/612/458
f 468/593/459 467/604/459 482/611/459 483/613/459
f 461/589/460 460/588/460 475/612/460 476/614/460
f 454/591/461 307/615/461 469/616/461
f 318/617/462 468/593/462 483/613/462
f 462/594/463 461/589/463 476/614/463 477/618/463
f 455/595/464 454/591/464 469/616/464 470/619/464
f 463/596/465 462/594/465 477/618/465 478/620/465
f 456/597/466 455/595/466 470/619/466 471/621/466
f 464/598/467 463/596/467 478/620/467 479/605/467
f 457/599/468 456/597/468 471/621/468 472/607/468
f 469/616/469 307/622/469 484/623/469
f 318/624/470 483/613/470 498/625/470
f 477/618/471 476/614/471 491/626/471 492/627/471
f 470/619/472 469/616/472 484/623/472 485/628/472
f 478/620/473 477/618/473 492/627/473 493/629/473
f 471/621/474 470/619/474 485/628/474 486/630/474
f 479/605/475 478/620/475 493/629/475 494/631/475
f 472/607/476 471/621/476 486/630/476 487/632/476
f 480/606/477 479/605/477 494/631/477 495/633/477
f 473/608/478 472/607/478 487/632/478 488/634/478
f 481/609/479 480/606/479 495/633/479 496/635/479
f 474/610/480 473/608/480 488/634/480 489/636/480
f 482/611/481 481/609/481 496/635/481 497/637/481
f 475/612/482 474/610/482 489/636/482 490/638/482
f 483/613/483 482/611/483 497/637/483 498/625/483
f 476/614/484 475/612/484 490/638/484 491/626/484
f 488/639/485 487/640/485 502/641/485 503/642/485
f 496/643/486 495/644/486 510/645/486 511/646/486
f 489/647/487 488/639/487 503/642/487 504/648/487
f 497/649/488 496/643/488 511/646/488 512/650/488
f 490/651/489 489/647/489 504/648/489 505/652/489
f 498/653/490 497/649/490 512/650/490 513/654/490
f 491/655/491 490/651/491 505/652/491 506/656/491
f 484/657/492 307/658/492 499/659/492
f 318/660/493 498/653/493 513/654/493
f 492/661/494 491/655/494 506/656/494 507/662/494
f 485/663/495 484/657/495 499/659/495 500/664/495
f 493/665/496 492/661/496 507/662/496 508/666/496
f 486/667/497 485/663/497 500/664/497 501/668/497
f 494/669/498 493/665/498 508/666/498 509/670/498
f 487/640/499 486/667/499 501/668/499 502/641/499
f 495/644/500 494/669/500 509/670/500 510/645/500
f 507/662/501 506/656/501 521/671/501 522/672/501
f 500/664/502 499/659/502 514/673/502 515/674/502
f 508/666/503 507/662/503 522/672/503 523/675/503
f 501/668/504 500/664/504 515/674/504 516/676/504
f 509/670/505 508/666/505 523/675/505 524/677/505
f 502/641/506 501/668/506 516/676/506 517/678/506
f 510/645/507 509/670/507 524/677/507 525/679/507
f 503/642/508 502/641/508 517/678/508 518/680/508
f 511/646/509 510/645/509 525/679/509 526/681/509
f 504/648/510 503/642/510 518/680/510 519/682/510
f 512/650/511 511/646/511 526/681/511 527/683/511
f 505/652/512 504/648/512 519/682/512 520/684/512
f 513/654/513 512/650/513 527/683/513 528/685/513
f 506/656/514 505/652/514 520/684/514 521/671/514
f 499/659/515 307/686/515 514/673/515
f 318/687/516 513/654/516 528/685/516
f 526/681/517 525/679/517 540/688/517 541/689/517
f 519/682/518 518/680/518 533/690/518 534/691/518
f 527/683/519 526/681/519 541/689/519 542/692/519
f 520/684/520 519/682/520 534/691/520 535/693/520
f 528/685/521 527/683/521 542/692/521 543/694/521
f 521/671/522 520/684/522 535/693/522 536/695/522
f 514/673/523 307/696/523 529/697/523
f 318/698/524 528/685/524 543/694/524
f 522/672/525 521/671/525 536/695/525 537/699/525
f 515/674/526 514/673/526 529/697/526 530/700/526
f 523/675/527 522/672/527 537/699/527 538/701/527
f 516/676/528 515/674/528 530/700/528 531/702/528
f 524/677/529 523/675/529 538/701/529 539/703/529
f 517/678/530 516/676/530 531/702/530 532/704/530
f 525/679/531 524/677/531 539/703/531 540/688/531
f 518/680/532 517/678/532 532/704/532 533/690/532
f 538/701/533 537/699/533 312/436/533 313/440/533
f 531/702/534 530/700/534 544/438/534 545/442/534
f 539/703/535 538/701/535 313/440/535 314/444/535
f 532/704/536 531/702/536 545/442/536 309/446/536
f 540/688/537 539/703/537 314/444/537 548/448/537
f 533/690/538 532/704/538 309/446/538 546/450/538
f 541/689/539 540/688/539 548/448/539 315/421/539
f 534/691/540 533/690/540 546/450/540 310/425/540
f 542/692/541 541/689/541 315/421/541 316/420/541
f 535/693/542 534/691/542 310/425/542 311/424/542
f 543/694/543 542/692/543 316/420/543 317/428/543
f 536/695/544 535/693/544 311/424/544 547/430/544
f 529/697/545 307/705/545 308/432/545
f 318/706/546 543/694/546 317/428/546
f 537/699/547 536/695/547 547/430/547 312/436/547
f 530/700/548 529/697/548 308/432/548 544/438/548
o Top_Spike
v 0.000000 1.870000 -0.140000
v 0.019134 1.866194 -0.140000
v 0.035355 1.855355 -0.140000
v 0.046194 1.839134 -0.140000
v 0.050000 1.820000 -0.140000
v 0.046194 1.800866 -0.140000
v 0.035355 1.784645 -0.140000
v 0.019134 1.773806 -0.140000
v 0.000000 1.770000 -0.140000
v -0.019134 1.773806 -0.140000
v -0.035355 1.784645 -0.140000
v -0.046194 1.800866 -0.140000
v -0.050000 1.820000 -0.140000
v -0.046194 1.839134 -0.140000
v -0.035355 1.855355 -0.140000
v -0.019134 1.866194 -0.140000
v 0.000000 1.820000 0.140000
vn 0.1922 0.9661 0.1725
vn 0.5472 0.8190 0.1725
vn 0.8190 0.5472 0.1725
vn 0.9661 0.1922 0.1725
vn 0.9661 -0.1922 0.1725
vn 0.8190 -0.5472 0.1725
vn 0.5472 -0.8190 0.1725
vn 0.1922 -0.9661 0.1725
vn -0.1922 -0.9661 0.1725
vn -0.5472 -0.8190 0.1725
vn -0.8190 -0.5472 0.1725
vn -0.9661 -0.1922 0.1725
vn -0.9661 0.1922 0.1725
vn -0.8190 0.5472 0.1725
vn -0.0000 -0.0000 -1.0000
vn -0.5472 0.8190 0.1725
vn -0.1922 0.9661 0.1725
vt 0.250000 0.490000
vt 0.250000 0.250000
vt 0.341844 0.471731
vt 0.419706 0.419706
vt 0.471731 0.341844
vt 0.490000 0.250000
vt 0.471731 0.158156
vt 0.419706 0.080294
vt 0.341844 0.028269
vt 0.250000 0.010000
vt 0.158156 0.028269
vt 0.080294 0.080294
vt 0.028269 0.158156
vt 0.010000 0.250000
vt 0.028269 0.341844
vt 0.080294 0.419706
vt 0.750000 0.490000
vt 0.841844 0.471731
vt 0.919706 0.419706
vt 0.971731 0.341844
vt 0.990000 0.250000
vt 0.971731 0.158156
vt 0.919706 0.080294
vt 0.841844 0.028269
vt 0.750000 0.010000
vt 0.658156 0.028269
vt 0.580294 0.080294
vt 0.528269 0.158156
vt 0.510000 0.250000
vt 0.528269 0.341844
vt 0.580294 0.419706
vt 0.658156 0.471731
vt 0.158156 0.471731
s 0
usemtl Scythe_Gold
f 549/707/549 565/708/549 550/709/549
f 550/709/550 565/708/550 551/710/550
f 551/710/551 565/708/551 552/711/551
f 552/711/552 565/708/552 553/712/552
f 553/712/553 565/708/553 554/713/553
f 554/713/554 565/708/554 555/714/554
f 555/714/555 565/708/555 556/715/555
f 556/715/556 565/708/556 557/716/556
f 557/716/557 565/708/557 558/717/557
f 558/717/558 565/708/558 559/718/558
f 559/718/559 565/708/559 560/719/559
f 560/719/560 565/708/560 561/720/560
f 561/720/561 565/708/561 562/721/561
f 562/721/562 565/708/562 563/722/562
f 549/723/563 550/724/563 551/725/563 552/726/563 553/727/563 554/728/563 555/729/563 556/730/563 557/731/563 558/732/563 559/733/563 560/734/563 561/735/563 562/736/563 563/737/563 564/738/563
f 563/722/564 565/708/564 564/739/564
f 564/739/565 565/708/565 549/707/565
o Blade_Spine_1
v -0.000143 1.652960 -0.030000
v -0.000143 1.652960 0.030000
v 0.041269 1.807508 -0.030000
v 0.041269 1.807508 0.030000
v 0.598731 1.492492 -0.030000
v 0.598731 1.492492 0.030000
v 0.640143 1.647040 -0.030000
v 0.640143 1.647040 0.030000
vn -0.9659 0.2588 -0.0000
vn 0.2588 0.9659 -0.0000
vn 0.9659 -0.2588 -0.0000
vn -0.2588 -0.9659 -0.0000
vn -0.0000 -0.0000 -1.0000
vn -0.0000 -0.0000 1.0000
vt 0.375000 0.000000
vt 0.625000 0.000000
vt 0.625000 0.250000
vt 0.375000 0.250000
vt 0.625000 0.500000
vt 0.375000 0.500000
vt 0.625000 0.750000
vt 0.375000 0.750000
vt 0.625000 1.000000
vt 0.375000 1.000000
vt 0.125000 0.500000
vt 0.125000 0.750000
vt 0.875000 0.500000
vt 0.875000 0.750000
s 0
usemtl Scythe_Iron
f 566/740/566 567/741/566 569/742/566 568/743/566
f 568/743/567 569/742/567 573/744/567 572/745/567
f 572/745/568 573/744/568 571/746/568 570/747/568
f 570/747/569 571/746/569 567/748/569 566/749/569
f 568/750/570 572/745/570 570/747/570 566/751/570
f 573/744/571 569/752/571 567/753/571 571/746/571
o Blade_Spine_2
v 0.571299 1.619706 -0.025000
v 0.571299 1.619706 0.025000
v 0.670294 1.718701 -0.025000
v 0.670294 1.718701 0.025000
v 1.009706 1.181299 -0.025000
v 1.009706 1.181299 0.025000
v 1.108701 1.280294 -0.025000
v 1.108701 1.280294 0.025000
vn -0.7071 0.7071 -0.0000
vn 0.7071 0.7071 -0.0000
vn 0.7071 -0.7071 -0.0000
vn -0.7071 -0.7071 -0.0000
vn -0.0000 -0.0000 -1.0000
vn -0.0000 -0.0000 1.0000
vt 0.375000 0.000000
vt 0.625000 0.000000
vt 0.625000 0.250000
vt 0.375000 0.250000
vt 0.625000 0.500000
vt 0.375000 0.500000
vt 0.625000 0.750000
vt 0.375000 0.750000
vt 0.625000 1.000000
vt 0.375000 1.000000
vt 0.125000 0.500000
vt 0.125000 0.750000
vt 0.875000 0.500000
vt 0.875000 0.750000
s 0
usemtl Scythe_Iron
f 574/754/572 575/755/572 577/756/572 576/757/572
f 576/757/573 577/756/573 581/758/573 580/759/573
f 580/759/574 581/758/574 579/760/574 578/761/574
f 578/761/575 579/760/575 575/762/575 574/763/575
f 576/764/576 580/759/576 578/761/576 574/765/576
f 581/758/577 577/766/577 575/767/577 579/760/577
o Blade_Spine_Tip
v 1.248296 1.132941 -0.190000
v 1.249572 1.113474 -0.190000
v 1.243301 1.095000 -0.190000
v 1.230438 1.080332 -0.190000
v 1.212941 1.071704 -0.190000
v 1.193474 1.070428 -0.190000
v 1.175000 1.076699 -0.190000
v 1.160332 1.089562 -0.190000
v 1.151704 1.107059 -0.190000
v 1.150428 1.126526 -0.190000
v 1.156699 1.145000 -0.190000
v 1.169562 1.159668 -0.190000
v 1.187059 1.168296 -0.190000
v 1.206526 1.169572 -0.190000
v 1.225000 1.163301 -0.190000
v 1.239668 1.150438 -0.190000
v 1.200000 1.120000 0.190000
vn 0.9897 0.0649 0.1280
vn 0.9391 -0.3188 0.1280
vn 0.7457 -0.6539 0.1280
vn 0.4387 -0.8895 0.1280
vn 0.0649 -0.9897 0.1280
vn -0.3188 -0.9391 0.1280
vn -0.6539 -0.7457 0.1280
vn -0.8895 -0.4387 0.1280
vn -0.9897 -0.0649 0.1280
vn -0.9391 0.3188 0.1280
vn -0.7457 0.6539 0.1280
vn -0.4387 0.8895 0.1280
vn -0.0649 0.9897 0.1280
vn 0.3188 0.9391 0.1280
vn -0.0000 -0.0000 -1.0000
vn 0.6539 0.7457 0.1280
vn 0.8895 0.4387 0.1280
vt 0.250000 0.490000
vt 0.250000 0.250000
vt 0.341844 0.471731
vt 0.419706 0.419706
vt 0.471731 0.341844
vt 0.490000 0.250000
vt 0.471731 0.158156
vt 0.419706 0.080294
vt 0.341844 0.028269
vt 0.250000 0.010000
vt 0.158156 0.028269
vt 0.080294 0.080294
vt 0.028269 0.158156
vt 0.010000 0.250000
vt 0.028269 0.341844
vt 0.080294 0.419706
vt 0.750000 0.490000
vt 0.841844 0.471731
vt 0.919706 0.419706
vt 0.971731 0.341844
vt 0.990000 0.250000
vt 0.971731 0.158156
vt 0.919706 0.080294
vt 0.841844 0.028269
vt 0.750000 0.010000
vt 0.658156 0.028269
vt 0.580294 0.080294
vt 0.528269 0.158156
vt 0.510000 0.250000
vt 0.528269 0.341844
vt 0.580294 0.419706
vt 0.658156 0.471731
vt 0.158156 0.471731
s 0
usemtl Scythe_Iron
f 582/768/578 598/769/578 583/770/578
f 583/770/579 598/769/579 584/771/579
f 584/771/580 598/769/580 585/772/580
f 585/772/581 598/769/581 586/773/581
f 586/773/582 598/769/582 587/774/582
f 587/774/583 598/769/583 588/775/583
f 588/775/584 598/769/584 589/776/584
f 589/776/585 598/769/585 590/777/585
f 590/777/586 598/769/586 591/778/586
f 591/778/587 598/769/587 592/779/587
f 592/779/588 598/769/588 593/780/588
f 593/780/589 598/769/589 594/781/589
f 594/781/590 598/769/590 595/782/590
f 595/782/591 598/769/591 596/783/591
f 582/784/592 583/785/592 584/786/592 585/787/592 586/788/592 587/789/592 588/790/592 589/791/592 590/792/592 591/793/592 592/794/592 593/795/592 594/796/592 595/797/592 596/798/592 597/799/592
f 596/783/593 598/769/593 597/800/593
f 597/800/594 598/769/594 582/768/594
o Energy_Edge_1
v 0.018575 1.614179 -0.017500
v 0.018575 1.614179 0.017500
v 0.041869 1.701112 -0.017500
v 0.041869 1.701112 0.017500
v 0.598131 1.458888 -0.017500
v 0.598131 1.458888 0.017500
v 0.621425 1.545821 -0.017500
v 0.621425 1.545821 0.017500
vn -0.9659 0.2588 -0.0000
vn 0.2588 0.9659 -0.0000
vn 0.9659 -0.2588 -0.0000
vn -0.2588 -0.9659 -0.0000
vn -0.0000 -0.0000 -1.0000
vn -0.0000 -0.0000 1.0000
vt 0.375000 0.000000
vt 0.625000 0.000000
vt 0.625000 0.250000
vt 0.375000 0.250000
vt 0.625000 0.500000
vt 0.375000 0.500000
vt 0.625000 0.750000
vt 0.375000 0.750000
vt 0.625000 1.000000
vt 0.375000 1.000000
vt 0.125000 0.500000
vt 0.125000 0.750000
vt 0.875000 0.500000
vt 0.875000 0.750000
s 0
usemtl Scythe_SoulBlade
f 599/801/595 600/802/595 602/803/595 601/804/595
f 601/804/596 602/803/596 606/805/596 605/806/596
f 605/806/597 606/805/597 604/807/597 603/808/597
f 603/808/598 604/807/598 600/809/598 599/810/598
f 601/811/599 605/806/599 603/808/599 599/812/599
f 606/805/600 602/813/600 600/814/600 604/807/600
o Energy_Edge_2
v 0.599584 1.563848 -0.015000
v 0.599584 1.563848 0.015000
v 0.656152 1.620416 -0.015000
v 0.656152 1.620416 0.015000
v 1.023848 1.139584 -0.015000
v 1.023848 1.139584 0.015000
v 1.080416 1.196152 -0.015000
v 1.080416 1.196152 0.015000
vn -0.7071 0.7071 -0.0000
vn 0.7071 0.7071 -0.0000
vn 0.7071 -0.7071 -0.0000
vn -0.7071 -0.7071 -0.0000
vn -0.0000 -0.0000 -1.0000
vn -0.0000 -0.0000 1.0000
vt 0.375000 0.000000
vt 0.625000 0.000000
vt 0.625000 0.250000
vt 0.375000 0.250000
vt 0.625000 0.500000
vt 0.375000 0.500000
vt 0.625000 0.750000
vt 0.375000 0.750000
vt 0.625000 1.000000
vt 0.375000 1.000000
vt 0.125000 0.500000
vt 0.125000 0.750000
vt 0.875000 0.500000
vt 0.875000 0.750000
s 0
usemtl Scythe_SoulBlade
f 607/815/601 608/816/601 610/817/601 609/818/601
f 609/818/602 610/817/602 614/819/602 613/820/602
f 613/820/603 614/819/603 612/821/603 611/822/603
f 611/822/604 612/821/604 608/823/604 607/824/604
f 609/825/605 613/820/605 611/822/605 607/826/605
f 614/819/606 610/827/606 608/828/606 612/821/606
o Energy_Edge_Tip
v 1.233807 1.059059 -0.190000
v 1.234701 1.045431 -0.190000
v 1.230311 1.032500 -0.190000
v 1.221307 1.022233 -0.190000
v 1.209059 1.016193 -0.190000
v 1.195432 1.015299 -0.190000
v 1.182500 1.019689 -0.190000
v 1.172233 1.028693 -0.190000
v 1.166193 1.040941 -0.190000
v 1.165300 1.054568 -0.190000
v 1.169689 1.067500 -0.190000
v 1.178693 1.077767 -0.190000
v 1.190941 1.083807 -0.190000
v 1.204569 1.084700 -0.190000
v 1.217500 1.080311 -0.190000
v 1.227767 1.071307 -0.190000
v 1.200000 1.050000 0.190000
vn 0.9938 0.0651 0.0900
vn 0.9431 -0.3201 0.0900
vn 0.7488 -0.6567 0.0900
vn 0.4405 -0.8932 0.0900
vn 0.0651 -0.9938 0.0900
vn -0.3201 -0.9431 0.0900
vn -0.6567 -0.7488 0.0900
vn -0.8932 -0.4405 0.0900
vn -0.9938 -0.0651 0.0900
vn -0.9431 0.3201 0.0900
vn -0.7488 0.6567 0.0900
vn -0.4405 0.8932 0.0900
vn -0.0651 0.9938 0.0900
vn 0.3201 0.9431 0.0900
vn -0.0000 -0.0000 -1.0000
vn 0.6567 0.7488 0.0900
vn 0.8932 0.4405 0.0900
vt 0.250000 0.490000
vt 0.250000 0.250000
vt 0.341844 0.471731
vt 0.419706 0.419706
vt 0.471731 0.341844
vt 0.490000 0.250000
vt 0.471731 0.158156
vt 0.419706 0.080294
vt 0.341844 0.028269
vt 0.250000 0.010000
vt 0.158156 0.028269
vt 0.080294 0.080294
vt 0.028269 0.158156
vt 0.010000 0.250000
vt 0.028269 0.341844
vt 0.080294 0.419706
vt 0.750000 0.490000
vt 0.841844 0.471731
vt 0.919706 0.419706
vt 0.971731 0.341844
vt 0.990000 0.250000
vt 0.971731 0.158156
vt 0.919706 0.080294
vt 0.841844 0.028269
vt 0.750000 0.010000
vt 0.658156 0.028269
vt 0.580294 0.080294
vt 0.528269 0.158156
vt 0.510000 0.250000
vt 0.528269 0.341844
vt 0.580294 0.419706
vt 0.658156 0.471731
vt 0.158156 0.471731
s 0
usemtl Scythe_SoulBlade
f 615/829/607 631/830/607 616/831/607
f 616/831/608 631/830/608 617/832/608
f 617/832/609 631/830/609 618/833/609
f 618/833/610 631/830/610 619/834/610
f 619/834/611 631/830/611 620/835/611
f 620/835/612 631/830/612 621/836/612
f 621/836/613 631/830/613 622/837/613
f 622/837/614 631/830/614 623/838/614
f 623/838/615 631/830/615 624/839/615
f 624/839/616 631/830/616 625/840/616
f 625/840/617 631/830/617 626/841/617
f 626/841/618 631/830/618 627/842/618
f 627/842/619 631/830/619 628/843/619
f 628/843/620 631/830/620 629/844/620
f 615/845/621 616/846/621 617/847/621 618/848/621 619/849/621 620/850/621 621/851/621 622/852/621 623/853/621 624/854/621 625/855/621 626/856/621 627/857/621 628/858/621 629/859/621 630/860/621
f 629/844/622 631/830/622 630/861/622
f 630/861/623 631/830/623 615/829/623
o Ring_Mount_1
v 0.000000 1.475000 -0.040000
v 0.000000 1.475000 0.040000
v 0.021048 1.470813 -0.040000
v 0.021048 1.470813 0.040000
v 0.038891 1.458891 -0.040000
v 0.038891 1.458891 0.040000
v 0.050813 1.441048 -0.040000
v 0.050813 1.441048 0.040000
v 0.055000 1.420000 -0.040000
v 0.055000 1.420000 0.040000
v 0.050813 1.398952 -0.040000
v 0.050813 1.398952 0.040000
v 0.038891 1.381109 -0.040000
v 0.038891 1.381109 0.040000
v 0.021048 1.369187 -0.040000
v 0.021048 1.369187 0.040000
v 0.000000 1.365000 -0.040000
v 0.000000 1.365000 0.040000
v -0.021048 1.369187 -0.040000
v -0.021048 1.369187 0.040000
v -0.038891 1.381109 -0.040000
v -0.038891 1.381109 0.040000
v -0.050813 1.398952 -0.040000
v -0.050813 1.398952 0.040000
v -0.055000 1.420000 -0.040000
v -0.055000 1.420000 0.040000
v -0.050813 1.441048 -0.040000
v -0.050813 1.441048 0.040000
v -0.038891 1.458891 -0.040000
v -0.038891 1.458891 0.040000
v -0.021048 1.470813 -0.040000
v -0.021048 1.470813 0.040000
vn 0.1951 0.9808 -0.0000
vn 0.5556 0.8315 -0.0000
vn 0.8315 0.5556 -0.0000
vn 0.9808 0.1951 -0.0000
vn 0.9808 -0.1951 -0.0000
vn 0.8315 -0.5556 -0.0000
vn 0.5556 -0.8315 -0.0000
vn 0.1951 -0.9808 -0.0000
vn -0.1951 -0.9808 -0.0000
vn -0.5556 -0.8315 -0.0000
vn -0.8315 -0.5556 -0.0000
vn -0.9808 -0.1951 -0.0000
vn -0.9808 0.1951 -0.0000
vn -0.8315 0.5556 -0.0000
vn -0.0000 -0.0000 1.0000
vn -0.5556 0.8315 -0.0000
vn -0.1951 0.9808 -0.0000
vn -0.0000 -0.0000 -1.0000
vt 1.000000 0.500000
vt 1.000000 1.000000
vt 0.937500 1.000000
vt 0.937500 0.500000
vt 0.875000 1.000000
vt 0.875000 0.500000
vt 0.812500 1.000000
vt 0.812500 0.500000
vt 0.750000 1.000000
vt 0.750000 0.500000
vt 0.687500 1.000000
vt 0.687500 0.500000
vt 0.625000 1.000000
vt 0.625000 0.500000
vt 0.562500 1.000000
vt 0.562500 0.500000
vt 0.500000 1.000000
vt 0.500000 0.500000
vt 0.437500 1.000000
vt 0.437500 0.500000
vt 0.375000 1.000000
vt 0.375000 0.500000
vt 0.312500 1.000000
vt 0.312500 0.500000
vt 0.250000 1.000000
vt 0.250000 0.500000
vt 0.187500 1.000000
vt 0.187500 0.500000
vt 0.125000 1.000000
vt 0.125000 0.500000
vt 0.341844 0.471731
vt 0.250000 0.490000
vt 0.158156 0.471731
vt 0.080294 0.419706
vt 0.028269 0.341844
vt 0.010000 0.250000
vt 0.028269 0.158156
vt 0.080294 0.080294
vt 0.158156 0.028269
vt 0.250000 0.010000
vt 0.341844 0.028269
vt 0.419706 0.080294
vt 0.471731 0.158156
vt 0.490000 0.250000
vt 0.471731 0.341844
vt 0.419706 0.419706
vt 0.062500 1.000000
vt 0.062500 0.500000
vt 0.000000 1.000000
vt 0.000000 0.500000
vt 0.750000 0.490000
vt 0.841844 0.471731
vt 0.919706 0.419706
vt 0.971731 0.341844
vt 0.990000 0.250000
vt 0.971731 0.158156
vt 0.919706 0.080294
vt 0.841844 0.028269
vt 0.750000 0.010000
vt 0.658156 0.028269
vt 0.580294 0.080294
vt 0.528269 0.158156
vt 0.510000 0.250000
vt 0.528269 0.341844
vt 0.580294 0.419706
vt 0.658156 0.471731
s 0
usemtl Scythe_Gold
f 632/862/624 633/863/624 635/864/624 634/865/624
f 634/865/625 635/864/625 637/866/625 636/867/625
f 636/867/626 637/866/626 639/868/626 638/869/626
f 638/869/627 639/868/627 641/870/627 640/871/627
f 640/871/628 641/870/628 643/872/628 642/873/628
f 642/873/629 643/872/629 645/874/629 644/875/629
f 644/875/630 645/874/630 647/876/630 646/877/630
f 646/877/631 647/876/631 649/878/631 648/879/631
f 648/879/632 649/878/632 651/880/632 650/881/632
f 650/881/633 651/880/633 653/882/633 652/883/633
f 652/883/634 653/882/634 655/884/634 654/885/634
f 654/885/635 655/884/635 657/886/635 656/887/635
f 656/887/636 657/886/636 659/888/636 658/889/636
f 658/889/637 659/888/637 661/890/637 660/891/637
f 635/892/638 633/893/638 663/894/638 661/895/638 659/896/638 657/897/638 655/898/638 653/899/638 651/900/638 649/901/638 647/902/638 645/903/638 643/904/638 641/905/638 639/906/638 637/907/638
f 660/891/639 661/890/639 663/908/639 662/909/639
f 662/909/640 663/908/640 633/910/640 632/911/640
f 632/912/641 634/913/641 636/914/641 638/915/641 640/916/641 642/917/641 644/918/641 646/919/641 648/920/641 650/921/641 652/922/641 654/923/641 656/924/641 658/925/641 660/926/641 662/927/641
o Ring_Mount_2
v 0.000000 0.955000 -0.040000
v 0.000000 0.955000 0.040000
v 0.021048 0.950813 -0.040000
v 0.021048 0.950813 0.040000
v 0.038891 0.938891 -0.040000
v 0.038891 0.938891 0.040000
v 0.050813 0.921048 -0.040000
v 0.050813 0.921048 0.040000
v 0.055000 0.900000 -0.040000
v 0.055000 0.900000 0.040000
v 0.050813 0.878952 -0.040000
v 0.050813 0.878952 0.040000
v 0.038891 0.861109 -0.040000
v 0.038891 0.861109 0.040000
v 0.021048 0.849187 -0.040000
v 0.021048 0.849187 0.040000
v 0.000000 0.845000 -0.040000
v 0.000000 0.845000 0.040000
v -0.021048 0.849187 -0.040000
v -0.021048 0.849187 0.040000
v -0.038891 0.861109 -0.040000
v -0.038891 0.861109 0.040000
v -0.050813 0.878952 -0.040000
v -0.050813 0.878952 0.040000
v -0.055000 0.900000 -0.040000
v -0.055000 0.900000 0.040000
v -0.050813 0.921048 -0.040000
v -0.050813 0.921048 0.040000
v -0.038891 0.938891 -0.040000
v -0.038891 0.938891 0.040000
v -0.021048 0.950813 -0.040000
v -0.021048 0.950813 0.040000
vn 0.1951 0.9808 -0.0000
vn 0.5556 0.8315 -0.0000
vn 0.8315 0.5556 -0.0000
vn 0.9808 0.1951 -0.0000
vn 0.9808 -0.1951 -0.0000
vn 0.8315 -0.5556 -0.0000
vn 0.5556 -0.8315 -0.0000
vn 0.1951 -0.9808 -0.0000
vn -0.1951 -0.9808 -0.0000
vn -0.5556 -0.8315 -0.0000
vn -0.8315 -0.5556 -0.0000
vn -0.9808 -0.1951 -0.0000
vn -0.9808 0.1951 -0.0000
vn -0.8315 0.5556 -0.0000
vn -0.0000 -0.0000 1.0000
vn -0.5556 0.8315 -0.0000
vn -0.1951 0.9808 -0.0000
vn -0.0000 -0.0000 -1.0000
vt 1.000000 0.500000
vt 1.000000 1.000000
vt 0.937500 1.000000
vt 0.937500 0.500000
vt 0.875000 1.000000
vt 0.875000 0.500000
vt 0.812500 1.000000
vt 0.812500 0.500000
vt 0.750000 1.000000
vt 0.750000 0.500000
vt 0.687500 1.000000
vt 0.687500 0.500000
vt 0.625000 1.000000
vt 0.625000 0.500000
vt 0.562500 1.000000
vt 0.562500 0.500000
vt 0.500000 1.000000
vt 0.500000 0.500000
vt 0.437500 1.000000
vt 0.437500 0.500000
vt 0.375000 1.000000
vt 0.375000 0.500000
vt 0.312500 1.000000
vt 0.312500 0.500000
vt 0.250000 1.000000
vt 0.250000 0.500000
vt 0.187500 1.000000
vt 0.187500 0.500000
vt 0.125000 1.000000
vt 0.125000 0.500000
vt 0.341844 0.471731
vt 0.250000 0.490000
vt 0.158156 0.471731
vt 0.080294 0.419706
vt 0.028269 0.341844
vt 0.010000 0.250000
vt 0.028269 0.158156
vt 0.080294 0.080294
vt 0.158156 0.028269
vt 0.250000 0.010000
vt 0.341844 0.028269
vt 0.419706 0.080294
vt 0.471731 0.158156
vt 0.490000 0.250000
vt 0.471731 0.341844
vt 0.419706 0.419706
vt 0.062500 1.000000
vt 0.062500 0.500000
vt 0.000000 1.000000
vt 0.000000 0.500000
vt 0.750000 0.490000
vt 0.841844 0.471731
vt 0.919706 0.419706
vt 0.971731 0.341844
vt 0.990000 0.250000
vt 0.971731 0.158156
vt 0.919706 0.080294
vt 0.841844 0.028269
vt 0.750000 0.010000
vt 0.658156 0.028269
vt 0.580294 0.080294
vt 0.528269 0.158156
vt 0.510000 0.250000
vt 0.528269 0.341844
vt 0.580294 0.419706
vt 0.658156 0.471731
s 0
usemtl Scythe_Gold
f 664/928/642 665/929/642 667/930/642 666/931/642
f 666/931/643 667/930/643 669/932/643 668/933/643
f 668/933/644 669/932/644 671/934/644 670/935/644
f 670/935/645 671/934/645 673/936/645 672/937/645
f 672/937/646 673/936/646 675/938/646 674/939/646
f 674/939/647 675/938/647 677/940/647 676/941/647
f 676/941/648 677/940/648 679/942/648 678/943/648
f 678/943/649 679/942/649 681/944/649 680/945/649
f 680/945/650 681/944/650 683/946/650 682/947/650
f 682/947/651 683/946/651 685/948/651 684/949/651
f 684/949/652 685/948/652 687/950/652 686/951/652
f 686/951/653 687/950/653 689/952/653 688/953/653
f 688/953/654 689/952/654 691/954/654 690/955/654
f 690/955/655 691/954/655 693/956/655 692/957/655
f 667/958/656 665/959/656 695/960/656 693/961/656 691/962/656 689/963/656 687/964/656 685/965/656 683/966/656 681/967/656 679/968/656 677/969/656 675/970/656 673/971/656 671/972/656 669/973/656
f 692/957/657 693/956/657 695/974/657 694/975/657
f 694/975/658 695/974/658 665/976/658 664/977/658
f 664/978/659 666/979/659 668/980/659 670/981/659 672/982/659 674/983/659 676/984/659 678/985/659 680/986/659 682/987/659 684/988/659 686/989/659 688/990/659 690/991/659 692/992/659 694/993/659
