# Blender 5.2.1 LTS
# www.blender.org
mtllib relic_sword.mtl
o Relic_Sword
v -0.179202 0.127783 -0.061336
v -0.193586 0.133757 -0.057782
v -0.176049 0.120530 -0.053796
v -0.183941 0.125002 -0.035703
v -0.188462 0.131143 -0.034809
v -0.147668 0.186920 -0.017474
v -0.138235 0.156393 0.001075
v -0.182192 0.125652 -0.026171
v -0.113365 0.165544 0.009640
v -0.157893 0.117441 -0.001711
v -0.123133 0.137614 0.011401
v -0.145023 0.115249 0.005858
v -0.169185 0.120486 -0.010523
v -0.115171 0.112108 0.003241
v -0.082788 0.171283 -0.003800
v -0.101659 0.116943 -0.003621
v -0.130157 0.113754 0.013418
v -0.126873 0.108317 0.005667
v -0.100994 0.124492 -0.011544
v -0.107006 0.109550 -0.006769
v -0.110782 0.102965 -0.002172
v -0.137584 0.110496 -0.002723
v -0.144335 0.101832 -0.013018
v -0.144817 0.100182 -0.020843
v -0.140119 0.102696 -0.005777
v -0.131309 0.100477 -0.000150
v -0.140492 0.089246 -0.028487
v -0.141988 0.112711 -0.016479
v -0.180391 0.113488 -0.052293
v -0.092297 0.145708 -0.003550
v -0.095460 0.138148 -0.010540
v -0.091436 0.144166 -0.008880
v -0.083907 0.130971 -0.021667
v -0.102619 0.108280 -0.022893
v -0.097626 0.120864 -0.018466
v -0.096649 0.119937 -0.028792
v -0.103276 0.081873 -0.019309
v -0.100296 0.101246 -0.016562
v -0.100706 0.084736 -0.022981
v -0.113361 0.084471 -0.012336
v -0.105241 0.074890 -0.024765
v -0.087870 0.091567 -0.007733
v -0.095631 0.085449 -0.007771
v -0.099803 0.076016 -0.008783
v -0.103133 0.063671 -0.018769
v -0.101534 0.083542 -0.028704
v -0.101035 0.068042 -0.036539
v -0.105840 0.082744 -0.031340
v -0.109836 0.072786 -0.040982
v -0.106714 0.064190 -0.047389
v -0.115652 0.073214 -0.036439
v -0.112428 0.065957 -0.030221
v -0.136494 -0.010278 -0.061071
v -0.130888 0.021104 -0.055173
v -0.135512 0.012613 -0.061364
v -0.128189 0.004173 -0.063425
v -0.127278 0.029798 -0.059917
v -0.130598 0.028907 -0.046684
v -0.133427 0.020403 -0.047237
v -0.137825 0.019214 -0.055021
v -0.128580 0.023867 -0.038995
v -0.116835 0.030902 -0.059573
v -0.119871 0.033815 -0.064354
v -0.115136 0.021180 -0.056533
v -0.120524 0.017027 -0.052509
v -0.121731 0.030282 -0.048770
v -0.130002 0.013392 -0.045963
v -0.141903 0.010189 -0.052176
v -0.141739 0.015554 -0.046552
v -0.128010 0.002668 -0.052755
v -0.175288 0.122818 -0.045265
v -0.169062 0.117103 -0.031441
v -0.166698 0.111617 -0.046726
v -0.162639 0.096183 -0.059943
v -0.168794 0.107356 -0.048752
v -0.166417 0.094905 -0.052714
v -0.151829 0.073089 -0.071205
v -0.164721 0.109695 -0.029686
v -0.159593 0.113345 -0.023545
v -0.162953 0.102456 -0.023202
v -0.173631 0.105247 -0.038618
v -0.171105 0.099316 -0.036874
v -0.161932 0.115660 -0.010849
v -0.142938 0.106811 -0.022028
v -0.151255 0.078671 -0.042573
v -0.124954 0.062981 -0.035677
v -0.135405 0.075891 -0.039974
v -0.155927 0.077686 -0.049619
v -0.136056 0.061316 -0.052500
v -0.142562 0.059129 -0.059152
v -0.146516 0.061571 -0.065867
v -0.129855 0.066009 -0.045832
v -0.133134 0.064365 -0.058207
v -0.124440 0.070260 -0.052957
v -0.118730 0.062390 -0.033352
v -0.124802 0.073277 -0.042467
v -0.111627 -0.009032 -0.053497
v -0.119024 -0.002675 -0.055221
v -0.125408 -0.001398 -0.053993
v -0.131515 -0.005188 -0.045742
v -0.130570 0.001638 -0.036674
v -0.137038 0.000125 -0.040723
v -0.125020 0.013423 -0.035818
v -0.119745 -0.000966 -0.040733
v -0.126718 0.004006 -0.028198
v -0.122636 0.008808 -0.029641
v -0.119129 0.018886 -0.039905
v -0.116357 0.008867 -0.042547
v -0.119854 0.009737 -0.050505
v -0.103199 0.034763 -0.053694
v -0.109141 0.017362 -0.047252
v -0.114850 0.005598 -0.032853
v -0.114000 -0.006574 -0.046600
v -0.110841 0.004737 -0.050847
v -0.108775 0.010460 -0.037491
v -0.106256 0.007438 -0.032740
v -0.110865 -0.002022 -0.023988
v -0.115700 -0.006992 -0.027238
v -0.117932 -0.015008 -0.041817
v -0.107037 -0.011909 -0.044139
v -0.115283 -0.009031 -0.033056
v -0.106583 -0.007596 -0.054528
v -0.111383 -0.020575 -0.034731
v -0.100313 -0.021811 -0.030566
v -0.101772 -0.014781 -0.052047
v -0.103267 -0.004899 -0.053710
v -0.100436 0.002485 -0.049480
v -0.102691 -0.002205 -0.048752
v -0.089014 0.013977 -0.043643
v -0.108796 0.029537 -0.063442
v -0.103355 -0.003821 -0.041449
v -0.102451 0.006371 -0.040495
v -0.093549 0.021758 -0.043651
v -0.102264 -0.003040 -0.031956
v -0.105156 -0.006576 -0.026843
v -0.103651 -0.011495 -0.033520
v -0.103858 -0.007753 -0.041438
v -0.100673 -0.028636 -0.039779
v -0.099450 -0.020542 -0.043749
v -0.096737 0.029857 -0.040133
v -0.094969 0.049398 -0.050145
v -0.076705 0.021064 -0.040208
v -0.072360 0.019671 -0.050388
v -0.088471 0.043845 -0.041090
v -0.084320 0.039358 -0.035040
v -0.093552 0.052539 -0.027141
v -0.095709 0.058085 -0.052403
v -0.100679 0.060329 -0.065968
v -0.085108 0.054856 -0.064144
v -0.092229 0.058802 -0.061340
v -0.071516 0.018584 -0.059795
v -0.060285 0.032300 -0.056425
v -0.066160 0.007279 -0.032882
v -0.063192 0.011126 -0.044947
v -0.063149 0.026082 -0.050957
v -0.044986 0.051858 -0.063485
v -0.044693 0.025117 -0.042992
v -0.036266 0.049254 -0.058557
v -0.040355 0.064660 -0.062753
v -0.110852 0.069399 -0.061869
v -0.082996 0.131022 -0.062857
v -0.089606 0.134726 -0.061261
v -0.101011 -0.009116 -0.035536
v -0.091951 -0.011896 -0.030599
v -0.083881 -0.023226 -0.021769
v -0.086646 -0.016818 -0.030522
v -0.097554 -0.014725 -0.024066
v -0.093378 -0.024327 -0.039505
v -0.095308 -0.030349 -0.036875
v -0.098262 -0.008438 -0.042080
v -0.089590 -0.005048 -0.032345
v -0.071070 -0.019736 -0.028550
v -0.088575 -0.012886 -0.046363
v -0.078660 -0.014706 -0.033846
v -0.079532 -0.034409 -0.023589
v -0.074076 -0.028243 -0.029187
v -0.071108 -0.033678 -0.030292
v -0.064377 -0.033062 -0.025033
v -0.090536 -0.003843 -0.039930
v -0.095341 0.003320 -0.035278
v -0.091298 -0.035142 -0.040529
v -0.087950 -0.024510 -0.046490
v -0.100156 -0.020032 -0.024951
v -0.091564 -0.027014 -0.023869
v -0.092259 -0.025200 -0.032790
v -0.065396 -0.037146 -0.031986
v -0.066333 -0.038306 -0.039862
v -0.072933 -0.036723 -0.033302
v -0.084493 -0.036322 -0.031412
v -0.060563 -0.045432 -0.032098
v -0.059598 -0.034789 -0.019001
v -0.078839 -0.044965 -0.037112
v -0.058996 -0.045763 -0.039816
v -0.078092 -0.041334 -0.042858
v -0.081620 -0.030501 -0.043120
v -0.081657 -0.022158 -0.044648
v -0.071655 -0.018610 -0.037487
v -0.058253 -0.022429 -0.030559
v -0.074467 -0.029779 -0.038748
v -0.077476 -0.027623 -0.037088
v -0.073203 -0.030153 -0.035580
v -0.073382 -0.027477 -0.040100
v -0.056543 -0.024393 -0.027179
v -0.054418 -0.038751 -0.021077
v -0.064269 -0.024352 -0.037906
v -0.074290 -0.033401 -0.041574
v -0.063086 -0.035109 -0.038466
v -0.055487 -0.033743 -0.046327
v -0.052943 -0.036533 -0.041321
v -0.063157 -0.025440 -0.048920
v -0.043669 -0.032340 -0.049095
v -0.053899 -0.018965 -0.020056
v -0.049537 -0.022799 -0.011764
v -0.045316 -0.017597 -0.021145
v -0.045542 -0.013639 -0.013578
v -0.038881 -0.020017 -0.026434
v -0.058691 -0.028466 -0.034696
v -0.050716 -0.025071 -0.039122
v -0.041655 -0.026992 -0.021377
v -0.037759 -0.022142 -0.019662
v -0.038242 -0.023074 -0.030615
v -0.040137 -0.027067 -0.010744
v -0.035192 -0.031089 -0.011143
v -0.029899 -0.028164 -0.020068
v -0.025181 -0.037407 -0.014896
v -0.045875 -0.033950 -0.005344
v -0.045285 -0.026591 0.001888
v -0.037417 -0.028623 0.002298
v -0.030599 -0.024980 -0.000408
v -0.053295 -0.034426 -0.006844
v -0.053723 -0.027601 -0.005798
v -0.044171 -0.021717 0.000731
v -0.048326 -0.016044 -0.005405
v -0.044088 -0.022123 -0.009118
v -0.039424 -0.008232 0.003726
v -0.033463 -0.007714 0.000357
v -0.045065 -0.033563 -0.022738
v -0.048189 -0.037416 -0.031886
v -0.043563 -0.030696 -0.036748
v -0.041435 -0.027421 -0.034296
v -0.036575 -0.032029 -0.040650
v -0.052365 -0.027591 -0.045826
v -0.039121 -0.007310 -0.005426
v -0.035072 -0.011298 0.013698
v -0.034253 -0.020658 0.007884
v -0.027982 -0.040018 -0.002350
v -0.018113 -0.056294 0.003434
v -0.013001 -0.066667 0.010404
v -0.007575 -0.022243 -0.018495
v -0.023887 -0.016730 -0.023136
v -0.015368 -0.009457 -0.025154
v -0.030609 -0.030197 -0.027302
v -0.030810 -0.018650 -0.038415
v -0.087341 0.153702 -0.009703
v -0.077008 0.139594 -0.021233
v -0.072583 0.131863 -0.030736
v -0.074236 0.130550 -0.041283
v -0.083013 0.128733 -0.046729
v -0.099408 0.123011 -0.040274
v -0.101609 0.098320 -0.029213
v -0.101186 0.111553 -0.035142
v -0.086631 0.113820 -0.034901
v -0.093636 0.100873 -0.030833
v -0.084285 0.097589 -0.021988
v -0.079184 0.078140 0.003815
v -0.086509 0.066484 0.004234
v -0.095025 0.060875 -0.004883
v -0.097176 0.053098 -0.016783
v -0.089905 0.040834 -0.018320
v -0.067056 0.035516 -0.030943
v -0.091145 0.050448 -0.013239
v -0.086358 0.056144 -0.013990
v -0.077977 0.037969 -0.019778
v -0.068227 0.039226 -0.027230
v -0.053237 0.020990 -0.019048
v -0.048383 0.006356 -0.012779
v -0.055709 -0.006462 -0.026208
v -0.057316 0.000995 -0.039011
v -0.046859 -0.010641 -0.032861
v -0.035653 -0.010611 -0.030973
v -0.029234 0.007646 -0.032008
v -0.035485 -0.026622 -0.034232
v -0.027863 -0.027169 -0.033465
v -0.010781 -0.010191 -0.033685
v -0.022658 -0.014026 -0.038256
v -0.023130 -0.024667 -0.043464
v -0.019812 -0.017707 -0.032173
v -0.033174 -0.020483 -0.044331
v -0.032619 -0.006366 -0.038062
v -0.027754 -0.002075 -0.040435
v -0.014030 -0.001600 -0.037217
v -0.017313 0.002999 -0.035662
v -0.037193 0.016200 -0.036076
v -0.031275 0.019321 -0.041323
v -0.027977 0.040828 -0.043899
v -0.021168 0.027952 -0.038870
v -0.013448 0.029722 -0.036816
v -0.020727 0.012215 -0.035486
v -0.013029 0.022513 -0.033179
v -0.040760 0.028237 -0.047683
v -0.020652 0.040154 -0.032223
v -0.010421 0.048427 -0.029863
v -0.025893 0.063635 -0.042189
v -0.078069 0.150525 -0.015180
v -0.058083 0.170476 -0.016375
v -0.067729 0.130789 -0.022769
v -0.038489 0.136192 -0.043074
v -0.048069 0.119432 -0.040563
v -0.047415 0.143022 -0.028019
v -0.083405 0.122223 -0.046379
v -0.092307 0.127246 -0.055539
v -0.085122 0.131249 -0.052980
v -0.087479 0.127161 -0.061406
v -0.095090 0.126803 -0.048107
v -0.099026 0.122768 -0.046340
v -0.072832 0.069336 -0.005961
v -0.080171 0.065983 0.006674
v -0.074974 0.096387 -0.021163
v -0.056755 0.092096 -0.033358
v -0.068923 0.103878 -0.027618
v -0.076386 0.108779 -0.036017
v -0.075004 0.118864 -0.046488
v -0.056428 0.104962 -0.038003
v -0.066172 0.111114 -0.048499
v -0.059360 0.109344 -0.051005
v -0.052642 0.092974 -0.038914
v -0.041146 0.098419 -0.023920
v -0.053252 0.087494 -0.025183
v -0.062752 0.080604 -0.014003
v -0.051150 0.073156 -0.013953
v -0.065986 0.077229 0.000763
v -0.059621 0.073689 -0.001734
v -0.065760 0.066602 0.000418
v -0.060835 0.046688 0.007712
v -0.054794 0.050242 0.004608
v -0.084267 0.056122 -0.000576
v -0.069340 0.038096 0.005202
v -0.070900 0.043594 0.007240
v -0.077196 0.038737 -0.001651
v -0.067778 0.039395 -0.005766
v -0.052388 0.056440 -0.000566
v -0.083876 0.045893 -0.004623
v -0.070791 0.034191 -0.018046
v -0.065022 0.038319 -0.020547
v -0.056933 0.046248 -0.012852
v -0.045998 0.038413 -0.008998
v -0.052419 0.053031 -0.012078
v -0.057754 0.029242 -0.017598
v -0.048774 0.164403 -0.023966
v -0.037507 0.122093 -0.055821
v -0.056426 0.120359 -0.034576
v -0.061153 0.123409 -0.039753
v -0.040071 0.106404 -0.028018
v -0.050709 0.079936 -0.020684
v -0.045718 0.017001 -0.007294
v -0.048917 0.059681 -0.017716
v -0.032400 0.018052 -0.001507
v -0.032123 0.031359 -0.007440
v -0.036650 0.049581 -0.015590
v -0.046081 0.072022 -0.022545
v -0.030238 0.075767 -0.019560
v -0.022611 0.066859 -0.015441
v -0.036331 0.011773 -0.002882
v -0.034793 -0.000688 0.010161
v -0.036581 -0.019519 0.023730
v -0.025526 -0.003721 0.016362
v -0.035497 -0.011435 0.023048
v -0.030915 -0.025975 0.017704
v -0.026238 0.000018 0.024101
v -0.024679 -0.013954 0.027689
v -0.028674 -0.024509 0.023211
v -0.025518 -0.018810 0.005764
v -0.008062 -0.048273 0.017396
v -0.021215 -0.016279 0.005175
v -0.020097 -0.013299 0.017875
v -0.013814 -0.053985 -0.005688
v -0.008496 -0.001764 -0.031585
v -0.006808 0.013025 -0.035784
v -0.003414 0.024994 -0.029228
v -0.010557 0.055833 -0.025716
v -0.006609 0.035777 -0.027812
v -0.015552 0.060109 -0.025840
v -0.009270 0.045291 -0.018151
v -0.015345 0.063334 -0.020037
v -0.024738 0.065998 -0.035084
v -0.022981 0.074797 -0.027598
v -0.015247 0.069695 -0.016534
v -0.040609 0.155950 -0.036417
v -0.035467 0.125421 -0.063546
v -0.046205 0.113696 -0.048379
v -0.047411 0.113966 -0.053967
v -0.040862 0.093403 -0.017110
v -0.028832 0.105151 -0.011887
v -0.011144 0.085898 -0.028185
v -0.017813 0.079671 -0.039439
v -0.022444 0.087028 -0.016159
v -0.002771 0.086441 -0.037222
v -0.011511 0.086620 -0.021118
v -0.003947 0.088656 -0.028884
v -0.005357 0.084050 -0.032332
v -0.009914 0.072049 -0.013861
v -0.004759 0.084372 -0.026381
v -0.034239 0.071982 -0.052400
v -0.024523 0.084276 -0.052435
v -0.033941 0.085529 -0.052885
v -0.035886 0.075851 -0.057791
v -0.044137 0.083767 -0.057703
v -0.037044 0.096491 -0.050263
v -0.011321 0.099504 -0.043377
v -0.007795 0.089540 -0.040996
v -0.012460 0.109847 -0.044149
v -0.012212 0.115263 -0.052487
v -0.007142 0.105581 -0.054014
v -0.000943 0.097021 -0.049768
v -0.027889 0.105339 -0.007602
v -0.025766 0.112517 -0.015267
v -0.049540 0.087497 -0.052471
v -0.051782 0.102297 -0.049511
v -0.053637 0.103472 -0.058699
v -0.052875 0.096440 -0.065326
v -0.031169 0.118365 -0.022809
v -0.043192 0.118342 -0.011628
v -0.043507 0.118478 -0.004056
v -0.033998 0.122494 -0.013706
v -0.038682 0.119113 -0.001239
v -0.036264 0.128938 -0.009513
v -0.034771 0.107265 -0.007945
v -0.036992 0.120413 0.004780
v -0.031991 0.128685 -0.003232
v -0.032237 0.122690 -0.007354
v -0.032376 0.125875 -0.012790
v -0.033489 0.131671 -0.012109
v -0.031261 0.125761 0.006288
v -0.031102 0.113289 0.001550
v -0.035138 0.107941 0.013311
v -0.031586 0.108449 0.000660
v -0.029604 0.110811 -0.001241
v -0.024615 0.115438 0.000271
v -0.036363 0.104826 0.001528
v -0.035747 0.096990 -0.004394
v -0.036956 0.094906 0.002494
v -0.025679 0.090293 -0.002373
v -0.029056 0.083841 0.000319
v -0.024945 0.098309 0.001630
v -0.022896 0.105147 0.000910
v -0.021943 0.108621 -0.003918
v -0.025856 0.093366 0.005575
v -0.024552 0.095035 0.006147
v -0.018917 0.096308 0.004578
v -0.018350 0.074583 -0.004903
v -0.024044 0.081539 0.012425
v -0.024164 0.077096 0.002462
v -0.018131 0.085981 -0.005965
v -0.019495 0.067846 0.001400
v -0.022143 0.096370 0.007463
v -0.016979 0.095572 0.008480
v -0.011550 0.102581 0.008635
v -0.020772 0.100757 0.005725
v -0.030627 0.097877 0.006940
v -0.014155 0.091114 -0.001057
v -0.016435 0.110708 -0.007349
v -0.010270 0.105217 -0.002459
v -0.020007 0.110166 -0.009923
v -0.006531 0.094802 -0.016825
v -0.008540 0.083268 -0.011752
v -0.002030 0.071154 -0.018091
v -0.006174 0.070918 -0.025494
v -0.004753 0.066684 -0.028366
v -0.017627 0.056827 -0.008500
v -0.015377 0.062977 -0.007224
v -0.017525 0.038666 -0.003865
v -0.020842 0.029225 -0.000441
v -0.022905 0.019871 0.001682
v -0.041636 0.008686 -0.010084
v -0.024473 0.007318 0.004269
v -0.009565 -0.008195 0.010682
v -0.012952 -0.005903 0.011884
v 0.007482 -0.025523 0.024096
v -0.025847 -0.005683 0.028603
v -0.015583 -0.001654 0.026119
v -0.020116 0.014114 0.016486
v -0.010429 0.003328 0.016799
v -0.009008 -0.082779 0.014941
v -0.003932 -0.073029 0.002326
v 0.004656 -0.037514 -0.009797
v -0.010423 0.009783 -0.022636
v -0.005277 0.009257 -0.028302
v 0.000057 0.028639 -0.023543
v -0.000994 0.076399 -0.035473
v 0.004466 0.076422 -0.033052
v 0.006591 0.084383 -0.031142
v 0.000622 0.092294 -0.035447
v 0.012201 0.084473 -0.028491
v -0.020312 0.113311 -0.042500
v -0.016670 0.123210 -0.048201
v -0.022631 0.117452 -0.037555
v -0.011580 0.130489 -0.054758
v -0.029023 0.122978 -0.027684
v -0.035776 0.124054 -0.017202
v -0.029309 0.083805 0.007114
v -0.025771 0.126672 -0.001464
v -0.041525 0.135000 -0.011649
v -0.046253 0.126051 -0.012815
v -0.041602 0.135469 -0.021863
v -0.039614 0.127251 -0.026418
v -0.027656 0.137899 -0.032685
v -0.028807 0.133720 -0.022656
v -0.027565 0.138261 -0.013755
v -0.023362 0.122242 -0.004779
v -0.020056 0.139825 -0.032659
v -0.013480 0.140141 -0.031067
v -0.029921 0.133174 -0.037421
v -0.030336 0.134274 -0.049526
v -0.025559 0.125285 -0.049411
v -0.022201 0.135928 -0.060945
v -0.025978 0.115548 0.008188
v -0.027744 0.108791 0.015508
v -0.023181 0.094771 0.008951
v -0.019021 0.075838 0.008347
v -0.027090 0.065267 0.007198
v -0.027813 0.053528 0.008627
v -0.028087 0.060141 0.014103
v -0.023607 0.069126 0.013408
v -0.017073 0.055731 0.008260
v -0.015262 0.048780 0.003263
v -0.011868 0.069074 -0.000574
v -0.007656 0.070566 -0.006601
v -0.003566 0.066711 -0.005234
v 0.001323 0.081699 -0.010901
v -0.006758 0.062142 0.003001
v -0.001974 0.065981 -0.014016
v 0.003254 0.072176 -0.011976
v 0.002494 0.061657 -0.007882
v -0.002185 0.059363 -0.005417
v -0.013419 0.084949 0.001417
v -0.015565 0.117862 -0.003279
v -0.008207 0.073543 0.007467
v -0.016270 0.079149 0.007044
v -0.003136 0.061083 0.011952
v -0.011075 0.061492 0.015458
v -0.005662 0.051651 0.006100
v 0.006755 0.050132 0.001819
v -0.006495 0.057054 -0.010325
v 0.000228 0.053475 -0.011165
v -0.000290 0.059546 -0.016086
v 0.002695 0.065705 -0.023368
v 0.002406 0.057818 -0.013219
v -0.004614 0.042867 0.012348
v -0.015019 0.055527 0.010243
v -0.022524 0.060565 0.016277
v -0.015757 0.065007 0.021206
v -0.012076 0.070372 0.016514
v -0.021679 0.068122 0.019969
v -0.023841 0.089428 0.015960
v -0.017439 0.085906 0.019416
v -0.014264 0.087851 0.009374
v -0.007630 0.091243 0.005428
v -0.010715 0.102155 -0.009086
v -0.018821 0.115182 0.002956
v -0.027063 0.110436 0.003261
v -0.031245 0.101953 0.014775
v -0.018009 0.134880 -0.015554
v -0.018653 0.124436 -0.012687
v -0.017827 -0.000426 0.007296
v -0.025456 0.004059 -0.006360
v -0.020554 0.013360 0.003610
v -0.024505 0.026559 0.007447
v -0.021159 0.035190 0.007728
v -0.014431 0.039710 0.001862
v -0.022329 0.008138 0.015687
v -0.019004 0.002994 0.000401
v -0.023777 -0.007042 -0.001571
v -0.019283 0.142842 -0.058266
v -0.019688 0.136015 -0.042604
v -0.011341 0.143370 -0.050881
v -0.005346 0.140844 -0.050522
v -0.010236 0.141875 -0.059261
v -0.008700 0.135515 -0.031943
v -0.013600 0.135194 -0.023387
v -0.004102 0.134749 -0.034771
v -0.008466 0.129856 -0.040512
v -0.006227 0.130876 -0.049006
v -0.000185 0.126752 -0.041770
v 0.001732 0.135339 -0.036725
v -0.026426 0.136645 -0.007415
v -0.007834 0.146057 -0.011669
v -0.001478 0.106280 -0.005119
v 0.010141 0.078019 -0.021818
v 0.011246 0.092243 -0.022886
v -0.024135 0.043965 0.010754
v -0.022308 0.041135 0.017085
v -0.016457 0.047736 0.019839
v -0.002511 0.044308 0.022332
v -0.006757 0.034292 0.010312
v -0.010650 0.052194 0.022670
v -0.005025 0.031031 -0.000225
v -0.001901 0.026426 0.016931
v -0.005959 0.020559 0.017781
v 0.000607 0.018552 0.013197
v -0.001141 0.019368 0.005586
v -0.004936 0.028211 0.025825
v -0.013293 0.014832 0.021229
v -0.011091 0.027351 0.023608
v -0.013035 0.037278 0.018177
v -0.015823 0.029940 0.013506
v -0.017140 0.024404 0.022630
v 0.004453 0.018963 -0.004884
v -0.001690 0.007871 0.011187
v 0.012900 -0.002469 0.016539
v 0.009969 -0.039816 0.026512
v 0.015371 -0.058617 -0.000539
v 0.010974 -0.014575 -0.007396
v 0.029412 -0.037895 0.007286
v -0.008432 0.024332 -0.019520
v -0.010434 0.049725 -0.004344
v -0.005574 0.044728 0.000778
v 0.018403 0.144093 -0.028642
v 0.010028 0.152212 -0.030885
v -0.003248 0.139252 -0.006196
v -0.012179 0.124103 -0.003888
v 0.003614 0.141592 0.000605
v -0.007979 0.117201 -0.006791
v 0.016495 0.147418 0.003198
v 0.001122 0.161577 -0.007494
v 0.011435 0.153493 0.004384
v 0.019699 0.142161 0.008867
v 0.007550 0.114690 -0.000891
v 0.018903 0.111978 -0.021552
v -0.001465 0.092148 -0.024172
v 0.003717 0.086974 -0.019845
v 0.000327 0.091266 -0.026319
v -0.000684 0.095179 -0.024508
v 0.007253 0.099259 -0.025760
v 0.002124 0.120830 -0.042810
v 0.004835 0.116400 -0.039020
v 0.006545 0.129236 -0.052062
v 0.004260 0.135807 -0.050534
v 0.002305 0.142621 -0.059040
v -0.007844 0.122713 -0.061056
v 0.005169 0.137113 -0.058379
v 0.000593 0.118041 -0.056517
v 0.009697 0.112033 -0.042607
v 0.008436 0.101689 -0.045356
v 0.000499 0.119805 -0.050798
v 0.003862 0.099657 -0.044986
v 0.012069 0.099366 -0.036283
v 0.008195 0.101341 -0.028503
v 0.004109 0.110350 -0.035136
v 0.018421 0.123014 0.004383
v 0.020651 0.168485 0.007044
v 0.027857 0.137718 0.010300
v 0.010047 0.156164 -0.000947
v 0.030046 0.121045 -0.015441
v 0.020685 0.125881 -0.025619
v -0.003330 0.034167 -0.012129
v 0.017638 -0.002344 0.006001
v 0.026856 -0.017927 0.027288
v 0.013574 -0.084703 0.035359
v 0.032535 -0.073708 0.045551
v -0.006667 -0.102359 0.018667
v -0.001378 -0.086628 0.005939
v -0.002984 0.048177 -0.017995
v 0.002837 0.043423 -0.007021
v 0.010490 0.061338 -0.019335
v 0.009471 0.047192 -0.002542
v 0.011299 0.066185 -0.010281
v 0.001799 0.038226 -0.019331
v -0.002738 -0.109270 0.019382
v 0.011885 -0.114146 0.016292
v -0.003794 -0.106776 0.013197
v 0.002201 -0.106914 0.008430
v 0.009393 -0.115804 0.025825
v 0.031096 -0.096273 0.013692
v 0.021543 -0.125304 0.033629
v 0.036420 -0.118751 0.053637
v 0.022923 -0.123846 0.024650
v 0.017909 0.165947 -0.029719
v 0.027571 0.147849 -0.025771
vn -0.4140 -0.8936 -0.1735
vn -0.4167 -0.8923 -0.1738
vn -0.4153 -0.8930 -0.1735
vn -0.9546 -0.2553 0.1536
vn -0.7929 -0.5996 0.1086
vn -0.7786 -0.6000 0.1838
vn -0.6829 0.2913 0.6699
vn -0.5986 0.2727 0.7532
vn -0.3816 0.1905 0.9045
vn -0.3820 0.1924 0.9039
vn -0.3843 0.2018 0.9009
vn -0.3830 0.1892 0.9042
vn -0.4324 0.1742 0.8847
vn -0.4760 0.1786 0.8611
vn -0.5607 0.2260 0.7966
vn 0.5524 -0.0926 0.8284
vn 0.4150 -0.0903 0.9053
vn 0.4146 -0.0879 0.9057
vn 0.4846 -0.1257 0.8657
vn 0.3542 -0.6884 0.6330
vn 0.5196 -0.6242 0.5834
vn 0.7746 -0.0026 0.6325
vn 0.3028 -0.3737 0.8767
vn -0.3140 -0.8347 0.4524
vn -0.3473 -0.9149 0.2057
vn -0.2838 -0.9217 0.2645
vn -0.3401 -0.8834 0.3225
vn -0.6291 -0.2012 0.7509
vn -0.5577 -0.1391 0.8183
vn -0.9293 0.1745 0.3256
vn -0.8343 0.3223 0.4473
vn -0.9793 0.1977 -0.0426
vn -0.9620 0.2730 0.0017
vn -0.5242 -0.6308 0.5720
vn -0.6611 -0.5958 0.4560
vn -0.8599 -0.4791 0.1761
vn -0.1737 -0.9795 -0.1021
vn -0.5021 -0.7798 0.3739
vn -0.7053 0.2428 0.6661
vn -0.7054 0.2426 0.6660
vn -0.7053 0.2427 0.6661
vn -0.4206 -0.8897 -0.1776
vn -0.4212 -0.8894 -0.1780
vn 0.4635 -0.1546 0.8725
vn 0.4649 -0.1644 0.8700
vn 0.4647 -0.1627 0.8704
vn 0.4634 -0.1530 0.8729
vn 0.9466 -0.3079 -0.0954
vn 0.4247 -0.4933 0.7591
vn 0.5664 -0.2863 0.7728
vn 0.9026 -0.3470 -0.2549
vn 0.8229 -0.4443 -0.3542
vn 0.8594 -0.4353 0.2681
vn 0.8447 -0.1786 0.5046
vn 0.5661 -0.5842 0.5816
vn 0.9071 -0.4028 0.1220
vn 0.7795 -0.2039 0.5923
vn 0.8045 -0.0481 0.5920
vn 0.8635 0.4637 0.1984
vn 0.8689 -0.1980 0.4537
vn 0.2430 -0.4930 0.8354
vn 0.4106 -0.4825 0.7737
vn 0.3202 -0.6376 0.7007
vn -0.8325 0.3196 0.4525
vn -0.9419 0.0026 0.3359
vn -0.9493 0.0019 0.3143
vn -0.8160 -0.5315 -0.2271
vn -0.9452 -0.2732 -0.1788
vn -0.8859 0.1862 -0.4248
vn -0.8860 0.1857 -0.4248
vn -0.5727 -0.3844 0.7240
vn -0.3458 -0.5774 0.7396
vn -0.9105 0.4110 0.0460
vn -0.5938 -0.6083 0.5267
vn -0.2709 -0.8537 0.4449
vn 0.3964 -0.7158 0.5749
vn 0.7058 -0.4223 -0.5688
vn 0.8418 -0.3073 -0.4438
vn 0.7443 -0.2120 -0.6333
vn -0.8953 -0.4450 -0.0213
vn 0.5731 -0.3713 -0.7305
vn 0.0092 -0.5992 0.8006
vn -0.9378 0.2710 -0.2170
vn -0.9102 0.3199 -0.2630
vn -0.1463 0.9888 0.0299
vn -0.3960 0.9046 0.1578
vn -0.0007 0.8363 0.5483
vn 0.4382 0.8640 0.2482
vn 0.3835 0.3360 0.8603
vn 0.9110 -0.0330 0.4110
vn -0.8757 0.2651 0.4036
vn -0.7740 -0.2745 0.5706
vn -0.2628 0.9648 0.0011
vn -0.1918 0.6443 -0.7404
vn -0.8277 0.2100 -0.5204
vn -0.4896 0.8598 0.1453
vn -0.9049 0.3208 -0.2796
vn -0.6766 -0.4436 -0.5877
vn -0.4766 -0.8716 -0.1149
vn -0.8577 0.5069 0.0859
vn -0.5177 -0.8419 0.1524
vn -0.5041 -0.8389 0.2053
vn -0.4613 -0.8840 0.0762
vn -0.5407 -0.8240 0.1691
vn -0.8665 -0.4972 0.0444
vn -0.7833 -0.6137 0.0991
vn -0.5625 0.8118 0.1568
vn -0.8047 0.5264 -0.2746
vn -0.7572 -0.6109 0.2314
vn -0.3048 0.3748 0.8756
vn -0.3933 -0.2298 0.8902
vn -0.5233 -0.7309 0.4382
vn -0.5216 -0.7302 0.4414
vn -0.5210 -0.7300 0.4423
vn -0.8846 -0.0206 -0.4659
vn -0.8993 -0.0329 -0.4361
vn -0.6755 -0.2298 0.7007
vn -0.7452 0.3346 0.5768
vn -0.8226 -0.1931 0.5348
vn -0.5584 -0.6714 0.4872
vn -0.8938 -0.4238 -0.1465
vn -0.0998 -0.9819 0.1607
vn -0.3102 -0.6243 0.7169
vn -0.1013 0.2028 0.9740
vn -0.2353 -0.6824 0.6921
vn -0.2338 -0.6834 0.6916
vn -0.2375 -0.6810 0.6927
vn -0.1770 -0.6099 0.7725
vn -0.8793 -0.4523 0.1495
vn -0.7905 -0.5507 0.2681
vn 0.0350 -0.6934 0.7197
vn -0.1023 -0.6726 0.7329
vn -0.3122 -0.6808 0.6626
vn 0.2891 -0.6575 0.6957
vn -0.2333 -0.6837 0.6915
vn -0.5675 -0.6756 0.4707
vn -0.3906 -0.6904 0.6090
vn -0.5790 -0.6617 0.4764
vn -0.2320 -0.6280 0.7428
vn -0.7416 -0.6390 0.2043
vn -0.7409 -0.6395 0.2052
vn -0.7397 -0.6404 0.2068
vn 0.4909 -0.8476 -0.2015
vn -0.3192 -0.6095 0.7257
vn 0.6497 -0.7568 -0.0716
vn -0.7390 -0.6409 0.2076
vn -0.3236 -0.6698 0.6683
vn -0.1816 0.6311 0.7541
vn -0.8705 -0.4761 -0.1250
vn -0.8745 -0.4659 -0.1350
vn 0.5792 -0.8139 -0.0454
vn 0.7567 -0.6209 0.2047
vn -0.7929 -0.5712 0.2124
vn 0.0191 -0.9556 -0.2942
vn 0.7088 -0.1765 -0.6830
vn 0.5100 -0.3669 -0.7780
vn -0.2296 -0.4150 0.8804
vn 0.0205 -0.6387 0.7692
vn 0.0203 -0.6385 0.7693
vn -0.7151 -0.2601 -0.6488
vn -0.1959 0.4582 0.8670
vn 0.6743 0.4375 0.5949
vn -0.8364 0.3641 0.4096
vn -0.3267 -0.5441 -0.7728
vn -0.9527 -0.2057 0.2240
vn -0.7690 -0.6054 -0.2053
vn -0.5490 0.1438 0.8233
vn -0.1964 -0.7734 0.6027
vn 0.0321 -0.8001 0.5990
vn 0.3848 -0.9131 -0.1346
vn -0.8742 0.3908 0.2881
vn -0.4831 0.6018 0.6360
vn -0.8845 -0.1692 0.4349
vn 0.2779 0.3650 0.8885
vn 0.3918 0.6190 0.6807
vn 0.5977 -0.0457 0.8004
vn 0.9658 0.2554 0.0448
vn 0.6175 0.7255 0.3037
vn 0.9139 0.1163 -0.3889
vn 0.4541 0.3372 0.8246
vn -0.6552 0.4487 0.6078
vn 0.9958 0.0911 -0.0015
vn 0.4486 0.8657 0.2222
vn -0.1055 0.3678 0.9239
vn -0.1054 0.3679 0.9239
vn -0.1752 -0.9787 0.1067
vn -0.6686 -0.7416 0.0542
vn -0.6568 -0.7528 0.0423
vn -0.7573 0.6471 0.0879
vn 0.4296 0.2759 0.8599
vn 0.4785 0.8705 -0.1151
vn -0.5767 0.5540 0.6004
vn -0.1072 -0.2589 0.9599
vn -0.4093 0.8434 0.3480
vn -0.1760 0.7857 0.5931
vn 0.4894 0.7579 0.4313
vn 0.4901 0.7577 0.4309
vn 0.4899 0.7578 0.4310
vn -0.3392 -0.2610 0.9038
vn -0.6460 -0.6068 0.4631
vn -0.3283 -0.8952 -0.3013
vn -0.7338 -0.0424 -0.6780
vn -0.9145 -0.1472 0.3769
vn -0.9033 -0.4209 0.0828
vn -0.0525 -0.4740 -0.8790
vn 0.3266 -0.8492 0.4150
vn -0.4873 -0.7988 -0.3529
vn -0.8087 -0.3426 0.4782
vn -0.3321 0.1588 0.9298
vn 0.0098 -0.1404 0.9901
vn -0.7496 -0.5991 -0.2815
vn 0.3212 -0.1097 -0.9406
vn 0.9018 -0.4149 0.1207
vn 0.0903 -0.5209 0.8488
vn 0.1592 0.0780 -0.9842
vn 0.2261 0.7792 -0.5846
vn 0.6903 0.7162 0.1024
vn -0.1750 -0.2272 0.9580
vn -0.0866 0.1933 0.9773
vn 0.4894 0.7579 0.4314
vn -0.0102 -0.5403 0.8414
vn 0.0095 -0.8041 0.5945
vn -0.1848 -0.9315 0.3132
vn 0.9063 -0.2159 0.3633
vn 0.9845 -0.1428 -0.1014
vn 0.6466 0.4055 0.6461
vn -0.0269 0.0644 0.9976
vn -0.9526 -0.2742 0.1320
vn 0.9882 -0.1267 -0.0857
vn -0.2139 -0.4039 -0.8894
vn -0.6154 -0.7867 -0.0493
vn -0.1556 -0.1806 -0.9712
vn -0.7223 -0.6460 -0.2468
vn 0.5866 -0.6786 0.4419
vn -0.1497 -0.2521 0.9561
vn -0.3024 -0.1753 0.9369
vn -0.0879 -0.4258 0.9005
vn -0.7377 0.4411 0.5111
vn 0.4379 -0.8701 0.2262
vn -0.0626 -0.9921 0.1090
vn -0.0543 -0.4157 0.9079
vn -0.7236 0.4627 0.5122
vn -0.5919 0.3977 0.7011
vn -0.2035 -0.1176 0.9720
vn -0.7125 0.2409 0.6590
vn -0.7892 -0.6073 0.0911
vn -0.8570 -0.4526 -0.2463
vn -0.7457 -0.6524 0.1350
vn -0.4749 -0.8796 0.0285
vn -0.1112 -0.9862 -0.1224
vn -0.7532 -0.2248 -0.6182
vn -0.5468 -0.7904 -0.2763
vn -0.7170 -0.6629 -0.2153
vn -0.2017 -0.3431 0.9174
vn 0.5713 -0.8079 0.1446
vn 0.7785 -0.5766 -0.2479
vn -0.5048 -0.7788 -0.3725
vn -0.6944 -0.6184 -0.3680
vn 0.3558 -0.3493 -0.8668
vn 0.1985 -0.3659 -0.9092
vn 0.2510 -0.7018 -0.6666
vn 0.2637 -0.5033 -0.8229
vn 0.3142 -0.4884 -0.8141
vn 0.1221 -0.9527 0.2782
vn 0.2679 -0.8303 0.4887
vn -0.0484 -0.9856 0.1622
vn -0.0373 -0.9982 0.0462
vn -0.9048 -0.4111 0.1107
vn -0.6792 -0.7307 -0.0688
vn 0.4834 0.8615 -0.1550
vn 0.3995 0.8546 0.3317
vn 0.0450 0.0916 0.9948
vn -0.5270 -0.5095 0.6802
vn -0.3428 0.7990 0.4940
vn 0.0436 0.9026 0.4282
vn 0.6446 0.6995 0.3085
vn 0.3442 0.7173 0.6058
vn -0.9543 -0.2761 0.1142
vn -0.3013 -0.7605 0.5752
vn -0.5038 -0.6846 0.5268
vn 0.3009 -0.4562 -0.8374
vn 0.3036 -0.4610 -0.8339
vn 0.3036 -0.4613 -0.8337
vn 0.8987 0.3331 -0.2854
vn 0.4449 0.8920 0.0800
vn 0.5978 0.7696 0.2246
vn 0.3758 0.5257 0.7631
vn 0.0655 0.2253 0.9721
vn 0.1629 0.1907 0.9681
vn 0.0629 0.7671 0.6385
vn 0.9705 0.2334 -0.0602
vn -0.1307 -0.0280 0.9910
vn 0.6156 0.7158 0.3296
vn 0.6384 0.1247 0.7595
vn 0.6042 0.1718 0.7781
vn -0.3675 0.0604 0.9281
vn -0.3972 0.8032 -0.4439
vn 0.7957 0.6034 0.0529
vn 0.9614 0.2639 -0.0780
vn 0.1174 0.0822 -0.9897
vn 0.8263 0.5631 -0.0136
vn 0.6012 0.6780 -0.4229
vn 0.9900 -0.1265 0.0620
vn -0.4300 0.8119 0.3949
vn 0.1649 0.7730 0.6126
vn 0.1379 0.9776 0.1592
vn -0.6536 -0.6739 -0.3444
vn 0.1142 0.2571 -0.9596
vn 0.4050 -0.0918 -0.9097
vn -0.3853 -0.8050 -0.4511
vn -0.3703 -0.8905 -0.2644
vn 0.3039 -0.4614 -0.8335
vn -0.7177 -0.0725 -0.6926
vn -0.7873 -0.0937 -0.6094
vn -0.0366 -0.6077 0.7933
vn -0.7621 0.2760 0.5857
vn -0.1833 -0.0736 0.9803
vn -0.2202 -0.0918 0.9711
vn -0.6293 -0.7356 0.2507
vn -0.4183 -0.8959 -0.1496
vn -0.8156 -0.5761 -0.0536
vn -0.1561 -0.2175 0.9635
vn 0.4508 -0.7495 0.4848
vn -0.5287 -0.4367 0.7278
vn -0.3288 -0.7925 0.5137
vn -0.5586 -0.7133 -0.4233
vn 0.0823 0.9845 -0.1548
vn -0.1772 -0.1166 0.9773
vn -0.7287 -0.5385 0.4231
vn -0.7772 -0.4591 0.4304
vn 0.1627 0.3582 0.9193
vn 0.0047 -0.9720 0.2347
vn -0.4679 -0.7431 0.4784
vn -0.2198 -0.6332 0.7421
vn -0.0353 -0.9987 0.0357
vn -0.1073 -0.8341 -0.5410
vn -0.5544 -0.2905 0.7799
vn 0.0012 -0.4893 -0.8721
vn 0.3916 0.0311 -0.9196
vn 0.2722 0.0251 -0.9619
vn 0.1384 0.7968 -0.5881
vn 0.3769 0.8958 -0.2354
vn 0.6214 -0.4303 -0.6547
vn 0.3343 -0.1683 -0.9273
vn -0.2153 -0.0936 -0.9720
vn -0.4360 -0.7341 -0.5206
vn -0.6408 -0.7261 0.2492
vn 0.8409 -0.0939 -0.5329
vn 0.2259 -0.1882 -0.9558
vn 0.2508 0.8555 0.4531
vn -0.9798 0.1527 0.1292
vn 0.2475 0.8869 0.3901
vn -0.0113 0.2499 0.9682
vn -0.5212 0.6170 0.5896
vn -0.3099 -0.7265 0.6132
vn 0.1968 0.1877 -0.9623
vn 0.2360 0.0440 -0.9708
vn 0.2255 0.0502 -0.9730
vn 0.2305 0.0468 -0.9719
vn 0.2249 0.0497 -0.9731
vn 0.2748 0.1923 -0.9421
vn -0.4602 0.6008 0.6537
vn 0.2597 0.7900 -0.5553
vn 0.1432 0.2540 -0.9565
vn -0.7426 0.5630 0.3627
vn 0.6190 0.7773 0.1125
vn -0.3476 -0.8379 -0.4208
vn 0.9001 -0.1278 -0.4165
vn 0.9852 0.1327 -0.1083
vn -0.8986 -0.2963 0.3235
vn 0.4645 0.8455 0.2633
vn -0.6964 0.7173 -0.0228
vn -0.4902 -0.8023 -0.3406
vn -0.2637 -0.8273 0.4961
vn -0.1607 0.5275 -0.8342
vn -0.0948 -0.0994 -0.9905
vn -0.2328 -0.8950 -0.3805
vn 0.7272 -0.5449 -0.4174
vn 0.5362 -0.8316 0.1445
vn -0.0093 -0.8754 -0.4832
vn -0.6588 0.2752 -0.7002
vn -0.0794 -0.9663 -0.2447
vn 0.4839 0.6640 -0.5700
vn -0.2952 0.9474 -0.1234
vn -0.2240 -0.4730 -0.8521
vn -0.8120 0.4891 0.3185
vn -0.9000 -0.1138 0.4208
vn -0.9089 -0.0912 0.4069
vn -0.1963 0.8664 -0.4591
vn 0.6587 0.3922 -0.6421
vn -0.5731 0.4911 -0.6560
vn -0.0156 0.9515 -0.3073
vn -0.1222 -0.0231 -0.9922
vn -0.1222 -0.0228 -0.9922
vn -0.4784 -0.8574 -0.1898
vn 0.5146 0.7044 0.4889
vn 0.0499 0.9536 -0.2970
vn -0.9452 0.1772 -0.2741
vn -0.9451 0.1771 -0.2747
vn -0.9433 0.1823 -0.2775
vn 0.1008 0.6934 0.7135
vn -0.7929 0.5315 0.2981
vn -0.3617 -0.7719 -0.5228
vn 0.9229 0.3628 -0.1292
vn -0.5675 -0.6473 -0.5088
vn -0.5323 -0.6589 -0.5316
vn -0.1012 -0.1978 0.9750
vn -0.5841 -0.6025 -0.5439
vn 0.6557 -0.7214 -0.2228
vn -0.6287 -0.7767 0.0384
vn -0.2115 -0.6764 0.7055
vn 0.5294 -0.8146 0.2371
vn 0.5520 -0.6145 0.5636
vn -0.0998 -0.6933 0.7137
vn -0.6552 -0.1544 0.7395
vn -0.6598 0.3130 0.6832
vn -0.8153 -0.5788 0.0170
vn -0.5042 0.8627 -0.0398
vn -0.7625 0.1276 0.6343
vn -0.5775 0.3112 0.7547
vn -0.1772 -0.5170 0.8375
vn -0.5866 0.0267 0.8094
vn -0.0304 0.9946 0.0992
vn -0.7294 0.6826 0.0446
vn -0.6581 0.7529 -0.0026
vn -0.2732 -0.6329 0.7244
vn 0.5298 -0.8233 0.2037
vn 0.5016 -0.8452 0.1847
vn 0.4855 -0.8742 0.0032
vn 0.8308 -0.5561 0.0218
vn 0.6146 -0.6942 -0.3747
vn 0.1886 -0.7753 0.6027
vn -0.2460 0.2020 -0.9480
vn 0.2648 -0.0560 -0.9627
vn 0.0444 0.9946 -0.0938
vn 0.2878 0.8710 -0.3982
vn 0.4995 0.3161 -0.8066
vn -0.5734 -0.7354 -0.3611
vn -0.7079 0.4210 0.5671
vn -0.9113 0.3568 -0.2054
vn -0.9095 -0.2738 0.3127
vn 0.2977 -0.7865 0.5411
vn -0.8498 -0.2103 0.4833
vn -0.7169 -0.0711 0.6935
vn -0.7745 -0.5683 -0.2778
vn -0.5970 -0.6645 -0.4495
vn -0.8623 -0.4249 0.2755
vn 0.2512 -0.3719 -0.8937
vn -0.5907 -0.6616 -0.4619
vn 0.1242 -0.3977 -0.9091
vn 0.1245 -0.3968 -0.9094
vn 0.1260 -0.3926 -0.9111
vn 0.2896 -0.9285 0.2325
vn -0.4573 0.0535 0.8877
vn 0.7205 -0.6851 -0.1077
vn 0.8846 -0.4654 0.0308
vn 0.3009 -0.9113 0.2811
vn 0.4061 -0.8599 -0.3094
vn 0.2677 -0.9446 -0.1901
vn 0.4982 0.2885 -0.8177
vn -0.2051 0.5464 0.8121
vn -0.3043 0.0151 0.9525
vn 0.1957 -0.7661 0.6122
vn -0.1193 -0.7492 0.6515
vn 0.4817 -0.8763 0.0087
vn 0.1775 0.2276 -0.9574
vn 0.8973 -0.3637 0.2502
vn 0.8971 -0.3307 0.2929
vn 0.7560 -0.5860 0.2917
vn 0.6025 -0.1919 0.7747
vn 0.5005 -0.4380 0.7467
vn -0.3228 -0.4823 0.8144
vn -0.6333 -0.7179 0.2891
vn 0.5686 -0.4883 0.6620
vn 0.4486 -0.8854 0.1219
vn 0.4463 -0.8939 0.0413
vn 0.3209 -0.9238 -0.2090
vn 0.2073 -0.9314 -0.2992
vn 0.9941 0.0170 -0.1071
vn 0.9710 0.1903 -0.1448
vn 0.1511 -0.8983 -0.4125
vn 0.9922 0.0231 0.1222
vn 0.8857 -0.4639 -0.0203
vn 0.9901 -0.1235 0.0673
vn 0.9160 -0.2735 -0.2933
vn 0.0550 0.4068 0.9119
vn -0.0673 0.3320 0.9409
vn 0.1883 0.0348 0.9815
vn -0.5747 0.3526 0.7385
vn 0.8574 -0.1664 -0.4870
vn -0.5255 0.0266 0.8504
vn 0.7598 -0.6497 0.0252
vn 0.7597 -0.6498 0.0251
vn -0.4975 0.8653 0.0615
vn -0.6161 0.7809 0.1026
vn -0.6583 0.7384 0.1464
vn -0.6142 0.1895 0.7660
vn -0.4501 0.3129 0.8364
vn -0.3660 0.4593 0.8094
vn -0.8666 -0.1510 0.4756
vn -0.8272 -0.3901 0.4044
vn -0.7156 -0.0463 0.6969
vn -0.8198 -0.5106 -0.2593
vn -0.9953 -0.0665 0.0704
vn -0.8428 -0.4658 -0.2697
vn -0.2917 -0.3705 0.8818
vn -0.5906 -0.4353 0.6795
vn -0.5802 -0.6298 0.5165
vn 0.5647 -0.3778 0.7337
vn -0.0438 -0.9963 0.0733
vn -0.2599 -0.8372 -0.4813
vn -0.7983 -0.3587 0.4839
vn -0.8010 -0.2465 0.5455
vn -0.7524 0.6479 0.1184
vn -0.1664 -0.8989 0.4053
vn -0.3078 -0.7198 0.6222
vn -0.7354 -0.2224 0.6401
vn -0.6949 0.0029 0.7191
vn -0.5242 0.1825 0.8318
vn -0.7456 -0.1320 0.6532
vn -0.6823 -0.6657 -0.3021
vn 0.3013 -0.2196 -0.9279
vn 0.3838 -0.3424 -0.8576
vn 0.3374 -0.3225 -0.8844
vn -0.6001 -0.7217 -0.3450
vn -0.6001 -0.7215 -0.3454
vn -0.6009 -0.7197 -0.3478
vn -0.8096 -0.4133 0.4169
vn 0.1640 -0.1753 -0.9707
vn 0.3065 -0.1610 -0.9382
vn -0.6012 -0.7194 -0.3479
vn -0.7620 -0.5829 0.2821
vn 0.1478 -0.4705 -0.8699
vn -0.0833 0.6789 -0.7295
vn 0.0457 -0.2632 -0.9636
vn 0.4294 -0.6432 -0.6340
vn -0.0191 -0.8940 -0.4477
vn 0.8652 -0.4784 0.1504
vn 0.8889 -0.4564 0.0410
vn 0.6529 -0.6631 0.3661
vn 0.6259 -0.6728 0.3944
vn 0.4460 -0.6579 -0.6068
vn 0.6802 -0.6299 0.3748
vn 0.7358 -0.6514 0.1853
vn 0.9261 0.1319 -0.3535
vn -0.0941 0.4418 -0.8922
vn -0.9412 0.1875 -0.2809
vn -0.7550 0.1384 -0.6409
vn -0.7464 0.0919 -0.6591
vn -0.2968 0.9392 -0.1724
vn -0.3168 0.9109 -0.2645
vn -0.8856 -0.1175 -0.4494
vn -0.4132 -0.0347 -0.9100
vn 0.0976 -0.1381 -0.9856
vn -0.4910 0.8681 -0.0728
vn 0.2491 0.4168 -0.8742
vn 0.4119 0.0095 -0.9112
vn -0.1742 0.2015 -0.9639
vn -0.9263 0.3139 -0.2085
vn -0.2220 -0.7073 -0.6711
vn -0.2225 -0.7082 -0.6700
vn -0.2250 -0.7124 -0.6648
vn -0.2256 -0.7133 -0.6636
vn 0.4318 -0.1723 -0.8854
vn 0.3639 -0.1656 -0.9166
vn -0.6710 0.4247 -0.6078
vn -0.5442 0.5007 -0.6732
vn 0.3509 0.1477 -0.9247
vn 0.2647 -0.0360 -0.9637
vn 0.3565 -0.2173 -0.9087
vn 0.0141 -0.6221 -0.7828
vn -0.3060 -0.6259 -0.7174
vn 0.1796 0.0853 -0.9800
vn 0.6359 -0.3178 -0.7033
vn 0.1750 0.3180 -0.9318
vn -0.1875 0.4769 -0.8587
vn -0.1871 0.4765 -0.8591
vn -0.1867 0.4760 -0.8594
vn 0.8284 0.2405 -0.5058
vn 0.8455 -0.0373 -0.5326
vn 0.8596 -0.0404 -0.5093
vn 0.3461 -0.4285 0.8346
vn 0.2730 -0.2173 0.9371
vn 0.3736 -0.2354 0.8972
vn 0.5813 -0.1157 0.8054
vn 0.8378 -0.0914 0.5382
vn 0.7370 -0.3332 0.5881
vn 0.9915 0.0694 0.1099
vn 0.9913 0.0648 0.1150
vn 0.9914 0.0679 0.1116
vn 0.4980 -0.4179 0.7599
vn 0.5496 -0.5457 0.6326
vn 0.2915 0.9294 0.2264
vn -0.9563 0.0728 0.2832
vn -0.6062 -0.7873 -0.1124
vn -0.6283 0.7703 0.1087
vn -0.5031 -0.8597 -0.0885
vn 0.9354 -0.0732 0.3459
vn 0.1663 -0.8738 -0.4570
vn 0.2629 -0.9173 -0.2991
vn 0.7297 -0.6798 0.0732
vn -0.1225 0.7130 0.6904
vn 0.1999 0.1933 0.9606
vn 0.1999 0.1936 0.9605
vn -0.3320 0.2414 0.9119
vn -0.3324 0.2414 0.9117
vn 0.2047 0.7110 0.6728
vn 0.8577 0.0507 0.5116
vn -0.4963 -0.4516 0.7414
vn -0.4248 -0.9029 0.0647
vn 0.0295 0.8026 0.5958
vn 0.0322 0.8892 0.4564
vn 0.2991 0.7279 0.6170
vn -0.1733 0.7758 0.6067
vn -0.1680 0.8529 0.4943
vn 0.0817 0.9106 0.4052
vn 0.0157 0.6454 0.7637
vn 0.5215 0.6530 0.5493
vn 0.5776 0.2126 0.7881
vn 0.6045 0.2569 0.7541
vn 0.3866 0.6382 0.6657
vn 0.0336 0.0516 0.9981
vn -0.4440 -0.3401 0.8290
vn 0.2094 0.9141 0.3473
vn 0.2092 0.9143 0.3469
vn 0.2093 0.9149 0.3450
vn 0.2093 0.9159 0.3426
vn 0.3247 0.9160 0.2355
vn -0.5809 0.5773 0.5739
vn -0.3255 0.9411 -0.0922
vn -0.6133 0.6235 0.4848
vn -0.9348 -0.1144 0.3362
vn 0.5109 0.7981 0.3194
vn 0.6827 0.6655 0.3016
vn 0.2917 0.7763 0.5587
vn 0.1147 -0.7000 0.7049
vn 0.0916 0.9480 0.3048
vn 0.3510 0.3974 0.8479
vn -0.6774 -0.0383 0.7346
vn -0.3651 -0.1279 0.9221
vn -0.7167 -0.4152 0.5603
vn -0.0484 0.0052 0.9988
vn -0.6829 -0.3184 0.6575
vn -0.6154 -0.4215 0.6660
vn -0.6154 -0.4218 0.6659
vn 0.0581 -0.3325 0.9413
vn 0.3647 0.3984 0.8416
vn 0.1787 0.1409 0.9738
vn 0.3541 -0.0228 0.9349
vn 0.0227 0.6355 0.7718
vn 0.6047 -0.7062 0.3683
vn -0.2309 -0.9571 0.1752
vn -0.6396 -0.3038 0.7061
vn 0.8125 -0.5811 0.0469
vn -0.7420 -0.6676 0.0603
vn -0.4754 -0.8779 0.0577
vn 0.6214 -0.7645 0.1715
vn -0.2953 -0.8006 -0.5214
vn 0.6031 -0.7795 0.1692
vn -0.4957 -0.2890 0.8190
vn 0.6726 -0.5089 0.5372
vn 0.6410 -0.7676 0.0004
vn 0.6560 -0.7540 -0.0327
vn 0.4511 -0.8297 -0.3289
vn -0.5136 -0.1360 0.8472
vn -0.8038 -0.4973 0.3265
vn -0.7899 -0.5354 0.2989
vn -0.7815 -0.5468 0.3004
vn 0.7454 -0.6211 0.2421
vn -0.1053 0.5612 -0.8210
vn -0.5938 -0.6761 0.4362
vn 0.7903 -0.3797 0.4809
vn -0.4876 -0.8538 0.1824
vn -0.4878 -0.8537 0.1821
vn -0.4877 -0.8538 0.1823
vn -0.4874 -0.8538 0.1827
vn -0.6154 -0.7817 0.1014
vn 0.4512 -0.4089 0.7932
vn 0.0155 -0.4077 0.9130
vn 0.6030 0.5333 0.5932
vn 0.3843 0.2043 0.9003
vn 0.7726 0.1981 0.6032
vn -0.7996 0.3559 0.4838
vn -0.6085 0.2446 0.7549
vn 0.3503 0.7537 0.5561
vn 0.4026 0.6316 0.6626
vn 0.5507 0.7794 0.2988
vn 0.9508 -0.2977 0.0856
vn -0.6169 0.0544 0.7852
vn -0.7972 -0.4983 0.3408
vn -0.7978 -0.4967 0.3418
vn -0.7957 -0.5022 0.3385
vn -0.4021 0.0674 0.9131
vn 0.9153 -0.3869 0.1121
vn 0.7740 0.3599 0.5209
vn 0.9713 0.1007 0.2156
vn -0.2812 0.0780 0.9565
vn 0.1179 0.4297 0.8952
vn 0.2709 0.3110 0.9110
vn 0.2928 0.5240 0.7998
vn 0.1169 0.3385 0.9337
vn 0.8613 0.0009 0.5080
vn 0.8187 0.3769 0.4333
vn 0.1029 0.4033 0.9093
vn -0.3868 0.1208 0.9142
vn -0.1429 0.5141 0.8457
vn -0.4268 0.2787 0.8603
vn -0.4014 0.0510 0.9145
vn -0.4288 0.2318 0.8731
vn -0.7272 -0.1303 0.6739
vn -0.8832 0.1690 0.4374
vn -0.9893 0.0039 -0.1456
vn -0.9907 0.1292 -0.0431
vn -0.3859 0.7243 -0.5714
vn -0.4644 0.2910 0.8364
vn -0.6188 0.7854 -0.0166
vn -0.7096 0.6066 -0.3584
vn -0.6320 0.4531 0.6287
vn -0.4202 -0.1581 0.8936
vn -0.3660 0.1269 0.9219
vn -0.1516 -0.3369 0.9293
vn -0.7813 -0.6202 -0.0702
vn 0.0643 -0.8682 -0.4920
vn -0.4700 -0.7865 0.4006
vn 0.5089 -0.7811 0.3618
vn -0.5645 0.0817 0.8214
vn -0.7309 -0.2110 0.6491
vn 0.7065 -0.7005 -0.1010
vn 0.5165 -0.8427 0.1523
vn 0.1904 -0.3737 -0.9078
vn 0.5420 -0.1040 -0.8339
vn 0.5542 -0.0336 -0.8317
vn 0.4095 -0.2101 -0.8878
vn 0.7129 -0.0186 -0.7010
vn 0.8165 -0.3380 0.4681
vn 0.8030 -0.2755 0.5285
vn 0.6827 -0.2706 -0.6787
vn -0.1915 0.1889 -0.9631
vn -0.1639 0.1598 -0.9735
vn 0.2550 0.4079 -0.8767
vn 0.9569 -0.1286 -0.2606
vn 0.8408 -0.2041 -0.5014
vn 0.3227 0.2166 -0.9214
vn 0.9707 0.1312 -0.2014
vn -0.1879 0.4772 -0.8585
vn 0.7498 0.1205 -0.6506
vn 0.2309 0.2424 -0.9423
vn 0.9947 0.0635 -0.0808
vn 0.9581 0.2859 -0.0176
vn 0.2677 -0.5400 -0.7980
vn 0.4075 -0.4165 -0.8127
vn 0.6005 0.6897 -0.4047
vn 0.8739 0.4110 -0.2596
vn 0.5984 0.6791 0.4252
vn 0.8953 -0.3786 0.2349
vn 0.7661 0.3208 -0.5569
vn 0.7206 0.0373 -0.6923
vn 0.8167 -0.0569 0.5742
vn 0.9715 -0.1182 0.2056
vn 0.7867 -0.3930 0.4760
vn 0.3557 -0.7110 0.6066
vn -0.5439 -0.8391 0.0023
vn 0.6063 -0.7772 -0.1684
vn 0.6050 -0.7771 -0.1736
vn 0.6058 -0.7773 -0.1699
vn 0.6048 -0.7769 -0.1750
vn 0.8795 -0.4269 -0.2104
vn 0.1159 -0.7461 0.6557
vn 0.6672 0.7383 0.0984
vn -0.1442 -0.2749 0.9506
vn -0.1225 -0.2087 0.9703
vn -0.1223 -0.2084 0.9704
vn -0.1223 -0.2087 0.9703
vn -0.0223 -0.2412 0.9702
vn -0.1318 -0.2139 0.9679
vn 0.5705 -0.5742 0.5872
vn 0.5722 -0.5735 0.5862
vn 0.5726 -0.5733 0.5861
vn -0.2335 0.2362 0.9432
vn 0.5746 0.6932 0.4351
vn 0.5685 -0.5751 0.5882
vn 0.6840 -0.7295 -0.0017
vn 0.7001 -0.7138 -0.0199
vn -0.3012 -0.8936 -0.3328
vn 0.0092 -0.9947 0.1021
vn -0.2543 -0.9634 0.0852
vn 0.1159 -0.5174 -0.8479
vn 0.3102 -0.6287 0.7131
vn -0.6428 -0.3968 -0.6552
vn -0.5950 -0.5517 -0.5844
vn 0.8927 -0.4506 0.0047
vn 0.6646 -0.2120 -0.7165
vn 0.6647 -0.5268 -0.5298
vn 0.6464 -0.5125 -0.5653
vn 0.1013 0.4409 -0.8918
vn 0.1007 0.4352 -0.8947
vn 0.1005 0.4337 -0.8954
vn 0.3443 0.3685 -0.8635
vn -0.3018 0.6010 -0.7401
vn 0.1014 0.4422 -0.8912
vn 0.2555 0.2261 -0.9400
vn 0.4031 0.1403 -0.9043
vn 0.5640 0.0022 -0.8258
vn -0.8658 -0.4075 -0.2905
vn -0.8952 -0.1304 -0.4262
vn -0.7573 -0.3927 -0.5219
vn -0.3073 -0.5921 -0.7450
vn -0.7192 0.5448 0.4312
vn -0.7269 0.5124 0.4572
vn -0.6993 0.3987 0.5934
vn 0.9138 0.2652 0.3075
vn 0.6851 0.7271 -0.0453
vn 0.9775 0.1124 0.1783
vn 0.9538 0.2542 -0.1601
vn 0.9758 0.1742 -0.1320
vn -0.4085 -0.6014 0.6866
vn 0.0489 -0.6201 0.7830
vn 0.0556 -0.8522 -0.5202
vn 0.6351 -0.4577 -0.6222
vn -0.5068 -0.8129 0.2870
vn 0.0026 -0.9569 0.2906
vn -0.8792 -0.1256 0.4596
vn -0.7620 0.6475 -0.0135
vn -0.3207 0.8350 0.4471
vn -0.7002 0.2263 0.6771
vn -0.5797 -0.1280 -0.8047
vn -0.2728 -0.9566 0.1020
vn -0.3373 -0.5178 -0.7862
vn -0.7662 -0.6404 0.0524
vn -0.2112 -0.0214 -0.9772
vn -0.7923 -0.6097 -0.0220
vn -0.7503 0.4824 -0.4520
vn 0.4147 0.5243 0.7437
vn -0.8056 0.5840 0.1001
vn -0.3672 -0.5470 0.7523
vn -0.7377 0.4028 -0.5418
vn -0.4690 0.8102 0.3517
vn -0.4459 -0.8537 0.2690
vn 0.8509 0.4620 -0.2501
vn -0.6945 0.6711 0.2594
vn -0.9092 -0.3185 -0.2681
vn -0.2736 0.2003 -0.9408
vn -0.6485 -0.6859 0.3302
vn -0.6900 0.7063 0.1582
vn -0.4989 -0.5457 0.6732
vn -0.6476 -0.7082 0.2812
vn 0.3420 -0.6040 0.7198
vn -0.5436 0.7536 0.3696
vn 0.4561 0.1166 -0.8822
vn -0.6144 0.7762 -0.1413
vn -0.5883 0.8015 0.1075
vn -0.9862 0.0425 -0.1598
vn -0.9870 0.0400 -0.1556
vn -0.9868 0.0393 -0.1570
vn -0.9862 0.0434 -0.1600
vn -0.0432 -0.3227 -0.9455
vn -0.0318 -0.3323 -0.9426
vn -0.6061 0.1129 0.7873
vn -0.6060 0.1124 0.7875
vn -0.8038 -0.5155 -0.2970
vn -0.0530 -0.3607 -0.9312
vn -0.8165 -0.5764 -0.0335
vn 0.9615 0.0471 -0.2707
vn 0.8206 -0.2973 -0.4881
vn 0.9895 -0.1259 0.0707
vn -0.7130 0.6485 -0.2666
vn -0.3113 0.8473 -0.4304
vn -0.8040 -0.5937 -0.0331
vn -0.6297 -0.7067 0.3227
vn -0.7045 -0.6204 -0.3445
vn -0.4867 -0.0718 -0.8706
vn -0.4787 -0.1127 -0.8707
vn -0.7910 -0.3409 -0.5081
vn 0.0359 0.6760 -0.7360
vn 0.0231 0.7447 -0.6669
vn 0.2381 0.4288 -0.8714
vn -0.1457 0.9565 0.2528
vn -0.7092 0.5393 0.4540
vn -0.2241 -0.3299 0.9170
vn 0.6651 0.0860 0.7418
vn -0.2111 -0.9534 -0.2155
vn 0.6123 -0.6139 -0.4982
vn 0.5991 0.4291 0.6760
vn -0.4184 -0.7523 -0.5089
vn 0.3735 -0.2071 -0.9042
vn -0.6855 -0.5200 -0.5095
vn -0.8411 -0.2516 -0.4788
vn -0.2533 -0.5908 -0.7660
vn 0.4807 -0.2169 -0.8496
vn 0.2604 -0.9520 -0.1610
vn 0.6653 0.6452 -0.3757
vn 0.0123 -0.7564 0.6540
vn 0.5092 -0.8588 -0.0568
vn 0.5050 -0.8600 -0.0734
vn -0.1668 -0.0909 0.9818
vn 0.3189 -0.5892 0.7424
vn 0.3169 -0.5847 0.7468
vn 0.3175 -0.5861 0.7455
vn -0.9491 0.0580 0.3097
vn -0.9458 0.0557 0.3199
vn -0.9465 0.0561 0.3179
vn -0.4447 -0.5400 -0.7146
vn -0.8634 0.3214 0.3889
vn -0.8676 0.1230 0.4818
vn -0.9895 0.1102 0.0935
vn -0.8061 -0.2371 -0.5422
vn -0.8058 -0.2365 -0.5429
vn -0.8046 -0.2344 -0.5456
vn -0.8042 -0.2344 -0.5462
vn -0.7304 -0.5340 0.4259
vn -0.1443 0.9208 -0.3623
vn -0.1511 0.8717 -0.4661
vn -0.3021 0.4634 -0.8331
vn -0.7165 0.1195 0.6873
vn -0.3389 0.2309 0.9120
vn -0.3535 0.2805 0.8924
vn -0.4369 0.3739 0.8181
vn -0.4137 0.4353 0.7996
vn -0.9152 0.1141 -0.3864
vn -0.3168 -0.0094 0.9485
vn -0.3445 -0.7439 0.5726
vn -0.5806 -0.5005 0.6422
vn -0.7951 -0.5037 0.3377
vn -0.4205 0.1921 0.8867
vn -0.0461 0.9924 0.1144
vn -0.6922 0.5389 -0.4801
vn 0.7778 -0.6253 -0.0636
vn 0.7509 -0.6546 0.0875
vn 0.8168 -0.4580 0.3508
vn -0.0459 -0.5163 0.8551
vn 0.2604 -0.0696 0.9630
vn 0.7962 -0.5234 0.3034
vn 0.7791 -0.5343 0.3281
vn -0.0520 0.6167 0.7855
vn -0.9479 0.2439 -0.2050
vn -0.0172 0.7234 0.6902
vn -0.7364 0.1857 0.6505
vn 0.5809 0.5394 0.6096
vn 0.8785 -0.3883 0.2783
vn -0.4889 -0.4168 0.7663
vn -0.4939 0.1256 0.8604
vn -0.4938 0.1255 0.8604
vn -0.7882 -0.0221 0.6150
vn -0.6902 -0.5540 -0.4655
vn -0.7476 -0.3451 -0.5675
vn -0.7263 -0.5923 -0.3489
vn 0.1509 -0.3952 -0.9061
vn 0.1266 -0.3924 -0.9110
vn 0.5300 -0.0574 -0.8461
vn 0.6652 -0.3849 0.6399
vn 0.9391 -0.1887 -0.2872
vn 0.7192 0.2957 -0.6287
vn 0.6680 0.1942 -0.7184
vn 0.5987 0.3823 -0.7039
vn -0.2661 0.4681 -0.8426
vn -0.7040 0.2110 -0.6781
vn -0.8899 0.0107 -0.4561
vn 0.5329 -0.0528 -0.8445
vn 0.4052 -0.0397 -0.9134
vn 0.6087 0.0278 -0.7929
vn -0.2452 -0.5996 -0.7618
vn 0.9675 -0.2376 -0.0860
vn 0.7460 -0.3825 -0.5451
vn 0.3015 -0.7302 -0.6132
vn 0.3441 -0.6176 -0.7072
vn 0.8891 -0.2060 -0.4087
vn 0.8725 -0.4827 -0.0762
vn 0.2325 -0.5768 -0.7831
vn 0.6074 -0.7727 -0.1845
vn -0.2462 -0.0991 -0.9641
vn -0.2207 0.5811 -0.7834
vn -0.3445 -0.3701 -0.8628
vn -0.8951 -0.3612 -0.2613
vn -0.8168 -0.1591 -0.5546
vn -0.8215 0.0641 -0.5665
vn -0.8842 0.0584 -0.4635
vn -0.4793 0.7706 -0.4201
vn -0.4794 0.7703 -0.4206
vn -0.4798 0.7699 -0.4208
vn -0.4747 0.7781 -0.4113
vn -0.5501 0.7324 -0.4012
vn -0.5845 0.6478 -0.4886
vn -0.8557 0.1214 -0.5030
vn -0.8625 -0.1187 -0.4920
vn -0.2950 -0.7813 0.5501
vn -0.2953 -0.7812 0.5500
vn -0.8370 -0.1628 -0.5225
vn -0.3855 -0.9096 -0.1550
vn -0.8993 0.3669 0.2380
vn -0.9992 0.0167 0.0353
vn -0.5677 0.4057 0.7163
vn -0.8297 -0.5122 0.2217
vn -0.5609 -0.0423 0.8268
vn -0.3029 0.4057 0.8623
vn 0.2261 0.9359 0.2701
vn 0.2595 0.5134 0.8179
vn 0.3341 0.5577 0.7599
vn -0.4994 0.4105 0.7629
vn -0.9272 -0.3731 -0.0319
vn -0.7732 0.3392 0.5358
vn -0.7733 0.3391 0.5357
vn -0.8853 0.4641 0.0280
vn -0.8993 0.0245 -0.4367
vn -0.7803 0.1481 -0.6077
vn -0.4166 -0.2973 -0.8591
vn 0.8594 0.4546 -0.2342
vn -0.2212 -0.8295 0.5128
vn 0.2598 -0.8258 -0.5006
vn -0.2686 -0.9392 -0.2139
vn -0.8563 -0.3942 -0.3338
vn -0.3469 -0.6635 -0.6628
vn -0.4988 0.7211 -0.4809
vn 0.1380 0.9894 0.0444
vn 0.1484 0.9067 0.3948
vn 0.3769 0.8635 0.3351
vn -0.6810 0.6517 0.3341
vn -0.6732 0.6786 0.2939
vn -0.7525 0.6232 -0.2130
vn -0.0799 0.5069 0.8583
vn 0.8872 0.1582 0.4333
vn -0.7210 0.6528 -0.2324
vn -0.2311 0.9072 0.3515
vn -0.2285 0.9063 -0.3557
vn -0.0619 0.9964 0.0579
vn -0.4594 0.7289 -0.5075
vn -0.9072 -0.4206 -0.0071
vn -0.1250 -0.8417 -0.5252
vn -0.0484 -0.6496 -0.7587
vn 0.0160 -0.7372 -0.6755
vn -0.8788 -0.4682 -0.0923
vn -0.7219 -0.3910 -0.5709
vn 0.3716 0.8408 0.3936
vn 0.6970 0.4625 0.5480
vn 0.6721 0.4562 0.5832
vn 0.9779 0.1264 0.1666
vn -0.2893 0.0457 0.9561
vn 0.3103 0.0408 0.9498
vn -0.8774 0.3667 0.3093
vn -0.7784 0.4628 0.4242
vn -0.7463 0.5614 0.3577
vn -0.0348 0.6928 0.7203
vn -0.0466 0.7494 0.6604
vn 0.1037 0.7863 0.6091
vn -0.5716 -0.7468 0.3399
vn -0.7240 -0.4276 0.5413
vn 0.7426 0.0624 -0.6669
vn 0.9939 0.1022 -0.0403
vn 0.9939 0.1022 -0.0404
vn 0.4992 -0.0899 -0.8618
vn -0.0817 -0.6735 -0.7347
vn -0.5924 -0.0613 -0.8033
vn -0.9930 0.0480 -0.1077
vn -0.8688 0.4493 0.2081
vn 0.0688 -0.4811 -0.8740
vn -0.9742 -0.2208 -0.0460
vn -0.9221 -0.2348 -0.3077
vn -0.2721 0.7765 -0.5683
vn -0.3581 0.6821 0.6376
vn -0.3686 0.9261 -0.0802
vn -0.6592 0.6943 -0.2888
vn -0.6724 0.6559 0.3431
vn -0.9498 0.0585 0.3074
vn 0.0159 0.3491 0.9370
vn -0.0204 0.3745 0.9270
vn -0.0145 0.4047 0.9143
vn 0.4611 0.6880 0.5604
vn 0.5268 0.6628 0.5322
vn 0.6793 0.0551 0.7318
vn 0.7198 -0.6687 0.1861
vn 0.9293 0.1503 0.3374
vn -0.6463 0.3169 0.6942
vn -0.8575 -0.3467 0.3802
vn 0.8886 0.1563 0.4312
vn 0.8678 0.1444 -0.4754
vn 0.6933 -0.1956 -0.6936
vn 0.6839 -0.2563 -0.6830
vn 0.7334 0.2666 -0.6253
vn 0.3489 0.5586 0.7525
vn 0.7895 0.3083 -0.5308
vn 0.9079 0.2478 -0.3381
vn 0.8863 0.2139 0.4108
vn 0.7068 0.1501 -0.6913
vn 0.9051 -0.3776 0.1955
vn 0.3289 0.5731 0.7506
vn 0.2957 0.7501 0.5915
vn 0.0724 0.6578 0.7497
vn 0.3099 0.7261 -0.6138
vn 0.6905 -0.0514 0.7215
vn 0.4042 0.5965 0.6934
vn 0.9360 -0.1700 -0.3083
vn 0.9512 -0.2547 0.1745
vn 0.9511 -0.2545 0.1748
vn 0.8904 0.0443 -0.4531
vn -0.5732 -0.0974 -0.8136
vn -0.5775 0.4367 -0.6898
vn 0.9263 -0.0145 -0.3765
vn 0.9569 -0.0837 -0.2782
vn 0.4881 0.4723 0.7339
vn 0.3531 0.5834 0.7314
vn 0.1071 -0.6936 0.7123
vn -0.3736 -0.3731 0.8492
vn -0.3740 -0.3731 0.8491
vn 0.1069 -0.8071 0.5806
vn 0.4004 -0.0636 0.9141
vn 0.7376 0.4735 0.4814
vn 0.4881 0.7373 0.4671
vn 0.8823 -0.0791 -0.4641
vn 0.7792 0.0133 0.6266
vn -0.1682 0.0707 0.9832
vn 0.7123 0.1166 0.6921
vn -0.4161 0.1272 0.9004
vn -0.3688 0.2531 0.8944
vn -0.9602 -0.0284 0.2778
vn -0.9598 -0.0116 0.2803
vn -0.4790 0.8404 -0.2536
vn -0.6823 -0.0816 -0.7265
vn -0.8762 0.3447 -0.3368
vn -0.9787 -0.0625 0.1957
vn 0.9080 0.2508 0.3357
vn -0.7389 -0.2596 0.6218
vn 0.8730 0.3467 0.3432
vn 0.9420 -0.2704 0.1986
vn 0.4010 0.2433 0.8832
vn 0.2224 -0.1934 0.9556
vn 0.5787 -0.7445 0.3330
vn 0.9448 0.2772 0.1749
vn 0.8998 0.3895 0.1964
vn 0.0586 -0.1609 0.9852
vn -0.4695 -0.4663 0.7498
vn 0.3286 -0.4969 0.8032
vn 0.3419 0.7853 0.5161
vn -0.3330 0.2210 0.9167
vn 0.6689 0.6701 -0.3217
vn 0.1698 -0.4668 0.8679
vn 0.0009 -0.5134 -0.8582
vn 0.8087 0.5662 0.1595
vn 0.0699 0.6549 0.7525
vn -0.4086 -0.9055 0.1145
vn -0.8435 -0.5009 0.1941
vn -0.1832 -0.8780 0.4423
vn 0.4628 -0.3254 0.8246
vn 0.8070 -0.0184 0.5902
vn 0.8724 0.2358 0.4281
vn 0.7622 0.3581 -0.5394
vn 0.9212 -0.3531 0.1635
vn 0.8533 0.0782 0.5156
vn 0.8439 0.0930 0.5283
vn -0.3135 0.6025 0.7340
vn -0.4209 -0.0140 0.9070
vn -0.9342 -0.1753 -0.3106
vn -0.8060 0.2149 0.5515
vn 0.5844 0.5888 0.5583
vn 0.8051 0.0872 -0.5868
vn 0.8352 0.0732 -0.5451
vn 0.8974 -0.1796 -0.4031
vn -0.5043 0.1840 0.8437
vn -0.5928 0.8036 0.0536
vn -0.6960 -0.6834 -0.2202
vn -0.1470 0.2552 0.9557
vn -0.2336 0.3552 0.9051
vn -0.3884 0.1299 0.9123
vn -0.2315 -0.6520 0.7220
vn -0.9449 -0.3119 0.0999
vn -0.9449 -0.3118 0.0997
vn -0.9449 -0.3118 0.0994
vn -0.6220 0.3046 0.7213
vn -0.6136 0.2131 0.7603
vn -0.8267 0.4244 0.3693
vn -0.7295 0.5386 -0.4216
vn -0.8883 0.3539 -0.2929
vn -0.7510 0.1937 0.6313
vn -0.9482 -0.2162 -0.2328
vn -0.4551 0.2005 -0.8676
vn -0.7129 -0.3025 0.6327
vn 0.4082 -0.0065 -0.9129
vn -0.6943 0.1940 0.6931
vn -0.8772 0.3533 0.3250
vn -0.1614 0.8398 -0.5183
vn -0.5625 0.8215 0.0939
vn -0.0528 0.9159 0.3979
vn -0.0840 0.9849 0.1514
vn -0.7687 0.5872 -0.2534
vn -0.3905 0.8476 0.3594
vn -0.7418 0.4903 -0.4575
vn 0.3717 0.9090 0.1883
vn 0.9786 -0.1583 0.1313
vn 0.0870 0.9826 -0.1638
vn -0.1987 0.8153 -0.5439
vn 0.6896 0.6535 0.3119
vn 0.6724 0.6175 0.4082
vn 0.6763 0.6145 0.4063
vn 0.6734 0.6168 0.4076
vn 0.2757 0.9416 0.1932
vn 0.9673 -0.0476 0.2493
vn 0.1522 0.6921 -0.7056
vn 0.3708 0.9055 0.2065
vn -0.3168 0.5321 -0.7852
vn 0.6773 0.6136 0.4058
vn 0.3570 0.9185 0.1700
vn 0.3573 0.9184 0.1700
vn 0.6771 0.4094 0.6115
vn -0.6377 0.6956 -0.3310
vn -0.1747 0.9707 0.1653
vn -0.1036 0.1521 0.9829
vn -0.3649 -0.0751 0.9280
vn -0.3648 -0.0751 0.9280
vn -0.3650 -0.0752 0.9280
vn -0.1928 -0.2890 0.9377
vn 0.3210 -0.5938 0.7378
vn 0.6683 0.3329 0.6653
vn 0.3612 0.6688 0.6498
vn 0.3480 0.0433 0.9365
vn 0.3581 -0.6579 -0.6625
vn 0.4755 -0.3950 -0.7860
vn 0.3148 -0.6367 -0.7039
vn -0.9366 -0.2456 0.2497
vn -0.7526 -0.3952 -0.5267
vn -0.4984 0.0025 0.8669
vn -0.6758 0.0517 -0.7353
vn -0.8203 0.1773 -0.5438
vn -0.5061 0.1228 -0.8537
vn -0.9291 -0.3531 0.1103
vn -0.3661 0.0346 0.9299
vn -0.4549 0.0320 0.8900
vn 0.7224 0.4799 0.4979
vn 0.9775 -0.0835 -0.1938
vn 0.0643 -0.8084 0.5851
vn 0.7460 -0.3245 0.5816
vn 0.2112 0.1768 0.9613
vn 0.9707 0.0992 -0.2188
vn 0.7786 -0.0460 -0.6259
vn 0.7852 -0.6087 0.1140
vn 0.5083 -0.2314 0.8295
vn 0.9005 0.3838 -0.2045
vn 0.9399 0.3379 0.0499
vn 0.8732 -0.4063 0.2693
vn 0.8381 -0.5450 -0.0242
vn 0.9046 0.3928 -0.1656
vn 0.7888 -0.4923 0.3680
vn -0.1503 -0.7067 0.6914
vn 0.5272 -0.1757 0.8314
vn 0.5272 -0.1745 0.8316
vn 0.5274 -0.1772 0.8309
vn 0.5644 -0.2488 0.7871
vn 0.9398 -0.0690 0.3346
vn -0.3437 0.0415 0.9382
vn -0.2724 -0.2373 0.9325
vn -0.9218 0.0310 0.3865
vn -0.8022 -0.5436 0.2469
vn -0.2822 -0.4366 0.8543
vn -0.2032 -0.2182 0.9545
vn -0.9638 0.2656 0.0220
vn -0.4519 0.7901 0.4142
vn -0.8275 0.5494 0.1159
vn -0.5168 -0.3237 0.7925
vn -0.8975 0.0631 0.4366
vn -0.0742 -0.1736 0.9820
vn 0.5286 -0.1873 0.8280
vn 0.8058 0.5342 0.2555
vn 0.7888 0.4637 0.4035
vn 0.6369 -0.4907 0.5946
vn 0.2403 -0.1480 0.9593
vn -0.4696 0.2032 0.8592
vn 0.6160 -0.2716 0.7394
vn 0.9579 -0.1614 -0.2373
vn -0.1080 0.3325 0.9369
vn -0.0187 0.4386 0.8985
vn -0.5983 0.0312 0.8007
vn -0.4945 0.1276 0.8597
vn 0.1118 -0.3356 -0.9353
vn 0.1080 -0.3529 -0.9294
vn 0.7424 0.2680 -0.6140
vn 0.7329 0.1106 -0.6713
vn 0.8738 -0.2132 0.4371
vn 0.5204 -0.8271 0.2126
vn 0.7372 -0.0476 0.6740
vn 0.0104 -0.2133 -0.9769
vn -0.9352 -0.3327 0.1211
vn -0.3027 0.2341 0.9239
vn -0.4382 -0.8149 -0.3793
vn -0.1940 0.1324 -0.9720
vn -0.4810 0.8709 0.1011
vn -0.4874 0.3472 0.8012
vn 0.5581 -0.6483 -0.5179
vn -0.6458 0.4493 0.6173
vn -0.8888 0.4118 0.2012
vn -0.4982 0.7443 -0.4448
vn -0.5700 0.2471 0.7836
vn -0.5701 0.2493 0.7828
vn -0.5699 0.2464 0.7839
vn -0.5702 0.2500 0.7826
vn 0.4069 -0.1326 0.9038
vn -0.6935 0.4894 0.5288
vn -0.6927 0.4891 0.5300
vn -0.6933 0.4893 0.5292
vn -0.6925 0.4890 0.5304
vn -0.7512 0.5368 -0.3841
vn -0.6248 0.6131 -0.4834
vn -0.7468 0.4686 -0.4719
vn -0.5913 0.2245 0.7746
vn -0.7136 0.3778 0.5900
vn 0.0225 -0.7187 0.6950
vn 0.1015 -0.3326 0.9376
vn -0.3829 -0.0966 0.9187
vn -0.8153 0.4041 0.4147
vn -0.5508 0.0948 0.8292
vn -0.0791 -0.2541 0.9639
vn -0.3968 0.5504 0.7346
vn -0.3241 -0.1667 0.9312
vn -0.3697 -0.1217 0.9212
vn -0.3647 -0.0750 0.9281
vn 0.5183 -0.7678 0.3766
vn 0.1644 0.7577 0.6316
vn 0.6173 -0.6783 0.3986
vn 0.7914 -0.1379 0.5955
vn 0.6284 0.7616 0.1582
vn 0.6106 0.5998 0.5172
vn 0.0760 0.4147 0.9068
vn -0.6052 0.4800 0.6351
vn 0.6087 0.7699 0.1917
vn 0.4726 -0.8214 0.3194
vn 0.3111 -0.3318 0.8906
vn -0.2352 -0.4576 0.8575
vn 0.9200 -0.2687 -0.2855
vn -0.5909 0.4420 -0.6748
vn 0.9155 -0.3177 -0.2468
vn -0.8039 0.5928 0.0484
vn -0.8040 0.5927 0.0487
vn -0.1430 -0.5647 0.8128
vn 0.0764 0.1433 0.9867
vn 0.7540 0.1994 -0.6259
vn 0.7944 0.2096 0.5701
vn 0.8105 0.1502 0.5662
vn -0.2534 0.7341 0.6300
vn 0.3210 0.8274 0.4609
vn -0.0552 0.9817 -0.1824
vn 0.3983 0.7584 0.5160
vn 0.8641 0.4707 0.1785
vn 0.9435 0.2914 0.1578
vn -0.7309 -0.2849 -0.6202
vn 0.9707 -0.2246 0.0852
vn 0.5644 -0.4542 -0.6893
vn 0.8316 -0.5464 -0.0991
vn 0.9019 0.3858 -0.1942
vn 0.3564 0.1697 -0.9188
vn 0.1890 0.2621 -0.9464
vn 0.7367 0.6393 0.2203
vn 0.7399 0.6316 -0.2316
vn 0.7074 0.0997 -0.6997
vn 0.2036 -0.3128 -0.9278
vn 0.9975 -0.0615 0.0354
vn 0.7242 -0.0768 -0.6853
vn 0.0423 -0.2704 -0.9618
vn 0.9271 -0.0134 -0.3747
vn 0.7278 0.3065 0.6134
vn 0.3141 -0.8002 -0.5109
vn 0.9681 -0.0569 0.2438
vn 0.9942 0.0565 0.0911
vn 0.8739 0.3380 0.3493
vn 0.5354 0.6446 0.5457
vn 0.8345 0.4637 0.2978
vn 0.5482 0.5647 0.6169
vn 0.6732 -0.2155 -0.7074
vn 0.6648 -0.2870 -0.6897
vn 0.4858 -0.8131 0.3206
vn 0.4949 -0.7510 0.4371
vn 0.4570 -0.8181 0.3492
vn -0.3919 -0.4632 0.7949
vn 0.0121 -0.1819 0.9832
vn -0.8045 0.4200 0.4199
vn 0.7188 -0.4346 -0.5426
vn 0.7041 -0.2254 -0.6734
vn 0.7566 0.0363 -0.6528
vn 0.7632 0.0855 -0.6405
vn 0.6066 0.7435 0.2816
vn 0.7116 0.6217 0.3273
vn -0.2870 0.3586 0.8883
vn -0.8716 -0.0110 0.4900
vn -0.5246 0.1239 0.8423
vn -0.4951 0.1296 0.8591
vn -0.6238 0.0235 0.7812
vn -0.6371 0.0017 0.7708
vn -0.6322 -0.0078 0.7748
vn -0.6370 0.0014 0.7709
vn -0.7881 -0.2047 -0.5805
vn -0.8998 -0.0483 -0.4336
vn -0.7876 -0.2921 -0.5426
vn 0.5658 -0.0701 -0.8215
vn 0.5657 -0.0731 -0.8214
vn 0.5657 -0.0729 -0.8214
vn 0.5658 -0.0699 -0.8216
vn -0.2784 0.6449 -0.7118
vn 0.6131 -0.1598 -0.7737
vn 0.0768 -0.7648 -0.6396
vn -0.9089 0.3454 -0.2335
vn -0.0103 -0.8607 -0.5090
vn -0.7542 -0.5271 0.3916
vn 0.0699 0.3574 0.9313
vn -0.1051 0.6174 0.7796
vn 0.3988 -0.1268 -0.9082
vn -0.0755 -0.7459 -0.6618
vn 0.9957 0.0070 -0.0927
vn 0.9936 -0.1082 -0.0309
vn 0.8749 0.1081 0.4720
vn 0.5677 -0.6621 0.4891
vn 0.8560 0.4464 -0.2607
vn 0.7628 -0.6163 0.1959
vn 0.8464 -0.3355 0.4136
vn -0.6124 -0.2019 -0.7643
vn -0.9834 -0.1639 0.0783
vn -0.0121 -0.1794 -0.9837
vn -0.6320 -0.0081 0.7749
vn -0.3533 -0.9017 -0.2492
vn -0.3620 -0.8643 -0.3492
vn -0.2745 -0.9072 -0.3189
vn -0.8658 -0.4977 -0.0529
vn 0.2601 -0.2444 -0.9341
vn -0.5501 -0.2297 0.8029
vn 0.3216 -0.4656 -0.8245
vn -0.5088 -0.8158 -0.2749
vn -0.6797 -0.7061 0.1985
vn -0.6639 -0.4074 0.6271
vn -0.5128 -0.8315 -0.2138
vn 0.7044 0.6160 0.3525
vn -0.3244 0.4479 -0.8332
vn 0.4503 -0.0338 -0.8922
vn -0.8278 0.4971 -0.2602
s 1
usemtl Templar_GoldAquila
f 25//34 86//34 26//34
f 86//35 25//35 23//35
f 87//36 23//36 27//36
f 39//60 38//60 37//60
f 37//62 21//62 40//62
f 37//63 40//63 41//63
f 44//64 43//64 37//64
f 41//65 45//65 37//65
f 45//66 44//66 37//66
f 47//67 146//67 45//67
f 47//68 45//68 41//68
f 47//69 41//70 46//69
f 47//71 46//71 49//71
f 49//72 46//72 48//72
f 39//73 46//73 41//73
f 47//74 49//74 50//74
f 147//75 47//75 50//75
f 49//76 48//76 51//76
f 51//77 48//77 41//77
f 48//78 39//78 41//78
f 41//79 52//79 51//79
f 47//80 147//80 146//80
f 95//81 51//81 52//81
f 57//83 54//83 58//83
f 59//84 58//84 54//84
f 58//85 66//85 57//85
f 63//86 57//86 66//86
f 58//87 61//87 66//87
f 66//88 62//88 63//88
f 64//89 62//89 65//89
f 62//90 66//90 65//90
f 61//91 58//91 59//91
f 67//92 61//92 59//92
f 60//93 59//93 54//93
f 60//94 54//94 55//94
f 68//95 60//95 55//95
f 69//96 59//96 60//96
f 60//97 68//97 69//97
f 68//98 55//98 56//98
f 56//99 70//99 68//99
f 70//100 56//100 53//100
f 86//130 23//130 87//130
f 40//131 95//131 52//131
f 95//132 40//132 26//132
f 26//133 86//133 95//133
f 40//134 52//134 41//134
f 27//126 85//125 87//135
f 88//136 85//136 82//136
f 89//137 85//137 90//137
f 90//138 85//138 88//138
f 85//139 89//139 87//139
f 90//140 88//141 91//142
f 93//143 89//143 90//143
f 87//144 89//144 92//144
f 92//145 89//145 93//145
f 82//146 91//142 88//141
f 82//149 76//149 77//149
f 77//150 91//150 82//150
f 94//151 92//151 93//151
f 92//152 94//152 96//152
f 92//153 86//153 87//153
f 95//154 86//154 92//154
f 92//155 96//155 95//155
f 95//156 96//156 51//156
f 99//157 70//157 53//157
f 99//158 53//159 98//159
f 70//160 99//160 100//160
f 59//161 69//161 101//161
f 59//162 101//162 67//162
f 103//163 67//163 101//163
f 70//164 100//164 68//164
f 68//165 102//165 69//165
f 100//166 102//166 68//166
f 69//167 102//167 101//167
f 101//168 102//168 100//168
f 100//169 104//169 101//169
f 100//170 99//170 104//170
f 101//171 105//171 103//171
f 106//172 103//172 105//172
f 67//173 103//173 61//173
f 103//174 107//174 61//174
f 61//175 107//175 66//175
f 108//176 107//176 103//176
f 107//177 108//177 66//177
f 108//178 103//178 106//178
f 109//179 66//179 108//179
f 130//180 62//180 64//180
f 110//181 64//181 111//181
f 65//182 66//182 109//182
f 112//183 108//183 106//183
f 106//184 105//185 117//185
f 104//186 99//186 98//186
f 113//187 104//187 98//187
f 113//188 98//188 97//188
f 130//189 64//189 110//189
f 64//190 65//190 109//190
f 108//191 114//191 109//191
f 64//192 109//192 111//192
f 109//193 114//193 111//193
f 115//194 108//194 112//194
f 112//195 116//195 115//195
f 112//196 106//197 117//198
f 105//199 118//199 117//199
f 118//200 105//200 101//200
f 118//201 101//201 104//201
f 119//202 104//202 113//202
f 104//203 119//203 121//203
f 104//204 121//204 118//204
f 113//205 120//205 119//205
f 113//206 97//206 122//206
f 113//207 122//207 120//207
f 123//208 121//208 119//208
f 123//209 124//209 136//209
f 123//210 136//210 121//210
f 125//211 120//211 122//211
f 126//212 125//212 122//212
f 128//213 126//213 127//213
f 127//214 126//214 129//214
f 131//215 108//215 132//215
f 132//216 108//216 115//216
f 108//217 131//217 114//217
f 133//218 114//218 127//218
f 128//219 127//219 114//219
f 134//220 112//196 117//198
f 135//221 117//221 118//221
f 118//222 136//222 135//222
f 136//223 118//223 121//223
f 135//224 136//224 134//224
f 136//225 131//225 134//225
f 134//226 117//226 135//226
f 112//227 134//227 116//227
f 134//228 131//228 163//228
f 137//229 131//229 136//229
f 138//230 119//230 139//230
f 119//231 138//231 123//231
f 119//232 120//232 139//232
f 139//233 120//233 125//233
f 129//234 126//234 151//234
f 114//235 133//235 111//235
f 127//236 129//236 133//236
f 111//237 133//237 140//237
f 111//238 140//238 110//238
f 151//239 142//239 129//239
f 143//240 142//240 151//240
f 140//241 133//241 145//241
f 144//242 110//242 140//242
f 145//243 144//243 140//243
f 133//244 129//244 142//244
f 144//245 141//245 110//245
f 146//246 144//246 145//246
f 269//247 146//247 145//247
f 144//248 146//248 141//248
f 50//249 148//249 147//249
f 147//250 148//250 150//250
f 149//251 141//251 147//251
f 149//252 147//252 150//252
f 142//253 143//253 153//253
f 145//254 133//254 142//254
f 155//255 143//255 151//255
f 151//256 152//256 155//256
f 143//257 154//257 153//257
f 278//258 153//258 154//258
f 157//259 154//259 155//259
f 155//260 154//260 143//260
f 157//261 155//261 152//261
f 152//262 156//262 300//262
f 158//263 300//263 156//263
f 160//264 96//264 94//264
f 160//265 94//265 93//265
f 160//266 49//266 96//266
f 49//267 51//267 96//267
f 49//268 160//268 50//268
f 148//269 50//269 160//269
f 132//270 115//270 180//270
f 180//271 115//271 116//271
f 171//272 116//272 134//272
f 163//273 164//273 134//273
f 163//274 136//274 167//274
f 163//275 167//275 164//275
f 165//276 166//276 164//276
f 165//277 164//277 167//277
f 183//278 136//278 124//278
f 124//279 123//279 138//279
f 169//280 124//280 138//280
f 139//281 168//282 138//283
f 128//284 170//284 126//284
f 173//285 126//285 170//285
f 128//286 114//286 131//286
f 180//287 116//287 171//287
f 171//288 134//288 164//288
f 171//289 164//289 166//289
f 166//290 172//290 174//290
f 166//291 173//291 171//291
f 172//292 166//292 176//292
f 176//293 166//293 165//293
f 165//294 175//294 176//294
f 176//295 175//295 177//295
f 176//296 178//296 172//296
f 174//297 196//297 166//297
f 166//298 196//298 173//298
f 173//299 179//299 171//299
f 131//300 132//300 179//300
f 171//301 179//301 180//301
f 180//302 179//302 132//302
f 131//303 137//303 128//303
f 137//304 136//304 163//304
f 170//305 128//305 137//305
f 170//306 137//306 163//306
f 131//307 170//307 163//307
f 170//308 131//308 179//308
f 126//309 173//309 125//309
f 125//310 182//310 139//310
f 139//311 182//311 168//311
f 138//283 168//282 169//312
f 168//313 181//313 169//313
f 181//314 168//314 182//314
f 185//315 124//315 169//315
f 167//316 136//316 183//316
f 167//317 183//317 184//317
f 167//318 184//318 165//318
f 124//319 184//319 183//319
f 124//320 185//320 184//320
f 185//321 189//321 184//321
f 184//322 175//322 165//322
f 175//323 188//323 177//323
f 177//324 178//324 176//324
f 178//325 177//325 186//325
f 186//326 177//326 207//326
f 188//327 186//327 187//327
f 188//328 190//328 186//328
f 191//329 178//329 186//329
f 191//330 186//330 190//330
f 190//331 188//331 189//331
f 189//332 188//332 175//332
f 189//333 175//333 184//333
f 192//334 190//334 189//334
f 193//335 190//335 192//335
f 193//336 192//336 194//336
f 169//337 189//337 185//337
f 195//338 181//338 182//338
f 125//339 173//339 182//339
f 182//340 173//340 196//340
f 174//341 197//341 196//341
f 197//342 174//342 198//342
f 197//343 200//343 196//343
f 182//344 196//344 195//344
f 195//345 194//345 181//345
f 181//346 194//346 192//346
f 181//347 192//347 169//347
f 200//348 195//348 196//348
f 200//349 197//349 201//349
f 172//350 198//350 174//350
f 201//351 197//351 202//351
f 203//352 198//352 172//352
f 203//353 172//353 178//353
f 203//354 178//354 191//354
f 204//355 191//355 190//355
f 187//356 193//356 194//356
f 187//357 194//358 206//359
f 194//358 195//360 206//359
f 206//361 195//361 202//361
f 202//362 195//362 199//362
f 199//363 195//363 200//363
f 205//364 202//364 197//364
f 199//365 201//365 202//365
f 177//366 199//366 200//366
f 177//367 200//367 201//367
f 177//368 188//368 199//368
f 199//369 188//369 206//369
f 199//370 206//370 201//370
f 206//371 188//371 187//371
f 187//372 186//372 207//372
f 177//373 201//373 207//373
f 207//374 201//374 206//374
f 207//375 209//375 187//375
f 187//376 209//376 193//376
f 209//377 207//377 208//377
f 193//378 209//378 238//378
f 190//379 193//379 238//379
f 211//380 209//380 208//380
f 202//381 210//381 206//381
f 207//382 206//382 208//382
f 205//383 197//383 198//383
f 205//384 210//384 202//384
f 206//385 210//385 208//385
f 191//386 213//386 203//386
f 212//387 203//387 213//387
f 203//388 212//388 198//388
f 212//389 215//389 214//389
f 198//390 217//390 205//390
f 218//391 217//391 198//391
f 198//392 212//392 218//392
f 219//393 212//394 214//393
f 220//395 214//395 216//395
f 212//396 219//396 221//396
f 218//397 212//397 221//397
f 219//398 216//399 221//400
f 218//401 205//401 217//401
f 220//402 216//402 219//402
f 214//403 220//403 222//403
f 214//404 222//404 219//404
f 223//405 222//405 220//405
f 220//406 224//406 223//406
f 224//407 220//407 237//407
f 223//408 224//408 225//408
f 228//409 226//409 222//409
f 228//410 222//410 223//410
f 228//411 227//411 226//411
f 229//412 228//412 223//412
f 229//413 245//413 228//413
f 227//414 230//414 226//414
f 231//415 230//415 227//415
f 227//416 232//416 231//416
f 232//417 233//417 234//417
f 232//418 234//418 231//418
f 233//419 232//419 235//419
f 245//420 232//420 227//420
f 245//421 227//421 228//421
f 232//422 245//422 235//422
f 235//423 236//423 243//423
f 243//424 215//424 235//424
f 235//425 215//425 233//425
f 233//426 213//426 234//426
f 204//427 190//427 238//427
f 204//428 238//428 237//428
f 237//429 226//429 204//429
f 239//430 240//430 238//430
f 209//431 239//431 238//431
f 241//432 239//432 209//432
f 211//433 208//433 242//433
f 242//434 208//434 210//434
f 218//435 210//435 205//435
f 210//436 218//436 242//436
f 218//437 221//437 240//437
f 216//438 214//438 279//438
f 215//439 212//439 213//439
f 213//440 233//440 215//440
f 235//441 245//441 244//441
f 372//442 245//442 229//442
f 229//443 223//443 246//443
f 373//444 246//444 248//444
f 248//445 246//445 247//445
f 376//446 247//446 223//446
f 223//447 247//447 246//447
f 225//448 224//448 250//448
f 376//449 223//449 225//449
f 251//450 249//451 250//452
f 252//453 224//453 237//453
f 220//454 219//454 237//454
f 219//455 222//455 226//455
f 237//456 219//456 226//456
f 252//457 237//457 238//457
f 286//458 241//458 211//458
f 211//459 241//459 209//459
f 218//460 240//460 239//460
f 253//461 218//461 282//461
f 282//462 218//462 239//462
f 282//463 239//463 241//463
f 282//464 241//464 283//464
f 283//465 241//465 286//465
f 286//466 211//466 288//466
f 260//490 39//490 48//490
f 260//491 48//491 46//491
f 46//492 39//493 37//493
f 46//494 37//494 43//494
f 42//495 46//495 43//495
f 43//497 44//497 266//497
f 43//498 266//498 265//498
f 43//499 265//499 42//499
f 45//500 267//500 44//500
f 267//501 45//501 268//501
f 44//502 267//502 266//502
f 268//503 45//503 146//503
f 146//504 147//504 141//504
f 268//505 146//505 269//505
f 142//506 270//506 145//506
f 271//507 268//507 269//507
f 268//508 271//508 267//508
f 272//509 267//509 271//509
f 269//510 145//510 274//510
f 269//511 274//511 273//511
f 269//512 342//512 271//512
f 271//513 342//513 336//513
f 271//514 336//514 272//514
f 342//515 269//515 273//515
f 274//516 145//516 270//516
f 142//517 153//517 276//517
f 142//518 276//518 270//518
f 275//519 270//519 276//519
f 215//520 276//520 153//520
f 153//521 278//521 277//521
f 279//522 278//522 293//522
f 293//523 278//523 157//523
f 157//524 278//524 154//524
f 278//525 279//526 277//527
f 277//528 215//528 153//528
f 280//529 279//529 293//529
f 293//530 281//530 280//530
f 214//531 277//527 279//526
f 277//532 214//532 215//532
f 279//533 280//533 216//533
f 282//534 240//534 221//534
f 240//535 282//535 238//535
f 238//536 282//536 252//536
f 283//537 252//537 282//537
f 252//538 283//538 250//538
f 252//539 250//539 224//539
f 250//540 287//540 251//540
f 287//541 284//541 251//541
f 287//542 285//542 284//542
f 287//543 250//543 283//543
f 283//544 286//544 287//544
f 287//545 286//545 285//545
f 288//546 211//546 242//546
f 221//400 216//399 280//547
f 221//548 280//548 253//548
f 221//549 253//549 282//549
f 253//550 288//550 218//550
f 288//551 242//551 218//551
f 253//552 280//552 289//552
f 289//553 290//553 253//553
f 253//554 290//554 285//554
f 253//555 285//555 288//555
f 285//556 286//556 288//556
f 290//557 292//557 285//557
f 285//558 292//558 291//558
f 289//559 280//559 281//559
f 293//560 157//561 294//562
f 294//562 157//561 300//563
f 300//564 295//564 294//564
f 294//565 295//565 296//565
f 290//566 289//566 281//566
f 298//567 290//567 281//567
f 290//568 298//568 292//568
f 294//569 296//569 297//569
f 298//570 294//570 297//570
f 294//571 298//571 281//571
f 294//572 281//572 293//572
f 298//573 299//573 292//573
f 298//574 297//574 299//574
f 297//575 296//575 302//575
f 301//576 302//577 296//578
f 301//579 296//579 295//579
f 301//580 295//580 303//580
f 158//581 303//581 295//581
f 266//605 317//605 265//606
f 265//607 331//607 42//607
f 316//608 265//608 317//608
f 266//609 267//609 336//609
f 267//610 272//610 336//610
f 319//618 318//618 329//618
f 319//632 354//632 328//632
f 330//633 329//633 332//633
f 331//634 329//634 318//634
f 331//635 318//635 42//635
f 331//636 265//636 316//636
f 317//637 333//637 316//637
f 333//638 317//638 334//638
f 316//639 333//639 331//639
f 338//640 317//640 266//640
f 266//641 336//641 338//641
f 338//642 334//642 317//642
f 339//643 338//643 336//643
f 339//644 337//645 338//645
f 338//646 337//646 334//646
f 333//647 334//647 341//647
f 333//648 341//648 332//648
f 332//649 331//649 333//649
f 341//650 334//650 335//650
f 335//651 334//651 337//651
f 339//652 343//652 337//652
f 342//653 339//653 336//653
f 337//654 343//654 340//654
f 342//655 273//655 339//655
f 273//656 343//656 339//656
f 340//657 343//657 344//657
f 343//658 273//658 274//658
f 344//659 345//659 340//659
f 345//660 344//660 346//660
f 345//661 347//661 340//661
f 335//662 337//662 340//662
f 335//663 340//663 347//663
f 344//664 343//664 274//664
f 344//665 348//665 346//665
f 275//666 348//666 270//666
f 270//667 348//667 344//667
f 344//668 274//668 270//668
f 170//670 179//670 173//670
f 189//671 169//671 192//671
f 392//684 328//684 354//684
f 354//685 319//685 329//685
f 354//686 329//686 330//686
f 331//687 332//687 329//687
f 347//688 341//688 335//688
f 355//689 346//689 348//689
f 355//690 348//691 275//692
f 346//693 355//693 357//693
f 356//694 341//694 347//694
f 330//695 332//695 341//695
f 341//696 356//696 330//696
f 346//697 347//697 345//697
f 346//698 358//698 359//698
f 346//699 359//699 347//699
f 359//700 356//700 347//700
f 359//701 360//701 356//701
f 356//702 360//702 330//702
f 330//703 360//703 354//703
f 358//704 346//704 357//704
f 469//705 360//705 359//705
f 360//706 469//706 362//706
f 358//707 469//707 359//707
f 363//708 357//708 355//708
f 474//709 275//709 276//709
f 215//710 243//710 276//710
f 364//711 235//711 244//711
f 244//712 245//712 365//712
f 365//713 367//713 244//713
f 236//714 235//714 364//714
f 364//715 244//715 366//715
f 367//716 366//716 244//716
f 367//717 369//717 366//717
f 479//718 369//718 367//718
f 370//719 479//719 367//719
f 370//720 367//720 365//720
f 370//721 365//721 371//721
f 365//722 245//722 368//722
f 368//723 245//723 372//723
f 368//724 371//724 365//724
f 229//725 374//725 372//725
f 374//726 229//726 373//726
f 373//727 229//727 246//727
f 368//728 372//728 371//728
f 375//729 372//729 374//729
f 250//730 376//730 225//730
f 249//731 251//731 612//731
f 251//732 486//732 612//732
f 291//733 284//733 285//733
f 284//734 291//734 377//734
f 284//735 377//735 251//735
f 486//736 251//736 377//736
f 378//737 377//737 291//737
f 378//738 291//738 292//738
f 378//739 292//739 299//739
f 299//740 379//740 378//740
f 378//741 379//741 487//741
f 297//742 381//742 299//742
f 379//743 299//743 381//743
f 385//744 301//744 303//744
f 302//577 301//576 380//745
f 302//746 381//746 297//746
f 380//747 301//747 382//747
f 302//748 380//748 383//748
f 302//749 383//749 381//749
f 662//750 383//750 380//750
f 662//751 380//751 468//751
f 380//752 382//752 384//752
f 382//753 386//753 384//753
f 384//754 386//754 362//754
f 386//755 385//755 395//755
f 385//756 386//756 382//756
f 382//757 301//757 385//757
f 361//771 396//772 392//773
f 360//774 392//774 354//774
f 360//775 361//771 392//773
f 386//776 396//777 361//778
f 362//779 361//779 360//779
f 386//780 361//780 362//780
f 386//776 394//781 396//777
f 394//782 386//782 395//782
f 395//783 410//783 394//783
f 394//784 410//784 397//784
f 396//785 394//785 398//785
f 398//786 394//786 402//786
f 402//787 394//787 399//787
f 394//788 400//788 399//788
f 398//789 402//789 401//789
f 400//790 394//790 397//790
f 303//791 395//791 385//791
f 395//792 303//792 403//792
f 404//793 395//793 403//793
f 403//794 406//794 404//794
f 405//795 404//796 406//797
f 407//798 405//798 406//798
f 407//799 417//799 408//799
f 405//795 409//800 404//796
f 157//818 152//818 300//818
f 295//819 300//819 158//819
f 230//820 191//820 204//820
f 230//821 204//821 226//821
f 191//822 230//822 231//822
f 191//823 231//823 213//823
f 234//824 213//824 231//824
f 441//862 443//862 500//862
f 443//868 452//868 500//868
f 451//869 500//869 452//869
f 452//870 443//870 450//870
f 450//871 443//871 453//871
f 453//872 443//872 442//872
f 454//873 452//873 450//873
f 460//874 453//874 442//874
f 396//896 398//897 464//898
f 465//899 398//900 401//901
f 402//902 466//902 401//902
f 465//903 464//903 398//903
f 467//904 466//904 402//904
f 467//905 402//905 400//905
f 397//906 489//907 400//908
f 400//908 489//907 467//909
f 467//910 468//910 466//910
f 387//911 466//911 468//911
f 466//912 387//912 401//912
f 387//913 384//913 362//913
f 470//914 362//914 469//914
f 469//915 358//915 471//915
f 357//916 473//916 472//916
f 357//917 472//917 358//917
f 358//918 472//918 471//918
f 567//919 472//919 473//919
f 473//920 357//920 363//920
f 363//921 474//921 565//921
f 474//922 363//922 355//922
f 355//690 275//692 474//923
f 243//924 474//924 276//924
f 572//925 243//925 236//925
f 475//926 236//926 364//926
f 372//927 375//927 371//927
f 477//928 375//928 374//928
f 370//929 371//929 375//929
f 476//930 477//930 374//930
f 370//931 480//931 479//931
f 375//932 477//932 480//932
f 375//933 480//933 370//933
f 369//934 479//934 480//934
f 570//935 366//935 369//935
f 570//936 369//936 480//936
f 480//937 481//937 570//937
f 482//938 481//938 480//938
f 480//939 477//939 482//939
f 602//940 481//940 482//940
f 476//941 374//941 373//942
f 483//943 373//943 248//943
f 247//944 376//944 484//944
f 248//945 484//945 483//945
f 247//946 484//946 248//946
f 485//947 376//947 249//947
f 249//451 376//948 250//452
f 612//949 485//949 249//949
f 487//950 486//950 377//950
f 487//951 377//951 378//951
f 488//952 379//952 381//952
f 488//953 381//953 667//953
f 667//954 381//954 662//954
f 380//955 384//955 387//955
f 387//956 468//956 380//956
f 489//957 468//957 467//957
f 489//958 397//958 492//958
f 490//959 489//959 492//959
f 490//960 492//960 491//960
f 546//962 490//962 491//962
f 546//963 491//963 588//963
f 491//964 493//964 588//964
f 500//1038 554//1038 447//1038
f 452//1044 519//1044 451//1044
f 519//1045 452//1045 454//1045
f 526//1046 453//1046 460//1046
f 526//1047 460//1048 535//1048
f 453//1049 526//1049 450//1049
f 450//1050 526//1050 454//1050
f 520//1051 454//1051 521//1051
f 521//1052 522//1052 520//1052
f 520//1053 522//1053 523//1053
f 524//1054 521//1054 454//1054
f 454//1055 525//1055 524//1055
f 470//1056 525//1056 454//1056
f 470//1057 454//1057 526//1057
f 362//1058 470//1058 401//1058
f 362//1059 401//1059 387//1059
f 470//1060 526//1060 527//1060
f 401//1061 470//1061 527//1061
f 401//901 527//1062 465//899
f 528//1063 529//1063 527//1063
f 527//1064 529//1064 465//1064
f 464//1065 465//1065 529//1065
f 528//1066 527//1066 530//1066
f 530//1067 527//1067 526//1067
f 528//1068 532//1068 529//1068
f 528//1069 531//1069 532//1069
f 630//1070 529//1070 532//1070
f 531//1071 533//1071 532//1071
f 533//1072 531//1072 545//1072
f 534//1073 528//1073 530//1073
f 537//1074 526//1074 535//1074
f 557//1075 535//1075 460//1075
f 538//1078 537//1078 535//1078
f 526//1079 537//1079 530//1079
f 539//1080 530//1080 537//1080
f 530//1081 541//1081 534//1081
f 534//1082 543//1082 528//1082
f 528//1083 543//1083 531//1083
f 541//1084 548//1084 542//1084
f 541//1085 542//1085 534//1085
f 534//1086 542//1086 533//1086
f 543//1087 534//1087 544//1087
f 531//1088 543//1088 545//1088
f 545//1089 543//1089 544//1089
f 544//1090 662//1090 545//1090
f 546//1091 545//1091 662//1092
f 662//1093 544//1093 663//1093
f 544//1094 547//1094 664//1094
f 533//1095 544//1095 534//1095
f 530//1096 539//1096 541//1096
f 548//1097 541//1097 539//1097
f 593//1098 539//1098 595//1098
f 595//1099 539//1099 540//1099
f 540//1100 550//1100 549//1100
f 553//1101 550//1102 551//1101
f 551//1103 550//1103 540//1103
f 552//1104 540//1104 539//1104
f 552//1105 539//1105 537//1105
f 552//1106 537//1106 538//1106
f 538//1107 556//1107 552//1107
f 552//1108 551//1108 540//1108
f 553//1109 551//1109 555//1109
f 551//1110 552//1110 555//1110
f 555//1111 554//1111 553//1111
f 523//1112 522//1112 550//1112
f 523//1113 550//1113 553//1113
f 523//1114 553//1114 451//1114
f 520//1115 523//1115 454//1115
f 523//1116 451//1116 519//1116
f 523//1117 519//1117 454//1117
f 553//1118 554//1118 451//1118
f 552//1119 556//1119 555//1119
f 500//1120 451//1120 554//1120
f 555//1121 556//1121 456//1121
f 556//1122 538//1122 535//1122
f 557//1125 556//1125 535//1125
f 303//1153 158//1153 403//1153
f 403//1154 158//1154 159//1154
f 406//1155 403//1155 159//1155
f 364//1156 366//1156 570//1156
f 364//1157 570//1157 475//1157
f 475//1158 571//1158 564//1158
f 474//1159 243//1159 565//1159
f 565//1160 243//1160 572//1160
f 473//1161 363//1161 566//1161
f 566//1162 363//1162 565//1162
f 473//1163 566//1164 567//1165
f 605//1166 567//1166 481//1166
f 567//1167 605//1167 568//1167
f 472//1168 569//1168 471//1168
f 569//1169 472//1169 568//1169
f 568//1170 472//1170 567//1170
f 481//1171 567//1171 570//1171
f 570//1172 567//1172 566//1172
f 566//1173 571//1173 475//1173
f 565//1174 571//1174 566//1174
f 475//1175 564//1175 236//1175
f 565//1176 572//1176 571//1176
f 572//1177 564//1177 571//1177
f 564//1178 572//1178 236//1178
f 630//1210 532//1210 588//1210
f 532//1211 666//1211 588//1211
f 630//1212 588//1212 589//1212
f 468//1213 490//1213 546//1213
f 468//1214 546//1214 662//1214
f 490//1215 468//1215 489//1215
f 591//1216 522//1216 521//1216
f 525//1217 470//1217 615//1217
f 615//1218 470//1218 469//1218
f 569//1219 568//1219 525//1219
f 525//1220 568//1220 524//1220
f 568//1221 590//1221 524//1221
f 591//1222 590//1222 568//1222
f 550//1223 522//1223 591//1223
f 592//1224 550//1224 591//1224
f 550//1225 592//1225 549//1225
f 539//1226 593//1226 548//1226
f 665//1227 542//1227 663//1227
f 594//1228 542//1228 548//1228
f 601//1229 593//1229 595//1229
f 593//1230 597//1230 548//1230
f 548//1231 597//1231 594//1231
f 594//1232 663//1232 542//1232
f 598//1233 599//1233 597//1233
f 599//1234 594//1234 597//1234
f 594//1235 600//1235 596//1235
f 594//1236 596//1236 663//1236
f 663//1237 596//1237 655//1237
f 600//1238 594//1238 599//1238
f 601//1239 598//1239 597//1239
f 598//1240 601//1240 603//1240
f 599//1241 598//1242 602//1243
f 602//1244 598//1244 603//1244
f 597//1245 593//1245 601//1245
f 603//1246 601//1246 595//1246
f 595//1247 592//1247 604//1247
f 595//1248 604//1248 603//1248
f 605//1249 591//1249 568//1249
f 605//1250 604//1250 591//1250
f 592//1251 591//1251 604//1251
f 606//1252 605//1252 481//1252
f 606//1253 603//1253 605//1253
f 570//1254 566//1254 475//1254
f 481//1255 602//1255 606//1255
f 603//1256 604//1256 605//1256
f 603//1257 606//1257 602//1257
f 602//1243 482//1258 599//1241
f 655//1259 596//1259 607//1259
f 607//1260 596//1260 600//1260
f 482//1261 477//1261 608//1261
f 476//1262 608//1262 477//1262
f 608//1263 476//1263 478//1263
f 599//1264 482//1264 608//1264
f 600//1265 599//1265 608//1265
f 609//1266 608//1266 478//1266
f 609//1267 600//1267 608//1267
f 476//1268 610//1268 478//1268
f 476//941 373//942 610//1269
f 611//1270 484//1270 376//1270
f 611//1271 376//1271 485//1271
f 612//1272 486//1272 656//1272
f 656//1273 486//1273 607//1273
f 379//1274 614//1274 486//1274
f 379//1275 488//1275 614//1275
f 486//1276 487//1276 379//1276
f 590//1277 521//1277 524//1277
f 521//1278 590//1278 591//1278
f 469//1279 471//1279 615//1279
f 615//1280 616//1280 525//1280
f 525//1281 616//1281 569//1281
f 616//1282 471//1282 569//1282
f 471//1283 616//1283 615//1283
f 410//1284 395//1284 404//1284
f 592//1285 595//1285 540//1285
f 592//1286 540//1286 549//1286
f 630//1317 464//1317 529//1317
f 402//1325 629//1325 631//1325
f 399//1326 629//1326 402//1326
f 400//1327 402//1328 631//1328
f 400//1329 631//1329 399//1329
f 589//1357 588//1357 493//1357
f 607//1373 486//1373 614//1373
f 614//1374 655//1374 607//1374
f 609//1375 657//1375 656//1375
f 609//1376 656//1376 600//1376
f 478//1377 657//1377 609//1377
f 373//1378 483//1378 660//1378
f 658//1379 659//1379 610//1379
f 658//1380 610//1269 373//942
f 610//1381 659//1381 478//1381
f 373//1382 660//1383 658//1384
f 660//1385 483//1385 661//1385
f 660//1386 661//1386 670//1386
f 661//1387 483//1387 484//1387
f 613//1388 611//1389 485//1390
f 485//1390 612//1391 613//1388
f 383//1392 662//1392 381//1392
f 665//1393 663//1393 544//1393
f 665//1394 544//1394 664//1394
f 547//1395 544//1395 533//1395
f 664//1396 547//1396 545//1396
f 545//1397 547//1397 533//1397
f 666//1398 532//1398 533//1398
f 542//1399 666//1399 533//1399
f 588//1400 664//1400 546//1400
f 545//1401 546//1401 664//1401
f 664//1402 588//1402 666//1402
f 665//1403 664//1403 666//1403
f 665//1404 666//1404 542//1404
f 655//1405 614//1405 488//1405
f 667//1406 662//1406 663//1406
f 667//1407 663//1407 655//1407
f 655//1408 488//1408 667//1408
f 670//1409 661//1409 671//1409
f 484//1410 671//1410 661//1410
f 671//1411 484//1411 611//1411
f 675//1412 658//1384 660//1383
f 672//1413 668//1413 669//1413
f 671//1414 669//1414 668//1414
f 668//1415 670//1415 671//1415
f 668//1416 660//1416 670//1416
f 671//1417 611//1417 673//1417
f 672//1418 660//1418 668//1418
f 669//1419 671//1419 673//1419
f 672//1420 669//1420 676//1420
f 674//1421 660//1421 672//1421
f 674//1422 675//1422 660//1422
f 672//1423 676//1423 674//1423
f 600//1424 656//1424 607//1424
usemtl Templar_SteelChain
f 2//1 1//2 4//3
f 71//4 1//4 3//4
f 4//5 5//5 2//5
f 8//6 5//6 4//6
f 5//7 13//7 6//7
f 6//8 13//8 7//8
f 11//9 9//10 7//11
f 7//12 17//12 11//12
f 17//13 7//13 12//13
f 12//14 7//14 10//14
f 7//15 13//15 10//15
f 14//16 11//16 17//16
f 9//17 11//18 15//18
f 11//19 14//19 16//19
f 17//20 18//20 14//20
f 16//21 14//21 20//21
f 14//22 21//22 20//22
f 21//23 14//23 18//23
f 18//24 17//24 12//24
f 12//25 22//25 18//25
f 22//26 12//26 83//26
f 12//27 10//27 83//27
f 22//28 26//28 18//28
f 25//29 26//29 22//29
f 25//30 22//30 28//30
f 23//31 25//31 28//31
f 84//32 23//32 28//32
f 84//33 24//33 23//33
f 28//37 22//37 83//37
f 10//38 13//38 83//38
f 8//39 13//40 5//41
f 4//3 71//42 72//43
f 71//42 4//3 1//2
f 30//44 15//45 11//46
f 30//44 11//46 16//47
f 31//48 30//48 16//48
f 32//49 31//49 33//49
f 33//50 31//50 19//50
f 19//51 31//51 16//51
f 19//52 16//52 20//52
f 20//53 34//53 35//53
f 20//54 35//54 19//54
f 19//55 35//55 33//55
f 36//56 35//56 34//56
f 21//57 37//57 38//57
f 21//58 38//58 20//58
f 20//59 38//59 34//59
f 40//61 21//61 18//61
f 18//82 26//82 40//82
f 4//101 13//101 8//101
f 4//102 72//102 79//102
f 4//103 79//103 83//103
f 4//104 83//104 13//104
f 78//105 72//105 73//105
f 73//106 72//106 71//106
f 81//107 78//107 73//107
f 81//108 73//108 75//108
f 71//109 3//109 73//109
f 73//110 3//110 29//110
f 73//111 29//111 75//111
f 29//112 74//113 75//114
f 76//115 75//115 74//115
f 81//116 75//116 76//116
f 78//117 79//117 72//117
f 80//118 78//118 81//118
f 81//119 82//119 80//119
f 85//120 80//120 82//120
f 82//121 81//121 76//121
f 28//122 83//122 79//122
f 28//123 79//123 84//123
f 24//124 84//124 80//124
f 85//125 27//126 80//127
f 24//128 80//128 27//128
f 23//129 24//129 27//129
f 79//147 78//147 84//147
f 78//148 80//148 84//148
f 30//467 32//467 254//467
f 254//468 15//468 30//468
f 32//469 30//469 31//469
f 255//470 254//470 32//470
f 255//471 32//471 33//471
f 304//472 255//472 306//472
f 256//473 306//473 255//473
f 255//474 33//474 256//474
f 256//475 35//475 36//475
f 256//476 36//476 257//476
f 258//477 257//477 36//477
f 258//478 36//478 259//478
f 38//479 39//479 260//479
f 38//480 260//480 34//480
f 312//481 258//481 259//481
f 260//482 261//482 34//482
f 34//483 261//483 36//483
f 315//484 259//484 261//484
f 261//485 259//485 36//485
f 260//486 263//486 261//486
f 263//487 262//487 261//487
f 260//488 46//488 263//488
f 46//489 264//489 263//489
f 46//496 42//496 264//496
f 255//582 304//582 254//582
f 305//583 304//583 306//583
f 309//584 305//584 306//584
f 305//585 309//585 349//585
f 388//586 309//586 307//586
f 309//587 308//587 307//587
f 307//588 389//589 388//590
f 351//591 308//591 309//591
f 35//592 256//592 33//592
f 311//593 310//593 313//593
f 313//594 310//594 258//594
f 161//595 258//595 312//595
f 258//596 161//596 313//596
f 312//597 162//597 161//597
f 311//598 162//598 314//598
f 162//599 312//599 314//599
f 259//600 314//600 312//600
f 314//601 259//601 315//601
f 315//602 261//602 262//602
f 321//603 262//604 263//604
f 310//611 315//611 262//611
f 315//612 310//612 311//612
f 322//613 310//613 262//613
f 320//614 321//614 263//614
f 320//615 263//615 264//615
f 42//616 318//616 264//616
f 318//617 320//617 264//617
f 318//619 319//619 320//619
f 320//620 319//620 323//620
f 322//621 262//621 321//621
f 258//622 310//622 322//622
f 322//623 257//623 258//623
f 320//624 323//625 321//626
f 324//627 321//626 323//625
f 325//628 324//628 323//628
f 327//629 319//629 328//629
f 319//630 327//630 326//630
f 328//631 392//631 327//631
f 315//669 311//669 314//669
f 307//672 308//672 350//672
f 352//673 306//674 256//675
f 257//676 352//673 256//675
f 306//677 352//677 351//677
f 306//678 351//678 309//678
f 325//679 257//679 322//679
f 322//680 321//680 324//680
f 322//681 324//681 325//681
f 326//682 323//682 319//682
f 326//683 327//683 353//683
f 349//758 309//758 388//758
f 350//759 389//759 307//759
f 308//760 390//760 350//760
f 308//761 351//761 390//761
f 351//762 352//762 390//762
f 390//763 391//764 350//765
f 391//764 389//766 350//765
f 391//767 390//767 419//767
f 419//768 390//768 325//768
f 418//769 325//769 323//769
f 392//770 396//770 393//770
f 494//801 409//801 405//801
f 494//802 405//802 407//802
f 404//803 409//803 410//803
f 411//804 412//804 413//804
f 411//805 413//805 409//805
f 409//806 413//806 410//806
f 410//807 413//807 414//807
f 392//808 393//808 327//808
f 393//809 416//809 327//809
f 327//810 416//810 353//810
f 326//811 418//811 323//811
f 325//812 418//812 419//812
f 418//813 326//813 417//813
f 420//814 419//814 418//814
f 417//815 420//815 418//815
f 325//816 352//816 257//816
f 325//817 390//817 352//817
f 416//825 421//825 353//825
f 427//826 416//826 393//826
f 393//827 415//827 427//827
f 427//828 422//828 416//828
f 416//829 424//829 421//829
f 424//830 416//830 422//830
f 427//831 423//831 422//831
f 431//832 421//832 424//832
f 430//833 426//833 425//833
f 429//834 425//834 428//834
f 423//835 427//835 425//835
f 425//836 429//836 430//836
f 432//837 426//837 429//837
f 429//838 426//838 431//838
f 424//839 426//839 430//839
f 433//840 429//840 428//840
f 435//841 428//841 436//841
f 436//842 428//842 434//842
f 425//843 434//843 428//843
f 427//844 436//844 437//844
f 427//845 437//845 425//845
f 425//846 437//846 434//846
f 438//847 434//847 437//847
f 437//848 436//848 560//848
f 560//849 436//849 434//849
f 436//850 439//850 435//850
f 427//851 439//851 436//851
f 439//852 427//853 440//854
f 441//855 439//852 440//854
f 427//856 415//856 440//856
f 442//857 440//857 415//857
f 439//858 441//858 459//859
f 443//860 441//860 440//860
f 442//861 443//861 440//861
f 444//863 442//863 415//863
f 415//864 445//864 444//864
f 444//865 447//865 442//865
f 442//866 447//866 448//866
f 442//867 448//867 449//867
f 460//875 442//875 449//875
f 448//876 455//876 456//876
f 448//877 456//877 449//877
f 456//878 457//878 449//878
f 458//879 449//879 457//879
f 449//880 458//880 455//880
f 455//881 444//881 449//881
f 444//882 455//882 448//882
f 459//883 447//883 444//883
f 459//884 444//884 448//884
f 449//885 444//885 445//885
f 445//886 446//886 449//886
f 460//887 449//887 461//887
f 446//888 461//888 449//888
f 462//889 460//889 461//889
f 461//890 446//890 463//890
f 437//891 445//891 415//891
f 415//892 446//892 437//892
f 463//893 446//893 415//893
f 463//894 415//894 393//894
f 558//895 463//895 393//895
f 491//961 492//961 643//961
f 493//965 491//965 643//965
f 646//966 493//966 643//966
f 492//967 397//967 645//967
f 397//968 410//968 645//968
f 645//969 410//969 414//969
f 494//970 411//970 409//970
f 408//971 494//971 407//971
f 411//972 494//972 495//972
f 411//973 495//973 412//973
f 639//974 412//974 495//974
f 495//975 497//975 639//975
f 496//976 495//976 494//976
f 326//977 408//978 417//979
f 408//978 326//977 353//980
f 408//981 353//981 494//981
f 353//982 421//982 494//982
f 496//983 494//983 421//983
f 498//984 496//984 421//984
f 499//985 421//986 431//986
f 421//987 499//987 498//987
f 498//988 499//988 505//988
f 431//989 424//989 430//989
f 431//990 430//990 429//990
f 433//991 428//991 435//991
f 435//992 439//992 459//992
f 441//993 500//993 459//993
f 435//994 517//994 433//994
f 429//995 433//995 501//995
f 426//996 432//996 502//996
f 426//997 502//997 425//997
f 425//998 502//998 423//998
f 422//999 423//999 503//999
f 503//1000 423//1000 502//1001
f 503//1002 502//1002 504//1002
f 504//1003 505//1003 503//1003
f 505//1004 504//1004 512//1004
f 503//1005 499//1005 422//1005
f 424//1006 499//1006 426//1006
f 426//1007 499//1007 431//1007
f 499//1008 424//1008 422//1008
f 499//1009 503//1009 505//1009
f 496//1010 498//1010 512//1010
f 512//1011 498//1011 505//1011
f 506//1012 512//1012 504//1012
f 502//1013 507//1013 504//1013
f 507//1014 506//1014 504//1014
f 507//1015 502//1015 432//1015
f 429//1016 585//1016 432//1016
f 432//1017 585//1017 508//1017
f 432//1018 508//1018 507//1018
f 501//1019 585//1019 429//1019
f 501//1020 438//1020 509//1020
f 510//1021 507//1021 508//1021
f 507//1022 510//1022 506//1022
f 574//1023 506//1023 510//1023
f 511//1024 510//1024 508//1024
f 574//1025 512//1025 506//1025
f 512//1026 513//1026 496//1026
f 496//1027 514//1027 495//1027
f 514//1028 497//1028 495//1028
f 515//1029 497//1029 514//1029
f 513//1030 514//1030 496//1030
f 514//1031 513//1031 515//1031
f 562//1032 511//1032 508//1032
f 516//1033 501//1033 433//1033
f 516//1034 433//1034 517//1034
f 501//1035 516//1035 438//1035
f 517//1036 435//1036 561//1036
f 459//1037 500//1037 447//1037
f 447//1039 518//1039 448//1039
f 518//1040 447//1040 554//1040
f 455//1041 518//1041 456//1041
f 456//1042 518//1042 555//1042
f 555//1043 518//1043 554//1043
f 557//1076 460//1076 462//1076
f 536//1077 462//1077 461//1077
f 556//1123 557//1123 456//1123
f 557//1124 457//1124 456//1124
f 557//1126 462//1126 457//1126
f 536//1127 457//1127 462//1127
f 622//1128 461//1128 558//1128
f 461//1129 463//1129 558//1129
f 461//1130 622//1130 536//1130
f 536//1131 509//1131 559//1131
f 457//1132 559//1132 458//1132
f 560//1133 445//1133 437//1133
f 446//1134 438//1134 437//1134
f 434//1135 438//1135 560//1135
f 560//1136 458//1136 445//1136
f 455//1137 459//1137 518//1137
f 518//1138 459//1138 448//1138
f 435//1139 459//1139 561//1139
f 561//1140 459//1140 455//1140
f 517//1141 561//1141 455//1141
f 458//1142 517//1142 455//1142
f 516//1143 517//1143 458//1143
f 516//1144 458//1144 560//1144
f 516//1145 560//1145 438//1145
f 509//1146 562//1146 501//1146
f 562//1147 509//1147 563//1147
f 559//1148 509//1148 438//1148
f 559//1149 438//1149 445//1149
f 445//1150 438//1150 446//1150
f 458//1151 559//1151 445//1151
f 457//1152 536//1152 559//1152
f 573//1179 513//1179 512//1179
f 573//1180 512//1180 574//1180
f 510//1181 511//1181 575//1181
f 510//1182 575//1182 574//1182
f 574//1183 575//1183 573//1183
f 513//1184 573//1184 515//1184
f 576//1185 575//1185 511//1185
f 578//1186 581//1186 576//1186
f 577//1187 573//1187 575//1187
f 580//1188 581//1188 578//1188
f 578//1189 576//1189 511//1189
f 578//1190 511//1191 579//1192
f 578//1193 579//1193 580//1193
f 582//1194 576//1194 581//1194
f 581//1195 580//1195 583//1195
f 582//1196 581//1196 583//1196
f 584//1197 583//1197 580//1197
f 579//1192 511//1191 562//1198
f 508//1199 585//1200 562//1200
f 585//1201 501//1201 562//1201
f 579//1202 562//1202 586//1202
f 563//1203 509//1203 620//1203
f 620//1204 509//1204 536//1204
f 587//1205 622//1206 558//1207
f 396//1208 558//1208 393//1208
f 464//898 558//1209 396//896
f 586//1287 580//1287 579//1287
f 562//1288 619//1289 586//1290
f 563//1291 619//1289 562//1288
f 620//1292 536//1292 622//1292
f 563//1293 620//1294 619//1295
f 619//1295 620//1294 621//1296
f 586//1297 624//1297 580//1297
f 580//1298 624//1298 618//1298
f 677//1299 618//1299 624//1299
f 652//1300 586//1300 619//1300
f 621//1301 652//1301 619//1301
f 558//1302 464//1302 587//1302
f 620//1303 622//1303 621//1303
f 621//1304 622//1304 651//1304
f 621//1305 625//1305 652//1305
f 652//1306 624//1306 586//1306
f 625//1307 621//1307 623//1307
f 623//1308 621//1308 626//1308
f 649//1309 651//1309 627//1309
f 627//1310 651//1310 622//1310
f 587//1205 627//1311 622//1206
f 647//1312 628//1312 587//1312
f 633//1313 647//1313 464//1313
f 464//1314 647//1314 587//1314
f 464//1315 629//1315 632//1315
f 630//1316 629//1316 464//1316
f 633//1318 630//1318 589//1318
f 630//1319 633//1319 631//1319
f 630//1320 631//1320 629//1320
f 464//1321 632//1321 633//1321
f 633//1322 632//1322 631//1322
f 631//1323 632//1323 399//1323
f 399//1324 632//1324 629//1324
f 637//1330 576//1330 582//1330
f 584//1331 635//1331 583//1331
f 636//1332 583//1332 634//1332
f 636//1333 637//1333 583//1333
f 583//1334 637//1334 582//1334
f 576//1335 638//1335 575//1335
f 575//1336 638//1336 577//1336
f 637//1337 638//1337 576//1337
f 640//1338 638//1338 637//1338
f 637//1339 636//1339 640//1339
f 639//1340 413//1340 412//1340
f 644//1341 641//1341 640//1341
f 644//1342 640//1342 636//1342
f 644//1343 636//1343 634//1343
f 634//1344 583//1344 635//1344
f 635//1345 584//1345 617//1345
f 678//1346 635//1346 617//1346
f 634//1347 635//1347 642//1347
f 634//1348 642//1348 644//1348
f 642//1349 643//1349 644//1349
f 641//1350 414//1350 413//1350
f 641//1351 644//1351 414//1351
f 645//1352 414//1352 644//1352
f 645//1353 644//1353 643//1353
f 642//1354 646//1354 643//1354
f 642//1355 635//1355 648//1355
f 643//1356 492//1356 645//1356
f 589//1358 493//1358 646//1358
f 647//1359 646//1359 642//1359
f 648//1360 647//1360 642//1360
f 646//1361 647//1361 589//1361
f 633//1362 589//1362 647//1362
f 628//1363 647//1363 648//1363
f 628//1364 648//1364 654//1364
f 628//1365 653//1365 587//1365
f 653//1366 627//1366 587//1366
f 653//1367 649//1367 627//1367
f 626//1368 621//1368 651//1368
f 625//1369 623//1369 650//1369
f 625//1370 650//1370 652//1370
f 635//1371 654//1371 648//1371
f 678//1372 654//1372 635//1372
f 618//1425 584//1425 580//1425
f 584//1426 677//1426 617//1426
f 618//1427 677//1427 584//1427
