# Blender 5.2.1 LTS
# www.blender.org
mtllib rogue_daggers.mtl
o Grip
v 0.000000 0.205000 -0.140000
v 0.000000 0.205000 0.140000
v 0.009567 0.203097 -0.140000
v 0.009567 0.203097 0.140000
v 0.017678 0.197678 -0.140000
v 0.017678 0.197678 0.140000
v 0.023097 0.189567 -0.140000
v 0.023097 0.189567 0.140000
v 0.025000 0.180000 -0.140000
v 0.025000 0.180000 0.140000
v 0.023097 0.170433 -0.140000
v 0.023097 0.170433 0.140000
v 0.017678 0.162322 -0.140000
v 0.017678 0.162322 0.140000
v 0.009567 0.156903 -0.140000
v 0.009567 0.156903 0.140000
v 0.000000 0.155000 -0.140000
v 0.000000 0.155000 0.140000
v -0.009567 0.156903 -0.140000
v -0.009567 0.156903 0.140000
v -0.017678 0.162322 -0.140000
v -0.017678 0.162322 0.140000
v -0.023097 0.170433 -0.140000
v -0.023097 0.170433 0.140000
v -0.025000 0.180000 -0.140000
v -0.025000 0.180000 0.140000
v -0.023097 0.189567 -0.140000
v -0.023097 0.189567 0.140000
v -0.017678 0.197678 -0.140000
v -0.017678 0.197678 0.140000
v -0.009567 0.203097 -0.140000
v -0.009567 0.203097 0.140000
vn 0.1951 0.9808 -0.0000
vn 0.5556 0.8315 -0.0000
vn 0.8315 0.5556 -0.0000
vn 0.9808 0.1951 -0.0000
vn 0.9808 -0.1951 -0.0000
vn 0.8315 -0.5556 -0.0000
vn 0.5556 -0.8315 -0.0000
vn 0.1951 -0.9808 -0.0000
vn -0.1951 -0.9808 -0.0000
vn -0.5556 -0.8315 -0.0000
vn -0.8315 -0.5556 -0.0000
vn -0.9808 -0.1951 -0.0000
vn -0.9808 0.1951 -0.0000
vn -0.8315 0.5556 -0.0000
vn -0.0000 -0.0000 1.0000
vn -0.5556 0.8315 -0.0000
vn -0.1951 0.9808 -0.0000
vn -0.0000 -0.0000 -1.0000
vt 1.000000 0.500000
vt 1.000000 1.000000
vt 0.937500 1.000000
vt 0.937500 0.500000
vt 0.875000 1.000000
vt 0.875000 0.500000
vt 0.812500 1.000000
vt 0.812500 0.500000
vt 0.750000 1.000000
vt 0.750000 0.500000
vt 0.687500 1.000000
vt 0.687500 0.500000
vt 0.625000 1.000000
vt 0.625000 0.500000
vt 0.562500 1.000000
vt 0.562500 0.500000
vt 0.500000 1.000000
vt 0.500000 0.500000
vt 0.437500 1.000000
vt 0.437500 0.500000
vt 0.375000 1.000000
vt 0.375000 0.500000
vt 0.312500 1.000000
vt 0.312500 0.500000
vt 0.250000 1.000000
vt 0.250000 0.500000
vt 0.187500 1.000000
vt 0.187500 0.500000
vt 0.125000 1.000000
vt 0.125000 0.500000
vt 0.341844 0.471731
vt 0.250000 0.490000
vt 0.158156 0.471731
vt 0.080294 0.419706
vt 0.028269 0.341844
vt 0.010000 0.250000
vt 0.028269 0.158156
vt 0.080294 0.080294
vt 0.158156 0.028269
vt 0.250000 0.010000
vt 0.341844 0.028269
vt 0.419706 0.080294
vt 0.471731 0.158156
vt 0.490000 0.250000
vt 0.471731 0.341844
vt 0.419706 0.419706
vt 0.062500 1.000000
vt 0.062500 0.500000
vt 0.000000 1.000000
vt 0.000000 0.500000
vt 0.750000 0.490000
vt 0.841844 0.471731
vt 0.919706 0.419706
vt 0.971731 0.341844
vt 0.990000 0.250000
vt 0.971731 0.158156
vt 0.919706 0.080294
vt 0.841844 0.028269
vt 0.750000 0.010000
vt 0.658156 0.028269
vt 0.580294 0.080294
vt 0.528269 0.158156
vt 0.510000 0.250000
vt 0.528269 0.341844
vt 0.580294 0.419706
vt 0.658156 0.471731
s 0
usemtl RogueW_Leather
f 1/1/1 2/2/1 4/3/1 3/4/1
f 3/4/2 4/3/2 6/5/2 5/6/2
f 5/6/3 6/5/3 8/7/3 7/8/3
f 7/8/4 8/7/4 10/9/4 9/10/4
f 9/10/5 10/9/5 12/11/5 11/12/5
f 11/12/6 12/11/6 14/13/6 13/14/6
f 13/14/7 14/13/7 16/15/7 15/16/7
f 15/16/8 16/15/8 18/17/8 17/18/8
f 17/18/9 18/17/9 20/19/9 19/20/9
f 19/20/10 20/19/10 22/21/10 21/22/10
f 21/22/11 22/21/11 24/23/11 23/24/11
f 23/24/12 24/23/12 26/25/12 25/26/12
f 25/26/13 26/25/13 28/27/13 27/28/13
f 27/28/14 28/27/14 30/29/14 29/30/14
f 4/31/15 2/32/15 32/33/15 30/34/15 28/35/15 26/36/15 24/37/15 22/38/15 20/39/15 18/40/15 16/41/15 14/42/15 12/43/15 10/44/15 8/45/15 6/46/15
f 29/30/16 30/29/16 32/47/16 31/48/16
f 31/48/17 32/47/17 2/49/17 1/50/17
f 1/51/18 3/52/18 5/53/18 7/54/18 9/55/18 11/56/18 13/57/18 15/58/18 17/59/18 19/60/18 21/61/18 23/62/18 25/63/18 27/64/18 29/65/18 31/66/18
o Ring_Pommel
v 0.000000 0.040000 0.045000
v 0.000000 0.048779 0.044135
v 0.000000 0.071820 0.031820
v 0.000000 0.081575 0.017221
v 0.000000 0.084135 0.008779
v 0.000000 0.084135 -0.008779
v 0.000000 0.077416 -0.025001
v 0.000000 0.065001 -0.037416
v 0.000000 0.057221 -0.041575
v 0.000000 0.048779 -0.044135
v 0.000000 0.040000 -0.045000
v 0.003360 0.048111 0.044135
v 0.006590 0.055910 0.041575
v 0.009567 0.063098 0.037416
v 0.012177 0.069398 0.031820
v 0.014319 0.074568 0.025001
v 0.015910 0.078410 0.017221
v 0.016890 0.080776 0.008779
v 0.017221 0.081575 0.000000
v 0.016890 0.080776 -0.008779
v 0.015910 0.078410 -0.017221
v 0.014319 0.074568 -0.025001
v 0.012177 0.069398 -0.031820
v 0.009567 0.063098 -0.037416
v 0.006590 0.055910 -0.041575
v 0.003360 0.048111 -0.044135
v 0.006208 0.046208 0.044135
v 0.012177 0.052177 0.041575
v 0.017678 0.057678 0.037416
v 0.022500 0.062500 0.031820
v 0.026457 0.066457 0.025001
v 0.029398 0.069398 0.017221
v 0.031208 0.071208 0.008779
v 0.031820 0.071820 0.000000
v 0.031208 0.071208 -0.008779
v 0.029398 0.069398 -0.017221
v 0.026457 0.066457 -0.025001
v 0.022500 0.062500 -0.031820
v 0.017678 0.057678 -0.037416
v 0.012177 0.052177 -0.041575
v 0.006208 0.046208 -0.044135
v 0.008111 0.043360 0.044135
v 0.015910 0.046590 0.041575
v 0.023098 0.049567 0.037416
v 0.029398 0.052177 0.031820
v 0.034568 0.054319 0.025001
v 0.038410 0.055910 0.017221
v 0.040776 0.056890 0.008779
v 0.041575 0.057221 0.000000
v 0.040776 0.056890 -0.008779
v 0.038410 0.055910 -0.017221
v 0.034568 0.054319 -0.025001
v 0.029398 0.052177 -0.031820
v 0.023098 0.049567 -0.037416
v 0.015910 0.046590 -0.041575
v 0.008111 0.043360 -0.044135
v 0.008779 0.040000 0.044135
v 0.017221 0.040000 0.041575
v 0.025001 0.040000 0.037416
v 0.031820 0.040000 0.031820
v 0.037416 0.040000 0.025001
v 0.041575 0.040000 0.017221
v 0.044135 0.040000 0.008779
v 0.045000 0.040000 0.000000
v 0.044135 0.040000 -0.008779
v 0.041575 0.040000 -0.017221
v 0.037416 0.040000 -0.025001
v 0.031820 0.040000 -0.031820
v 0.025001 0.040000 -0.037416
v 0.017221 0.040000 -0.041575
v 0.008779 0.040000 -0.044135
v 0.008111 0.036640 0.044135
v 0.015910 0.033410 0.041575
v 0.023098 0.030433 0.037416
v 0.029398 0.027823 0.031820
v 0.034568 0.025681 0.025001
v 0.038410 0.024090 0.017221
v 0.040776 0.023110 0.008779
v 0.041575 0.022779 0.000000
v 0.040776 0.023110 -0.008779
v 0.038410 0.024090 -0.017221
v 0.034568 0.025681 -0.025001
v 0.029398 0.027823 -0.031820
v 0.023098 0.030433 -0.037416
v 0.015910 0.033410 -0.041575
v 0.008111 0.036640 -0.044135
v 0.006208 0.033792 0.044135
v 0.012177 0.027823 0.041575
v 0.017678 0.022322 0.037416
v 0.022500 0.017500 0.031820
v 0.026457 0.013543 0.025001
v 0.029398 0.010602 0.017221
v 0.031208 0.008792 0.008779
v 0.031820 0.008180 0.000000
v 0.031208 0.008792 -0.008779
v 0.029398 0.010602 -0.017221
v 0.026457 0.013543 -0.025001
v 0.022500 0.017500 -0.031820
v 0.017678 0.022322 -0.037416
v 0.012177 0.027823 -0.041575
v 0.006208 0.033792 -0.044135
v 0.003360 0.031889 0.044135
v 0.006590 0.024090 0.041575
v 0.009567 0.016902 0.037416
v 0.012177 0.010602 0.031820
v 0.014319 0.005432 0.025001
v 0.015910 0.001590 0.017221
v 0.016890 -0.000776 0.008779
v 0.017221 -0.001575 0.000000
v 0.016890 -0.000776 -0.008779
v 0.015910 0.001590 -0.017221
v 0.014319 0.005432 -0.025001
v 0.012177 0.010602 -0.031820
v 0.009567 0.016902 -0.037416
v 0.006590 0.024090 -0.041575
v 0.003360 0.031889 -0.044135
v -0.000000 0.031221 0.044135
v -0.000000 0.022779 0.041575
v -0.000000 0.014999 0.037416
v -0.000000 0.008180 0.031820
v -0.000000 0.002584 0.025001
v -0.000000 -0.001575 0.017221
v -0.000000 -0.004135 0.008779
v -0.000000 -0.005000 0.000000
v -0.000000 -0.004135 -0.008779
v -0.000000 -0.001575 -0.017221
v -0.000000 0.002584 -0.025001
v -0.000000 0.008180 -0.031820
v -0.000000 0.014999 -0.037416
v -0.000000 0.022779 -0.041575
v -0.000000 0.031221 -0.044135
v -0.003360 0.031889 0.044135
v -0.006590 0.024090 0.041575
v -0.009567 0.016902 0.037416
v -0.012177 0.010602 0.031820
v -0.014319 0.005432 0.025001
v -0.015910 0.001590 0.017221
v -0.016890 -0.000776 0.008779
v -0.017221 -0.001575 0.000000
v -0.016890 -0.000776 -0.008779
v -0.015910 0.001590 -0.017221
v -0.014319 0.005432 -0.025001
v -0.012177 0.010602 -0.031820
v -0.009567 0.016902 -0.037416
v -0.006590 0.024090 -0.041575
v -0.003360 0.031889 -0.044135
v -0.006208 0.033792 0.044135
v -0.012177 0.027823 0.041575
v -0.017678 0.022322 0.037416
v -0.022500 0.017500 0.031820
v -0.026457 0.013543 0.025001
v -0.029398 0.010602 0.017221
v -0.031208 0.008792 0.008779
v -0.031820 0.008180 0.000000
v -0.031208 0.008792 -0.008779
v -0.029398 0.010602 -0.017221
v -0.026457 0.013543 -0.025001
v -0.022500 0.017500 -0.031820
v -0.017678 0.022322 -0.037416
v -0.012177 0.027823 -0.041575
v -0.006208 0.033792 -0.044135
v -0.008111 0.036640 0.044135
v -0.015910 0.033410 0.041575
v -0.023098 0.030433 0.037416
v -0.029398 0.027823 0.031820
v -0.034568 0.025681 0.025001
v -0.038410 0.024090 0.017221
v -0.040776 0.023110 0.008779
v -0.041575 0.022779 0.000000
v -0.040776 0.023110 -0.008779
v -0.038410 0.024090 -0.017221
v -0.034568 0.025681 -0.025001
v -0.029398 0.027823 -0.031820
v -0.023098 0.030433 -0.037416
v -0.015910 0.033410 -0.041575
v -0.008111 0.036640 -0.044135
v -0.008779 0.040000 0.044135
v -0.017221 0.040000 0.041575
v -0.025001 0.040000 0.037416
v -0.031820 0.040000 0.031820
v -0.037416 0.040000 0.025001
v -0.041575 0.040000 0.017221
v -0.044135 0.040000 0.008779
v -0.045000 0.040000 0.000000
v -0.044135 0.040000 -0.008779
v -0.041575 0.040000 -0.017221
v -0.037416 0.040000 -0.025001
v -0.031820 0.040000 -0.031820
v -0.025001 0.040000 -0.037416
v -0.017221 0.040000 -0.041575
v -0.008779 0.040000 -0.044135
v -0.008111 0.043360 0.044135
v -0.015910 0.046590 0.041575
v -0.023098 0.049567 0.037416
v -0.029398 0.052177 0.031820
v -0.034568 0.054319 0.025001
v -0.038410 0.055910 0.017221
v -0.040776 0.056890 0.008779
v -0.041575 0.057221 0.000000
v -0.040776 0.056890 -0.008779
v -0.038410 0.055910 -0.017221
v -0.034568 0.054319 -0.025001
v -0.029398 0.052177 -0.031820
v -0.023098 0.049567 -0.037416
v -0.015910 0.046590 -0.041575
v -0.008111 0.043360 -0.044135
v -0.006208 0.046208 0.044135
v -0.012177 0.052177 0.041575
v -0.017678 0.057678 0.037416
v -0.022500 0.062500 0.031820
v -0.026457 0.066457 0.025001
v -0.029398 0.069398 0.017221
v -0.031208 0.071208 0.008779
v -0.031820 0.071820 0.000000
v -0.031208 0.071208 -0.008779
v -0.029398 0.069398 -0.017221
v -0.026457 0.066457 -0.025001
v -0.022500 0.062500 -0.031820
v -0.017678 0.057678 -0.037416
v -0.012177 0.052177 -0.041575
v -0.006208 0.046208 -0.044135
v -0.003360 0.048111 0.044135
v -0.006590 0.055910 0.041575
v -0.009567 0.063098 0.037416
v -0.012177 0.069398 0.031820
v -0.014319 0.074568 0.025001
v -0.015910 0.078410 0.017221
v -0.016890 0.080776 0.008779
v -0.017221 0.081575 0.000000
v -0.016890 0.080776 -0.008779
v -0.015910 0.078410 -0.017221
v -0.014319 0.074568 -0.025001
v -0.012177 0.069398 -0.031820
v -0.009567 0.063098 -0.037416
v -0.006590 0.055910 -0.041575
v -0.003360 0.048111 -0.044135
v 0.000000 0.057221 0.041575
v 0.000000 0.065001 0.037416
v 0.000000 0.077416 0.025001
v 0.000000 0.085000 0.000000
v 0.000000 0.081575 -0.017221
v 0.000000 0.071820 -0.031820
vn 0.0934 0.4693 0.8781
vn 0.1728 0.8687 -0.4643
vn 0.1252 0.6294 0.7669
vn 0.1520 0.7640 -0.6270
vn 0.1520 0.7640 0.6270
vn 0.1252 0.6294 -0.7669
vn 0.1728 0.8687 0.4643
vn 0.0934 0.4693 -0.8781
vn 0.1870 0.9401 0.2852
vn 0.0576 0.2898 -0.9553
vn 0.1942 0.9762 0.0961
vn 0.0195 0.0980 0.9950
vn 0.0195 0.0980 -0.9950
vn 0.1942 0.9762 -0.0961
vn 0.0576 0.2898 0.9553
vn 0.1870 0.9401 -0.2852
vn 0.5530 0.8276 -0.0962
vn 0.1642 0.2457 0.9553
vn 0.5325 0.7969 -0.2852
vn 0.2659 0.3979 0.8781
vn 0.4921 0.7364 -0.4643
vn 0.3565 0.5336 0.7669
vn 0.4328 0.6477 -0.6270
vn 0.4328 0.6477 0.6270
vn 0.3565 0.5336 -0.7669
vn 0.4921 0.7364 0.4643
vn 0.2659 0.3979 -0.8781
vn 0.5325 0.7969 0.2852
vn 0.1642 0.2457 -0.9553
vn 0.5530 0.8276 0.0962
vn 0.0555 0.0831 0.9950
vn 0.0555 0.0831 -0.9950
vn 0.5336 0.3565 -0.7669
vn 0.7364 0.4921 0.4643
vn 0.3979 0.2659 -0.8781
vn 0.7969 0.5325 0.2852
vn 0.2457 0.1642 -0.9553
vn 0.8276 0.5530 0.0962
vn 0.0831 0.0555 0.9950
vn 0.0831 0.0555 -0.9950
vn 0.8276 0.5530 -0.0962
vn 0.2457 0.1642 0.9553
vn 0.7969 0.5325 -0.2852
vn 0.3979 0.2659 0.8781
vn 0.7364 0.4921 -0.4643
vn 0.5336 0.3565 0.7669
vn 0.6477 0.4328 -0.6270
vn 0.6477 0.4328 0.6270
vn 0.9401 0.1870 -0.2852
vn 0.4693 0.0934 0.8781
vn 0.8687 0.1728 -0.4643
vn 0.6294 0.1252 0.7669
vn 0.7640 0.1520 -0.6270
vn 0.7640 0.1520 0.6270
vn 0.6294 0.1252 -0.7669
vn 0.8687 0.1728 0.4643
vn 0.4693 0.0934 -0.8781
vn 0.9401 0.1870 0.2852
vn 0.2898 0.0576 -0.9553
vn 0.9762 0.1942 0.0962
vn 0.0980 0.0195 0.9950
vn 0.0980 0.0195 -0.9950
vn 0.9762 0.1942 -0.0962
vn 0.2898 0.0576 0.9553
vn 0.4693 -0.0934 -0.8781
vn 0.9401 -0.1870 0.2852
vn 0.2898 -0.0576 -0.9553
vn 0.9762 -0.1942 0.0962
vn 0.0980 -0.0195 0.9950
vn 0.0980 -0.0195 -0.9950
vn 0.9762 -0.1942 -0.0962
vn 0.2898 -0.0576 0.9553
vn 0.9401 -0.1870 -0.2852
vn 0.4693 -0.0934 0.8781
vn 0.8687 -0.1728 -0.4643
vn 0.6294 -0.1252 0.7669
vn 0.7640 -0.1520 -0.6270
vn 0.7640 -0.1520 0.6270
vn 0.6294 -0.1252 -0.7669
vn 0.8687 -0.1728 0.4643
vn 0.3979 -0.2659 0.8781
vn 0.7364 -0.4921 -0.4643
vn 0.5336 -0.3565 0.7669
vn 0.6477 -0.4328 -0.6270
vn 0.6477 -0.4328 0.6270
vn 0.5336 -0.3565 -0.7669
vn 0.7364 -0.4921 0.4643
vn 0.3979 -0.2659 -0.8781
vn 0.7969 -0.5325 0.2852
vn 0.2457 -0.1642 -0.9553
vn 0.8276 -0.5530 0.0962
vn 0.0831 -0.0555 0.9950
vn 0.0831 -0.0555 -0.9950
vn 0.8276 -0.5530 -0.0962
vn 0.2457 -0.1642 0.9553
vn 0.7969 -0.5325 -0.2852
vn 0.5325 -0.7969 0.2852
vn 0.1642 -0.2457 -0.9553
vn 0.5530 -0.8276 0.0962
vn 0.0555 -0.0831 0.9950
vn 0.0555 -0.0831 -0.9950
vn 0.5530 -0.8276 -0.0962
vn 0.1642 -0.2457 0.9553
vn 0.5325 -0.7969 -0.2852
vn 0.2659 -0.3979 0.8781
vn 0.4921 -0.7364 -0.4643
vn 0.3565 -0.5336 0.7669
vn 0.4328 -0.6477 -0.6270
vn 0.4328 -0.6477 0.6270
vn 0.3565 -0.5336 -0.7669
vn 0.4921 -0.7364 0.4643
vn 0.2659 -0.3979 -0.8781
vn 0.1728 -0.8687 -0.4643
vn 0.1252 -0.6294 0.7669
vn 0.1520 -0.7640 -0.6270
vn 0.1520 -0.7640 0.6270
vn 0.1252 -0.6294 -0.7669
vn 0.1728 -0.8687 0.4643
vn 0.0934 -0.4693 -0.8781
vn 0.1870 -0.9401 0.2852
vn 0.0576 -0.2898 -0.9553
vn 0.1942 -0.9762 0.0962
vn 0.0195 -0.0980 0.9950
vn 0.0195 -0.0980 -0.9950
vn 0.1942 -0.9762 -0.0962
vn 0.0576 -0.2898 0.9553
vn 0.1870 -0.9401 -0.2852
vn 0.0934 -0.4693 0.8781
vn -0.0576 -0.2898 -0.9553
vn -0.1942 -0.9762 0.0962
vn -0.0195 -0.0980 0.9950
vn -0.0195 -0.0980 -0.9950
vn -0.1942 -0.9762 -0.0962
vn -0.0576 -0.2898 0.9553
vn -0.1870 -0.9401 -0.2852
vn -0.0934 -0.4693 0.8781
vn -0.1728 -0.8687 -0.4643
vn -0.1252 -0.6294 0.7669
vn -0.1520 -0.7640 -0.6270
vn -0.1520 -0.7640 0.6270
vn -0.1252 -0.6294 -0.7669
vn -0.1728 -0.8687 0.4643
vn -0.0934 -0.4693 -0.8781
vn -0.1870 -0.9401 0.2852
vn -0.3565 -0.5336 0.7669
vn -0.4328 -0.6477 -0.6270
vn -0.4328 -0.6477 0.6270
vn -0.3565 -0.5336 -0.7669
vn -0.4921 -0.7364 0.4643
vn -0.2659 -0.3979 -0.8781
vn -0.5325 -0.7969 0.2852
vn -0.1642 -0.2457 -0.9553
vn -0.5530 -0.8276 0.0962
vn -0.0555 -0.0831 0.9950
vn -0.0555 -0.0831 -0.9950
vn -0.5530 -0.8276 -0.0962
vn -0.1642 -0.2457 0.9553
vn -0.5325 -0.7969 -0.2852
vn -0.2659 -0.3979 0.8781
vn -0.4921 -0.7364 -0.4643
vn -0.8276 -0.5530 0.0962
vn -0.0831 -0.0555 0.9950
vn -0.0831 -0.0555 -0.9950
vn -0.8276 -0.5530 -0.0962
vn -0.2457 -0.1642 0.9553
vn -0.7969 -0.5325 -0.2852
vn -0.3979 -0.2659 0.8781
vn -0.7364 -0.4921 -0.4643
vn -0.5336 -0.3565 0.7669
vn -0.6477 -0.4328 -0.6270
vn -0.6477 -0.4328 0.6270
vn -0.5336 -0.3565 -0.7669
vn -0.7364 -0.4921 0.4643
vn -0.3979 -0.2659 -0.8781
vn -0.7969 -0.5325 0.2852
vn -0.2457 -0.1642 -0.9553
vn -0.7640 -0.1520 -0.6270
vn -0.7640 -0.1520 0.6270
vn -0.6294 -0.1252 -0.7669
vn -0.8687 -0.1728 0.4643
vn -0.4693 -0.0934 -0.8781
vn -0.9401 -0.1870 0.2852
vn -0.2898 -0.0576 -0.9553
vn -0.9762 -0.1942 0.0962
vn -0.0980 -0.0195 0.9950
vn -0.0980 -0.0195 -0.9950
vn -0.9762 -0.1942 -0.0962
vn -0.2898 -0.0576 0.9553
vn -0.9401 -0.1870 -0.2852
vn -0.4693 -0.0934 0.8781
vn -0.8687 -0.1728 -0.4643
vn -0.6294 -0.1252 0.7669
vn -0.0980 0.0195 -0.9950
vn -0.9762 0.1942 -0.0962
vn -0.2898 0.0576 0.9553
vn -0.9401 0.1870 -0.2852
vn -0.4693 0.0934 0.8781
vn -0.8687 0.1728 -0.4643
vn -0.6294 0.1252 0.7669
vn -0.7640 0.1520 -0.6270
vn -0.7640 0.1520 0.6270
vn -0.6294 0.1252 -0.7669
vn -0.8687 0.1728 0.4643
vn -0.4693 0.0934 -0.8781
vn -0.9401 0.1870 0.2852
vn -0.2898 0.0576 -0.9553
vn -0.9762 0.1942 0.0962
vn -0.0980 0.0195 0.9950
vn -0.5336 0.3565 -0.7669
vn -0.7364 0.4921 0.4643
vn -0.3979 0.2659 -0.8781
vn -0.7969 0.5325 0.2852
vn -0.2457 0.1642 -0.9553
vn -0.8276 0.5530 0.0962
vn -0.0831 0.0555 0.9950
vn -0.0831 0.0555 -0.9950
vn -0.8276 0.5530 -0.0962
vn -0.2457 0.1642 0.9553
vn -0.7969 0.5325 -0.2852
vn -0.3979 0.2659 0.8781
vn -0.7364 0.4921 -0.4643
vn -0.5336 0.3565 0.7669
vn -0.6477 0.4328 -0.6270
vn -0.6477 0.4328 0.6270
vn -0.1642 0.2457 0.9553
vn -0.5325 0.7969 -0.2852
vn -0.2659 0.3979 0.8781
vn -0.4921 0.7364 -0.4643
vn -0.3565 0.5336 0.7669
vn -0.4328 0.6477 -0.6270
vn -0.4328 0.6477 0.6270
vn -0.3565 0.5336 -0.7669
vn -0.4921 0.7364 0.4643
vn -0.2659 0.3979 -0.8781
vn -0.5325 0.7969 0.2852
vn -0.1642 0.2457 -0.9553
vn -0.5530 0.8276 0.0962
vn -0.0555 0.0831 0.9950
vn -0.0555 0.0831 -0.9950
vn -0.5530 0.8276 -0.0962
vn -0.1728 0.8687 0.4643
vn -0.0934 0.4693 -0.8781
vn -0.1870 0.9401 0.2852
vn -0.0576 0.2898 -0.9553
vn -0.1942 0.9762 0.0961
vn -0.0195 0.0980 0.9950
vn -0.0195 0.0980 -0.9950
vn -0.1942 0.9762 -0.0961
vn -0.0576 0.2898 0.9553
vn -0.1870 0.9401 -0.2852
vn -0.0934 0.4693 0.8781
vn -0.1728 0.8687 -0.4643
vn -0.1252 0.6294 0.7669
vn -0.1520 0.7640 -0.6270
vn -0.1520 0.7640 0.6270
vn -0.1252 0.6294 -0.7669
vt 0.750000 0.812500
vt 0.750000 0.875000
vt 0.687500 0.875000
vt 0.687500 0.812500
vt 0.750000 0.312500
vt 0.750000 0.375000
vt 0.687500 0.375000
vt 0.687500 0.312500
vt 0.750000 0.750000
vt 0.687500 0.750000
vt 0.750000 0.250000
vt 0.687500 0.250000
vt 0.750000 0.687500
vt 0.687500 0.687500
vt 0.750000 0.187500
vt 0.687500 0.187500
vt 0.750000 0.625000
vt 0.687500 0.625000
vt 0.750000 0.125000
vt 0.687500 0.125000
vt 0.750000 0.562500
vt 0.687500 0.562500
vt 0.750000 0.062500
vt 0.687500 0.062500
vt 0.750000 0.500000
vt 0.687500 0.500000
vt 0.750000 0.937500
vt 0.718750 1.000000
vt 0.687500 0.937500
vt 0.718750 0.000000
vt 0.750000 0.437500
vt 0.687500 0.437500
vt 0.625000 0.500000
vt 0.625000 0.437500
vt 0.625000 0.937500
vt 0.625000 0.875000
vt 0.625000 0.375000
vt 0.625000 0.812500
vt 0.625000 0.312500
vt 0.625000 0.750000
vt 0.625000 0.250000
vt 0.625000 0.687500
vt 0.625000 0.187500
vt 0.625000 0.625000
vt 0.625000 0.125000
vt 0.625000 0.562500
vt 0.625000 0.062500
vt 0.656250 1.000000
vt 0.656250 0.000000
vt 0.562500 0.250000
vt 0.562500 0.187500
vt 0.562500 0.687500
vt 0.562500 0.625000
vt 0.562500 0.125000
vt 0.562500 0.562500
vt 0.562500 0.062500
vt 0.562500 0.500000
vt 0.593750 1.000000
vt 0.562500 0.937500
vt 0.593750 0.000000
vt 0.562500 0.437500
vt 0.562500 0.875000
vt 0.562500 0.375000
vt 0.562500 0.812500
vt 0.562500 0.312500
vt 0.562500 0.750000
vt 0.500000 0.437500
vt 0.500000 0.375000
vt 0.500000 0.875000
vt 0.500000 0.812500
vt 0.500000 0.312500
vt 0.500000 0.750000
vt 0.500000 0.250000
vt 0.500000 0.687500
vt 0.500000 0.187500
vt 0.500000 0.625000
vt 0.500000 0.125000
vt 0.500000 0.562500
vt 0.500000 0.062500
vt 0.500000 0.500000
vt 0.531250 1.000000
vt 0.500000 0.937500
vt 0.531250 0.000000
vt 0.437500 0.187500
vt 0.437500 0.125000
vt 0.437500 0.625000
vt 0.437500 0.562500
vt 0.437500 0.062500
vt 0.437500 0.500000
vt 0.468750 1.000000
vt 0.437500 0.937500
vt 0.468750 0.000000
vt 0.437500 0.437500
vt 0.437500 0.875000
vt 0.437500 0.375000
vt 0.437500 0.812500
vt 0.437500 0.312500
vt 0.437500 0.750000
vt 0.437500 0.250000
vt 0.437500 0.687500
vt 0.375000 0.875000
vt 0.375000 0.812500
vt 0.375000 0.375000
vt 0.375000 0.312500
vt 0.375000 0.750000
vt 0.375000 0.250000
vt 0.375000 0.687500
vt 0.375000 0.187500
vt 0.375000 0.625000
vt 0.375000 0.125000
vt 0.375000 0.562500
vt 0.375000 0.062500
vt 0.375000 0.500000
vt 0.406250 1.000000
vt 0.375000 0.937500
vt 0.406250 0.000000
vt 0.375000 0.437500
vt 0.312500 0.625000
vt 0.312500 0.562500
vt 0.312500 0.125000
vt 0.312500 0.062500
vt 0.312500 0.500000
vt 0.343750 1.000000
vt 0.312500 0.937500
vt 0.343750 0.000000
vt 0.312500 0.437500
vt 0.312500 0.875000
vt 0.312500 0.375000
vt 0.312500 0.812500
vt 0.312500 0.312500
vt 0.312500 0.750000
vt 0.312500 0.250000
vt 0.312500 0.687500
vt 0.312500 0.187500
vt 0.250000 0.375000
vt 0.250000 0.312500
vt 0.250000 0.812500
vt 0.250000 0.750000
vt 0.250000 0.250000
vt 0.250000 0.687500
vt 0.250000 0.187500
vt 0.250000 0.625000
vt 0.250000 0.125000
vt 0.250000 0.562500
vt 0.250000 0.062500
vt 0.250000 0.500000
vt 0.281250 1.000000
vt 0.250000 0.937500
vt 0.281250 0.000000
vt 0.250000 0.437500
vt 0.250000 0.875000
vt 0.187500 0.125000
vt 0.187500 0.062500
vt 0.187500 0.562500
vt 0.187500 0.500000
vt 0.218750 1.000000
vt 0.187500 0.937500
vt 0.218750 0.000000
vt 0.187500 0.437500
vt 0.187500 0.875000
vt 0.187500 0.375000
vt 0.187500 0.812500
vt 0.187500 0.312500
vt 0.187500 0.750000
vt 0.187500 0.250000
vt 0.187500 0.687500
vt 0.187500 0.187500
vt 0.187500 0.625000
vt 0.125000 0.812500
vt 0.125000 0.750000
vt 0.125000 0.312500
vt 0.125000 0.250000
vt 0.125000 0.687500
vt 0.125000 0.187500
vt 0.125000 0.625000
vt 0.125000 0.125000
vt 0.125000 0.562500
vt 0.125000 0.062500
vt 0.125000 0.500000
vt 0.156250 1.000000
vt 0.125000 0.937500
vt 0.156250 0.000000
vt 0.125000 0.437500
vt 0.125000 0.875000
vt 0.125000 0.375000
vt 0.062500 0.562500
vt 0.062500 0.500000
vt 0.093750 1.000000
vt 0.062500 0.937500
vt 0.093750 0.000000
vt 0.062500 0.062500
vt 0.062500 0.437500
vt 0.062500 0.875000
vt 0.062500 0.375000
vt 0.062500 0.812500
vt 0.062500 0.312500
vt 0.062500 0.750000
vt 0.062500 0.250000
vt 0.062500 0.687500
vt 0.062500 0.187500
vt 0.062500 0.625000
vt 0.062500 0.125000
vt 0.000000 0.312500
vt 0.000000 0.250000
vt 0.000000 0.750000
vt 0.000000 0.687500
vt 0.000000 0.187500
vt 0.000000 0.625000
vt 0.000000 0.125000
vt 0.000000 0.562500
vt 0.000000 0.062500
vt 0.000000 0.500000
vt 0.031250 1.000000
vt 0.000000 0.937500
vt 0.031250 0.000000
vt 0.000000 0.437500
vt 0.000000 0.875000
vt 0.000000 0.375000
vt 0.000000 0.812500
vt 0.968750 0.000000
vt 1.000000 0.062500
vt 0.937500 0.062500
vt 1.000000 0.437500
vt 1.000000 0.500000
vt 0.937500 0.500000
vt 0.937500 0.437500
vt 1.000000 0.875000
vt 1.000000 0.937500
vt 0.937500 0.937500
vt 0.937500 0.875000
vt 1.000000 0.375000
vt 0.937500 0.375000
vt 1.000000 0.812500
vt 0.937500 0.812500
vt 1.000000 0.312500
vt 0.937500 0.312500
vt 1.000000 0.750000
vt 0.937500 0.750000
vt 1.000000 0.250000
vt 0.937500 0.250000
vt 1.000000 0.687500
vt 0.937500 0.687500
vt 1.000000 0.187500
vt 0.937500 0.187500
vt 1.000000 0.625000
vt 0.937500 0.625000
vt 1.000000 0.125000
vt 0.937500 0.125000
vt 1.000000 0.562500
vt 0.937500 0.562500
vt 0.968750 1.000000
vt 0.875000 0.250000
vt 0.875000 0.187500
vt 0.875000 0.687500
vt 0.875000 0.625000
vt 0.875000 0.125000
vt 0.875000 0.562500
vt 0.875000 0.062500
vt 0.875000 0.500000
vt 0.906250 1.000000
vt 0.875000 0.937500
vt 0.906250 0.000000
vt 0.875000 0.437500
vt 0.875000 0.875000
vt 0.875000 0.375000
vt 0.875000 0.812500
vt 0.875000 0.312500
vt 0.875000 0.750000
vt 0.812500 0.937500
vt 0.812500 0.875000
vt 0.812500 0.437500
vt 0.812500 0.375000
vt 0.812500 0.812500
vt 0.812500 0.312500
vt 0.812500 0.750000
vt 0.812500 0.250000
vt 0.812500 0.687500
vt 0.812500 0.187500
vt 0.812500 0.625000
vt 0.812500 0.125000
vt 0.812500 0.562500
vt 0.812500 0.062500
vt 0.812500 0.500000
vt 0.843750 1.000000
vt 0.843750 0.000000
vt 0.781250 1.000000
vt 0.781250 0.000000
s 0
usemtl RogueW_Iron
f 270/67/19 269/68/19 45/69/19 46/70/19
f 39/71/20 273/72/20 53/73/20 54/74/20
f 35/75/21 270/67/21 46/70/21 47/76/21
f 274/77/22 39/71/22 54/74/22 55/78/22
f 271/79/23 35/75/23 47/76/23 48/80/23
f 40/81/24 274/77/24 55/78/24 56/82/24
f 36/83/25 271/79/25 48/80/25 49/84/25
f 41/85/26 40/81/26 56/82/26 57/86/26
f 37/87/27 36/83/27 49/84/27 50/88/27
f 42/89/28 41/85/28 57/86/28 58/90/28
f 272/91/29 37/87/29 50/88/29 51/92/29
f 34/93/30 33/94/30 44/95/30
f 43/96/31 42/89/31 58/90/31
f 38/97/32 272/91/32 51/92/32 52/98/32
f 269/68/33 34/93/33 44/95/33 45/69/33
f 273/72/34 38/97/34 52/98/34 53/73/34
f 52/98/35 51/92/35 66/99/35 67/100/35
f 45/69/36 44/95/36 59/101/36 60/102/36
f 53/73/37 52/98/37 67/100/37 68/103/37
f 46/70/38 45/69/38 60/102/38 61/104/38
f 54/74/39 53/73/39 68/103/39 69/105/39
f 47/76/40 46/70/40 61/104/40 62/106/40
f 55/78/41 54/74/41 69/105/41 70/107/41
f 48/80/42 47/76/42 62/106/42 63/108/42
f 56/82/43 55/78/43 70/107/43 71/109/43
f 49/84/44 48/80/44 63/108/44 64/110/44
f 57/86/45 56/82/45 71/109/45 72/111/45
f 50/88/46 49/84/46 64/110/46 65/112/46
f 58/90/47 57/86/47 72/111/47 73/113/47
f 51/92/48 50/88/48 65/112/48 66/99/48
f 44/95/49 33/114/49 59/101/49
f 43/115/50 58/90/50 73/113/50
f 71/109/51 70/107/51 85/116/51 86/117/51
f 64/110/52 63/108/52 78/118/52 79/119/52
f 72/111/53 71/109/53 86/117/53 87/120/53
f 65/112/54 64/110/54 79/119/54 80/121/54
f 73/113/55 72/111/55 87/120/55 88/122/55
f 66/99/56 65/112/56 80/121/56 81/123/56
f 59/101/57 33/124/57 74/125/57
f 43/126/58 73/113/58 88/122/58
f 67/100/59 66/99/59 81/123/59 82/127/59
f 60/102/60 59/101/60 74/125/60 75/128/60
f 68/103/61 67/100/61 82/127/61 83/129/61
f 61/104/62 60/102/62 75/128/62 76/130/62
f 69/105/63 68/103/63 83/129/63 84/131/63
f 62/106/64 61/104/64 76/130/64 77/132/64
f 70/107/65 69/105/65 84/131/65 85/116/65
f 63/108/66 62/106/66 77/132/66 78/118/66
f 83/129/67 82/127/67 97/133/67 98/134/67
f 76/130/68 75/128/68 90/135/68 91/136/68
f 84/131/69 83/129/69 98/134/69 99/137/69
f 77/132/70 76/130/70 91/136/70 92/138/70
f 85/116/71 84/131/71 99/137/71 100/139/71
f 78/118/72 77/132/72 92/138/72 93/140/72
f 86/117/73 85/116/73 100/139/73 101/141/73
f 79/119/74 78/118/74 93/140/74 94/142/74
f 87/120/75 86/117/75 101/141/75 102/143/75
f 80/121/76 79/119/76 94/142/76 95/144/76
f 88/122/77 87/120/77 102/143/77 103/145/77
f 81/123/78 80/121/78 95/144/78 96/146/78
f 74/125/79 33/147/79 89/148/79
f 43/149/80 88/122/80 103/145/80
f 82/127/81 81/123/81 96/146/81 97/133/81
f 75/128/82 74/125/82 89/148/82 90/135/82
f 102/143/83 101/141/83 116/150/83 117/151/83
f 95/144/84 94/142/84 109/152/84 110/153/84
f 103/145/85 102/143/85 117/151/85 118/154/85
f 96/146/86 95/144/86 110/153/86 111/155/86
f 89/148/87 33/156/87 104/157/87
f 43/158/88 103/145/88 118/154/88
f 97/133/89 96/146/89 111/155/89 112/159/89
f 90/135/90 89/148/90 104/157/90 105/160/90
f 98/134/91 97/133/91 112/159/91 113/161/91
f 91/136/92 90/135/92 105/160/92 106/162/92
f 99/137/93 98/134/93 113/161/93 114/163/93
f 92/138/94 91/136/94 106/162/94 107/164/94
f 100/139/95 99/137/95 114/163/95 115/165/95
f 93/140/96 92/138/96 107/164/96 108/166/96
f 101/141/97 100/139/97 115/165/97 116/150/97
f 94/142/98 93/140/98 108/166/98 109/152/98
f 106/162/99 105/160/99 120/167/99 121/168/99
f 114/163/100 113/161/100 128/169/100 129/170/100
f 107/164/101 106/162/101 121/168/101 122/171/101
f 115/165/102 114/163/102 129/170/102 130/172/102
f 108/166/103 107/164/103 122/171/103 123/173/103
f 116/150/104 115/165/104 130/172/104 131/174/104
f 109/152/105 108/166/105 123/173/105 124/175/105
f 117/151/106 116/150/106 131/174/106 132/176/106
f 110/153/107 109/152/107 124/175/107 125/177/107
f 118/154/108 117/151/108 132/176/108 133/178/108
f 111/155/109 110/153/109 125/177/109 126/179/109
f 104/157/110 33/180/110 119/181/110
f 43/182/111 118/154/111 133/178/111
f 112/159/112 111/155/112 126/179/112 127/183/112
f 105/160/113 104/157/113 119/181/113 120/167/113
f 113/161/114 112/159/114 127/183/114 128/169/114
f 125/177/115 124/175/115 139/184/115 140/185/115
f 133/178/116 132/176/116 147/186/116 148/187/116
f 126/179/117 125/177/117 140/185/117 141/188/117
f 119/181/118 33/189/118 134/190/118
f 43/191/119 133/178/119 148/187/119
f 127/183/120 126/179/120 141/188/120 142/192/120
f 120/167/121 119/181/121 134/190/121 135/193/121
f 128/169/122 127/183/122 142/192/122 143/194/122
f 121/168/123 120/167/123 135/193/123 136/195/123
f 129/170/124 128/169/124 143/194/124 144/196/124
f 122/171/125 121/168/125 136/195/125 137/197/125
f 130/172/126 129/170/126 144/196/126 145/198/126
f 123/173/127 122/171/127 137/197/127 138/199/127
f 131/174/128 130/172/128 145/198/128 146/200/128
f 124/175/129 123/173/129 138/199/129 139/184/129
f 132/176/130 131/174/130 146/200/130 147/186/130
f 144/196/131 143/194/131 158/201/131 159/202/131
f 137/197/132 136/195/132 151/203/132 152/204/132
f 145/198/133 144/196/133 159/202/133 160/205/133
f 138/199/134 137/197/134 152/204/134 153/206/134
f 146/200/135 145/198/135 160/205/135 161/207/135
f 139/184/136 138/199/136 153/206/136 154/208/136
f 147/186/137 146/200/137 161/207/137 162/209/137
f 140/185/138 139/184/138 154/208/138 155/210/138
f 148/187/139 147/186/139 162/209/139 163/211/139
f 141/188/140 140/185/140 155/210/140 156/212/140
f 134/190/141 33/213/141 149/214/141
f 43/215/142 148/187/142 163/211/142
f 142/192/143 141/188/143 156/212/143 157/216/143
f 135/193/144 134/190/144 149/214/144 150/217/144
f 143/194/145 142/192/145 157/216/145 158/201/145
f 136/195/146 135/193/146 150/217/146 151/203/146
f 163/211/147 162/209/147 177/218/147 178/219/147
f 156/212/148 155/210/148 170/220/148 171/221/148
f 149/214/149 33/222/149 164/223/149
f 43/224/150 163/211/150 178/219/150
f 157/216/151 156/212/151 171/221/151 172/225/151
f 150/217/152 149/214/152 164/223/152 165/226/152
f 158/201/153 157/216/153 172/225/153 173/227/153
f 151/203/154 150/217/154 165/226/154 166/228/154
f 159/202/155 158/201/155 173/227/155 174/229/155
f 152/204/156 151/203/156 166/228/156 167/230/156
f 160/205/157 159/202/157 174/229/157 175/231/157
f 153/206/158 152/204/158 167/230/158 168/232/158
f 161/207/159 160/205/159 175/231/159 176/233/159
f 154/208/160 153/206/160 168/232/160 169/234/160
f 162/209/161 161/207/161 176/233/161 177/218/161
f 155/210/162 154/208/162 169/234/162 170/220/162
f 167/230/163 166/228/163 181/235/163 182/236/163
f 175/231/164 174/229/164 189/237/164 190/238/164
f 168/232/165 167/230/165 182/236/165 183/239/165
f 176/233/166 175/231/166 190/238/166 191/240/166
f 169/234/167 168/232/167 183/239/167 184/241/167
f 177/218/168 176/233/168 191/240/168 192/242/168
f 170/220/169 169/234/169 184/241/169 185/243/169
f 178/219/170 177/218/170 192/242/170 193/244/170
f 171/221/171 170/220/171 185/243/171 186/245/171
f 164/223/172 33/246/172 179/247/172
f 43/248/173 178/219/173 193/244/173
f 172/225/174 171/221/174 186/245/174 187/249/174
f 165/226/175 164/223/175 179/247/175 180/250/175
f 173/227/176 172/225/176 187/249/176 188/251/176
f 166/228/177 165/226/177 180/250/177 181/235/177
f 174/229/178 173/227/178 188/251/178 189/237/178
f 186/245/179 185/243/179 200/252/179 201/253/179
f 179/247/180 33/254/180 194/255/180
f 43/256/181 193/244/181 208/257/181
f 187/249/182 186/245/182 201/253/182 202/258/182
f 180/250/183 179/247/183 194/255/183 195/259/183
f 188/251/184 187/249/184 202/258/184 203/260/184
f 181/235/185 180/250/185 195/259/185 196/261/185
f 189/237/186 188/251/186 203/260/186 204/262/186
f 182/236/187 181/235/187 196/261/187 197/263/187
f 190/238/188 189/237/188 204/262/188 205/264/188
f 183/239/189 182/236/189 197/263/189 198/265/189
f 191/240/190 190/238/190 205/264/190 206/266/190
f 184/241/191 183/239/191 198/265/191 199/267/191
f 192/242/192 191/240/192 206/266/192 207/268/192
f 185/243/193 184/241/193 199/267/193 200/252/193
f 193/244/194 192/242/194 207/268/194 208/257/194
f 205/264/195 204/262/195 219/269/195 220/270/195
f 198/265/196 197/263/196 212/271/196 213/272/196
f 206/266/197 205/264/197 220/270/197 221/273/197
f 199/267/198 198/265/198 213/272/198 214/274/198
f 207/268/199 206/266/199 221/273/199 222/275/199
f 200/252/200 199/267/200 214/274/200 215/276/200
f 208/257/201 207/268/201 222/275/201 223/277/201
f 201/253/202 200/252/202 215/276/202 216/278/202
f 194/255/203 33/279/203 209/280/203
f 43/281/204 208/257/204 223/277/204
f 202/258/205 201/253/205 216/278/205 217/282/205
f 195/259/206 194/255/206 209/280/206 210/283/206
f 203/260/207 202/258/207 217/282/207 218/284/207
f 196/261/208 195/259/208 210/283/208 211/285/208
f 204/262/209 203/260/209 218/284/209 219/269/209
f 197/263/210 196/261/210 211/285/210 212/271/210
f 43/286/211 223/287/211 238/288/211
f 217/289/212 216/290/212 231/291/212 232/292/212
f 210/293/213 209/294/213 224/295/213 225/296/213
f 218/297/214 217/289/214 232/292/214 233/298/214
f 211/299/215 210/293/215 225/296/215 226/300/215
f 219/301/216 218/297/216 233/298/216 234/302/216
f 212/303/217 211/299/217 226/300/217 227/304/217
f 220/305/218 219/301/218 234/302/218 235/306/218
f 213/307/219 212/303/219 227/304/219 228/308/219
f 221/309/220 220/305/220 235/306/220 236/310/220
f 214/311/221 213/307/221 228/308/221 229/312/221
f 222/313/222 221/309/222 236/310/222 237/314/222
f 215/315/223 214/311/223 229/312/223 230/316/223
f 223/287/224 222/313/224 237/314/224 238/288/224
f 216/290/225 215/315/225 230/316/225 231/291/225
f 209/294/226 33/317/226 224/295/226
f 236/310/227 235/306/227 250/318/227 251/319/227
f 229/312/228 228/308/228 243/320/228 244/321/228
f 237/314/229 236/310/229 251/319/229 252/322/229
f 230/316/230 229/312/230 244/321/230 245/323/230
f 238/288/231 237/314/231 252/322/231 253/324/231
f 231/291/232 230/316/232 245/323/232 246/325/232
f 224/295/233 33/326/233 239/327/233
f 43/328/234 238/288/234 253/324/234
f 232/292/235 231/291/235 246/325/235 247/329/235
f 225/296/236 224/295/236 239/327/236 240/330/236
f 233/298/237 232/292/237 247/329/237 248/331/237
f 226/300/238 225/296/238 240/330/238 241/332/238
f 234/302/239 233/298/239 248/331/239 249/333/239
f 227/304/240 226/300/240 241/332/240 242/334/240
f 235/306/241 234/302/241 249/333/241 250/318/241
f 228/308/242 227/304/242 242/334/242 243/320/242
f 240/330/243 239/327/243 254/335/243 255/336/243
f 248/331/244 247/329/244 262/337/244 263/338/244
f 241/332/245 240/330/245 255/336/245 256/339/245
f 249/333/246 248/331/246 263/338/246 264/340/246
f 242/334/247 241/332/247 256/339/247 257/341/247
f 250/318/248 249/333/248 264/340/248 265/342/248
f 243/320/249 242/334/249 257/341/249 258/343/249
f 251/319/250 250/318/250 265/342/250 266/344/250
f 244/321/251 243/320/251 258/343/251 259/345/251
f 252/322/252 251/319/252 266/344/252 267/346/252
f 245/323/253 244/321/253 259/345/253 260/347/253
f 253/324/254 252/322/254 267/346/254 268/348/254
f 246/325/255 245/323/255 260/347/255 261/349/255
f 239/327/256 33/350/256 254/335/256
f 43/351/257 253/324/257 268/348/257
f 247/329/258 246/325/258 261/349/258 262/337/258
f 259/345/259 258/343/259 271/79/259 36/83/259
f 267/346/260 266/344/260 40/81/260 41/85/260
f 260/347/261 259/345/261 36/83/261 37/87/261
f 268/348/262 267/346/262 41/85/262 42/89/262
f 261/349/263 260/347/263 37/87/263 272/91/263
f 254/335/264 33/352/264 34/93/264
f 43/353/265 268/348/265 42/89/265
f 262/337/266 261/349/266 272/91/266 38/97/266
f 255/336/267 254/335/267 34/93/267 269/68/267
f 263/338/268 262/337/268 38/97/268 273/72/268
f 256/339/269 255/336/269 269/68/269 270/67/269
f 264/340/270 263/338/270 273/72/270 39/71/270
f 257/341/271 256/339/271 270/67/271 35/75/271
f 265/342/272 264/340/272 39/71/272 274/77/272
f 258/343/273 257/341/273 35/75/273 271/79/273
f 266/344/274 265/342/274 274/77/274 40/81/274
o Guard
v -0.020000 0.310000 -0.080000
v -0.020000 0.310000 0.080000
v -0.020000 0.350000 -0.080000
v -0.020000 0.350000 0.080000
v 0.020000 0.310000 -0.080000
v 0.020000 0.310000 0.080000
v 0.020000 0.350000 -0.080000
v 0.020000 0.350000 0.080000
vn -1.0000 -0.0000 -0.0000
vn -0.0000 1.0000 -0.0000
vn 1.0000 -0.0000 -0.0000
vn -0.0000 -1.0000 -0.0000
vn -0.0000 -0.0000 -1.0000
vn -0.0000 -0.0000 1.0000
vt 0.375000 0.000000
vt 0.625000 0.000000
vt 0.625000 0.250000
vt 0.375000 0.250000
vt 0.625000 0.500000
vt 0.375000 0.500000
vt 0.625000 0.750000
vt 0.375000 0.750000
vt 0.625000 1.000000
vt 0.375000 1.000000
vt 0.125000 0.500000
vt 0.125000 0.750000
vt 0.875000 0.500000
vt 0.875000 0.750000
s 0
usemtl RogueW_Iron
f 275/354/275 276/355/275 278/356/275 277/357/275
f 277/357/276 278/356/276 282/358/276 281/359/276
f 281/359/277 282/358/277 280/360/277 279/361/277
f 279/361/278 280/360/278 276/362/278 275/363/278
f 277/364/279 281/359/279 279/361/279 275/365/279
f 282/358/280 278/366/280 276/367/280 280/360/280
o Blade_Base
v -0.012500 0.331020 0.054768
v -0.012500 0.354314 0.141701
v -0.012500 0.765686 -0.061701
v -0.012500 0.788980 0.025232
v 0.012500 0.331020 0.054768
v 0.012500 0.354314 0.141701
v 0.012500 0.765686 -0.061701
v 0.012500 0.788980 0.025232
vn -1.0000 -0.0000 -0.0000
vn -0.0000 0.9659 -0.2588
vn 1.0000 -0.0000 -0.0000
vn -0.0000 -0.9659 0.2588
vn -0.0000 -0.2588 -0.9659
vn -0.0000 0.2588 0.9659
vt 0.375000 0.000000
vt 0.625000 0.000000
vt 0.625000 0.250000
vt 0.375000 0.250000
vt 0.625000 0.500000
vt 0.375000 0.500000
vt 0.625000 0.750000
vt 0.375000 0.750000
vt 0.625000 1.000000
vt 0.375000 1.000000
vt 0.125000 0.500000
vt 0.125000 0.750000
vt 0.875000 0.500000
vt 0.875000 0.750000
s 0
usemtl RogueW_Iron
f 283/368/281 284/369/281 286/370/281 285/371/281
f 285/371/282 286/370/282 290/372/282 289/373/282
f 289/373/283 290/372/283 288/374/283 287/375/283
f 287/375/284 288/374/284 284/376/284 283/377/284
f 285/378/285 289/373/285 287/375/285 283/379/285
f 290/372/286 286/380/286 284/381/286 288/374/286
o Blade_Poison_Edge
v -0.015000 0.353273 0.119863
v -0.015000 0.361038 0.148841
v -0.015000 0.758962 0.011159
v -0.015000 0.766727 0.040137
v 0.015000 0.353273 0.119863
v 0.015000 0.361038 0.148841
v 0.015000 0.758962 0.011159
v 0.015000 0.766727 0.040137
vn -1.0000 -0.0000 -0.0000
vn -0.0000 0.9659 -0.2588
vn 1.0000 -0.0000 -0.0000
vn -0.0000 -0.9659 0.2588
vn -0.0000 -0.2588 -0.9659
vn -0.0000 0.2588 0.9659
vt 0.375000 0.000000
vt 0.625000 0.000000
vt 0.625000 0.250000
vt 0.375000 0.250000
vt 0.625000 0.500000
vt 0.375000 0.500000
vt 0.625000 0.750000
vt 0.375000 0.750000
vt 0.625000 1.000000
vt 0.375000 1.000000
vt 0.125000 0.500000
vt 0.125000 0.750000
vt 0.875000 0.500000
vt 0.875000 0.750000
s 0
usemtl RogueW_Poison
f 291/382/287 292/383/287 294/384/287 293/385/287
f 293/385/288 294/384/288 298/386/288 297/387/288
f 297/387/289 298/386/289 296/388/289 295/389/289
f 295/389/290 296/388/290 292/390/290 291/391/290
f 293/392/291 297/387/291 295/389/291 291/393/291
f 298/386/292 294/394/292 292/395/292 296/388/292
o Blade_Tip
v 0.000000 0.789673 0.026950
v 0.015307 0.787179 0.028697
v 0.028284 0.780076 0.033670
v 0.036955 0.769446 0.041113
v 0.040000 0.756907 0.049893
v 0.036955 0.744368 0.058673
v 0.028284 0.733737 0.066116
v 0.015307 0.726635 0.071090
v 0.000000 0.724141 0.072836
v -0.015307 0.726635 0.071090
v -0.028284 0.733737 0.066116
v -0.036955 0.744368 0.058673
v -0.040000 0.756907 0.049893
v -0.036955 0.769446 0.041113
v -0.028284 0.780076 0.033670
v -0.015307 0.787179 0.028697
v 0.000000 0.883093 0.230107
vn 0.1921 0.8916 -0.4100
vn 0.5469 0.7712 -0.3257
vn 0.8186 0.5487 -0.1699
vn 0.9656 0.2580 0.0336
vn 0.9656 -0.0566 0.2540
vn 0.8186 -0.3473 0.4575
vn 0.5469 -0.5698 0.6133
vn 0.1921 -0.6902 0.6976
vn -0.1921 -0.6902 0.6976
vn -0.5469 -0.5698 0.6133
vn -0.8186 -0.3473 0.4575
vn -0.9656 -0.0566 0.2540
vn -0.9656 0.2580 0.0336
vn -0.8186 0.5487 -0.1699
vn -0.0000 -0.5736 -0.8192
vn -0.5469 0.7712 -0.3257
vn -0.1921 0.8916 -0.4100
vt 0.250000 0.490000
vt 0.250000 0.250000
vt 0.341844 0.471731
vt 0.419706 0.419706
vt 0.471731 0.341844
vt 0.490000 0.250000
vt 0.471731 0.158156
vt 0.419706 0.080294
vt 0.341844 0.028269
vt 0.250000 0.010000
vt 0.158156 0.028269
vt 0.080294 0.080294
vt 0.028269 0.158156
vt 0.010000 0.250000
vt 0.028269 0.341844
vt 0.080294 0.419706
vt 0.750000 0.490000
vt 0.841844 0.471731
vt 0.919706 0.419706
vt 0.971731 0.341844
vt 0.990000 0.250000
vt 0.971731 0.158156
vt 0.919706 0.080294
vt 0.841844 0.028269
vt 0.750000 0.010000
vt 0.658156 0.028269
vt 0.580294 0.080294
vt 0.528269 0.158156
vt 0.510000 0.250000
vt 0.528269 0.341844
vt 0.580294 0.419706
vt 0.658156 0.471731
vt 0.158156 0.471731
s 0
usemtl RogueW_Iron
f 299/396/293 315/397/293 300/398/293
f 300/398/294 315/397/294 301/399/294
f 301/399/295 315/397/295 302/400/295
f 302/400/296 315/397/296 303/401/296
f 303/401/297 315/397/297 304/402/297
f 304/402/298 315/397/298 305/403/298
f 305/403/299 315/397/299 306/404/299
f 306/404/300 315/397/300 307/405/300
f 307/405/301 315/397/301 308/406/301
f 308/406/302 315/397/302 309/407/302
f 309/407/303 315/397/303 310/408/303
f 310/408/304 315/397/304 311/409/304
f 311/409/305 315/397/305 312/410/305
f 312/410/306 315/397/306 313/411/306
f 299/412/307 300/413/307 301/414/307 302/415/307 303/416/307 304/417/307 305/418/307 306/419/307 307/420/307 308/421/307 309/422/307 310/423/307 311/424/307 312/425/307 313/426/307 314/427/307
f 313/411/308 315/397/308 314/428/308
f 314/428/309 315/397/309 299/396/309
