# Blender 5.2.1 LTS
# www.blender.org
mtllib rogue.mtl
o Cowl_Head
v -0.190000 0.540000 -0.210000
v -0.190000 0.540000 0.210000
v -0.190000 0.940000 -0.210000
v -0.190000 0.940000 0.210000
v 0.190000 0.540000 -0.210000
v 0.190000 0.540000 0.210000
v 0.190000 0.940000 -0.210000
v 0.190000 0.940000 0.210000
vn -1.0000 -0.0000 -0.0000
vn -0.0000 1.0000 -0.0000
vn 1.0000 -0.0000 -0.0000
vn -0.0000 -1.0000 -0.0000
vn -0.0000 -0.0000 -1.0000
vn -0.0000 -0.0000 1.0000
vt 0.375000 0.000000
vt 0.625000 0.000000
vt 0.625000 0.250000
vt 0.375000 0.250000
vt 0.625000 0.500000
vt 0.375000 0.500000
vt 0.625000 0.750000
vt 0.375000 0.750000
vt 0.625000 1.000000
vt 0.375000 1.000000
vt 0.125000 0.500000
vt 0.125000 0.750000
vt 0.875000 0.500000
vt 0.875000 0.750000
s 0
usemtl Rog_DarkCloth
f 1/1/1 2/2/1 4/3/1 3/4/1
f 3/4/2 4/3/2 8/5/2 7/6/2
f 7/6/3 8/5/3 6/7/3 5/8/3
f 5/8/4 6/7/4 2/9/4 1/10/4
f 3/11/5 7/6/5 5/8/5 1/12/5
f 8/5/6 4/13/6 2/14/6 6/7/6
o Face_Mask
v -0.170000 0.570000 0.120000
v -0.170000 0.570000 0.280000
v -0.170000 0.750000 0.120000
v -0.170000 0.750000 0.280000
v 0.170000 0.570000 0.120000
v 0.170000 0.570000 0.280000
v 0.170000 0.750000 0.120000
v 0.170000 0.750000 0.280000
vn -1.0000 -0.0000 -0.0000
vn -0.0000 1.0000 -0.0000
vn 1.0000 -0.0000 -0.0000
vn -0.0000 -1.0000 -0.0000
vn -0.0000 -0.0000 -1.0000
vn -0.0000 -0.0000 1.0000
vt 0.375000 0.000000
vt 0.625000 0.000000
vt 0.625000 0.250000
vt 0.375000 0.250000
vt 0.625000 0.500000
vt 0.375000 0.500000
vt 0.625000 0.750000
vt 0.375000 0.750000
vt 0.625000 1.000000
vt 0.375000 1.000000
vt 0.125000 0.500000
vt 0.125000 0.750000
vt 0.875000 0.500000
vt 0.875000 0.750000
s 0
usemtl Rog_Leather
f 9/15/7 10/16/7 12/17/7 11/18/7
f 11/18/8 12/17/8 16/19/8 15/20/8
f 15/20/9 16/19/9 14/21/9 13/22/9
f 13/22/10 14/21/10 10/23/10 9/24/10
f 11/25/11 15/20/11 13/22/11 9/26/11
f 16/19/12 12/27/12 10/28/12 14/21/12
o Eye_L
v -0.115000 0.745000 0.190000
v -0.115000 0.745000 0.230000
v -0.115000 0.775000 0.190000
v -0.115000 0.775000 0.230000
v -0.045000 0.745000 0.190000
v -0.045000 0.745000 0.230000
v -0.045000 0.775000 0.190000
v -0.045000 0.775000 0.230000
vn -1.0000 -0.0000 -0.0000
vn -0.0000 1.0000 -0.0000
vn 1.0000 -0.0000 -0.0000
vn -0.0000 -1.0000 -0.0000
vn -0.0000 -0.0000 -1.0000
vn -0.0000 -0.0000 1.0000
vt 0.375000 0.000000
vt 0.625000 0.000000
vt 0.625000 0.250000
vt 0.375000 0.250000
vt 0.625000 0.500000
vt 0.375000 0.500000
vt 0.625000 0.750000
vt 0.375000 0.750000
vt 0.625000 1.000000
vt 0.375000 1.000000
vt 0.125000 0.500000
vt 0.125000 0.750000
vt 0.875000 0.500000
vt 0.875000 0.750000
s 0
usemtl Rog_EyeGlow
f 17/29/13 18/30/13 20/31/13 19/32/13
f 19/32/14 20/31/14 24/33/14 23/34/14
f 23/34/15 24/33/15 22/35/15 21/36/15
f 21/36/16 22/35/16 18/37/16 17/38/16
f 19/39/17 23/34/17 21/36/17 17/40/17
f 24/33/18 20/41/18 18/42/18 22/35/18
o Eye_R
v 0.045000 0.745000 0.190000
v 0.045000 0.745000 0.230000
v 0.045000 0.775000 0.190000
v 0.045000 0.775000 0.230000
v 0.115000 0.745000 0.190000
v 0.115000 0.745000 0.230000
v 0.115000 0.775000 0.190000
v 0.115000 0.775000 0.230000
vn -1.0000 -0.0000 -0.0000
vn -0.0000 1.0000 -0.0000
vn 1.0000 -0.0000 -0.0000
vn -0.0000 -1.0000 -0.0000
vn -0.0000 -0.0000 -1.0000
vn -0.0000 -0.0000 1.0000
vt 0.375000 0.000000
vt 0.625000 0.000000
vt 0.625000 0.250000
vt 0.375000 0.250000
vt 0.625000 0.500000
vt 0.375000 0.500000
vt 0.625000 0.750000
vt 0.375000 0.750000
vt 0.625000 1.000000
vt 0.375000 1.000000
vt 0.125000 0.500000
vt 0.125000 0.750000
vt 0.875000 0.500000
vt 0.875000 0.750000
s 0
usemtl Rog_EyeGlow
f 25/43/19 26/44/19 28/45/19 27/46/19
f 27/46/20 28/45/20 32/47/20 31/48/20
f 31/48/21 32/47/21 30/49/21 29/50/21
f 29/50/22 30/49/22 26/51/22 25/52/22
f 27/53/23 31/48/23 29/50/23 25/54/23
f 32/47/24 28/55/24 26/56/24 30/49/24
o Torso_Vest
v -0.230000 0.080000 -0.140000
v -0.230000 0.080000 0.140000
v -0.230000 0.560000 -0.140000
v -0.230000 0.560000 0.140000
v 0.230000 0.080000 -0.140000
v 0.230000 0.080000 0.140000
v 0.230000 0.560000 -0.140000
v 0.230000 0.560000 0.140000
vn -1.0000 -0.0000 -0.0000
vn -0.0000 1.0000 -0.0000
vn 1.0000 -0.0000 -0.0000
vn -0.0000 -1.0000 -0.0000
vn -0.0000 -0.0000 -1.0000
vn -0.0000 -0.0000 1.0000
vt 0.375000 0.000000
vt 0.625000 0.000000
vt 0.625000 0.250000
vt 0.375000 0.250000
vt 0.625000 0.500000
vt 0.375000 0.500000
vt 0.625000 0.750000
vt 0.375000 0.750000
vt 0.625000 1.000000
vt 0.375000 1.000000
vt 0.125000 0.500000
vt 0.125000 0.750000
vt 0.875000 0.500000
vt 0.875000 0.750000
s 0
usemtl Rog_Leather
f 33/57/25 34/58/25 36/59/25 35/60/25
f 35/60/26 36/59/26 40/61/26 39/62/26
f 39/62/27 40/61/27 38/63/27 37/64/27
f 37/64/28 38/63/28 34/65/28 33/66/28
f 35/67/29 39/62/29 37/64/29 33/68/29
f 40/61/30 36/69/30 34/70/30 38/63/30
o Bandolier
v -0.155941 0.123354 -0.130000
v -0.155941 0.123354 0.170000
v 0.119617 0.564339 -0.130000
v 0.119617 0.564339 0.170000
v -0.079617 0.075661 -0.130000
v -0.079617 0.075661 0.170000
v 0.195941 0.516646 -0.130000
v 0.195941 0.516646 0.170000
vn -0.8480 0.5299 -0.0000
vn 0.5299 0.8480 -0.0000
vn 0.8480 -0.5299 -0.0000
vn -0.5299 -0.8480 -0.0000
vn -0.0000 -0.0000 -1.0000
vn -0.0000 -0.0000 1.0000
vt 0.375000 0.000000
vt 0.625000 0.000000
vt 0.625000 0.250000
vt 0.375000 0.250000
vt 0.625000 0.500000
vt 0.375000 0.500000
vt 0.625000 0.750000
vt 0.375000 0.750000
vt 0.625000 1.000000
vt 0.375000 1.000000
vt 0.125000 0.500000
vt 0.125000 0.750000
vt 0.875000 0.500000
vt 0.875000 0.750000
s 0
usemtl Rog_DarkCloth
f 41/71/31 42/72/31 44/73/31 43/74/31
f 43/74/32 44/73/32 48/75/32 47/76/32
f 47/76/33 48/75/33 46/77/33 45/78/33
f 45/78/34 46/77/34 42/79/34 41/80/34
f 43/81/35 47/76/35 45/78/35 41/82/35
f 48/75/36 44/83/36 42/84/36 46/77/36
o Throwing_Knife_0
v -0.019217 0.185546 -0.130000
v -0.019217 0.185546 0.190000
v 0.033775 0.270351 -0.130000
v 0.033775 0.270351 0.190000
v 0.006225 0.169649 -0.130000
v 0.006225 0.169649 0.190000
v 0.059217 0.254454 -0.130000
v 0.059217 0.254454 0.190000
vn -0.8480 0.5299 -0.0000
vn 0.5299 0.8480 -0.0000
vn 0.8480 -0.5299 -0.0000
vn -0.5299 -0.8480 -0.0000
vn -0.0000 -0.0000 -1.0000
vn -0.0000 -0.0000 1.0000
vt 0.375000 0.000000
vt 0.625000 0.000000
vt 0.625000 0.250000
vt 0.375000 0.250000
vt 0.625000 0.500000
vt 0.375000 0.500000
vt 0.625000 0.750000
vt 0.375000 0.750000
vt 0.625000 1.000000
vt 0.375000 1.000000
vt 0.125000 0.500000
vt 0.125000 0.750000
vt 0.875000 0.500000
vt 0.875000 0.750000
s 0
usemtl Rog_BuckleGold
f 49/85/37 50/86/37 52/87/37 51/88/37
f 51/88/38 52/87/38 56/89/38 55/90/38
f 55/90/39 56/89/39 54/91/39 53/92/39
f 53/92/40 54/91/40 50/93/40 49/94/40
f 51/95/41 55/90/41 53/92/41 49/96/41
f 56/89/42 52/97/42 50/98/42 54/91/42
o Throwing_Knife_1
v 0.020783 0.305546 -0.130000
v 0.020783 0.305546 0.190000
v 0.073775 0.390351 -0.130000
v 0.073775 0.390351 0.190000
v 0.046225 0.289649 -0.130000
v 0.046225 0.289649 0.190000
v 0.099217 0.374454 -0.130000
v 0.099217 0.374454 0.190000
vn -0.8480 0.5299 -0.0000
vn 0.5299 0.8480 -0.0000
vn 0.8480 -0.5299 -0.0000
vn -0.5299 -0.8480 -0.0000
vn -0.0000 -0.0000 -1.0000
vn -0.0000 -0.0000 1.0000
vt 0.375000 0.000000
vt 0.625000 0.000000
vt 0.625000 0.250000
vt 0.375000 0.250000
vt 0.625000 0.500000
vt 0.375000 0.500000
vt 0.625000 0.750000
vt 0.375000 0.750000
vt 0.625000 1.000000
vt 0.375000 1.000000
vt 0.125000 0.500000
vt 0.125000 0.750000
vt 0.875000 0.500000
vt 0.875000 0.750000
s 0
usemtl Rog_BuckleGold
f 57/99/43 58/100/43 60/101/43 59/102/43
f 59/102/44 60/101/44 64/103/44 63/104/44
f 63/104/45 64/103/45 62/105/45 61/106/45
f 61/106/46 62/105/46 58/107/46 57/108/46
f 59/109/47 63/104/47 61/106/47 57/110/47
f 64/103/48 60/111/48 58/112/48 62/105/48
o Throwing_Knife_2
v 0.060783 0.425546 -0.130000
v 0.060783 0.425546 0.190000
v 0.113775 0.510351 -0.130000
v 0.113775 0.510351 0.190000
v 0.086225 0.409649 -0.130000
v 0.086225 0.409649 0.190000
v 0.139217 0.494454 -0.130000
v 0.139217 0.494454 0.190000
vn -0.8480 0.5299 -0.0000
vn 0.5299 0.8480 -0.0000
vn 0.8480 -0.5299 -0.0000
vn -0.5299 -0.8480 -0.0000
vn -0.0000 -0.0000 -1.0000
vn -0.0000 -0.0000 1.0000
vt 0.375000 0.000000
vt 0.625000 0.000000
vt 0.625000 0.250000
vt 0.375000 0.250000
vt 0.625000 0.500000
vt 0.375000 0.500000
vt 0.625000 0.750000
vt 0.375000 0.750000
vt 0.625000 1.000000
vt 0.375000 1.000000
vt 0.125000 0.500000
vt 0.125000 0.750000
vt 0.875000 0.500000
vt 0.875000 0.750000
s 0
usemtl Rog_BuckleGold
f 65/113/49 66/114/49 68/115/49 67/116/49
f 67/116/50 68/115/50 72/117/50 71/118/50
f 71/118/51 72/117/51 70/119/51 69/120/51
f 69/120/52 70/119/52 66/121/52 65/122/52
f 67/123/53 71/118/53 69/120/53 65/124/53
f 72/117/54 68/125/54 66/126/54 70/119/54
o Shoulder_Capelet
v -0.305659 0.346058 -0.220000
v -0.305659 0.346058 0.060000
v -0.269474 0.603528 -0.220000
v -0.269474 0.603528 0.060000
v 0.189474 0.276472 -0.220000
v 0.189474 0.276472 0.060000
v 0.225659 0.533942 -0.220000
v 0.225659 0.533942 0.060000
vn -0.9903 0.1392 -0.0000
vn 0.1392 0.9903 -0.0000
vn 0.9903 -0.1392 -0.0000
vn -0.1392 -0.9903 -0.0000
vn -0.0000 -0.0000 -1.0000
vn -0.0000 -0.0000 1.0000
vt 0.375000 0.000000
vt 0.625000 0.000000
vt 0.625000 0.250000
vt 0.375000 0.250000
vt 0.625000 0.500000
vt 0.375000 0.500000
vt 0.625000 0.750000
vt 0.375000 0.750000
vt 0.625000 1.000000
vt 0.375000 1.000000
vt 0.125000 0.500000
vt 0.125000 0.750000
vt 0.875000 0.500000
vt 0.875000 0.750000
s 0
usemtl Rog_DarkCloth
f 73/127/55 74/128/55 76/129/55 75/130/55
f 75/130/56 76/129/56 80/131/56 79/132/56
f 79/132/57 80/131/57 78/133/57 77/134/57
f 77/134/58 78/133/58 74/135/58 73/136/58
f 75/137/59 79/132/59 77/134/59 73/138/59
f 80/131/60 76/139/60 74/140/60 78/133/60
o Arm_L
v -0.300000 0.270000 -0.140000
v -0.300000 0.270000 0.140000
v -0.273212 0.264672 -0.140000
v -0.273212 0.264672 0.140000
v -0.250503 0.249497 -0.140000
v -0.250503 0.249497 0.140000
v -0.235328 0.226788 -0.140000
v -0.235328 0.226788 0.140000
v -0.230000 0.200000 -0.140000
v -0.230000 0.200000 0.140000
v -0.235328 0.173212 -0.140000
v -0.235328 0.173212 0.140000
v -0.250503 0.150503 -0.140000
v -0.250503 0.150503 0.140000
v -0.273212 0.135328 -0.140000
v -0.273212 0.135328 0.140000
v -0.300000 0.130000 -0.140000
v -0.300000 0.130000 0.140000
v -0.326788 0.135328 -0.140000
v -0.326788 0.135328 0.140000
v -0.349497 0.150503 -0.140000
v -0.349497 0.150503 0.140000
v -0.364672 0.173212 -0.140000
v -0.364672 0.173212 0.140000
v -0.370000 0.200000 -0.140000
v -0.370000 0.200000 0.140000
v -0.364672 0.226788 -0.140000
v -0.364672 0.226788 0.140000
v -0.349497 0.249497 -0.140000
v -0.349497 0.249497 0.140000
v -0.326788 0.264672 -0.140000
v -0.326788 0.264672 0.140000
vn 0.1951 0.9808 -0.0000
vn 0.5556 0.8315 -0.0000
vn 0.8315 0.5556 -0.0000
vn 0.9808 0.1951 -0.0000
vn 0.9808 -0.1951 -0.0000
vn 0.8315 -0.5556 -0.0000
vn 0.5556 -0.8315 -0.0000
vn 0.1951 -0.9808 -0.0000
vn -0.1951 -0.9808 -0.0000
vn -0.5556 -0.8315 -0.0000
vn -0.8315 -0.5556 -0.0000
vn -0.9808 -0.1951 -0.0000
vn -0.9808 0.1951 -0.0000
vn -0.8315 0.5556 -0.0000
vn -0.0000 -0.0000 1.0000
vn -0.5556 0.8315 -0.0000
vn -0.1951 0.9808 -0.0000
vn -0.0000 -0.0000 -1.0000
vt 1.000000 0.500000
vt 1.000000 1.000000
vt 0.937500 1.000000
vt 0.937500 0.500000
vt 0.875000 1.000000
vt 0.875000 0.500000
vt 0.812500 1.000000
vt 0.812500 0.500000
vt 0.750000 1.000000
vt 0.750000 0.500000
vt 0.687500 1.000000
vt 0.687500 0.500000
vt 0.625000 1.000000
vt 0.625000 0.500000
vt 0.562500 1.000000
vt 0.562500 0.500000
vt 0.500000 1.000000
vt 0.500000 0.500000
vt 0.437500 1.000000
vt 0.437500 0.500000
vt 0.375000 1.000000
vt 0.375000 0.500000
vt 0.312500 1.000000
vt 0.312500 0.500000
vt 0.250000 1.000000
vt 0.250000 0.500000
vt 0.187500 1.000000
vt 0.187500 0.500000
vt 0.125000 1.000000
vt 0.125000 0.500000
vt 0.341844 0.471731
vt 0.250000 0.490000
vt 0.158156 0.471731
vt 0.080294 0.419706
vt 0.028269 0.341844
vt 0.010000 0.250000
vt 0.028269 0.158156
vt 0.080294 0.080294
vt 0.158156 0.028269
vt 0.250000 0.010000
vt 0.341844 0.028269
vt 0.419706 0.080294
vt 0.471731 0.158156
vt 0.490000 0.250000
vt 0.471731 0.341844
vt 0.419706 0.419706
vt 0.062500 1.000000
vt 0.062500 0.500000
vt 0.000000 1.000000
vt 0.000000 0.500000
vt 0.750000 0.490000
vt 0.841844 0.471731
vt 0.919706 0.419706
vt 0.971731 0.341844
vt 0.990000 0.250000
vt 0.971731 0.158156
vt 0.919706 0.080294
vt 0.841844 0.028269
vt 0.750000 0.010000
vt 0.658156 0.028269
vt 0.580294 0.080294
vt 0.528269 0.158156
vt 0.510000 0.250000
vt 0.528269 0.341844
vt 0.580294 0.419706
vt 0.658156 0.471731
s 0
usemtl Rog_DarkCloth
f 81/141/61 82/142/61 84/143/61 83/144/61
f 83/144/62 84/143/62 86/145/62 85/146/62
f 85/146/63 86/145/63 88/147/63 87/148/63
f 87/148/64 88/147/64 90/149/64 89/150/64
f 89/150/65 90/149/65 92/151/65 91/152/65
f 91/152/66 92/151/66 94/153/66 93/154/66
f 93/154/67 94/153/67 96/155/67 95/156/67
f 95/156/68 96/155/68 98/157/68 97/158/68
f 97/158/69 98/157/69 100/159/69 99/160/69
f 99/160/70 100/159/70 102/161/70 101/162/70
f 101/162/71 102/161/71 104/163/71 103/164/71
f 103/164/72 104/163/72 106/165/72 105/166/72
f 105/166/73 106/165/73 108/167/73 107/168/73
f 107/168/74 108/167/74 110/169/74 109/170/74
f 84/171/75 82/172/75 112/173/75 110/174/75 108/175/75 106/176/75 104/177/75 102/178/75 100/179/75 98/180/75 96/181/75 94/182/75 92/183/75 90/184/75 88/185/75 86/186/75
f 109/170/76 110/169/76 112/187/76 111/188/76
f 111/188/77 112/187/77 82/189/77 81/190/77
f 81/191/78 83/192/78 85/193/78 87/194/78 89/195/78 91/196/78 93/197/78 95/198/78 97/199/78 99/200/78 101/201/78 103/202/78 105/203/78 107/204/78 109/205/78 111/206/78
o Bracer_L
v -0.360000 -0.170000 -0.040000
v -0.360000 -0.170000 0.080000
v -0.360000 0.050000 -0.040000
v -0.360000 0.050000 0.080000
v -0.240000 -0.170000 -0.040000
v -0.240000 -0.170000 0.080000
v -0.240000 0.050000 -0.040000
v -0.240000 0.050000 0.080000
vn -1.0000 -0.0000 -0.0000
vn -0.0000 1.0000 -0.0000
vn 1.0000 -0.0000 -0.0000
vn -0.0000 -1.0000 -0.0000
vn -0.0000 -0.0000 -1.0000
vn -0.0000 -0.0000 1.0000
vt 0.375000 0.000000
vt 0.625000 0.000000
vt 0.625000 0.250000
vt 0.375000 0.250000
vt 0.625000 0.500000
vt 0.375000 0.500000
vt 0.625000 0.750000
vt 0.375000 0.750000
vt 0.625000 1.000000
vt 0.375000 1.000000
vt 0.125000 0.500000
vt 0.125000 0.750000
vt 0.875000 0.500000
vt 0.875000 0.750000
s 0
usemtl Rog_Leather
f 113/207/79 114/208/79 116/209/79 115/210/79
f 115/210/80 116/209/80 120/211/80 119/212/80
f 119/212/81 120/211/81 118/213/81 117/214/81
f 117/214/82 118/213/82 114/215/82 113/216/82
f 115/217/83 119/212/83 117/214/83 113/218/83
f 120/211/84 116/219/84 114/220/84 118/213/84
o Hand_L
v -0.350000 -0.280000 -0.030000
v -0.350000 -0.280000 0.070000
v -0.350000 -0.160000 -0.030000
v -0.350000 -0.160000 0.070000
v -0.250000 -0.280000 -0.030000
v -0.250000 -0.280000 0.070000
v -0.250000 -0.160000 -0.030000
v -0.250000 -0.160000 0.070000
vn -1.0000 -0.0000 -0.0000
vn -0.0000 1.0000 -0.0000
vn 1.0000 -0.0000 -0.0000
vn -0.0000 -1.0000 -0.0000
vn -0.0000 -0.0000 -1.0000
vn -0.0000 -0.0000 1.0000
vt 0.375000 0.000000
vt 0.625000 0.000000
vt 0.625000 0.250000
vt 0.375000 0.250000
vt 0.625000 0.500000
vt 0.375000 0.500000
vt 0.625000 0.750000
vt 0.375000 0.750000
vt 0.625000 1.000000
vt 0.375000 1.000000
vt 0.125000 0.500000
vt 0.125000 0.750000
vt 0.875000 0.500000
vt 0.875000 0.750000
s 0
usemtl Rog_DarkCloth
f 121/221/85 122/222/85 124/223/85 123/224/85
f 123/224/86 124/223/86 128/225/86 127/226/86
f 127/226/87 128/225/87 126/227/87 125/228/87
f 125/228/88 126/227/88 122/229/88 121/230/88
f 123/231/89 127/226/89 125/228/89 121/232/89
f 128/225/90 124/233/90 122/234/90 126/227/90
o Arm_R
v 0.300000 0.270000 -0.140000
v 0.300000 0.270000 0.140000
v 0.326788 0.264672 -0.140000
v 0.326788 0.264672 0.140000
v 0.349497 0.249497 -0.140000
v 0.349497 0.249497 0.140000
v 0.364672 0.226788 -0.140000
v 0.364672 0.226788 0.140000
v 0.370000 0.200000 -0.140000
v 0.370000 0.200000 0.140000
v 0.364672 0.173212 -0.140000
v 0.364672 0.173212 0.140000
v 0.349497 0.150503 -0.140000
v 0.349497 0.150503 0.140000
v 0.326788 0.135328 -0.140000
v 0.326788 0.135328 0.140000
v 0.300000 0.130000 -0.140000
v 0.300000 0.130000 0.140000
v 0.273212 0.135328 -0.140000
v 0.273212 0.135328 0.140000
v 0.250503 0.150503 -0.140000
v 0.250503 0.150503 0.140000
v 0.235328 0.173212 -0.140000
v 0.235328 0.173212 0.140000
v 0.230000 0.200000 -0.140000
v 0.230000 0.200000 0.140000
v 0.235328 0.226788 -0.140000
v 0.235328 0.226788 0.140000
v 0.250503 0.249497 -0.140000
v 0.250503 0.249497 0.140000
v 0.273212 0.264672 -0.140000
v 0.273212 0.264672 0.140000
vn 0.1951 0.9808 -0.0000
vn 0.5556 0.8315 -0.0000
vn 0.8315 0.5556 -0.0000
vn 0.9808 0.1951 -0.0000
vn 0.9808 -0.1951 -0.0000
vn 0.8315 -0.5556 -0.0000
vn 0.5556 -0.8315 -0.0000
vn 0.1951 -0.9808 -0.0000
vn -0.1951 -0.9808 -0.0000
vn -0.5556 -0.8315 -0.0000
vn -0.8315 -0.5556 -0.0000
vn -0.9808 -0.1951 -0.0000
vn -0.9808 0.1951 -0.0000
vn -0.8315 0.5556 -0.0000
vn -0.0000 -0.0000 1.0000
vn -0.5556 0.8315 -0.0000
vn -0.1951 0.9808 -0.0000
vn -0.0000 -0.0000 -1.0000
vt 1.000000 0.500000
vt 1.000000 1.000000
vt 0.937500 1.000000
vt 0.937500 0.500000
vt 0.875000 1.000000
vt 0.875000 0.500000
vt 0.812500 1.000000
vt 0.812500 0.500000
vt 0.750000 1.000000
vt 0.750000 0.500000
vt 0.687500 1.000000
vt 0.687500 0.500000
vt 0.625000 1.000000
vt 0.625000 0.500000
vt 0.562500 1.000000
vt 0.562500 0.500000
vt 0.500000 1.000000
vt 0.500000 0.500000
vt 0.437500 1.000000
vt 0.437500 0.500000
vt 0.375000 1.000000
vt 0.375000 0.500000
vt 0.312500 1.000000
vt 0.312500 0.500000
vt 0.250000 1.000000
vt 0.250000 0.500000
vt 0.187500 1.000000
vt 0.187500 0.500000
vt 0.125000 1.000000
vt 0.125000 0.500000
vt 0.341844 0.471731
vt 0.250000 0.490000
vt 0.158156 0.471731
vt 0.080294 0.419706
vt 0.028269 0.341844
vt 0.010000 0.250000
vt 0.028269 0.158156
vt 0.080294 0.080294
vt 0.158156 0.028269
vt 0.250000 0.010000
vt 0.341844 0.028269
vt 0.419706 0.080294
vt 0.471731 0.158156
vt 0.490000 0.250000
vt 0.471731 0.341844
vt 0.419706 0.419706
vt 0.062500 1.000000
vt 0.062500 0.500000
vt 0.000000 1.000000
vt 0.000000 0.500000
vt 0.750000 0.490000
vt 0.841844 0.471731
vt 0.919706 0.419706
vt 0.971731 0.341844
vt 0.990000 0.250000
vt 0.971731 0.158156
vt 0.919706 0.080294
vt 0.841844 0.028269
vt 0.750000 0.010000
vt 0.658156 0.028269
vt 0.580294 0.080294
vt 0.528269 0.158156
vt 0.510000 0.250000
vt 0.528269 0.341844
vt 0.580294 0.419706
vt 0.658156 0.471731
s 0
usemtl Rog_DarkCloth
f 129/235/91 130/236/91 132/237/91 131/238/91
f 131/238/92 132/237/92 134/239/92 133/240/92
f 133/240/93 134/239/93 136/241/93 135/242/93
f 135/242/94 136/241/94 138/243/94 137/244/94
f 137/244/95 138/243/95 140/245/95 139/246/95
f 139/246/96 140/245/96 142/247/96 141/248/96
f 141/248/97 142/247/97 144/249/97 143/250/97
f 143/250/98 144/249/98 146/251/98 145/252/98
f 145/252/99 146/251/99 148/253/99 147/254/99
f 147/254/100 148/253/100 150/255/100 149/256/100
f 149/256/101 150/255/101 152/257/101 151/258/101
f 151/258/102 152/257/102 154/259/102 153/260/102
f 153/260/103 154/259/103 156/261/103 155/262/103
f 155/262/104 156/261/104 158/263/104 157/264/104
f 132/265/105 130/266/105 160/267/105 158/268/105 156/269/105 154/270/105 152/271/105 150/272/105 148/273/105 146/274/105 144/275/105 142/276/105 140/277/105 138/278/105 136/279/105 134/280/105
f 157/264/106 158/263/106 160/281/106 159/282/106
f 159/282/107 160/281/107 130/283/107 129/284/107
f 129/285/108 131/286/108 133/287/108 135/288/108 137/289/108 139/290/108 141/291/108 143/292/108 145/293/108 147/294/108 149/295/108 151/296/108 153/297/108 155/298/108 157/299/108 159/300/108
o Bracer_R
v 0.240000 -0.170000 -0.040000
v 0.240000 -0.170000 0.080000
v 0.240000 0.050000 -0.040000
v 0.240000 0.050000 0.080000
v 0.360000 -0.170000 -0.040000
v 0.360000 -0.170000 0.080000
v 0.360000 0.050000 -0.040000
v 0.360000 0.050000 0.080000
vn -1.0000 -0.0000 -0.0000
vn -0.0000 1.0000 -0.0000
vn 1.0000 -0.0000 -0.0000
vn -0.0000 -1.0000 -0.0000
vn -0.0000 -0.0000 -1.0000
vn -0.0000 -0.0000 1.0000
vt 0.375000 0.000000
vt 0.625000 0.000000
vt 0.625000 0.250000
vt 0.375000 0.250000
vt 0.625000 0.500000
vt 0.375000 0.500000
vt 0.625000 0.750000
vt 0.375000 0.750000
vt 0.625000 1.000000
vt 0.375000 1.000000
vt 0.125000 0.500000
vt 0.125000 0.750000
vt 0.875000 0.500000
vt 0.875000 0.750000
s 0
usemtl Rog_Leather
f 161/301/109 162/302/109 164/303/109 163/304/109
f 163/304/110 164/303/110 168/305/110 167/306/110
f 167/306/111 168/305/111 166/307/111 165/308/111
f 165/308/112 166/307/112 162/309/112 161/310/112
f 163/311/113 167/306/113 165/308/113 161/312/113
f 168/305/114 164/313/114 162/314/114 166/307/114
o Hand_R
v 0.250000 -0.280000 -0.030000
v 0.250000 -0.280000 0.070000
v 0.250000 -0.160000 -0.030000
v 0.250000 -0.160000 0.070000
v 0.350000 -0.280000 -0.030000
v 0.350000 -0.280000 0.070000
v 0.350000 -0.160000 -0.030000
v 0.350000 -0.160000 0.070000
vn -1.0000 -0.0000 -0.0000
vn -0.0000 1.0000 -0.0000
vn 1.0000 -0.0000 -0.0000
vn -0.0000 -1.0000 -0.0000
vn -0.0000 -0.0000 -1.0000
vn -0.0000 -0.0000 1.0000
vt 0.375000 0.000000
vt 0.625000 0.000000
vt 0.625000 0.250000
vt 0.375000 0.250000
vt 0.625000 0.500000
vt 0.375000 0.500000
vt 0.625000 0.750000
vt 0.375000 0.750000
vt 0.625000 1.000000
vt 0.375000 1.000000
vt 0.125000 0.500000
vt 0.125000 0.750000
vt 0.875000 0.500000
vt 0.875000 0.750000
s 0
usemtl Rog_DarkCloth
f 169/315/115 170/316/115 172/317/115 171/318/115
f 171/318/116 172/317/116 176/319/116 175/320/116
f 175/320/117 176/319/117 174/321/117 173/322/117
f 173/322/118 174/321/118 170/323/118 169/324/118
f 171/325/119 175/320/119 173/322/119 169/326/119
f 176/319/120 172/327/120 170/328/120 174/321/120
o Leg_L
v -0.150000 -0.100000 -0.160000
v -0.150000 -0.100000 0.160000
v -0.119385 -0.106090 -0.160000
v -0.119385 -0.106090 0.160000
v -0.093431 -0.123431 -0.160000
v -0.093431 -0.123431 0.160000
v -0.076090 -0.149385 -0.160000
v -0.076090 -0.149385 0.160000
v -0.070000 -0.180000 -0.160000
v -0.070000 -0.180000 0.160000
v -0.076090 -0.210615 -0.160000
v -0.076090 -0.210615 0.160000
v -0.093431 -0.236569 -0.160000
v -0.093431 -0.236569 0.160000
v -0.119385 -0.253910 -0.160000
v -0.119385 -0.253910 0.160000
v -0.150000 -0.260000 -0.160000
v -0.150000 -0.260000 0.160000
v -0.180615 -0.253910 -0.160000
v -0.180615 -0.253910 0.160000
v -0.206569 -0.236569 -0.160000
v -0.206569 -0.236569 0.160000
v -0.223910 -0.210615 -0.160000
v -0.223910 -0.210615 0.160000
v -0.230000 -0.180000 -0.160000
v -0.230000 -0.180000 0.160000
v -0.223910 -0.149385 -0.160000
v -0.223910 -0.149385 0.160000
v -0.206569 -0.123431 -0.160000
v -0.206569 -0.123431 0.160000
v -0.180615 -0.106090 -0.160000
v -0.180615 -0.106090 0.160000
vn 0.1951 0.9808 -0.0000
vn 0.5556 0.8315 -0.0000
vn 0.8315 0.5556 -0.0000
vn 0.9808 0.1951 -0.0000
vn 0.9808 -0.1951 -0.0000
vn 0.8315 -0.5556 -0.0000
vn 0.5556 -0.8315 -0.0000
vn 0.1951 -0.9808 -0.0000
vn -0.1951 -0.9808 -0.0000
vn -0.5556 -0.8315 -0.0000
vn -0.8315 -0.5556 -0.0000
vn -0.9808 -0.1951 -0.0000
vn -0.9808 0.1951 -0.0000
vn -0.8315 0.5556 -0.0000
vn -0.0000 -0.0000 1.0000
vn -0.5556 0.8315 -0.0000
vn -0.1951 0.9808 -0.0000
vn -0.0000 -0.0000 -1.0000
vt 1.000000 0.500000
vt 1.000000 1.000000
vt 0.937500 1.000000
vt 0.937500 0.500000
vt 0.875000 1.000000
vt 0.875000 0.500000
vt 0.812500 1.000000
vt 0.812500 0.500000
vt 0.750000 1.000000
vt 0.750000 0.500000
vt 0.687500 1.000000
vt 0.687500 0.500000
vt 0.625000 1.000000
vt 0.625000 0.500000
vt 0.562500 1.000000
vt 0.562500 0.500000
vt 0.500000 1.000000
vt 0.500000 0.500000
vt 0.437500 1.000000
vt 0.437500 0.500000
vt 0.375000 1.000000
vt 0.375000 0.500000
vt 0.312500 1.000000
vt 0.312500 0.500000
vt 0.250000 1.000000
vt 0.250000 0.500000
vt 0.187500 1.000000
vt 0.187500 0.500000
vt 0.125000 1.000000
vt 0.125000 0.500000
vt 0.341844 0.471731
vt 0.250000 0.490000
vt 0.158156 0.471731
vt 0.080294 0.419706
vt 0.028269 0.341844
vt 0.010000 0.250000
vt 0.028269 0.158156
vt 0.080294 0.080294
vt 0.158156 0.028269
vt 0.250000 0.010000
vt 0.341844 0.028269
vt 0.419706 0.080294
vt 0.471731 0.158156
vt 0.490000 0.250000
vt 0.471731 0.341844
vt 0.419706 0.419706
vt 0.062500 1.000000
vt 0.062500 0.500000
vt 0.000000 1.000000
vt 0.000000 0.500000
vt 0.750000 0.490000
vt 0.841844 0.471731
vt 0.919706 0.419706
vt 0.971731 0.341844
vt 0.990000 0.250000
vt 0.971731 0.158156
vt 0.919706 0.080294
vt 0.841844 0.028269
vt 0.750000 0.010000
vt 0.658156 0.028269
vt 0.580294 0.080294
vt 0.528269 0.158156
vt 0.510000 0.250000
vt 0.528269 0.341844
vt 0.580294 0.419706
vt 0.658156 0.471731
s 0
usemtl Rog_DarkCloth
f 177/329/121 178/330/121 180/331/121 179/332/121
f 179/332/122 180/331/122 182/333/122 181/334/122
f 181/334/123 182/333/123 184/335/123 183/336/123
f 183/336/124 184/335/124 186/337/124 185/338/124
f 185/338/125 186/337/125 188/339/125 187/340/125
f 187/340/126 188/339/126 190/341/126 189/342/126
f 189/342/127 190/341/127 192/343/127 191/344/127
f 191/344/128 192/343/128 194/345/128 193/346/128
f 193/346/129 194/345/129 196/347/129 195/348/129
f 195/348/130 196/347/130 198/349/130 197/350/130
f 197/350/131 198/349/131 200/351/131 199/352/131
f 199/352/132 200/351/132 202/353/132 201/354/132
f 201/354/133 202/353/133 204/355/133 203/356/133
f 203/356/134 204/355/134 206/357/134 205/358/134
f 180/359/135 178/360/135 208/361/135 206/362/135 204/363/135 202/364/135 200/365/135 198/366/135 196/367/135 194/368/135 192/369/135 190/370/135 188/371/135 186/372/135 184/373/135 182/374/135
f 205/358/136 206/357/136 208/375/136 207/376/136
f 207/376/137 208/375/137 178/377/137 177/378/137
f 177/379/138 179/380/138 181/381/138 183/382/138 185/383/138 187/384/138 189/385/138 191/386/138 193/387/138 195/388/138 197/389/138 199/390/138 201/391/138 203/392/138 205/393/138 207/394/138
o Boot_L
v -0.215000 -0.730000 -0.055000
v -0.215000 -0.730000 0.095000
v -0.215000 -0.390000 -0.055000
v -0.215000 -0.390000 0.095000
v -0.085000 -0.730000 -0.055000
v -0.085000 -0.730000 0.095000
v -0.085000 -0.390000 -0.055000
v -0.085000 -0.390000 0.095000
vn -1.0000 -0.0000 -0.0000
vn -0.0000 1.0000 -0.0000
vn 1.0000 -0.0000 -0.0000
vn -0.0000 -1.0000 -0.0000
vn -0.0000 -0.0000 -1.0000
vn -0.0000 -0.0000 1.0000
vt 0.375000 0.000000
vt 0.625000 0.000000
vt 0.625000 0.250000
vt 0.375000 0.250000
vt 0.625000 0.500000
vt 0.375000 0.500000
vt 0.625000 0.750000
vt 0.375000 0.750000
vt 0.625000 1.000000
vt 0.375000 1.000000
vt 0.125000 0.500000
vt 0.125000 0.750000
vt 0.875000 0.500000
vt 0.875000 0.750000
s 0
usemtl Rog_Leather
f 209/395/139 210/396/139 212/397/139 211/398/139
f 211/398/140 212/397/140 216/399/140 215/400/140
f 215/400/141 216/399/141 214/401/141 213/402/141
f 213/402/142 214/401/142 210/403/142 209/404/142
f 211/405/143 215/400/143 213/402/143 209/406/143
f 216/399/144 212/407/144 210/408/144 214/401/144
o Foot_L
v -0.215000 -0.830000 -0.070000
v -0.215000 -0.830000 0.190000
v -0.215000 -0.730000 -0.070000
v -0.215000 -0.730000 0.190000
v -0.085000 -0.830000 -0.070000
v -0.085000 -0.830000 0.190000
v -0.085000 -0.730000 -0.070000
v -0.085000 -0.730000 0.190000
vn -1.0000 -0.0000 -0.0000
vn -0.0000 1.0000 -0.0000
vn 1.0000 -0.0000 -0.0000
vn -0.0000 -1.0000 -0.0000
vn -0.0000 -0.0000 -1.0000
vn -0.0000 -0.0000 1.0000
vt 0.375000 0.000000
vt 0.625000 0.000000
vt 0.625000 0.250000
vt 0.375000 0.250000
vt 0.625000 0.500000
vt 0.375000 0.500000
vt 0.625000 0.750000
vt 0.375000 0.750000
vt 0.625000 1.000000
vt 0.375000 1.000000
vt 0.125000 0.500000
vt 0.125000 0.750000
vt 0.875000 0.500000
vt 0.875000 0.750000
s 0
usemtl Rog_Leather
f 217/409/145 218/410/145 220/411/145 219/412/145
f 219/412/146 220/411/146 224/413/146 223/414/146
f 223/414/147 224/413/147 222/415/147 221/416/147
f 221/416/148 222/415/148 218/417/148 217/418/148
f 219/419/149 223/414/149 221/416/149 217/420/149
f 224/413/150 220/421/150 218/422/150 222/415/150
o Leg_R
v 0.150000 -0.100000 -0.160000
v 0.150000 -0.100000 0.160000
v 0.180615 -0.106090 -0.160000
v 0.180615 -0.106090 0.160000
v 0.206569 -0.123431 -0.160000
v 0.206569 -0.123431 0.160000
v 0.223910 -0.149385 -0.160000
v 0.223910 -0.149385 0.160000
v 0.230000 -0.180000 -0.160000
v 0.230000 -0.180000 0.160000
v 0.223910 -0.210615 -0.160000
v 0.223910 -0.210615 0.160000
v 0.206569 -0.236569 -0.160000
v 0.206569 -0.236569 0.160000
v 0.180615 -0.253910 -0.160000
v 0.180615 -0.253910 0.160000
v 0.150000 -0.260000 -0.160000
v 0.150000 -0.260000 0.160000
v 0.119385 -0.253910 -0.160000
v 0.119385 -0.253910 0.160000
v 0.093431 -0.236569 -0.160000
v 0.093431 -0.236569 0.160000
v 0.076090 -0.210615 -0.160000
v 0.076090 -0.210615 0.160000
v 0.070000 -0.180000 -0.160000
v 0.070000 -0.180000 0.160000
v 0.076090 -0.149385 -0.160000
v 0.076090 -0.149385 0.160000
v 0.093431 -0.123431 -0.160000
v 0.093431 -0.123431 0.160000
v 0.119385 -0.106090 -0.160000
v 0.119385 -0.106090 0.160000
vn 0.1951 0.9808 -0.0000
vn 0.5556 0.8315 -0.0000
vn 0.8315 0.5556 -0.0000
vn 0.9808 0.1951 -0.0000
vn 0.9808 -0.1951 -0.0000
vn 0.8315 -0.5556 -0.0000
vn 0.5556 -0.8315 -0.0000
vn 0.1951 -0.9808 -0.0000
vn -0.1951 -0.9808 -0.0000
vn -0.5556 -0.8315 -0.0000
vn -0.8315 -0.5556 -0.0000
vn -0.9808 -0.1951 -0.0000
vn -0.9808 0.1951 -0.0000
vn -0.8315 0.5556 -0.0000
vn -0.0000 -0.0000 1.0000
vn -0.5556 0.8315 -0.0000
vn -0.1951 0.9808 -0.0000
vn -0.0000 -0.0000 -1.0000
vt 1.000000 0.500000
vt 1.000000 1.000000
vt 0.937500 1.000000
vt 0.937500 0.500000
vt 0.875000 1.000000
vt 0.875000 0.500000
vt 0.812500 1.000000
vt 0.812500 0.500000
vt 0.750000 1.000000
vt 0.750000 0.500000
vt 0.687500 1.000000
vt 0.687500 0.500000
vt 0.625000 1.000000
vt 0.625000 0.500000
vt 0.562500 1.000000
vt 0.562500 0.500000
vt 0.500000 1.000000
vt 0.500000 0.500000
vt 0.437500 1.000000
vt 0.437500 0.500000
vt 0.375000 1.000000
vt 0.375000 0.500000
vt 0.312500 1.000000
vt 0.312500 0.500000
vt 0.250000 1.000000
vt 0.250000 0.500000
vt 0.187500 1.000000
vt 0.187500 0.500000
vt 0.125000 1.000000
vt 0.125000 0.500000
vt 0.341844 0.471731
vt 0.250000 0.490000
vt 0.158156 0.471731
vt 0.080294 0.419706
vt 0.028269 0.341844
vt 0.010000 0.250000
vt 0.028269 0.158156
vt 0.080294 0.080294
vt 0.158156 0.028269
vt 0.250000 0.010000
vt 0.341844 0.028269
vt 0.419706 0.080294
vt 0.471731 0.158156
vt 0.490000 0.250000
vt 0.471731 0.341844
vt 0.419706 0.419706
vt 0.062500 1.000000
vt 0.062500 0.500000
vt 0.000000 1.000000
vt 0.000000 0.500000
vt 0.750000 0.490000
vt 0.841844 0.471731
vt 0.919706 0.419706
vt 0.971731 0.341844
vt 0.990000 0.250000
vt 0.971731 0.158156
vt 0.919706 0.080294
vt 0.841844 0.028269
vt 0.750000 0.010000
vt 0.658156 0.028269
vt 0.580294 0.080294
vt 0.528269 0.158156
vt 0.510000 0.250000
vt 0.528269 0.341844
vt 0.580294 0.419706
vt 0.658156 0.471731
s 0
usemtl Rog_DarkCloth
f 225/423/151 226/424/151 228/425/151 227/426/151
f 227/426/152 228/425/152 230/427/152 229/428/152
f 229/428/153 230/427/153 232/429/153 231/430/153
f 231/430/154 232/429/154 234/431/154 233/432/154
f 233/432/155 234/431/155 236/433/155 235/434/155
f 235/434/156 236/433/156 238/435/156 237/436/156
f 237/436/157 238/435/157 240/437/157 239/438/157
f 239/438/158 240/437/158 242/439/158 241/440/158
f 241/440/159 242/439/159 244/441/159 243/442/159
f 243/442/160 244/441/160 246/443/160 245/444/160
f 245/444/161 246/443/161 248/445/161 247/446/161
f 247/446/162 248/445/162 250/447/162 249/448/162
f 249/448/163 250/447/163 252/449/163 251/450/163
f 251/450/164 252/449/164 254/451/164 253/452/164
f 228/453/165 226/454/165 256/455/165 254/456/165 252/457/165 250/458/165 248/459/165 246/460/165 244/461/165 242/462/165 240/463/165 238/464/165 236/465/165 234/466/165 232/467/165 230/468/165
f 253/452/166 254/451/166 256/469/166 255/470/166
f 255/470/167 256/469/167 226/471/167 225/472/167
f 225/473/168 227/474/168 229/475/168 231/476/168 233/477/168 235/478/168 237/479/168 239/480/168 241/481/168 243/482/168 245/483/168 247/484/168 249/485/168 251/486/168 253/487/168 255/488/168
o Boot_R
v 0.085000 -0.730000 -0.055000
v 0.085000 -0.730000 0.095000
v 0.085000 -0.390000 -0.055000
v 0.085000 -0.390000 0.095000
v 0.215000 -0.730000 -0.055000
v 0.215000 -0.730000 0.095000
v 0.215000 -0.390000 -0.055000
v 0.215000 -0.390000 0.095000
vn -1.0000 -0.0000 -0.0000
vn -0.0000 1.0000 -0.0000
vn 1.0000 -0.0000 -0.0000
vn -0.0000 -1.0000 -0.0000
vn -0.0000 -0.0000 -1.0000
vn -0.0000 -0.0000 1.0000
vt 0.375000 0.000000
vt 0.625000 0.000000
vt 0.625000 0.250000
vt 0.375000 0.250000
vt 0.625000 0.500000
vt 0.375000 0.500000
vt 0.625000 0.750000
vt 0.375000 0.750000
vt 0.625000 1.000000
vt 0.375000 1.000000
vt 0.125000 0.500000
vt 0.125000 0.750000
vt 0.875000 0.500000
vt 0.875000 0.750000
s 0
usemtl Rog_Leather
f 257/489/169 258/490/169 260/491/169 259/492/169
f 259/492/170 260/491/170 264/493/170 263/494/170
f 263/494/171 264/493/171 262/495/171 261/496/171
f 261/496/172 262/495/172 258/497/172 257/498/172
f 259/499/173 263/494/173 261/496/173 257/500/173
f 264/493/174 260/501/174 258/502/174 262/495/174
o Foot_R
v 0.085000 -0.830000 -0.070000
v 0.085000 -0.830000 0.190000
v 0.085000 -0.730000 -0.070000
v 0.085000 -0.730000 0.190000
v 0.215000 -0.830000 -0.070000
v 0.215000 -0.830000 0.190000
v 0.215000 -0.730000 -0.070000
v 0.215000 -0.730000 0.190000
vn -1.0000 -0.0000 -0.0000
vn -0.0000 1.0000 -0.0000
vn 1.0000 -0.0000 -0.0000
vn -0.0000 -1.0000 -0.0000
vn -0.0000 -0.0000 -1.0000
vn -0.0000 -0.0000 1.0000
vt 0.375000 0.000000
vt 0.625000 0.000000
vt 0.625000 0.250000
vt 0.375000 0.250000
vt 0.625000 0.500000
vt 0.375000 0.500000
vt 0.625000 0.750000
vt 0.375000 0.750000
vt 0.625000 1.000000
vt 0.375000 1.000000
vt 0.125000 0.500000
vt 0.125000 0.750000
vt 0.875000 0.500000
vt 0.875000 0.750000
s 0
usemtl Rog_Leather
f 265/503/175 266/504/175 268/505/175 267/506/175
f 267/506/176 268/505/176 272/507/176 271/508/176
f 271/508/177 272/507/177 270/509/177 269/510/177
f 269/510/178 270/509/178 266/511/178 265/512/178
f 267/513/179 271/508/179 269/510/179 265/514/179
f 272/507/180 268/515/180 266/516/180 270/509/180
