# Blender 5.2.1 LTS
# www.blender.org
mtllib roman_pillar.mtl
o Base_Plinth
v -1.100000 0.000000 -1.100000
v -1.100000 0.000000 1.100000
v -1.100000 0.600000 -1.100000
v -1.100000 0.600000 1.100000
v 1.100000 0.000000 -1.100000
v 1.100000 0.000000 1.100000
v 1.100000 0.600000 -1.100000
v 1.100000 0.600000 1.100000
vn -1.0000 -0.0000 -0.0000
vn -0.0000 1.0000 -0.0000
vn 1.0000 -0.0000 -0.0000
vn -0.0000 -1.0000 -0.0000
vn -0.0000 -0.0000 -1.0000
vn -0.0000 -0.0000 1.0000
vt 0.375000 0.000000
vt 0.625000 0.000000
vt 0.625000 0.250000
vt 0.375000 0.250000
vt 0.625000 0.500000
vt 0.375000 0.500000
vt 0.625000 0.750000
vt 0.375000 0.750000
vt 0.625000 1.000000
vt 0.375000 1.000000
vt 0.125000 0.500000
vt 0.125000 0.750000
vt 0.875000 0.500000
vt 0.875000 0.750000
s 0
usemtl Roman_WhiteMarble
f 1/1/1 2/2/1 4/3/1 3/4/1
f 3/4/2 4/3/2 8/5/2 7/6/2
f 7/6/3 8/5/3 6/7/3 5/8/3
f 5/8/4 6/7/4 2/9/4 1/10/4
f 3/11/5 7/6/5 5/8/5 1/12/5
f 8/5/6 4/13/6 2/14/6 6/7/6
o Base_Step
v -0.900000 0.600000 -0.900000
v -0.900000 0.600000 0.900000
v -0.900000 1.000000 -0.900000
v -0.900000 1.000000 0.900000
v 0.900000 0.600000 -0.900000
v 0.900000 0.600000 0.900000
v 0.900000 1.000000 -0.900000
v 0.900000 1.000000 0.900000
vn -1.0000 -0.0000 -0.0000
vn -0.0000 1.0000 -0.0000
vn 1.0000 -0.0000 -0.0000
vn -0.0000 -1.0000 -0.0000
vn -0.0000 -0.0000 -1.0000
vn -0.0000 -0.0000 1.0000
vt 0.375000 0.000000
vt 0.625000 0.000000
vt 0.625000 0.250000
vt 0.375000 0.250000
vt 0.625000 0.500000
vt 0.375000 0.500000
vt 0.625000 0.750000
vt 0.375000 0.750000
vt 0.625000 1.000000
vt 0.375000 1.000000
vt 0.125000 0.500000
vt 0.125000 0.750000
vt 0.875000 0.500000
vt 0.875000 0.750000
s 0
usemtl Roman_ImperialGold
f 9/15/7 10/16/7 12/17/7 11/18/7
f 11/18/8 12/17/8 16/19/8 15/20/8
f 15/20/9 16/19/9 14/21/9 13/22/9
f 13/22/10 14/21/10 10/23/10 9/24/10
f 11/25/11 15/20/11 13/22/11 9/26/11
f 16/19/12 12/27/12 10/28/12 14/21/12
o Column_Shaft
v 0.000000 5.500000 -3.750000
v 0.000000 5.500000 3.750000
v 0.194114 5.474444 -3.750000
v 0.194114 5.474444 3.750000
v 0.375000 5.399519 -3.750000
v 0.375000 5.399519 3.750000
v 0.530330 5.280330 -3.750000
v 0.530330 5.280330 3.750000
v 0.649519 5.125000 -3.750000
v 0.649519 5.125000 3.750000
v 0.724444 4.944114 -3.750000
v 0.724444 4.944114 3.750000
v 0.750000 4.750000 -3.750000
v 0.750000 4.750000 3.750000
v 0.724444 4.555886 -3.750000
v 0.724444 4.555886 3.750000
v 0.649519 4.375000 -3.750000
v 0.649519 4.375000 3.750000
v 0.530330 4.219670 -3.750000
v 0.530330 4.219670 3.750000
v 0.375000 4.100481 -3.750000
v 0.375000 4.100481 3.750000
v 0.194114 4.025556 -3.750000
v 0.194114 4.025556 3.750000
v 0.000000 4.000000 -3.750000
v 0.000000 4.000000 3.750000
v -0.194114 4.025556 -3.750000
v -0.194114 4.025556 3.750000
v -0.375000 4.100481 -3.750000
v -0.375000 4.100481 3.750000
v -0.530330 4.219670 -3.750000
v -0.530330 4.219670 3.750000
v -0.649519 4.375000 -3.750000
v -0.649519 4.375000 3.750000
v -0.724444 4.555886 -3.750000
v -0.724444 4.555886 3.750000
v -0.750000 4.750000 -3.750000
v -0.750000 4.750000 3.750000
v -0.724444 4.944114 -3.750000
v -0.724444 4.944114 3.750000
v -0.649519 5.125000 -3.750000
v -0.649519 5.125000 3.750000
v -0.530330 5.280330 -3.750000
v -0.530330 5.280330 3.750000
v -0.375000 5.399519 -3.750000
v -0.375000 5.399519 3.750000
v -0.194114 5.474444 -3.750000
v -0.194114 5.474444 3.750000
vn 0.1305 0.9914 -0.0000
vn 0.3827 0.9239 -0.0000
vn 0.6088 0.7934 -0.0000
vn 0.7934 0.6088 -0.0000
vn 0.9239 0.3827 -0.0000
vn 0.9914 0.1305 -0.0000
vn 0.9914 -0.1305 -0.0000
vn 0.9239 -0.3827 -0.0000
vn 0.7934 -0.6088 -0.0000
vn 0.6088 -0.7934 -0.0000
vn 0.3827 -0.9239 -0.0000
vn 0.1305 -0.9914 -0.0000
vn -0.1305 -0.9914 -0.0000
vn -0.3827 -0.9239 -0.0000
vn -0.6088 -0.7934 -0.0000
vn -0.7934 -0.6088 -0.0000
vn -0.9239 -0.3827 -0.0000
vn -0.9914 -0.1305 -0.0000
vn -0.9914 0.1305 -0.0000
vn -0.9239 0.3827 -0.0000
vn -0.7934 0.6088 -0.0000
vn -0.6088 0.7934 -0.0000
vn -0.0000 -0.0000 1.0000
vn -0.3827 0.9239 -0.0000
vn -0.1305 0.9914 -0.0000
vn -0.0000 -0.0000 -1.0000
vt 1.000000 0.500000
vt 1.000000 1.000000
vt 0.958333 1.000000
vt 0.958333 0.500000
vt 0.916667 1.000000
vt 0.916667 0.500000
vt 0.875000 1.000000
vt 0.875000 0.500000
vt 0.833333 1.000000
vt 0.833333 0.500000
vt 0.791667 1.000000
vt 0.791667 0.500000
vt 0.750000 1.000000
vt 0.750000 0.500000
vt 0.708333 1.000000
vt 0.708333 0.500000
vt 0.666667 1.000000
vt 0.666667 0.500000
vt 0.625000 1.000000
vt 0.625000 0.500000
vt 0.583333 1.000000
vt 0.583333 0.500000
vt 0.541666 1.000000
vt 0.541666 0.500000
vt 0.500000 1.000000
vt 0.500000 0.500000
vt 0.458333 1.000000
vt 0.458333 0.500000
vt 0.416666 1.000000
vt 0.416666 0.500000
vt 0.375000 1.000000
vt 0.375000 0.500000
vt 0.333333 1.000000
vt 0.333333 0.500000
vt 0.291667 1.000000
vt 0.291667 0.500000
vt 0.250000 1.000000
vt 0.250000 0.500000
vt 0.208333 1.000000
vt 0.208333 0.500000
vt 0.166666 1.000000
vt 0.166666 0.500000
vt 0.125000 1.000000
vt 0.125000 0.500000
vt 0.083333 1.000000
vt 0.083333 0.500000
vt 0.312117 0.481822
vt 0.250000 0.490000
vt 0.187883 0.481822
vt 0.130000 0.457846
vt 0.080294 0.419706
vt 0.042154 0.370000
vt 0.018178 0.312117
vt 0.010000 0.250000
vt 0.018178 0.187883
vt 0.042154 0.130000
vt 0.080294 0.080294
vt 0.130000 0.042154
vt 0.187883 0.018178
vt 0.250000 0.010000
vt 0.312117 0.018178
vt 0.370000 0.042154
vt 0.419706 0.080294
vt 0.457846 0.130000
vt 0.481822 0.187883
vt 0.490000 0.250000
vt 0.481822 0.312117
vt 0.457846 0.370000
vt 0.419706 0.419706
vt 0.370000 0.457846
vt 0.041666 1.000000
vt 0.041666 0.500000
vt -0.000000 1.000000
vt -0.000000 0.500000
vt 0.750000 0.490000
vt 0.812117 0.481822
vt 0.870000 0.457846
vt 0.919706 0.419706
vt 0.957846 0.370000
vt 0.981822 0.312117
vt 0.990000 0.250000
vt 0.981822 0.187883
vt 0.957846 0.130000
vt 0.919706 0.080294
vt 0.870000 0.042154
vt 0.812117 0.018178
vt 0.750000 0.010000
vt 0.687883 0.018178
vt 0.630000 0.042154
vt 0.580294 0.080294
vt 0.542154 0.130000
vt 0.518178 0.187883
vt 0.510000 0.250000
vt 0.518178 0.312117
vt 0.542154 0.370000
vt 0.580294 0.419706
vt 0.630000 0.457846
vt 0.687883 0.481822
s 0
usemtl Roman_WhiteMarble
f 17/29/13 18/30/13 20/31/13 19/32/13
f 19/32/14 20/31/14 22/33/14 21/34/14
f 21/34/15 22/33/15 24/35/15 23/36/15
f 23/36/16 24/35/16 26/37/16 25/38/16
f 25/38/17 26/37/17 28/39/17 27/40/17
f 27/40/18 28/39/18 30/41/18 29/42/18
f 29/42/19 30/41/19 32/43/19 31/44/19
f 31/44/20 32/43/20 34/45/20 33/46/20
f 33/46/21 34/45/21 36/47/21 35/48/21
f 35/48/22 36/47/22 38/49/22 37/50/22
f 37/50/23 38/49/23 40/51/23 39/52/23
f 39/52/24 40/51/24 42/53/24 41/54/24
f 41/54/25 42/53/25 44/55/25 43/56/25
f 43/56/26 44/55/26 46/57/26 45/58/26
f 45/58/27 46/57/27 48/59/27 47/60/27
f 47/60/28 48/59/28 50/61/28 49/62/28
f 49/62/29 50/61/29 52/63/29 51/64/29
f 51/64/30 52/63/30 54/65/30 53/66/30
f 53/66/31 54/65/31 56/67/31 55/68/31
f 55/68/32 56/67/32 58/69/32 57/70/32
f 57/70/33 58/69/33 60/71/33 59/72/33
f 59/72/34 60/71/34 62/73/34 61/74/34
f 20/75/35 18/76/35 64/77/35 62/78/35 60/79/35 58/80/35 56/81/35 54/82/35 52/83/35 50/84/35 48/85/35 46/86/35 44/87/35 42/88/35 40/89/35 38/90/35 36/91/35 34/92/35 32/93/35 30/94/35 28/95/35 26/96/35 24/97/35 22/98/35
f 61/74/36 62/73/36 64/99/36 63/100/36
f 63/100/37 64/99/37 18/101/37 17/102/37
f 17/103/38 19/104/38 21/105/38 23/106/38 25/107/38 27/108/38 29/109/38 31/110/38 33/111/38 35/112/38 37/113/38 39/114/38 41/115/38 43/116/38 45/117/38 47/118/38 49/119/38 51/120/38 53/121/38 55/122/38 57/123/38 59/124/38 61/125/38 63/126/38
o Capital_Base
v -0.850000 8.500000 -0.850000
v -0.850000 8.500000 0.850000
v -0.850000 9.000000 -0.850000
v -0.850000 9.000000 0.850000
v 0.850000 8.500000 -0.850000
v 0.850000 8.500000 0.850000
v 0.850000 9.000000 -0.850000
v 0.850000 9.000000 0.850000
vn -1.0000 -0.0000 -0.0000
vn -0.0000 1.0000 -0.0000
vn 1.0000 -0.0000 -0.0000
vn -0.0000 -1.0000 -0.0000
vn -0.0000 -0.0000 -1.0000
vn -0.0000 -0.0000 1.0000
vt 0.375000 0.000000
vt 0.625000 0.000000
vt 0.625000 0.250000
vt 0.375000 0.250000
vt 0.625000 0.500000
vt 0.375000 0.500000
vt 0.625000 0.750000
vt 0.375000 0.750000
vt 0.625000 1.000000
vt 0.375000 1.000000
vt 0.125000 0.500000
vt 0.125000 0.750000
vt 0.875000 0.500000
vt 0.875000 0.750000
s 0
usemtl Roman_ImperialGold
f 65/127/39 66/128/39 68/129/39 67/130/39
f 67/130/40 68/129/40 72/131/40 71/132/40
f 71/132/41 72/131/41 70/133/41 69/134/41
f 69/134/42 70/133/42 66/135/42 65/136/42
f 67/137/43 71/132/43 69/134/43 65/138/43
f 72/131/44 68/139/44 66/140/44 70/133/44
o Capital_Top
v -1.150000 9.000000 -1.150000
v -1.150000 9.000000 1.150000
v -1.150000 9.700001 -1.150000
v -1.150000 9.700001 1.150000
v 1.150000 9.000000 -1.150000
v 1.150000 9.000000 1.150000
v 1.150000 9.700001 -1.150000
v 1.150000 9.700001 1.150000
vn -1.0000 -0.0000 -0.0000
vn -0.0000 1.0000 -0.0000
vn 1.0000 -0.0000 -0.0000
vn -0.0000 -1.0000 -0.0000
vn -0.0000 -0.0000 -1.0000
vn -0.0000 -0.0000 1.0000
vt 0.375000 0.000000
vt 0.625000 0.000000
vt 0.625000 0.250000
vt 0.375000 0.250000
vt 0.625000 0.500000
vt 0.375000 0.500000
vt 0.625000 0.750000
vt 0.375000 0.750000
vt 0.625000 1.000000
vt 0.375000 1.000000
vt 0.125000 0.500000
vt 0.125000 0.750000
vt 0.875000 0.500000
vt 0.875000 0.750000
s 0
usemtl Roman_WhiteMarble
f 73/141/45 74/142/45 76/143/45 75/144/45
f 75/144/46 76/143/46 80/145/46 79/146/46
f 79/146/47 80/145/47 78/147/47 77/148/47
f 77/148/48 78/147/48 74/149/48 73/150/48
f 75/151/49 79/146/49 77/148/49 73/152/49
f 80/145/50 76/153/50 74/154/50 78/147/50
