# Blender 5.2.1 LTS
# www.blender.org
mtllib roman_brazier.mtl
o Leg_0
v 0.000000 0.000397 -0.514720
v 0.000000 2.175693 -0.843484
v 0.030615 0.001307 -0.508698
v 0.030615 2.176603 -0.837462
v 0.056569 0.003898 -0.491551
v 0.056569 2.179195 -0.820315
v 0.073910 0.007777 -0.465889
v 0.073910 2.183073 -0.794653
v 0.080000 0.012352 -0.435618
v 0.080000 2.187648 -0.764382
v 0.073910 0.016927 -0.405347
v 0.073910 2.192223 -0.734111
v 0.056569 0.020805 -0.379685
v 0.056569 2.196102 -0.708449
v 0.030615 0.023397 -0.362538
v 0.030615 2.198693 -0.691302
v 0.000000 0.024307 -0.356516
v 0.000000 2.199603 -0.685280
v -0.030615 0.023397 -0.362538
v -0.030615 2.198693 -0.691302
v -0.056569 0.020805 -0.379685
v -0.056569 2.196102 -0.708449
v -0.073910 0.016927 -0.405347
v -0.073910 2.192223 -0.734111
v -0.080000 0.012352 -0.435618
v -0.080000 2.187648 -0.764382
v -0.073910 0.007777 -0.465889
v -0.073910 2.183073 -0.794653
v -0.056569 0.003898 -0.491551
v -0.056569 2.179195 -0.820315
v -0.030615 0.001307 -0.508698
v -0.030615 2.176603 -0.837462
vn 0.1951 -0.1466 -0.9698
vn 0.5556 -0.1243 -0.8221
vn 0.8315 -0.0830 -0.5493
vn 0.9808 -0.0292 -0.1929
vn 0.9808 0.0292 0.1929
vn 0.8315 0.0830 0.5493
vn 0.5556 0.1243 0.8221
vn 0.1951 0.1466 0.9698
vn -0.1951 0.1466 0.9698
vn -0.5556 0.1243 0.8221
vn -0.8315 0.0830 0.5493
vn -0.9808 0.0292 0.1929
vn -0.9808 -0.0292 -0.1929
vn -0.8315 -0.0830 -0.5493
vn -0.0000 0.9888 -0.1494
vn -0.5556 -0.1243 -0.8221
vn -0.1951 -0.1466 -0.9698
vn -0.0000 -0.9888 0.1494
vt 1.000000 0.500000
vt 1.000000 1.000000
vt 0.937500 1.000000
vt 0.937500 0.500000
vt 0.875000 1.000000
vt 0.875000 0.500000
vt 0.812500 1.000000
vt 0.812500 0.500000
vt 0.750000 1.000000
vt 0.750000 0.500000
vt 0.687500 1.000000
vt 0.687500 0.500000
vt 0.625000 1.000000
vt 0.625000 0.500000
vt 0.562500 1.000000
vt 0.562500 0.500000
vt 0.500000 1.000000
vt 0.500000 0.500000
vt 0.437500 1.000000
vt 0.437500 0.500000
vt 0.375000 1.000000
vt 0.375000 0.500000
vt 0.312500 1.000000
vt 0.312500 0.500000
vt 0.250000 1.000000
vt 0.250000 0.500000
vt 0.187500 1.000000
vt 0.187500 0.500000
vt 0.125000 1.000000
vt 0.125000 0.500000
vt 0.341844 0.471731
vt 0.250000 0.490000
vt 0.158156 0.471731
vt 0.080294 0.419706
vt 0.028269 0.341844
vt 0.010000 0.250000
vt 0.028269 0.158156
vt 0.080294 0.080294
vt 0.158156 0.028269
vt 0.250000 0.010000
vt 0.341844 0.028269
vt 0.419706 0.080294
vt 0.471731 0.158156
vt 0.490000 0.250000
vt 0.471731 0.341844
vt 0.419706 0.419706
vt 0.062500 1.000000
vt 0.062500 0.500000
vt 0.000000 1.000000
vt 0.000000 0.500000
vt 0.750000 0.490000
vt 0.841844 0.471731
vt 0.919706 0.419706
vt 0.971731 0.341844
vt 0.990000 0.250000
vt 0.971731 0.158156
vt 0.919706 0.080294
vt 0.841844 0.028269
vt 0.750000 0.010000
vt 0.658156 0.028269
vt 0.580294 0.080294
vt 0.528269 0.158156
vt 0.510000 0.250000
vt 0.528269 0.341844
vt 0.580294 0.419706
vt 0.658156 0.471731
s 0
usemtl Roman_Bronze
f 1/1/1 2/2/1 4/3/1 3/4/1
f 3/4/2 4/3/2 6/5/2 5/6/2
f 5/6/3 6/5/3 8/7/3 7/8/3
f 7/8/4 8/7/4 10/9/4 9/10/4
f 9/10/5 10/9/5 12/11/5 11/12/5
f 11/12/6 12/11/6 14/13/6 13/14/6
f 13/14/7 14/13/7 16/15/7 15/16/7
f 15/16/8 16/15/8 18/17/8 17/18/8
f 17/18/9 18/17/9 20/19/9 19/20/9
f 19/20/10 20/19/10 22/21/10 21/22/10
f 21/22/11 22/21/11 24/23/11 23/24/11
f 23/24/12 24/23/12 26/25/12 25/26/12
f 25/26/13 26/25/13 28/27/13 27/28/13
f 27/28/14 28/27/14 30/29/14 29/30/14
f 4/31/15 2/32/15 32/33/15 30/34/15 28/35/15 26/36/15 24/37/15 22/38/15 20/39/15 18/40/15 16/41/15 14/42/15 12/43/15 10/44/15 8/45/15 6/46/15
f 29/30/16 30/29/16 32/47/16 31/48/16
f 31/48/17 32/47/17 2/49/17 1/50/17
f 1/51/18 3/52/18 5/53/18 7/54/18 9/55/18 11/56/18 13/57/18 15/58/18 17/59/18 19/60/18 21/61/18 23/62/18 25/63/18 27/64/18 29/65/18 31/66/18
o Leg_1
v 0.378300 0.018278 0.137802
v 0.662484 2.193609 0.302648
v 0.408597 0.013860 0.143875
v 0.692781 2.189191 0.308720
v 0.434164 0.009210 0.161168
v 0.718348 2.184541 0.326013
v 0.451108 0.005035 0.187049
v 0.735292 2.180366 0.351894
v 0.456849 0.001971 0.217577
v 0.741033 2.177302 0.382423
v 0.450514 0.000486 0.248106
v 0.734698 2.175817 0.412951
v 0.433066 0.000804 0.273987
v 0.717250 2.176135 0.438832
v 0.407162 0.002877 0.291280
v 0.691347 2.178208 0.456125
v 0.376747 0.006391 0.297352
v 0.660931 2.181722 0.462198
v 0.346449 0.010809 0.291280
v 0.630633 2.186140 0.456125
v 0.320882 0.015459 0.273987
v 0.605066 2.190790 0.438832
v 0.303938 0.019634 0.248106
v 0.588123 2.194965 0.412951
v 0.298197 0.022698 0.217577
v 0.582381 2.198029 0.382423
v 0.304533 0.024183 0.187049
v 0.588717 2.199514 0.351894
v 0.321980 0.023865 0.161168
v 0.606164 2.199196 0.326013
v 0.347884 0.021792 0.143875
v 0.632068 2.197123 0.308720
vn 0.2030 0.0476 -0.9780
vn 0.5590 -0.0102 -0.8291
vn 0.8299 -0.0664 -0.5540
vn 0.9744 -0.1126 -0.1945
vn 0.9706 -0.1415 0.1945
vn 0.8191 -0.1490 0.5540
vn 0.5428 -0.1337 0.8291
vn 0.1839 -0.0981 0.9780
vn -0.2030 -0.0476 0.9780
vn -0.5590 0.0102 0.8291
vn -0.8299 0.0664 0.5540
vn -0.9744 0.1126 0.1945
vn -0.9706 0.1415 -0.1945
vn -0.8191 0.1490 -0.5540
vn 0.1292 0.9888 0.0749
vn -0.5428 0.1337 -0.8291
vn -0.1839 0.0981 -0.9780
vn -0.1292 -0.9888 -0.0749
vt 1.000000 0.500000
vt 1.000000 1.000000
vt 0.937500 1.000000
vt 0.937500 0.500000
vt 0.875000 1.000000
vt 0.875000 0.500000
vt 0.812500 1.000000
vt 0.812500 0.500000
vt 0.750000 1.000000
vt 0.750000 0.500000
vt 0.687500 1.000000
vt 0.687500 0.500000
vt 0.625000 1.000000
vt 0.625000 0.500000
vt 0.562500 1.000000
vt 0.562500 0.500000
vt 0.500000 1.000000
vt 0.500000 0.500000
vt 0.437500 1.000000
vt 0.437500 0.500000
vt 0.375000 1.000000
vt 0.375000 0.500000
vt 0.312500 1.000000
vt 0.312500 0.500000
vt 0.250000 1.000000
vt 0.250000 0.500000
vt 0.187500 1.000000
vt 0.187500 0.500000
vt 0.125000 1.000000
vt 0.125000 0.500000
vt 0.341844 0.471731
vt 0.250000 0.490000
vt 0.158156 0.471731
vt 0.080294 0.419706
vt 0.028269 0.341844
vt 0.010000 0.250000
vt 0.028269 0.158156
vt 0.080294 0.080294
vt 0.158156 0.028269
vt 0.250000 0.010000
vt 0.341844 0.028269
vt 0.419706 0.080294
vt 0.471731 0.158156
vt 0.490000 0.250000
vt 0.471731 0.341844
vt 0.419706 0.419706
vt 0.062500 1.000000
vt 0.062500 0.500000
vt 0.000000 1.000000
vt 0.000000 0.500000
vt 0.750000 0.490000
vt 0.841844 0.471731
vt 0.919706 0.419706
vt 0.971731 0.341844
vt 0.990000 0.250000
vt 0.971731 0.158156
vt 0.919706 0.080294
vt 0.841844 0.028269
vt 0.750000 0.010000
vt 0.658156 0.028269
vt 0.580294 0.080294
vt 0.528269 0.158156
vt 0.510000 0.250000
vt 0.528269 0.341844
vt 0.580294 0.419706
vt 0.658156 0.471731
s 0
usemtl Roman_Bronze
f 33/67/19 34/68/19 36/69/19 35/70/19
f 35/70/20 36/69/20 38/71/20 37/72/20
f 37/72/21 38/71/21 40/73/21 39/74/21
f 39/74/22 40/73/22 42/75/22 41/76/22
f 41/76/23 42/75/23 44/77/23 43/78/23
f 43/78/24 44/77/24 46/79/24 45/80/24
f 45/80/25 46/79/25 48/81/25 47/82/25
f 47/82/26 48/81/26 50/83/26 49/84/26
f 49/84/27 50/83/27 52/85/27 51/86/27
f 51/86/28 52/85/28 54/87/28 53/88/28
f 53/88/29 54/87/29 56/89/29 55/90/29
f 55/90/30 56/89/30 58/91/30 57/92/30
f 57/92/31 58/91/31 60/93/31 59/94/31
f 59/94/32 60/93/32 62/95/32 61/96/32
f 36/97/33 34/98/33 64/99/33 62/100/33 60/101/33 58/102/33 56/103/33 54/104/33 52/105/33 50/106/33 48/107/33 46/108/33 44/109/33 42/110/33 40/111/33 38/112/33
f 61/96/34 62/95/34 64/113/34 63/114/34
f 63/114/35 64/113/35 34/115/35 33/116/35
f 33/117/36 35/118/36 37/119/36 39/120/36 41/121/36 43/122/36 45/123/36 47/124/36 49/125/36 51/126/36 53/127/36 55/128/36 57/129/36 59/130/36 61/131/36 63/132/36
o Leg_2
v -0.378300 0.018278 0.137802
v -0.662484 2.193609 0.302648
v -0.347884 0.021792 0.143875
v -0.632068 2.197123 0.308720
v -0.321980 0.023865 0.161168
v -0.606164 2.199196 0.326013
v -0.304533 0.024183 0.187049
v -0.588717 2.199514 0.351894
v -0.298197 0.022698 0.217577
v -0.582381 2.198029 0.382423
v -0.303938 0.019634 0.248106
v -0.588123 2.194965 0.412951
v -0.320882 0.015459 0.273987
v -0.605066 2.190790 0.438832
v -0.346449 0.010809 0.291280
v -0.630633 2.186140 0.456125
v -0.376747 0.006391 0.297352
v -0.660931 2.181722 0.462198
v -0.407162 0.002877 0.291280
v -0.691347 2.178208 0.456125
v -0.433066 0.000804 0.273987
v -0.717250 2.176135 0.438832
v -0.450514 0.000486 0.248106
v -0.734698 2.175817 0.412951
v -0.456849 0.001971 0.217577
v -0.741033 2.177302 0.382423
v -0.451108 0.005035 0.187049
v -0.735292 2.180366 0.351894
v -0.434164 0.009210 0.161168
v -0.718348 2.184541 0.326013
v -0.408597 0.013860 0.143875
v -0.692781 2.189191 0.308720
vn 0.1839 0.0981 -0.9780
vn 0.5428 0.1337 -0.8291
vn 0.8191 0.1490 -0.5540
vn 0.9706 0.1415 -0.1945
vn 0.9744 0.1126 0.1945
vn 0.8299 0.0664 0.5540
vn 0.5590 0.0102 0.8291
vn 0.2030 -0.0476 0.9780
vn -0.1839 -0.0981 0.9780
vn -0.5428 -0.1337 0.8291
vn -0.8191 -0.1490 0.5540
vn -0.9706 -0.1415 0.1945
vn -0.9744 -0.1126 -0.1945
vn -0.8299 -0.0664 -0.5540
vn -0.1292 0.9888 0.0749
vn -0.5590 -0.0102 -0.8291
vn -0.2030 0.0476 -0.9780
vn 0.1292 -0.9888 -0.0749
vt 1.000000 0.500000
vt 1.000000 1.000000
vt 0.937500 1.000000
vt 0.937500 0.500000
vt 0.875000 1.000000
vt 0.875000 0.500000
vt 0.812500 1.000000
vt 0.812500 0.500000
vt 0.750000 1.000000
vt 0.750000 0.500000
vt 0.687500 1.000000
vt 0.687500 0.500000
vt 0.625000 1.000000
vt 0.625000 0.500000
vt 0.562500 1.000000
vt 0.562500 0.500000
vt 0.500000 1.000000
vt 0.500000 0.500000
vt 0.437500 1.000000
vt 0.437500 0.500000
vt 0.375000 1.000000
vt 0.375000 0.500000
vt 0.312500 1.000000
vt 0.312500 0.500000
vt 0.250000 1.000000
vt 0.250000 0.500000
vt 0.187500 1.000000
vt 0.187500 0.500000
vt 0.125000 1.000000
vt 0.125000 0.500000
vt 0.341844 0.471731
vt 0.250000 0.490000
vt 0.158156 0.471731
vt 0.080294 0.419706
vt 0.028269 0.341844
vt 0.010000 0.250000
vt 0.028269 0.158156
vt 0.080294 0.080294
vt 0.158156 0.028269
vt 0.250000 0.010000
vt 0.341844 0.028269
vt 0.419706 0.080294
vt 0.471731 0.158156
vt 0.490000 0.250000
vt 0.471731 0.341844
vt 0.419706 0.419706
vt 0.062500 1.000000
vt 0.062500 0.500000
vt 0.000000 1.000000
vt 0.000000 0.500000
vt 0.750000 0.490000
vt 0.841844 0.471731
vt 0.919706 0.419706
vt 0.971731 0.341844
vt 0.990000 0.250000
vt 0.971731 0.158156
vt 0.919706 0.080294
vt 0.841844 0.028269
vt 0.750000 0.010000
vt 0.658156 0.028269
vt 0.580294 0.080294
vt 0.528269 0.158156
vt 0.510000 0.250000
vt 0.528269 0.341844
vt 0.580294 0.419706
vt 0.658156 0.471731
s 0
usemtl Roman_Bronze
f 65/133/37 66/134/37 68/135/37 67/136/37
f 67/136/38 68/135/38 70/137/38 69/138/38
f 69/138/39 70/137/39 72/139/39 71/140/39
f 71/140/40 72/139/40 74/141/40 73/142/40
f 73/142/41 74/141/41 76/143/41 75/144/41
f 75/144/42 76/143/42 78/145/42 77/146/42
f 77/146/43 78/145/43 80/147/43 79/148/43
f 79/148/44 80/147/44 82/149/44 81/150/44
f 81/150/45 82/149/45 84/151/45 83/152/45
f 83/152/46 84/151/46 86/153/46 85/154/46
f 85/154/47 86/153/47 88/155/47 87/156/47
f 87/156/48 88/155/48 90/157/48 89/158/48
f 89/158/49 90/157/49 92/159/49 91/160/49
f 91/160/50 92/159/50 94/161/50 93/162/50
f 68/163/51 66/164/51 96/165/51 94/166/51 92/167/51 90/168/51 88/169/51 86/170/51 84/171/51 82/172/51 80/173/51 78/174/51 76/175/51 74/176/51 72/177/51 70/178/51
f 93/162/52 94/161/52 96/179/52 95/180/52
f 95/180/53 96/179/53 66/181/53 65/182/53
f 65/183/54 67/184/54 69/185/54 71/186/54 73/187/54 75/188/54 77/189/54 79/190/54 81/191/54 83/192/54 85/193/54 87/194/54 89/195/54 91/196/54 93/197/54 95/198/54
o Bowl_Ring
v 0.000000 2.150000 -0.950000
v 0.000000 2.450000 -0.950000
v 0.363549 2.150000 -0.877686
v 0.363549 2.450000 -0.877686
v 0.671751 2.150000 -0.671751
v 0.671751 2.450000 -0.671751
v 0.877686 2.150000 -0.363549
v 0.877686 2.450000 -0.363549
v 0.950000 2.150000 0.000000
v 0.950000 2.450000 0.000000
v 0.877686 2.150000 0.363549
v 0.877686 2.450000 0.363549
v 0.671751 2.150000 0.671751
v 0.671751 2.450000 0.671751
v 0.363549 2.150000 0.877686
v 0.363549 2.450000 0.877686
v 0.000000 2.150000 0.950000
v 0.000000 2.450000 0.950000
v -0.363549 2.150000 0.877686
v -0.363549 2.450000 0.877686
v -0.671751 2.150000 0.671751
v -0.671751 2.450000 0.671751
v -0.877686 2.150000 0.363549
v -0.877686 2.450000 0.363549
v -0.950000 2.150000 0.000000
v -0.950000 2.450000 0.000000
v -0.877686 2.150000 -0.363549
v -0.877686 2.450000 -0.363549
v -0.671751 2.150000 -0.671751
v -0.671751 2.450000 -0.671751
v -0.363549 2.150000 -0.877686
v -0.363549 2.450000 -0.877686
vn 0.1951 -0.0000 -0.9808
vn 0.5556 -0.0000 -0.8315
vn 0.8315 -0.0000 -0.5556
vn 0.9808 -0.0000 -0.1951
vn 0.9808 -0.0000 0.1951
vn 0.8315 -0.0000 0.5556
vn 0.5556 -0.0000 0.8315
vn 0.1951 -0.0000 0.9808
vn -0.1951 -0.0000 0.9808
vn -0.5556 -0.0000 0.8315
vn -0.8315 -0.0000 0.5556
vn -0.9808 -0.0000 0.1951
vn -0.9808 -0.0000 -0.1951
vn -0.8315 -0.0000 -0.5556
vn -0.0000 1.0000 -0.0000
vn -0.5556 -0.0000 -0.8315
vn -0.1951 -0.0000 -0.9808
vn -0.0000 -1.0000 -0.0000
vt 1.000000 0.500000
vt 1.000000 1.000000
vt 0.937500 1.000000
vt 0.937500 0.500000
vt 0.875000 1.000000
vt 0.875000 0.500000
vt 0.812500 1.000000
vt 0.812500 0.500000
vt 0.750000 1.000000
vt 0.750000 0.500000
vt 0.687500 1.000000
vt 0.687500 0.500000
vt 0.625000 1.000000
vt 0.625000 0.500000
vt 0.562500 1.000000
vt 0.562500 0.500000
vt 0.500000 1.000000
vt 0.500000 0.500000
vt 0.437500 1.000000
vt 0.437500 0.500000
vt 0.375000 1.000000
vt 0.375000 0.500000
vt 0.312500 1.000000
vt 0.312500 0.500000
vt 0.250000 1.000000
vt 0.250000 0.500000
vt 0.187500 1.000000
vt 0.187500 0.500000
vt 0.125000 1.000000
vt 0.125000 0.500000
vt 0.341844 0.471731
vt 0.250000 0.490000
vt 0.158156 0.471731
vt 0.080294 0.419706
vt 0.028269 0.341844
vt 0.010000 0.250000
vt 0.028269 0.158156
vt 0.080294 0.080294
vt 0.158156 0.028269
vt 0.250000 0.010000
vt 0.341844 0.028269
vt 0.419706 0.080294
vt 0.471731 0.158156
vt 0.490000 0.250000
vt 0.471731 0.341844
vt 0.419706 0.419706
vt 0.062500 1.000000
vt 0.062500 0.500000
vt 0.000000 1.000000
vt 0.000000 0.500000
vt 0.750000 0.490000
vt 0.841844 0.471731
vt 0.919706 0.419706
vt 0.971731 0.341844
vt 0.990000 0.250000
vt 0.971731 0.158156
vt 0.919706 0.080294
vt 0.841844 0.028269
vt 0.750000 0.010000
vt 0.658156 0.028269
vt 0.580294 0.080294
vt 0.528269 0.158156
vt 0.510000 0.250000
vt 0.528269 0.341844
vt 0.580294 0.419706
vt 0.658156 0.471731
s 0
usemtl Roman_Gold
f 97/199/55 98/200/55 100/201/55 99/202/55
f 99/202/56 100/201/56 102/203/56 101/204/56
f 101/204/57 102/203/57 104/205/57 103/206/57
f 103/206/58 104/205/58 106/207/58 105/208/58
f 105/208/59 106/207/59 108/209/59 107/210/59
f 107/210/60 108/209/60 110/211/60 109/212/60
f 109/212/61 110/211/61 112/213/61 111/214/61
f 111/214/62 112/213/62 114/215/62 113/216/62
f 113/216/63 114/215/63 116/217/63 115/218/63
f 115/218/64 116/217/64 118/219/64 117/220/64
f 117/220/65 118/219/65 120/221/65 119/222/65
f 119/222/66 120/221/66 122/223/66 121/224/66
f 121/224/67 122/223/67 124/225/67 123/226/67
f 123/226/68 124/225/68 126/227/68 125/228/68
f 100/229/69 98/230/69 128/231/69 126/232/69 124/233/69 122/234/69 120/235/69 118/236/69 116/237/69 114/238/69 112/239/69 110/240/69 108/241/69 106/242/69 104/243/69 102/244/69
f 125/228/70 126/227/70 128/245/70 127/246/70
f 127/246/71 128/245/71 98/247/71 97/248/71
f 97/249/72 99/250/72 101/251/72 103/252/72 105/253/72 107/254/72 109/255/72 111/256/72 113/257/72 115/258/72 117/259/72 119/260/72 121/261/72 123/262/72 125/263/72 127/264/72
o Bowl
v 0.000000 2.400000 0.900000
v 0.344415 2.400000 0.831492
v 0.636396 2.400000 0.636396
v 0.831492 2.400000 0.344415
v 0.900000 2.400000 0.000000
v 0.831492 2.400000 -0.344415
v 0.636396 2.400000 -0.636396
v 0.344415 2.400000 -0.831492
v 0.000000 2.400000 -0.900000
v -0.344415 2.400000 -0.831492
v -0.636396 2.400000 -0.636396
v -0.831492 2.400000 -0.344415
v -0.900000 2.400000 0.000000
v -0.831492 2.400000 0.344415
v -0.636396 2.400000 0.636396
v -0.344415 2.400000 0.831492
v 0.000000 1.800000 -0.000000
vn 0.1097 -0.8270 0.5514
vn 0.3123 -0.8270 0.4674
vn 0.4674 -0.8270 0.3123
vn 0.5514 -0.8270 0.1097
vn 0.5514 -0.8270 -0.1097
vn 0.4674 -0.8270 -0.3123
vn 0.3123 -0.8270 -0.4674
vn 0.1097 -0.8270 -0.5514
vn -0.1097 -0.8270 -0.5514
vn -0.3123 -0.8270 -0.4674
vn -0.4674 -0.8270 -0.3123
vn -0.5514 -0.8270 -0.1097
vn -0.5514 -0.8270 0.1097
vn -0.4674 -0.8270 0.3123
vn -0.0000 1.0000 -0.0000
vn -0.3123 -0.8270 0.4674
vn -0.1097 -0.8270 0.5514
vt 0.250000 0.490000
vt 0.250000 0.250000
vt 0.341844 0.471731
vt 0.419706 0.419706
vt 0.471731 0.341844
vt 0.490000 0.250000
vt 0.471731 0.158156
vt 0.419706 0.080294
vt 0.341844 0.028269
vt 0.250000 0.010000
vt 0.158156 0.028269
vt 0.080294 0.080294
vt 0.028269 0.158156
vt 0.010000 0.250000
vt 0.028269 0.341844
vt 0.080294 0.419706
vt 0.750000 0.490000
vt 0.841844 0.471731
vt 0.919706 0.419706
vt 0.971731 0.341844
vt 0.990000 0.250000
vt 0.971731 0.158156
vt 0.919706 0.080294
vt 0.841844 0.028269
vt 0.750000 0.010000
vt 0.658156 0.028269
vt 0.580294 0.080294
vt 0.528269 0.158156
vt 0.510000 0.250000
vt 0.528269 0.341844
vt 0.580294 0.419706
vt 0.658156 0.471731
vt 0.158156 0.471731
s 0
usemtl Roman_Bronze
f 129/265/73 145/266/73 130/267/73
f 130/267/74 145/266/74 131/268/74
f 131/268/75 145/266/75 132/269/75
f 132/269/76 145/266/76 133/270/76
f 133/270/77 145/266/77 134/271/77
f 134/271/78 145/266/78 135/272/78
f 135/272/79 145/266/79 136/273/79
f 136/273/80 145/266/80 137/274/80
f 137/274/81 145/266/81 138/275/81
f 138/275/82 145/266/82 139/276/82
f 139/276/83 145/266/83 140/277/83
f 140/277/84 145/266/84 141/278/84
f 141/278/85 145/266/85 142/279/85
f 142/279/86 145/266/86 143/280/86
f 129/281/87 130/282/87 131/283/87 132/284/87 133/285/87 134/286/87 135/287/87 136/288/87 137/289/87 138/290/87 139/291/87 140/292/87 141/293/87 142/294/87 143/295/87 144/296/87
f 143/280/88 145/266/88 144/297/88
f 144/297/89 145/266/89 129/265/89
o Coals
v 0.000000 3.100000 0.000000
v 0.000000 3.085589 -0.146318
v 0.000000 2.880330 -0.530330
v 0.000000 2.637012 -0.692910
v 0.000000 2.496318 -0.735589
v 0.000000 2.203682 -0.735589
v 0.000000 1.933322 -0.623602
v 0.000000 1.726398 -0.416678
v 0.000000 1.657090 -0.287013
v 0.000000 1.614411 -0.146318
v 0.000000 1.600000 0.000000
v 0.055993 3.085589 -0.135180
v 0.109835 3.042910 -0.265165
v 0.159456 2.973602 -0.384960
v 0.202949 2.880330 -0.489961
v 0.238642 2.766678 -0.576133
v 0.265165 2.637012 -0.640165
v 0.281498 2.496318 -0.679596
v 0.287013 2.350000 -0.692910
v 0.281498 2.203682 -0.679596
v 0.265165 2.062987 -0.640165
v 0.238642 1.933322 -0.576133
v 0.202949 1.819670 -0.489961
v 0.159456 1.726398 -0.384960
v 0.109835 1.657090 -0.265165
v 0.055993 1.614411 -0.135180
v 0.103462 3.085589 -0.103462
v 0.202949 3.042910 -0.202949
v 0.294636 2.973602 -0.294636
v 0.375000 2.880330 -0.375000
v 0.440953 2.766678 -0.440953
v 0.489961 2.637012 -0.489961
v 0.520140 2.496318 -0.520140
v 0.530330 2.350000 -0.530330
v 0.520140 2.203682 -0.520140
v 0.489961 2.062987 -0.489961
v 0.440953 1.933322 -0.440953
v 0.375000 1.819670 -0.375000
v 0.294636 1.726398 -0.294636
v 0.202949 1.657090 -0.202949
v 0.103462 1.614411 -0.103462
v 0.135180 3.085589 -0.055993
v 0.265165 3.042910 -0.109835
v 0.384960 2.973602 -0.159456
v 0.489961 2.880330 -0.202948
v 0.576133 2.766678 -0.238642
v 0.640165 2.637012 -0.265165
v 0.679596 2.496318 -0.281498
v 0.692910 2.350000 -0.287012
v 0.679596 2.203682 -0.281498
v 0.640165 2.062987 -0.265165
v 0.576133 1.933322 -0.238642
v 0.489961 1.819670 -0.202948
v 0.384960 1.726398 -0.159456
v 0.265165 1.657090 -0.109835
v 0.135180 1.614411 -0.055993
v 0.146318 3.085589 0.000000
v 0.287013 3.042910 0.000000
v 0.416678 2.973602 0.000000
v 0.530330 2.880330 0.000000
v 0.623602 2.766678 0.000000
v 0.692910 2.637012 0.000000
v 0.735589 2.496318 0.000000
v 0.750000 2.350000 0.000000
v 0.735589 2.203682 0.000000
v 0.692910 2.062987 0.000000
v 0.623602 1.933322 0.000000
v 0.530330 1.819670 0.000000
v 0.416678 1.726398 0.000000
v 0.287013 1.657090 0.000000
v 0.146318 1.614411 0.000000
v 0.135180 3.085589 0.055993
v 0.265165 3.042910 0.109835
v 0.384960 2.973602 0.159456
v 0.489961 2.880330 0.202949
v 0.576133 2.766678 0.238642
v 0.640165 2.637012 0.265165
v 0.679595 2.496318 0.281498
v 0.692909 2.350000 0.287013
v 0.679595 2.203682 0.281498
v 0.640165 2.062987 0.265165
v 0.576133 1.933322 0.238642
v 0.489961 1.819670 0.202949
v 0.384960 1.726398 0.159456
v 0.265165 1.657090 0.109835
v 0.135180 1.614411 0.055993
v 0.103462 3.085589 0.103462
v 0.202948 3.042910 0.202949
v 0.294636 2.973602 0.294636
v 0.375000 2.880330 0.375000
v 0.440953 2.766678 0.440953
v 0.489961 2.637012 0.489961
v 0.520140 2.496318 0.520140
v 0.530330 2.350000 0.530330
v 0.520140 2.203682 0.520140
v 0.489961 2.062987 0.489961
v 0.440953 1.933322 0.440953
v 0.375000 1.819670 0.375000
v 0.294636 1.726398 0.294636
v 0.202948 1.657090 0.202949
v 0.103462 1.614411 0.103462
v 0.055993 3.085589 0.135180
v 0.109835 3.042910 0.265165
v 0.159456 2.973602 0.384960
v 0.202948 2.880330 0.489961
v 0.238642 2.766678 0.576133
v 0.265165 2.637012 0.640165
v 0.281497 2.496318 0.679595
v 0.287012 2.350000 0.692910
v 0.281497 2.203682 0.679595
v 0.265165 2.062987 0.640165
v 0.238642 1.933322 0.576133
v 0.202948 1.819670 0.489961
v 0.159456 1.726398 0.384960
v 0.109835 1.657090 0.265165
v 0.055993 1.614411 0.135180
v -0.000000 3.085589 0.146318
v -0.000000 3.042910 0.287013
v -0.000000 2.973602 0.416678
v -0.000000 2.880330 0.530330
v -0.000000 2.766678 0.623602
v -0.000000 2.637012 0.692909
v -0.000000 2.496318 0.735589
v -0.000000 2.350000 0.750000
v -0.000000 2.203682 0.735589
v -0.000000 2.062987 0.692909
v -0.000000 1.933322 0.623602
v -0.000000 1.819670 0.530330
v -0.000000 1.726398 0.416678
v -0.000000 1.657090 0.287013
v -0.000000 1.614411 0.146318
v -0.055993 3.085589 0.135180
v -0.109835 3.042910 0.265165
v -0.159456 2.973602 0.384960
v -0.202949 2.880330 0.489961
v -0.238642 2.766678 0.576133
v -0.265165 2.637012 0.640165
v -0.281498 2.496318 0.679595
v -0.287013 2.350000 0.692909
v -0.281498 2.203682 0.679595
v -0.265165 2.062987 0.640165
v -0.238642 1.933322 0.576133
v -0.202949 1.819670 0.489961
v -0.159456 1.726398 0.384960
v -0.109835 1.657090 0.265165
v -0.055993 1.614411 0.135180
v -0.103462 3.085589 0.103462
v -0.202949 3.042910 0.202948
v -0.294636 2.973602 0.294635
v -0.375000 2.880330 0.375000
v -0.440953 2.766678 0.440953
v -0.489961 2.637012 0.489961
v -0.520140 2.496318 0.520140
v -0.530330 2.350000 0.530330
v -0.520140 2.203682 0.520140
v -0.489961 2.062987 0.489961
v -0.440953 1.933322 0.440953
v -0.375000 1.819670 0.375000
v -0.294636 1.726398 0.294635
v -0.202949 1.657090 0.202948
v -0.103462 1.614411 0.103462
v -0.135180 3.085589 0.055993
v -0.265165 3.042910 0.109835
v -0.384960 2.973602 0.159455
v -0.489961 2.880330 0.202948
v -0.576133 2.766678 0.238642
v -0.640165 2.637012 0.265165
v -0.679595 2.496318 0.281497
v -0.692910 2.350000 0.287012
v -0.679595 2.203682 0.281497
v -0.640165 2.062987 0.265165
v -0.576133 1.933322 0.238642
v -0.489961 1.819670 0.202948
v -0.384960 1.726398 0.159455
v -0.265165 1.657090 0.109835
v -0.135180 1.614411 0.055993
v -0.146318 3.085589 -0.000000
v -0.287013 3.042910 -0.000000
v -0.416678 2.973602 -0.000000
v -0.530330 2.880330 -0.000000
v -0.623602 2.766678 -0.000000
v -0.692909 2.637012 -0.000000
v -0.735589 2.496318 -0.000000
v -0.750000 2.350000 -0.000000
v -0.735589 2.203682 -0.000000
v -0.692909 2.062987 -0.000000
v -0.623602 1.933322 -0.000000
v -0.530330 1.819670 -0.000000
v -0.416678 1.726398 -0.000000
v -0.287013 1.657090 -0.000000
v -0.146318 1.614411 -0.000000
v -0.135180 3.085589 -0.055993
v -0.265165 3.042910 -0.109835
v -0.384960 2.973602 -0.159456
v -0.489961 2.880330 -0.202949
v -0.576133 2.766678 -0.238642
v -0.640165 2.637012 -0.265165
v -0.679595 2.496318 -0.281498
v -0.692909 2.350000 -0.287013
v -0.679595 2.203682 -0.281498
v -0.640165 2.062987 -0.265165
v -0.576133 1.933322 -0.238642
v -0.489961 1.819670 -0.202949
v -0.384960 1.726398 -0.159456
v -0.265165 1.657090 -0.109835
v -0.135180 1.614411 -0.055993
v -0.103462 3.085589 -0.103462
v -0.202948 3.042910 -0.202949
v -0.294635 2.973602 -0.294636
v -0.375000 2.880330 -0.375000
v -0.440953 2.766678 -0.440953
v -0.489961 2.637012 -0.489961
v -0.520140 2.496318 -0.520140
v -0.530330 2.350000 -0.530330
v -0.520140 2.203682 -0.520140
v -0.489961 2.062987 -0.489961
v -0.440953 1.933322 -0.440953
v -0.375000 1.819670 -0.375000
v -0.294635 1.726398 -0.294636
v -0.202948 1.657090 -0.202949
v -0.103462 1.614411 -0.103462
v -0.055993 3.085589 -0.135180
v -0.109835 3.042910 -0.265165
v -0.159455 2.973602 -0.384960
v -0.202948 2.880330 -0.489961
v -0.238642 2.766678 -0.576133
v -0.265165 2.637012 -0.640165
v -0.281497 2.496318 -0.679595
v -0.287012 2.350000 -0.692910
v -0.281497 2.203682 -0.679595
v -0.265165 2.062987 -0.640165
v -0.238642 1.933322 -0.576133
v -0.202948 1.819670 -0.489961
v -0.159455 1.726398 -0.384960
v -0.109835 1.657090 -0.265165
v -0.055993 1.614411 -0.135180
v 0.000000 3.042910 -0.287013
v 0.000000 2.973602 -0.416678
v 0.000000 2.766678 -0.623602
v 0.000000 2.350000 -0.750000
v 0.000000 2.062987 -0.692909
v 0.000000 1.819670 -0.530330
vn 0.0576 -0.9553 -0.2898
vn 0.1942 0.0962 -0.9762
vn 0.0195 0.9950 -0.0980
vn 0.0195 -0.9950 -0.0980
vn 0.1942 -0.0962 -0.9762
vn 0.0576 0.9553 -0.2898
vn 0.1870 -0.2852 -0.9401
vn 0.0934 0.8781 -0.4693
vn 0.1728 -0.4643 -0.8687
vn 0.1252 0.7669 -0.6294
vn 0.1520 -0.6270 -0.7640
vn 0.1520 0.6270 -0.7640
vn 0.1252 -0.7669 -0.6294
vn 0.1728 0.4643 -0.8687
vn 0.0934 -0.8781 -0.4693
vn 0.1870 0.2852 -0.9401
vn 0.4921 0.4643 -0.7364
vn 0.2659 -0.8781 -0.3979
vn 0.5325 0.2852 -0.7969
vn 0.1642 -0.9553 -0.2457
vn 0.5530 0.0962 -0.8276
vn 0.0555 0.9950 -0.0831
vn 0.0555 -0.9950 -0.0831
vn 0.5530 -0.0962 -0.8276
vn 0.1642 0.9553 -0.2457
vn 0.5325 -0.2852 -0.7969
vn 0.2659 0.8781 -0.3979
vn 0.4921 -0.4643 -0.7364
vn 0.3565 0.7669 -0.5336
vn 0.4328 -0.6270 -0.6477
vn 0.4328 0.6270 -0.6477
vn 0.3565 -0.7669 -0.5336
vn 0.7969 -0.2852 -0.5325
vn 0.3979 0.8781 -0.2659
vn 0.7364 -0.4643 -0.4921
vn 0.5336 0.7669 -0.3565
vn 0.6477 -0.6270 -0.4328
vn 0.6477 0.6270 -0.4328
vn 0.5336 -0.7669 -0.3565
vn 0.7364 0.4643 -0.4921
vn 0.3979 -0.8781 -0.2659
vn 0.7969 0.2852 -0.5325
vn 0.2457 -0.9553 -0.1642
vn 0.8276 0.0962 -0.5530
vn 0.0831 0.9950 -0.0555
vn 0.0831 -0.9950 -0.0555
vn 0.8276 -0.0962 -0.5530
vn 0.2457 0.9553 -0.1642
vn 0.4693 -0.8781 -0.0934
vn 0.9401 0.2852 -0.1870
vn 0.2898 -0.9553 -0.0576
vn 0.9762 0.0962 -0.1942
vn 0.0980 0.9950 -0.0195
vn 0.0980 -0.9950 -0.0195
vn 0.9762 -0.0962 -0.1942
vn 0.2898 0.9553 -0.0576
vn 0.9401 -0.2852 -0.1870
vn 0.4693 0.8781 -0.0934
vn 0.8687 -0.4643 -0.1728
vn 0.6294 0.7669 -0.1252
vn 0.7640 -0.6270 -0.1520
vn 0.7640 0.6270 -0.1520
vn 0.6294 -0.7669 -0.1252
vn 0.8687 0.4643 -0.1728
vn 0.8687 -0.4643 0.1728
vn 0.6294 0.7669 0.1252
vn 0.7640 -0.6270 0.1520
vn 0.7640 0.6270 0.1520
vn 0.6294 -0.7669 0.1252
vn 0.8687 0.4643 0.1728
vn 0.4693 -0.8781 0.0934
vn 0.9401 0.2852 0.1870
vn 0.2898 -0.9553 0.0576
vn 0.9762 0.0962 0.1942
vn 0.0980 0.9950 0.0195
vn 0.0980 -0.9950 0.0195
vn 0.9762 -0.0962 0.1942
vn 0.2898 0.9553 0.0576
vn 0.9401 -0.2852 0.1870
vn 0.4693 0.8781 0.0934
vn 0.2457 -0.9553 0.1642
vn 0.8276 0.0962 0.5530
vn 0.0831 0.9950 0.0555
vn 0.0831 -0.9950 0.0555
vn 0.8276 -0.0962 0.5530
vn 0.2457 0.9553 0.1642
vn 0.7969 -0.2852 0.5325
vn 0.3979 0.8781 0.2659
vn 0.7364 -0.4643 0.4921
vn 0.5336 0.7669 0.3565
vn 0.6477 -0.6270 0.4328
vn 0.6477 0.6270 0.4328
vn 0.5336 -0.7669 0.3565
vn 0.7364 0.4643 0.4921
vn 0.3979 -0.8781 0.2659
vn 0.7969 0.2852 0.5325
vn 0.3565 0.7669 0.5336
vn 0.4328 -0.6270 0.6477
vn 0.4328 0.6270 0.6477
vn 0.3565 -0.7669 0.5336
vn 0.4921 0.4643 0.7364
vn 0.2659 -0.8781 0.3979
vn 0.5325 0.2852 0.7969
vn 0.1642 -0.9553 0.2457
vn 0.5530 0.0962 0.8276
vn 0.0555 0.9950 0.0831
vn 0.0555 -0.9950 0.0831
vn 0.5530 -0.0962 0.8276
vn 0.1642 0.9553 0.2457
vn 0.5325 -0.2852 0.7969
vn 0.2659 0.8781 0.3979
vn 0.4921 -0.4643 0.7364
vn 0.1942 0.0962 0.9762
vn 0.0195 0.9950 0.0980
vn 0.0195 -0.9950 0.0980
vn 0.1942 -0.0962 0.9762
vn 0.0576 0.9553 0.2898
vn 0.1870 -0.2852 0.9401
vn 0.0934 0.8781 0.4693
vn 0.1728 -0.4643 0.8687
vn 0.1252 0.7669 0.6294
vn 0.1520 -0.6270 0.7640
vn 0.1520 0.6270 0.7640
vn 0.1252 -0.7669 0.6294
vn 0.1728 0.4643 0.8687
vn 0.0934 -0.8781 0.4693
vn 0.1870 0.2852 0.9401
vn 0.0576 -0.9553 0.2898
vn -0.1520 -0.6270 0.7640
vn -0.1520 0.6270 0.7640
vn -0.1252 -0.7669 0.6294
vn -0.1728 0.4643 0.8687
vn -0.0934 -0.8781 0.4693
vn -0.1870 0.2852 0.9401
vn -0.0576 -0.9553 0.2898
vn -0.1942 0.0962 0.9762
vn -0.0195 0.9950 0.0980
vn -0.0195 -0.9950 0.0980
vn -0.1942 -0.0962 0.9762
vn -0.0576 0.9553 0.2898
vn -0.1870 -0.2852 0.9401
vn -0.0934 0.8781 0.4693
vn -0.1728 -0.4643 0.8687
vn -0.1252 0.7669 0.6294
vn -0.0555 0.9950 0.0831
vn -0.0555 -0.9950 0.0831
vn -0.5530 -0.0962 0.8276
vn -0.1642 0.9553 0.2457
vn -0.5325 -0.2852 0.7969
vn -0.2659 0.8781 0.3979
vn -0.4921 -0.4643 0.7364
vn -0.3565 0.7669 0.5336
vn -0.4328 -0.6270 0.6477
vn -0.4328 0.6270 0.6477
vn -0.3565 -0.7669 0.5336
vn -0.4921 0.4643 0.7364
vn -0.2659 -0.8781 0.3979
vn -0.5325 0.2852 0.7969
vn -0.1642 -0.9553 0.2457
vn -0.5530 0.0962 0.8276
vn -0.6477 0.6270 0.4328
vn -0.5336 -0.7669 0.3565
vn -0.7364 0.4643 0.4921
vn -0.3979 -0.8781 0.2659
vn -0.7969 0.2852 0.5325
vn -0.2457 -0.9553 0.1642
vn -0.8276 0.0962 0.5530
vn -0.0831 0.9950 0.0555
vn -0.0831 -0.9950 0.0555
vn -0.8276 -0.0962 0.5530
vn -0.2457 0.9553 0.1642
vn -0.7969 -0.2852 0.5325
vn -0.3979 0.8781 0.2659
vn -0.7364 -0.4643 0.4921
vn -0.5336 0.7669 0.3565
vn -0.6477 -0.6270 0.4328
vn -0.9762 -0.0962 0.1942
vn -0.2898 0.9553 0.0576
vn -0.9401 -0.2852 0.1870
vn -0.4693 0.8781 0.0934
vn -0.8687 -0.4643 0.1728
vn -0.6294 0.7669 0.1252
vn -0.7640 -0.6270 0.1520
vn -0.7640 0.6270 0.1520
vn -0.6294 -0.7669 0.1252
vn -0.8687 0.4643 0.1728
vn -0.4693 -0.8781 0.0934
vn -0.9401 0.2852 0.1870
vn -0.2898 -0.9553 0.0576
vn -0.9762 0.0962 0.1942
vn -0.0980 0.9950 0.0195
vn -0.0980 -0.9950 0.0195
vn -0.6294 -0.7669 -0.1252
vn -0.8687 0.4643 -0.1728
vn -0.4693 -0.8781 -0.0934
vn -0.9401 0.2852 -0.1870
vn -0.2898 -0.9553 -0.0576
vn -0.9762 0.0962 -0.1942
vn -0.0980 0.9950 -0.0195
vn -0.0980 -0.9950 -0.0195
vn -0.9762 -0.0962 -0.1942
vn -0.2898 0.9553 -0.0576
vn -0.9401 -0.2852 -0.1870
vn -0.4693 0.8781 -0.0934
vn -0.8687 -0.4643 -0.1728
vn -0.6294 0.7669 -0.1252
vn -0.7640 -0.6270 -0.1520
vn -0.7640 0.6270 -0.1520
vn -0.7969 -0.2852 -0.5325
vn -0.3979 0.8781 -0.2659
vn -0.7364 -0.4643 -0.4921
vn -0.5336 0.7669 -0.3565
vn -0.6477 -0.6270 -0.4328
vn -0.6477 0.6270 -0.4328
vn -0.5336 -0.7669 -0.3565
vn -0.7364 0.4643 -0.4921
vn -0.3979 -0.8781 -0.2659
vn -0.7969 0.2852 -0.5325
vn -0.2457 -0.9553 -0.1642
vn -0.8276 0.0962 -0.5530
vn -0.0831 0.9950 -0.0555
vn -0.0831 -0.9950 -0.0555
vn -0.8276 -0.0962 -0.5530
vn -0.2457 0.9553 -0.1642
vn -0.2659 -0.8781 -0.3979
vn -0.5325 0.2852 -0.7969
vn -0.1642 -0.9553 -0.2457
vn -0.5530 0.0962 -0.8276
vn -0.0555 0.9950 -0.0831
vn -0.0555 -0.9950 -0.0831
vn -0.5530 -0.0962 -0.8276
vn -0.1642 0.9553 -0.2457
vn -0.5325 -0.2852 -0.7969
vn -0.2659 0.8781 -0.3979
vn -0.4921 -0.4643 -0.7364
vn -0.3565 0.7669 -0.5336
vn -0.4328 -0.6270 -0.6477
vn -0.4328 0.6270 -0.6477
vn -0.3565 -0.7669 -0.5336
vn -0.4921 0.4643 -0.7364
vn -0.0934 0.8781 -0.4693
vn -0.1728 -0.4643 -0.8687
vn -0.1252 0.7669 -0.6294
vn -0.1520 -0.6270 -0.7640
vn -0.1520 0.6270 -0.7640
vn -0.1252 -0.7669 -0.6294
vn -0.1728 0.4643 -0.8687
vn -0.0934 -0.8781 -0.4693
vn -0.1870 0.2852 -0.9401
vn -0.0576 -0.9553 -0.2898
vn -0.1942 0.0962 -0.9762
vn -0.0195 0.9950 -0.0980
vn -0.0195 -0.9950 -0.0980
vn -0.1942 -0.0962 -0.9762
vn -0.0576 0.9553 -0.2898
vn -0.1870 -0.2852 -0.9401
vt 0.750000 0.062500
vt 0.750000 0.125000
vt 0.687500 0.125000
vt 0.687500 0.062500
vt 0.750000 0.500000
vt 0.750000 0.562500
vt 0.687500 0.562500
vt 0.687500 0.500000
vt 0.750000 0.937500
vt 0.718750 1.000000
vt 0.687500 0.937500
vt 0.718750 0.000000
vt 0.750000 0.437500
vt 0.687500 0.437500
vt 0.750000 0.875000
vt 0.687500 0.875000
vt 0.750000 0.375000
vt 0.687500 0.375000
vt 0.750000 0.812500
vt 0.687500 0.812500
vt 0.750000 0.312500
vt 0.687500 0.312500
vt 0.750000 0.750000
vt 0.687500 0.750000
vt 0.750000 0.250000
vt 0.687500 0.250000
vt 0.750000 0.687500
vt 0.687500 0.687500
vt 0.750000 0.187500
vt 0.687500 0.187500
vt 0.750000 0.625000
vt 0.687500 0.625000
vt 0.625000 0.687500
vt 0.625000 0.625000
vt 0.625000 0.187500
vt 0.625000 0.125000
vt 0.625000 0.562500
vt 0.625000 0.062500
vt 0.625000 0.500000
vt 0.656250 1.000000
vt 0.625000 0.937500
vt 0.656250 0.000000
vt 0.625000 0.437500
vt 0.625000 0.875000
vt 0.625000 0.375000
vt 0.625000 0.812500
vt 0.625000 0.312500
vt 0.625000 0.750000
vt 0.625000 0.250000
vt 0.562500 0.437500
vt 0.562500 0.375000
vt 0.562500 0.875000
vt 0.562500 0.812500
vt 0.562500 0.312500
vt 0.562500 0.750000
vt 0.562500 0.250000
vt 0.562500 0.687500
vt 0.562500 0.187500
vt 0.562500 0.625000
vt 0.562500 0.125000
vt 0.562500 0.562500
vt 0.562500 0.062500
vt 0.562500 0.500000
vt 0.593750 1.000000
vt 0.562500 0.937500
vt 0.593750 0.000000
vt 0.500000 0.187500
vt 0.500000 0.125000
vt 0.500000 0.625000
vt 0.500000 0.562500
vt 0.500000 0.062500
vt 0.500000 0.500000
vt 0.531250 1.000000
vt 0.500000 0.937500
vt 0.531250 0.000000
vt 0.500000 0.437500
vt 0.500000 0.875000
vt 0.500000 0.375000
vt 0.500000 0.812500
vt 0.500000 0.312500
vt 0.500000 0.750000
vt 0.500000 0.250000
vt 0.500000 0.687500
vt 0.437500 0.375000
vt 0.437500 0.312500
vt 0.437500 0.812500
vt 0.437500 0.750000
vt 0.437500 0.250000
vt 0.437500 0.687500
vt 0.437500 0.187500
vt 0.437500 0.625000
vt 0.437500 0.125000
vt 0.437500 0.562500
vt 0.437500 0.062500
vt 0.437500 0.500000
vt 0.468750 1.000000
vt 0.437500 0.937500
vt 0.468750 0.000000
vt 0.437500 0.437500
vt 0.437500 0.875000
vt 0.375000 0.125000
vt 0.375000 0.062500
vt 0.375000 0.562500
vt 0.375000 0.500000
vt 0.406250 1.000000
vt 0.375000 0.937500
vt 0.406250 0.000000
vt 0.375000 0.437500
vt 0.375000 0.875000
vt 0.375000 0.375000
vt 0.375000 0.812500
vt 0.375000 0.312500
vt 0.375000 0.750000
vt 0.375000 0.250000
vt 0.375000 0.687500
vt 0.375000 0.187500
vt 0.375000 0.625000
vt 0.312500 0.812500
vt 0.312500 0.750000
vt 0.312500 0.312500
vt 0.312500 0.250000
vt 0.312500 0.687500
vt 0.312500 0.187500
vt 0.312500 0.625000
vt 0.312500 0.125000
vt 0.312500 0.562500
vt 0.312500 0.062500
vt 0.312500 0.500000
vt 0.343750 1.000000
vt 0.312500 0.937500
vt 0.343750 0.000000
vt 0.312500 0.437500
vt 0.312500 0.875000
vt 0.312500 0.375000
vt 0.250000 0.562500
vt 0.250000 0.500000
vt 0.281250 1.000000
vt 0.250000 0.937500
vt 0.281250 0.000000
vt 0.250000 0.062500
vt 0.250000 0.437500
vt 0.250000 0.875000
vt 0.250000 0.375000
vt 0.250000 0.812500
vt 0.250000 0.312500
vt 0.250000 0.750000
vt 0.250000 0.250000
vt 0.250000 0.687500
vt 0.250000 0.187500
vt 0.250000 0.625000
vt 0.250000 0.125000
vt 0.187500 0.312500
vt 0.187500 0.250000
vt 0.187500 0.750000
vt 0.187500 0.687500
vt 0.187500 0.187500
vt 0.187500 0.625000
vt 0.187500 0.125000
vt 0.187500 0.562500
vt 0.187500 0.062500
vt 0.187500 0.500000
vt 0.218750 1.000000
vt 0.187500 0.937500
vt 0.218750 0.000000
vt 0.187500 0.437500
vt 0.187500 0.875000
vt 0.187500 0.375000
vt 0.187500 0.812500
vt 0.156250 1.000000
vt 0.125000 0.937500
vt 0.156250 0.000000
vt 0.125000 0.062500
vt 0.125000 0.500000
vt 0.125000 0.437500
vt 0.125000 0.875000
vt 0.125000 0.375000
vt 0.125000 0.812500
vt 0.125000 0.312500
vt 0.125000 0.750000
vt 0.125000 0.250000
vt 0.125000 0.687500
vt 0.125000 0.187500
vt 0.125000 0.625000
vt 0.125000 0.125000
vt 0.125000 0.562500
vt 0.062500 0.750000
vt 0.062500 0.687500
vt 0.062500 0.250000
vt 0.062500 0.187500
vt 0.062500 0.625000
vt 0.062500 0.125000
vt 0.062500 0.562500
vt 0.062500 0.062500
vt 0.062500 0.500000
vt 0.093750 1.000000
vt 0.062500 0.937500
vt 0.093750 0.000000
vt 0.062500 0.437500
vt 0.062500 0.875000
vt 0.062500 0.375000
vt 0.062500 0.812500
vt 0.062500 0.312500
vt 0.000000 0.500000
vt 0.000000 0.437500
vt 0.000000 0.937500
vt 0.000000 0.875000
vt 0.000000 0.375000
vt 0.000000 0.812500
vt 0.000000 0.312500
vt 0.000000 0.750000
vt 0.000000 0.250000
vt 0.000000 0.687500
vt 0.000000 0.187500
vt 0.000000 0.625000
vt 0.000000 0.125000
vt 0.000000 0.562500
vt 0.000000 0.062500
vt 0.031250 1.000000
vt 0.031250 0.000000
vt 1.000000 0.187500
vt 1.000000 0.250000
vt 0.937500 0.250000
vt 0.937500 0.187500
vt 1.000000 0.625000
vt 1.000000 0.687500
vt 0.937500 0.687500
vt 0.937500 0.625000
vt 1.000000 0.125000
vt 0.937500 0.125000
vt 1.000000 0.562500
vt 0.937500 0.562500
vt 1.000000 0.062500
vt 0.937500 0.062500
vt 1.000000 0.500000
vt 0.937500 0.500000
vt 1.000000 0.937500
vt 0.968750 1.000000
vt 0.937500 0.937500
vt 0.968750 0.000000
vt 1.000000 0.437500
vt 0.937500 0.437500
vt 1.000000 0.875000
vt 0.937500 0.875000
vt 1.000000 0.375000
vt 0.937500 0.375000
vt 1.000000 0.812500
vt 0.937500 0.812500
vt 1.000000 0.312500
vt 0.937500 0.312500
vt 1.000000 0.750000
vt 0.937500 0.750000
vt 0.875000 0.437500
vt 0.875000 0.375000
vt 0.875000 0.875000
vt 0.875000 0.812500
vt 0.875000 0.312500
vt 0.875000 0.750000
vt 0.875000 0.250000
vt 0.875000 0.687500
vt 0.875000 0.187500
vt 0.875000 0.625000
vt 0.875000 0.125000
vt 0.875000 0.562500
vt 0.875000 0.062500
vt 0.875000 0.500000
vt 0.906250 1.000000
vt 0.875000 0.937500
vt 0.906250 0.000000
vt 0.812500 0.187500
vt 0.812500 0.125000
vt 0.812500 0.625000
vt 0.812500 0.562500
vt 0.812500 0.062500
vt 0.812500 0.500000
vt 0.843750 1.000000
vt 0.812500 0.937500
vt 0.843750 0.000000
vt 0.812500 0.437500
vt 0.812500 0.875000
vt 0.812500 0.375000
vt 0.812500 0.812500
vt 0.812500 0.312500
vt 0.812500 0.750000
vt 0.812500 0.250000
vt 0.812500 0.687500
vt 0.781250 1.000000
vt 0.781250 0.000000
s 0
usemtl Roman_Fire
f 155/298/90 154/299/90 170/300/90 171/301/90
f 385/302/91 150/303/91 163/304/91 164/305/91
f 147/306/92 146/307/92 157/308/92
f 156/309/93 155/298/93 171/301/93
f 151/310/94 385/302/94 164/305/94 165/311/94
f 382/312/95 147/306/95 157/308/95 158/313/95
f 386/314/96 151/310/96 165/311/96 166/315/96
f 383/316/97 382/312/97 158/313/97 159/317/97
f 152/318/98 386/314/98 166/315/98 167/319/98
f 148/320/99 383/316/99 159/317/99 160/321/99
f 387/322/100 152/318/100 167/319/100 168/323/100
f 384/324/101 148/320/101 160/321/101 161/325/101
f 153/326/102 387/322/102 168/323/102 169/327/102
f 149/328/103 384/324/103 161/325/103 162/329/103
f 154/299/104 153/326/104 169/327/104 170/300/104
f 150/303/105 149/328/105 162/329/105 163/304/105
f 162/329/106 161/325/106 176/330/106 177/331/106
f 170/300/107 169/327/107 184/332/107 185/333/107
f 163/304/108 162/329/108 177/331/108 178/334/108
f 171/301/109 170/300/109 185/333/109 186/335/109
f 164/305/110 163/304/110 178/334/110 179/336/110
f 157/308/111 146/337/111 172/338/111
f 156/339/112 171/301/112 186/335/112
f 165/311/113 164/305/113 179/336/113 180/340/113
f 158/313/114 157/308/114 172/338/114 173/341/114
f 166/315/115 165/311/115 180/340/115 181/342/115
f 159/317/116 158/313/116 173/341/116 174/343/116
f 167/319/117 166/315/117 181/342/117 182/344/117
f 160/321/118 159/317/118 174/343/118 175/345/118
f 168/323/119 167/319/119 182/344/119 183/346/119
f 161/325/120 160/321/120 175/345/120 176/330/120
f 169/327/121 168/323/121 183/346/121 184/332/121
f 181/342/122 180/340/122 195/347/122 196/348/122
f 174/343/123 173/341/123 188/349/123 189/350/123
f 182/344/124 181/342/124 196/348/124 197/351/124
f 175/345/125 174/343/125 189/350/125 190/352/125
f 183/346/126 182/344/126 197/351/126 198/353/126
f 176/330/127 175/345/127 190/352/127 191/354/127
f 184/332/128 183/346/128 198/353/128 199/355/128
f 177/331/129 176/330/129 191/354/129 192/356/129
f 185/333/130 184/332/130 199/355/130 200/357/130
f 178/334/131 177/331/131 192/356/131 193/358/131
f 186/335/132 185/333/132 200/357/132 201/359/132
f 179/336/133 178/334/133 193/358/133 194/360/133
f 172/338/134 146/361/134 187/362/134
f 156/363/135 186/335/135 201/359/135
f 180/340/136 179/336/136 194/360/136 195/347/136
f 173/341/137 172/338/137 187/362/137 188/349/137
f 200/357/138 199/355/138 214/364/138 215/365/138
f 193/358/139 192/356/139 207/366/139 208/367/139
f 201/359/140 200/357/140 215/365/140 216/368/140
f 194/360/141 193/358/141 208/367/141 209/369/141
f 187/362/142 146/370/142 202/371/142
f 156/372/143 201/359/143 216/368/143
f 195/347/144 194/360/144 209/369/144 210/373/144
f 188/349/145 187/362/145 202/371/145 203/374/145
f 196/348/146 195/347/146 210/373/146 211/375/146
f 189/350/147 188/349/147 203/374/147 204/376/147
f 197/351/148 196/348/148 211/375/148 212/377/148
f 190/352/149 189/350/149 204/376/149 205/378/149
f 198/353/150 197/351/150 212/377/150 213/379/150
f 191/354/151 190/352/151 205/378/151 206/380/151
f 199/355/152 198/353/152 213/379/152 214/364/152
f 192/356/153 191/354/153 206/380/153 207/366/153
f 212/377/154 211/375/154 226/381/154 227/382/154
f 205/378/155 204/376/155 219/383/155 220/384/155
f 213/379/156 212/377/156 227/382/156 228/385/156
f 206/380/157 205/378/157 220/384/157 221/386/157
f 214/364/158 213/379/158 228/385/158 229/387/158
f 207/366/159 206/380/159 221/386/159 222/388/159
f 215/365/160 214/364/160 229/387/160 230/389/160
f 208/367/161 207/366/161 222/388/161 223/390/161
f 216/368/162 215/365/162 230/389/162 231/391/162
f 209/369/163 208/367/163 223/390/163 224/392/163
f 202/371/164 146/393/164 217/394/164
f 156/395/165 216/368/165 231/391/165
f 210/373/166 209/369/166 224/392/166 225/396/166
f 203/374/167 202/371/167 217/394/167 218/397/167
f 211/375/168 210/373/168 225/396/168 226/381/168
f 204/376/169 203/374/169 218/397/169 219/383/169
f 231/391/170 230/389/170 245/398/170 246/399/170
f 224/392/171 223/390/171 238/400/171 239/401/171
f 217/394/172 146/402/172 232/403/172
f 156/404/173 231/391/173 246/399/173
f 225/396/174 224/392/174 239/401/174 240/405/174
f 218/397/175 217/394/175 232/403/175 233/406/175
f 226/381/176 225/396/176 240/405/176 241/407/176
f 219/383/177 218/397/177 233/406/177 234/408/177
f 227/382/178 226/381/178 241/407/178 242/409/178
f 220/384/179 219/383/179 234/408/179 235/410/179
f 228/385/180 227/382/180 242/409/180 243/411/180
f 221/386/181 220/384/181 235/410/181 236/412/181
f 229/387/182 228/385/182 243/411/182 244/413/182
f 222/388/183 221/386/183 236/412/183 237/414/183
f 230/389/184 229/387/184 244/413/184 245/398/184
f 223/390/185 222/388/185 237/414/185 238/400/185
f 235/410/186 234/408/186 249/415/186 250/416/186
f 243/411/187 242/409/187 257/417/187 258/418/187
f 236/412/188 235/410/188 250/416/188 251/419/188
f 244/413/189 243/411/189 258/418/189 259/420/189
f 237/414/190 236/412/190 251/419/190 252/421/190
f 245/398/191 244/413/191 259/420/191 260/422/191
f 238/400/192 237/414/192 252/421/192 253/423/192
f 246/399/193 245/398/193 260/422/193 261/424/193
f 239/401/194 238/400/194 253/423/194 254/425/194
f 232/403/195 146/426/195 247/427/195
f 156/428/196 246/399/196 261/424/196
f 240/405/197 239/401/197 254/425/197 255/429/197
f 233/406/198 232/403/198 247/427/198 248/430/198
f 241/407/199 240/405/199 255/429/199 256/431/199
f 234/408/200 233/406/200 248/430/200 249/415/200
f 242/409/201 241/407/201 256/431/201 257/417/201
f 254/425/202 253/423/202 268/432/202 269/433/202
f 247/427/203 146/434/203 262/435/203
f 156/436/204 261/424/204 276/437/204
f 255/429/205 254/425/205 269/433/205 270/438/205
f 248/430/206 247/427/206 262/435/206 263/439/206
f 256/431/207 255/429/207 270/438/207 271/440/207
f 249/415/208 248/430/208 263/439/208 264/441/208
f 257/417/209 256/431/209 271/440/209 272/442/209
f 250/416/210 249/415/210 264/441/210 265/443/210
f 258/418/211 257/417/211 272/442/211 273/444/211
f 251/419/212 250/416/212 265/443/212 266/445/212
f 259/420/213 258/418/213 273/444/213 274/446/213
f 252/421/214 251/419/214 266/445/214 267/447/214
f 260/422/215 259/420/215 274/446/215 275/448/215
f 253/423/216 252/421/216 267/447/216 268/432/216
f 261/424/217 260/422/217 275/448/217 276/437/217
f 273/444/218 272/442/218 287/449/218 288/450/218
f 266/445/219 265/443/219 280/451/219 281/452/219
f 274/446/220 273/444/220 288/450/220 289/453/220
f 267/447/221 266/445/221 281/452/221 282/454/221
f 275/448/222 274/446/222 289/453/222 290/455/222
f 268/432/223 267/447/223 282/454/223 283/456/223
f 276/437/224 275/448/224 290/455/224 291/457/224
f 269/433/225 268/432/225 283/456/225 284/458/225
f 262/435/226 146/459/226 277/460/226
f 156/461/227 276/437/227 291/457/227
f 270/438/228 269/433/228 284/458/228 285/462/228
f 263/439/229 262/435/229 277/460/229 278/463/229
f 271/440/230 270/438/230 285/462/230 286/464/230
f 264/441/231 263/439/231 278/463/231 279/465/231
f 272/442/232 271/440/232 286/464/232 287/449/232
f 265/443/233 264/441/233 279/465/233 280/451/233
f 277/460/234 146/466/234 292/467/234
f 156/468/235 291/457/235 306/469/235
f 285/462/236 284/458/236 299/470/236 300/471/236
f 278/463/237 277/460/237 292/467/237 293/472/237
f 286/464/238 285/462/238 300/471/238 301/473/238
f 279/465/239 278/463/239 293/472/239 294/474/239
f 287/449/240 286/464/240 301/473/240 302/475/240
f 280/451/241 279/465/241 294/474/241 295/476/241
f 288/450/242 287/449/242 302/475/242 303/477/242
f 281/452/243 280/451/243 295/476/243 296/478/243
f 289/453/244 288/450/244 303/477/244 304/479/244
f 282/454/245 281/452/245 296/478/245 297/480/245
f 290/455/246 289/453/246 304/479/246 305/481/246
f 283/456/247 282/454/247 297/480/247 298/482/247
f 291/457/248 290/455/248 305/481/248 306/469/248
f 284/458/249 283/456/249 298/482/249 299/470/249
f 296/478/250 295/476/250 310/483/250 311/484/250
f 304/479/251 303/477/251 318/485/251 319/486/251
f 297/480/252 296/478/252 311/484/252 312/487/252
f 305/481/253 304/479/253 319/486/253 320/488/253
f 298/482/254 297/480/254 312/487/254 313/489/254
f 306/469/255 305/481/255 320/488/255 321/490/255
f 299/470/256 298/482/256 313/489/256 314/491/256
f 292/467/257 146/492/257 307/493/257
f 156/494/258 306/469/258 321/490/258
f 300/471/259 299/470/259 314/491/259 315/495/259
f 293/472/260 292/467/260 307/493/260 308/496/260
f 301/473/261 300/471/261 315/495/261 316/497/261
f 294/474/262 293/472/262 308/496/262 309/498/262
f 302/475/263 301/473/263 316/497/263 317/499/263
f 295/476/264 294/474/264 309/498/264 310/483/264
f 303/477/265 302/475/265 317/499/265 318/485/265
f 315/495/266 314/491/266 329/500/266 330/501/266
f 308/496/267 307/493/267 322/502/267 323/503/267
f 316/497/268 315/495/268 330/501/268 331/504/268
f 309/498/269 308/496/269 323/503/269 324/505/269
f 317/499/270 316/497/270 331/504/270 332/506/270
f 310/483/271 309/498/271 324/505/271 325/507/271
f 318/485/272 317/499/272 332/506/272 333/508/272
f 311/484/273 310/483/273 325/507/273 326/509/273
f 319/486/274 318/485/274 333/508/274 334/510/274
f 312/487/275 311/484/275 326/509/275 327/511/275
f 320/488/276 319/486/276 334/510/276 335/512/276
f 313/489/277 312/487/277 327/511/277 328/513/277
f 321/490/278 320/488/278 335/512/278 336/514/278
f 314/491/279 313/489/279 328/513/279 329/500/279
f 307/493/280 146/515/280 322/502/280
f 156/516/281 321/490/281 336/514/281
f 334/517/282 333/518/282 348/519/282 349/520/282
f 327/521/283 326/522/283 341/523/283 342/524/283
f 335/525/284 334/517/284 349/520/284 350/526/284
f 328/527/285 327/521/285 342/524/285 343/528/285
f 336/529/286 335/525/286 350/526/286 351/530/286
f 329/531/287 328/527/287 343/528/287 344/532/287
f 322/533/288 146/534/288 337/535/288
f 156/536/289 336/529/289 351/530/289
f 330/537/290 329/531/290 344/532/290 345/538/290
f 323/539/291 322/533/291 337/535/291 338/540/291
f 331/541/292 330/537/292 345/538/292 346/542/292
f 324/543/293 323/539/293 338/540/293 339/544/293
f 332/545/294 331/541/294 346/542/294 347/546/294
f 325/547/295 324/543/295 339/544/295 340/548/295
f 333/518/296 332/545/296 347/546/296 348/519/296
f 326/522/297 325/547/297 340/548/297 341/523/297
f 346/542/298 345/538/298 360/549/298 361/550/298
f 339/544/299 338/540/299 353/551/299 354/552/299
f 347/546/300 346/542/300 361/550/300 362/553/300
f 340/548/301 339/544/301 354/552/301 355/554/301
f 348/519/302 347/546/302 362/553/302 363/555/302
f 341/523/303 340/548/303 355/554/303 356/556/303
f 349/520/304 348/519/304 363/555/304 364/557/304
f 342/524/305 341/523/305 356/556/305 357/558/305
f 350/526/306 349/520/306 364/557/306 365/559/306
f 343/528/307 342/524/307 357/558/307 358/560/307
f 351/530/308 350/526/308 365/559/308 366/561/308
f 344/532/309 343/528/309 358/560/309 359/562/309
f 337/535/310 146/563/310 352/564/310
f 156/565/311 351/530/311 366/561/311
f 345/538/312 344/532/312 359/562/312 360/549/312
f 338/540/313 337/535/313 352/564/313 353/551/313
f 365/559/314 364/557/314 379/566/314 380/567/314
f 358/560/315 357/558/315 372/568/315 373/569/315
f 366/561/316 365/559/316 380/567/316 381/570/316
f 359/562/317 358/560/317 373/569/317 374/571/317
f 352/564/318 146/572/318 367/573/318
f 156/574/319 366/561/319 381/570/319
f 360/549/320 359/562/320 374/571/320 375/575/320
f 353/551/321 352/564/321 367/573/321 368/576/321
f 361/550/322 360/549/322 375/575/322 376/577/322
f 354/552/323 353/551/323 368/576/323 369/578/323
f 362/553/324 361/550/324 376/577/324 377/579/324
f 355/554/325 354/552/325 369/578/325 370/580/325
f 363/555/326 362/553/326 377/579/326 378/581/326
f 356/556/327 355/554/327 370/580/327 371/582/327
f 364/557/328 363/555/328 378/581/328 379/566/328
f 357/558/329 356/556/329 371/582/329 372/568/329
f 369/578/330 368/576/330 382/312/330 383/316/330
f 377/579/331 376/577/331 386/314/331 152/318/331
f 370/580/332 369/578/332 383/316/332 148/320/332
f 378/581/333 377/579/333 152/318/333 387/322/333
f 371/582/334 370/580/334 148/320/334 384/324/334
f 379/566/335 378/581/335 387/322/335 153/326/335
f 372/568/336 371/582/336 384/324/336 149/328/336
f 380/567/337 379/566/337 153/326/337 154/299/337
f 373/569/338 372/568/338 149/328/338 150/303/338
f 381/570/339 380/567/339 154/299/339 155/298/339
f 374/571/340 373/569/340 150/303/340 385/302/340
f 367/573/341 146/583/341 147/306/341
f 156/584/342 381/570/342 155/298/342
f 375/575/343 374/571/343 385/302/343 151/310/343
f 368/576/344 367/573/344 147/306/344 382/312/344
f 376/577/345 375/575/345 151/310/345 386/314/345
o Flame_Spire
v 0.000000 2.450000 -0.550000
v 0.210476 2.450000 -0.508134
v 0.388909 2.450000 -0.388909
v 0.508134 2.450000 -0.210476
v 0.550000 2.450000 0.000000
v 0.508134 2.450000 0.210476
v 0.388909 2.450000 0.388909
v 0.210476 2.450000 0.508134
v 0.000000 2.450000 0.550000
v -0.210476 2.450000 0.508134
v -0.388909 2.450000 0.388909
v -0.508134 2.450000 0.210476
v -0.550000 2.450000 0.000000
v -0.508134 2.450000 -0.210476
v -0.388909 2.450000 -0.388909
v -0.210476 2.450000 -0.508134
v 0.000000 3.550000 0.000000
vn 0.1752 0.4403 -0.8806
vn 0.4988 0.4403 -0.7465
vn 0.7465 0.4403 -0.4988
vn 0.8806 0.4403 -0.1752
vn 0.8806 0.4403 0.1752
vn 0.7465 0.4403 0.4988
vn 0.4988 0.4403 0.7465
vn 0.1752 0.4403 0.8806
vn -0.1752 0.4403 0.8806
vn -0.4988 0.4403 0.7465
vn -0.7465 0.4403 0.4988
vn -0.8806 0.4403 0.1752
vn -0.8806 0.4403 -0.1752
vn -0.7465 0.4403 -0.4988
vn -0.0000 -1.0000 -0.0000
vn -0.4988 0.4403 -0.7465
vn -0.1752 0.4403 -0.8806
vt 0.250000 0.490000
vt 0.250000 0.250000
vt 0.341844 0.471731
vt 0.419706 0.419706
vt 0.471731 0.341844
vt 0.490000 0.250000
vt 0.471731 0.158156
vt 0.419706 0.080294
vt 0.341844 0.028269
vt 0.250000 0.010000
vt 0.158156 0.028269
vt 0.080294 0.080294
vt 0.028269 0.158156
vt 0.010000 0.250000
vt 0.028269 0.341844
vt 0.080294 0.419706
vt 0.750000 0.490000
vt 0.841844 0.471731
vt 0.919706 0.419706
vt 0.971731 0.341844
vt 0.990000 0.250000
vt 0.971731 0.158156
vt 0.919706 0.080294
vt 0.841844 0.028269
vt 0.750000 0.010000
vt 0.658156 0.028269
vt 0.580294 0.080294
vt 0.528269 0.158156
vt 0.510000 0.250000
vt 0.528269 0.341844
vt 0.580294 0.419706
vt 0.658156 0.471731
vt 0.158156 0.471731
s 0
usemtl Roman_Fire
f 388/585/346 404/586/346 389/587/346
f 389/587/347 404/586/347 390/588/347
f 390/588/348 404/586/348 391/589/348
f 391/589/349 404/586/349 392/590/349
f 392/590/350 404/586/350 393/591/350
f 393/591/351 404/586/351 394/592/351
f 394/592/352 404/586/352 395/593/352
f 395/593/353 404/586/353 396/594/353
f 396/594/354 404/586/354 397/595/354
f 397/595/355 404/586/355 398/596/355
f 398/596/356 404/586/356 399/597/356
f 399/597/357 404/586/357 400/598/357
f 400/598/358 404/586/358 401/599/358
f 401/599/359 404/586/359 402/600/359
f 388/601/360 389/602/360 390/603/360 391/604/360 392/605/360 393/606/360 394/607/360 395/608/360 396/609/360 397/610/360 398/611/360 399/612/360 400/613/360 401/614/360 402/615/360 403/616/360
f 402/600/361 404/586/361 403/617/361
f 403/617/362 404/586/362 388/585/362
