# Blender 5.2.1 LTS
# www.blender.org
mtllib skeleton_minion.mtl
o Skull
v -0.160000 0.490000 -0.170000
v -0.160000 0.490000 0.170000
v -0.160000 0.810000 -0.170000
v -0.160000 0.810000 0.170000
v 0.160000 0.490000 -0.170000
v 0.160000 0.490000 0.170000
v 0.160000 0.810000 -0.170000
v 0.160000 0.810000 0.170000
vn -1.0000 -0.0000 -0.0000
vn -0.0000 1.0000 -0.0000
vn 1.0000 -0.0000 -0.0000
vn -0.0000 -1.0000 -0.0000
vn -0.0000 -0.0000 -1.0000
vn -0.0000 -0.0000 1.0000
vt 0.375000 0.000000
vt 0.625000 0.000000
vt 0.625000 0.250000
vt 0.375000 0.250000
vt 0.625000 0.500000
vt 0.375000 0.500000
vt 0.625000 0.750000
vt 0.375000 0.750000
vt 0.625000 1.000000
vt 0.375000 1.000000
vt 0.125000 0.500000
vt 0.125000 0.750000
vt 0.875000 0.500000
vt 0.875000 0.750000
s 0
usemtl Skel_Bone
f 1/1/1 2/2/1 4/3/1 3/4/1
f 3/4/2 4/3/2 8/5/2 7/6/2
f 7/6/3 8/5/3 6/7/3 5/8/3
f 5/8/4 6/7/4 2/9/4 1/10/4
f 3/11/5 7/6/5 5/8/5 1/12/5
f 8/5/6 4/13/6 2/14/6 6/7/6
o Eye_L
v -0.100000 0.650000 0.150000
v -0.100000 0.650000 0.190000
v -0.100000 0.690000 0.150000
v -0.100000 0.690000 0.190000
v -0.040000 0.650000 0.150000
v -0.040000 0.650000 0.190000
v -0.040000 0.690000 0.150000
v -0.040000 0.690000 0.190000
vn -1.0000 -0.0000 -0.0000
vn -0.0000 1.0000 -0.0000
vn 1.0000 -0.0000 -0.0000
vn -0.0000 -1.0000 -0.0000
vn -0.0000 -0.0000 -1.0000
vn -0.0000 -0.0000 1.0000
vt 0.375000 0.000000
vt 0.625000 0.000000
vt 0.625000 0.250000
vt 0.375000 0.250000
vt 0.625000 0.500000
vt 0.375000 0.500000
vt 0.625000 0.750000
vt 0.375000 0.750000
vt 0.625000 1.000000
vt 0.375000 1.000000
vt 0.125000 0.500000
vt 0.125000 0.750000
vt 0.875000 0.500000
vt 0.875000 0.750000
s 0
usemtl Skel_GreenEyes
f 9/15/7 10/16/7 12/17/7 11/18/7
f 11/18/8 12/17/8 16/19/8 15/20/8
f 15/20/9 16/19/9 14/21/9 13/22/9
f 13/22/10 14/21/10 10/23/10 9/24/10
f 11/25/11 15/20/11 13/22/11 9/26/11
f 16/19/12 12/27/12 10/28/12 14/21/12
o Eye_R
v 0.040000 0.650000 0.150000
v 0.040000 0.650000 0.190000
v 0.040000 0.690000 0.150000
v 0.040000 0.690000 0.190000
v 0.100000 0.650000 0.150000
v 0.100000 0.650000 0.190000
v 0.100000 0.690000 0.150000
v 0.100000 0.690000 0.190000
vn -1.0000 -0.0000 -0.0000
vn -0.0000 1.0000 -0.0000
vn 1.0000 -0.0000 -0.0000
vn -0.0000 -1.0000 -0.0000
vn -0.0000 -0.0000 -1.0000
vn -0.0000 -0.0000 1.0000
vt 0.375000 0.000000
vt 0.625000 0.000000
vt 0.625000 0.250000
vt 0.375000 0.250000
vt 0.625000 0.500000
vt 0.375000 0.500000
vt 0.625000 0.750000
vt 0.375000 0.750000
vt 0.625000 1.000000
vt 0.375000 1.000000
vt 0.125000 0.500000
vt 0.125000 0.750000
vt 0.875000 0.500000
vt 0.875000 0.750000
s 0
usemtl Skel_GreenEyes
f 17/29/13 18/30/13 20/31/13 19/32/13
f 19/32/14 20/31/14 24/33/14 23/34/14
f 23/34/15 24/33/15 22/35/15 21/36/15
f 21/36/16 22/35/16 18/37/16 17/38/16
f 19/39/17 23/34/17 21/36/17 17/40/17
f 24/33/18 20/41/18 18/42/18 22/35/18
o Jaw
v -0.120000 0.470000 0.040000
v -0.120000 0.470000 0.200000
v -0.120000 0.570000 0.040000
v -0.120000 0.570000 0.200000
v 0.120000 0.470000 0.040000
v 0.120000 0.470000 0.200000
v 0.120000 0.570000 0.040000
v 0.120000 0.570000 0.200000
vn -1.0000 -0.0000 -0.0000
vn -0.0000 1.0000 -0.0000
vn 1.0000 -0.0000 -0.0000
vn -0.0000 -1.0000 -0.0000
vn -0.0000 -0.0000 -1.0000
vn -0.0000 -0.0000 1.0000
vt 0.375000 0.000000
vt 0.625000 0.000000
vt 0.625000 0.250000
vt 0.375000 0.250000
vt 0.625000 0.500000
vt 0.375000 0.500000
vt 0.625000 0.750000
vt 0.375000 0.750000
vt 0.625000 1.000000
vt 0.375000 1.000000
vt 0.125000 0.500000
vt 0.125000 0.750000
vt 0.875000 0.500000
vt 0.875000 0.750000
s 0
usemtl Skel_Bone
f 25/43/19 26/44/19 28/45/19 27/46/19
f 27/46/20 28/45/20 32/47/20 31/48/20
f 31/48/21 32/47/21 30/49/21 29/50/21
f 29/50/22 30/49/22 26/51/22 25/52/22
f 27/53/23 31/48/23 29/50/23 25/54/23
f 32/47/24 28/55/24 26/56/24 30/49/24
o Spine
v 0.000000 0.340000 -0.225000
v 0.000000 0.340000 0.225000
v 0.015307 0.336955 -0.225000
v 0.015307 0.336955 0.225000
v 0.028284 0.328284 -0.225000
v 0.028284 0.328284 0.225000
v 0.036955 0.315307 -0.225000
v 0.036955 0.315307 0.225000
v 0.040000 0.300000 -0.225000
v 0.040000 0.300000 0.225000
v 0.036955 0.284693 -0.225000
v 0.036955 0.284693 0.225000
v 0.028284 0.271716 -0.225000
v 0.028284 0.271716 0.225000
v 0.015307 0.263045 -0.225000
v 0.015307 0.263045 0.225000
v 0.000000 0.260000 -0.225000
v 0.000000 0.260000 0.225000
v -0.015307 0.263045 -0.225000
v -0.015307 0.263045 0.225000
v -0.028284 0.271716 -0.225000
v -0.028284 0.271716 0.225000
v -0.036955 0.284693 -0.225000
v -0.036955 0.284693 0.225000
v -0.040000 0.300000 -0.225000
v -0.040000 0.300000 0.225000
v -0.036955 0.315307 -0.225000
v -0.036955 0.315307 0.225000
v -0.028284 0.328284 -0.225000
v -0.028284 0.328284 0.225000
v -0.015307 0.336955 -0.225000
v -0.015307 0.336955 0.225000
vn 0.1951 0.9808 -0.0000
vn 0.5556 0.8315 -0.0000
vn 0.8315 0.5556 -0.0000
vn 0.9808 0.1951 -0.0000
vn 0.9808 -0.1951 -0.0000
vn 0.8315 -0.5556 -0.0000
vn 0.5556 -0.8315 -0.0000
vn 0.1951 -0.9808 -0.0000
vn -0.1951 -0.9808 -0.0000
vn -0.5556 -0.8315 -0.0000
vn -0.8315 -0.5556 -0.0000
vn -0.9808 -0.1951 -0.0000
vn -0.9808 0.1951 -0.0000
vn -0.8315 0.5556 -0.0000
vn -0.0000 -0.0000 1.0000
vn -0.5556 0.8315 -0.0000
vn -0.1951 0.9808 -0.0000
vn -0.0000 -0.0000 -1.0000
vt 1.000000 0.500000
vt 1.000000 1.000000
vt 0.937500 1.000000
vt 0.937500 0.500000
vt 0.875000 1.000000
vt 0.875000 0.500000
vt 0.812500 1.000000
vt 0.812500 0.500000
vt 0.750000 1.000000
vt 0.750000 0.500000
vt 0.687500 1.000000
vt 0.687500 0.500000
vt 0.625000 1.000000
vt 0.625000 0.500000
vt 0.562500 1.000000
vt 0.562500 0.500000
vt 0.500000 1.000000
vt 0.500000 0.500000
vt 0.437500 1.000000
vt 0.437500 0.500000
vt 0.375000 1.000000
vt 0.375000 0.500000
vt 0.312500 1.000000
vt 0.312500 0.500000
vt 0.250000 1.000000
vt 0.250000 0.500000
vt 0.187500 1.000000
vt 0.187500 0.500000
vt 0.125000 1.000000
vt 0.125000 0.500000
vt 0.341844 0.471731
vt 0.250000 0.490000
vt 0.158156 0.471731
vt 0.080294 0.419706
vt 0.028269 0.341844
vt 0.010000 0.250000
vt 0.028269 0.158156
vt 0.080294 0.080294
vt 0.158156 0.028269
vt 0.250000 0.010000
vt 0.341844 0.028269
vt 0.419706 0.080294
vt 0.471731 0.158156
vt 0.490000 0.250000
vt 0.471731 0.341844
vt 0.419706 0.419706
vt 0.062500 1.000000
vt 0.062500 0.500000
vt 0.000000 1.000000
vt 0.000000 0.500000
vt 0.750000 0.490000
vt 0.841844 0.471731
vt 0.919706 0.419706
vt 0.971731 0.341844
vt 0.990000 0.250000
vt 0.971731 0.158156
vt 0.919706 0.080294
vt 0.841844 0.028269
vt 0.750000 0.010000
vt 0.658156 0.028269
vt 0.580294 0.080294
vt 0.528269 0.158156
vt 0.510000 0.250000
vt 0.528269 0.341844
vt 0.580294 0.419706
vt 0.658156 0.471731
s 0
usemtl Skel_Bone
f 33/57/25 34/58/25 36/59/25 35/60/25
f 35/60/26 36/59/26 38/61/26 37/62/26
f 37/62/27 38/61/27 40/63/27 39/64/27
f 39/64/28 40/63/28 42/65/28 41/66/28
f 41/66/29 42/65/29 44/67/29 43/68/29
f 43/68/30 44/67/30 46/69/30 45/70/30
f 45/70/31 46/69/31 48/71/31 47/72/31
f 47/72/32 48/71/32 50/73/32 49/74/32
f 49/74/33 50/73/33 52/75/33 51/76/33
f 51/76/34 52/75/34 54/77/34 53/78/34
f 53/78/35 54/77/35 56/79/35 55/80/35
f 55/80/36 56/79/36 58/81/36 57/82/36
f 57/82/37 58/81/37 60/83/37 59/84/37
f 59/84/38 60/83/38 62/85/38 61/86/38
f 36/87/39 34/88/39 64/89/39 62/90/39 60/91/39 58/92/39 56/93/39 54/94/39 52/95/39 50/96/39 48/97/39 46/98/39 44/99/39 42/100/39 40/101/39 38/102/39
f 61/86/40 62/85/40 64/103/40 63/104/40
f 63/104/41 64/103/41 34/105/41 33/106/41
f 33/107/42 35/108/42 37/109/42 39/110/42 41/111/42 43/112/42 45/113/42 47/114/42 49/115/42 51/116/42 53/117/42 55/118/42 57/119/42 59/120/42 61/121/42 63/122/42
o Rib_0
v -0.170000 0.380000 -0.110000
v -0.170000 0.380000 0.150000
v -0.170000 0.420000 -0.110000
v -0.170000 0.420000 0.150000
v 0.170000 0.380000 -0.110000
v 0.170000 0.380000 0.150000
v 0.170000 0.420000 -0.110000
v 0.170000 0.420000 0.150000
vn -1.0000 -0.0000 -0.0000
vn -0.0000 1.0000 -0.0000
vn 1.0000 -0.0000 -0.0000
vn -0.0000 -1.0000 -0.0000
vn -0.0000 -0.0000 -1.0000
vn -0.0000 -0.0000 1.0000
vt 0.375000 0.000000
vt 0.625000 0.000000
vt 0.625000 0.250000
vt 0.375000 0.250000
vt 0.625000 0.500000
vt 0.375000 0.500000
vt 0.625000 0.750000
vt 0.375000 0.750000
vt 0.625000 1.000000
vt 0.375000 1.000000
vt 0.125000 0.500000
vt 0.125000 0.750000
vt 0.875000 0.500000
vt 0.875000 0.750000
s 0
usemtl Skel_Bone
f 65/123/43 66/124/43 68/125/43 67/126/43
f 67/126/44 68/125/44 72/127/44 71/128/44
f 71/128/45 72/127/45 70/129/45 69/130/45
f 69/130/46 70/129/46 66/131/46 65/132/46
f 67/133/47 71/128/47 69/130/47 65/134/47
f 72/127/48 68/135/48 66/136/48 70/129/48
o Rib_1
v -0.150000 0.300000 -0.110000
v -0.150000 0.300000 0.150000
v -0.150000 0.340000 -0.110000
v -0.150000 0.340000 0.150000
v 0.150000 0.300000 -0.110000
v 0.150000 0.300000 0.150000
v 0.150000 0.340000 -0.110000
v 0.150000 0.340000 0.150000
vn -1.0000 -0.0000 -0.0000
vn -0.0000 1.0000 -0.0000
vn 1.0000 -0.0000 -0.0000
vn -0.0000 -1.0000 -0.0000
vn -0.0000 -0.0000 -1.0000
vn -0.0000 -0.0000 1.0000
vt 0.375000 0.000000
vt 0.625000 0.000000
vt 0.625000 0.250000
vt 0.375000 0.250000
vt 0.625000 0.500000
vt 0.375000 0.500000
vt 0.625000 0.750000
vt 0.375000 0.750000
vt 0.625000 1.000000
vt 0.375000 1.000000
vt 0.125000 0.500000
vt 0.125000 0.750000
vt 0.875000 0.500000
vt 0.875000 0.750000
s 0
usemtl Skel_Bone
f 73/137/49 74/138/49 76/139/49 75/140/49
f 75/140/50 76/139/50 80/141/50 79/142/50
f 79/142/51 80/141/51 78/143/51 77/144/51
f 77/144/52 78/143/52 74/145/52 73/146/52
f 75/147/53 79/142/53 77/144/53 73/148/53
f 80/141/54 76/149/54 74/150/54 78/143/54
o Rib_2
v -0.130000 0.220000 -0.110000
v -0.130000 0.220000 0.150000
v -0.130000 0.260000 -0.110000
v -0.130000 0.260000 0.150000
v 0.130000 0.220000 -0.110000
v 0.130000 0.220000 0.150000
v 0.130000 0.260000 -0.110000
v 0.130000 0.260000 0.150000
vn -1.0000 -0.0000 -0.0000
vn -0.0000 1.0000 -0.0000
vn 1.0000 -0.0000 -0.0000
vn -0.0000 -1.0000 -0.0000
vn -0.0000 -0.0000 -1.0000
vn -0.0000 -0.0000 1.0000
vt 0.375000 0.000000
vt 0.625000 0.000000
vt 0.625000 0.250000
vt 0.375000 0.250000
vt 0.625000 0.500000
vt 0.375000 0.500000
vt 0.625000 0.750000
vt 0.375000 0.750000
vt 0.625000 1.000000
vt 0.375000 1.000000
vt 0.125000 0.500000
vt 0.125000 0.750000
vt 0.875000 0.500000
vt 0.875000 0.750000
s 0
usemtl Skel_Bone
f 81/151/55 82/152/55 84/153/55 83/154/55
f 83/154/56 84/153/56 88/155/56 87/156/56
f 87/156/57 88/155/57 86/157/57 85/158/57
f 85/158/58 86/157/58 82/159/58 81/160/58
f 83/161/59 87/156/59 85/158/59 81/162/59
f 88/155/60 84/163/60 82/164/60 86/157/60
o Pelvis
v -0.140000 0.030000 -0.100000
v -0.140000 0.030000 0.100000
v -0.140000 0.130000 -0.100000
v -0.140000 0.130000 0.100000
v 0.140000 0.030000 -0.100000
v 0.140000 0.030000 0.100000
v 0.140000 0.130000 -0.100000
v 0.140000 0.130000 0.100000
vn -1.0000 -0.0000 -0.0000
vn -0.0000 1.0000 -0.0000
vn 1.0000 -0.0000 -0.0000
vn -0.0000 -1.0000 -0.0000
vn -0.0000 -0.0000 -1.0000
vn -0.0000 -0.0000 1.0000
vt 0.375000 0.000000
vt 0.625000 0.000000
vt 0.625000 0.250000
vt 0.375000 0.250000
vt 0.625000 0.500000
vt 0.375000 0.500000
vt 0.625000 0.750000
vt 0.375000 0.750000
vt 0.625000 1.000000
vt 0.375000 1.000000
vt 0.125000 0.500000
vt 0.125000 0.750000
vt 0.875000 0.500000
vt 0.875000 0.750000
s 0
usemtl Skel_Bone
f 89/165/61 90/166/61 92/167/61 91/168/61
f 91/168/62 92/167/62 96/169/62 95/170/62
f 95/170/63 96/169/63 94/171/63 93/172/63
f 93/172/64 94/171/64 90/173/64 89/174/64
f 91/175/65 95/170/65 93/172/65 89/176/65
f 96/169/66 92/177/66 90/178/66 94/171/66
o Arm_L
v -0.240000 0.255000 -0.160000
v -0.240000 0.255000 0.160000
v -0.226606 0.252336 -0.160000
v -0.226606 0.252336 0.160000
v -0.215251 0.244749 -0.160000
v -0.215251 0.244749 0.160000
v -0.207664 0.233394 -0.160000
v -0.207664 0.233394 0.160000
v -0.205000 0.220000 -0.160000
v -0.205000 0.220000 0.160000
v -0.207664 0.206606 -0.160000
v -0.207664 0.206606 0.160000
v -0.215251 0.195251 -0.160000
v -0.215251 0.195251 0.160000
v -0.226606 0.187664 -0.160000
v -0.226606 0.187664 0.160000
v -0.240000 0.185000 -0.160000
v -0.240000 0.185000 0.160000
v -0.253394 0.187664 -0.160000
v -0.253394 0.187664 0.160000
v -0.264749 0.195251 -0.160000
v -0.264749 0.195251 0.160000
v -0.272336 0.206606 -0.160000
v -0.272336 0.206606 0.160000
v -0.275000 0.220000 -0.160000
v -0.275000 0.220000 0.160000
v -0.272336 0.233394 -0.160000
v -0.272336 0.233394 0.160000
v -0.264749 0.244749 -0.160000
v -0.264749 0.244749 0.160000
v -0.253394 0.252336 -0.160000
v -0.253394 0.252336 0.160000
vn 0.1951 0.9808 -0.0000
vn 0.5556 0.8315 -0.0000
vn 0.8315 0.5556 -0.0000
vn 0.9808 0.1951 -0.0000
vn 0.9808 -0.1951 -0.0000
vn 0.8315 -0.5556 -0.0000
vn 0.5556 -0.8315 -0.0000
vn 0.1951 -0.9808 -0.0000
vn -0.1951 -0.9808 -0.0000
vn -0.5556 -0.8315 -0.0000
vn -0.8315 -0.5556 -0.0000
vn -0.9808 -0.1951 -0.0000
vn -0.9808 0.1951 -0.0000
vn -0.8315 0.5556 -0.0000
vn -0.0000 -0.0000 1.0000
vn -0.5556 0.8315 -0.0000
vn -0.1951 0.9808 -0.0000
vn -0.0000 -0.0000 -1.0000
vt 1.000000 0.500000
vt 1.000000 1.000000
vt 0.937500 1.000000
vt 0.937500 0.500000
vt 0.875000 1.000000
vt 0.875000 0.500000
vt 0.812500 1.000000
vt 0.812500 0.500000
vt 0.750000 1.000000
vt 0.750000 0.500000
vt 0.687500 1.000000
vt 0.687500 0.500000
vt 0.625000 1.000000
vt 0.625000 0.500000
vt 0.562500 1.000000
vt 0.562500 0.500000
vt 0.500000 1.000000
vt 0.500000 0.500000
vt 0.437500 1.000000
vt 0.437500 0.500000
vt 0.375000 1.000000
vt 0.375000 0.500000
vt 0.312500 1.000000
vt 0.312500 0.500000
vt 0.250000 1.000000
vt 0.250000 0.500000
vt 0.187500 1.000000
vt 0.187500 0.500000
vt 0.125000 1.000000
vt 0.125000 0.500000
vt 0.341844 0.471731
vt 0.250000 0.490000
vt 0.158156 0.471731
vt 0.080294 0.419706
vt 0.028269 0.341844
vt 0.010000 0.250000
vt 0.028269 0.158156
vt 0.080294 0.080294
vt 0.158156 0.028269
vt 0.250000 0.010000
vt 0.341844 0.028269
vt 0.419706 0.080294
vt 0.471731 0.158156
vt 0.490000 0.250000
vt 0.471731 0.341844
vt 0.419706 0.419706
vt 0.062500 1.000000
vt 0.062500 0.500000
vt 0.000000 1.000000
vt 0.000000 0.500000
vt 0.750000 0.490000
vt 0.841844 0.471731
vt 0.919706 0.419706
vt 0.971731 0.341844
vt 0.990000 0.250000
vt 0.971731 0.158156
vt 0.919706 0.080294
vt 0.841844 0.028269
vt 0.750000 0.010000
vt 0.658156 0.028269
vt 0.580294 0.080294
vt 0.528269 0.158156
vt 0.510000 0.250000
vt 0.528269 0.341844
vt 0.580294 0.419706
vt 0.658156 0.471731
s 0
usemtl Skel_Bone
f 97/179/67 98/180/67 100/181/67 99/182/67
f 99/182/68 100/181/68 102/183/68 101/184/68
f 101/184/69 102/183/69 104/185/69 103/186/69
f 103/186/70 104/185/70 106/187/70 105/188/70
f 105/188/71 106/187/71 108/189/71 107/190/71
f 107/190/72 108/189/72 110/191/72 109/192/72
f 109/192/73 110/191/73 112/193/73 111/194/73
f 111/194/74 112/193/74 114/195/74 113/196/74
f 113/196/75 114/195/75 116/197/75 115/198/75
f 115/198/76 116/197/76 118/199/76 117/200/76
f 117/200/77 118/199/77 120/201/77 119/202/77
f 119/202/78 120/201/78 122/203/78 121/204/78
f 121/204/79 122/203/79 124/205/79 123/206/79
f 123/206/80 124/205/80 126/207/80 125/208/80
f 100/209/81 98/210/81 128/211/81 126/212/81 124/213/81 122/214/81 120/215/81 118/216/81 116/217/81 114/218/81 112/219/81 110/220/81 108/221/81 106/222/81 104/223/81 102/224/81
f 125/208/82 126/207/82 128/225/82 127/226/82
f 127/226/83 128/225/83 98/227/83 97/228/83
f 97/229/84 99/230/84 101/231/84 103/232/84 105/233/84 107/234/84 109/235/84 111/236/84 113/237/84 115/238/84 117/239/84 119/240/84 121/241/84 123/242/84 125/243/84 127/244/84
o Hand_L
v -0.280000 -0.070000 -0.020000
v -0.280000 -0.070000 0.060000
v -0.280000 0.030000 -0.020000
v -0.280000 0.030000 0.060000
v -0.200000 -0.070000 -0.020000
v -0.200000 -0.070000 0.060000
v -0.200000 0.030000 -0.020000
v -0.200000 0.030000 0.060000
vn -1.0000 -0.0000 -0.0000
vn -0.0000 1.0000 -0.0000
vn 1.0000 -0.0000 -0.0000
vn -0.0000 -1.0000 -0.0000
vn -0.0000 -0.0000 -1.0000
vn -0.0000 -0.0000 1.0000
vt 0.375000 0.000000
vt 0.625000 0.000000
vt 0.625000 0.250000
vt 0.375000 0.250000
vt 0.625000 0.500000
vt 0.375000 0.500000
vt 0.625000 0.750000
vt 0.375000 0.750000
vt 0.625000 1.000000
vt 0.375000 1.000000
vt 0.125000 0.500000
vt 0.125000 0.750000
vt 0.875000 0.500000
vt 0.875000 0.750000
s 0
usemtl Skel_Bone
f 129/245/85 130/246/85 132/247/85 131/248/85
f 131/248/86 132/247/86 136/249/86 135/250/86
f 135/250/87 136/249/87 134/251/87 133/252/87
f 133/252/88 134/251/88 130/253/88 129/254/88
f 131/255/89 135/250/89 133/252/89 129/256/89
f 136/249/90 132/257/90 130/258/90 134/251/90
o Arm_R
v 0.240000 0.255000 -0.160000
v 0.240000 0.255000 0.160000
v 0.253394 0.252336 -0.160000
v 0.253394 0.252336 0.160000
v 0.264749 0.244749 -0.160000
v 0.264749 0.244749 0.160000
v 0.272336 0.233394 -0.160000
v 0.272336 0.233394 0.160000
v 0.275000 0.220000 -0.160000
v 0.275000 0.220000 0.160000
v 0.272336 0.206606 -0.160000
v 0.272336 0.206606 0.160000
v 0.264749 0.195251 -0.160000
v 0.264749 0.195251 0.160000
v 0.253394 0.187664 -0.160000
v 0.253394 0.187664 0.160000
v 0.240000 0.185000 -0.160000
v 0.240000 0.185000 0.160000
v 0.226606 0.187664 -0.160000
v 0.226606 0.187664 0.160000
v 0.215251 0.195251 -0.160000
v 0.215251 0.195251 0.160000
v 0.207664 0.206606 -0.160000
v 0.207664 0.206606 0.160000
v 0.205000 0.220000 -0.160000
v 0.205000 0.220000 0.160000
v 0.207664 0.233394 -0.160000
v 0.207664 0.233394 0.160000
v 0.215251 0.244749 -0.160000
v 0.215251 0.244749 0.160000
v 0.226606 0.252336 -0.160000
v 0.226606 0.252336 0.160000
vn 0.1951 0.9808 -0.0000
vn 0.5556 0.8315 -0.0000
vn 0.8315 0.5556 -0.0000
vn 0.9808 0.1951 -0.0000
vn 0.9808 -0.1951 -0.0000
vn 0.8315 -0.5556 -0.0000
vn 0.5556 -0.8315 -0.0000
vn 0.1951 -0.9808 -0.0000
vn -0.1951 -0.9808 -0.0000
vn -0.5556 -0.8315 -0.0000
vn -0.8315 -0.5556 -0.0000
vn -0.9808 -0.1951 -0.0000
vn -0.9808 0.1951 -0.0000
vn -0.8315 0.5556 -0.0000
vn -0.0000 -0.0000 1.0000
vn -0.5556 0.8315 -0.0000
vn -0.1951 0.9808 -0.0000
vn -0.0000 -0.0000 -1.0000
vt 1.000000 0.500000
vt 1.000000 1.000000
vt 0.937500 1.000000
vt 0.937500 0.500000
vt 0.875000 1.000000
vt 0.875000 0.500000
vt 0.812500 1.000000
vt 0.812500 0.500000
vt 0.750000 1.000000
vt 0.750000 0.500000
vt 0.687500 1.000000
vt 0.687500 0.500000
vt 0.625000 1.000000
vt 0.625000 0.500000
vt 0.562500 1.000000
vt 0.562500 0.500000
vt 0.500000 1.000000
vt 0.500000 0.500000
vt 0.437500 1.000000
vt 0.437500 0.500000
vt 0.375000 1.000000
vt 0.375000 0.500000
vt 0.312500 1.000000
vt 0.312500 0.500000
vt 0.250000 1.000000
vt 0.250000 0.500000
vt 0.187500 1.000000
vt 0.187500 0.500000
vt 0.125000 1.000000
vt 0.125000 0.500000
vt 0.341844 0.471731
vt 0.250000 0.490000
vt 0.158156 0.471731
vt 0.080294 0.419706
vt 0.028269 0.341844
vt 0.010000 0.250000
vt 0.028269 0.158156
vt 0.080294 0.080294
vt 0.158156 0.028269
vt 0.250000 0.010000
vt 0.341844 0.028269
vt 0.419706 0.080294
vt 0.471731 0.158156
vt 0.490000 0.250000
vt 0.471731 0.341844
vt 0.419706 0.419706
vt 0.062500 1.000000
vt 0.062500 0.500000
vt 0.000000 1.000000
vt 0.000000 0.500000
vt 0.750000 0.490000
vt 0.841844 0.471731
vt 0.919706 0.419706
vt 0.971731 0.341844
vt 0.990000 0.250000
vt 0.971731 0.158156
vt 0.919706 0.080294
vt 0.841844 0.028269
vt 0.750000 0.010000
vt 0.658156 0.028269
vt 0.580294 0.080294
vt 0.528269 0.158156
vt 0.510000 0.250000
vt 0.528269 0.341844
vt 0.580294 0.419706
vt 0.658156 0.471731
s 0
usemtl Skel_Bone
f 137/259/91 138/260/91 140/261/91 139/262/91
f 139/262/92 140/261/92 142/263/92 141/264/92
f 141/264/93 142/263/93 144/265/93 143/266/93
f 143/266/94 144/265/94 146/267/94 145/268/94
f 145/268/95 146/267/95 148/269/95 147/270/95
f 147/270/96 148/269/96 150/271/96 149/272/96
f 149/272/97 150/271/97 152/273/97 151/274/97
f 151/274/98 152/273/98 154/275/98 153/276/98
f 153/276/99 154/275/99 156/277/99 155/278/99
f 155/278/100 156/277/100 158/279/100 157/280/100
f 157/280/101 158/279/101 160/281/101 159/282/101
f 159/282/102 160/281/102 162/283/102 161/284/102
f 161/284/103 162/283/103 164/285/103 163/286/103
f 163/286/104 164/285/104 166/287/104 165/288/104
f 140/289/105 138/290/105 168/291/105 166/292/105 164/293/105 162/294/105 160/295/105 158/296/105 156/297/105 154/298/105 152/299/105 150/300/105 148/301/105 146/302/105 144/303/105 142/304/105
f 165/288/106 166/287/106 168/305/106 167/306/106
f 167/306/107 168/305/107 138/307/107 137/308/107
f 137/309/108 139/310/108 141/311/108 143/312/108 145/313/108 147/314/108 149/315/108 151/316/108 153/317/108 155/318/108 157/319/108 159/320/108 161/321/108 163/322/108 165/323/108 167/324/108
o Hand_R
v 0.200000 -0.070000 -0.020000
v 0.200000 -0.070000 0.060000
v 0.200000 0.030000 -0.020000
v 0.200000 0.030000 0.060000
v 0.280000 -0.070000 -0.020000
v 0.280000 -0.070000 0.060000
v 0.280000 0.030000 -0.020000
v 0.280000 0.030000 0.060000
vn -1.0000 -0.0000 -0.0000
vn -0.0000 1.0000 -0.0000
vn 1.0000 -0.0000 -0.0000
vn -0.0000 -1.0000 -0.0000
vn -0.0000 -0.0000 -1.0000
vn -0.0000 -0.0000 1.0000
vt 0.375000 0.000000
vt 0.625000 0.000000
vt 0.625000 0.250000
vt 0.375000 0.250000
vt 0.625000 0.500000
vt 0.375000 0.500000
vt 0.625000 0.750000
vt 0.375000 0.750000
vt 0.625000 1.000000
vt 0.375000 1.000000
vt 0.125000 0.500000
vt 0.125000 0.750000
vt 0.875000 0.500000
vt 0.875000 0.750000
s 0
usemtl Skel_Bone
f 169/325/109 170/326/109 172/327/109 171/328/109
f 171/328/110 172/327/110 176/329/110 175/330/110
f 175/330/111 176/329/111 174/331/111 173/332/111
f 173/332/112 174/331/112 170/333/112 169/334/112
f 171/335/113 175/330/113 173/332/113 169/336/113
f 176/329/114 172/337/114 170/338/114 174/331/114
o Sword_Blade
v 0.260000 0.050000 0.110000
v 0.260000 0.050000 0.190000
v 0.260000 0.650000 0.110000
v 0.260000 0.650000 0.190000
v 0.300000 0.050000 0.110000
v 0.300000 0.050000 0.190000
v 0.300000 0.650000 0.110000
v 0.300000 0.650000 0.190000
vn -1.0000 -0.0000 -0.0000
vn -0.0000 1.0000 -0.0000
vn 1.0000 -0.0000 -0.0000
vn -0.0000 -1.0000 -0.0000
vn -0.0000 -0.0000 -1.0000
vn -0.0000 -0.0000 1.0000
vt 0.375000 0.000000
vt 0.625000 0.000000
vt 0.625000 0.250000
vt 0.375000 0.250000
vt 0.625000 0.500000
vt 0.375000 0.500000
vt 0.625000 0.750000
vt 0.375000 0.750000
vt 0.625000 1.000000
vt 0.375000 1.000000
vt 0.125000 0.500000
vt 0.125000 0.750000
vt 0.875000 0.500000
vt 0.875000 0.750000
s 0
usemtl Skel_Bone
f 177/339/115 178/340/115 180/341/115 179/342/115
f 179/342/116 180/341/116 184/343/116 183/344/116
f 183/344/117 184/343/117 182/345/117 181/346/117
f 181/346/118 182/345/118 178/347/118 177/348/118
f 179/349/119 183/344/119 181/346/119 177/350/119
f 184/343/120 180/351/120 178/352/120 182/345/120
o Shield
v -0.280000 0.095000 0.300000
v -0.280000 0.065000 0.300000
v -0.211117 0.095000 0.286298
v -0.211117 0.065000 0.286298
v -0.152721 0.095000 0.247279
v -0.152721 0.065000 0.247279
v -0.113702 0.095000 0.188883
v -0.113702 0.065000 0.188883
v -0.100000 0.095000 0.120000
v -0.100000 0.065000 0.120000
v -0.113702 0.095000 0.051117
v -0.113702 0.065000 0.051117
v -0.152721 0.095000 -0.007279
v -0.152721 0.065000 -0.007279
v -0.211117 0.095000 -0.046298
v -0.211117 0.065000 -0.046298
v -0.280000 0.095000 -0.060000
v -0.280000 0.065000 -0.060000
v -0.348883 0.095000 -0.046298
v -0.348883 0.065000 -0.046298
v -0.407279 0.095000 -0.007279
v -0.407279 0.065000 -0.007279
v -0.446298 0.095000 0.051117
v -0.446298 0.065000 0.051117
v -0.460000 0.095000 0.120000
v -0.460000 0.065000 0.120000
v -0.446298 0.095000 0.188883
v -0.446298 0.065000 0.188883
v -0.407279 0.095000 0.247279
v -0.407279 0.065000 0.247279
v -0.348883 0.095000 0.286298
v -0.348883 0.065000 0.286298
vn 0.1951 -0.0000 0.9808
vn 0.5556 -0.0000 0.8315
vn 0.8315 -0.0000 0.5556
vn 0.9808 -0.0000 0.1951
vn 0.9808 -0.0000 -0.1951
vn 0.8315 -0.0000 -0.5556
vn 0.5556 -0.0000 -0.8315
vn 0.1951 -0.0000 -0.9808
vn -0.1951 -0.0000 -0.9808
vn -0.5556 -0.0000 -0.8315
vn -0.8315 -0.0000 -0.5556
vn -0.9808 -0.0000 -0.1951
vn -0.9808 -0.0000 0.1951
vn -0.8315 -0.0000 0.5556
vn -0.0000 -1.0000 -0.0000
vn -0.5556 -0.0000 0.8315
vn -0.1951 -0.0000 0.9808
vn -0.0000 1.0000 -0.0000
vt 1.000000 0.500000
vt 1.000000 1.000000
vt 0.937500 1.000000
vt 0.937500 0.500000
vt 0.875000 1.000000
vt 0.875000 0.500000
vt 0.812500 1.000000
vt 0.812500 0.500000
vt 0.750000 1.000000
vt 0.750000 0.500000
vt 0.687500 1.000000
vt 0.687500 0.500000
vt 0.625000 1.000000
vt 0.625000 0.500000
vt 0.562500 1.000000
vt 0.562500 0.500000
vt 0.500000 1.000000
vt 0.500000 0.500000
vt 0.437500 1.000000
vt 0.437500 0.500000
vt 0.375000 1.000000
vt 0.375000 0.500000
vt 0.312500 1.000000
vt 0.312500 0.500000
vt 0.250000 1.000000
vt 0.250000 0.500000
vt 0.187500 1.000000
vt 0.187500 0.500000
vt 0.125000 1.000000
vt 0.125000 0.500000
vt 0.341844 0.471731
vt 0.250000 0.490000
vt 0.158156 0.471731
vt 0.080294 0.419706
vt 0.028269 0.341844
vt 0.010000 0.250000
vt 0.028269 0.158156
vt 0.080294 0.080294
vt 0.158156 0.028269
vt 0.250000 0.010000
vt 0.341844 0.028269
vt 0.419706 0.080294
vt 0.471731 0.158156
vt 0.490000 0.250000
vt 0.471731 0.341844
vt 0.419706 0.419706
vt 0.062500 1.000000
vt 0.062500 0.500000
vt 0.000000 1.000000
vt 0.000000 0.500000
vt 0.750000 0.490000
vt 0.841844 0.471731
vt 0.919706 0.419706
vt 0.971731 0.341844
vt 0.990000 0.250000
vt 0.971731 0.158156
vt 0.919706 0.080294
vt 0.841844 0.028269
vt 0.750000 0.010000
vt 0.658156 0.028269
vt 0.580294 0.080294
vt 0.528269 0.158156
vt 0.510000 0.250000
vt 0.528269 0.341844
vt 0.580294 0.419706
vt 0.658156 0.471731
s 0
usemtl Skel_Iron
f 185/353/121 186/354/121 188/355/121 187/356/121
f 187/356/122 188/355/122 190/357/122 189/358/122
f 189/358/123 190/357/123 192/359/123 191/360/123
f 191/360/124 192/359/124 194/361/124 193/362/124
f 193/362/125 194/361/125 196/363/125 195/364/125
f 195/364/126 196/363/126 198/365/126 197/366/126
f 197/366/127 198/365/127 200/367/127 199/368/127
f 199/368/128 200/367/128 202/369/128 201/370/128
f 201/370/129 202/369/129 204/371/129 203/372/129
f 203/372/130 204/371/130 206/373/130 205/374/130
f 205/374/131 206/373/131 208/375/131 207/376/131
f 207/376/132 208/375/132 210/377/132 209/378/132
f 209/378/133 210/377/133 212/379/133 211/380/133
f 211/380/134 212/379/134 214/381/134 213/382/134
f 188/383/135 186/384/135 216/385/135 214/386/135 212/387/135 210/388/135 208/389/135 206/390/135 204/391/135 202/392/135 200/393/135 198/394/135 196/395/135 194/396/135 192/397/135 190/398/135
f 213/382/136 214/381/136 216/399/136 215/400/136
f 215/400/137 216/399/137 186/401/137 185/402/137
f 185/403/138 187/404/138 189/405/138 191/406/138 193/407/138 195/408/138 197/409/138 199/410/138 201/411/138 203/412/138 205/413/138 207/414/138 209/415/138 211/416/138 213/417/138 215/418/138
o Thigh_L
v -0.120000 -0.080000 -0.150000
v -0.120000 -0.080000 0.150000
v -0.104693 -0.083045 -0.150000
v -0.104693 -0.083045 0.150000
v -0.091716 -0.091716 -0.150000
v -0.091716 -0.091716 0.150000
v -0.083045 -0.104693 -0.150000
v -0.083045 -0.104693 0.150000
v -0.080000 -0.120000 -0.150000
v -0.080000 -0.120000 0.150000
v -0.083045 -0.135307 -0.150000
v -0.083045 -0.135307 0.150000
v -0.091716 -0.148284 -0.150000
v -0.091716 -0.148284 0.150000
v -0.104693 -0.156955 -0.150000
v -0.104693 -0.156955 0.150000
v -0.120000 -0.160000 -0.150000
v -0.120000 -0.160000 0.150000
v -0.135307 -0.156955 -0.150000
v -0.135307 -0.156955 0.150000
v -0.148284 -0.148284 -0.150000
v -0.148284 -0.148284 0.150000
v -0.156955 -0.135307 -0.150000
v -0.156955 -0.135307 0.150000
v -0.160000 -0.120000 -0.150000
v -0.160000 -0.120000 0.150000
v -0.156955 -0.104693 -0.150000
v -0.156955 -0.104693 0.150000
v -0.148284 -0.091716 -0.150000
v -0.148284 -0.091716 0.150000
v -0.135307 -0.083045 -0.150000
v -0.135307 -0.083045 0.150000
vn 0.1951 0.9808 -0.0000
vn 0.5556 0.8315 -0.0000
vn 0.8315 0.5556 -0.0000
vn 0.9808 0.1951 -0.0000
vn 0.9808 -0.1951 -0.0000
vn 0.8315 -0.5556 -0.0000
vn 0.5556 -0.8315 -0.0000
vn 0.1951 -0.9808 -0.0000
vn -0.1951 -0.9808 -0.0000
vn -0.5556 -0.8315 -0.0000
vn -0.8315 -0.5556 -0.0000
vn -0.9808 -0.1951 -0.0000
vn -0.9808 0.1951 -0.0000
vn -0.8315 0.5556 -0.0000
vn -0.0000 -0.0000 1.0000
vn -0.5556 0.8315 -0.0000
vn -0.1951 0.9808 -0.0000
vn -0.0000 -0.0000 -1.0000
vt 1.000000 0.500000
vt 1.000000 1.000000
vt 0.937500 1.000000
vt 0.937500 0.500000
vt 0.875000 1.000000
vt 0.875000 0.500000
vt 0.812500 1.000000
vt 0.812500 0.500000
vt 0.750000 1.000000
vt 0.750000 0.500000
vt 0.687500 1.000000
vt 0.687500 0.500000
vt 0.625000 1.000000
vt 0.625000 0.500000
vt 0.562500 1.000000
vt 0.562500 0.500000
vt 0.500000 1.000000
vt 0.500000 0.500000
vt 0.437500 1.000000
vt 0.437500 0.500000
vt 0.375000 1.000000
vt 0.375000 0.500000
vt 0.312500 1.000000
vt 0.312500 0.500000
vt 0.250000 1.000000
vt 0.250000 0.500000
vt 0.187500 1.000000
vt 0.187500 0.500000
vt 0.125000 1.000000
vt 0.125000 0.500000
vt 0.341844 0.471731
vt 0.250000 0.490000
vt 0.158156 0.471731
vt 0.080294 0.419706
vt 0.028269 0.341844
vt 0.010000 0.250000
vt 0.028269 0.158156
vt 0.080294 0.080294
vt 0.158156 0.028269
vt 0.250000 0.010000
vt 0.341844 0.028269
vt 0.419706 0.080294
vt 0.471731 0.158156
vt 0.490000 0.250000
vt 0.471731 0.341844
vt 0.419706 0.419706
vt 0.062500 1.000000
vt 0.062500 0.500000
vt 0.000000 1.000000
vt 0.000000 0.500000
vt 0.750000 0.490000
vt 0.841844 0.471731
vt 0.919706 0.419706
vt 0.971731 0.341844
vt 0.990000 0.250000
vt 0.971731 0.158156
vt 0.919706 0.080294
vt 0.841844 0.028269
vt 0.750000 0.010000
vt 0.658156 0.028269
vt 0.580294 0.080294
vt 0.528269 0.158156
vt 0.510000 0.250000
vt 0.528269 0.341844
vt 0.580294 0.419706
vt 0.658156 0.471731
s 0
usemtl Skel_Bone
f 217/419/139 218/420/139 220/421/139 219/422/139
f 219/422/140 220/421/140 222/423/140 221/424/140
f 221/424/141 222/423/141 224/425/141 223/426/141
f 223/426/142 224/425/142 226/427/142 225/428/142
f 225/428/143 226/427/143 228/429/143 227/430/143
f 227/430/144 228/429/144 230/431/144 229/432/144
f 229/432/145 230/431/145 232/433/145 231/434/145
f 231/434/146 232/433/146 234/435/146 233/436/146
f 233/436/147 234/435/147 236/437/147 235/438/147
f 235/438/148 236/437/148 238/439/148 237/440/148
f 237/440/149 238/439/149 240/441/149 239/442/149
f 239/442/150 240/441/150 242/443/150 241/444/150
f 241/444/151 242/443/151 244/445/151 243/446/151
f 243/446/152 244/445/152 246/447/152 245/448/152
f 220/449/153 218/450/153 248/451/153 246/452/153 244/453/153 242/454/153 240/455/153 238/456/153 236/457/153 234/458/153 232/459/153 230/460/153 228/461/153 226/462/153 224/463/153 222/464/153
f 245/448/154 246/447/154 248/465/154 247/466/154
f 247/466/155 248/465/155 218/467/155 217/468/155
f 217/469/156 219/470/156 221/471/156 223/472/156 225/473/156 227/474/156 229/475/156 231/476/156 233/477/156 235/478/156 237/479/156 239/480/156 241/481/156 243/482/156 245/483/156 247/484/156
o Shin_L
v -0.120000 -0.385000 -0.150000
v -0.120000 -0.385000 0.150000
v -0.106606 -0.387664 -0.150000
v -0.106606 -0.387664 0.150000
v -0.095251 -0.395251 -0.150000
v -0.095251 -0.395251 0.150000
v -0.087664 -0.406606 -0.150000
v -0.087664 -0.406606 0.150000
v -0.085000 -0.420000 -0.150000
v -0.085000 -0.420000 0.150000
v -0.087664 -0.433394 -0.150000
v -0.087664 -0.433394 0.150000
v -0.095251 -0.444749 -0.150000
v -0.095251 -0.444749 0.150000
v -0.106606 -0.452336 -0.150000
v -0.106606 -0.452336 0.150000
v -0.120000 -0.455000 -0.150000
v -0.120000 -0.455000 0.150000
v -0.133394 -0.452336 -0.150000
v -0.133394 -0.452336 0.150000
v -0.144749 -0.444749 -0.150000
v -0.144749 -0.444749 0.150000
v -0.152336 -0.433394 -0.150000
v -0.152336 -0.433394 0.150000
v -0.155000 -0.420000 -0.150000
v -0.155000 -0.420000 0.150000
v -0.152336 -0.406606 -0.150000
v -0.152336 -0.406606 0.150000
v -0.144749 -0.395251 -0.150000
v -0.144749 -0.395251 0.150000
v -0.133394 -0.387664 -0.150000
v -0.133394 -0.387664 0.150000
vn 0.1951 0.9808 -0.0000
vn 0.5556 0.8315 -0.0000
vn 0.8315 0.5556 -0.0000
vn 0.9808 0.1951 -0.0000
vn 0.9808 -0.1951 -0.0000
vn 0.8315 -0.5556 -0.0000
vn 0.5556 -0.8315 -0.0000
vn 0.1951 -0.9808 -0.0000
vn -0.1951 -0.9808 -0.0000
vn -0.5556 -0.8315 -0.0000
vn -0.8315 -0.5556 -0.0000
vn -0.9808 -0.1951 -0.0000
vn -0.9808 0.1951 -0.0000
vn -0.8315 0.5556 -0.0000
vn -0.0000 -0.0000 1.0000
vn -0.5556 0.8315 -0.0000
vn -0.1951 0.9808 -0.0000
vn -0.0000 -0.0000 -1.0000
vt 1.000000 0.500000
vt 1.000000 1.000000
vt 0.937500 1.000000
vt 0.937500 0.500000
vt 0.875000 1.000000
vt 0.875000 0.500000
vt 0.812500 1.000000
vt 0.812500 0.500000
vt 0.750000 1.000000
vt 0.750000 0.500000
vt 0.687500 1.000000
vt 0.687500 0.500000
vt 0.625000 1.000000
vt 0.625000 0.500000
vt 0.562500 1.000000
vt 0.562500 0.500000
vt 0.500000 1.000000
vt 0.500000 0.500000
vt 0.437500 1.000000
vt 0.437500 0.500000
vt 0.375000 1.000000
vt 0.375000 0.500000
vt 0.312500 1.000000
vt 0.312500 0.500000
vt 0.250000 1.000000
vt 0.250000 0.500000
vt 0.187500 1.000000
vt 0.187500 0.500000
vt 0.125000 1.000000
vt 0.125000 0.500000
vt 0.341844 0.471731
vt 0.250000 0.490000
vt 0.158156 0.471731
vt 0.080294 0.419706
vt 0.028269 0.341844
vt 0.010000 0.250000
vt 0.028269 0.158156
vt 0.080294 0.080294
vt 0.158156 0.028269
vt 0.250000 0.010000
vt 0.341844 0.028269
vt 0.419706 0.080294
vt 0.471731 0.158156
vt 0.490000 0.250000
vt 0.471731 0.341844
vt 0.419706 0.419706
vt 0.062500 1.000000
vt 0.062500 0.500000
vt 0.000000 1.000000
vt 0.000000 0.500000
vt 0.750000 0.490000
vt 0.841844 0.471731
vt 0.919706 0.419706
vt 0.971731 0.341844
vt 0.990000 0.250000
vt 0.971731 0.158156
vt 0.919706 0.080294
vt 0.841844 0.028269
vt 0.750000 0.010000
vt 0.658156 0.028269
vt 0.580294 0.080294
vt 0.528269 0.158156
vt 0.510000 0.250000
vt 0.528269 0.341844
vt 0.580294 0.419706
vt 0.658156 0.471731
s 0
usemtl Skel_Bone
f 249/485/157 250/486/157 252/487/157 251/488/157
f 251/488/158 252/487/158 254/489/158 253/490/158
f 253/490/159 254/489/159 256/491/159 255/492/159
f 255/492/160 256/491/160 258/493/160 257/494/160
f 257/494/161 258/493/161 260/495/161 259/496/161
f 259/496/162 260/495/162 262/497/162 261/498/162
f 261/498/163 262/497/163 264/499/163 263/500/163
f 263/500/164 264/499/164 266/501/164 265/502/164
f 265/502/165 266/501/165 268/503/165 267/504/165
f 267/504/166 268/503/166 270/505/166 269/506/166
f 269/506/167 270/505/167 272/507/167 271/508/167
f 271/508/168 272/507/168 274/509/168 273/510/168
f 273/510/169 274/509/169 276/511/169 275/512/169
f 275/512/170 276/511/170 278/513/170 277/514/170
f 252/515/171 250/516/171 280/517/171 278/518/171 276/519/171 274/520/171 272/521/171 270/522/171 268/523/171 266/524/171 264/525/171 262/526/171 260/527/171 258/528/171 256/529/171 254/530/171
f 277/514/172 278/513/172 280/531/172 279/532/172
f 279/532/173 280/531/173 250/533/173 249/534/173
f 249/535/174 251/536/174 253/537/174 255/538/174 257/539/174 259/540/174 261/541/174 263/542/174 265/543/174 267/544/174 269/545/174 271/546/174 273/547/174 275/548/174 277/549/174 279/550/174
o Foot_L
v -0.160000 -0.630000 -0.040000
v -0.160000 -0.630000 0.140000
v -0.160000 -0.570000 -0.040000
v -0.160000 -0.570000 0.140000
v -0.080000 -0.630000 -0.040000
v -0.080000 -0.630000 0.140000
v -0.080000 -0.570000 -0.040000
v -0.080000 -0.570000 0.140000
vn -1.0000 -0.0000 -0.0000
vn -0.0000 1.0000 -0.0000
vn 1.0000 -0.0000 -0.0000
vn -0.0000 -1.0000 -0.0000
vn -0.0000 -0.0000 -1.0000
vn -0.0000 -0.0000 1.0000
vt 0.375000 0.000000
vt 0.625000 0.000000
vt 0.625000 0.250000
vt 0.375000 0.250000
vt 0.625000 0.500000
vt 0.375000 0.500000
vt 0.625000 0.750000
vt 0.375000 0.750000
vt 0.625000 1.000000
vt 0.375000 1.000000
vt 0.125000 0.500000
vt 0.125000 0.750000
vt 0.875000 0.500000
vt 0.875000 0.750000
s 0
usemtl Skel_Bone
f 281/551/175 282/552/175 284/553/175 283/554/175
f 283/554/176 284/553/176 288/555/176 287/556/176
f 287/556/177 288/555/177 286/557/177 285/558/177
f 285/558/178 286/557/178 282/559/178 281/560/178
f 283/561/179 287/556/179 285/558/179 281/562/179
f 288/555/180 284/563/180 282/564/180 286/557/180
o Thigh_R
v 0.120000 -0.080000 -0.150000
v 0.120000 -0.080000 0.150000
v 0.135307 -0.083045 -0.150000
v 0.135307 -0.083045 0.150000
v 0.148284 -0.091716 -0.150000
v 0.148284 -0.091716 0.150000
v 0.156955 -0.104693 -0.150000
v 0.156955 -0.104693 0.150000
v 0.160000 -0.120000 -0.150000
v 0.160000 -0.120000 0.150000
v 0.156955 -0.135307 -0.150000
v 0.156955 -0.135307 0.150000
v 0.148284 -0.148284 -0.150000
v 0.148284 -0.148284 0.150000
v 0.135307 -0.156955 -0.150000
v 0.135307 -0.156955 0.150000
v 0.120000 -0.160000 -0.150000
v 0.120000 -0.160000 0.150000
v 0.104693 -0.156955 -0.150000
v 0.104693 -0.156955 0.150000
v 0.091716 -0.148284 -0.150000
v 0.091716 -0.148284 0.150000
v 0.083045 -0.135307 -0.150000
v 0.083045 -0.135307 0.150000
v 0.080000 -0.120000 -0.150000
v 0.080000 -0.120000 0.150000
v 0.083045 -0.104693 -0.150000
v 0.083045 -0.104693 0.150000
v 0.091716 -0.091716 -0.150000
v 0.091716 -0.091716 0.150000
v 0.104693 -0.083045 -0.150000
v 0.104693 -0.083045 0.150000
vn 0.1951 0.9808 -0.0000
vn 0.5556 0.8315 -0.0000
vn 0.8315 0.5556 -0.0000
vn 0.9808 0.1951 -0.0000
vn 0.9808 -0.1951 -0.0000
vn 0.8315 -0.5556 -0.0000
vn 0.5556 -0.8315 -0.0000
vn 0.1951 -0.9808 -0.0000
vn -0.1951 -0.9808 -0.0000
vn -0.5556 -0.8315 -0.0000
vn -0.8315 -0.5556 -0.0000
vn -0.9808 -0.1951 -0.0000
vn -0.9808 0.1951 -0.0000
vn -0.8315 0.5556 -0.0000
vn -0.0000 -0.0000 1.0000
vn -0.5556 0.8315 -0.0000
vn -0.1951 0.9808 -0.0000
vn -0.0000 -0.0000 -1.0000
vt 1.000000 0.500000
vt 1.000000 1.000000
vt 0.937500 1.000000
vt 0.937500 0.500000
vt 0.875000 1.000000
vt 0.875000 0.500000
vt 0.812500 1.000000
vt 0.812500 0.500000
vt 0.750000 1.000000
vt 0.750000 0.500000
vt 0.687500 1.000000
vt 0.687500 0.500000
vt 0.625000 1.000000
vt 0.625000 0.500000
vt 0.562500 1.000000
vt 0.562500 0.500000
vt 0.500000 1.000000
vt 0.500000 0.500000
vt 0.437500 1.000000
vt 0.437500 0.500000
vt 0.375000 1.000000
vt 0.375000 0.500000
vt 0.312500 1.000000
vt 0.312500 0.500000
vt 0.250000 1.000000
vt 0.250000 0.500000
vt 0.187500 1.000000
vt 0.187500 0.500000
vt 0.125000 1.000000
vt 0.125000 0.500000
vt 0.341844 0.471731
vt 0.250000 0.490000
vt 0.158156 0.471731
vt 0.080294 0.419706
vt 0.028269 0.341844
vt 0.010000 0.250000
vt 0.028269 0.158156
vt 0.080294 0.080294
vt 0.158156 0.028269
vt 0.250000 0.010000
vt 0.341844 0.028269
vt 0.419706 0.080294
vt 0.471731 0.158156
vt 0.490000 0.250000
vt 0.471731 0.341844
vt 0.419706 0.419706
vt 0.062500 1.000000
vt 0.062500 0.500000
vt 0.000000 1.000000
vt 0.000000 0.500000
vt 0.750000 0.490000
vt 0.841844 0.471731
vt 0.919706 0.419706
vt 0.971731 0.341844
vt 0.990000 0.250000
vt 0.971731 0.158156
vt 0.919706 0.080294
vt 0.841844 0.028269
vt 0.750000 0.010000
vt 0.658156 0.028269
vt 0.580294 0.080294
vt 0.528269 0.158156
vt 0.510000 0.250000
vt 0.528269 0.341844
vt 0.580294 0.419706
vt 0.658156 0.471731
s 0
usemtl Skel_Bone
f 289/565/181 290/566/181 292/567/181 291/568/181
f 291/568/182 292/567/182 294/569/182 293/570/182
f 293/570/183 294/569/183 296/571/183 295/572/183
f 295/572/184 296/571/184 298/573/184 297/574/184
f 297/574/185 298/573/185 300/575/185 299/576/185
f 299/576/186 300/575/186 302/577/186 301/578/186
f 301/578/187 302/577/187 304/579/187 303/580/187
f 303/580/188 304/579/188 306/581/188 305/582/188
f 305/582/189 306/581/189 308/583/189 307/584/189
f 307/584/190 308/583/190 310/585/190 309/586/190
f 309/586/191 310/585/191 312/587/191 311/588/191
f 311/588/192 312/587/192 314/589/192 313/590/192
f 313/590/193 314/589/193 316/591/193 315/592/193
f 315/592/194 316/591/194 318/593/194 317/594/194
f 292/595/195 290/596/195 320/597/195 318/598/195 316/599/195 314/600/195 312/601/195 310/602/195 308/603/195 306/604/195 304/605/195 302/606/195 300/607/195 298/608/195 296/609/195 294/610/195
f 317/594/196 318/593/196 320/611/196 319/612/196
f 319/612/197 320/611/197 290/613/197 289/614/197
f 289/615/198 291/616/198 293/617/198 295/618/198 297/619/198 299/620/198 301/621/198 303/622/198 305/623/198 307/624/198 309/625/198 311/626/198 313/627/198 315/628/198 317/629/198 319/630/198
o Shin_R
v 0.120000 -0.385000 -0.150000
v 0.120000 -0.385000 0.150000
v 0.133394 -0.387664 -0.150000
v 0.133394 -0.387664 0.150000
v 0.144749 -0.395251 -0.150000
v 0.144749 -0.395251 0.150000
v 0.152336 -0.406606 -0.150000
v 0.152336 -0.406606 0.150000
v 0.155000 -0.420000 -0.150000
v 0.155000 -0.420000 0.150000
v 0.152336 -0.433394 -0.150000
v 0.152336 -0.433394 0.150000
v 0.144749 -0.444749 -0.150000
v 0.144749 -0.444749 0.150000
v 0.133394 -0.452336 -0.150000
v 0.133394 -0.452336 0.150000
v 0.120000 -0.455000 -0.150000
v 0.120000 -0.455000 0.150000
v 0.106606 -0.452336 -0.150000
v 0.106606 -0.452336 0.150000
v 0.095251 -0.444749 -0.150000
v 0.095251 -0.444749 0.150000
v 0.087664 -0.433394 -0.150000
v 0.087664 -0.433394 0.150000
v 0.085000 -0.420000 -0.150000
v 0.085000 -0.420000 0.150000
v 0.087664 -0.406606 -0.150000
v 0.087664 -0.406606 0.150000
v 0.095251 -0.395251 -0.150000
v 0.095251 -0.395251 0.150000
v 0.106606 -0.387664 -0.150000
v 0.106606 -0.387664 0.150000
vn 0.1951 0.9808 -0.0000
vn 0.5556 0.8315 -0.0000
vn 0.8315 0.5556 -0.0000
vn 0.9808 0.1951 -0.0000
vn 0.9808 -0.1951 -0.0000
vn 0.8315 -0.5556 -0.0000
vn 0.5556 -0.8315 -0.0000
vn 0.1951 -0.9808 -0.0000
vn -0.1951 -0.9808 -0.0000
vn -0.5556 -0.8315 -0.0000
vn -0.8315 -0.5556 -0.0000
vn -0.9808 -0.1951 -0.0000
vn -0.9808 0.1951 -0.0000
vn -0.8315 0.5556 -0.0000
vn -0.0000 -0.0000 1.0000
vn -0.5556 0.8315 -0.0000
vn -0.1951 0.9808 -0.0000
vn -0.0000 -0.0000 -1.0000
vt 1.000000 0.500000
vt 1.000000 1.000000
vt 0.937500 1.000000
vt 0.937500 0.500000
vt 0.875000 1.000000
vt 0.875000 0.500000
vt 0.812500 1.000000
vt 0.812500 0.500000
vt 0.750000 1.000000
vt 0.750000 0.500000
vt 0.687500 1.000000
vt 0.687500 0.500000
vt 0.625000 1.000000
vt 0.625000 0.500000
vt 0.562500 1.000000
vt 0.562500 0.500000
vt 0.500000 1.000000
vt 0.500000 0.500000
vt 0.437500 1.000000
vt 0.437500 0.500000
vt 0.375000 1.000000
vt 0.375000 0.500000
vt 0.312500 1.000000
vt 0.312500 0.500000
vt 0.250000 1.000000
vt 0.250000 0.500000
vt 0.187500 1.000000
vt 0.187500 0.500000
vt 0.125000 1.000000
vt 0.125000 0.500000
vt 0.341844 0.471731
vt 0.250000 0.490000
vt 0.158156 0.471731
vt 0.080294 0.419706
vt 0.028269 0.341844
vt 0.010000 0.250000
vt 0.028269 0.158156
vt 0.080294 0.080294
vt 0.158156 0.028269
vt 0.250000 0.010000
vt 0.341844 0.028269
vt 0.419706 0.080294
vt 0.471731 0.158156
vt 0.490000 0.250000
vt 0.471731 0.341844
vt 0.419706 0.419706
vt 0.062500 1.000000
vt 0.062500 0.500000
vt 0.000000 1.000000
vt 0.000000 0.500000
vt 0.750000 0.490000
vt 0.841844 0.471731
vt 0.919706 0.419706
vt 0.971731 0.341844
vt 0.990000 0.250000
vt 0.971731 0.158156
vt 0.919706 0.080294
vt 0.841844 0.028269
vt 0.750000 0.010000
vt 0.658156 0.028269
vt 0.580294 0.080294
vt 0.528269 0.158156
vt 0.510000 0.250000
vt 0.528269 0.341844
vt 0.580294 0.419706
vt 0.658156 0.471731
s 0
usemtl Skel_Bone
f 321/631/199 322/632/199 324/633/199 323/634/199
f 323/634/200 324/633/200 326/635/200 325/636/200
f 325/636/201 326/635/201 328/637/201 327/638/201
f 327/638/202 328/637/202 330/639/202 329/640/202
f 329/640/203 330/639/203 332/641/203 331/642/203
f 331/642/204 332/641/204 334/643/204 333/644/204
f 333/644/205 334/643/205 336/645/205 335/646/205
f 335/646/206 336/645/206 338/647/206 337/648/206
f 337/648/207 338/647/207 340/649/207 339/650/207
f 339/650/208 340/649/208 342/651/208 341/652/208
f 341/652/209 342/651/209 344/653/209 343/654/209
f 343/654/210 344/653/210 346/655/210 345/656/210
f 345/656/211 346/655/211 348/657/211 347/658/211
f 347/658/212 348/657/212 350/659/212 349/660/212
f 324/661/213 322/662/213 352/663/213 350/664/213 348/665/213 346/666/213 344/667/213 342/668/213 340/669/213 338/670/213 336/671/213 334/672/213 332/673/213 330/674/213 328/675/213 326/676/213
f 349/660/214 350/659/214 352/677/214 351/678/214
f 351/678/215 352/677/215 322/679/215 321/680/215
f 321/681/216 323/682/216 325/683/216 327/684/216 329/685/216 331/686/216 333/687/216 335/688/216 337/689/216 339/690/216 341/691/216 343/692/216 345/693/216 347/694/216 349/695/216 351/696/216
o Foot_R
v 0.080000 -0.630000 -0.040000
v 0.080000 -0.630000 0.140000
v 0.080000 -0.570000 -0.040000
v 0.080000 -0.570000 0.140000
v 0.160000 -0.630000 -0.040000
v 0.160000 -0.630000 0.140000
v 0.160000 -0.570000 -0.040000
v 0.160000 -0.570000 0.140000
vn -1.0000 -0.0000 -0.0000
vn -0.0000 1.0000 -0.0000
vn 1.0000 -0.0000 -0.0000
vn -0.0000 -1.0000 -0.0000
vn -0.0000 -0.0000 -1.0000
vn -0.0000 -0.0000 1.0000
vt 0.375000 0.000000
vt 0.625000 0.000000
vt 0.625000 0.250000
vt 0.375000 0.250000
vt 0.625000 0.500000
vt 0.375000 0.500000
vt 0.625000 0.750000
vt 0.375000 0.750000
vt 0.625000 1.000000
vt 0.375000 1.000000
vt 0.125000 0.500000
vt 0.125000 0.750000
vt 0.875000 0.500000
vt 0.875000 0.750000
s 0
usemtl Skel_Bone
f 353/697/217 354/698/217 356/699/217 355/700/217
f 355/700/218 356/699/218 360/701/218 359/702/218
f 359/702/219 360/701/219 358/703/219 357/704/219
f 357/704/220 358/703/220 354/705/220 353/706/220
f 355/707/221 359/702/221 357/704/221 353/708/221
f 360/701/222 356/709/222 354/710/222 358/703/222
