# Blender 5.2.1 LTS
# www.blender.org
mtllib thrown_door.mtl
o Cube
v -1.050000 -1.900000 0.080000
v -1.050000 1.900000 0.080000
v -1.050000 -1.900000 -0.080000
v -1.050000 1.900000 -0.080000
v -0.050000 -1.900000 0.080000
v -0.050000 1.900000 0.080000
v -0.050000 -1.900000 -0.080000
v -0.050000 1.900000 -0.080000
vn -1.0000 -0.0000 -0.0000
vn -0.0000 -0.0000 -1.0000
vn 1.0000 -0.0000 -0.0000
vn -0.0000 -0.0000 1.0000
vn -0.0000 -1.0000 -0.0000
vn -0.0000 1.0000 -0.0000
vt 0.375000 0.000000
vt 0.625000 0.000000
vt 0.625000 0.250000
vt 0.375000 0.250000
vt 0.625000 0.500000
vt 0.375000 0.500000
vt 0.625000 0.750000
vt 0.375000 0.750000
vt 0.625000 1.000000
vt 0.375000 1.000000
vt 0.125000 0.500000
vt 0.125000 0.750000
vt 0.875000 0.500000
vt 0.875000 0.750000
s 0
usemtl Thrown_Wood
f 1/1/1 2/2/1 4/3/1 3/4/1
f 3/4/2 4/3/2 8/5/2 7/6/2
f 7/6/3 8/5/3 6/7/3 5/8/3
f 5/8/4 6/7/4 2/9/4 1/10/4
f 3/11/5 7/6/5 5/8/5 1/12/5
f 8/5/6 4/13/6 2/14/6 6/7/6
o Cube.001
v 0.050000 -1.900000 0.080000
v 0.050000 1.900000 0.080000
v 0.050000 -1.900000 -0.080000
v 0.050000 1.900000 -0.080000
v 1.050000 -1.900000 0.080000
v 1.050000 1.900000 0.080000
v 1.050000 -1.900000 -0.080000
v 1.050000 1.900000 -0.080000
vn -1.0000 -0.0000 -0.0000
vn -0.0000 -0.0000 -1.0000
vn 1.0000 -0.0000 -0.0000
vn -0.0000 -0.0000 1.0000
vn -0.0000 -1.0000 -0.0000
vn -0.0000 1.0000 -0.0000
vt 0.375000 0.000000
vt 0.625000 0.000000
vt 0.625000 0.250000
vt 0.375000 0.250000
vt 0.625000 0.500000
vt 0.375000 0.500000
vt 0.625000 0.750000
vt 0.375000 0.750000
vt 0.625000 1.000000
vt 0.375000 1.000000
vt 0.125000 0.500000
vt 0.125000 0.750000
vt 0.875000 0.500000
vt 0.875000 0.750000
s 0
usemtl Thrown_Wood
f 9/15/7 10/16/7 12/17/7 11/18/7
f 11/18/8 12/17/8 16/19/8 15/20/8
f 15/20/9 16/19/9 14/21/9 13/22/9
f 13/22/10 14/21/10 10/23/10 9/24/10
f 11/25/11 15/20/11 13/22/11 9/26/11
f 16/19/12 12/27/12 10/28/12 14/21/12
o Cube.002
v -1.100000 -2.000000 0.110000
v -1.100000 2.000000 0.110000
v -1.100000 -2.000000 -0.110000
v -1.100000 2.000000 -0.110000
v 1.100000 -2.000000 0.110000
v 1.100000 2.000000 0.110000
v 1.100000 -2.000000 -0.110000
v 1.100000 2.000000 -0.110000
vn -1.0000 -0.0000 -0.0000
vn -0.0000 -0.0000 -1.0000
vn 1.0000 -0.0000 -0.0000
vn -0.0000 -0.0000 1.0000
vn -0.0000 -1.0000 -0.0000
vn -0.0000 1.0000 -0.0000
vt 0.375000 0.000000
vt 0.625000 0.000000
vt 0.625000 0.250000
vt 0.375000 0.250000
vt 0.625000 0.500000
vt 0.375000 0.500000
vt 0.625000 0.750000
vt 0.375000 0.750000
vt 0.625000 1.000000
vt 0.375000 1.000000
vt 0.125000 0.500000
vt 0.125000 0.750000
vt 0.875000 0.500000
vt 0.875000 0.750000
s 0
usemtl Thrown_Iron
f 17/29/13 18/30/13 20/31/13 19/32/13
f 19/32/14 20/31/14 24/33/14 23/34/14
f 23/34/15 24/33/15 22/35/15 21/36/15
f 21/36/16 22/35/16 18/37/16 17/38/16
f 19/39/17 23/34/17 21/36/17 17/40/17
f 24/33/18 20/41/18 18/42/18 22/35/18
o Cylinder
v -0.385000 -0.200000 0.110000
v 0.065000 -0.200000 0.110000
v -0.385000 -0.209755 0.110961
v 0.065000 -0.209755 0.110961
v -0.385000 -0.219134 0.113806
v 0.065000 -0.219134 0.113806
v -0.385000 -0.227779 0.118427
v 0.065000 -0.227779 0.118427
v -0.385000 -0.235355 0.124645
v 0.065000 -0.235355 0.124645
v -0.385000 -0.241573 0.132221
v 0.065000 -0.241573 0.132221
v -0.385000 -0.246194 0.140866
v 0.065000 -0.246194 0.140866
v -0.385000 -0.249039 0.150245
v 0.065000 -0.249039 0.150245
v -0.385000 -0.250000 0.160000
v 0.065000 -0.250000 0.160000
v -0.385000 -0.249039 0.169755
v 0.065000 -0.249039 0.169755
v -0.385000 -0.246194 0.179134
v 0.065000 -0.246194 0.179134
v -0.385000 -0.241573 0.187779
v 0.065000 -0.241573 0.187779
v -0.385000 -0.235355 0.195355
v 0.065000 -0.235355 0.195355
v -0.385000 -0.227779 0.201573
v 0.065000 -0.227779 0.201573
v -0.385000 -0.219134 0.206194
v 0.065000 -0.219134 0.206194
v -0.385000 -0.209755 0.209039
v 0.065000 -0.209755 0.209039
v -0.385000 -0.200000 0.210000
v 0.065000 -0.200000 0.210000
v -0.385000 -0.190245 0.209039
v 0.065000 -0.190245 0.209039
v -0.385000 -0.180866 0.206194
v 0.065000 -0.180866 0.206194
v -0.385000 -0.172221 0.201573
v 0.065000 -0.172221 0.201573
v -0.385000 -0.164645 0.195355
v 0.065000 -0.164645 0.195355
v -0.385000 -0.158427 0.187779
v 0.065000 -0.158427 0.187779
v -0.385000 -0.153806 0.179134
v 0.065000 -0.153806 0.179134
v -0.385000 -0.150961 0.169755
v 0.065000 -0.150961 0.169755
v -0.385000 -0.150000 0.160000
v 0.065000 -0.150000 0.160000
v -0.385000 -0.150961 0.150245
v 0.065000 -0.150961 0.150245
v -0.385000 -0.153806 0.140866
v 0.065000 -0.153806 0.140866
v -0.385000 -0.158427 0.132221
v 0.065000 -0.158427 0.132221
v -0.385000 -0.164645 0.124645
v 0.065000 -0.164645 0.124645
v -0.385000 -0.172221 0.118427
v 0.065000 -0.172221 0.118427
v -0.385000 -0.180866 0.113806
v 0.065000 -0.180866 0.113806
v -0.385000 -0.190245 0.110961
v 0.065000 -0.190245 0.110961
vn -0.0000 -0.0980 -0.9952
vn -0.0000 -0.2903 -0.9569
vn -0.0000 -0.4714 -0.8819
vn -0.0000 -0.6344 -0.7730
vn -0.0000 -0.7730 -0.6344
vn -0.0000 -0.8819 -0.4714
vn -0.0000 -0.9569 -0.2903
vn -0.0000 -0.9952 -0.0980
vn -0.0000 -0.9952 0.0980
vn -0.0000 -0.9569 0.2903
vn -0.0000 -0.8819 0.4714
vn -0.0000 -0.7730 0.6344
vn -0.0000 -0.6344 0.7730
vn -0.0000 -0.4714 0.8819
vn -0.0000 -0.2903 0.9569
vn -0.0000 -0.0980 0.9952
vn -0.0000 0.0980 0.9952
vn -0.0000 0.2903 0.9569
vn -0.0000 0.4714 0.8819
vn -0.0000 0.6344 0.7730
vn -0.0000 0.7730 0.6344
vn -0.0000 0.8819 0.4714
vn -0.0000 0.9569 0.2903
vn -0.0000 0.9952 0.0980
vn -0.0000 0.9952 -0.0980
vn -0.0000 0.9569 -0.2903
vn -0.0000 0.8819 -0.4714
vn -0.0000 0.7730 -0.6344
vn -0.0000 0.6344 -0.7730
vn -0.0000 0.4714 -0.8819
vn 1.0000 -0.0000 -0.0000
vn -0.0000 0.2903 -0.9569
vn -0.0000 0.0980 -0.9952
vn -1.0000 -0.0000 -0.0000
vt 1.000000 0.500000
vt 1.000000 1.000000
vt 0.968750 1.000000
vt 0.968750 0.500000
vt 0.937500 1.000000
vt 0.937500 0.500000
vt 0.906250 1.000000
vt 0.906250 0.500000
vt 0.875000 1.000000
vt 0.875000 0.500000
vt 0.843750 1.000000
vt 0.843750 0.500000
vt 0.812500 1.000000
vt 0.812500 0.500000
vt 0.781250 1.000000
vt 0.781250 0.500000
vt 0.750000 1.000000
vt 0.750000 0.500000
vt 0.718750 1.000000
vt 0.718750 0.500000
vt 0.687500 1.000000
vt 0.687500 0.500000
vt 0.656250 1.000000
vt 0.656250 0.500000
vt 0.625000 1.000000
vt 0.625000 0.500000
vt 0.593750 1.000000
vt 0.593750 0.500000
vt 0.562500 1.000000
vt 0.562500 0.500000
vt 0.531250 1.000000
vt 0.531250 0.500000
vt 0.500000 1.000000
vt 0.500000 0.500000
vt 0.468750 1.000000
vt 0.468750 0.500000
vt 0.437500 1.000000
vt 0.437500 0.500000
vt 0.406250 1.000000
vt 0.406250 0.500000
vt 0.375000 1.000000
vt 0.375000 0.500000
vt 0.343750 1.000000
vt 0.343750 0.500000
vt 0.312500 1.000000
vt 0.312500 0.500000
vt 0.281250 1.000000
vt 0.281250 0.500000
vt 0.250000 1.000000
vt 0.250000 0.500000
vt 0.218750 1.000000
vt 0.218750 0.500000
vt 0.187500 1.000000
vt 0.187500 0.500000
vt 0.156250 1.000000
vt 0.156250 0.500000
vt 0.125000 1.000000
vt 0.125000 0.500000
vt 0.093750 1.000000
vt 0.093750 0.500000
vt 0.062500 1.000000
vt 0.062500 0.500000
vt 0.296822 0.485388
vt 0.250000 0.490000
vt 0.203178 0.485388
vt 0.158156 0.471731
vt 0.116663 0.449553
vt 0.080294 0.419706
vt 0.050447 0.383337
vt 0.028269 0.341844
vt 0.014612 0.296822
vt 0.010000 0.250000
vt 0.014612 0.203178
vt 0.028269 0.158156
vt 0.050447 0.116663
vt 0.080294 0.080294
vt 0.116663 0.050447
vt 0.158156 0.028269
vt 0.203178 0.014612
vt 0.250000 0.010000
vt 0.296822 0.014612
vt 0.341844 0.028269
vt 0.383337 0.050447
vt 0.419706 0.080294
vt 0.449553 0.116663
vt 0.471731 0.158156
vt 0.485388 0.203178
vt 0.490000 0.250000
vt 0.485388 0.296822
vt 0.471731 0.341844
vt 0.449553 0.383337
vt 0.419706 0.419706
vt 0.383337 0.449553
vt 0.341844 0.471731
vt 0.031250 1.000000
vt 0.031250 0.500000
vt 0.000000 1.000000
vt 0.000000 0.500000
vt 0.750000 0.490000
vt 0.796822 0.485388
vt 0.841844 0.471731
vt 0.883337 0.449553
vt 0.919706 0.419706
vt 0.949553 0.383337
vt 0.971731 0.341844
vt 0.985388 0.296822
vt 0.990000 0.250000
vt 0.985388 0.203178
vt 0.971731 0.158156
vt 0.949553 0.116663
vt 0.919706 0.080294
vt 0.883337 0.050447
vt 0.841844 0.028269
vt 0.796822 0.014612
vt 0.750000 0.010000
vt 0.703178 0.014612
vt 0.658156 0.028269
vt 0.616663 0.050447
vt 0.580294 0.080294
vt 0.550447 0.116663
vt 0.528269 0.158156
vt 0.514612 0.203178
vt 0.510000 0.250000
vt 0.514612 0.296822
vt 0.528269 0.341844
vt 0.550447 0.383337
vt 0.580294 0.419706
vt 0.616663 0.449553
vt 0.658156 0.471731
vt 0.703178 0.485388
s 0
usemtl Thrown_Brass
f 25/43/19 26/44/19 28/45/19 27/46/19
f 27/46/20 28/45/20 30/47/20 29/48/20
f 29/48/21 30/47/21 32/49/21 31/50/21
f 31/50/22 32/49/22 34/51/22 33/52/22
f 33/52/23 34/51/23 36/53/23 35/54/23
f 35/54/24 36/53/24 38/55/24 37/56/24
f 37/56/25 38/55/25 40/57/25 39/58/25
f 39/58/26 40/57/26 42/59/26 41/60/26
f 41/60/27 42/59/27 44/61/27 43/62/27
f 43/62/28 44/61/28 46/63/28 45/64/28
f 45/64/29 46/63/29 48/65/29 47/66/29
f 47/66/30 48/65/30 50/67/30 49/68/30
f 49/68/31 50/67/31 52/69/31 51/70/31
f 51/70/32 52/69/32 54/71/32 53/72/32
f 53/72/33 54/71/33 56/73/33 55/74/33
f 55/74/34 56/73/34 58/75/34 57/76/34
f 57/76/35 58/75/35 60/77/35 59/78/35
f 59/78/36 60/77/36 62/79/36 61/80/36
f 61/80/37 62/79/37 64/81/37 63/82/37
f 63/82/38 64/81/38 66/83/38 65/84/38
f 65/84/39 66/83/39 68/85/39 67/86/39
f 67/86/40 68/85/40 70/87/40 69/88/40
f 69/88/41 70/87/41 72/89/41 71/90/41
f 71/90/42 72/89/42 74/91/42 73/92/42
f 73/92/43 74/91/43 76/93/43 75/94/43
f 75/94/44 76/93/44 78/95/44 77/96/44
f 77/96/45 78/95/45 80/97/45 79/98/45
f 79/98/46 80/97/46 82/99/46 81/100/46
f 81/100/47 82/99/47 84/101/47 83/102/47
f 83/102/48 84/101/48 86/103/48 85/104/48
f 28/105/49 26/106/49 88/107/49 86/108/49 84/109/49 82/110/49 80/111/49 78/112/49 76/113/49 74/114/49 72/115/49 70/116/49 68/117/49 66/118/49 64/119/49 62/120/49 60/121/49 58/122/49 56/123/49 54/124/49 52/125/49 50/126/49 48/127/49 46/128/49 44/129/49 42/130/49 40/131/49 38/132/49 36/133/49 34/134/49 32/135/49 30/136/49
f 85/104/50 86/103/50 88/137/50 87/138/50
f 87/138/51 88/137/51 26/139/51 25/140/51
f 25/141/52 27/142/52 29/143/52 31/144/52 33/145/52 35/146/52 37/147/52 39/148/52 41/149/52 43/150/52 45/151/52 47/152/52 49/153/52 51/154/52 53/155/52 55/156/52 57/157/52 59/158/52 61/159/52 63/160/52 65/161/52 67/162/52 69/163/52 71/164/52 73/165/52 75/166/52 77/167/52 79/168/52 81/169/52 83/170/52 85/171/52 87/172/52
o Cylinder.001
v -0.065000 -0.200000 0.110000
v 0.385000 -0.200000 0.110000
v -0.065000 -0.209755 0.110961
v 0.385000 -0.209755 0.110961
v -0.065000 -0.219134 0.113806
v 0.385000 -0.219134 0.113806
v -0.065000 -0.227779 0.118427
v 0.385000 -0.227779 0.118427
v -0.065000 -0.235355 0.124645
v 0.385000 -0.235355 0.124645
v -0.065000 -0.241573 0.132221
v 0.385000 -0.241573 0.132221
v -0.065000 -0.246194 0.140866
v 0.385000 -0.246194 0.140866
v -0.065000 -0.249039 0.150245
v 0.385000 -0.249039 0.150245
v -0.065000 -0.250000 0.160000
v 0.385000 -0.250000 0.160000
v -0.065000 -0.249039 0.169755
v 0.385000 -0.249039 0.169755
v -0.065000 -0.246194 0.179134
v 0.385000 -0.246194 0.179134
v -0.065000 -0.241573 0.187779
v 0.385000 -0.241573 0.187779
v -0.065000 -0.235355 0.195355
v 0.385000 -0.235355 0.195355
v -0.065000 -0.227779 0.201573
v 0.385000 -0.227779 0.201573
v -0.065000 -0.219134 0.206194
v 0.385000 -0.219134 0.206194
v -0.065000 -0.209755 0.209039
v 0.385000 -0.209755 0.209039
v -0.065000 -0.200000 0.210000
v 0.385000 -0.200000 0.210000
v -0.065000 -0.190245 0.209039
v 0.385000 -0.190245 0.209039
v -0.065000 -0.180866 0.206194
v 0.385000 -0.180866 0.206194
v -0.065000 -0.172221 0.201573
v 0.385000 -0.172221 0.201573
v -0.065000 -0.164645 0.195355
v 0.385000 -0.164645 0.195355
v -0.065000 -0.158427 0.187779
v 0.385000 -0.158427 0.187779
v -0.065000 -0.153806 0.179134
v 0.385000 -0.153806 0.179134
v -0.065000 -0.150961 0.169755
v 0.385000 -0.150961 0.169755
v -0.065000 -0.150000 0.160000
v 0.385000 -0.150000 0.160000
v -0.065000 -0.150961 0.150245
v 0.385000 -0.150961 0.150245
v -0.065000 -0.153806 0.140866
v 0.385000 -0.153806 0.140866
v -0.065000 -0.158427 0.132221
v 0.385000 -0.158427 0.132221
v -0.065000 -0.164645 0.124645
v 0.385000 -0.164645 0.124645
v -0.065000 -0.172221 0.118427
v 0.385000 -0.172221 0.118427
v -0.065000 -0.180866 0.113806
v 0.385000 -0.180866 0.113806
v -0.065000 -0.190245 0.110961
v 0.385000 -0.190245 0.110961
vn -0.0000 -0.0980 -0.9952
vn -0.0000 -0.2903 -0.9569
vn -0.0000 -0.4714 -0.8819
vn -0.0000 -0.6344 -0.7730
vn -0.0000 -0.7730 -0.6344
vn -0.0000 -0.8819 -0.4714
vn -0.0000 -0.9569 -0.2903
vn -0.0000 -0.9952 -0.0980
vn -0.0000 -0.9952 0.0980
vn -0.0000 -0.9569 0.2903
vn -0.0000 -0.8819 0.4714
vn -0.0000 -0.7730 0.6344
vn -0.0000 -0.6344 0.7730
vn -0.0000 -0.4714 0.8819
vn -0.0000 -0.2903 0.9569
vn -0.0000 -0.0980 0.9952
vn -0.0000 0.0980 0.9952
vn -0.0000 0.2903 0.9569
vn -0.0000 0.4714 0.8819
vn -0.0000 0.6344 0.7730
vn -0.0000 0.7730 0.6344
vn -0.0000 0.8819 0.4714
vn -0.0000 0.9569 0.2903
vn -0.0000 0.9952 0.0980
vn -0.0000 0.9952 -0.0980
vn -0.0000 0.9569 -0.2903
vn -0.0000 0.8819 -0.4714
vn -0.0000 0.7730 -0.6344
vn -0.0000 0.6344 -0.7730
vn -0.0000 0.4714 -0.8819
vn 1.0000 -0.0000 -0.0000
vn -0.0000 0.2903 -0.9569
vn -0.0000 0.0980 -0.9952
vn -1.0000 -0.0000 -0.0000
vt 1.000000 0.500000
vt 1.000000 1.000000
vt 0.968750 1.000000
vt 0.968750 0.500000
vt 0.937500 1.000000
vt 0.937500 0.500000
vt 0.906250 1.000000
vt 0.906250 0.500000
vt 0.875000 1.000000
vt 0.875000 0.500000
vt 0.843750 1.000000
vt 0.843750 0.500000
vt 0.812500 1.000000
vt 0.812500 0.500000
vt 0.781250 1.000000
vt 0.781250 0.500000
vt 0.750000 1.000000
vt 0.750000 0.500000
vt 0.718750 1.000000
vt 0.718750 0.500000
vt 0.687500 1.000000
vt 0.687500 0.500000
vt 0.656250 1.000000
vt 0.656250 0.500000
vt 0.625000 1.000000
vt 0.625000 0.500000
vt 0.593750 1.000000
vt 0.593750 0.500000
vt 0.562500 1.000000
vt 0.562500 0.500000
vt 0.531250 1.000000
vt 0.531250 0.500000
vt 0.500000 1.000000
vt 0.500000 0.500000
vt 0.468750 1.000000
vt 0.468750 0.500000
vt 0.437500 1.000000
vt 0.437500 0.500000
vt 0.406250 1.000000
vt 0.406250 0.500000
vt 0.375000 1.000000
vt 0.375000 0.500000
vt 0.343750 1.000000
vt 0.343750 0.500000
vt 0.312500 1.000000
vt 0.312500 0.500000
vt 0.281250 1.000000
vt 0.281250 0.500000
vt 0.250000 1.000000
vt 0.250000 0.500000
vt 0.218750 1.000000
vt 0.218750 0.500000
vt 0.187500 1.000000
vt 0.187500 0.500000
vt 0.156250 1.000000
vt 0.156250 0.500000
vt 0.125000 1.000000
vt 0.125000 0.500000
vt 0.093750 1.000000
vt 0.093750 0.500000
vt 0.062500 1.000000
vt 0.062500 0.500000
vt 0.296822 0.485388
vt 0.250000 0.490000
vt 0.203178 0.485388
vt 0.158156 0.471731
vt 0.116663 0.449553
vt 0.080294 0.419706
vt 0.050447 0.383337
vt 0.028269 0.341844
vt 0.014612 0.296822
vt 0.010000 0.250000
vt 0.014612 0.203178
vt 0.028269 0.158156
vt 0.050447 0.116663
vt 0.080294 0.080294
vt 0.116663 0.050447
vt 0.158156 0.028269
vt 0.203178 0.014612
vt 0.250000 0.010000
vt 0.296822 0.014612
vt 0.341844 0.028269
vt 0.383337 0.050447
vt 0.419706 0.080294
vt 0.449553 0.116663
vt 0.471731 0.158156
vt 0.485388 0.203178
vt 0.490000 0.250000
vt 0.485388 0.296822
vt 0.471731 0.341844
vt 0.449553 0.383337
vt 0.419706 0.419706
vt 0.383337 0.449553
vt 0.341844 0.471731
vt 0.031250 1.000000
vt 0.031250 0.500000
vt 0.000000 1.000000
vt 0.000000 0.500000
vt 0.750000 0.490000
vt 0.796822 0.485388
vt 0.841844 0.471731
vt 0.883337 0.449553
vt 0.919706 0.419706
vt 0.949553 0.383337
vt 0.971731 0.341844
vt 0.985388 0.296822
vt 0.990000 0.250000
vt 0.985388 0.203178
vt 0.971731 0.158156
vt 0.949553 0.116663
vt 0.919706 0.080294
vt 0.883337 0.050447
vt 0.841844 0.028269
vt 0.796822 0.014612
vt 0.750000 0.010000
vt 0.703178 0.014612
vt 0.658156 0.028269
vt 0.616663 0.050447
vt 0.580294 0.080294
vt 0.550447 0.116663
vt 0.528269 0.158156
vt 0.514612 0.203178
vt 0.510000 0.250000
vt 0.514612 0.296822
vt 0.528269 0.341844
vt 0.550447 0.383337
vt 0.580294 0.419706
vt 0.616663 0.449553
vt 0.658156 0.471731
vt 0.703178 0.485388
s 0
usemtl Thrown_Brass
f 89/173/53 90/174/53 92/175/53 91/176/53
f 91/176/54 92/175/54 94/177/54 93/178/54
f 93/178/55 94/177/55 96/179/55 95/180/55
f 95/180/56 96/179/56 98/181/56 97/182/56
f 97/182/57 98/181/57 100/183/57 99/184/57
f 99/184/58 100/183/58 102/185/58 101/186/58
f 101/186/59 102/185/59 104/187/59 103/188/59
f 103/188/60 104/187/60 106/189/60 105/190/60
f 105/190/61 106/189/61 108/191/61 107/192/61
f 107/192/62 108/191/62 110/193/62 109/194/62
f 109/194/63 110/193/63 112/195/63 111/196/63
f 111/196/64 112/195/64 114/197/64 113/198/64
f 113/198/65 114/197/65 116/199/65 115/200/65
f 115/200/66 116/199/66 118/201/66 117/202/66
f 117/202/67 118/201/67 120/203/67 119/204/67
f 119/204/68 120/203/68 122/205/68 121/206/68
f 121/206/69 122/205/69 124/207/69 123/208/69
f 123/208/70 124/207/70 126/209/70 125/210/70
f 125/210/71 126/209/71 128/211/71 127/212/71
f 127/212/72 128/211/72 130/213/72 129/214/72
f 129/214/73 130/213/73 132/215/73 131/216/73
f 131/216/74 132/215/74 134/217/74 133/218/74
f 133/218/75 134/217/75 136/219/75 135/220/75
f 135/220/76 136/219/76 138/221/76 137/222/76
f 137/222/77 138/221/77 140/223/77 139/224/77
f 139/224/78 140/223/78 142/225/78 141/226/78
f 141/226/79 142/225/79 144/227/79 143/228/79
f 143/228/80 144/227/80 146/229/80 145/230/80
f 145/230/81 146/229/81 148/231/81 147/232/81
f 147/232/82 148/231/82 150/233/82 149/234/82
f 92/235/83 90/236/83 152/237/83 150/238/83 148/239/83 146/240/83 144/241/83 142/242/83 140/243/83 138/244/83 136/245/83 134/246/83 132/247/83 130/248/83 128/249/83 126/250/83 124/251/83 122/252/83 120/253/83 118/254/83 116/255/83 114/256/83 112/257/83 110/258/83 108/259/83 106/260/83 104/261/83 102/262/83 100/263/83 98/264/83 96/265/83 94/266/83
f 149/234/84 150/233/84 152/267/84 151/268/84
f 151/268/85 152/267/85 90/269/85 89/270/85
f 89/271/86 91/272/86 93/273/86 95/274/86 97/275/86 99/276/86 101/277/86 103/278/86 105/279/86 107/280/86 109/281/86 111/282/86 113/283/86 115/284/86 117/285/86 119/286/86 121/287/86 123/288/86 125/289/86 127/290/86 129/291/86 131/292/86 133/293/86 135/294/86 137/295/86 139/296/86 141/297/86 143/298/86 145/299/86 147/300/86 149/301/86 151/302/86
o Torus
v 0.490000 0.500000 0.120000
v 0.484641 0.500000 0.140000
v 0.470000 0.500000 0.154641
v 0.450000 0.500000 0.160000
v 0.430000 0.500000 0.154641
v 0.415359 0.500000 0.140000
v 0.410000 0.500000 0.120000
v 0.415359 0.500000 0.100000
v 0.430000 0.500000 0.085359
v 0.450000 0.500000 0.080000
v 0.470000 0.500000 0.085359
v 0.484641 0.500000 0.100000
v 0.485808 0.563958 0.120000
v 0.480495 0.563258 0.140000
v 0.465979 0.561347 0.154641
v 0.446150 0.558737 0.160000
v 0.426321 0.556126 0.154641
v 0.411806 0.554215 0.140000
v 0.406492 0.553516 0.120000
v 0.411806 0.554215 0.100000
v 0.426321 0.556126 0.085359
v 0.446150 0.558737 0.080000
v 0.465979 0.561347 0.085359
v 0.480495 0.563258 0.100000
v 0.473304 0.626821 0.120000
v 0.468127 0.625434 0.140000
v 0.453985 0.621645 0.154641
v 0.434667 0.616469 0.160000
v 0.415348 0.611292 0.154641
v 0.401206 0.607503 0.140000
v 0.396030 0.606116 0.120000
v 0.401206 0.607503 0.100000
v 0.415348 0.611292 0.085359
v 0.434667 0.616469 0.080000
v 0.453985 0.621645 0.085359
v 0.468127 0.625434 0.100000
v 0.452701 0.687515 0.120000
v 0.447750 0.685464 0.140000
v 0.434223 0.679861 0.154641
v 0.415746 0.672207 0.160000
v 0.397268 0.664554 0.154641
v 0.383742 0.658951 0.140000
v 0.378791 0.656900 0.120000
v 0.383742 0.658951 0.100000
v 0.397268 0.664554 0.085359
v 0.415746 0.672207 0.080000
v 0.434223 0.679861 0.085359
v 0.447750 0.685464 0.100000
v 0.424352 0.745000 0.120000
v 0.419711 0.742321 0.140000
v 0.407032 0.735000 0.154641
v 0.389711 0.725000 0.160000
v 0.372391 0.715000 0.154641
v 0.359711 0.707680 0.140000
v 0.355070 0.705000 0.120000
v 0.359711 0.707680 0.100000
v 0.372391 0.715000 0.085359
v 0.389711 0.725000 0.080000
v 0.407032 0.735000 0.085359
v 0.419711 0.742321 0.100000
v 0.388743 0.798293 0.120000
v 0.384492 0.795031 0.140000
v 0.372876 0.786118 0.154641
v 0.357009 0.773943 0.160000
v 0.341142 0.761767 0.154641
v 0.329526 0.752854 0.140000
v 0.325275 0.749592 0.120000
v 0.329526 0.752854 0.100000
v 0.341142 0.761767 0.085359
v 0.357009 0.773943 0.080000
v 0.372876 0.786118 0.085359
v 0.384492 0.795031 0.100000
v 0.346482 0.846482 0.120000
v 0.342693 0.842693 0.140000
v 0.332340 0.832340 0.154641
v 0.318198 0.818198 0.160000
v 0.304056 0.804056 0.154641
v 0.293703 0.793703 0.140000
v 0.289914 0.789914 0.120000
v 0.293703 0.793703 0.100000
v 0.304056 0.804056 0.085359
v 0.318198 0.818198 0.080000
v 0.332340 0.832340 0.085359
v 0.342693 0.842693 0.100000
v 0.298293 0.888743 0.120000
v 0.295031 0.884492 0.140000
v 0.286118 0.872876 0.154641
v 0.273943 0.857009 0.160000
v 0.261767 0.841142 0.154641
v 0.252855 0.829526 0.140000
v 0.249592 0.825275 0.120000
v 0.252855 0.829526 0.100000
v 0.261767 0.841142 0.085359
v 0.273943 0.857009 0.080000
v 0.286118 0.872876 0.085359
v 0.295031 0.884492 0.100000
v 0.245000 0.924352 0.120000
v 0.242320 0.919711 0.140000
v 0.235000 0.907032 0.154641
v 0.225000 0.889711 0.160000
v 0.215000 0.872391 0.154641
v 0.207679 0.859711 0.140000
v 0.205000 0.855070 0.120000
v 0.207679 0.859711 0.100000
v 0.215000 0.872391 0.085359
v 0.225000 0.889711 0.080000
v 0.235000 0.907032 0.085359
v 0.242320 0.919711 0.100000
v 0.187515 0.952701 0.120000
v 0.185464 0.947750 0.140000
v 0.179861 0.934223 0.154641
v 0.172208 0.915746 0.160000
v 0.164554 0.897268 0.154641
v 0.158951 0.883742 0.140000
v 0.156900 0.878791 0.120000
v 0.158951 0.883742 0.100000
v 0.164554 0.897268 0.085359
v 0.172208 0.915746 0.080000
v 0.179861 0.934223 0.085359
v 0.185464 0.947750 0.100000
v 0.126821 0.973304 0.120000
v 0.125434 0.968127 0.140000
v 0.121645 0.953985 0.154641
v 0.116469 0.934667 0.160000
v 0.111292 0.915348 0.154641
v 0.107503 0.901206 0.140000
v 0.106116 0.896030 0.120000
v 0.107503 0.901206 0.100000
v 0.111292 0.915348 0.085359
v 0.116469 0.934667 0.080000
v 0.121645 0.953985 0.085359
v 0.125434 0.968127 0.100000
v 0.063958 0.985808 0.120000
v 0.063258 0.980495 0.140000
v 0.061347 0.965979 0.154641
v 0.058737 0.946150 0.160000
v 0.056126 0.926321 0.154641
v 0.054215 0.911806 0.140000
v 0.053516 0.906492 0.120000
v 0.054215 0.911806 0.100000
v 0.056126 0.926321 0.085359
v 0.058737 0.946150 0.080000
v 0.061347 0.965979 0.085359
v 0.063258 0.980495 0.100000
v 0.000000 0.990000 0.120000
v 0.000000 0.984641 0.140000
v 0.000000 0.970000 0.154641
v 0.000000 0.950000 0.160000
v 0.000000 0.930000 0.154641
v 0.000000 0.915359 0.140000
v 0.000000 0.910000 0.120000
v 0.000000 0.915359 0.100000
v 0.000000 0.930000 0.085359
v 0.000000 0.950000 0.080000
v 0.000000 0.970000 0.085359
v 0.000000 0.984641 0.100000
v -0.063958 0.985808 0.120000
v -0.063258 0.980495 0.140000
v -0.061347 0.965979 0.154641
v -0.058737 0.946150 0.160000
v -0.056126 0.926321 0.154641
v -0.054215 0.911806 0.140000
v -0.053516 0.906492 0.120000
v -0.054215 0.911806 0.100000
v -0.056126 0.926321 0.085359
v -0.058737 0.946150 0.080000
v -0.061347 0.965979 0.085359
v -0.063258 0.980495 0.100000
v -0.126821 0.973304 0.120000
v -0.125434 0.968127 0.140000
v -0.121645 0.953985 0.154641
v -0.116469 0.934667 0.160000
v -0.111292 0.915348 0.154641
v -0.107503 0.901206 0.140000
v -0.106116 0.896030 0.120000
v -0.107503 0.901206 0.100000
v -0.111292 0.915348 0.085359
v -0.116469 0.934667 0.080000
v -0.121645 0.953985 0.085359
v -0.125434 0.968127 0.100000
v -0.187515 0.952701 0.120000
v -0.185464 0.947750 0.140000
v -0.179861 0.934223 0.154641
v -0.172208 0.915746 0.160000
v -0.164554 0.897268 0.154641
v -0.158951 0.883742 0.140000
v -0.156900 0.878791 0.120000
v -0.158951 0.883742 0.100000
v -0.164554 0.897268 0.085359
v -0.172208 0.915746 0.080000
v -0.179861 0.934223 0.085359
v -0.185464 0.947750 0.100000
v -0.245000 0.924352 0.120000
v -0.242320 0.919711 0.140000
v -0.235000 0.907032 0.154641
v -0.225000 0.889711 0.160000
v -0.215000 0.872391 0.154641
v -0.207679 0.859711 0.140000
v -0.205000 0.855070 0.120000
v -0.207679 0.859711 0.100000
v -0.215000 0.872391 0.085359
v -0.225000 0.889711 0.080000
v -0.235000 0.907032 0.085359
v -0.242320 0.919711 0.100000
v -0.298293 0.888743 0.120000
v -0.295031 0.884492 0.140000
v -0.286118 0.872876 0.154641
v -0.273943 0.857009 0.160000
v -0.261767 0.841142 0.154641
v -0.252855 0.829526 0.140000
v -0.249592 0.825275 0.120000
v -0.252855 0.829526 0.100000
v -0.261767 0.841142 0.085359
v -0.273943 0.857009 0.080000
v -0.286118 0.872876 0.085359
v -0.295031 0.884492 0.100000
v -0.346482 0.846482 0.120000
v -0.342693 0.842693 0.140000
v -0.332340 0.832340 0.154641
v -0.318198 0.818198 0.160000
v -0.304056 0.804056 0.154641
v -0.293703 0.793703 0.140000
v -0.289914 0.789914 0.120000
v -0.293703 0.793703 0.100000
v -0.304056 0.804056 0.085359
v -0.318198 0.818198 0.080000
v -0.332340 0.832340 0.085359
v -0.342693 0.842693 0.100000
v -0.388743 0.798293 0.120000
v -0.384492 0.795031 0.140000
v -0.372876 0.786118 0.154641
v -0.357009 0.773943 0.160000
v -0.341142 0.761767 0.154641
v -0.329526 0.752855 0.140000
v -0.325275 0.749592 0.120000
v -0.329526 0.752855 0.100000
v -0.341142 0.761767 0.085359
v -0.357009 0.773943 0.080000
v -0.372876 0.786118 0.085359
v -0.384492 0.795031 0.100000
v -0.424352 0.745000 0.120000
v -0.419711 0.742321 0.140000
v -0.407032 0.735000 0.154641
v -0.389711 0.725000 0.160000
v -0.372391 0.715000 0.154641
v -0.359711 0.707680 0.140000
v -0.355070 0.705000 0.120000
v -0.359711 0.707680 0.100000
v -0.372391 0.715000 0.085359
v -0.389711 0.725000 0.080000
v -0.407032 0.735000 0.085359
v -0.419711 0.742321 0.100000
v -0.452701 0.687515 0.120000
v -0.447750 0.685464 0.140000
v -0.434223 0.679861 0.154641
v -0.415746 0.672208 0.160000
v -0.397268 0.664554 0.154641
v -0.383742 0.658951 0.140000
v -0.378791 0.656900 0.120000
v -0.383742 0.658951 0.100000
v -0.397268 0.664554 0.085359
v -0.415746 0.672208 0.080000
v -0.434223 0.679861 0.085359
v -0.447750 0.685464 0.100000
v -0.473304 0.626821 0.120000
v -0.468127 0.625434 0.140000
v -0.453985 0.621645 0.154641
v -0.434667 0.616468 0.160000
v -0.415348 0.611292 0.154641
v -0.401206 0.607503 0.140000
v -0.396030 0.606116 0.120000
v -0.401206 0.607503 0.100000
v -0.415348 0.611292 0.085359
v -0.434667 0.616468 0.080000
v -0.453985 0.621645 0.085359
v -0.468127 0.625434 0.100000
v -0.485808 0.563958 0.120000
v -0.480495 0.563258 0.140000
v -0.465979 0.561347 0.154641
v -0.446150 0.558737 0.160000
v -0.426321 0.556126 0.154641
v -0.411805 0.554215 0.140000
v -0.406492 0.553516 0.120000
v -0.411805 0.554215 0.100000
v -0.426321 0.556126 0.085359
v -0.446150 0.558737 0.080000
v -0.465979 0.561347 0.085359
v -0.480495 0.563258 0.100000
v -0.490000 0.500000 0.120000
v -0.484641 0.500000 0.140000
v -0.470000 0.500000 0.154641
v -0.450000 0.500000 0.160000
v -0.430000 0.500000 0.154641
v -0.415359 0.500000 0.140000
v -0.410000 0.500000 0.120000
v -0.415359 0.500000 0.100000
v -0.430000 0.500000 0.085359
v -0.450000 0.500000 0.080000
v -0.470000 0.500000 0.085359
v -0.484641 0.500000 0.100000
v -0.485808 0.436042 0.120000
v -0.480495 0.436742 0.140000
v -0.465979 0.438653 0.154641
v -0.446150 0.441263 0.160000
v -0.426321 0.443874 0.154641
v -0.411805 0.445785 0.140000
v -0.406492 0.446484 0.120000
v -0.411805 0.445785 0.100000
v -0.426321 0.443874 0.085359
v -0.446150 0.441263 0.080000
v -0.465979 0.438653 0.085359
v -0.480495 0.436742 0.100000
v -0.473304 0.373179 0.120000
v -0.468127 0.374566 0.140000
v -0.453985 0.378355 0.154641
v -0.434667 0.383531 0.160000
v -0.415348 0.388708 0.154641
v -0.401206 0.392497 0.140000
v -0.396030 0.393884 0.120000
v -0.401206 0.392497 0.100000
v -0.415348 0.388708 0.085359
v -0.434667 0.383531 0.080000
v -0.453985 0.378355 0.085359
v -0.468127 0.374566 0.100000
v -0.452701 0.312485 0.120000
v -0.447750 0.314536 0.140000
v -0.434223 0.320139 0.154641
v -0.415746 0.327793 0.160000
v -0.397268 0.335446 0.154641
v -0.383742 0.341049 0.140000
v -0.378791 0.343100 0.120000
v -0.383742 0.341049 0.100000
v -0.397268 0.335446 0.085359
v -0.415746 0.327793 0.080000
v -0.434223 0.320139 0.085359
v -0.447750 0.314536 0.100000
v -0.424352 0.255000 0.120000
v -0.419711 0.257680 0.140000
v -0.407032 0.265000 0.154641
v -0.389711 0.275000 0.160000
v -0.372391 0.285000 0.154641
v -0.359711 0.292321 0.140000
v -0.355070 0.295000 0.120000
v -0.359711 0.292321 0.100000
v -0.372391 0.285000 0.085359
v -0.389711 0.275000 0.080000
v -0.407032 0.265000 0.085359
v -0.419711 0.257680 0.100000
v -0.388743 0.201707 0.120000
v -0.384492 0.204969 0.140000
v -0.372876 0.213882 0.154641
v -0.357009 0.226057 0.160000
v -0.341142 0.238233 0.154641
v -0.329526 0.247145 0.140000
v -0.325275 0.250408 0.120000
v -0.329526 0.247145 0.100000
v -0.341142 0.238233 0.085359
v -0.357009 0.226057 0.080000
v -0.372876 0.213882 0.085359
v -0.384492 0.204969 0.100000
v -0.346482 0.153518 0.120000
v -0.342693 0.157307 0.140000
v -0.332340 0.167660 0.154641
v -0.318198 0.181802 0.160000
v -0.304056 0.195944 0.154641
v -0.293703 0.206297 0.140000
v -0.289914 0.210086 0.120000
v -0.293703 0.206297 0.100000
v -0.304056 0.195944 0.085359
v -0.318198 0.181802 0.080000
v -0.332340 0.167660 0.085359
v -0.342693 0.157307 0.100000
v -0.298293 0.111257 0.120000
v -0.295031 0.115509 0.140000
v -0.286118 0.127124 0.154641
v -0.273943 0.142991 0.160000
v -0.261768 0.158858 0.154641
v -0.252855 0.170474 0.140000
v -0.249592 0.174725 0.120000
v -0.252855 0.170474 0.100000
v -0.261768 0.158858 0.085359
v -0.273943 0.142991 0.080000
v -0.286118 0.127124 0.085359
v -0.295031 0.115509 0.100000
v -0.245000 0.075648 0.120000
v -0.242320 0.080289 0.140000
v -0.235000 0.092968 0.154641
v -0.225000 0.110289 0.160000
v -0.215000 0.127609 0.154641
v -0.207679 0.140289 0.140000
v -0.205000 0.144930 0.120000
v -0.207679 0.140289 0.100000
v -0.215000 0.127609 0.085359
v -0.225000 0.110289 0.080000
v -0.235000 0.092968 0.085359
v -0.242320 0.080289 0.100000
v -0.187515 0.047299 0.120000
v -0.185464 0.052250 0.140000
v -0.179861 0.065777 0.154641
v -0.172208 0.084254 0.160000
v -0.164554 0.102732 0.154641
v -0.158951 0.116258 0.140000
v -0.156900 0.121209 0.120000
v -0.158951 0.116258 0.100000
v -0.164554 0.102732 0.085359
v -0.172208 0.084254 0.080000
v -0.179861 0.065777 0.085359
v -0.185464 0.052250 0.100000
v -0.126821 0.026696 0.120000
v -0.125434 0.031873 0.140000
v -0.121645 0.046015 0.154641
v -0.116469 0.065333 0.160000
v -0.111292 0.084652 0.154641
v -0.107503 0.098794 0.140000
v -0.106116 0.103970 0.120000
v -0.107503 0.098794 0.100000
v -0.111292 0.084652 0.085359
v -0.116469 0.065333 0.080000
v -0.121645 0.046015 0.085359
v -0.125434 0.031873 0.100000
v -0.063958 0.014192 0.120000
v -0.063259 0.019505 0.140000
v -0.061348 0.034021 0.154641
v -0.058737 0.053850 0.160000
v -0.056127 0.073679 0.154641
v -0.054215 0.088195 0.140000
v -0.053516 0.093508 0.120000
v -0.054215 0.088195 0.100000
v -0.056127 0.073679 0.085359
v -0.058737 0.053850 0.080000
v -0.061348 0.034021 0.085359
v -0.063259 0.019505 0.100000
v 0.000000 0.010000 0.120000
v 0.000000 0.015359 0.140000
v 0.000000 0.030000 0.154641
v 0.000000 0.050000 0.160000
v 0.000000 0.070000 0.154641
v 0.000000 0.084641 0.140000
v 0.000000 0.090000 0.120000
v 0.000000 0.084641 0.100000
v 0.000000 0.070000 0.085359
v 0.000000 0.050000 0.080000
v 0.000000 0.030000 0.085359
v 0.000000 0.015359 0.100000
v 0.063958 0.014192 0.120000
v 0.063258 0.019505 0.140000
v 0.061347 0.034021 0.154641
v 0.058737 0.053850 0.160000
v 0.056126 0.073679 0.154641
v 0.054215 0.088194 0.140000
v 0.053516 0.093508 0.120000
v 0.054215 0.088194 0.100000
v 0.056126 0.073679 0.085359
v 0.058737 0.053850 0.080000
v 0.061347 0.034021 0.085359
v 0.063258 0.019505 0.100000
v 0.126821 0.026696 0.120000
v 0.125434 0.031873 0.140000
v 0.121645 0.046015 0.154641
v 0.116468 0.065333 0.160000
v 0.111292 0.084652 0.154641
v 0.107503 0.098794 0.140000
v 0.106116 0.103970 0.120000
v 0.107503 0.098794 0.100000
v 0.111292 0.084652 0.085359
v 0.116468 0.065333 0.080000
v 0.121645 0.046015 0.085359
v 0.125434 0.031873 0.100000
v 0.187515 0.047299 0.120000
v 0.185464 0.052250 0.140000
v 0.179861 0.065777 0.154641
v 0.172208 0.084254 0.160000
v 0.164554 0.102732 0.154641
v 0.158951 0.116258 0.140000
v 0.156900 0.121209 0.120000
v 0.158951 0.116258 0.100000
v 0.164554 0.102732 0.085359
v 0.172208 0.084254 0.080000
v 0.179861 0.065777 0.085359
v 0.185464 0.052250 0.100000
v 0.245000 0.075648 0.120000
v 0.242320 0.080289 0.140000
v 0.235000 0.092968 0.154641
v 0.225000 0.110289 0.160000
v 0.215000 0.127609 0.154641
v 0.207679 0.140289 0.140000
v 0.205000 0.144930 0.120000
v 0.207679 0.140289 0.100000
v 0.215000 0.127609 0.085359
v 0.225000 0.110289 0.080000
v 0.235000 0.092968 0.085359
v 0.242320 0.080289 0.100000
v 0.298293 0.111257 0.120000
v 0.295031 0.115508 0.140000
v 0.286118 0.127124 0.154641
v 0.273943 0.142991 0.160000
v 0.261767 0.158858 0.154641
v 0.252854 0.170474 0.140000
v 0.249592 0.174725 0.120000
v 0.252854 0.170474 0.100000
v 0.261767 0.158858 0.085359
v 0.273943 0.142991 0.080000
v 0.286118 0.127124 0.085359
v 0.295031 0.115508 0.100000
v 0.346482 0.153517 0.120000
v 0.342693 0.157307 0.140000
v 0.332340 0.167660 0.154641
v 0.318198 0.181802 0.160000
v 0.304056 0.195944 0.154641
v 0.293703 0.206297 0.140000
v 0.289914 0.210086 0.120000
v 0.293703 0.206297 0.100000
v 0.304056 0.195944 0.085359
v 0.318198 0.181802 0.080000
v 0.332340 0.167660 0.085359
v 0.342693 0.157307 0.100000
v 0.388743 0.201707 0.120000
v 0.384492 0.204969 0.140000
v 0.372876 0.213882 0.154641
v 0.357009 0.226057 0.160000
v 0.341142 0.238233 0.154641
v 0.329526 0.247146 0.140000
v 0.325275 0.250408 0.120000
v 0.329526 0.247146 0.100000
v 0.341142 0.238233 0.085359
v 0.357009 0.226057 0.080000
v 0.372876 0.213882 0.085359
v 0.384492 0.204969 0.100000
v 0.424352 0.255000 0.120000
v 0.419711 0.257679 0.140000
v 0.407032 0.265000 0.154641
v 0.389711 0.275000 0.160000
v 0.372391 0.285000 0.154641
v 0.359711 0.292320 0.140000
v 0.355070 0.295000 0.120000
v 0.359711 0.292320 0.100000
v 0.372391 0.285000 0.085359
v 0.389711 0.275000 0.080000
v 0.407032 0.265000 0.085359
v 0.419711 0.257679 0.100000
v 0.452701 0.312485 0.120000
v 0.447750 0.314536 0.140000
v 0.434223 0.320139 0.154641
v 0.415746 0.327792 0.160000
v 0.397268 0.335446 0.154641
v 0.383742 0.341049 0.140000
v 0.378791 0.343100 0.120000
v 0.383742 0.341049 0.100000
v 0.397268 0.335446 0.085359
v 0.415746 0.327792 0.080000
v 0.434223 0.320139 0.085359
v 0.447750 0.314536 0.100000
v 0.473304 0.373179 0.120000
v 0.468127 0.374566 0.140000
v 0.453985 0.378355 0.154641
v 0.434667 0.383532 0.160000
v 0.415348 0.388708 0.154641
v 0.401206 0.392497 0.140000
v 0.396030 0.393884 0.120000
v 0.401206 0.392497 0.100000
v 0.415348 0.388708 0.085359
v 0.434667 0.383532 0.080000
v 0.453985 0.378355 0.085359
v 0.468127 0.374566 0.100000
v 0.485808 0.436042 0.120000
v 0.480495 0.436742 0.140000
v 0.465979 0.438653 0.154641
v 0.446150 0.441263 0.160000
v 0.426321 0.443874 0.154641
v 0.411806 0.445785 0.140000
v 0.406492 0.446484 0.120000
v 0.411806 0.445785 0.100000
v 0.426321 0.443874 0.085359
v 0.446150 0.441263 0.080000
v 0.465979 0.438653 0.085359
v 0.480495 0.436742 0.100000
vn 0.9640 0.0632 0.2583
vn 0.7063 0.0463 0.7063
vn 0.2588 0.0170 0.9658
vn -0.2588 -0.0170 0.9658
vn -0.7063 -0.0463 0.7063
vn -0.9640 -0.0632 0.2583
vn -0.9640 -0.0632 -0.2583
vn -0.7063 -0.0463 -0.7063
vn -0.2588 -0.0170 -0.9658
vn 0.2588 0.0170 -0.9658
vn 0.7063 0.0463 -0.7063
vn 0.9640 0.0632 -0.2583
vn 0.9475 0.1885 0.2583
vn 0.6943 0.1381 0.7063
vn 0.2544 0.0506 0.9658
vn -0.2544 -0.0506 0.9658
vn -0.6943 -0.1381 0.7063
vn -0.9475 -0.1885 0.2583
vn -0.9475 -0.1885 -0.2583
vn -0.6943 -0.1381 -0.7063
vn -0.2544 -0.0506 -0.9658
vn 0.2544 0.0506 -0.9658
vn 0.6943 0.1381 -0.7063
vn 0.9475 0.1885 -0.2583
vn 0.9148 0.3105 0.2583
vn 0.6703 0.2275 0.7063
vn 0.2456 0.0834 0.9658
vn -0.2456 -0.0834 0.9658
vn -0.6703 -0.2275 0.7063
vn -0.9148 -0.3105 0.2583
vn -0.9148 -0.3105 -0.2583
vn -0.6703 -0.2275 -0.7063
vn -0.2456 -0.0834 -0.9658
vn 0.2456 0.0834 -0.9658
vn 0.6703 0.2275 -0.7063
vn 0.9148 0.3105 -0.2583
vn 0.8664 0.4273 0.2583
vn 0.6349 0.3131 0.7063
vn 0.2326 0.1147 0.9658
vn -0.2326 -0.1147 0.9658
vn -0.6349 -0.3131 0.7063
vn -0.8664 -0.4273 0.2583
vn -0.8664 -0.4273 -0.2583
vn -0.6349 -0.3131 -0.7063
vn -0.2326 -0.1147 -0.9658
vn 0.2326 0.1147 -0.9658
vn 0.6349 0.3131 -0.7063
vn 0.8664 0.4273 -0.2583
vn 0.8033 0.5367 0.2583
vn 0.5886 0.3933 0.7063
vn 0.2156 0.1441 0.9658
vn -0.2156 -0.1441 0.9658
vn -0.5886 -0.3933 0.7063
vn -0.8033 -0.5367 0.2583
vn -0.8033 -0.5367 -0.2583
vn -0.5886 -0.3933 -0.7063
vn -0.2156 -0.1441 -0.9658
vn 0.2156 0.1441 -0.9658
vn 0.5886 0.3933 -0.7063
vn 0.8033 0.5367 -0.2583
vn 0.7263 0.6370 0.2583
vn 0.5322 0.4667 0.7063
vn 0.1950 0.1710 0.9658
vn -0.1950 -0.1710 0.9658
vn -0.5322 -0.4667 0.7063
vn -0.7263 -0.6370 0.2583
vn -0.7263 -0.6370 -0.2583
vn -0.5322 -0.4667 -0.7063
vn -0.1950 -0.1710 -0.9658
vn 0.1950 0.1710 -0.9658
vn 0.5322 0.4667 -0.7063
vn 0.7263 0.6370 -0.2583
vn 0.6370 0.7263 0.2583
vn 0.4667 0.5322 0.7063
vn 0.1710 0.1950 0.9658
vn -0.1710 -0.1950 0.9658
vn -0.4667 -0.5322 0.7063
vn -0.6370 -0.7263 0.2583
vn -0.6370 -0.7263 -0.2583
vn -0.4667 -0.5322 -0.7063
vn -0.1710 -0.1950 -0.9658
vn 0.1710 0.1950 -0.9658
vn 0.4667 0.5322 -0.7063
vn 0.6370 0.7263 -0.2583
vn 0.5367 0.8033 0.2583
vn 0.3933 0.5886 0.7063
vn 0.1441 0.2156 0.9658
vn -0.1441 -0.2156 0.9658
vn -0.3933 -0.5886 0.7063
vn -0.5367 -0.8033 0.2583
vn -0.5367 -0.8033 -0.2583
vn -0.3933 -0.5886 -0.7063
vn -0.1441 -0.2156 -0.9658
vn 0.1441 0.2156 -0.9658
vn 0.3933 0.5886 -0.7063
vn 0.5367 0.8033 -0.2583
vn 0.4273 0.8664 0.2583
vn 0.3131 0.6349 0.7063
vn 0.1147 0.2326 0.9658
vn -0.1147 -0.2326 0.9658
vn -0.3131 -0.6349 0.7063
vn -0.4273 -0.8664 0.2583
vn -0.4273 -0.8664 -0.2583
vn -0.3131 -0.6349 -0.7063
vn -0.1147 -0.2326 -0.9658
vn 0.1147 0.2326 -0.9658
vn 0.3131 0.6349 -0.7063
vn 0.4273 0.8664 -0.2583
vn 0.3105 0.9148 0.2583
vn 0.2275 0.6703 0.7063
vn 0.0834 0.2456 0.9658
vn -0.0834 -0.2456 0.9658
vn -0.2275 -0.6703 0.7063
vn -0.3105 -0.9148 0.2583
vn -0.3105 -0.9148 -0.2583
vn -0.2275 -0.6703 -0.7063
vn -0.0834 -0.2456 -0.9658
vn 0.0834 0.2456 -0.9658
vn 0.2275 0.6703 -0.7063
vn 0.3105 0.9148 -0.2583
vn 0.1885 0.9475 0.2583
vn 0.1381 0.6943 0.7063
vn 0.0506 0.2544 0.9658
vn -0.0506 -0.2544 0.9658
vn -0.1381 -0.6943 0.7063
vn -0.1885 -0.9475 0.2583
vn -0.1885 -0.9475 -0.2583
vn -0.1381 -0.6943 -0.7063
vn -0.0506 -0.2544 -0.9658
vn 0.0506 0.2544 -0.9658
vn 0.1381 0.6943 -0.7063
vn 0.1885 0.9475 -0.2583
vn 0.0632 0.9640 0.2583
vn 0.0463 0.7063 0.7063
vn 0.0170 0.2588 0.9658
vn -0.0170 -0.2588 0.9658
vn -0.0463 -0.7064 0.7063
vn -0.0632 -0.9640 0.2583
vn -0.0632 -0.9640 -0.2583
vn -0.0463 -0.7063 -0.7063
vn -0.0170 -0.2588 -0.9658
vn 0.0170 0.2588 -0.9658
vn 0.0463 0.7063 -0.7063
vn 0.0632 0.9640 -0.2583
vn -0.0632 0.9640 0.2583
vn -0.0463 0.7063 0.7063
vn -0.0170 0.2588 0.9658
vn 0.0170 -0.2588 0.9658
vn 0.0463 -0.7063 0.7063
vn 0.0632 -0.9640 0.2583
vn 0.0632 -0.9640 -0.2583
vn 0.0463 -0.7063 -0.7063
vn 0.0170 -0.2588 -0.9658
vn -0.0170 0.2588 -0.9658
vn -0.0463 0.7063 -0.7063
vn -0.0632 0.9640 -0.2583
vn -0.1885 0.9475 0.2583
vn -0.1381 0.6943 0.7063
vn -0.0506 0.2544 0.9658
vn 0.0506 -0.2544 0.9658
vn 0.1381 -0.6943 0.7063
vn 0.1885 -0.9475 0.2583
vn 0.1885 -0.9475 -0.2583
vn 0.1381 -0.6943 -0.7063
vn 0.0506 -0.2544 -0.9658
vn -0.0506 0.2544 -0.9658
vn -0.1381 0.6943 -0.7063
vn -0.1885 0.9475 -0.2583
vn -0.3105 0.9148 0.2583
vn -0.2275 0.6703 0.7063
vn -0.0834 0.2456 0.9658
vn 0.0834 -0.2456 0.9658
vn 0.2275 -0.6703 0.7063
vn 0.3105 -0.9148 0.2583
vn 0.3105 -0.9148 -0.2583
vn 0.2275 -0.6703 -0.7063
vn 0.0834 -0.2456 -0.9658
vn -0.0834 0.2456 -0.9658
vn -0.2275 0.6703 -0.7063
vn -0.3105 0.9148 -0.2583
vn -0.4273 0.8664 0.2583
vn -0.3131 0.6349 0.7063
vn -0.1147 0.2326 0.9658
vn 0.1147 -0.2326 0.9658
vn 0.3131 -0.6349 0.7063
vn 0.4273 -0.8664 0.2583
vn 0.4273 -0.8664 -0.2583
vn 0.3131 -0.6349 -0.7063
vn 0.1147 -0.2326 -0.9658
vn -0.1147 0.2326 -0.9658
vn -0.3131 0.6349 -0.7063
vn -0.4273 0.8664 -0.2583
vn -0.5367 0.8033 0.2583
vn -0.3933 0.5886 0.7063
vn -0.1441 0.2156 0.9658
vn 0.1441 -0.2156 0.9658
vn 0.3933 -0.5886 0.7063
vn 0.5367 -0.8033 0.2583
vn 0.5367 -0.8033 -0.2583
vn 0.3933 -0.5886 -0.7063
vn 0.1441 -0.2156 -0.9658
vn -0.1441 0.2156 -0.9658
vn -0.3933 0.5886 -0.7063
vn -0.5367 0.8033 -0.2583
vn -0.6370 0.7263 0.2583
vn -0.4667 0.5322 0.7063
vn -0.1710 0.1950 0.9658
vn 0.1710 -0.1950 0.9658
vn 0.4667 -0.5322 0.7063
vn 0.6370 -0.7263 0.2583
vn 0.6370 -0.7263 -0.2583
vn 0.4667 -0.5322 -0.7063
vn 0.1710 -0.1950 -0.9658
vn -0.1710 0.1950 -0.9658
vn -0.4667 0.5322 -0.7063
vn -0.6370 0.7263 -0.2583
vn -0.7263 0.6370 0.2583
vn -0.5322 0.4667 0.7063
vn -0.1950 0.1710 0.9658
vn 0.1950 -0.1710 0.9658
vn 0.5322 -0.4667 0.7063
vn 0.7263 -0.6370 0.2583
vn 0.7263 -0.6370 -0.2583
vn 0.5322 -0.4667 -0.7063
vn 0.1950 -0.1710 -0.9658
vn -0.1950 0.1710 -0.9658
vn -0.5322 0.4667 -0.7063
vn -0.7263 0.6370 -0.2583
vn -0.8033 0.5367 0.2583
vn -0.5886 0.3933 0.7063
vn -0.2156 0.1441 0.9658
vn 0.2156 -0.1441 0.9658
vn 0.5886 -0.3933 0.7063
vn 0.8033 -0.5367 0.2583
vn 0.8033 -0.5367 -0.2583
vn 0.5886 -0.3933 -0.7063
vn 0.2156 -0.1441 -0.9658
vn -0.2156 0.1441 -0.9658
vn -0.5886 0.3933 -0.7063
vn -0.8033 0.5367 -0.2583
vn -0.8664 0.4273 0.2583
vn -0.6349 0.3131 0.7063
vn -0.2326 0.1147 0.9658
vn 0.2326 -0.1147 0.9658
vn 0.6349 -0.3131 0.7063
vn 0.8664 -0.4273 0.2583
vn 0.8664 -0.4273 -0.2583
vn 0.6349 -0.3131 -0.7063
vn 0.2326 -0.1147 -0.9658
vn -0.2326 0.1147 -0.9658
vn -0.6349 0.3131 -0.7063
vn -0.8664 0.4273 -0.2583
vn -0.9148 0.3105 0.2583
vn -0.6703 0.2275 0.7063
vn -0.2456 0.0834 0.9658
vn 0.2456 -0.0834 0.9658
vn 0.6703 -0.2275 0.7063
vn 0.9148 -0.3105 0.2583
vn 0.9148 -0.3105 -0.2583
vn 0.6703 -0.2275 -0.7063
vn 0.2456 -0.0834 -0.9658
vn -0.2456 0.0834 -0.9658
vn -0.6703 0.2275 -0.7063
vn -0.9148 0.3105 -0.2583
vn -0.9475 0.1885 0.2583
vn -0.6943 0.1381 0.7063
vn -0.2544 0.0506 0.9658
vn 0.2544 -0.0506 0.9658
vn 0.6943 -0.1381 0.7063
vn 0.9475 -0.1885 0.2583
vn 0.9475 -0.1885 -0.2583
vn 0.6943 -0.1381 -0.7063
vn 0.2544 -0.0506 -0.9658
vn -0.2544 0.0506 -0.9658
vn -0.6943 0.1381 -0.7063
vn -0.9475 0.1885 -0.2583
vn -0.9640 0.0632 0.2583
vn -0.7063 0.0463 0.7063
vn -0.2588 0.0170 0.9658
vn 0.2588 -0.0170 0.9658
vn 0.7063 -0.0463 0.7063
vn 0.9640 -0.0632 0.2583
vn 0.9640 -0.0632 -0.2583
vn 0.7063 -0.0463 -0.7063
vn 0.2588 -0.0170 -0.9658
vn -0.2588 0.0170 -0.9658
vn -0.7063 0.0463 -0.7063
vn -0.9640 0.0632 -0.2583
vn -0.0463 -0.7063 0.7063
vn -0.0463 0.7064 -0.7063
vt 0.500000 0.500000
vt 0.520833 0.500000
vt 0.520833 0.583333
vt 0.500000 0.583333
vt 0.520833 0.666667
vt 0.500000 0.666667
vt 0.520833 0.750000
vt 0.500000 0.750000
vt 0.520833 0.833333
vt 0.500000 0.833333
vt 0.520833 0.916667
vt 0.500000 0.916667
vt 0.520833 1.000000
vt 0.500000 1.000000
vt 0.500000 0.000000
vt 0.520833 0.000000
vt 0.520833 0.083333
vt 0.500000 0.083333
vt 0.520833 0.166667
vt 0.500000 0.166667
vt 0.520833 0.250000
vt 0.500000 0.250000
vt 0.520833 0.333333
vt 0.500000 0.333333
vt 0.520833 0.416667
vt 0.500000 0.416667
vt 0.541667 0.500000
vt 0.541667 0.583333
vt 0.541667 0.666667
vt 0.541667 0.750000
vt 0.541667 0.833333
vt 0.541667 0.916667
vt 0.541667 1.000000
vt 0.541667 0.000000
vt 0.541667 0.083333
vt 0.541667 0.166667
vt 0.541667 0.250000
vt 0.541667 0.333333
vt 0.541667 0.416667
vt 0.562500 0.500000
vt 0.562500 0.583333
vt 0.562500 0.666667
vt 0.562500 0.750000
vt 0.562500 0.833333
vt 0.562500 0.916667
vt 0.562500 1.000000
vt 0.562500 0.000000
vt 0.562500 0.083333
vt 0.562500 0.166667
vt 0.562500 0.250000
vt 0.562500 0.333333
vt 0.562500 0.416667
vt 0.583333 0.500000
vt 0.583333 0.583333
vt 0.583333 0.666667
vt 0.583333 0.750000
vt 0.583333 0.833333
vt 0.583333 0.916667
vt 0.583333 1.000000
vt 0.583333 0.000000
vt 0.583333 0.083333
vt 0.583333 0.166667
vt 0.583333 0.250000
vt 0.583333 0.333333
vt 0.583333 0.416667
vt 0.604167 0.500000
vt 0.604167 0.583333
vt 0.604167 0.666667
vt 0.604167 0.750000
vt 0.604167 0.833333
vt 0.604167 0.916667
vt 0.604167 1.000000
vt 0.604167 0.000000
vt 0.604167 0.083333
vt 0.604167 0.166667
vt 0.604167 0.250000
vt 0.604167 0.333333
vt 0.604167 0.416667
vt 0.625000 0.500000
vt 0.625000 0.583333
vt 0.625000 0.666667
vt 0.625000 0.750000
vt 0.625000 0.833333
vt 0.625000 0.916667
vt 0.625000 1.000000
vt 0.625000 0.000000
vt 0.625000 0.083333
vt 0.625000 0.166667
vt 0.625000 0.250000
vt 0.625000 0.333333
vt 0.625000 0.416667
vt 0.645833 0.500000
vt 0.645833 0.583333
vt 0.645833 0.666667
vt 0.645833 0.750000
vt 0.645833 0.833333
vt 0.645833 0.916667
vt 0.645833 1.000000
vt 0.645833 0.000000
vt 0.645833 0.083333
vt 0.645833 0.166667
vt 0.645833 0.250000
vt 0.645833 0.333333
vt 0.645833 0.416667
vt 0.666667 0.500000
vt 0.666667 0.583333
vt 0.666667 0.666667
vt 0.666667 0.750000
vt 0.666667 0.833333
vt 0.666667 0.916667
vt 0.666667 1.000000
vt 0.666667 0.000000
vt 0.666667 0.083333
vt 0.666667 0.166667
vt 0.666667 0.250000
vt 0.666667 0.333333
vt 0.666667 0.416667
vt 0.687500 0.500000
vt 0.687500 0.583333
vt 0.687500 0.666667
vt 0.687500 0.750000
vt 0.687500 0.833333
vt 0.687500 0.916667
vt 0.687500 1.000000
vt 0.687500 0.000000
vt 0.687500 0.083333
vt 0.687500 0.166667
vt 0.687500 0.250000
vt 0.687500 0.333333
vt 0.687500 0.416667
vt 0.708333 0.500000
vt 0.708333 0.583333
vt 0.708333 0.666667
vt 0.708333 0.750000
vt 0.708333 0.833333
vt 0.708333 0.916667
vt 0.708333 1.000000
vt 0.708333 0.000000
vt 0.708333 0.083333
vt 0.708333 0.166667
vt 0.708333 0.250000
vt 0.708333 0.333333
vt 0.708333 0.416667
vt 0.729167 0.500000
vt 0.729167 0.583333
vt 0.729167 0.666667
vt 0.729167 0.750000
vt 0.729167 0.833333
vt 0.729167 0.916667
vt 0.729167 1.000000
vt 0.729167 0.000000
vt 0.729167 0.083333
vt 0.729167 0.166667
vt 0.729167 0.250000
vt 0.729167 0.333333
vt 0.729167 0.416667
vt 0.750000 0.500000
vt 0.750000 0.583333
vt 0.750000 0.666667
vt 0.750000 0.750000
vt 0.750000 0.833333
vt 0.750000 0.916667
vt 0.750000 1.000000
vt 0.750000 0.000000
vt 0.750000 0.083333
vt 0.750000 0.166667
vt 0.750000 0.250000
vt 0.750000 0.333333
vt 0.750000 0.416667
vt 0.770833 0.500000
vt 0.770833 0.583333
vt 0.770833 0.666667
vt 0.770833 0.750000
vt 0.770833 0.833333
vt 0.770833 0.916667
vt 0.770833 1.000000
vt 0.770833 0.000000
vt 0.770833 0.083333
vt 0.770833 0.166667
vt 0.770833 0.250000
vt 0.770833 0.333333
vt 0.770833 0.416667
vt 0.791667 0.500000
vt 0.791667 0.583333
vt 0.791667 0.666667
vt 0.791667 0.750000
vt 0.791667 0.833333
vt 0.791667 0.916667
vt 0.791667 1.000000
vt 0.791667 0.000000
vt 0.791667 0.083333
vt 0.791667 0.166667
vt 0.791667 0.250000
vt 0.791667 0.333333
vt 0.791667 0.416667
vt 0.812500 0.500000
vt 0.812500 0.583333
vt 0.812500 0.666667
vt 0.812500 0.750000
vt 0.812500 0.833333
vt 0.812500 0.916667
vt 0.812500 1.000000
vt 0.812500 0.000000
vt 0.812500 0.083333
vt 0.812500 0.166667
vt 0.812500 0.250000
vt 0.812500 0.333333
vt 0.812500 0.416667
vt 0.833333 0.500000
vt 0.833333 0.583333
vt 0.833333 0.666667
vt 0.833333 0.750000
vt 0.833333 0.833333
vt 0.833333 0.916667
vt 0.833333 1.000000
vt 0.833333 0.000000
vt 0.833333 0.083333
vt 0.833333 0.166667
vt 0.833333 0.250000
vt 0.833333 0.333333
vt 0.833333 0.416667
vt 0.854167 0.500000
vt 0.854167 0.583333
vt 0.854167 0.666667
vt 0.854167 0.750000
vt 0.854167 0.833333
vt 0.854167 0.916667
vt 0.854167 1.000000
vt 0.854167 0.000000
vt 0.854167 0.083333
vt 0.854167 0.166667
vt 0.854167 0.250000
vt 0.854167 0.333333
vt 0.854167 0.416667
vt 0.875000 0.500000
vt 0.875000 0.583333
vt 0.875000 0.666667
vt 0.875000 0.750000
vt 0.875000 0.833333
vt 0.875000 0.916667
vt 0.875000 1.000000
vt 0.875000 0.000000
vt 0.875000 0.083333
vt 0.875000 0.166667
vt 0.875000 0.250000
vt 0.875000 0.333333
vt 0.875000 0.416667
vt 0.895833 0.500000
vt 0.895833 0.583333
vt 0.895833 0.666667
vt 0.895833 0.750000
vt 0.895833 0.833333
vt 0.895833 0.916667
vt 0.895833 1.000000
vt 0.895833 0.000000
vt 0.895833 0.083333
vt 0.895833 0.166667
vt 0.895833 0.250000
vt 0.895833 0.333333
vt 0.895833 0.416667
vt 0.916667 0.500000
vt 0.916667 0.583333
vt 0.916667 0.666667
vt 0.916667 0.750000
vt 0.916667 0.833333
vt 0.916667 0.916667
vt 0.916667 1.000000
vt 0.916667 0.000000
vt 0.916667 0.083333
vt 0.916667 0.166667
vt 0.916667 0.250000
vt 0.916667 0.333333
vt 0.916667 0.416667
vt 0.937500 0.500000
vt 0.937500 0.583333
vt 0.937500 0.666667
vt 0.937500 0.750000
vt 0.937500 0.833333
vt 0.937500 0.916667
vt 0.937500 1.000000
vt 0.937500 0.000000
vt 0.937500 0.083333
vt 0.937500 0.166667
vt 0.937500 0.250000
vt 0.937500 0.333333
vt 0.937500 0.416667
vt 0.958333 0.500000
vt 0.958333 0.583333
vt 0.958333 0.666667
vt 0.958333 0.750000
vt 0.958333 0.833333
vt 0.958333 0.916667
vt 0.958333 1.000000
vt 0.958333 0.000000
vt 0.958333 0.083333
vt 0.958333 0.166667
vt 0.958333 0.250000
vt 0.958333 0.333333
vt 0.958333 0.416667
vt 0.979167 0.500000
vt 0.979167 0.583333
vt 0.979167 0.666667
vt 0.979167 0.750000
vt 0.979167 0.833333
vt 0.979167 0.916667
vt 0.979167 1.000000
vt 0.979167 0.000000
vt 0.979167 0.083333
vt 0.979167 0.166667
vt 0.979167 0.250000
vt 0.979167 0.333333
vt 0.979167 0.416667
vt 1.000000 0.500000
vt 1.000000 0.583333
vt 1.000000 0.666667
vt 1.000000 0.750000
vt 1.000000 0.833333
vt 1.000000 0.916667
vt 1.000000 1.000000
vt 1.000000 0.000000
vt 1.000000 0.083333
vt 1.000000 0.166667
vt 1.000000 0.250000
vt 1.000000 0.333333
vt 1.000000 0.416667
vt 0.000000 0.500000
vt 0.020833 0.500000
vt 0.020833 0.583333
vt 0.000000 0.583333
vt 0.020833 0.666667
vt 0.000000 0.666667
vt 0.020833 0.750000
vt 0.000000 0.750000
vt 0.020833 0.833333
vt 0.000000 0.833333
vt 0.020833 0.916667
vt 0.000000 0.916667
vt 0.020833 1.000000
vt 0.000000 1.000000
vt 0.000000 0.000000
vt 0.020833 0.000000
vt 0.020833 0.083333
vt 0.000000 0.083333
vt 0.020833 0.166667
vt 0.000000 0.166667
vt 0.020833 0.250000
vt 0.000000 0.250000
vt 0.020833 0.333333
vt 0.000000 0.333333
vt 0.020833 0.416667
vt 0.000000 0.416667
vt 0.041667 0.500000
vt 0.041667 0.583333
vt 0.041667 0.666667
vt 0.041667 0.750000
vt 0.041667 0.833333
vt 0.041667 0.916667
vt 0.041667 1.000000
vt 0.041667 0.000000
vt 0.041667 0.083333
vt 0.041667 0.166667
vt 0.041667 0.250000
vt 0.041667 0.333333
vt 0.041667 0.416667
vt 0.062500 0.500000
vt 0.062500 0.583333
vt 0.062500 0.666667
vt 0.062500 0.750000
vt 0.062500 0.833333
vt 0.062500 0.916667
vt 0.062500 1.000000
vt 0.062500 0.000000
vt 0.062500 0.083333
vt 0.062500 0.166667
vt 0.062500 0.250000
vt 0.062500 0.333333
vt 0.062500 0.416667
vt 0.083333 0.500000
vt 0.083333 0.583333
vt 0.083333 0.666667
vt 0.083333 0.750000
vt 0.083333 0.833333
vt 0.083333 0.916667
vt 0.083333 1.000000
vt 0.083333 0.000000
vt 0.083333 0.083333
vt 0.083333 0.166667
vt 0.083333 0.250000
vt 0.083333 0.333333
vt 0.083333 0.416667
vt 0.104167 0.500000
vt 0.104167 0.583333
vt 0.104167 0.666667
vt 0.104167 0.750000
vt 0.104167 0.833333
vt 0.104167 0.916667
vt 0.104167 1.000000
vt 0.104167 0.000000
vt 0.104167 0.083333
vt 0.104167 0.166667
vt 0.104167 0.250000
vt 0.104167 0.333333
vt 0.104167 0.416667
vt 0.125000 0.500000
vt 0.125000 0.583333
vt 0.125000 0.666667
vt 0.125000 0.750000
vt 0.125000 0.833333
vt 0.125000 0.916667
vt 0.125000 1.000000
vt 0.125000 0.000000
vt 0.125000 0.083333
vt 0.125000 0.166667
vt 0.125000 0.250000
vt 0.125000 0.333333
vt 0.125000 0.416667
vt 0.145833 0.500000
vt 0.145833 0.583333
vt 0.145833 0.666667
vt 0.145833 0.750000
vt 0.145833 0.833333
vt 0.145833 0.916667
vt 0.145833 1.000000
vt 0.145833 0.000000
vt 0.145833 0.083333
vt 0.145833 0.166667
vt 0.145833 0.250000
vt 0.145833 0.333333
vt 0.145833 0.416667
vt 0.166667 0.500000
vt 0.166667 0.583333
vt 0.166667 0.666667
vt 0.166667 0.750000
vt 0.166667 0.833333
vt 0.166667 0.916667
vt 0.166667 1.000000
vt 0.166667 0.000000
vt 0.166667 0.083333
vt 0.166667 0.166667
vt 0.166667 0.250000
vt 0.166667 0.333333
vt 0.166667 0.416667
vt 0.187500 0.500000
vt 0.187500 0.583333
vt 0.187500 0.666667
vt 0.187500 0.750000
vt 0.187500 0.833333
vt 0.187500 0.916667
vt 0.187500 1.000000
vt 0.187500 0.000000
vt 0.187500 0.083333
vt 0.187500 0.166667
vt 0.187500 0.250000
vt 0.187500 0.333333
vt 0.187500 0.416667
vt 0.208333 0.500000
vt 0.208333 0.583333
vt 0.208333 0.666667
vt 0.208333 0.750000
vt 0.208333 0.833333
vt 0.208333 0.916667
vt 0.208333 1.000000
vt 0.208333 0.000000
vt 0.208333 0.083333
vt 0.208333 0.166667
vt 0.208333 0.250000
vt 0.208333 0.333333
vt 0.208333 0.416667
vt 0.229167 0.500000
vt 0.229167 0.583333
vt 0.229167 0.666667
vt 0.229167 0.750000
vt 0.229167 0.833333
vt 0.229167 0.916667
vt 0.229167 1.000000
vt 0.229167 0.000000
vt 0.229167 0.083333
vt 0.229167 0.166667
vt 0.229167 0.250000
vt 0.229167 0.333333
vt 0.229167 0.416667
vt 0.250000 0.500000
vt 0.250000 0.583333
vt 0.250000 0.666667
vt 0.250000 0.750000
vt 0.250000 0.833333
vt 0.250000 0.916667
vt 0.250000 1.000000
vt 0.250000 0.000000
vt 0.250000 0.083333
vt 0.250000 0.166667
vt 0.250000 0.250000
vt 0.250000 0.333333
vt 0.250000 0.416667
vt 0.270833 0.500000
vt 0.270833 0.583333
vt 0.270833 0.666667
vt 0.270833 0.750000
vt 0.270833 0.833333
vt 0.270833 0.916667
vt 0.270833 1.000000
vt 0.270833 0.000000
vt 0.270833 0.083333
vt 0.270833 0.166667
vt 0.270833 0.250000
vt 0.270833 0.333333
vt 0.270833 0.416667
vt 0.291667 0.500000
vt 0.291667 0.583333
vt 0.291667 0.666667
vt 0.291667 0.750000
vt 0.291667 0.833333
vt 0.291667 0.916667
vt 0.291667 1.000000
vt 0.291667 0.000000
vt 0.291667 0.083333
vt 0.291667 0.166667
vt 0.291667 0.250000
vt 0.291667 0.333333
vt 0.291667 0.416667
vt 0.312500 0.500000
vt 0.312500 0.583333
vt 0.312500 0.666667
vt 0.312500 0.750000
vt 0.312500 0.833333
vt 0.312500 0.916667
vt 0.312500 1.000000
vt 0.312500 0.000000
vt 0.312500 0.083333
vt 0.312500 0.166667
vt 0.312500 0.250000
vt 0.312500 0.333333
vt 0.312500 0.416667
vt 0.333333 0.500000
vt 0.333333 0.583333
vt 0.333333 0.666667
vt 0.333333 0.750000
vt 0.333333 0.833333
vt 0.333333 0.916667
vt 0.333333 1.000000
vt 0.333333 0.000000
vt 0.333333 0.083333
vt 0.333333 0.166667
vt 0.333333 0.250000
vt 0.333333 0.333333
vt 0.333333 0.416667
vt 0.354167 0.500000
vt 0.354167 0.583333
vt 0.354167 0.666667
vt 0.354167 0.750000
vt 0.354167 0.833333
vt 0.354167 0.916667
vt 0.354167 1.000000
vt 0.354167 0.000000
vt 0.354167 0.083333
vt 0.354167 0.166667
vt 0.354167 0.250000
vt 0.354167 0.333333
vt 0.354167 0.416667
vt 0.375000 0.500000
vt 0.375000 0.583333
vt 0.375000 0.666667
vt 0.375000 0.750000
vt 0.375000 0.833333
vt 0.375000 0.916667
vt 0.375000 1.000000
vt 0.375000 0.000000
vt 0.375000 0.083333
vt 0.375000 0.166667
vt 0.375000 0.250000
vt 0.375000 0.333333
vt 0.375000 0.416667
vt 0.395833 0.500000
vt 0.395833 0.583333
vt 0.395833 0.666667
vt 0.395833 0.750000
vt 0.395833 0.833333
vt 0.395833 0.916667
vt 0.395833 1.000000
vt 0.395833 0.000000
vt 0.395833 0.083333
vt 0.395833 0.166667
vt 0.395833 0.250000
vt 0.395833 0.333333
vt 0.395833 0.416667
vt 0.416667 0.500000
vt 0.416667 0.583333
vt 0.416667 0.666667
vt 0.416667 0.750000
vt 0.416667 0.833333
vt 0.416667 0.916667
vt 0.416667 1.000000
vt 0.416667 0.000000
vt 0.416667 0.083333
vt 0.416667 0.166667
vt 0.416667 0.250000
vt 0.416667 0.333333
vt 0.416667 0.416667
vt 0.437500 0.500000
vt 0.437500 0.583333
vt 0.437500 0.666667
vt 0.437500 0.750000
vt 0.437500 0.833333
vt 0.437500 0.916667
vt 0.437500 1.000000
vt 0.437500 0.000000
vt 0.437500 0.083333
vt 0.437500 0.166667
vt 0.437500 0.250000
vt 0.437500 0.333333
vt 0.437500 0.416667
vt 0.458333 0.500000
vt 0.458333 0.583333
vt 0.458333 0.666667
vt 0.458333 0.750000
vt 0.458333 0.833333
vt 0.458333 0.916667
vt 0.458333 1.000000
vt 0.458333 0.000000
vt 0.458333 0.083333
vt 0.458333 0.166667
vt 0.458333 0.250000
vt 0.458333 0.333333
vt 0.458333 0.416667
vt 0.479167 0.500000
vt 0.479167 0.583333
vt 0.479167 0.666667
vt 0.479167 0.750000
vt 0.479167 0.833333
vt 0.479167 0.916667
vt 0.479167 1.000000
vt 0.479167 0.000000
vt 0.479167 0.083333
vt 0.479167 0.166667
vt 0.479167 0.250000
vt 0.479167 0.333333
vt 0.479167 0.416667
s 0
usemtl Thrown_RuneGlow
f 153/303/87 165/304/87 166/305/87 154/306/87
f 154/306/88 166/305/88 167/307/88 155/308/88
f 155/308/89 167/307/89 168/309/89 156/310/89
f 156/310/90 168/309/90 169/311/90 157/312/90
f 157/312/91 169/311/91 170/313/91 158/314/91
f 158/314/92 170/313/92 171/315/92 159/316/92
f 159/317/93 171/318/93 172/319/93 160/320/93
f 160/320/94 172/319/94 173/321/94 161/322/94
f 161/322/95 173/321/95 174/323/95 162/324/95
f 162/324/96 174/323/96 175/325/96 163/326/96
f 163/326/97 175/325/97 176/327/97 164/328/97
f 164/328/98 176/327/98 165/304/98 153/303/98
f 165/304/99 177/329/99 178/330/99 166/305/99
f 166/305/100 178/330/100 179/331/100 167/307/100
f 167/307/101 179/331/101 180/332/101 168/309/101
f 168/309/102 180/332/102 181/333/102 169/311/102
f 169/311/103 181/333/103 182/334/103 170/313/103
f 170/313/104 182/334/104 183/335/104 171/315/104
f 171/318/105 183/336/105 184/337/105 172/319/105
f 172/319/106 184/337/106 185/338/106 173/321/106
f 173/321/107 185/338/107 186/339/107 174/323/107
f 174/323/108 186/339/108 187/340/108 175/325/108
f 175/325/109 187/340/109 188/341/109 176/327/109
f 176/327/110 188/341/110 177/329/110 165/304/110
f 177/329/111 189/342/111 190/343/111 178/330/111
f 178/330/112 190/343/112 191/344/112 179/331/112
f 179/331/113 191/344/113 192/345/113 180/332/113
f 180/332/114 192/345/114 193/346/114 181/333/114
f 181/333/115 193/346/115 194/347/115 182/334/115
f 182/334/116 194/347/116 195/348/116 183/335/116
f 183/336/117 195/349/117 196/350/117 184/337/117
f 184/337/118 196/350/118 197/351/118 185/338/118
f 185/338/119 197/351/119 198/352/119 186/339/119
f 186/339/120 198/352/120 199/353/120 187/340/120
f 187/340/121 199/353/121 200/354/121 188/341/121
f 188/341/122 200/354/122 189/342/122 177/329/122
f 189/342/123 201/355/123 202/356/123 190/343/123
f 190/343/124 202/356/124 203/357/124 191/344/124
f 191/344/125 203/357/125 204/358/125 192/345/125
f 192/345/126 204/358/126 205/359/126 193/346/126
f 193/346/127 205/359/127 206/360/127 194/347/127
f 194/347/128 206/360/128 207/361/128 195/348/128
f 195/349/129 207/362/129 208/363/129 196/350/129
f 196/350/130 208/363/130 209/364/130 197/351/130
f 197/351/131 209/364/131 210/365/131 198/352/131
f 198/352/132 210/365/132 211/366/132 199/353/132
f 199/353/133 211/366/133 212/367/133 200/354/133
f 200/354/134 212/367/134 201/355/134 189/342/134
f 201/355/135 213/368/135 214/369/135 202/356/135
f 202/356/136 214/369/136 215/370/136 203/357/136
f 203/357/137 215/370/137 216/371/137 204/358/137
f 204/358/138 216/371/138 217/372/138 205/359/138
f 205/359/139 217/372/139 218/373/139 206/360/139
f 206/360/140 218/373/140 219/374/140 207/361/140
f 207/362/141 219/375/141 220/376/141 208/363/141
f 208/363/142 220/376/142 221/377/142 209/364/142
f 209/364/143 221/377/143 222/378/143 210/365/143
f 210/365/144 222/378/144 223/379/144 211/366/144
f 211/366/145 223/379/145 224/380/145 212/367/145
f 212/367/146 224/380/146 213/368/146 201/355/146
f 213/368/147 225/381/147 226/382/147 214/369/147
f 214/369/148 226/382/148 227/383/148 215/370/148
f 215/370/149 227/383/149 228/384/149 216/371/149
f 216/371/150 228/384/150 229/385/150 217/372/150
f 217/372/151 229/385/151 230/386/151 218/373/151
f 218/373/152 230/386/152 231/387/152 219/374/152
f 219/375/153 231/388/153 232/389/153 220/376/153
f 220/376/154 232/389/154 233/390/154 221/377/154
f 221/377/155 233/390/155 234/391/155 222/378/155
f 222/378/156 234/391/156 235/392/156 223/379/156
f 223/379/157 235/392/157 236/393/157 224/380/157
f 224/380/158 236/393/158 225/381/158 213/368/158
f 225/381/159 237/394/159 238/395/159 226/382/159
f 226/382/160 238/395/160 239/396/160 227/383/160
f 227/383/161 239/396/161 240/397/161 228/384/161
f 228/384/162 240/397/162 241/398/162 229/385/162
f 229/385/163 241/398/163 242/399/163 230/386/163
f 230/386/164 242/399/164 243/400/164 231/387/164
f 231/388/165 243/401/165 244/402/165 232/389/165
f 232/389/166 244/402/166 245/403/166 233/390/166
f 233/390/167 245/403/167 246/404/167 234/391/167
f 234/391/168 246/404/168 247/405/168 235/392/168
f 235/392/169 247/405/169 248/406/169 236/393/169
f 236/393/170 248/406/170 237/394/170 225/381/170
f 237/394/171 249/407/171 250/408/171 238/395/171
f 238/395/172 250/408/172 251/409/172 239/396/172
f 239/396/173 251/409/173 252/410/173 240/397/173
f 240/397/174 252/410/174 253/411/174 241/398/174
f 241/398/175 253/411/175 254/412/175 242/399/175
f 242/399/176 254/412/176 255/413/176 243/400/176
f 243/401/177 255/414/177 256/415/177 244/402/177
f 244/402/178 256/415/178 257/416/178 245/403/178
f 245/403/179 257/416/179 258/417/179 246/404/179
f 246/404/180 258/417/180 259/418/180 247/405/180
f 247/405/181 259/418/181 260/419/181 248/406/181
f 248/406/182 260/419/182 249/407/182 237/394/182
f 249/407/183 261/420/183 262/421/183 250/408/183
f 250/408/184 262/421/184 263/422/184 251/409/184
f 251/409/185 263/422/185 264/423/185 252/410/185
f 252/410/186 264/423/186 265/424/186 253/411/186
f 253/411/187 265/424/187 266/425/187 254/412/187
f 254/412/188 266/425/188 267/426/188 255/413/188
f 255/414/189 267/427/189 268/428/189 256/415/189
f 256/415/190 268/428/190 269/429/190 257/416/190
f 257/416/191 269/429/191 270/430/191 258/417/191
f 258/417/192 270/430/192 271/431/192 259/418/192
f 259/418/193 271/431/193 272/432/193 260/419/193
f 260/419/194 272/432/194 261/420/194 249/407/194
f 261/420/195 273/433/195 274/434/195 262/421/195
f 262/421/196 274/434/196 275/435/196 263/422/196
f 263/422/197 275/435/197 276/436/197 264/423/197
f 264/423/198 276/436/198 277/437/198 265/424/198
f 265/424/199 277/437/199 278/438/199 266/425/199
f 266/425/200 278/438/200 279/439/200 267/426/200
f 267/427/201 279/440/201 280/441/201 268/428/201
f 268/428/202 280/441/202 281/442/202 269/429/202
f 269/429/203 281/442/203 282/443/203 270/430/203
f 270/430/204 282/443/204 283/444/204 271/431/204
f 271/431/205 283/444/205 284/445/205 272/432/205
f 272/432/206 284/445/206 273/433/206 261/420/206
f 273/433/207 285/446/207 286/447/207 274/434/207
f 274/434/208 286/447/208 287/448/208 275/435/208
f 275/435/209 287/448/209 288/449/209 276/436/209
f 276/436/210 288/449/210 289/450/210 277/437/210
f 277/437/211 289/450/211 290/451/211 278/438/211
f 278/438/212 290/451/212 291/452/212 279/439/212
f 279/440/213 291/453/213 292/454/213 280/441/213
f 280/441/214 292/454/214 293/455/214 281/442/214
f 281/442/215 293/455/215 294/456/215 282/443/215
f 282/443/216 294/456/216 295/457/216 283/444/216
f 283/444/217 295/457/217 296/458/217 284/445/217
f 284/445/218 296/458/218 285/446/218 273/433/218
f 285/446/219 297/459/219 298/460/219 286/447/219
f 286/447/220 298/460/220 299/461/220 287/448/220
f 287/448/221 299/461/221 300/462/221 288/449/221
f 288/449/222 300/462/222 301/463/222 289/450/222
f 289/450/223 301/463/223 302/464/223 290/451/223
f 290/451/224 302/464/224 303/465/224 291/452/224
f 291/453/225 303/466/225 304/467/225 292/454/225
f 292/454/226 304/467/226 305/468/226 293/455/226
f 293/455/227 305/468/227 306/469/227 294/456/227
f 294/456/228 306/469/228 307/470/228 295/457/228
f 295/457/229 307/470/229 308/471/229 296/458/229
f 296/458/230 308/471/230 297/459/230 285/446/230
f 297/459/231 309/472/231 310/473/231 298/460/231
f 298/460/232 310/473/232 311/474/232 299/461/232
f 299/461/233 311/474/233 312/475/233 300/462/233
f 300/462/234 312/475/234 313/476/234 301/463/234
f 301/463/235 313/476/235 314/477/235 302/464/235
f 302/464/236 314/477/236 315/478/236 303/465/236
f 303/466/237 315/479/237 316/480/237 304/467/237
f 304/467/238 316/480/238 317/481/238 305/468/238
f 305/468/239 317/481/239 318/482/239 306/469/239
f 306/469/240 318/482/240 319/483/240 307/470/240
f 307/470/241 319/483/241 320/484/241 308/471/241
f 308/471/242 320/484/242 309/472/242 297/459/242
f 309/472/243 321/485/243 322/486/243 310/473/243
f 310/473/244 322/486/244 323/487/244 311/474/244
f 311/474/245 323/487/245 324/488/245 312/475/245
f 312/475/246 324/488/246 325/489/246 313/476/246
f 313/476/247 325/489/247 326/490/247 314/477/247
f 314/477/248 326/490/248 327/491/248 315/478/248
f 315/479/249 327/492/249 328/493/249 316/480/249
f 316/480/250 328/493/250 329/494/250 317/481/250
f 317/481/251 329/494/251 330/495/251 318/482/251
f 318/482/252 330/495/252 331/496/252 319/483/252
f 319/483/253 331/496/253 332/497/253 320/484/253
f 320/484/254 332/497/254 321/485/254 309/472/254
f 321/485/255 333/498/255 334/499/255 322/486/255
f 322/486/256 334/499/256 335/500/256 323/487/256
f 323/487/257 335/500/257 336/501/257 324/488/257
f 324/488/258 336/501/258 337/502/258 325/489/258
f 325/489/259 337/502/259 338/503/259 326/490/259
f 326/490/260 338/503/260 339/504/260 327/491/260
f 327/492/261 339/505/261 340/506/261 328/493/261
f 328/493/262 340/506/262 341/507/262 329/494/262
f 329/494/263 341/507/263 342/508/263 330/495/263
f 330/495/264 342/508/264 343/509/264 331/496/264
f 331/496/265 343/509/265 344/510/265 332/497/265
f 332/497/266 344/510/266 333/498/266 321/485/266
f 333/498/267 345/511/267 346/512/267 334/499/267
f 334/499/268 346/512/268 347/513/268 335/500/268
f 335/500/269 347/513/269 348/514/269 336/501/269
f 336/501/270 348/514/270 349/515/270 337/502/270
f 337/502/271 349/515/271 350/516/271 338/503/271
f 338/503/272 350/516/272 351/517/272 339/504/272
f 339/505/273 351/518/273 352/519/273 340/506/273
f 340/506/274 352/519/274 353/520/274 341/507/274
f 341/507/275 353/520/275 354/521/275 342/508/275
f 342/508/276 354/521/276 355/522/276 343/509/276
f 343/509/277 355/522/277 356/523/277 344/510/277
f 344/510/278 356/523/278 345/511/278 333/498/278
f 345/511/279 357/524/279 358/525/279 346/512/279
f 346/512/280 358/525/280 359/526/280 347/513/280
f 347/513/281 359/526/281 360/527/281 348/514/281
f 348/514/282 360/527/282 361/528/282 349/515/282
f 349/515/283 361/528/283 362/529/283 350/516/283
f 350/516/284 362/529/284 363/530/284 351/517/284
f 351/518/285 363/531/285 364/532/285 352/519/285
f 352/519/286 364/532/286 365/533/286 353/520/286
f 353/520/287 365/533/287 366/534/287 354/521/287
f 354/521/288 366/534/288 367/535/288 355/522/288
f 355/522/289 367/535/289 368/536/289 356/523/289
f 356/523/290 368/536/290 357/524/290 345/511/290
f 357/524/291 369/537/291 370/538/291 358/525/291
f 358/525/292 370/538/292 371/539/292 359/526/292
f 359/526/293 371/539/293 372/540/293 360/527/293
f 360/527/294 372/540/294 373/541/294 361/528/294
f 361/528/295 373/541/295 374/542/295 362/529/295
f 362/529/296 374/542/296 375/543/296 363/530/296
f 363/531/297 375/544/297 376/545/297 364/532/297
f 364/532/298 376/545/298 377/546/298 365/533/298
f 365/533/299 377/546/299 378/547/299 366/534/299
f 366/534/300 378/547/300 379/548/300 367/535/300
f 367/535/301 379/548/301 380/549/301 368/536/301
f 368/536/302 380/549/302 369/537/302 357/524/302
f 369/537/303 381/550/303 382/551/303 370/538/303
f 370/538/304 382/551/304 383/552/304 371/539/304
f 371/539/305 383/552/305 384/553/305 372/540/305
f 372/540/306 384/553/306 385/554/306 373/541/306
f 373/541/307 385/554/307 386/555/307 374/542/307
f 374/542/308 386/555/308 387/556/308 375/543/308
f 375/544/309 387/557/309 388/558/309 376/545/309
f 376/545/310 388/558/310 389/559/310 377/546/310
f 377/546/311 389/559/311 390/560/311 378/547/311
f 378/547/312 390/560/312 391/561/312 379/548/312
f 379/548/313 391/561/313 392/562/313 380/549/313
f 380/549/314 392/562/314 381/550/314 369/537/314
f 381/550/315 393/563/315 394/564/315 382/551/315
f 382/551/316 394/564/316 395/565/316 383/552/316
f 383/552/317 395/565/317 396/566/317 384/553/317
f 384/553/318 396/566/318 397/567/318 385/554/318
f 385/554/319 397/567/319 398/568/319 386/555/319
f 386/555/320 398/568/320 399/569/320 387/556/320
f 387/557/321 399/570/321 400/571/321 388/558/321
f 388/558/322 400/571/322 401/572/322 389/559/322
f 389/559/323 401/572/323 402/573/323 390/560/323
f 390/560/324 402/573/324 403/574/324 391/561/324
f 391/561/325 403/574/325 404/575/325 392/562/325
f 392/562/326 404/575/326 393/563/326 381/550/326
f 393/563/327 405/576/327 406/577/327 394/564/327
f 394/564/328 406/577/328 407/578/328 395/565/328
f 395/565/329 407/578/329 408/579/329 396/566/329
f 396/566/330 408/579/330 409/580/330 397/567/330
f 397/567/331 409/580/331 410/581/331 398/568/331
f 398/568/332 410/581/332 411/582/332 399/569/332
f 399/570/333 411/583/333 412/584/333 400/571/333
f 400/571/334 412/584/334 413/585/334 401/572/334
f 401/572/335 413/585/335 414/586/335 402/573/335
f 402/573/336 414/586/336 415/587/336 403/574/336
f 403/574/337 415/587/337 416/588/337 404/575/337
f 404/575/338 416/588/338 405/576/338 393/563/338
f 405/576/339 417/589/339 418/590/339 406/577/339
f 406/577/340 418/590/340 419/591/340 407/578/340
f 407/578/341 419/591/341 420/592/341 408/579/341
f 408/579/342 420/592/342 421/593/342 409/580/342
f 409/580/343 421/593/343 422/594/343 410/581/343
f 410/581/344 422/594/344 423/595/344 411/582/344
f 411/583/345 423/596/345 424/597/345 412/584/345
f 412/584/346 424/597/346 425/598/346 413/585/346
f 413/585/347 425/598/347 426/599/347 414/586/347
f 414/586/348 426/599/348 427/600/348 415/587/348
f 415/587/349 427/600/349 428/601/349 416/588/349
f 416/588/350 428/601/350 417/589/350 405/576/350
f 417/589/351 429/602/351 430/603/351 418/590/351
f 418/590/352 430/603/352 431/604/352 419/591/352
f 419/591/353 431/604/353 432/605/353 420/592/353
f 420/592/354 432/605/354 433/606/354 421/593/354
f 421/593/355 433/606/355 434/607/355 422/594/355
f 422/594/356 434/607/356 435/608/356 423/595/356
f 423/596/357 435/609/357 436/610/357 424/597/357
f 424/597/358 436/610/358 437/611/358 425/598/358
f 425/598/359 437/611/359 438/612/359 426/599/359
f 426/599/360 438/612/360 439/613/360 427/600/360
f 427/600/361 439/613/361 440/614/361 428/601/361
f 428/601/362 440/614/362 429/602/362 417/589/362
f 429/602/363 441/615/363 442/616/363 430/603/363
f 430/603/364 442/616/364 443/617/364 431/604/364
f 431/604/365 443/617/365 444/618/365 432/605/365
f 432/605/366 444/618/366 445/619/366 433/606/366
f 433/606/367 445/619/367 446/620/367 434/607/367
f 434/607/368 446/620/368 447/621/368 435/608/368
f 435/609/369 447/622/369 448/623/369 436/610/369
f 436/610/370 448/623/370 449/624/370 437/611/370
f 437/611/371 449/624/371 450/625/371 438/612/371
f 438/612/372 450/625/372 451/626/372 439/613/372
f 439/613/373 451/626/373 452/627/373 440/614/373
f 440/614/374 452/627/374 441/615/374 429/602/374
f 441/628/92 453/629/92 454/630/92 442/631/92
f 442/631/91 454/630/91 455/632/91 443/633/91
f 443/633/90 455/632/90 456/634/90 444/635/90
f 444/635/89 456/634/89 457/636/89 445/637/89
f 445/637/88 457/636/88 458/638/88 446/639/88
f 446/639/87 458/638/87 459/640/87 447/641/87
f 447/642/98 459/643/98 460/644/98 448/645/98
f 448/645/97 460/644/97 461/646/97 449/647/97
f 449/647/96 461/646/96 462/648/96 450/649/96
f 450/649/95 462/648/95 463/650/95 451/651/95
f 451/651/94 463/650/94 464/652/94 452/653/94
f 452/653/93 464/652/93 453/629/93 441/628/93
f 453/629/104 465/654/104 466/655/104 454/630/104
f 454/630/103 466/655/103 467/656/103 455/632/103
f 455/632/102 467/656/102 468/657/102 456/634/102
f 456/634/101 468/657/101 469/658/101 457/636/101
f 457/636/100 469/658/100 470/659/100 458/638/100
f 458/638/99 470/659/99 471/660/99 459/640/99
f 459/643/110 471/661/110 472/662/110 460/644/110
f 460/644/109 472/662/109 473/663/109 461/646/109
f 461/646/108 473/663/108 474/664/108 462/648/108
f 462/648/107 474/664/107 475/665/107 463/650/107
f 463/650/106 475/665/106 476/666/106 464/652/106
f 464/652/105 476/666/105 465/654/105 453/629/105
f 465/654/116 477/667/116 478/668/116 466/655/116
f 466/655/115 478/668/115 479/669/115 467/656/115
f 467/656/114 479/669/114 480/670/114 468/657/114
f 468/657/113 480/670/113 481/671/113 469/658/113
f 469/658/112 481/671/112 482/672/112 470/659/112
f 470/659/111 482/672/111 483/673/111 471/660/111
f 471/661/122 483/674/122 484/675/122 472/662/122
f 472/662/121 484/675/121 485/676/121 473/663/121
f 473/663/120 485/676/120 486/677/120 474/664/120
f 474/664/119 486/677/119 487/678/119 475/665/119
f 475/665/118 487/678/118 488/679/118 476/666/118
f 476/666/117 488/679/117 477/667/117 465/654/117
f 477/667/128 489/680/128 490/681/128 478/668/128
f 478/668/127 490/681/127 491/682/127 479/669/127
f 479/669/126 491/682/126 492/683/126 480/670/126
f 480/670/125 492/683/125 493/684/125 481/671/125
f 481/671/124 493/684/124 494/685/124 482/672/124
f 482/672/123 494/685/123 495/686/123 483/673/123
f 483/674/134 495/687/134 496/688/134 484/675/134
f 484/675/133 496/688/133 497/689/133 485/676/133
f 485/676/132 497/689/132 498/690/132 486/677/132
f 486/677/131 498/690/131 499/691/131 487/678/131
f 487/678/130 499/691/130 500/692/130 488/679/130
f 488/679/129 500/692/129 489/680/129 477/667/129
f 489/680/140 501/693/140 502/694/140 490/681/140
f 490/681/139 502/694/139 503/695/139 491/682/139
f 491/682/138 503/695/138 504/696/138 492/683/138
f 492/683/137 504/696/137 505/697/137 493/684/137
f 493/684/136 505/697/136 506/698/136 494/685/136
f 494/685/135 506/698/135 507/699/135 495/686/135
f 495/687/146 507/700/146 508/701/146 496/688/146
f 496/688/145 508/701/145 509/702/145 497/689/145
f 497/689/144 509/702/144 510/703/144 498/690/144
f 498/690/143 510/703/143 511/704/143 499/691/143
f 499/691/142 511/704/142 512/705/142 500/692/142
f 500/692/141 512/705/141 501/693/141 489/680/141
f 501/693/152 513/706/152 514/707/152 502/694/152
f 502/694/151 514/707/151 515/708/151 503/695/151
f 503/695/150 515/708/150 516/709/150 504/696/150
f 504/696/149 516/709/149 517/710/149 505/697/149
f 505/697/148 517/710/148 518/711/148 506/698/148
f 506/698/147 518/711/147 519/712/147 507/699/147
f 507/700/158 519/713/158 520/714/158 508/701/158
f 508/701/157 520/714/157 521/715/157 509/702/157
f 509/702/156 521/715/156 522/716/156 510/703/156
f 510/703/155 522/716/155 523/717/155 511/704/155
f 511/704/154 523/717/154 524/718/154 512/705/154
f 512/705/153 524/718/153 513/706/153 501/693/153
f 513/706/164 525/719/164 526/720/164 514/707/164
f 514/707/163 526/720/163 527/721/163 515/708/163
f 515/708/162 527/721/162 528/722/162 516/709/162
f 516/709/161 528/722/161 529/723/161 517/710/161
f 517/710/160 529/723/160 530/724/160 518/711/160
f 518/711/159 530/724/159 531/725/159 519/712/159
f 519/713/170 531/726/170 532/727/170 520/714/170
f 520/714/169 532/727/169 533/728/169 521/715/169
f 521/715/168 533/728/168 534/729/168 522/716/168
f 522/716/167 534/729/167 535/730/167 523/717/167
f 523/717/166 535/730/166 536/731/166 524/718/166
f 524/718/165 536/731/165 525/719/165 513/706/165
f 525/719/176 537/732/176 538/733/176 526/720/176
f 526/720/175 538/733/175 539/734/175 527/721/175
f 527/721/174 539/734/174 540/735/174 528/722/174
f 528/722/173 540/735/173 541/736/173 529/723/173
f 529/723/172 541/736/172 542/737/172 530/724/172
f 530/724/171 542/737/171 543/738/171 531/725/171
f 531/726/182 543/739/182 544/740/182 532/727/182
f 532/727/181 544/740/181 545/741/181 533/728/181
f 533/728/180 545/741/180 546/742/180 534/729/180
f 534/729/179 546/742/179 547/743/179 535/730/179
f 535/730/178 547/743/178 548/744/178 536/731/178
f 536/731/177 548/744/177 537/732/177 525/719/177
f 537/732/188 549/745/188 550/746/188 538/733/188
f 538/733/187 550/746/187 551/747/187 539/734/187
f 539/734/186 551/747/186 552/748/186 540/735/186
f 540/735/185 552/748/185 553/749/185 541/736/185
f 541/736/184 553/749/184 554/750/184 542/737/184
f 542/737/183 554/750/183 555/751/183 543/738/183
f 543/739/194 555/752/194 556/753/194 544/740/194
f 544/740/193 556/753/193 557/754/193 545/741/193
f 545/741/192 557/754/192 558/755/192 546/742/192
f 546/742/191 558/755/191 559/756/191 547/743/191
f 547/743/190 559/756/190 560/757/190 548/744/190
f 548/744/189 560/757/189 549/745/189 537/732/189
f 549/745/200 561/758/200 562/759/200 550/746/200
f 550/746/199 562/759/199 563/760/199 551/747/199
f 551/747/198 563/760/198 564/761/198 552/748/198
f 552/748/197 564/761/197 565/762/197 553/749/197
f 553/749/196 565/762/196 566/763/196 554/750/196
f 554/750/195 566/763/195 567/764/195 555/751/195
f 555/752/206 567/765/206 568/766/206 556/753/206
f 556/753/205 568/766/205 569/767/205 557/754/205
f 557/754/204 569/767/204 570/768/204 558/755/204
f 558/755/203 570/768/203 571/769/203 559/756/203
f 559/756/202 571/769/202 572/770/202 560/757/202
f 560/757/201 572/770/201 561/758/201 549/745/201
f 561/758/212 573/771/212 574/772/212 562/759/212
f 562/759/211 574/772/211 575/773/211 563/760/211
f 563/760/210 575/773/210 576/774/210 564/761/210
f 564/761/209 576/774/209 577/775/209 565/762/209
f 565/762/208 577/775/208 578/776/208 566/763/208
f 566/763/207 578/776/207 579/777/207 567/764/207
f 567/765/218 579/778/218 580/779/218 568/766/218
f 568/766/217 580/779/217 581/780/217 569/767/217
f 569/767/216 581/780/216 582/781/216 570/768/216
f 570/768/215 582/781/215 583/782/215 571/769/215
f 571/769/214 583/782/214 584/783/214 572/770/214
f 572/770/213 584/783/213 573/771/213 561/758/213
f 573/771/224 585/784/224 586/785/224 574/772/224
f 574/772/375 586/785/375 587/786/375 575/773/375
f 575/773/222 587/786/222 588/787/222 576/774/222
f 576/774/221 588/787/221 589/788/221 577/775/221
f 577/775/220 589/788/220 590/789/220 578/776/220
f 578/776/219 590/789/219 591/790/219 579/777/219
f 579/778/230 591/791/230 592/792/230 580/779/230
f 580/779/229 592/792/229 593/793/229 581/780/229
f 581/780/228 593/793/228 594/794/228 582/781/228
f 582/781/227 594/794/227 595/795/227 583/782/227
f 583/782/226 595/795/226 596/796/226 584/783/226
f 584/783/225 596/796/225 585/784/225 573/771/225
f 585/784/236 597/797/236 598/798/236 586/785/236
f 586/785/235 598/798/235 599/799/235 587/786/235
f 587/786/234 599/799/234 600/800/234 588/787/234
f 588/787/233 600/800/233 601/801/233 589/788/233
f 589/788/232 601/801/232 602/802/232 590/789/232
f 590/789/231 602/802/231 603/803/231 591/790/231
f 591/791/242 603/804/242 604/805/242 592/792/242
f 592/792/376 604/805/376 605/806/376 593/793/376
f 593/793/240 605/806/240 606/807/240 594/794/240
f 594/794/239 606/807/239 607/808/239 595/795/239
f 595/795/238 607/808/238 608/809/238 596/796/238
f 596/796/237 608/809/237 597/797/237 585/784/237
f 597/797/248 609/810/248 610/811/248 598/798/248
f 598/798/247 610/811/247 611/812/247 599/799/247
f 599/799/246 611/812/246 612/813/246 600/800/246
f 600/800/245 612/813/245 613/814/245 601/801/245
f 601/801/244 613/814/244 614/815/244 602/802/244
f 602/802/243 614/815/243 615/816/243 603/803/243
f 603/804/254 615/817/254 616/818/254 604/805/254
f 604/805/253 616/818/253 617/819/253 605/806/253
f 605/806/252 617/819/252 618/820/252 606/807/252
f 606/807/251 618/820/251 619/821/251 607/808/251
f 607/808/250 619/821/250 620/822/250 608/809/250
f 608/809/249 620/822/249 609/810/249 597/797/249
f 609/810/260 621/823/260 622/824/260 610/811/260
f 610/811/259 622/824/259 623/825/259 611/812/259
f 611/812/258 623/825/258 624/826/258 612/813/258
f 612/813/257 624/826/257 625/827/257 613/814/257
f 613/814/256 625/827/256 626/828/256 614/815/256
f 614/815/255 626/828/255 627/829/255 615/816/255
f 615/817/266 627/830/266 628/831/266 616/818/266
f 616/818/265 628/831/265 629/832/265 617/819/265
f 617/819/264 629/832/264 630/833/264 618/820/264
f 618/820/263 630/833/263 631/834/263 619/821/263
f 619/821/262 631/834/262 632/835/262 620/822/262
f 620/822/261 632/835/261 621/823/261 609/810/261
f 621/823/272 633/836/272 634/837/272 622/824/272
f 622/824/271 634/837/271 635/838/271 623/825/271
f 623/825/270 635/838/270 636/839/270 624/826/270
f 624/826/269 636/839/269 637/840/269 625/827/269
f 625/827/268 637/840/268 638/841/268 626/828/268
f 626/828/267 638/841/267 639/842/267 627/829/267
f 627/830/278 639/843/278 640/844/278 628/831/278
f 628/831/277 640/844/277 641/845/277 629/832/277
f 629/832/276 641/845/276 642/846/276 630/833/276
f 630/833/275 642/846/275 643/847/275 631/834/275
f 631/834/274 643/847/274 644/848/274 632/835/274
f 632/835/273 644/848/273 633/836/273 621/823/273
f 633/836/284 645/849/284 646/850/284 634/837/284
f 634/837/283 646/850/283 647/851/283 635/838/283
f 635/838/282 647/851/282 648/852/282 636/839/282
f 636/839/281 648/852/281 649/853/281 637/840/281
f 637/840/280 649/853/280 650/854/280 638/841/280
f 638/841/279 650/854/279 651/855/279 639/842/279
f 639/843/290 651/856/290 652/857/290 640/844/290
f 640/844/289 652/857/289 653/858/289 641/845/289
f 641/845/288 653/858/288 654/859/288 642/846/288
f 642/846/287 654/859/287 655/860/287 643/847/287
f 643/847/286 655/860/286 656/861/286 644/848/286
f 644/848/285 656/861/285 645/849/285 633/836/285
f 645/849/296 657/862/296 658/863/296 646/850/296
f 646/850/295 658/863/295 659/864/295 647/851/295
f 647/851/294 659/864/294 660/865/294 648/852/294
f 648/852/293 660/865/293 661/866/293 649/853/293
f 649/853/292 661/866/292 662/867/292 650/854/292
f 650/854/291 662/867/291 663/868/291 651/855/291
f 651/856/302 663/869/302 664/870/302 652/857/302
f 652/857/301 664/870/301 665/871/301 653/858/301
f 653/858/300 665/871/300 666/872/300 654/859/300
f 654/859/299 666/872/299 667/873/299 655/860/299
f 655/860/298 667/873/298 668/874/298 656/861/298
f 656/861/297 668/874/297 657/862/297 645/849/297
f 657/862/308 669/875/308 670/876/308 658/863/308
f 658/863/307 670/876/307 671/877/307 659/864/307
f 659/864/306 671/877/306 672/878/306 660/865/306
f 660/865/305 672/878/305 673/879/305 661/866/305
f 661/866/304 673/879/304 674/880/304 662/867/304
f 662/867/303 674/880/303 675/881/303 663/868/303
f 663/869/314 675/882/314 676/883/314 664/870/314
f 664/870/313 676/883/313 677/884/313 665/871/313
f 665/871/312 677/884/312 678/885/312 666/872/312
f 666/872/311 678/885/311 679/886/311 667/873/311
f 667/873/310 679/886/310 680/887/310 668/874/310
f 668/874/309 680/887/309 669/875/309 657/862/309
f 669/875/320 681/888/320 682/889/320 670/876/320
f 670/876/319 682/889/319 683/890/319 671/877/319
f 671/877/318 683/890/318 684/891/318 672/878/318
f 672/878/317 684/891/317 685/892/317 673/879/317
f 673/879/316 685/892/316 686/893/316 674/880/316
f 674/880/315 686/893/315 687/894/315 675/881/315
f 675/882/326 687/895/326 688/896/326 676/883/326
f 676/883/325 688/896/325 689/897/325 677/884/325
f 677/884/324 689/897/324 690/898/324 678/885/324
f 678/885/323 690/898/323 691/899/323 679/886/323
f 679/886/322 691/899/322 692/900/322 680/887/322
f 680/887/321 692/900/321 681/888/321 669/875/321
f 681/888/332 693/901/332 694/902/332 682/889/332
f 682/889/331 694/902/331 695/903/331 683/890/331
f 683/890/330 695/903/330 696/904/330 684/891/330
f 684/891/329 696/904/329 697/905/329 685/892/329
f 685/892/328 697/905/328 698/906/328 686/893/328
f 686/893/327 698/906/327 699/907/327 687/894/327
f 687/895/338 699/908/338 700/909/338 688/896/338
f 688/896/337 700/909/337 701/910/337 689/897/337
f 689/897/336 701/910/336 702/911/336 690/898/336
f 690/898/335 702/911/335 703/912/335 691/899/335
f 691/899/334 703/912/334 704/913/334 692/900/334
f 692/900/333 704/913/333 693/901/333 681/888/333
f 693/901/344 705/914/344 706/915/344 694/902/344
f 694/902/343 706/915/343 707/916/343 695/903/343
f 695/903/342 707/916/342 708/917/342 696/904/342
f 696/904/341 708/917/341 709/918/341 697/905/341
f 697/905/340 709/918/340 710/919/340 698/906/340
f 698/906/339 710/919/339 711/920/339 699/907/339
f 699/908/350 711/921/350 712/922/350 700/909/350
f 700/909/349 712/922/349 713/923/349 701/910/349
f 701/910/348 713/923/348 714/924/348 702/911/348
f 702/911/347 714/924/347 715/925/347 703/912/347
f 703/912/346 715/925/346 716/926/346 704/913/346
f 704/913/345 716/926/345 705/914/345 693/901/345
f 705/914/356 717/927/356 718/928/356 706/915/356
f 706/915/355 718/928/355 719/929/355 707/916/355
f 707/916/354 719/929/354 720/930/354 708/917/354
f 708/917/353 720/930/353 721/931/353 709/918/353
f 709/918/352 721/931/352 722/932/352 710/919/352
f 710/919/351 722/932/351 723/933/351 711/920/351
f 711/921/362 723/934/362 724/935/362 712/922/362
f 712/922/361 724/935/361 725/936/361 713/923/361
f 713/923/360 725/936/360 726/937/360 714/924/360
f 714/924/359 726/937/359 727/938/359 715/925/359
f 715/925/358 727/938/358 728/939/358 716/926/358
f 716/926/357 728/939/357 717/927/357 705/914/357
f 717/927/368 153/303/368 154/306/368 718/928/368
f 718/928/367 154/306/367 155/308/367 719/929/367
f 719/929/366 155/308/366 156/310/366 720/930/366
f 720/930/365 156/310/365 157/312/365 721/931/365
f 721/931/364 157/312/364 158/314/364 722/932/364
f 722/932/363 158/314/363 159/316/363 723/933/363
f 723/934/374 159/317/374 160/320/374 724/935/374
f 724/935/373 160/320/373 161/322/373 725/936/373
f 725/936/372 161/322/372 162/324/372 726/937/372
f 726/937/371 162/324/371 163/326/371 727/938/371
f 727/938/370 163/326/370 164/328/370 728/939/370
f 728/939/369 164/328/369 153/303/369 717/927/369
o Cube.003
v -0.600000 1.325000 0.160000
v -0.600000 1.675000 0.160000
v -0.600000 1.325000 0.120000
v -0.600000 1.675000 0.120000
v 0.600000 1.325000 0.160000
v 0.600000 1.675000 0.160000
v 0.600000 1.325000 0.120000
v 0.600000 1.675000 0.120000
vn -1.0000 -0.0000 -0.0000
vn -0.0000 -0.0000 -1.0000
vn 1.0000 -0.0000 -0.0000
vn -0.0000 -0.0000 1.0000
vn -0.0000 -1.0000 -0.0000
vn -0.0000 1.0000 -0.0000
vt 0.375000 0.000000
vt 0.625000 0.000000
vt 0.625000 0.250000
vt 0.375000 0.250000
vt 0.625000 0.500000
vt 0.375000 0.500000
vt 0.625000 0.750000
vt 0.375000 0.750000
vt 0.625000 1.000000
vt 0.375000 1.000000
vt 0.125000 0.500000
vt 0.125000 0.750000
vt 0.875000 0.500000
vt 0.875000 0.750000
s 0
usemtl Thrown_Sign
f 729/940/377 730/941/377 732/942/377 731/943/377
f 731/943/378 732/942/378 736/944/378 735/945/378
f 735/945/379 736/944/379 734/946/379 733/947/379
f 733/947/380 734/946/380 730/948/380 729/949/380
f 731/950/381 735/945/381 733/947/381 729/951/381
f 736/944/382 732/952/382 730/953/382 734/946/382
