# Blender 5.2.1 LTS
# www.blender.org
mtllib titan_golem.mtl
o Head_Block
v -0.400000 1.590000 -0.350000
v -0.400000 1.590000 0.350000
v -0.400000 2.170000 -0.350000
v -0.400000 2.170000 0.350000
v 0.400000 1.590000 -0.350000
v 0.400000 1.590000 0.350000
v 0.400000 2.170000 -0.350000
v 0.400000 2.170000 0.350000
vn -1.0000 -0.0000 -0.0000
vn -0.0000 1.0000 -0.0000
vn 1.0000 -0.0000 -0.0000
vn -0.0000 -1.0000 -0.0000
vn -0.0000 -0.0000 -1.0000
vn -0.0000 -0.0000 1.0000
vt 0.375000 0.000000
vt 0.625000 0.000000
vt 0.625000 0.250000
vt 0.375000 0.250000
vt 0.625000 0.500000
vt 0.375000 0.500000
vt 0.625000 0.750000
vt 0.375000 0.750000
vt 0.625000 1.000000
vt 0.375000 1.000000
vt 0.125000 0.500000
vt 0.125000 0.750000
vt 0.875000 0.500000
vt 0.875000 0.750000
s 0
usemtl Titan_AncientStone
f 1/1/1 2/2/1 4/3/1 3/4/1
f 3/4/2 4/3/2 8/5/2 7/6/2
f 7/6/3 8/5/3 6/7/3 5/8/3
f 5/8/4 6/7/4 2/9/4 1/10/4
f 3/11/5 7/6/5 5/8/5 1/12/5
f 8/5/6 4/13/6 2/14/6 6/7/6
o Eye_Lens_Mount
v 0.000000 1.950000 0.610000
v 0.000000 1.810000 0.610000
v 0.099498 1.950000 0.590209
v 0.099498 1.810000 0.590209
v 0.183848 1.950000 0.533848
v 0.183848 1.810000 0.533848
v 0.240209 1.950000 0.449498
v 0.240209 1.810000 0.449498
v 0.260000 1.950000 0.350000
v 0.260000 1.810000 0.350000
v 0.240209 1.950000 0.250502
v 0.240209 1.810000 0.250502
v 0.183848 1.950000 0.166152
v 0.183848 1.810000 0.166152
v 0.099498 1.950000 0.109791
v 0.099498 1.810000 0.109791
v 0.000000 1.950000 0.090000
v 0.000000 1.810000 0.090000
v -0.099498 1.950000 0.109791
v -0.099498 1.810000 0.109791
v -0.183848 1.950000 0.166152
v -0.183848 1.810000 0.166152
v -0.240209 1.950000 0.250502
v -0.240209 1.810000 0.250502
v -0.260000 1.950000 0.350000
v -0.260000 1.810000 0.350000
v -0.240209 1.950000 0.449498
v -0.240209 1.810000 0.449498
v -0.183848 1.950000 0.533848
v -0.183848 1.810000 0.533848
v -0.099498 1.950000 0.590209
v -0.099498 1.810000 0.590209
vn 0.1951 -0.0000 0.9808
vn 0.5556 -0.0000 0.8315
vn 0.8315 -0.0000 0.5556
vn 0.9808 -0.0000 0.1951
vn 0.9808 -0.0000 -0.1951
vn 0.8315 -0.0000 -0.5556
vn 0.5556 -0.0000 -0.8315
vn 0.1951 -0.0000 -0.9808
vn -0.1951 -0.0000 -0.9808
vn -0.5556 -0.0000 -0.8315
vn -0.8315 -0.0000 -0.5556
vn -0.9808 -0.0000 -0.1951
vn -0.9808 -0.0000 0.1951
vn -0.8315 -0.0000 0.5556
vn -0.0000 -1.0000 -0.0000
vn -0.5556 -0.0000 0.8315
vn -0.1951 -0.0000 0.9808
vn -0.0000 1.0000 -0.0000
vt 1.000000 0.500000
vt 1.000000 1.000000
vt 0.937500 1.000000
vt 0.937500 0.500000
vt 0.875000 1.000000
vt 0.875000 0.500000
vt 0.812500 1.000000
vt 0.812500 0.500000
vt 0.750000 1.000000
vt 0.750000 0.500000
vt 0.687500 1.000000
vt 0.687500 0.500000
vt 0.625000 1.000000
vt 0.625000 0.500000
vt 0.562500 1.000000
vt 0.562500 0.500000
vt 0.500000 1.000000
vt 0.500000 0.500000
vt 0.437500 1.000000
vt 0.437500 0.500000
vt 0.375000 1.000000
vt 0.375000 0.500000
vt 0.312500 1.000000
vt 0.312500 0.500000
vt 0.250000 1.000000
vt 0.250000 0.500000
vt 0.187500 1.000000
vt 0.187500 0.500000
vt 0.125000 1.000000
vt 0.125000 0.500000
vt 0.341844 0.471731
vt 0.250000 0.490000
vt 0.158156 0.471731
vt 0.080294 0.419706
vt 0.028269 0.341844
vt 0.010000 0.250000
vt 0.028269 0.158156
vt 0.080294 0.080294
vt 0.158156 0.028269
vt 0.250000 0.010000
vt 0.341844 0.028269
vt 0.419706 0.080294
vt 0.471731 0.158156
vt 0.490000 0.250000
vt 0.471731 0.341844
vt 0.419706 0.419706
vt 0.062500 1.000000
vt 0.062500 0.500000
vt 0.000000 1.000000
vt 0.000000 0.500000
vt 0.750000 0.490000
vt 0.841844 0.471731
vt 0.919706 0.419706
vt 0.971731 0.341844
vt 0.990000 0.250000
vt 0.971731 0.158156
vt 0.919706 0.080294
vt 0.841844 0.028269
vt 0.750000 0.010000
vt 0.658156 0.028269
vt 0.580294 0.080294
vt 0.528269 0.158156
vt 0.510000 0.250000
vt 0.528269 0.341844
vt 0.580294 0.419706
vt 0.658156 0.471731
s 0
usemtl Titan_RunicIron
f 9/15/7 10/16/7 12/17/7 11/18/7
f 11/18/8 12/17/8 14/19/8 13/20/8
f 13/20/9 14/19/9 16/21/9 15/22/9
f 15/22/10 16/21/10 18/23/10 17/24/10
f 17/24/11 18/23/11 20/25/11 19/26/11
f 19/26/12 20/25/12 22/27/12 21/28/12
f 21/28/13 22/27/13 24/29/13 23/30/13
f 23/30/14 24/29/14 26/31/14 25/32/14
f 25/32/15 26/31/15 28/33/15 27/34/15
f 27/34/16 28/33/16 30/35/16 29/36/16
f 29/36/17 30/35/17 32/37/17 31/38/17
f 31/38/18 32/37/18 34/39/18 33/40/18
f 33/40/19 34/39/19 36/41/19 35/42/19
f 35/42/20 36/41/20 38/43/20 37/44/20
f 12/45/21 10/46/21 40/47/21 38/48/21 36/49/21 34/50/21 32/51/21 30/52/21 28/53/21 26/54/21 24/55/21 22/56/21 20/57/21 18/58/21 16/59/21 14/60/21
f 37/44/22 38/43/22 40/61/22 39/62/22
f 39/62/23 40/61/23 10/63/23 9/64/23
f 9/65/24 11/66/24 13/67/24 15/68/24 17/69/24 19/70/24 21/71/24 23/72/24 25/73/24 27/74/24 29/75/24 31/76/24 33/77/24 35/78/24 37/79/24 39/80/24
o Eye_Laser_Core
v 0.000000 1.880000 0.590000
v 0.000000 1.919018 0.586157
v 0.000000 2.021421 0.531421
v 0.000000 2.064776 0.466537
v 0.000000 2.076157 0.429018
v 0.000000 2.076157 0.350982
v 0.000000 2.046294 0.278886
v 0.000000 1.991114 0.223706
v 0.000000 1.956537 0.205224
v 0.000000 1.919018 0.193843
v 0.000000 1.880000 0.190000
v 0.014932 1.916048 0.586157
v 0.029289 1.950711 0.574776
v 0.042522 1.982656 0.556294
v 0.054120 2.010656 0.531421
v 0.063638 2.033636 0.501114
v 0.070711 2.050711 0.466537
v 0.075066 2.061225 0.429018
v 0.076537 2.064776 0.390000
v 0.075066 2.061225 0.350982
v 0.070711 2.050711 0.313463
v 0.063638 2.033636 0.278886
v 0.054120 2.010656 0.248579
v 0.042522 1.982656 0.223706
v 0.029289 1.950711 0.205224
v 0.014932 1.916048 0.193843
v 0.027590 1.907590 0.586157
v 0.054120 1.934120 0.574776
v 0.078570 1.958570 0.556294
v 0.100000 1.980000 0.531421
v 0.117588 1.997588 0.501114
v 0.130656 2.010656 0.466537
v 0.138704 2.018704 0.429018
v 0.141421 2.021421 0.390000
v 0.138704 2.018704 0.350982
v 0.130656 2.010656 0.313463
v 0.117588 1.997588 0.278886
v 0.100000 1.980000 0.248579
v 0.078570 1.958570 0.223706
v 0.054120 1.934120 0.205224
v 0.027590 1.907590 0.193843
v 0.036048 1.894932 0.586157
v 0.070711 1.909289 0.574776
v 0.102656 1.922521 0.556294
v 0.130656 1.934120 0.531421
v 0.153636 1.943638 0.501114
v 0.170711 1.950711 0.466537
v 0.181225 1.955066 0.429018
v 0.184776 1.956537 0.390000
v 0.181225 1.955066 0.350982
v 0.170711 1.950711 0.313463
v 0.153636 1.943638 0.278886
v 0.130656 1.934120 0.248579
v 0.102656 1.922521 0.223706
v 0.070711 1.909289 0.205224
v 0.036048 1.894932 0.193843
v 0.039018 1.880000 0.586157
v 0.076537 1.880000 0.574776
v 0.111114 1.880000 0.556294
v 0.141421 1.880000 0.531421
v 0.166294 1.880000 0.501114
v 0.184776 1.880000 0.466537
v 0.196157 1.880000 0.429018
v 0.200000 1.880000 0.390000
v 0.196157 1.880000 0.350982
v 0.184776 1.880000 0.313463
v 0.166294 1.880000 0.278886
v 0.141421 1.880000 0.248579
v 0.111114 1.880000 0.223706
v 0.076537 1.880000 0.205224
v 0.039018 1.880000 0.193843
v 0.036048 1.865068 0.586157
v 0.070711 1.850711 0.574776
v 0.102656 1.837479 0.556294
v 0.130656 1.825880 0.531421
v 0.153636 1.816362 0.501114
v 0.170711 1.809289 0.466537
v 0.181225 1.804934 0.429018
v 0.184776 1.803463 0.390000
v 0.181225 1.804934 0.350982
v 0.170711 1.809289 0.313463
v 0.153636 1.816362 0.278886
v 0.130656 1.825880 0.248579
v 0.102656 1.837479 0.223706
v 0.070711 1.850711 0.205224
v 0.036048 1.865068 0.193843
v 0.027590 1.852410 0.586157
v 0.054120 1.825880 0.574776
v 0.078569 1.801430 0.556294
v 0.100000 1.780000 0.531421
v 0.117588 1.762412 0.501114
v 0.130656 1.749344 0.466537
v 0.138704 1.741296 0.429018
v 0.141421 1.738579 0.390000
v 0.138704 1.741296 0.350982
v 0.130656 1.749344 0.313463
v 0.117588 1.762412 0.278886
v 0.100000 1.780000 0.248579
v 0.078569 1.801430 0.223706
v 0.054120 1.825880 0.205224
v 0.027590 1.852410 0.193843
v 0.014932 1.843952 0.586157
v 0.029289 1.809289 0.574776
v 0.042521 1.777344 0.556294
v 0.054120 1.749344 0.531421
v 0.063638 1.726364 0.501114
v 0.070711 1.709289 0.466537
v 0.075066 1.698775 0.429018
v 0.076537 1.695224 0.390000
v 0.075066 1.698775 0.350982
v 0.070711 1.709289 0.313463
v 0.063638 1.726364 0.278886
v 0.054120 1.749344 0.248579
v 0.042521 1.777344 0.223706
v 0.029289 1.809289 0.205224
v 0.014932 1.843952 0.193843
v -0.000000 1.840982 0.586157
v -0.000000 1.803463 0.574776
v -0.000000 1.768886 0.556294
v -0.000000 1.738579 0.531421
v -0.000000 1.713706 0.501114
v -0.000000 1.695224 0.466537
v -0.000000 1.683843 0.429018
v -0.000000 1.680000 0.390000
v -0.000000 1.683843 0.350982
v -0.000000 1.695224 0.313463
v -0.000000 1.713706 0.278886
v -0.000000 1.738579 0.248579
v -0.000000 1.768886 0.223706
v -0.000000 1.803463 0.205224
v -0.000000 1.840982 0.193843
v -0.014932 1.843952 0.586157
v -0.029289 1.809289 0.574776
v -0.042522 1.777344 0.556294
v -0.054120 1.749344 0.531421
v -0.063638 1.726364 0.501114
v -0.070711 1.709289 0.466537
v -0.075066 1.698775 0.429018
v -0.076537 1.695224 0.390000
v -0.075066 1.698775 0.350982
v -0.070711 1.709289 0.313463
v -0.063638 1.726364 0.278886
v -0.054120 1.749344 0.248579
v -0.042522 1.777344 0.223706
v -0.029289 1.809289 0.205224
v -0.014932 1.843952 0.193843
v -0.027590 1.852410 0.586157
v -0.054120 1.825880 0.574776
v -0.078570 1.801431 0.556294
v -0.100000 1.780000 0.531421
v -0.117588 1.762413 0.501114
v -0.130656 1.749344 0.466537
v -0.138704 1.741296 0.429018
v -0.141421 1.738579 0.390000
v -0.138704 1.741296 0.350982
v -0.130656 1.749344 0.313463
v -0.117588 1.762413 0.278886
v -0.100000 1.780000 0.248579
v -0.078570 1.801431 0.223706
v -0.054120 1.825880 0.205224
v -0.027590 1.852410 0.193843
v -0.036048 1.865068 0.586157
v -0.070711 1.850711 0.574776
v -0.102656 1.837479 0.556294
v -0.130656 1.825880 0.531421
v -0.153636 1.816362 0.501114
v -0.170711 1.809289 0.466537
v -0.181225 1.804934 0.429018
v -0.184776 1.803463 0.390000
v -0.181225 1.804934 0.350982
v -0.170711 1.809289 0.313463
v -0.153636 1.816362 0.278886
v -0.130656 1.825880 0.248579
v -0.102656 1.837479 0.223706
v -0.070711 1.850711 0.205224
v -0.036048 1.865068 0.193843
v -0.039018 1.880000 0.586157
v -0.076537 1.880000 0.574776
v -0.111114 1.880000 0.556294
v -0.141421 1.880000 0.531421
v -0.166294 1.880000 0.501114
v -0.184776 1.880000 0.466537
v -0.196157 1.880000 0.429018
v -0.200000 1.880000 0.390000
v -0.196157 1.880000 0.350982
v -0.184776 1.880000 0.313463
v -0.166294 1.880000 0.278886
v -0.141421 1.880000 0.248579
v -0.111114 1.880000 0.223706
v -0.076537 1.880000 0.205224
v -0.039018 1.880000 0.193843
v -0.036048 1.894932 0.586157
v -0.070711 1.909289 0.574776
v -0.102656 1.922521 0.556294
v -0.130656 1.934120 0.531421
v -0.153635 1.943638 0.501114
v -0.170711 1.950711 0.466537
v -0.181225 1.955066 0.429018
v -0.184776 1.956537 0.390000
v -0.181225 1.955066 0.350982
v -0.170711 1.950711 0.313463
v -0.153635 1.943638 0.278886
v -0.130656 1.934120 0.248579
v -0.102656 1.922521 0.223706
v -0.070711 1.909289 0.205224
v -0.036048 1.894932 0.193843
v -0.027590 1.907590 0.586157
v -0.054120 1.934120 0.574776
v -0.078569 1.958570 0.556294
v -0.100000 1.980000 0.531421
v -0.117587 1.997588 0.501114
v -0.130656 2.010656 0.466537
v -0.138704 2.018704 0.429018
v -0.141421 2.021421 0.390000
v -0.138704 2.018704 0.350982
v -0.130656 2.010656 0.313463
v -0.117587 1.997588 0.278886
v -0.100000 1.980000 0.248579
v -0.078569 1.958570 0.223706
v -0.054120 1.934120 0.205224
v -0.027590 1.907590 0.193843
v -0.014932 1.916048 0.586157
v -0.029289 1.950711 0.574776
v -0.042521 1.982656 0.556294
v -0.054120 2.010656 0.531421
v -0.063638 2.033636 0.501114
v -0.070711 2.050711 0.466537
v -0.075066 2.061225 0.429018
v -0.076537 2.064776 0.390000
v -0.075066 2.061225 0.350982
v -0.070711 2.050711 0.313463
v -0.063638 2.033636 0.278886
v -0.054120 2.010656 0.248579
v -0.042521 1.982656 0.223706
v -0.029289 1.950711 0.205224
v -0.014932 1.916048 0.193843
v 0.000000 1.956537 0.574776
v 0.000000 1.991114 0.556294
v 0.000000 2.046294 0.501114
v 0.000000 2.080000 0.390000
v 0.000000 2.064776 0.313463
v 0.000000 2.021421 0.248579
vn 0.1520 0.7640 -0.6270
vn 0.1520 0.7640 0.6270
vn 0.1252 0.6294 -0.7669
vn 0.1728 0.8687 0.4643
vn 0.0934 0.4693 -0.8781
vn 0.1870 0.9401 0.2852
vn 0.0576 0.2898 -0.9553
vn 0.1942 0.9762 0.0962
vn 0.0195 0.0980 0.9950
vn 0.0195 0.0980 -0.9950
vn 0.1942 0.9762 -0.0962
vn 0.0576 0.2898 0.9553
vn 0.1870 0.9401 -0.2852
vn 0.0934 0.4693 0.8781
vn 0.1728 0.8687 -0.4643
vn 0.1252 0.6294 0.7669
vn 0.2659 0.3979 0.8781
vn 0.4921 0.7364 -0.4643
vn 0.3565 0.5336 0.7669
vn 0.4328 0.6477 -0.6270
vn 0.4328 0.6477 0.6270
vn 0.3565 0.5336 -0.7669
vn 0.4921 0.7364 0.4643
vn 0.2659 0.3979 -0.8781
vn 0.5325 0.7969 0.2852
vn 0.1642 0.2457 -0.9553
vn 0.5530 0.8276 0.0962
vn 0.0555 0.0831 0.9950
vn 0.0555 0.0831 -0.9950
vn 0.5530 0.8276 -0.0962
vn 0.1642 0.2457 0.9553
vn 0.5325 0.7969 -0.2852
vn 0.7969 0.5325 0.2852
vn 0.2457 0.1642 -0.9553
vn 0.8276 0.5530 0.0962
vn 0.0831 0.0555 0.9950
vn 0.0831 0.0555 -0.9950
vn 0.8276 0.5530 -0.0962
vn 0.2457 0.1642 0.9553
vn 0.7969 0.5325 -0.2852
vn 0.3979 0.2659 0.8781
vn 0.7364 0.4921 -0.4643
vn 0.5336 0.3565 0.7669
vn 0.6477 0.4328 -0.6270
vn 0.6477 0.4328 0.6270
vn 0.5336 0.3565 -0.7669
vn 0.7364 0.4921 0.4643
vn 0.3979 0.2659 -0.8781
vn 0.8687 0.1728 -0.4643
vn 0.6294 0.1252 0.7669
vn 0.7640 0.1520 -0.6270
vn 0.7640 0.1520 0.6270
vn 0.6294 0.1252 -0.7669
vn 0.8687 0.1728 0.4643
vn 0.4693 0.0934 -0.8781
vn 0.9401 0.1870 0.2852
vn 0.2898 0.0576 -0.9553
vn 0.9762 0.1942 0.0962
vn 0.0980 0.0195 0.9950
vn 0.0980 0.0195 -0.9950
vn 0.9762 0.1942 -0.0962
vn 0.2898 0.0576 0.9553
vn 0.9401 0.1870 -0.2852
vn 0.4693 0.0934 0.8781
vn 0.2898 -0.0576 -0.9553
vn 0.9762 -0.1942 0.0962
vn 0.0980 -0.0195 0.9950
vn 0.0980 -0.0195 -0.9950
vn 0.9762 -0.1942 -0.0962
vn 0.2898 -0.0576 0.9553
vn 0.9401 -0.1870 -0.2852
vn 0.4693 -0.0934 0.8781
vn 0.8687 -0.1728 -0.4643
vn 0.6294 -0.1252 0.7669
vn 0.7640 -0.1520 -0.6270
vn 0.7640 -0.1520 0.6270
vn 0.6294 -0.1252 -0.7669
vn 0.8687 -0.1728 0.4643
vn 0.4693 -0.0934 -0.8781
vn 0.9401 -0.1870 0.2852
vn 0.6477 -0.4328 -0.6270
vn 0.6477 -0.4328 0.6270
vn 0.5336 -0.3565 -0.7669
vn 0.7364 -0.4921 0.4643
vn 0.3979 -0.2659 -0.8781
vn 0.7969 -0.5325 0.2852
vn 0.2457 -0.1642 -0.9553
vn 0.8276 -0.5530 0.0962
vn 0.0831 -0.0555 0.9950
vn 0.0831 -0.0555 -0.9950
vn 0.8276 -0.5530 -0.0962
vn 0.2457 -0.1642 0.9553
vn 0.7969 -0.5325 -0.2852
vn 0.3979 -0.2659 0.8781
vn 0.7364 -0.4921 -0.4643
vn 0.5336 -0.3565 0.7669
vn 0.0555 -0.0831 0.9950
vn 0.0555 -0.0831 -0.9950
vn 0.5530 -0.8276 -0.0962
vn 0.1642 -0.2457 0.9553
vn 0.5325 -0.7969 -0.2852
vn 0.2659 -0.3979 0.8781
vn 0.4921 -0.7364 -0.4643
vn 0.3565 -0.5336 0.7669
vn 0.4328 -0.6477 -0.6270
vn 0.4328 -0.6477 0.6270
vn 0.3565 -0.5336 -0.7669
vn 0.4921 -0.7364 0.4643
vn 0.2659 -0.3979 -0.8781
vn 0.5325 -0.7969 0.2852
vn 0.1642 -0.2457 -0.9553
vn 0.5530 -0.8276 0.0962
vn 0.1520 -0.7640 0.6270
vn 0.1252 -0.6294 -0.7669
vn 0.1728 -0.8687 0.4643
vn 0.0934 -0.4693 -0.8781
vn 0.1870 -0.9401 0.2852
vn 0.0576 -0.2898 -0.9553
vn 0.1942 -0.9762 0.0962
vn 0.0195 -0.0980 0.9950
vn 0.0195 -0.0980 -0.9950
vn 0.1942 -0.9762 -0.0962
vn 0.0576 -0.2898 0.9553
vn 0.1870 -0.9401 -0.2852
vn 0.0934 -0.4693 0.8781
vn 0.1728 -0.8687 -0.4643
vn 0.1252 -0.6294 0.7669
vn 0.1520 -0.7640 -0.6270
vn -0.1942 -0.9762 -0.0962
vn -0.0576 -0.2898 0.9553
vn -0.1870 -0.9401 -0.2852
vn -0.0934 -0.4693 0.8781
vn -0.1728 -0.8687 -0.4643
vn -0.1252 -0.6294 0.7669
vn -0.1520 -0.7640 -0.6270
vn -0.1520 -0.7640 0.6270
vn -0.1252 -0.6294 -0.7669
vn -0.1728 -0.8687 0.4643
vn -0.0934 -0.4693 -0.8781
vn -0.1870 -0.9401 0.2852
vn -0.0576 -0.2898 -0.9553
vn -0.1942 -0.9762 0.0962
vn -0.0195 -0.0980 0.9950
vn -0.0195 -0.0980 -0.9950
vn -0.3565 -0.5336 -0.7669
vn -0.4921 -0.7364 0.4643
vn -0.2659 -0.3979 -0.8781
vn -0.5325 -0.7969 0.2852
vn -0.1642 -0.2457 -0.9553
vn -0.5530 -0.8276 0.0962
vn -0.0555 -0.0831 0.9950
vn -0.0555 -0.0831 -0.9950
vn -0.5530 -0.8276 -0.0962
vn -0.1642 -0.2457 0.9553
vn -0.5325 -0.7969 -0.2852
vn -0.2659 -0.3979 0.8781
vn -0.4921 -0.7364 -0.4643
vn -0.3565 -0.5336 0.7669
vn -0.4328 -0.6477 -0.6270
vn -0.4328 -0.6477 0.6270
vn -0.2457 -0.1642 0.9553
vn -0.7969 -0.5325 -0.2852
vn -0.3979 -0.2659 0.8781
vn -0.7364 -0.4921 -0.4643
vn -0.5336 -0.3565 0.7669
vn -0.6477 -0.4328 -0.6270
vn -0.6477 -0.4328 0.6270
vn -0.5336 -0.3565 -0.7669
vn -0.7364 -0.4921 0.4643
vn -0.3979 -0.2659 -0.8781
vn -0.7969 -0.5325 0.2852
vn -0.2457 -0.1642 -0.9553
vn -0.8276 -0.5530 0.0962
vn -0.0831 -0.0555 0.9950
vn -0.0831 -0.0555 -0.9950
vn -0.8276 -0.5530 -0.0962
vn -0.8687 -0.1728 0.4643
vn -0.4693 -0.0934 -0.8781
vn -0.9401 -0.1870 0.2852
vn -0.2898 -0.0576 -0.9553
vn -0.9762 -0.1942 0.0962
vn -0.0980 -0.0195 0.9950
vn -0.0980 -0.0195 -0.9950
vn -0.9762 -0.1942 -0.0962
vn -0.2898 -0.0576 0.9553
vn -0.9401 -0.1870 -0.2852
vn -0.4693 -0.0934 0.8781
vn -0.8687 -0.1728 -0.4643
vn -0.6294 -0.1252 0.7669
vn -0.7640 -0.1520 -0.6270
vn -0.7640 -0.1520 0.6270
vn -0.6294 -0.1252 -0.7669
vn -0.9401 0.1870 -0.2852
vn -0.4693 0.0934 0.8781
vn -0.8687 0.1728 -0.4643
vn -0.6294 0.1252 0.7669
vn -0.7640 0.1520 -0.6270
vn -0.7640 0.1520 0.6270
vn -0.6294 0.1252 -0.7669
vn -0.8687 0.1728 0.4643
vn -0.4693 0.0934 -0.8781
vn -0.9401 0.1870 0.2852
vn -0.2898 0.0576 -0.9553
vn -0.9762 0.1942 0.0962
vn -0.0980 0.0195 0.9950
vn -0.0980 0.0195 -0.9950
vn -0.9762 0.1942 -0.0962
vn -0.2898 0.0576 0.9553
vn -0.3979 0.2659 -0.8781
vn -0.7969 0.5325 0.2852
vn -0.2457 0.1642 -0.9553
vn -0.8276 0.5530 0.0962
vn -0.0831 0.0555 0.9950
vn -0.0831 0.0555 -0.9950
vn -0.8276 0.5530 -0.0962
vn -0.2457 0.1642 0.9553
vn -0.7969 0.5325 -0.2852
vn -0.3979 0.2659 0.8781
vn -0.7364 0.4921 -0.4643
vn -0.5336 0.3565 0.7669
vn -0.6477 0.4328 -0.6270
vn -0.6477 0.4328 0.6270
vn -0.5336 0.3565 -0.7669
vn -0.7364 0.4921 0.4643
vn -0.4921 0.7364 -0.4643
vn -0.3565 0.5336 0.7669
vn -0.4328 0.6477 -0.6270
vn -0.4328 0.6477 0.6270
vn -0.3565 0.5336 -0.7669
vn -0.4921 0.7364 0.4643
vn -0.2659 0.3979 -0.8781
vn -0.5325 0.7969 0.2852
vn -0.1642 0.2457 -0.9553
vn -0.5530 0.8276 0.0962
vn -0.0555 0.0831 0.9950
vn -0.0555 0.0831 -0.9950
vn -0.5530 0.8276 -0.0962
vn -0.1642 0.2457 0.9553
vn -0.5325 0.7969 -0.2852
vn -0.2659 0.3979 0.8781
vn -0.0576 0.2898 -0.9553
vn -0.1942 0.9762 0.0962
vn -0.0195 0.0980 0.9950
vn -0.0195 0.0980 -0.9950
vn -0.1942 0.9762 -0.0962
vn -0.0576 0.2898 0.9553
vn -0.1870 0.9401 -0.2852
vn -0.0934 0.4693 0.8781
vn -0.1728 0.8687 -0.4643
vn -0.1252 0.6294 0.7669
vn -0.1520 0.7640 -0.6270
vn -0.1520 0.7640 0.6270
vn -0.1252 0.6294 -0.7669
vn -0.1728 0.8687 0.4643
vn -0.0934 0.4693 -0.8781
vn -0.1870 0.9401 0.2852
vt 0.750000 0.250000
vt 0.750000 0.312500
vt 0.687500 0.312500
vt 0.687500 0.250000
vt 0.750000 0.687500
vt 0.750000 0.750000
vt 0.687500 0.750000
vt 0.687500 0.687500
vt 0.750000 0.187500
vt 0.687500 0.187500
vt 0.750000 0.625000
vt 0.687500 0.625000
vt 0.750000 0.125000
vt 0.687500 0.125000
vt 0.750000 0.562500
vt 0.687500 0.562500
vt 0.750000 0.062500
vt 0.687500 0.062500
vt 0.750000 0.500000
vt 0.687500 0.500000
vt 0.750000 0.937500
vt 0.718750 1.000000
vt 0.687500 0.937500
vt 0.718750 0.000000
vt 0.750000 0.437500
vt 0.687500 0.437500
vt 0.750000 0.875000
vt 0.687500 0.875000
vt 0.750000 0.375000
vt 0.687500 0.375000
vt 0.750000 0.812500
vt 0.687500 0.812500
vt 0.625000 0.875000
vt 0.625000 0.812500
vt 0.625000 0.375000
vt 0.625000 0.312500
vt 0.625000 0.750000
vt 0.625000 0.250000
vt 0.625000 0.687500
vt 0.625000 0.187500
vt 0.625000 0.625000
vt 0.625000 0.125000
vt 0.625000 0.562500
vt 0.625000 0.062500
vt 0.625000 0.500000
vt 0.656250 1.000000
vt 0.625000 0.937500
vt 0.656250 0.000000
vt 0.625000 0.437500
vt 0.562500 0.625000
vt 0.562500 0.562500
vt 0.562500 0.125000
vt 0.562500 0.062500
vt 0.562500 0.500000
vt 0.593750 1.000000
vt 0.562500 0.937500
vt 0.593750 0.000000
vt 0.562500 0.437500
vt 0.562500 0.875000
vt 0.562500 0.375000
vt 0.562500 0.812500
vt 0.562500 0.312500
vt 0.562500 0.750000
vt 0.562500 0.250000
vt 0.562500 0.687500
vt 0.562500 0.187500
vt 0.500000 0.375000
vt 0.500000 0.312500
vt 0.500000 0.812500
vt 0.500000 0.750000
vt 0.500000 0.250000
vt 0.500000 0.687500
vt 0.500000 0.187500
vt 0.500000 0.625000
vt 0.500000 0.125000
vt 0.500000 0.562500
vt 0.500000 0.062500
vt 0.500000 0.500000
vt 0.531250 1.000000
vt 0.500000 0.937500
vt 0.531250 0.000000
vt 0.500000 0.437500
vt 0.500000 0.875000
vt 0.437500 0.125000
vt 0.437500 0.062500
vt 0.437500 0.562500
vt 0.437500 0.500000
vt 0.468750 1.000000
vt 0.437500 0.937500
vt 0.468750 0.000000
vt 0.437500 0.437500
vt 0.437500 0.875000
vt 0.437500 0.375000
vt 0.437500 0.812500
vt 0.437500 0.312500
vt 0.437500 0.750000
vt 0.437500 0.250000
vt 0.437500 0.687500
vt 0.437500 0.187500
vt 0.437500 0.625000
vt 0.375000 0.312500
vt 0.375000 0.250000
vt 0.375000 0.750000
vt 0.375000 0.687500
vt 0.375000 0.187500
vt 0.375000 0.625000
vt 0.375000 0.125000
vt 0.375000 0.562500
vt 0.375000 0.062500
vt 0.375000 0.500000
vt 0.406250 1.000000
vt 0.375000 0.937500
vt 0.406250 0.000000
vt 0.375000 0.437500
vt 0.375000 0.875000
vt 0.375000 0.375000
vt 0.375000 0.812500
vt 0.343750 1.000000
vt 0.312500 0.937500
vt 0.343750 0.000000
vt 0.312500 0.062500
vt 0.312500 0.500000
vt 0.312500 0.437500
vt 0.312500 0.875000
vt 0.312500 0.375000
vt 0.312500 0.812500
vt 0.312500 0.312500
vt 0.312500 0.750000
vt 0.312500 0.250000
vt 0.312500 0.687500
vt 0.312500 0.187500
vt 0.312500 0.625000
vt 0.312500 0.125000
vt 0.312500 0.562500
vt 0.250000 0.750000
vt 0.250000 0.687500
vt 0.250000 0.250000
vt 0.250000 0.187500
vt 0.250000 0.625000
vt 0.250000 0.125000
vt 0.250000 0.562500
vt 0.250000 0.062500
vt 0.250000 0.500000
vt 0.281250 1.000000
vt 0.250000 0.937500
vt 0.281250 0.000000
vt 0.250000 0.437500
vt 0.250000 0.875000
vt 0.250000 0.375000
vt 0.250000 0.812500
vt 0.250000 0.312500
vt 0.187500 0.500000
vt 0.187500 0.437500
vt 0.187500 0.937500
vt 0.187500 0.875000
vt 0.187500 0.375000
vt 0.187500 0.812500
vt 0.187500 0.312500
vt 0.187500 0.750000
vt 0.187500 0.250000
vt 0.187500 0.687500
vt 0.187500 0.187500
vt 0.187500 0.625000
vt 0.187500 0.125000
vt 0.187500 0.562500
vt 0.187500 0.062500
vt 0.218750 1.000000
vt 0.218750 0.000000
vt 0.125000 0.250000
vt 0.125000 0.187500
vt 0.125000 0.687500
vt 0.125000 0.625000
vt 0.125000 0.125000
vt 0.125000 0.562500
vt 0.125000 0.062500
vt 0.125000 0.500000
vt 0.156250 1.000000
vt 0.125000 0.937500
vt 0.156250 0.000000
vt 0.125000 0.437500
vt 0.125000 0.875000
vt 0.125000 0.375000
vt 0.125000 0.812500
vt 0.125000 0.312500
vt 0.125000 0.750000
vt 0.062500 0.937500
vt 0.062500 0.875000
vt 0.062500 0.437500
vt 0.062500 0.375000
vt 0.062500 0.812500
vt 0.062500 0.312500
vt 0.062500 0.750000
vt 0.062500 0.250000
vt 0.062500 0.687500
vt 0.062500 0.187500
vt 0.062500 0.625000
vt 0.062500 0.125000
vt 0.062500 0.562500
vt 0.062500 0.062500
vt 0.062500 0.500000
vt 0.093750 1.000000
vt 0.093750 0.000000
vt 0.000000 0.687500
vt 0.000000 0.625000
vt 0.000000 0.187500
vt 0.000000 0.125000
vt 0.000000 0.562500
vt 0.000000 0.062500
vt 0.000000 0.500000
vt 0.031250 1.000000
vt 0.000000 0.937500
vt 0.031250 0.000000
vt 0.000000 0.437500
vt 0.000000 0.875000
vt 0.000000 0.375000
vt 0.000000 0.812500
vt 0.000000 0.312500
vt 0.000000 0.750000
vt 0.000000 0.250000
vt 1.000000 0.375000
vt 1.000000 0.437500
vt 0.937500 0.437500
vt 0.937500 0.375000
vt 1.000000 0.812500
vt 1.000000 0.875000
vt 0.937500 0.875000
vt 0.937500 0.812500
vt 1.000000 0.312500
vt 0.937500 0.312500
vt 1.000000 0.750000
vt 0.937500 0.750000
vt 1.000000 0.250000
vt 0.937500 0.250000
vt 1.000000 0.687500
vt 0.937500 0.687500
vt 1.000000 0.187500
vt 0.937500 0.187500
vt 1.000000 0.625000
vt 0.937500 0.625000
vt 1.000000 0.125000
vt 0.937500 0.125000
vt 1.000000 0.562500
vt 0.937500 0.562500
vt 1.000000 0.062500
vt 0.937500 0.062500
vt 1.000000 0.500000
vt 0.937500 0.500000
vt 1.000000 0.937500
vt 0.968750 1.000000
vt 0.937500 0.937500
vt 0.968750 0.000000
vt 0.875000 0.187500
vt 0.875000 0.125000
vt 0.875000 0.625000
vt 0.875000 0.562500
vt 0.875000 0.062500
vt 0.875000 0.500000
vt 0.906250 1.000000
vt 0.875000 0.937500
vt 0.906250 0.000000
vt 0.875000 0.437500
vt 0.875000 0.875000
vt 0.875000 0.375000
vt 0.875000 0.812500
vt 0.875000 0.312500
vt 0.875000 0.750000
vt 0.875000 0.250000
vt 0.875000 0.687500
vt 0.812500 0.375000
vt 0.812500 0.312500
vt 0.812500 0.812500
vt 0.812500 0.750000
vt 0.812500 0.250000
vt 0.812500 0.687500
vt 0.812500 0.187500
vt 0.812500 0.625000
vt 0.812500 0.125000
vt 0.812500 0.562500
vt 0.812500 0.062500
vt 0.812500 0.500000
vt 0.843750 1.000000
vt 0.812500 0.937500
vt 0.843750 0.000000
vt 0.812500 0.437500
vt 0.812500 0.875000
vt 0.781250 1.000000
vt 0.781250 0.000000
s 0
usemtl Titan_SolarRune
f 282/81/25 47/82/25 62/83/25 63/84/25
f 279/85/26 43/86/26 55/87/26 56/88/26
f 48/89/27 282/81/27 63/84/27 64/90/27
f 44/91/28 279/85/28 56/88/28 57/92/28
f 49/93/29 48/89/29 64/90/29 65/94/29
f 45/95/30 44/91/30 57/92/30 58/96/30
f 50/97/31 49/93/31 65/94/31 66/98/31
f 280/99/32 45/95/32 58/96/32 59/100/32
f 42/101/33 41/102/33 52/103/33
f 51/104/34 50/97/34 66/98/34
f 46/105/35 280/99/35 59/100/35 60/106/35
f 277/107/36 42/101/36 52/103/36 53/108/36
f 281/109/37 46/105/37 60/106/37 61/110/37
f 278/111/38 277/107/38 53/108/38 54/112/38
f 47/82/39 281/109/39 61/110/39 62/83/39
f 43/86/40 278/111/40 54/112/40 55/87/40
f 54/112/41 53/108/41 68/113/41 69/114/41
f 62/83/42 61/110/42 76/115/42 77/116/42
f 55/87/43 54/112/43 69/114/43 70/117/43
f 63/84/44 62/83/44 77/116/44 78/118/44
f 56/88/45 55/87/45 70/117/45 71/119/45
f 64/90/46 63/84/46 78/118/46 79/120/46
f 57/92/47 56/88/47 71/119/47 72/121/47
f 65/94/48 64/90/48 79/120/48 80/122/48
f 58/96/49 57/92/49 72/121/49 73/123/49
f 66/98/50 65/94/50 80/122/50 81/124/50
f 59/100/51 58/96/51 73/123/51 74/125/51
f 52/103/52 41/126/52 67/127/52
f 51/128/53 66/98/53 81/124/53
f 60/106/54 59/100/54 74/125/54 75/129/54
f 53/108/55 52/103/55 67/127/55 68/113/55
f 61/110/56 60/106/56 75/129/56 76/115/56
f 73/123/57 72/121/57 87/130/57 88/131/57
f 81/124/58 80/122/58 95/132/58 96/133/58
f 74/125/59 73/123/59 88/131/59 89/134/59
f 67/127/60 41/135/60 82/136/60
f 51/137/61 81/124/61 96/133/61
f 75/129/62 74/125/62 89/134/62 90/138/62
f 68/113/63 67/127/63 82/136/63 83/139/63
f 76/115/64 75/129/64 90/138/64 91/140/64
f 69/114/65 68/113/65 83/139/65 84/141/65
f 77/116/66 76/115/66 91/140/66 92/142/66
f 70/117/67 69/114/67 84/141/67 85/143/67
f 78/118/68 77/116/68 92/142/68 93/144/68
f 71/119/69 70/117/69 85/143/69 86/145/69
f 79/120/70 78/118/70 93/144/70 94/146/70
f 72/121/71 71/119/71 86/145/71 87/130/71
f 80/122/72 79/120/72 94/146/72 95/132/72
f 92/142/73 91/140/73 106/147/73 107/148/73
f 85/143/74 84/141/74 99/149/74 100/150/74
f 93/144/75 92/142/75 107/148/75 108/151/75
f 86/145/76 85/143/76 100/150/76 101/152/76
f 94/146/77 93/144/77 108/151/77 109/153/77
f 87/130/78 86/145/78 101/152/78 102/154/78
f 95/132/79 94/146/79 109/153/79 110/155/79
f 88/131/80 87/130/80 102/154/80 103/156/80
f 96/133/81 95/132/81 110/155/81 111/157/81
f 89/134/82 88/131/82 103/156/82 104/158/82
f 82/136/83 41/159/83 97/160/83
f 51/161/84 96/133/84 111/157/84
f 90/138/85 89/134/85 104/158/85 105/162/85
f 83/139/86 82/136/86 97/160/86 98/163/86
f 91/140/87 90/138/87 105/162/87 106/147/87
f 84/141/88 83/139/88 98/163/88 99/149/88
f 111/157/89 110/155/89 125/164/89 126/165/89
f 104/158/90 103/156/90 118/166/90 119/167/90
f 97/160/91 41/168/91 112/169/91
f 51/170/92 111/157/92 126/165/92
f 105/162/93 104/158/93 119/167/93 120/171/93
f 98/163/94 97/160/94 112/169/94 113/172/94
f 106/147/95 105/162/95 120/171/95 121/173/95
f 99/149/96 98/163/96 113/172/96 114/174/96
f 107/148/97 106/147/97 121/173/97 122/175/97
f 100/150/98 99/149/98 114/174/98 115/176/98
f 108/151/99 107/148/99 122/175/99 123/177/99
f 101/152/100 100/150/100 115/176/100 116/178/100
f 109/153/101 108/151/101 123/177/101 124/179/101
f 102/154/102 101/152/102 116/178/102 117/180/102
f 110/155/103 109/153/103 124/179/103 125/164/103
f 103/156/104 102/154/104 117/180/104 118/166/104
f 123/177/105 122/175/105 137/181/105 138/182/105
f 116/178/106 115/176/106 130/183/106 131/184/106
f 124/179/107 123/177/107 138/182/107 139/185/107
f 117/180/108 116/178/108 131/184/108 132/186/108
f 125/164/109 124/179/109 139/185/109 140/187/109
f 118/166/110 117/180/110 132/186/110 133/188/110
f 126/165/111 125/164/111 140/187/111 141/189/111
f 119/167/112 118/166/112 133/188/112 134/190/112
f 112/169/113 41/191/113 127/192/113
f 51/193/114 126/165/114 141/189/114
f 120/171/115 119/167/115 134/190/115 135/194/115
f 113/172/116 112/169/116 127/192/116 128/195/116
f 121/173/117 120/171/117 135/194/117 136/196/117
f 114/174/118 113/172/118 128/195/118 129/197/118
f 122/175/119 121/173/119 136/196/119 137/181/119
f 115/176/120 114/174/120 129/197/120 130/183/120
f 127/192/121 41/198/121 142/199/121
f 51/200/122 141/189/122 156/201/122
f 135/194/123 134/190/123 149/202/123 150/203/123
f 128/195/124 127/192/124 142/199/124 143/204/124
f 136/196/125 135/194/125 150/203/125 151/205/125
f 129/197/126 128/195/126 143/204/126 144/206/126
f 137/181/127 136/196/127 151/205/127 152/207/127
f 130/183/128 129/197/128 144/206/128 145/208/128
f 138/182/129 137/181/129 152/207/129 153/209/129
f 131/184/130 130/183/130 145/208/130 146/210/130
f 139/185/131 138/182/131 153/209/131 154/211/131
f 132/186/132 131/184/132 146/210/132 147/212/132
f 140/187/133 139/185/133 154/211/133 155/213/133
f 133/188/134 132/186/134 147/212/134 148/214/134
f 141/189/135 140/187/135 155/213/135 156/201/135
f 134/190/136 133/188/136 148/214/136 149/202/136
f 146/210/137 145/208/137 160/215/137 161/216/137
f 154/211/138 153/209/138 168/217/138 169/218/138
f 147/212/139 146/210/139 161/216/139 162/219/139
f 155/213/140 154/211/140 169/218/140 170/220/140
f 148/214/141 147/212/141 162/219/141 163/221/141
f 156/201/142 155/213/142 170/220/142 171/222/142
f 149/202/143 148/214/143 163/221/143 164/223/143
f 142/199/144 41/224/144 157/225/144
f 51/226/145 156/201/145 171/222/145
f 150/203/146 149/202/146 164/223/146 165/227/146
f 143/204/147 142/199/147 157/225/147 158/228/147
f 151/205/148 150/203/148 165/227/148 166/229/148
f 144/206/149 143/204/149 158/228/149 159/230/149
f 152/207/150 151/205/150 166/229/150 167/231/150
f 145/208/151 144/206/151 159/230/151 160/215/151
f 153/209/152 152/207/152 167/231/152 168/217/152
f 165/227/153 164/223/153 179/232/153 180/233/153
f 158/228/154 157/225/154 172/234/154 173/235/154
f 166/229/155 165/227/155 180/233/155 181/236/155
f 159/230/156 158/228/156 173/235/156 174/237/156
f 167/231/157 166/229/157 181/236/157 182/238/157
f 160/215/158 159/230/158 174/237/158 175/239/158
f 168/217/159 167/231/159 182/238/159 183/240/159
f 161/216/160 160/215/160 175/239/160 176/241/160
f 169/218/161 168/217/161 183/240/161 184/242/161
f 162/219/162 161/216/162 176/241/162 177/243/162
f 170/220/163 169/218/163 184/242/163 185/244/163
f 163/221/164 162/219/164 177/243/164 178/245/164
f 171/222/165 170/220/165 185/244/165 186/246/165
f 164/223/166 163/221/166 178/245/166 179/232/166
f 157/225/167 41/247/167 172/234/167
f 51/248/168 171/222/168 186/246/168
f 184/242/169 183/240/169 198/249/169 199/250/169
f 177/243/170 176/241/170 191/251/170 192/252/170
f 185/244/171 184/242/171 199/250/171 200/253/171
f 178/245/172 177/243/172 192/252/172 193/254/172
f 186/246/173 185/244/173 200/253/173 201/255/173
f 179/232/174 178/245/174 193/254/174 194/256/174
f 172/234/175 41/257/175 187/258/175
f 51/259/176 186/246/176 201/255/176
f 180/233/177 179/232/177 194/256/177 195/260/177
f 173/235/178 172/234/178 187/258/178 188/261/178
f 181/236/179 180/233/179 195/260/179 196/262/179
f 174/237/180 173/235/180 188/261/180 189/263/180
f 182/238/181 181/236/181 196/262/181 197/264/181
f 175/239/182 174/237/182 189/263/182 190/265/182
f 183/240/183 182/238/183 197/264/183 198/249/183
f 176/241/184 175/239/184 190/265/184 191/251/184
f 188/261/185 187/258/185 202/266/185 203/267/185
f 196/262/186 195/260/186 210/268/186 211/269/186
f 189/263/187 188/261/187 203/267/187 204/270/187
f 197/264/188 196/262/188 211/269/188 212/271/188
f 190/265/189 189/263/189 204/270/189 205/272/189
f 198/249/190 197/264/190 212/271/190 213/273/190
f 191/251/191 190/265/191 205/272/191 206/274/191
f 199/250/192 198/249/192 213/273/192 214/275/192
f 192/252/193 191/251/193 206/274/193 207/276/193
f 200/253/194 199/250/194 214/275/194 215/277/194
f 193/254/195 192/252/195 207/276/195 208/278/195
f 201/255/196 200/253/196 215/277/196 216/279/196
f 194/256/197 193/254/197 208/278/197 209/280/197
f 187/258/198 41/281/198 202/266/198
f 51/282/199 201/255/199 216/279/199
f 195/260/200 194/256/200 209/280/200 210/268/200
f 207/276/201 206/274/201 221/283/201 222/284/201
f 215/277/202 214/275/202 229/285/202 230/286/202
f 208/278/203 207/276/203 222/284/203 223/287/203
f 216/279/204 215/277/204 230/286/204 231/288/204
f 209/280/205 208/278/205 223/287/205 224/289/205
f 202/266/206 41/290/206 217/291/206
f 51/292/207 216/279/207 231/288/207
f 210/268/208 209/280/208 224/289/208 225/293/208
f 203/267/209 202/266/209 217/291/209 218/294/209
f 211/269/210 210/268/210 225/293/210 226/295/210
f 204/270/211 203/267/211 218/294/211 219/296/211
f 212/271/212 211/269/212 226/295/212 227/297/212
f 205/272/213 204/270/213 219/296/213 220/298/213
f 213/273/214 212/271/214 227/297/214 228/299/214
f 206/274/215 205/272/215 220/298/215 221/283/215
f 214/275/216 213/273/216 228/299/216 229/285/216
f 226/300/217 225/301/217 240/302/217 241/303/217
f 219/304/218 218/305/218 233/306/218 234/307/218
f 227/308/219 226/300/219 241/303/219 242/309/219
f 220/310/220 219/304/220 234/307/220 235/311/220
f 228/312/221 227/308/221 242/309/221 243/313/221
f 221/314/222 220/310/222 235/311/222 236/315/222
f 229/316/223 228/312/223 243/313/223 244/317/223
f 222/318/224 221/314/224 236/315/224 237/319/224
f 230/320/225 229/316/225 244/317/225 245/321/225
f 223/322/226 222/318/226 237/319/226 238/323/226
f 231/324/227 230/320/227 245/321/227 246/325/227
f 224/326/228 223/322/228 238/323/228 239/327/228
f 217/328/229 41/329/229 232/330/229
f 51/331/230 231/324/230 246/325/230
f 225/301/231 224/326/231 239/327/231 240/302/231
f 218/305/232 217/328/232 232/330/232 233/306/232
f 245/321/233 244/317/233 259/332/233 260/333/233
f 238/323/234 237/319/234 252/334/234 253/335/234
f 246/325/235 245/321/235 260/333/235 261/336/235
f 239/327/236 238/323/236 253/335/236 254/337/236
f 232/330/237 41/338/237 247/339/237
f 51/340/238 246/325/238 261/336/238
f 240/302/239 239/327/239 254/337/239 255/341/239
f 233/306/240 232/330/240 247/339/240 248/342/240
f 241/303/241 240/302/241 255/341/241 256/343/241
f 234/307/242 233/306/242 248/342/242 249/344/242
f 242/309/243 241/303/243 256/343/243 257/345/243
f 235/311/244 234/307/244 249/344/244 250/346/244
f 243/313/245 242/309/245 257/345/245 258/347/245
f 236/315/246 235/311/246 250/346/246 251/348/246
f 244/317/247 243/313/247 258/347/247 259/332/247
f 237/319/248 236/315/248 251/348/248 252/334/248
f 257/345/249 256/343/249 271/349/249 272/350/249
f 250/346/250 249/344/250 264/351/250 265/352/250
f 258/347/251 257/345/251 272/350/251 273/353/251
f 251/348/252 250/346/252 265/352/252 266/354/252
f 259/332/253 258/347/253 273/353/253 274/355/253
f 252/334/254 251/348/254 266/354/254 267/356/254
f 260/333/255 259/332/255 274/355/255 275/357/255
f 253/335/256 252/334/256 267/356/256 268/358/256
f 261/336/257 260/333/257 275/357/257 276/359/257
f 254/337/258 253/335/258 268/358/258 269/360/258
f 247/339/259 41/361/259 262/362/259
f 51/363/260 261/336/260 276/359/260
f 255/341/261 254/337/261 269/360/261 270/364/261
f 248/342/262 247/339/262 262/362/262 263/365/262
f 256/343/263 255/341/263 270/364/263 271/349/263
f 249/344/264 248/342/264 263/365/264 264/351/264
f 276/359/265 275/357/265 49/93/265 50/97/265
f 269/360/266 268/358/266 45/95/266 280/99/266
f 262/362/267 41/366/267 42/101/267
f 51/367/268 276/359/268 50/97/268
f 270/364/269 269/360/269 280/99/269 46/105/269
f 263/365/270 262/362/270 42/101/270 277/107/270
f 271/349/271 270/364/271 46/105/271 281/109/271
f 264/351/272 263/365/272 277/107/272 278/111/272
f 272/350/273 271/349/273 281/109/273 47/82/273
f 265/352/274 264/351/274 278/111/274 43/86/274
f 273/353/275 272/350/275 47/82/275 282/81/275
f 266/354/276 265/352/276 43/86/276 279/85/276
f 274/355/277 273/353/277 282/81/277 48/89/277
f 267/356/278 266/354/278 279/85/278 44/91/278
f 275/357/279 274/355/279 48/89/279 49/93/279
f 268/358/280 267/356/280 44/91/280 45/95/280
o Chest_Monolith
v -0.700000 0.405000 -0.500000
v -0.700000 0.405000 0.500000
v -0.700000 1.555000 -0.500000
v -0.700000 1.555000 0.500000
v 0.700000 0.405000 -0.500000
v 0.700000 0.405000 0.500000
v 0.700000 1.555000 -0.500000
v 0.700000 1.555000 0.500000
vn -1.0000 -0.0000 -0.0000
vn -0.0000 1.0000 -0.0000
vn 1.0000 -0.0000 -0.0000
vn -0.0000 -1.0000 -0.0000
vn -0.0000 -0.0000 -1.0000
vn -0.0000 -0.0000 1.0000
vt 0.375000 0.000000
vt 0.625000 0.000000
vt 0.625000 0.250000
vt 0.375000 0.250000
vt 0.625000 0.500000
vt 0.375000 0.500000
vt 0.625000 0.750000
vt 0.375000 0.750000
vt 0.625000 1.000000
vt 0.375000 1.000000
vt 0.125000 0.500000
vt 0.125000 0.750000
vt 0.875000 0.500000
vt 0.875000 0.750000
s 0
usemtl Titan_AncientStone
f 283/368/281 284/369/281 286/370/281 285/371/281
f 285/371/282 286/370/282 290/372/282 289/373/282
f 289/373/283 290/372/283 288/374/283 287/375/283
f 287/375/284 288/374/284 284/376/284 283/377/284
f 285/378/285 289/373/285 287/375/285 283/379/285
f 290/372/286 286/380/286 284/381/286 288/374/286
o Rune_Line_H
v -0.625000 1.030000 -0.510000
v -0.625000 1.030000 0.510000
v -0.625000 1.130000 -0.510000
v -0.625000 1.130000 0.510000
v 0.625000 1.030000 -0.510000
v 0.625000 1.030000 0.510000
v 0.625000 1.130000 -0.510000
v 0.625000 1.130000 0.510000
vn -1.0000 -0.0000 -0.0000
vn -0.0000 1.0000 -0.0000
vn 1.0000 -0.0000 -0.0000
vn -0.0000 -1.0000 -0.0000
vn -0.0000 -0.0000 -1.0000
vn -0.0000 -0.0000 1.0000
vt 0.375000 0.000000
vt 0.625000 0.000000
vt 0.625000 0.250000
vt 0.375000 0.250000
vt 0.625000 0.500000
vt 0.375000 0.500000
vt 0.625000 0.750000
vt 0.375000 0.750000
vt 0.625000 1.000000
vt 0.375000 1.000000
vt 0.125000 0.500000
vt 0.125000 0.750000
vt 0.875000 0.500000
vt 0.875000 0.750000
s 0
usemtl Titan_SolarRune
f 291/382/287 292/383/287 294/384/287 293/385/287
f 293/385/288 294/384/288 298/386/288 297/387/288
f 297/387/289 298/386/289 296/388/289 295/389/289
f 295/389/290 296/388/290 292/390/290 291/391/290
f 293/392/291 297/387/291 295/389/291 291/393/291
f 298/386/292 294/394/292 292/395/292 296/388/292
o Rune_Line_V
v -0.050000 0.505000 -0.510000
v -0.050000 0.505000 0.510000
v -0.050000 1.455000 -0.510000
v -0.050000 1.455000 0.510000
v 0.050000 0.505000 -0.510000
v 0.050000 0.505000 0.510000
v 0.050000 1.455000 -0.510000
v 0.050000 1.455000 0.510000
vn -1.0000 -0.0000 -0.0000
vn -0.0000 1.0000 -0.0000
vn 1.0000 -0.0000 -0.0000
vn -0.0000 -1.0000 -0.0000
vn -0.0000 -0.0000 -1.0000
vn -0.0000 -0.0000 1.0000
vt 0.375000 0.000000
vt 0.625000 0.000000
vt 0.625000 0.250000
vt 0.375000 0.250000
vt 0.625000 0.500000
vt 0.375000 0.500000
vt 0.625000 0.750000
vt 0.375000 0.750000
vt 0.625000 1.000000
vt 0.375000 1.000000
vt 0.125000 0.500000
vt 0.125000 0.750000
vt 0.875000 0.500000
vt 0.875000 0.750000
s 0
usemtl Titan_SolarRune
f 299/396/293 300/397/293 302/398/293 301/399/293
f 301/399/294 302/398/294 306/400/294 305/401/294
f 305/401/295 306/400/295 304/402/295 303/403/295
f 303/403/296 304/402/296 300/404/296 299/405/296
f 301/406/297 305/401/297 303/403/297 299/407/297
f 306/400/298 302/408/298 300/409/298 304/402/298
o Pauldron_L
v -1.450000 1.120000 -0.350000
v -1.450000 1.120000 0.350000
v -1.450000 1.640000 -0.350000
v -1.450000 1.640000 0.350000
v -0.750000 1.120000 -0.350000
v -0.750000 1.120000 0.350000
v -0.750000 1.640000 -0.350000
v -0.750000 1.640000 0.350000
vn -1.0000 -0.0000 -0.0000
vn -0.0000 1.0000 -0.0000
vn 1.0000 -0.0000 -0.0000
vn -0.0000 -1.0000 -0.0000
vn -0.0000 -0.0000 -1.0000
vn -0.0000 -0.0000 1.0000
vt 0.375000 0.000000
vt 0.625000 0.000000
vt 0.625000 0.250000
vt 0.375000 0.250000
vt 0.625000 0.500000
vt 0.375000 0.500000
vt 0.625000 0.750000
vt 0.375000 0.750000
vt 0.625000 1.000000
vt 0.375000 1.000000
vt 0.125000 0.500000
vt 0.125000 0.750000
vt 0.875000 0.500000
vt 0.875000 0.750000
s 0
usemtl Titan_AncientStone
f 307/410/299 308/411/299 310/412/299 309/413/299
f 309/413/300 310/412/300 314/414/300 313/415/300
f 313/415/301 314/414/301 312/416/301 311/417/301
f 311/417/302 312/416/302 308/418/302 307/419/302
f 309/420/303 313/415/303 311/417/303 307/421/303
f 314/414/304 310/422/304 308/423/304 312/416/304
o Pauldron_R
v 0.750000 1.120000 -0.350000
v 0.750000 1.120000 0.350000
v 0.750000 1.640000 -0.350000
v 0.750000 1.640000 0.350000
v 1.450000 1.120000 -0.350000
v 1.450000 1.120000 0.350000
v 1.450000 1.640000 -0.350000
v 1.450000 1.640000 0.350000
vn -1.0000 -0.0000 -0.0000
vn -0.0000 1.0000 -0.0000
vn 1.0000 -0.0000 -0.0000
vn -0.0000 -1.0000 -0.0000
vn -0.0000 -0.0000 -1.0000
vn -0.0000 -0.0000 1.0000
vt 0.375000 0.000000
vt 0.625000 0.000000
vt 0.625000 0.250000
vt 0.375000 0.250000
vt 0.625000 0.500000
vt 0.375000 0.500000
vt 0.625000 0.750000
vt 0.375000 0.750000
vt 0.625000 1.000000
vt 0.375000 1.000000
vt 0.125000 0.500000
vt 0.125000 0.750000
vt 0.875000 0.500000
vt 0.875000 0.750000
s 0
usemtl Titan_AncientStone
f 315/424/305 316/425/305 318/426/305 317/427/305
f 317/427/306 318/426/306 322/428/306 321/429/306
f 321/429/307 322/428/307 320/430/307 319/431/307
f 319/431/308 320/430/308 316/432/308 315/433/308
f 317/434/309 321/429/309 319/431/309 315/435/309
f 322/428/310 318/436/310 316/437/310 320/430/310
o Fist_L
v -1.425000 0.130000 -0.055000
v -1.425000 0.130000 0.495000
v -1.425000 0.710000 -0.055000
v -1.425000 0.710000 0.495000
v -0.875000 0.130000 -0.055000
v -0.875000 0.130000 0.495000
v -0.875000 0.710000 -0.055000
v -0.875000 0.710000 0.495000
vn -1.0000 -0.0000 -0.0000
vn -0.0000 1.0000 -0.0000
vn 1.0000 -0.0000 -0.0000
vn -0.0000 -1.0000 -0.0000
vn -0.0000 -0.0000 -1.0000
vn -0.0000 -0.0000 1.0000
vt 0.375000 0.000000
vt 0.625000 0.000000
vt 0.625000 0.250000
vt 0.375000 0.250000
vt 0.625000 0.500000
vt 0.375000 0.500000
vt 0.625000 0.750000
vt 0.375000 0.750000
vt 0.625000 1.000000
vt 0.375000 1.000000
vt 0.125000 0.500000
vt 0.125000 0.750000
vt 0.875000 0.500000
vt 0.875000 0.750000
s 0
usemtl Titan_RunicIron
f 323/438/311 324/439/311 326/440/311 325/441/311
f 325/441/312 326/440/312 330/442/312 329/443/312
f 329/443/313 330/442/313 328/444/313 327/445/313
f 327/445/314 328/444/314 324/446/314 323/447/314
f 325/448/315 329/443/315 327/445/315 323/449/315
f 330/442/316 326/450/316 324/451/316 328/444/316
o Fist_R
v 0.875000 0.130000 -0.055000
v 0.875000 0.130000 0.495000
v 0.875000 0.710000 -0.055000
v 0.875000 0.710000 0.495000
v 1.425000 0.130000 -0.055000
v 1.425000 0.130000 0.495000
v 1.425000 0.710000 -0.055000
v 1.425000 0.710000 0.495000
vn -1.0000 -0.0000 -0.0000
vn -0.0000 1.0000 -0.0000
vn 1.0000 -0.0000 -0.0000
vn -0.0000 -1.0000 -0.0000
vn -0.0000 -0.0000 -1.0000
vn -0.0000 -0.0000 1.0000
vt 0.375000 0.000000
vt 0.625000 0.000000
vt 0.625000 0.250000
vt 0.375000 0.250000
vt 0.625000 0.500000
vt 0.375000 0.500000
vt 0.625000 0.750000
vt 0.375000 0.750000
vt 0.625000 1.000000
vt 0.375000 1.000000
vt 0.125000 0.500000
vt 0.125000 0.750000
vt 0.875000 0.500000
vt 0.875000 0.750000
s 0
usemtl Titan_RunicIron
f 331/452/317 332/453/317 334/454/317 333/455/317
f 333/455/318 334/454/318 338/456/318 337/457/318
f 337/457/319 338/456/319 336/458/319 335/459/319
f 335/459/320 336/458/320 332/460/320 331/461/320
f 333/462/321 337/457/321 335/459/321 331/463/321
f 338/456/322 334/464/322 332/465/322 336/458/322
o Leg_L
v -0.480000 0.250000 -0.475000
v -0.480000 0.250000 0.475000
v -0.365195 0.227164 -0.475000
v -0.365195 0.227164 0.475000
v -0.267868 0.162132 -0.475000
v -0.267868 0.162132 0.475000
v -0.202836 0.064805 -0.475000
v -0.202836 0.064805 0.475000
v -0.180000 -0.050000 -0.475000
v -0.180000 -0.050000 0.475000
v -0.202836 -0.164805 -0.475000
v -0.202836 -0.164805 0.475000
v -0.267868 -0.262132 -0.475000
v -0.267868 -0.262132 0.475000
v -0.365195 -0.327164 -0.475000
v -0.365195 -0.327164 0.475000
v -0.480000 -0.350000 -0.475000
v -0.480000 -0.350000 0.475000
v -0.594805 -0.327164 -0.475000
v -0.594805 -0.327164 0.475000
v -0.692132 -0.262132 -0.475000
v -0.692132 -0.262132 0.475000
v -0.757164 -0.164805 -0.475000
v -0.757164 -0.164805 0.475000
v -0.780000 -0.050000 -0.475000
v -0.780000 -0.050000 0.475000
v -0.757164 0.064805 -0.475000
v -0.757164 0.064805 0.475000
v -0.692132 0.162132 -0.475000
v -0.692132 0.162132 0.475000
v -0.594805 0.227164 -0.475000
v -0.594805 0.227164 0.475000
vn 0.1951 0.9808 -0.0000
vn 0.5556 0.8315 -0.0000
vn 0.8315 0.5556 -0.0000
vn 0.9808 0.1951 -0.0000
vn 0.9808 -0.1951 -0.0000
vn 0.8315 -0.5556 -0.0000
vn 0.5556 -0.8315 -0.0000
vn 0.1951 -0.9808 -0.0000
vn -0.1951 -0.9808 -0.0000
vn -0.5556 -0.8315 -0.0000
vn -0.8315 -0.5556 -0.0000
vn -0.9808 -0.1951 -0.0000
vn -0.9808 0.1951 -0.0000
vn -0.8315 0.5556 -0.0000
vn -0.0000 -0.0000 1.0000
vn -0.5556 0.8315 -0.0000
vn -0.1951 0.9808 -0.0000
vn -0.0000 -0.0000 -1.0000
vt 1.000000 0.500000
vt 1.000000 1.000000
vt 0.937500 1.000000
vt 0.937500 0.500000
vt 0.875000 1.000000
vt 0.875000 0.500000
vt 0.812500 1.000000
vt 0.812500 0.500000
vt 0.750000 1.000000
vt 0.750000 0.500000
vt 0.687500 1.000000
vt 0.687500 0.500000
vt 0.625000 1.000000
vt 0.625000 0.500000
vt 0.562500 1.000000
vt 0.562500 0.500000
vt 0.500000 1.000000
vt 0.500000 0.500000
vt 0.437500 1.000000
vt 0.437500 0.500000
vt 0.375000 1.000000
vt 0.375000 0.500000
vt 0.312500 1.000000
vt 0.312500 0.500000
vt 0.250000 1.000000
vt 0.250000 0.500000
vt 0.187500 1.000000
vt 0.187500 0.500000
vt 0.125000 1.000000
vt 0.125000 0.500000
vt 0.341844 0.471731
vt 0.250000 0.490000
vt 0.158156 0.471731
vt 0.080294 0.419706
vt 0.028269 0.341844
vt 0.010000 0.250000
vt 0.028269 0.158156
vt 0.080294 0.080294
vt 0.158156 0.028269
vt 0.250000 0.010000
vt 0.341844 0.028269
vt 0.419706 0.080294
vt 0.471731 0.158156
vt 0.490000 0.250000
vt 0.471731 0.341844
vt 0.419706 0.419706
vt 0.062500 1.000000
vt 0.062500 0.500000
vt 0.000000 1.000000
vt 0.000000 0.500000
vt 0.750000 0.490000
vt 0.841844 0.471731
vt 0.919706 0.419706
vt 0.971731 0.341844
vt 0.990000 0.250000
vt 0.971731 0.158156
vt 0.919706 0.080294
vt 0.841844 0.028269
vt 0.750000 0.010000
vt 0.658156 0.028269
vt 0.580294 0.080294
vt 0.528269 0.158156
vt 0.510000 0.250000
vt 0.528269 0.341844
vt 0.580294 0.419706
vt 0.658156 0.471731
s 0
usemtl Titan_AncientStone
f 339/466/323 340/467/323 342/468/323 341/469/323
f 341/469/324 342/468/324 344/470/324 343/471/324
f 343/471/325 344/470/325 346/472/325 345/473/325
f 345/473/326 346/472/326 348/474/326 347/475/326
f 347/475/327 348/474/327 350/476/327 349/477/327
f 349/477/328 350/476/328 352/478/328 351/479/328
f 351/479/329 352/478/329 354/480/329 353/481/329
f 353/481/330 354/480/330 356/482/330 355/483/330
f 355/483/331 356/482/331 358/484/331 357/485/331
f 357/485/332 358/484/332 360/486/332 359/487/332
f 359/487/333 360/486/333 362/488/333 361/489/333
f 361/489/334 362/488/334 364/490/334 363/491/334
f 363/491/335 364/490/335 366/492/335 365/493/335
f 365/493/336 366/492/336 368/494/336 367/495/336
f 342/496/337 340/497/337 370/498/337 368/499/337 366/500/337 364/501/337 362/502/337 360/503/337 358/504/337 356/505/337 354/506/337 352/507/337 350/508/337 348/509/337 346/510/337 344/511/337
f 367/495/338 368/494/338 370/512/338 369/513/338
f 369/513/339 370/512/339 340/514/339 339/515/339
f 339/516/340 341/517/340 343/518/340 345/519/340 347/520/340 349/521/340 351/522/340 353/523/340 355/524/340 357/525/340 359/526/340 361/527/340 363/528/340 365/529/340 367/530/340 369/531/340
o Leg_R
v 0.480000 0.250000 -0.475000
v 0.480000 0.250000 0.475000
v 0.594805 0.227164 -0.475000
v 0.594805 0.227164 0.475000
v 0.692132 0.162132 -0.475000
v 0.692132 0.162132 0.475000
v 0.757164 0.064805 -0.475000
v 0.757164 0.064805 0.475000
v 0.780000 -0.050000 -0.475000
v 0.780000 -0.050000 0.475000
v 0.757164 -0.164805 -0.475000
v 0.757164 -0.164805 0.475000
v 0.692132 -0.262132 -0.475000
v 0.692132 -0.262132 0.475000
v 0.594805 -0.327164 -0.475000
v 0.594805 -0.327164 0.475000
v 0.480000 -0.350000 -0.475000
v 0.480000 -0.350000 0.475000
v 0.365195 -0.327164 -0.475000
v 0.365195 -0.327164 0.475000
v 0.267868 -0.262132 -0.475000
v 0.267868 -0.262132 0.475000
v 0.202836 -0.164805 -0.475000
v 0.202836 -0.164805 0.475000
v 0.180000 -0.050000 -0.475000
v 0.180000 -0.050000 0.475000
v 0.202836 0.064805 -0.475000
v 0.202836 0.064805 0.475000
v 0.267868 0.162132 -0.475000
v 0.267868 0.162132 0.475000
v 0.365195 0.227164 -0.475000
v 0.365195 0.227164 0.475000
vn 0.1951 0.9808 -0.0000
vn 0.5556 0.8315 -0.0000
vn 0.8315 0.5556 -0.0000
vn 0.9808 0.1951 -0.0000
vn 0.9808 -0.1951 -0.0000
vn 0.8315 -0.5556 -0.0000
vn 0.5556 -0.8315 -0.0000
vn 0.1951 -0.9808 -0.0000
vn -0.1951 -0.9808 -0.0000
vn -0.5556 -0.8315 -0.0000
vn -0.8315 -0.5556 -0.0000
vn -0.9808 -0.1951 -0.0000
vn -0.9808 0.1951 -0.0000
vn -0.8315 0.5556 -0.0000
vn -0.0000 -0.0000 1.0000
vn -0.5556 0.8315 -0.0000
vn -0.1951 0.9808 -0.0000
vn -0.0000 -0.0000 -1.0000
vt 1.000000 0.500000
vt 1.000000 1.000000
vt 0.937500 1.000000
vt 0.937500 0.500000
vt 0.875000 1.000000
vt 0.875000 0.500000
vt 0.812500 1.000000
vt 0.812500 0.500000
vt 0.750000 1.000000
vt 0.750000 0.500000
vt 0.687500 1.000000
vt 0.687500 0.500000
vt 0.625000 1.000000
vt 0.625000 0.500000
vt 0.562500 1.000000
vt 0.562500 0.500000
vt 0.500000 1.000000
vt 0.500000 0.500000
vt 0.437500 1.000000
vt 0.437500 0.500000
vt 0.375000 1.000000
vt 0.375000 0.500000
vt 0.312500 1.000000
vt 0.312500 0.500000
vt 0.250000 1.000000
vt 0.250000 0.500000
vt 0.187500 1.000000
vt 0.187500 0.500000
vt 0.125000 1.000000
vt 0.125000 0.500000
vt 0.341844 0.471731
vt 0.250000 0.490000
vt 0.158156 0.471731
vt 0.080294 0.419706
vt 0.028269 0.341844
vt 0.010000 0.250000
vt 0.028269 0.158156
vt 0.080294 0.080294
vt 0.158156 0.028269
vt 0.250000 0.010000
vt 0.341844 0.028269
vt 0.419706 0.080294
vt 0.471731 0.158156
vt 0.490000 0.250000
vt 0.471731 0.341844
vt 0.419706 0.419706
vt 0.062500 1.000000
vt 0.062500 0.500000
vt 0.000000 1.000000
vt 0.000000 0.500000
vt 0.750000 0.490000
vt 0.841844 0.471731
vt 0.919706 0.419706
vt 0.971731 0.341844
vt 0.990000 0.250000
vt 0.971731 0.158156
vt 0.919706 0.080294
vt 0.841844 0.028269
vt 0.750000 0.010000
vt 0.658156 0.028269
vt 0.580294 0.080294
vt 0.528269 0.158156
vt 0.510000 0.250000
vt 0.528269 0.341844
vt 0.580294 0.419706
vt 0.658156 0.471731
s 0
usemtl Titan_AncientStone
f 371/532/341 372/533/341 374/534/341 373/535/341
f 373/535/342 374/534/342 376/536/342 375/537/342
f 375/537/343 376/536/343 378/538/343 377/539/343
f 377/539/344 378/538/344 380/540/344 379/541/344
f 379/541/345 380/540/345 382/542/345 381/543/345
f 381/543/346 382/542/346 384/544/346 383/545/346
f 383/545/347 384/544/347 386/546/347 385/547/347
f 385/547/348 386/546/348 388/548/348 387/549/348
f 387/549/349 388/548/349 390/550/349 389/551/349
f 389/551/350 390/550/350 392/552/350 391/553/350
f 391/553/351 392/552/351 394/554/351 393/555/351
f 393/555/352 394/554/352 396/556/352 395/557/352
f 395/557/353 396/556/353 398/558/353 397/559/353
f 397/559/354 398/558/354 400/560/354 399/561/354
f 374/562/355 372/563/355 402/564/355 400/565/355 398/566/355 396/567/355 394/568/355 392/569/355 390/570/355 388/571/355 386/572/355 384/573/355 382/574/355 380/575/355 378/576/355 376/577/355
f 399/561/356 400/560/356 402/578/356 401/579/356
f 401/579/357 402/578/357 372/580/357 371/581/357
f 371/582/358 373/583/358 375/584/358 377/585/358 379/586/358 381/587/358 383/588/358 385/589/358 387/590/358 389/591/358 391/592/358 393/593/358 395/594/358 397/595/358 399/596/358 401/597/358
