# Blender 5.2.1 LTS
# www.blender.org
mtllib void_mage.mtl
o Cone
v 0.000000 0.200000 -0.700000
v 0.136563 0.200000 -0.686550
v 0.267878 0.200000 -0.646716
v 0.388899 0.200000 -0.582029
v 0.494975 0.200000 -0.494975
v 0.582029 0.200000 -0.388899
v 0.646716 0.200000 -0.267878
v 0.686550 0.200000 -0.136563
v 0.700000 0.200000 0.000000
v 0.686550 0.200000 0.136563
v 0.646716 0.200000 0.267878
v 0.582029 0.200000 0.388899
v 0.494975 0.200000 0.494975
v 0.388899 0.200000 0.582029
v 0.267878 0.200000 0.646716
v 0.136563 0.200000 0.686550
v 0.000000 0.200000 0.700000
v -0.136563 0.200000 0.686550
v -0.267878 0.200000 0.646716
v -0.388899 0.200000 0.582029
v -0.494975 0.200000 0.494975
v -0.582029 0.200000 0.388899
v -0.646716 0.200000 0.267878
v -0.686550 0.200000 0.136563
v -0.700000 0.200000 0.000000
v -0.686550 0.200000 -0.136563
v -0.646716 0.200000 -0.267878
v -0.582029 0.200000 -0.388899
v -0.494975 0.200000 -0.494975
v -0.388899 0.200000 -0.582029
v -0.267878 0.200000 -0.646716
v -0.136563 0.200000 -0.686550
v 0.000000 2.000000 0.000000
vn 0.0914 0.3609 -0.9281
vn 0.2707 0.3609 -0.8924
vn 0.4396 0.3609 -0.8225
vn 0.5916 0.3609 -0.7209
vn 0.7209 0.3609 -0.5916
vn 0.8225 0.3609 -0.4396
vn 0.8924 0.3609 -0.2707
vn 0.9281 0.3609 -0.0914
vn 0.9281 0.3609 0.0914
vn 0.8924 0.3609 0.2707
vn 0.8225 0.3609 0.4396
vn 0.7209 0.3609 0.5916
vn 0.5916 0.3609 0.7209
vn 0.4396 0.3609 0.8225
vn 0.2707 0.3609 0.8924
vn 0.0914 0.3609 0.9281
vn -0.0914 0.3609 0.9281
vn -0.2707 0.3609 0.8924
vn -0.4396 0.3609 0.8225
vn -0.5916 0.3609 0.7209
vn -0.7209 0.3609 0.5916
vn -0.8225 0.3609 0.4396
vn -0.8924 0.3609 0.2707
vn -0.9281 0.3609 0.0914
vn -0.9281 0.3609 -0.0914
vn -0.8924 0.3609 -0.2707
vn -0.8225 0.3609 -0.4396
vn -0.7209 0.3609 -0.5916
vn -0.5916 0.3609 -0.7209
vn -0.4396 0.3609 -0.8225
vn -0.0000 -1.0000 -0.0000
vn -0.2707 0.3609 -0.8924
vn -0.0914 0.3609 -0.9281
vt 0.250000 0.490000
vt 0.250000 0.250000
vt 0.296822 0.485388
vt 0.341844 0.471731
vt 0.383337 0.449553
vt 0.419706 0.419706
vt 0.449553 0.383337
vt 0.471731 0.341844
vt 0.485388 0.296822
vt 0.490000 0.250000
vt 0.485388 0.203178
vt 0.471731 0.158156
vt 0.449553 0.116663
vt 0.419706 0.080294
vt 0.383337 0.050447
vt 0.341844 0.028269
vt 0.296822 0.014612
vt 0.250000 0.010000
vt 0.203178 0.014612
vt 0.158156 0.028269
vt 0.116663 0.050447
vt 0.080294 0.080294
vt 0.050447 0.116663
vt 0.028269 0.158156
vt 0.014612 0.203178
vt 0.010000 0.250000
vt 0.014612 0.296822
vt 0.028269 0.341844
vt 0.050447 0.383337
vt 0.080294 0.419706
vt 0.116663 0.449553
vt 0.158156 0.471731
vt 0.750000 0.490000
vt 0.796822 0.485388
vt 0.841844 0.471731
vt 0.883337 0.449553
vt 0.919706 0.419706
vt 0.949553 0.383337
vt 0.971731 0.341844
vt 0.985388 0.296822
vt 0.990000 0.250000
vt 0.985388 0.203178
vt 0.971731 0.158156
vt 0.949553 0.116663
vt 0.919706 0.080294
vt 0.883337 0.050447
vt 0.841844 0.028269
vt 0.796822 0.014612
vt 0.750000 0.010000
vt 0.703178 0.014612
vt 0.658156 0.028269
vt 0.616663 0.050447
vt 0.580294 0.080294
vt 0.550447 0.116663
vt 0.528269 0.158156
vt 0.514612 0.203178
vt 0.510000 0.250000
vt 0.514612 0.296822
vt 0.528269 0.341844
vt 0.550447 0.383337
vt 0.580294 0.419706
vt 0.616663 0.449553
vt 0.658156 0.471731
vt 0.703178 0.485388
vt 0.203178 0.485388
s 0
usemtl Mat_VoidRobe
f 1/1/1 33/2/1 2/3/1
f 2/3/2 33/2/2 3/4/2
f 3/4/3 33/2/3 4/5/3
f 4/5/4 33/2/4 5/6/4
f 5/6/5 33/2/5 6/7/5
f 6/7/6 33/2/6 7/8/6
f 7/8/7 33/2/7 8/9/7
f 8/9/8 33/2/8 9/10/8
f 9/10/9 33/2/9 10/11/9
f 10/11/10 33/2/10 11/12/10
f 11/12/11 33/2/11 12/13/11
f 12/13/12 33/2/12 13/14/12
f 13/14/13 33/2/13 14/15/13
f 14/15/14 33/2/14 15/16/14
f 15/16/15 33/2/15 16/17/15
f 16/17/16 33/2/16 17/18/16
f 17/18/17 33/2/17 18/19/17
f 18/19/18 33/2/18 19/20/18
f 19/20/19 33/2/19 20/21/19
f 20/21/20 33/2/20 21/22/20
f 21/22/21 33/2/21 22/23/21
f 22/23/22 33/2/22 23/24/22
f 23/24/23 33/2/23 24/25/23
f 24/25/24 33/2/24 25/26/24
f 25/26/25 33/2/25 26/27/25
f 26/27/26 33/2/26 27/28/26
f 27/28/27 33/2/27 28/29/27
f 28/29/28 33/2/28 29/30/28
f 29/30/29 33/2/29 30/31/29
f 30/31/30 33/2/30 31/32/30
f 1/33/31 2/34/31 3/35/31 4/36/31 5/37/31 6/38/31 7/39/31 8/40/31 9/41/31 10/42/31 11/43/31 12/44/31 13/45/31 14/46/31 15/47/31 16/48/31 17/49/31 18/50/31 19/51/31 20/52/31 21/53/31 22/54/31 23/55/31 24/56/31 25/57/31 26/58/31 27/59/31 28/60/31 29/61/31 30/62/31 31/63/31 32/64/31
f 31/32/32 33/2/32 32/65/32
f 32/65/33 33/2/33 1/1/33
o Sphere
v 0.000000 2.000000 0.000000
v 0.000000 1.994236 -0.058527
v 0.000000 1.949441 -0.166671
v 0.000000 1.912132 -0.212132
v 0.000000 1.814805 -0.277164
v 0.000000 1.700000 -0.300000
v 0.000000 1.585195 -0.277164
v 0.000000 1.533329 -0.249441
v 0.000000 1.487868 -0.212132
v 0.000000 1.450559 -0.166671
v 0.000000 1.400000 0.000000
v 0.011418 1.994236 -0.057403
v 0.022397 1.977164 -0.112599
v 0.032516 1.949441 -0.163469
v 0.041385 1.912132 -0.208056
v 0.048664 1.866671 -0.244648
v 0.054072 1.814805 -0.271838
v 0.057403 1.758527 -0.288582
v 0.058527 1.700000 -0.294236
v 0.057403 1.641473 -0.288582
v 0.054072 1.585195 -0.271838
v 0.048664 1.533329 -0.244648
v 0.041385 1.487868 -0.208056
v 0.032516 1.450559 -0.163469
v 0.022397 1.422836 -0.112599
v 0.011418 1.405764 -0.057403
v 0.022397 1.994236 -0.054072
v 0.043934 1.977164 -0.106066
v 0.063782 1.949441 -0.153984
v 0.081179 1.912132 -0.195984
v 0.095457 1.866671 -0.230453
v 0.106066 1.814805 -0.256066
v 0.112599 1.758527 -0.271838
v 0.114805 1.700000 -0.277164
v 0.112599 1.641473 -0.271838
v 0.106066 1.585195 -0.256066
v 0.095457 1.533329 -0.230453
v 0.081179 1.487868 -0.195984
v 0.063782 1.450559 -0.153984
v 0.043934 1.422836 -0.106066
v 0.022397 1.405764 -0.054072
v 0.032516 1.994236 -0.048664
v 0.063782 1.977164 -0.095457
v 0.092597 1.949441 -0.138582
v 0.117854 1.912132 -0.176381
v 0.138582 1.866671 -0.207402
v 0.153984 1.814805 -0.230453
v 0.163469 1.758527 -0.244648
v 0.166671 1.700000 -0.249441
v 0.163469 1.641473 -0.244648
v 0.153984 1.585195 -0.230453
v 0.138582 1.533329 -0.207402
v 0.117854 1.487868 -0.176381
v 0.092597 1.450559 -0.138582
v 0.063782 1.422836 -0.095457
v 0.032516 1.405764 -0.048664
v 0.041385 1.994236 -0.041385
v 0.081179 1.977164 -0.081179
v 0.117854 1.949441 -0.117854
v 0.150000 1.912132 -0.150000
v 0.176381 1.866671 -0.176381
v 0.195984 1.814805 -0.195984
v 0.208056 1.758527 -0.208056
v 0.212132 1.700000 -0.212132
v 0.208056 1.641473 -0.208056
v 0.195984 1.585195 -0.195984
v 0.176381 1.533329 -0.176381
v 0.150000 1.487868 -0.150000
v 0.117854 1.450559 -0.117854
v 0.081179 1.422836 -0.081179
v 0.041385 1.405764 -0.041385
v 0.048664 1.994236 -0.032516
v 0.095457 1.977164 -0.063782
v 0.138582 1.949441 -0.092597
v 0.176381 1.912132 -0.117854
v 0.207402 1.866671 -0.138582
v 0.230453 1.814805 -0.153984
v 0.244648 1.758527 -0.163469
v 0.249441 1.700000 -0.166671
v 0.244648 1.641473 -0.163469
v 0.230453 1.585195 -0.153984
v 0.207402 1.533329 -0.138582
v 0.176381 1.487868 -0.117854
v 0.138582 1.450559 -0.092597
v 0.095457 1.422836 -0.063782
v 0.048664 1.405764 -0.032516
v 0.054072 1.994236 -0.022397
v 0.106066 1.977164 -0.043934
v 0.153984 1.949441 -0.063782
v 0.195984 1.912132 -0.081179
v 0.230453 1.866671 -0.095457
v 0.256066 1.814805 -0.106066
v 0.271838 1.758527 -0.112599
v 0.277164 1.700000 -0.114805
v 0.271838 1.641473 -0.112599
v 0.256066 1.585195 -0.106066
v 0.230453 1.533329 -0.095457
v 0.195984 1.487868 -0.081179
v 0.153984 1.450559 -0.063782
v 0.106066 1.422836 -0.043934
v 0.054072 1.405764 -0.022397
v 0.057403 1.994236 -0.011418
v 0.112599 1.977164 -0.022397
v 0.163469 1.949441 -0.032516
v 0.208056 1.912132 -0.041385
v 0.244648 1.866671 -0.048663
v 0.271838 1.814805 -0.054072
v 0.288582 1.758527 -0.057403
v 0.294236 1.700000 -0.058527
v 0.288582 1.641473 -0.057403
v 0.271838 1.585195 -0.054072
v 0.244648 1.533329 -0.048663
v 0.208056 1.487868 -0.041385
v 0.163469 1.450559 -0.032516
v 0.112599 1.422836 -0.022397
v 0.057403 1.405764 -0.011418
v 0.058527 1.994236 0.000000
v 0.114805 1.977164 0.000000
v 0.166671 1.949441 0.000000
v 0.212132 1.912132 0.000000
v 0.249441 1.866671 0.000000
v 0.277164 1.814805 0.000000
v 0.294236 1.758527 0.000000
v 0.300000 1.700000 0.000000
v 0.294236 1.641473 0.000000
v 0.277164 1.585195 0.000000
v 0.249441 1.533329 0.000000
v 0.212132 1.487868 0.000000
v 0.166671 1.450559 0.000000
v 0.114805 1.422836 0.000000
v 0.058527 1.405764 0.000000
v 0.057403 1.994236 0.011418
v 0.112599 1.977164 0.022397
v 0.163469 1.949441 0.032516
v 0.208056 1.912132 0.041385
v 0.244648 1.866671 0.048664
v 0.271838 1.814805 0.054072
v 0.288582 1.758527 0.057403
v 0.294236 1.700000 0.058527
v 0.288582 1.641473 0.057403
v 0.271838 1.585195 0.054072
v 0.244648 1.533329 0.048664
v 0.208056 1.487868 0.041385
v 0.163469 1.450559 0.032516
v 0.112599 1.422836 0.022397
v 0.057403 1.405764 0.011418
v 0.054072 1.994236 0.022397
v 0.106066 1.977164 0.043934
v 0.153984 1.949441 0.063782
v 0.195984 1.912132 0.081179
v 0.230453 1.866671 0.095457
v 0.256066 1.814805 0.106066
v 0.271838 1.758527 0.112599
v 0.277164 1.700000 0.114805
v 0.271838 1.641473 0.112599
v 0.256066 1.585195 0.106066
v 0.230453 1.533329 0.095457
v 0.195984 1.487868 0.081179
v 0.153984 1.450559 0.063782
v 0.106066 1.422836 0.043934
v 0.054072 1.405764 0.022397
v 0.048663 1.994236 0.032516
v 0.095457 1.977164 0.063782
v 0.138582 1.949441 0.092597
v 0.176381 1.912132 0.117854
v 0.207402 1.866671 0.138582
v 0.230453 1.814805 0.153984
v 0.244648 1.758527 0.163469
v 0.249441 1.700000 0.166671
v 0.244648 1.641473 0.163469
v 0.230453 1.585195 0.153984
v 0.207402 1.533329 0.138582
v 0.176381 1.487868 0.117854
v 0.138582 1.450559 0.092597
v 0.095457 1.422836 0.063782
v 0.048663 1.405764 0.032516
v 0.041385 1.994236 0.041385
v 0.081179 1.977164 0.081179
v 0.117854 1.949441 0.117854
v 0.150000 1.912132 0.150000
v 0.176381 1.866671 0.176381
v 0.195984 1.814805 0.195984
v 0.208056 1.758527 0.208056
v 0.212132 1.700000 0.212132
v 0.208056 1.641473 0.208056
v 0.195984 1.585195 0.195984
v 0.176381 1.533329 0.176381
v 0.150000 1.487868 0.150000
v 0.117854 1.450559 0.117854
v 0.081179 1.422836 0.081179
v 0.041385 1.405764 0.041385
v 0.032516 1.994236 0.048663
v 0.063782 1.977164 0.095457
v 0.092597 1.949441 0.138582
v 0.117854 1.912132 0.176381
v 0.138582 1.866671 0.207402
v 0.153984 1.814805 0.230453
v 0.163468 1.758527 0.244648
v 0.166671 1.700000 0.249441
v 0.163468 1.641473 0.244648
v 0.153984 1.585195 0.230453
v 0.138582 1.533329 0.207402
v 0.117854 1.487868 0.176381
v 0.092597 1.450559 0.138582
v 0.063782 1.422836 0.095457
v 0.032516 1.405764 0.048663
v 0.022397 1.994236 0.054072
v 0.043934 1.977164 0.106066
v 0.063782 1.949441 0.153984
v 0.081179 1.912132 0.195984
v 0.095457 1.866671 0.230453
v 0.106066 1.814805 0.256066
v 0.112599 1.758527 0.271838
v 0.114805 1.700000 0.277164
v 0.112599 1.641473 0.271838
v 0.106066 1.585195 0.256066
v 0.095457 1.533329 0.230453
v 0.081179 1.487868 0.195984
v 0.063782 1.450559 0.153984
v 0.043934 1.422836 0.106066
v 0.022397 1.405764 0.054072
v 0.011418 1.994236 0.057402
v 0.022397 1.977164 0.112599
v 0.032516 1.949441 0.163469
v 0.041385 1.912132 0.208056
v 0.048663 1.866671 0.244648
v 0.054072 1.814805 0.271838
v 0.057402 1.758527 0.288582
v 0.058527 1.700000 0.294235
v 0.057402 1.641473 0.288582
v 0.054072 1.585195 0.271838
v 0.048663 1.533329 0.244648
v 0.041385 1.487868 0.208056
v 0.032516 1.450559 0.163469
v 0.022397 1.422836 0.112599
v 0.011418 1.405764 0.057402
v -0.000000 1.994236 0.058527
v -0.000000 1.977164 0.114805
v -0.000000 1.949441 0.166671
v -0.000000 1.912132 0.212132
v -0.000000 1.866671 0.249441
v -0.000000 1.814805 0.277164
v -0.000000 1.758527 0.294236
v -0.000000 1.700000 0.300000
v -0.000000 1.641473 0.294236
v -0.000000 1.585195 0.277164
v -0.000000 1.533329 0.249441
v -0.000000 1.487868 0.212132
v -0.000000 1.450559 0.166671
v -0.000000 1.422836 0.114805
v -0.000000 1.405764 0.058527
v -0.011418 1.994236 0.057402
v -0.022397 1.977164 0.112599
v -0.032516 1.949441 0.163469
v -0.041385 1.912132 0.208056
v -0.048664 1.866671 0.244648
v -0.054072 1.814805 0.271838
v -0.057403 1.758527 0.288582
v -0.058527 1.700000 0.294235
v -0.057403 1.641473 0.288582
v -0.054072 1.585195 0.271838
v -0.048664 1.533329 0.244648
v -0.041385 1.487868 0.208056
v -0.032516 1.450559 0.163469
v -0.022397 1.422836 0.112599
v -0.011418 1.405764 0.057402
v -0.022397 1.994236 0.054072
v -0.043934 1.977164 0.106066
v -0.063782 1.949441 0.153984
v -0.081179 1.912132 0.195984
v -0.095457 1.866671 0.230453
v -0.106066 1.814805 0.256066
v -0.112599 1.758527 0.271838
v -0.114805 1.700000 0.277164
v -0.112599 1.641473 0.271838
v -0.106066 1.585195 0.256066
v -0.095457 1.533329 0.230453
v -0.081179 1.487868 0.195984
v -0.063782 1.450559 0.153984
v -0.043934 1.422836 0.106066
v -0.022397 1.405764 0.054072
v -0.032516 1.994236 0.048663
v -0.063782 1.977164 0.095457
v -0.092597 1.949441 0.138582
v -0.117854 1.912132 0.176381
v -0.138582 1.866671 0.207402
v -0.153984 1.814805 0.230453
v -0.163469 1.758527 0.244648
v -0.166671 1.700000 0.249441
v -0.163469 1.641473 0.244648
v -0.153984 1.585195 0.230453
v -0.138582 1.533329 0.207402
v -0.117854 1.487868 0.176381
v -0.092597 1.450559 0.138582
v -0.063782 1.422836 0.095457
v -0.032516 1.405764 0.048663
v -0.041385 1.994236 0.041385
v -0.081179 1.977164 0.081179
v -0.117854 1.949441 0.117854
v -0.150000 1.912132 0.150000
v -0.176381 1.866671 0.176381
v -0.195984 1.814805 0.195984
v -0.208056 1.758527 0.208056
v -0.212132 1.700000 0.212132
v -0.208056 1.641473 0.208056
v -0.195984 1.585195 0.195984
v -0.176381 1.533329 0.176381
v -0.150000 1.487868 0.150000
v -0.117854 1.450559 0.117854
v -0.081179 1.422836 0.081179
v -0.041385 1.405764 0.041385
v -0.048663 1.994236 0.032516
v -0.095457 1.977164 0.063782
v -0.138582 1.949441 0.092597
v -0.176381 1.912132 0.117854
v -0.207402 1.866671 0.138582
v -0.230453 1.814805 0.153984
v -0.244648 1.758527 0.163468
v -0.249441 1.700000 0.166671
v -0.244648 1.641473 0.163468
v -0.230453 1.585195 0.153984
v -0.207402 1.533329 0.138582
v -0.176381 1.487868 0.117854
v -0.138582 1.450559 0.092597
v -0.095457 1.422836 0.063782
v -0.048663 1.405764 0.032516
v -0.054072 1.994236 0.022397
v -0.106066 1.977164 0.043934
v -0.153984 1.949441 0.063782
v -0.195984 1.912132 0.081179
v -0.230453 1.866671 0.095457
v -0.256066 1.814805 0.106066
v -0.271838 1.758527 0.112599
v -0.277164 1.700000 0.114805
v -0.271838 1.641473 0.112599
v -0.256066 1.585195 0.106066
v -0.230453 1.533329 0.095457
v -0.195984 1.487868 0.081179
v -0.153984 1.450559 0.063782
v -0.106066 1.422836 0.043934
v -0.054072 1.405764 0.022397
v -0.057402 1.994236 0.011418
v -0.112599 1.977164 0.022397
v -0.163468 1.949441 0.032516
v -0.208056 1.912132 0.041385
v -0.244648 1.866671 0.048663
v -0.271838 1.814805 0.054072
v -0.288582 1.758527 0.057402
v -0.294235 1.700000 0.058527
v -0.288582 1.641473 0.057402
v -0.271838 1.585195 0.054072
v -0.244648 1.533329 0.048663
v -0.208056 1.487868 0.041385
v -0.163468 1.450559 0.032516
v -0.112599 1.422836 0.022397
v -0.057402 1.405764 0.011418
v -0.058527 1.994236 -0.000000
v -0.114805 1.977164 -0.000000
v -0.166671 1.949441 -0.000000
v -0.212132 1.912132 -0.000000
v -0.249441 1.866671 -0.000000
v -0.277164 1.814805 -0.000000
v -0.294235 1.758527 -0.000000
v -0.300000 1.700000 -0.000000
v -0.294235 1.641473 -0.000000
v -0.277164 1.585195 -0.000000
v -0.249441 1.533329 -0.000000
v -0.212132 1.487868 -0.000000
v -0.166671 1.450559 -0.000000
v -0.114805 1.422836 -0.000000
v -0.058527 1.405764 -0.000000
v -0.057402 1.994236 -0.011418
v -0.112599 1.977164 -0.022397
v -0.163468 1.949441 -0.032516
v -0.208056 1.912132 -0.041385
v -0.244648 1.866671 -0.048664
v -0.271838 1.814805 -0.054072
v -0.288582 1.758527 -0.057403
v -0.294235 1.700000 -0.058527
v -0.288582 1.641473 -0.057403
v -0.271838 1.585195 -0.054072
v -0.244648 1.533329 -0.048664
v -0.208056 1.487868 -0.041385
v -0.163468 1.450559 -0.032516
v -0.112599 1.422836 -0.022397
v -0.057402 1.405764 -0.011418
v -0.054072 1.994236 -0.022397
v -0.106066 1.977164 -0.043934
v -0.153984 1.949441 -0.063782
v -0.195984 1.912132 -0.081179
v -0.230453 1.866671 -0.095457
v -0.256066 1.814805 -0.106066
v -0.271838 1.758527 -0.112599
v -0.277164 1.700000 -0.114805
v -0.271838 1.641473 -0.112599
v -0.256066 1.585195 -0.106066
v -0.230453 1.533329 -0.095457
v -0.195984 1.487868 -0.081179
v -0.153984 1.450559 -0.063782
v -0.106066 1.422836 -0.043934
v -0.054072 1.405764 -0.022397
v -0.048663 1.994236 -0.032516
v -0.095457 1.977164 -0.063782
v -0.138582 1.949441 -0.092597
v -0.176381 1.912132 -0.117854
v -0.207402 1.866671 -0.138582
v -0.230453 1.814805 -0.153984
v -0.244648 1.758527 -0.163469
v -0.249441 1.700000 -0.166671
v -0.244648 1.641473 -0.163469
v -0.230453 1.585195 -0.153984
v -0.207402 1.533329 -0.138582
v -0.176381 1.487868 -0.117854
v -0.138582 1.450559 -0.092597
v -0.095457 1.422836 -0.063782
v -0.048663 1.405764 -0.032516
v -0.041385 1.994236 -0.041385
v -0.081179 1.977164 -0.081179
v -0.117854 1.949441 -0.117854
v -0.150000 1.912132 -0.150000
v -0.176381 1.866671 -0.176381
v -0.195984 1.814805 -0.195984
v -0.208056 1.758527 -0.208056
v -0.212132 1.700000 -0.212132
v -0.208056 1.641473 -0.208056
v -0.195984 1.585195 -0.195984
v -0.176381 1.533329 -0.176381
v -0.150000 1.487868 -0.150000
v -0.117854 1.450559 -0.117854
v -0.081179 1.422836 -0.081179
v -0.041385 1.405764 -0.041385
v -0.032516 1.994236 -0.048663
v -0.063782 1.977164 -0.095457
v -0.092597 1.949441 -0.138582
v -0.117854 1.912132 -0.176381
v -0.138582 1.866671 -0.207402
v -0.153984 1.814805 -0.230453
v -0.163468 1.758527 -0.244648
v -0.166671 1.700000 -0.249441
v -0.163468 1.641473 -0.244648
v -0.153984 1.585195 -0.230453
v -0.138582 1.533329 -0.207402
v -0.117854 1.487868 -0.176381
v -0.092597 1.450559 -0.138582
v -0.063782 1.422836 -0.095457
v -0.032516 1.405764 -0.048663
v -0.022397 1.994236 -0.054072
v -0.043934 1.977164 -0.106066
v -0.063782 1.949441 -0.153984
v -0.081179 1.912132 -0.195984
v -0.095457 1.866671 -0.230453
v -0.106066 1.814805 -0.256066
v -0.112599 1.758527 -0.271838
v -0.114805 1.700000 -0.277164
v -0.112599 1.641473 -0.271838
v -0.106066 1.585195 -0.256066
v -0.095457 1.533329 -0.230453
v -0.081179 1.487868 -0.195984
v -0.063782 1.450559 -0.153984
v -0.043934 1.422836 -0.106066
v -0.022397 1.405764 -0.054072
v -0.011418 1.994236 -0.057402
v -0.022397 1.977164 -0.112599
v -0.032516 1.949441 -0.163468
v -0.041385 1.912132 -0.208056
v -0.048663 1.866671 -0.244648
v -0.054072 1.814805 -0.271838
v -0.057402 1.758527 -0.288582
v -0.058527 1.700000 -0.294235
v -0.057402 1.641473 -0.288582
v -0.054072 1.585195 -0.271838
v -0.048663 1.533329 -0.244648
v -0.041385 1.487868 -0.208056
v -0.032516 1.450559 -0.163468
v -0.022397 1.422836 -0.112599
v -0.011418 1.405764 -0.057402
v 0.000000 1.977164 -0.114805
v 0.000000 1.866671 -0.249441
v 0.000000 1.758527 -0.294235
v 0.000000 1.641473 -0.294235
v 0.000000 1.422836 -0.114805
v 0.000000 1.405764 -0.058527
vn 0.0865 0.4696 -0.8786
vn 0.0464 -0.8810 -0.4709
vn 0.0938 0.2890 -0.9527
vn 0.0286 -0.9565 -0.2902
vn 0.0975 0.0976 -0.9904
vn 0.0097 0.9951 -0.0980
vn 0.0097 -0.9951 -0.0980
vn 0.0975 -0.0976 -0.9904
vn 0.0286 0.9565 -0.2902
vn 0.0938 -0.2890 -0.9527
vn 0.0464 0.8810 -0.4709
vn 0.0865 -0.4696 -0.8786
vn 0.0624 0.7715 -0.6332
vn 0.0759 -0.6326 -0.7708
vn 0.0759 0.6326 -0.7708
vn 0.0624 -0.7715 -0.6332
vn 0.2248 -0.6326 -0.7412
vn 0.2248 0.6326 -0.7412
vn 0.1847 -0.7715 -0.6088
vn 0.2563 0.4696 -0.8448
vn 0.1374 -0.8810 -0.4528
vn 0.2779 0.2890 -0.9161
vn 0.0846 -0.9565 -0.2790
vn 0.2889 0.0975 -0.9524
vn 0.0286 0.9951 -0.0942
vn 0.0286 -0.9951 -0.0942
vn 0.2889 -0.0975 -0.9524
vn 0.0846 0.9565 -0.2790
vn 0.2779 -0.2890 -0.9161
vn 0.1374 0.8810 -0.4528
vn 0.2563 -0.4696 -0.8448
vn 0.1847 0.7715 -0.6088
vn 0.0464 -0.9951 -0.0869
vn 0.4691 -0.0975 -0.8777
vn 0.1374 0.9565 -0.2571
vn 0.4513 -0.2890 -0.8443
vn 0.2230 0.8810 -0.4173
vn 0.4162 -0.4696 -0.7786
vn 0.2999 0.7715 -0.5611
vn 0.3651 -0.6326 -0.6831
vn 0.3651 0.6326 -0.6831
vn 0.2999 -0.7715 -0.5611
vn 0.4162 0.4696 -0.7786
vn 0.2230 -0.8810 -0.4173
vn 0.4513 0.2890 -0.8443
vn 0.1374 -0.9565 -0.2571
vn 0.4691 0.0975 -0.8777
vn 0.0464 0.9951 -0.0869
vn 0.4036 -0.7715 -0.4918
vn 0.5601 0.4696 -0.6825
vn 0.3002 -0.8810 -0.3658
vn 0.6073 0.2890 -0.7400
vn 0.1850 -0.9565 -0.2254
vn 0.6314 0.0975 -0.7693
vn 0.0625 0.9951 -0.0761
vn 0.0625 -0.9951 -0.0761
vn 0.6314 -0.0975 -0.7693
vn 0.1850 0.9565 -0.2254
vn 0.6073 -0.2890 -0.7400
vn 0.3002 0.8810 -0.3658
vn 0.5601 -0.4696 -0.6825
vn 0.4036 0.7715 -0.4918
vn 0.4913 -0.6326 -0.5987
vn 0.4913 0.6326 -0.5987
vn 0.2254 0.9565 -0.1850
vn 0.7400 -0.2890 -0.6073
vn 0.3658 0.8810 -0.3002
vn 0.6825 -0.4696 -0.5601
vn 0.4918 0.7715 -0.4036
vn 0.5987 -0.6326 -0.4913
vn 0.5987 0.6326 -0.4913
vn 0.4918 -0.7715 -0.4036
vn 0.6825 0.4696 -0.5601
vn 0.3658 -0.8810 -0.3002
vn 0.7400 0.2890 -0.6073
vn 0.2254 -0.9565 -0.1850
vn 0.7693 0.0975 -0.6314
vn 0.0761 0.9951 -0.0625
vn 0.0761 -0.9951 -0.0625
vn 0.7693 -0.0975 -0.6314
vn 0.7786 0.4696 -0.4162
vn 0.4173 -0.8810 -0.2230
vn 0.8443 0.2890 -0.4513
vn 0.2571 -0.9565 -0.1374
vn 0.8777 0.0975 -0.4691
vn 0.0869 0.9951 -0.0464
vn 0.0869 -0.9951 -0.0464
vn 0.8777 -0.0975 -0.4691
vn 0.2571 0.9565 -0.1374
vn 0.8443 -0.2890 -0.4513
vn 0.4173 0.8810 -0.2230
vn 0.7786 -0.4696 -0.4162
vn 0.5611 0.7715 -0.2999
vn 0.6831 -0.6326 -0.3651
vn 0.6831 0.6326 -0.3651
vn 0.5611 -0.7715 -0.2999
vn 0.9161 -0.2890 -0.2779
vn 0.4528 0.8810 -0.1374
vn 0.8448 -0.4696 -0.2563
vn 0.6088 0.7715 -0.1847
vn 0.7412 -0.6326 -0.2248
vn 0.7412 0.6326 -0.2248
vn 0.6088 -0.7715 -0.1847
vn 0.8448 0.4696 -0.2563
vn 0.4528 -0.8810 -0.1374
vn 0.9161 0.2890 -0.2779
vn 0.2790 -0.9565 -0.0846
vn 0.9524 0.0975 -0.2889
vn 0.0942 0.9951 -0.0286
vn 0.0942 -0.9951 -0.0286
vn 0.9524 -0.0975 -0.2889
vn 0.2790 0.9565 -0.0846
vn 0.4709 -0.8810 -0.0464
vn 0.9527 0.2890 -0.0938
vn 0.2902 -0.9565 -0.0286
vn 0.9904 0.0975 -0.0975
vn 0.0980 0.9951 -0.0097
vn 0.0980 -0.9951 -0.0097
vn 0.9904 -0.0975 -0.0975
vn 0.2902 0.9565 -0.0286
vn 0.9527 -0.2890 -0.0938
vn 0.4709 0.8810 -0.0464
vn 0.8786 -0.4696 -0.0865
vn 0.6332 0.7715 -0.0624
vn 0.7708 -0.6326 -0.0759
vn 0.7708 0.6326 -0.0759
vn 0.6332 -0.7715 -0.0624
vn 0.8786 0.4696 -0.0865
vn 0.4709 0.8810 0.0464
vn 0.8786 -0.4696 0.0865
vn 0.6332 0.7715 0.0624
vn 0.7708 -0.6326 0.0759
vn 0.7708 0.6326 0.0759
vn 0.6332 -0.7715 0.0624
vn 0.8786 0.4696 0.0865
vn 0.4709 -0.8810 0.0464
vn 0.9527 0.2890 0.0938
vn 0.2902 -0.9565 0.0286
vn 0.9904 0.0975 0.0975
vn 0.0980 0.9951 0.0097
vn 0.0980 -0.9951 0.0097
vn 0.9904 -0.0975 0.0975
vn 0.2902 0.9565 0.0286
vn 0.9527 -0.2890 0.0938
vn 0.9161 0.2890 0.2779
vn 0.2790 -0.9565 0.0846
vn 0.9524 0.0975 0.2889
vn 0.0942 0.9951 0.0286
vn 0.0942 -0.9951 0.0286
vn 0.9524 -0.0975 0.2889
vn 0.2790 0.9565 0.0846
vn 0.9161 -0.2890 0.2779
vn 0.4528 0.8810 0.1374
vn 0.8448 -0.4696 0.2563
vn 0.6088 0.7715 0.1847
vn 0.7412 -0.6326 0.2248
vn 0.7412 0.6326 0.2248
vn 0.6088 -0.7715 0.1847
vn 0.8448 0.4696 0.2563
vn 0.4528 -0.8810 0.1374
vn 0.7786 -0.4696 0.4162
vn 0.5611 0.7715 0.2999
vn 0.6831 -0.6326 0.3651
vn 0.6831 0.6326 0.3651
vn 0.5611 -0.7715 0.2999
vn 0.7786 0.4696 0.4162
vn 0.4173 -0.8810 0.2230
vn 0.8443 0.2890 0.4513
vn 0.2571 -0.9565 0.1374
vn 0.8777 0.0975 0.4691
vn 0.0869 0.9951 0.0464
vn 0.0869 -0.9951 0.0464
vn 0.8777 -0.0975 0.4691
vn 0.2571 0.9565 0.1374
vn 0.8443 -0.2890 0.4513
vn 0.4173 0.8810 0.2230
vn 0.2254 -0.9565 0.1850
vn 0.7693 0.0975 0.6314
vn 0.0761 0.9951 0.0625
vn 0.0761 -0.9951 0.0625
vn 0.7693 -0.0975 0.6314
vn 0.2254 0.9565 0.1850
vn 0.7400 -0.2890 0.6073
vn 0.3658 0.8810 0.3002
vn 0.6825 -0.4696 0.5601
vn 0.4918 0.7715 0.4036
vn 0.5987 -0.6326 0.4913
vn 0.5987 0.6326 0.4913
vn 0.4918 -0.7715 0.4036
vn 0.6825 0.4696 0.5601
vn 0.3658 -0.8810 0.3002
vn 0.7400 0.2890 0.6073
vn 0.4913 -0.6326 0.5987
vn 0.4913 0.6326 0.5987
vn 0.4036 -0.7715 0.4918
vn 0.5601 0.4696 0.6825
vn 0.3002 -0.8810 0.3658
vn 0.6073 0.2890 0.7400
vn 0.1850 -0.9565 0.2254
vn 0.6314 0.0975 0.7693
vn 0.0625 0.9951 0.0761
vn 0.0625 -0.9951 0.0761
vn 0.6314 -0.0975 0.7693
vn 0.1850 0.9565 0.2254
vn 0.6073 -0.2890 0.7400
vn 0.3002 0.8810 0.3658
vn 0.5601 -0.4696 0.6825
vn 0.4036 0.7715 0.4918
vn 0.0464 0.9951 0.0869
vn 0.0464 -0.9951 0.0869
vn 0.4691 -0.0975 0.8777
vn 0.1374 0.9565 0.2571
vn 0.4513 -0.2890 0.8443
vn 0.2231 0.8810 0.4173
vn 0.4162 -0.4696 0.7786
vn 0.2999 0.7715 0.5611
vn 0.3651 -0.6326 0.6831
vn 0.3651 0.6326 0.6831
vn 0.2999 -0.7715 0.5611
vn 0.4162 0.4696 0.7786
vn 0.2231 -0.8810 0.4173
vn 0.4513 0.2890 0.8443
vn 0.1374 -0.9565 0.2571
vn 0.4691 0.0975 0.8777
vn 0.2248 0.6326 0.7412
vn 0.1847 -0.7715 0.6088
vn 0.2563 0.4696 0.8448
vn 0.1374 -0.8810 0.4528
vn 0.2779 0.2890 0.9161
vn 0.0846 -0.9565 0.2790
vn 0.2889 0.0975 0.9524
vn 0.0286 0.9951 0.0942
vn 0.0286 -0.9951 0.0942
vn 0.2889 -0.0975 0.9524
vn 0.0846 0.9565 0.2790
vn 0.2779 -0.2890 0.9161
vn 0.1374 0.8810 0.4528
vn 0.2563 -0.4696 0.8448
vn 0.1847 0.7715 0.6088
vn 0.2248 -0.6326 0.7412
vn 0.0975 -0.0975 0.9904
vn 0.0286 0.9565 0.2902
vn 0.0938 -0.2890 0.9527
vn 0.0464 0.8810 0.4709
vn 0.0865 -0.4696 0.8786
vn 0.0624 0.7715 0.6332
vn 0.0759 -0.6326 0.7708
vn 0.0759 0.6326 0.7708
vn 0.0624 -0.7715 0.6332
vn 0.0865 0.4696 0.8786
vn 0.0464 -0.8810 0.4709
vn 0.0938 0.2890 0.9527
vn 0.0286 -0.9565 0.2902
vn 0.0975 0.0975 0.9904
vn 0.0097 0.9951 0.0980
vn 0.0097 -0.9951 0.0980
vn -0.0624 -0.7715 0.6332
vn -0.0865 0.4696 0.8786
vn -0.0464 -0.8810 0.4709
vn -0.0938 0.2890 0.9527
vn -0.0286 -0.9565 0.2902
vn -0.0975 0.0975 0.9904
vn -0.0097 0.9951 0.0980
vn -0.0097 -0.9951 0.0980
vn -0.0975 -0.0975 0.9904
vn -0.0286 0.9565 0.2902
vn -0.0938 -0.2890 0.9527
vn -0.0464 0.8810 0.4709
vn -0.0865 -0.4696 0.8786
vn -0.0624 0.7715 0.6332
vn -0.0759 -0.6326 0.7708
vn -0.0759 0.6326 0.7708
vn -0.0846 0.9565 0.2790
vn -0.2779 -0.2890 0.9161
vn -0.1374 0.8810 0.4528
vn -0.2563 -0.4696 0.8448
vn -0.1847 0.7715 0.6088
vn -0.2248 -0.6326 0.7412
vn -0.2248 0.6326 0.7412
vn -0.1847 -0.7715 0.6088
vn -0.2563 0.4696 0.8448
vn -0.1374 -0.8810 0.4528
vn -0.2779 0.2890 0.9161
vn -0.0846 -0.9565 0.2790
vn -0.2889 0.0975 0.9524
vn -0.0286 0.9951 0.0942
vn -0.0286 -0.9951 0.0942
vn -0.2889 -0.0975 0.9524
vn -0.4162 0.4696 0.7786
vn -0.2230 -0.8810 0.4173
vn -0.4513 0.2890 0.8443
vn -0.1374 -0.9565 0.2571
vn -0.4691 0.0975 0.8777
vn -0.0464 0.9951 0.0869
vn -0.0464 -0.9951 0.0869
vn -0.4691 -0.0975 0.8777
vn -0.1374 0.9565 0.2571
vn -0.4513 -0.2890 0.8443
vn -0.2230 0.8810 0.4173
vn -0.4162 -0.4696 0.7786
vn -0.2999 0.7715 0.5611
vn -0.3651 -0.6326 0.6831
vn -0.3651 0.6326 0.6831
vn -0.2999 -0.7715 0.5611
vn -0.6073 -0.2890 0.7400
vn -0.3002 0.8810 0.3658
vn -0.5601 -0.4696 0.6825
vn -0.4036 0.7715 0.4918
vn -0.4913 -0.6326 0.5987
vn -0.4913 0.6326 0.5987
vn -0.4036 -0.7715 0.4918
vn -0.5601 0.4696 0.6825
vn -0.3002 -0.8810 0.3658
vn -0.6073 0.2890 0.7400
vn -0.1850 -0.9565 0.2254
vn -0.6314 0.0975 0.7693
vn -0.0625 0.9951 0.0761
vn -0.0625 -0.9951 0.0761
vn -0.6314 -0.0975 0.7693
vn -0.1850 0.9565 0.2254
vn -0.3658 -0.8810 0.3002
vn -0.7400 0.2890 0.6073
vn -0.2254 -0.9565 0.1850
vn -0.7693 0.0975 0.6314
vn -0.0761 0.9951 0.0625
vn -0.0761 -0.9951 0.0625
vn -0.7693 -0.0975 0.6314
vn -0.2254 0.9565 0.1850
vn -0.7400 -0.2890 0.6073
vn -0.3658 0.8810 0.3002
vn -0.6825 -0.4696 0.5601
vn -0.4918 0.7715 0.4036
vn -0.5987 -0.6326 0.4913
vn -0.5987 0.6326 0.4913
vn -0.4918 -0.7715 0.4036
vn -0.6825 0.4696 0.5601
vn -0.7786 -0.4696 0.4162
vn -0.5611 0.7715 0.2999
vn -0.6831 -0.6326 0.3651
vn -0.6831 0.6326 0.3651
vn -0.5611 -0.7715 0.2999
vn -0.7786 0.4696 0.4162
vn -0.4173 -0.8810 0.2230
vn -0.8443 0.2890 0.4513
vn -0.2571 -0.9565 0.1374
vn -0.8777 0.0975 0.4691
vn -0.0869 0.9951 0.0464
vn -0.0869 -0.9951 0.0464
vn -0.8777 -0.0975 0.4691
vn -0.2571 0.9565 0.1374
vn -0.8443 -0.2890 0.4513
vn -0.4173 0.8810 0.2230
vn -0.2790 -0.9565 0.0846
vn -0.9524 0.0975 0.2889
vn -0.0942 0.9951 0.0286
vn -0.0942 -0.9951 0.0286
vn -0.9524 -0.0975 0.2889
vn -0.2790 0.9565 0.0846
vn -0.9161 -0.2890 0.2779
vn -0.4528 0.8810 0.1374
vn -0.8448 -0.4696 0.2563
vn -0.6088 0.7715 0.1847
vn -0.7412 -0.6326 0.2248
vn -0.7412 0.6326 0.2248
vn -0.6088 -0.7715 0.1847
vn -0.8448 0.4696 0.2563
vn -0.4528 -0.8810 0.1374
vn -0.9161 0.2890 0.2779
vn -0.6332 0.7715 0.0624
vn -0.7708 -0.6326 0.0759
vn -0.7708 0.6326 0.0759
vn -0.6332 -0.7715 0.0624
vn -0.8786 0.4696 0.0865
vn -0.4709 -0.8810 0.0464
vn -0.9527 0.2890 0.0938
vn -0.2902 -0.9565 0.0286
vn -0.9904 0.0975 0.0975
vn -0.0980 0.9951 0.0097
vn -0.0980 -0.9951 0.0097
vn -0.9904 -0.0975 0.0975
vn -0.2902 0.9565 0.0286
vn -0.9527 -0.2890 0.0938
vn -0.4709 0.8810 0.0464
vn -0.8786 -0.4696 0.0865
vn -0.9904 0.0975 -0.0975
vn -0.0980 0.9951 -0.0097
vn -0.0980 -0.9951 -0.0097
vn -0.9904 -0.0975 -0.0975
vn -0.2902 0.9565 -0.0286
vn -0.9527 -0.2890 -0.0938
vn -0.4709 0.8810 -0.0464
vn -0.8786 -0.4696 -0.0865
vn -0.6332 0.7715 -0.0624
vn -0.7708 -0.6326 -0.0759
vn -0.7708 0.6326 -0.0759
vn -0.6332 -0.7715 -0.0624
vn -0.8786 0.4696 -0.0865
vn -0.4709 -0.8810 -0.0464
vn -0.9527 0.2890 -0.0938
vn -0.2902 -0.9565 -0.0286
vn -0.7412 -0.6326 -0.2248
vn -0.7412 0.6326 -0.2248
vn -0.6088 -0.7715 -0.1847
vn -0.8448 0.4696 -0.2563
vn -0.4528 -0.8810 -0.1374
vn -0.9161 0.2890 -0.2779
vn -0.2790 -0.9565 -0.0846
vn -0.9524 0.0975 -0.2889
vn -0.0942 0.9951 -0.0286
vn -0.0942 -0.9951 -0.0286
vn -0.9524 -0.0975 -0.2889
vn -0.2790 0.9565 -0.0846
vn -0.9161 -0.2890 -0.2779
vn -0.4528 0.8810 -0.1374
vn -0.8448 -0.4696 -0.2563
vn -0.6088 0.7715 -0.1847
vn -0.0869 0.9951 -0.0464
vn -0.0869 -0.9951 -0.0464
vn -0.8777 -0.0975 -0.4691
vn -0.2571 0.9565 -0.1374
vn -0.8443 -0.2890 -0.4513
vn -0.4173 0.8810 -0.2230
vn -0.7786 -0.4696 -0.4162
vn -0.5611 0.7715 -0.2999
vn -0.6831 -0.6326 -0.3651
vn -0.6831 0.6326 -0.3651
vn -0.5611 -0.7715 -0.2999
vn -0.7786 0.4696 -0.4162
vn -0.4173 -0.8810 -0.2230
vn -0.8443 0.2890 -0.4513
vn -0.2571 -0.9565 -0.1374
vn -0.8777 0.0975 -0.4691
vn -0.5987 0.6326 -0.4913
vn -0.4918 -0.7715 -0.4036
vn -0.6825 0.4696 -0.5601
vn -0.3658 -0.8810 -0.3002
vn -0.7400 0.2890 -0.6073
vn -0.2254 -0.9565 -0.1850
vn -0.7693 0.0975 -0.6314
vn -0.0761 0.9951 -0.0625
vn -0.0761 -0.9951 -0.0625
vn -0.7693 -0.0975 -0.6314
vn -0.2254 0.9565 -0.1850
vn -0.7400 -0.2890 -0.6073
vn -0.3658 0.8810 -0.3002
vn -0.6825 -0.4696 -0.5601
vn -0.4918 0.7715 -0.4036
vn -0.5987 -0.6326 -0.4913
vn -0.6314 -0.0975 -0.7693
vn -0.1850 0.9565 -0.2254
vn -0.6073 -0.2890 -0.7400
vn -0.3002 0.8810 -0.3658
vn -0.5601 -0.4696 -0.6825
vn -0.4036 0.7715 -0.4918
vn -0.4913 -0.6326 -0.5987
vn -0.4913 0.6326 -0.5987
vn -0.4036 -0.7715 -0.4918
vn -0.5601 0.4696 -0.6825
vn -0.3002 -0.8810 -0.3658
vn -0.6073 0.2890 -0.7400
vn -0.1850 -0.9565 -0.2254
vn -0.6314 0.0975 -0.7693
vn -0.0625 0.9951 -0.0761
vn -0.0625 -0.9951 -0.0761
vn -0.2999 -0.7715 -0.5611
vn -0.4162 0.4696 -0.7786
vn -0.2231 -0.8810 -0.4173
vn -0.4513 0.2890 -0.8443
vn -0.1374 -0.9565 -0.2571
vn -0.4691 0.0975 -0.8777
vn -0.0464 0.9951 -0.0869
vn -0.0464 -0.9951 -0.0869
vn -0.4691 -0.0975 -0.8777
vn -0.1374 0.9565 -0.2571
vn -0.4513 -0.2890 -0.8443
vn -0.2231 0.8810 -0.4173
vn -0.4162 -0.4696 -0.7786
vn -0.2999 0.7715 -0.5611
vn -0.3651 -0.6326 -0.6831
vn -0.3651 0.6326 -0.6831
vn -0.2779 -0.2890 -0.9161
vn -0.1374 0.8810 -0.4528
vn -0.2563 -0.4696 -0.8448
vn -0.1847 0.7715 -0.6088
vn -0.2248 -0.6326 -0.7412
vn -0.2248 0.6326 -0.7412
vn -0.1847 -0.7715 -0.6088
vn -0.2563 0.4696 -0.8448
vn -0.1374 -0.8810 -0.4528
vn -0.2779 0.2890 -0.9161
vn -0.0846 -0.9565 -0.2790
vn -0.2889 0.0975 -0.9524
vn -0.0286 0.9951 -0.0942
vn -0.0286 -0.9951 -0.0942
vn -0.2889 -0.0975 -0.9524
vn -0.0846 0.9565 -0.2790
vn -0.0464 -0.8810 -0.4709
vn -0.0938 0.2890 -0.9527
vn -0.0286 -0.9565 -0.2902
vn -0.0976 0.0975 -0.9904
vn -0.0096 0.9951 -0.0980
vn -0.0097 -0.9951 -0.0980
vn -0.0976 -0.0975 -0.9904
vn -0.0286 0.9565 -0.2902
vn -0.0938 -0.2890 -0.9527
vn -0.0464 0.8810 -0.4709
vn -0.0865 -0.4696 -0.8786
vn -0.0624 0.7715 -0.6332
vn -0.0759 -0.6326 -0.7708
vn -0.0759 0.6326 -0.7708
vn -0.0624 -0.7715 -0.6332
vn -0.0865 0.4696 -0.8786
vt 0.750000 0.625000
vt 0.750000 0.687500
vt 0.718750 0.687500
vt 0.718750 0.625000
vt 0.750000 0.125000
vt 0.750000 0.187500
vt 0.718750 0.187500
vt 0.718750 0.125000
vt 0.750000 0.562500
vt 0.718750 0.562500
vt 0.750000 0.062500
vt 0.718750 0.062500
vt 0.750000 0.500000
vt 0.718750 0.500000
vt 0.750000 0.937500
vt 0.734375 1.000000
vt 0.718750 0.937500
vt 0.734375 0.000000
vt 0.750000 0.437500
vt 0.718750 0.437500
vt 0.750000 0.875000
vt 0.718750 0.875000
vt 0.750000 0.375000
vt 0.718750 0.375000
vt 0.750000 0.812500
vt 0.718750 0.812500
vt 0.750000 0.312500
vt 0.718750 0.312500
vt 0.750000 0.750000
vt 0.718750 0.750000
vt 0.750000 0.250000
vt 0.718750 0.250000
vt 0.687500 0.312500
vt 0.687500 0.250000
vt 0.687500 0.750000
vt 0.687500 0.687500
vt 0.687500 0.187500
vt 0.687500 0.625000
vt 0.687500 0.125000
vt 0.687500 0.562500
vt 0.687500 0.062500
vt 0.687500 0.500000
vt 0.703125 1.000000
vt 0.687500 0.937500
vt 0.703125 0.000000
vt 0.687500 0.437500
vt 0.687500 0.875000
vt 0.687500 0.375000
vt 0.687500 0.812500
vt 0.671875 0.000000
vt 0.656250 0.062500
vt 0.656250 0.500000
vt 0.656250 0.437500
vt 0.656250 0.937500
vt 0.656250 0.875000
vt 0.656250 0.375000
vt 0.656250 0.812500
vt 0.656250 0.312500
vt 0.656250 0.750000
vt 0.656250 0.250000
vt 0.656250 0.687500
vt 0.656250 0.187500
vt 0.656250 0.625000
vt 0.656250 0.125000
vt 0.656250 0.562500
vt 0.671875 1.000000
vt 0.625000 0.250000
vt 0.625000 0.187500
vt 0.625000 0.687500
vt 0.625000 0.625000
vt 0.625000 0.125000
vt 0.625000 0.562500
vt 0.625000 0.062500
vt 0.625000 0.500000
vt 0.640625 1.000000
vt 0.625000 0.937500
vt 0.640625 0.000000
vt 0.625000 0.437500
vt 0.625000 0.875000
vt 0.625000 0.375000
vt 0.625000 0.812500
vt 0.625000 0.312500
vt 0.625000 0.750000
vt 0.593750 0.937500
vt 0.593750 0.875000
vt 0.593750 0.437500
vt 0.593750 0.375000
vt 0.593750 0.812500
vt 0.593750 0.312500
vt 0.593750 0.750000
vt 0.593750 0.250000
vt 0.593750 0.687500
vt 0.593750 0.187500
vt 0.593750 0.625000
vt 0.593750 0.125000
vt 0.593750 0.562500
vt 0.593750 0.062500
vt 0.593750 0.500000
vt 0.609375 1.000000
vt 0.609375 0.000000
vt 0.562500 0.687500
vt 0.562500 0.625000
vt 0.562500 0.187500
vt 0.562500 0.125000
vt 0.562500 0.562500
vt 0.562500 0.062500
vt 0.562500 0.500000
vt 0.578125 1.000000
vt 0.562500 0.937500
vt 0.578125 0.000000
vt 0.562500 0.437500
vt 0.562500 0.875000
vt 0.562500 0.375000
vt 0.562500 0.812500
vt 0.562500 0.312500
vt 0.562500 0.750000
vt 0.562500 0.250000
vt 0.531250 0.437500
vt 0.531250 0.375000
vt 0.531250 0.875000
vt 0.531250 0.812500
vt 0.531250 0.312500
vt 0.531250 0.750000
vt 0.531250 0.250000
vt 0.531250 0.687500
vt 0.531250 0.187500
vt 0.531250 0.625000
vt 0.531250 0.125000
vt 0.531250 0.562500
vt 0.531250 0.062500
vt 0.531250 0.500000
vt 0.546875 1.000000
vt 0.531250 0.937500
vt 0.546875 0.000000
vt 0.500000 0.187500
vt 0.500000 0.125000
vt 0.500000 0.625000
vt 0.500000 0.562500
vt 0.500000 0.062500
vt 0.500000 0.500000
vt 0.515625 1.000000
vt 0.500000 0.937500
vt 0.515625 0.000000
vt 0.500000 0.437500
vt 0.500000 0.875000
vt 0.500000 0.375000
vt 0.500000 0.812500
vt 0.500000 0.312500
vt 0.500000 0.750000
vt 0.500000 0.250000
vt 0.500000 0.687500
vt 0.468750 0.875000
vt 0.468750 0.812500
vt 0.468750 0.375000
vt 0.468750 0.312500
vt 0.468750 0.750000
vt 0.468750 0.250000
vt 0.468750 0.687500
vt 0.468750 0.187500
vt 0.468750 0.625000
vt 0.468750 0.125000
vt 0.468750 0.562500
vt 0.468750 0.062500
vt 0.468750 0.500000
vt 0.484375 1.000000
vt 0.468750 0.937500
vt 0.484375 0.000000
vt 0.468750 0.437500
vt 0.437500 0.625000
vt 0.437500 0.562500
vt 0.437500 0.125000
vt 0.437500 0.062500
vt 0.437500 0.500000
vt 0.453125 1.000000
vt 0.437500 0.937500
vt 0.453125 0.000000
vt 0.437500 0.437500
vt 0.437500 0.875000
vt 0.437500 0.375000
vt 0.437500 0.812500
vt 0.437500 0.312500
vt 0.437500 0.750000
vt 0.437500 0.250000
vt 0.437500 0.687500
vt 0.437500 0.187500
vt 0.406250 0.375000
vt 0.406250 0.312500
vt 0.406250 0.812500
vt 0.406250 0.750000
vt 0.406250 0.250000
vt 0.406250 0.687500
vt 0.406250 0.187500
vt 0.406250 0.625000
vt 0.406250 0.125000
vt 0.406250 0.562500
vt 0.406250 0.062500
vt 0.406250 0.500000
vt 0.421875 1.000000
vt 0.406250 0.937500
vt 0.421875 0.000000
vt 0.406250 0.437500
vt 0.406250 0.875000
vt 0.375000 0.125000
vt 0.375000 0.062500
vt 0.375000 0.562500
vt 0.375000 0.500000
vt 0.390625 1.000000
vt 0.375000 0.937500
vt 0.390625 0.000000
vt 0.375000 0.437500
vt 0.375000 0.875000
vt 0.375000 0.375000
vt 0.375000 0.812500
vt 0.375000 0.312500
vt 0.375000 0.750000
vt 0.375000 0.250000
vt 0.375000 0.687500
vt 0.375000 0.187500
vt 0.375000 0.625000
vt 0.343750 0.312500
vt 0.343750 0.250000
vt 0.343750 0.750000
vt 0.343750 0.687500
vt 0.343750 0.187500
vt 0.343750 0.625000
vt 0.343750 0.125000
vt 0.343750 0.562500
vt 0.343750 0.062500
vt 0.343750 0.500000
vt 0.359375 1.000000
vt 0.343750 0.937500
vt 0.359375 0.000000
vt 0.343750 0.437500
vt 0.343750 0.875000
vt 0.343750 0.375000
vt 0.343750 0.812500
vt 0.328125 1.000000
vt 0.312500 0.937500
vt 0.328125 0.000000
vt 0.312500 0.062500
vt 0.312500 0.500000
vt 0.312500 0.437500
vt 0.312500 0.875000
vt 0.312500 0.375000
vt 0.312500 0.812500
vt 0.312500 0.312500
vt 0.312500 0.750000
vt 0.312500 0.250000
vt 0.312500 0.687500
vt 0.312500 0.187500
vt 0.312500 0.625000
vt 0.312500 0.125000
vt 0.312500 0.562500
vt 0.281250 0.750000
vt 0.281250 0.687500
vt 0.281250 0.250000
vt 0.281250 0.187500
vt 0.281250 0.625000
vt 0.281250 0.125000
vt 0.281250 0.562500
vt 0.281250 0.062500
vt 0.281250 0.500000
vt 0.296875 1.000000
vt 0.281250 0.937500
vt 0.296875 0.000000
vt 0.281250 0.437500
vt 0.281250 0.875000
vt 0.281250 0.375000
vt 0.281250 0.812500
vt 0.281250 0.312500
vt 0.250000 0.500000
vt 0.250000 0.437500
vt 0.250000 0.937500
vt 0.250000 0.875000
vt 0.250000 0.375000
vt 0.250000 0.812500
vt 0.250000 0.312500
vt 0.250000 0.750000
vt 0.250000 0.250000
vt 0.250000 0.687500
vt 0.250000 0.187500
vt 0.250000 0.625000
vt 0.250000 0.125000
vt 0.250000 0.562500
vt 0.250000 0.062500
vt 0.265625 1.000000
vt 0.265625 0.000000
vt 0.218750 0.250000
vt 0.218750 0.187500
vt 0.218750 0.687500
vt 0.218750 0.625000
vt 0.218750 0.125000
vt 0.218750 0.562500
vt 0.218750 0.062500
vt 0.218750 0.500000
vt 0.234375 1.000000
vt 0.218750 0.937500
vt 0.234375 0.000000
vt 0.218750 0.437500
vt 0.218750 0.875000
vt 0.218750 0.375000
vt 0.218750 0.812500
vt 0.218750 0.312500
vt 0.218750 0.750000
vt 0.187500 0.937500
vt 0.187500 0.875000
vt 0.187500 0.437500
vt 0.187500 0.375000
vt 0.187500 0.812500
vt 0.187500 0.312500
vt 0.187500 0.750000
vt 0.187500 0.250000
vt 0.187500 0.687500
vt 0.187500 0.187500
vt 0.187500 0.625000
vt 0.187500 0.125000
vt 0.187500 0.562500
vt 0.187500 0.062500
vt 0.187500 0.500000
vt 0.203125 1.000000
vt 0.203125 0.000000
vt 0.156250 0.687500
vt 0.156250 0.625000
vt 0.156250 0.187500
vt 0.156250 0.125000
vt 0.156250 0.562500
vt 0.156250 0.062500
vt 0.156250 0.500000
vt 0.171875 1.000000
vt 0.156250 0.937500
vt 0.171875 0.000000
vt 0.156250 0.437500
vt 0.156250 0.875000
vt 0.156250 0.375000
vt 0.156250 0.812500
vt 0.156250 0.312500
vt 0.156250 0.750000
vt 0.156250 0.250000
vt 0.125000 0.437500
vt 0.125000 0.375000
vt 0.125000 0.875000
vt 0.125000 0.812500
vt 0.125000 0.312500
vt 0.125000 0.750000
vt 0.125000 0.250000
vt 0.125000 0.687500
vt 0.125000 0.187500
vt 0.125000 0.625000
vt 0.125000 0.125000
vt 0.125000 0.562500
vt 0.125000 0.062500
vt 0.125000 0.500000
vt 0.140625 1.000000
vt 0.125000 0.937500
vt 0.140625 0.000000
vt 0.093750 0.187500
vt 0.093750 0.125000
vt 0.093750 0.625000
vt 0.093750 0.562500
vt 0.093750 0.062500
vt 0.093750 0.500000
vt 0.109375 1.000000
vt 0.093750 0.937500
vt 0.109375 0.000000
vt 0.093750 0.437500
vt 0.093750 0.875000
vt 0.093750 0.375000
vt 0.093750 0.812500
vt 0.093750 0.312500
vt 0.093750 0.750000
vt 0.093750 0.250000
vt 0.093750 0.687500
vt 0.062500 0.375000
vt 0.062500 0.312500
vt 0.062500 0.812500
vt 0.062500 0.750000
vt 0.062500 0.250000
vt 0.062500 0.687500
vt 0.062500 0.187500
vt 0.062500 0.625000
vt 0.062500 0.125000
vt 0.062500 0.562500
vt 0.062500 0.062500
vt 0.062500 0.500000
vt 0.078125 1.000000
vt 0.062500 0.937500
vt 0.078125 0.000000
vt 0.062500 0.437500
vt 0.062500 0.875000
vt 0.031250 0.125000
vt 0.031250 0.062500
vt 0.031250 0.562500
vt 0.031250 0.500000
vt 0.046875 1.000000
vt 0.031250 0.937500
vt 0.046875 0.000000
vt 0.031250 0.437500
vt 0.031250 0.875000
vt 0.031250 0.375000
vt 0.031250 0.812500
vt 0.031250 0.312500
vt 0.031250 0.750000
vt 0.031250 0.250000
vt 0.031250 0.687500
vt 0.031250 0.187500
vt 0.031250 0.625000
vt 0.000000 0.812500
vt 0.000000 0.750000
vt 0.000000 0.312500
vt 0.000000 0.250000
vt 0.000000 0.687500
vt 0.000000 0.187500
vt 0.000000 0.625000
vt 0.000000 0.125000
vt 0.000000 0.562500
vt 0.000000 0.062500
vt 0.000000 0.500000
vt 0.015625 1.000000
vt 0.000000 0.937500
vt 0.015625 0.000000
vt 0.000000 0.437500
vt 0.000000 0.875000
vt 0.000000 0.375000
vt 1.000000 0.500000
vt 1.000000 0.562500
vt 0.968750 0.562500
vt 0.968750 0.500000
vt 1.000000 0.937500
vt 0.984375 1.000000
vt 0.968750 0.937500
vt 0.984375 0.000000
vt 1.000000 0.062500
vt 0.968750 0.062500
vt 1.000000 0.437500
vt 0.968750 0.437500
vt 1.000000 0.875000
vt 0.968750 0.875000
vt 1.000000 0.375000
vt 0.968750 0.375000
vt 1.000000 0.812500
vt 0.968750 0.812500
vt 1.000000 0.312500
vt 0.968750 0.312500
vt 1.000000 0.750000
vt 0.968750 0.750000
vt 1.000000 0.250000
vt 0.968750 0.250000
vt 1.000000 0.687500
vt 0.968750 0.687500
vt 1.000000 0.187500
vt 0.968750 0.187500
vt 1.000000 0.625000
vt 0.968750 0.625000
vt 1.000000 0.125000
vt 0.968750 0.125000
vt 0.937500 0.312500
vt 0.937500 0.250000
vt 0.937500 0.750000
vt 0.937500 0.687500
vt 0.937500 0.187500
vt 0.937500 0.625000
vt 0.937500 0.125000
vt 0.937500 0.562500
vt 0.937500 0.062500
vt 0.937500 0.500000
vt 0.953125 1.000000
vt 0.937500 0.937500
vt 0.953125 0.000000
vt 0.937500 0.437500
vt 0.937500 0.875000
vt 0.937500 0.375000
vt 0.937500 0.812500
vt 0.921875 1.000000
vt 0.906250 0.937500
vt 0.921875 0.000000
vt 0.906250 0.062500
vt 0.906250 0.500000
vt 0.906250 0.437500
vt 0.906250 0.875000
vt 0.906250 0.375000
vt 0.906250 0.812500
vt 0.906250 0.312500
vt 0.906250 0.750000
vt 0.906250 0.250000
vt 0.906250 0.687500
vt 0.906250 0.187500
vt 0.906250 0.625000
vt 0.906250 0.125000
vt 0.906250 0.562500
vt 0.875000 0.750000
vt 0.875000 0.687500
vt 0.875000 0.250000
vt 0.875000 0.187500
vt 0.875000 0.625000
vt 0.875000 0.125000
vt 0.875000 0.562500
vt 0.875000 0.062500
vt 0.875000 0.500000
vt 0.890625 1.000000
vt 0.875000 0.937500
vt 0.890625 0.000000
vt 0.875000 0.437500
vt 0.875000 0.875000
vt 0.875000 0.375000
vt 0.875000 0.812500
vt 0.875000 0.312500
vt 0.843750 0.500000
vt 0.843750 0.437500
vt 0.843750 0.937500
vt 0.843750 0.875000
vt 0.843750 0.375000
vt 0.843750 0.812500
vt 0.843750 0.312500
vt 0.843750 0.750000
vt 0.843750 0.250000
vt 0.843750 0.687500
vt 0.843750 0.187500
vt 0.843750 0.625000
vt 0.843750 0.125000
vt 0.843750 0.562500
vt 0.843750 0.062500
vt 0.859375 1.000000
vt 0.859375 0.000000
vt 0.812500 0.250000
vt 0.812500 0.187500
vt 0.812500 0.687500
vt 0.812500 0.625000
vt 0.812500 0.125000
vt 0.812500 0.562500
vt 0.812500 0.062500
vt 0.812500 0.500000
vt 0.828125 1.000000
vt 0.812500 0.937500
vt 0.828125 0.000000
vt 0.812500 0.437500
vt 0.812500 0.875000
vt 0.812500 0.375000
vt 0.812500 0.812500
vt 0.812500 0.312500
vt 0.812500 0.750000
vt 0.781250 0.437500
vt 0.781250 0.375000
vt 0.781250 0.875000
vt 0.781250 0.812500
vt 0.781250 0.312500
vt 0.781250 0.750000
vt 0.781250 0.250000
vt 0.781250 0.687500
vt 0.781250 0.187500
vt 0.781250 0.625000
vt 0.781250 0.125000
vt 0.781250 0.562500
vt 0.781250 0.062500
vt 0.781250 0.500000
vt 0.796875 1.000000
vt 0.781250 0.937500
vt 0.796875 0.000000
vt 0.765625 1.000000
vt 0.765625 0.000000
s 0
usemtl Mat_VoidGlow
f 38/66/34 511/67/34 49/68/34 50/69/34
f 514/70/35 43/71/35 57/72/35 58/73/35
f 512/74/36 38/66/36 50/69/36 51/75/36
f 515/76/37 514/70/37 58/73/37 59/77/37
f 39/78/38 512/74/38 51/75/38 52/79/38
f 35/80/39 34/81/39 45/82/39
f 44/83/40 515/76/40 59/77/40
f 513/84/41 39/78/41 52/79/41 53/85/41
f 510/86/42 35/80/42 45/82/42 46/87/42
f 40/88/43 513/84/43 53/85/43 54/89/43
f 36/90/44 510/86/44 46/87/44 47/91/44
f 41/92/45 40/88/45 54/89/45 55/93/45
f 37/94/46 36/90/46 47/91/46 48/95/46
f 42/96/47 41/92/47 55/93/47 56/97/47
f 511/67/48 37/94/48 48/95/48 49/68/48
f 43/71/49 42/96/49 56/97/49 57/72/49
f 56/97/50 55/93/50 70/98/50 71/99/50
f 49/68/51 48/95/51 63/100/51 64/101/51
f 57/72/52 56/97/52 71/99/52 72/102/52
f 50/69/53 49/68/53 64/101/53 65/103/53
f 58/73/54 57/72/54 72/102/54 73/104/54
f 51/75/55 50/69/55 65/103/55 66/105/55
f 59/77/56 58/73/56 73/104/56 74/106/56
f 52/79/57 51/75/57 66/105/57 67/107/57
f 45/82/58 34/108/58 60/109/58
f 44/110/59 59/77/59 74/106/59
f 53/85/60 52/79/60 67/107/60 68/111/60
f 46/87/61 45/82/61 60/109/61 61/112/61
f 54/89/62 53/85/62 68/111/62 69/113/62
f 47/91/63 46/87/63 61/112/63 62/114/63
f 55/93/64 54/89/64 69/113/64 70/98/64
f 48/95/65 47/91/65 62/114/65 63/100/65
f 44/115/66 74/106/66 89/116/66
f 68/111/67 67/107/67 82/117/67 83/118/67
f 61/112/68 60/109/68 75/119/68 76/120/68
f 69/113/69 68/111/69 83/118/69 84/121/69
f 62/114/70 61/112/70 76/120/70 77/122/70
f 70/98/71 69/113/71 84/121/71 85/123/71
f 63/100/72 62/114/72 77/122/72 78/124/72
f 71/99/73 70/98/73 85/123/73 86/125/73
f 64/101/74 63/100/74 78/124/74 79/126/74
f 72/102/75 71/99/75 86/125/75 87/127/75
f 65/103/76 64/101/76 79/126/76 80/128/76
f 73/104/77 72/102/77 87/127/77 88/129/77
f 66/105/78 65/103/78 80/128/78 81/130/78
f 74/106/79 73/104/79 88/129/79 89/116/79
f 67/107/80 66/105/80 81/130/80 82/117/80
f 60/109/81 34/131/81 75/119/81
f 87/127/82 86/125/82 101/132/82 102/133/82
f 80/128/83 79/126/83 94/134/83 95/135/83
f 88/129/84 87/127/84 102/133/84 103/136/84
f 81/130/85 80/128/85 95/135/85 96/137/85
f 89/116/86 88/129/86 103/136/86 104/138/86
f 82/117/87 81/130/87 96/137/87 97/139/87
f 75/119/88 34/140/88 90/141/88
f 44/142/89 89/116/89 104/138/89
f 83/118/90 82/117/90 97/139/90 98/143/90
f 76/120/91 75/119/91 90/141/91 91/144/91
f 84/121/92 83/118/92 98/143/92 99/145/92
f 77/122/93 76/120/93 91/144/93 92/146/93
f 85/123/94 84/121/94 99/145/94 100/147/94
f 78/124/95 77/122/95 92/146/95 93/148/95
f 86/125/96 85/123/96 100/147/96 101/132/96
f 79/126/97 78/124/97 93/148/97 94/134/97
f 91/144/98 90/141/98 105/149/98 106/150/98
f 99/145/99 98/143/99 113/151/99 114/152/99
f 92/146/100 91/144/100 106/150/100 107/153/100
f 100/147/101 99/145/101 114/152/101 115/154/101
f 93/148/102 92/146/102 107/153/102 108/155/102
f 101/132/103 100/147/103 115/154/103 116/156/103
f 94/134/104 93/148/104 108/155/104 109/157/104
f 102/133/105 101/132/105 116/156/105 117/158/105
f 95/135/106 94/134/106 109/157/106 110/159/106
f 103/136/107 102/133/107 117/158/107 118/160/107
f 96/137/108 95/135/108 110/159/108 111/161/108
f 104/138/109 103/136/109 118/160/109 119/162/109
f 97/139/110 96/137/110 111/161/110 112/163/110
f 90/141/111 34/164/111 105/149/111
f 44/165/112 104/138/112 119/162/112
f 98/143/113 97/139/113 112/163/113 113/151/113
f 110/159/114 109/157/114 124/166/114 125/167/114
f 118/160/115 117/158/115 132/168/115 133/169/115
f 111/161/116 110/159/116 125/167/116 126/170/116
f 119/162/117 118/160/117 133/169/117 134/171/117
f 112/163/118 111/161/118 126/170/118 127/172/118
f 105/149/119 34/173/119 120/174/119
f 44/175/120 119/162/120 134/171/120
f 113/151/121 112/163/121 127/172/121 128/176/121
f 106/150/122 105/149/122 120/174/122 121/177/122
f 114/152/123 113/151/123 128/176/123 129/178/123
f 107/153/124 106/150/124 121/177/124 122/179/124
f 115/154/125 114/152/125 129/178/125 130/180/125
f 108/155/126 107/153/126 122/179/126 123/181/126
f 116/156/127 115/154/127 130/180/127 131/182/127
f 109/157/128 108/155/128 123/181/128 124/166/128
f 117/158/129 116/156/129 131/182/129 132/168/129
f 129/178/130 128/176/130 143/183/130 144/184/130
f 122/179/131 121/177/131 136/185/131 137/186/131
f 130/180/132 129/178/132 144/184/132 145/187/132
f 123/181/133 122/179/133 137/186/133 138/188/133
f 131/182/134 130/180/134 145/187/134 146/189/134
f 124/166/135 123/181/135 138/188/135 139/190/135
f 132/168/136 131/182/136 146/189/136 147/191/136
f 125/167/137 124/166/137 139/190/137 140/192/137
f 133/169/138 132/168/138 147/191/138 148/193/138
f 126/170/139 125/167/139 140/192/139 141/194/139
f 134/171/140 133/169/140 148/193/140 149/195/140
f 127/172/141 126/170/141 141/194/141 142/196/141
f 120/174/142 34/197/142 135/198/142
f 44/199/143 134/171/143 149/195/143
f 128/176/144 127/172/144 142/196/144 143/183/144
f 121/177/145 120/174/145 135/198/145 136/185/145
f 148/193/146 147/191/146 162/200/146 163/201/146
f 141/194/147 140/192/147 155/202/147 156/203/147
f 149/195/148 148/193/148 163/201/148 164/204/148
f 142/196/149 141/194/149 156/203/149 157/205/149
f 135/198/150 34/206/150 150/207/150
f 44/208/151 149/195/151 164/204/151
f 143/183/152 142/196/152 157/205/152 158/209/152
f 136/185/153 135/198/153 150/207/153 151/210/153
f 144/184/154 143/183/154 158/209/154 159/211/154
f 137/186/155 136/185/155 151/210/155 152/212/155
f 145/187/156 144/184/156 159/211/156 160/213/156
f 138/188/157 137/186/157 152/212/157 153/214/157
f 146/189/158 145/187/158 160/213/158 161/215/158
f 139/190/159 138/188/159 153/214/159 154/216/159
f 147/191/160 146/189/160 161/215/160 162/200/160
f 140/192/161 139/190/161 154/216/161 155/202/161
f 152/212/162 151/210/162 166/217/162 167/218/162
f 160/213/163 159/211/163 174/219/163 175/220/163
f 153/214/164 152/212/164 167/218/164 168/221/164
f 161/215/165 160/213/165 175/220/165 176/222/165
f 154/216/166 153/214/166 168/221/166 169/223/166
f 162/200/167 161/215/167 176/222/167 177/224/167
f 155/202/168 154/216/168 169/223/168 170/225/168
f 163/201/169 162/200/169 177/224/169 178/226/169
f 156/203/170 155/202/170 170/225/170 171/227/170
f 164/204/171 163/201/171 178/226/171 179/228/171
f 157/205/172 156/203/172 171/227/172 172/229/172
f 150/207/173 34/230/173 165/231/173
f 44/232/174 164/204/174 179/228/174
f 158/209/175 157/205/175 172/229/175 173/233/175
f 151/210/176 150/207/176 165/231/176 166/217/176
f 159/211/177 158/209/177 173/233/177 174/219/177
f 171/227/178 170/225/178 185/234/178 186/235/178
f 179/228/179 178/226/179 193/236/179 194/237/179
f 172/229/180 171/227/180 186/235/180 187/238/180
f 165/231/181 34/239/181 180/240/181
f 44/241/182 179/228/182 194/237/182
f 173/233/183 172/229/183 187/238/183 188/242/183
f 166/217/184 165/231/184 180/240/184 181/243/184
f 174/219/185 173/233/185 188/242/185 189/244/185
f 167/218/186 166/217/186 181/243/186 182/245/186
f 175/220/187 174/219/187 189/244/187 190/246/187
f 168/221/188 167/218/188 182/245/188 183/247/188
f 176/222/189 175/220/189 190/246/189 191/248/189
f 169/223/190 168/221/190 183/247/190 184/249/190
f 177/224/191 176/222/191 191/248/191 192/250/191
f 170/225/192 169/223/192 184/249/192 185/234/192
f 178/226/193 177/224/193 192/250/193 193/236/193
f 190/246/194 189/244/194 204/251/194 205/252/194
f 183/247/195 182/245/195 197/253/195 198/254/195
f 191/248/196 190/246/196 205/252/196 206/255/196
f 184/249/197 183/247/197 198/254/197 199/256/197
f 192/250/198 191/248/198 206/255/198 207/257/198
f 185/234/199 184/249/199 199/256/199 200/258/199
f 193/236/200 192/250/200 207/257/200 208/259/200
f 186/235/201 185/234/201 200/258/201 201/260/201
f 194/237/202 193/236/202 208/259/202 209/261/202
f 187/238/203 186/235/203 201/260/203 202/262/203
f 180/240/204 34/263/204 195/264/204
f 44/265/205 194/237/205 209/261/205
f 188/242/206 187/238/206 202/262/206 203/266/206
f 181/243/207 180/240/207 195/264/207 196/267/207
f 189/244/208 188/242/208 203/266/208 204/251/208
f 182/245/209 181/243/209 196/267/209 197/253/209
f 209/261/210 208/259/210 223/268/210 224/269/210
f 202/262/211 201/260/211 216/270/211 217/271/211
f 195/264/212 34/272/212 210/273/212
f 44/274/213 209/261/213 224/269/213
f 203/266/214 202/262/214 217/271/214 218/275/214
f 196/267/215 195/264/215 210/273/215 211/276/215
f 204/251/216 203/266/216 218/275/216 219/277/216
f 197/253/217 196/267/217 211/276/217 212/278/217
f 205/252/218 204/251/218 219/277/218 220/279/218
f 198/254/219 197/253/219 212/278/219 213/280/219
f 206/255/220 205/252/220 220/279/220 221/281/220
f 199/256/221 198/254/221 213/280/221 214/282/221
f 207/257/222 206/255/222 221/281/222 222/283/222
f 200/258/223 199/256/223 214/282/223 215/284/223
f 208/259/224 207/257/224 222/283/224 223/268/224
f 201/260/225 200/258/225 215/284/225 216/270/225
f 221/281/226 220/279/226 235/285/226 236/286/226
f 214/282/227 213/280/227 228/287/227 229/288/227
f 222/283/228 221/281/228 236/286/228 237/289/228
f 215/284/229 214/282/229 229/288/229 230/290/229
f 223/268/230 222/283/230 237/289/230 238/291/230
f 216/270/231 215/284/231 230/290/231 231/292/231
f 224/269/232 223/268/232 238/291/232 239/293/232
f 217/271/233 216/270/233 231/292/233 232/294/233
f 210/273/234 34/295/234 225/296/234
f 44/297/235 224/269/235 239/293/235
f 218/275/236 217/271/236 232/294/236 233/298/236
f 211/276/237 210/273/237 225/296/237 226/299/237
f 219/277/238 218/275/238 233/298/238 234/300/238
f 212/278/239 211/276/239 226/299/239 227/301/239
f 220/279/240 219/277/240 234/300/240 235/285/240
f 213/280/241 212/278/241 227/301/241 228/287/241
f 225/296/242 34/302/242 240/303/242
f 44/304/243 239/293/243 254/305/243
f 233/298/244 232/294/244 247/306/244 248/307/244
f 226/299/245 225/296/245 240/303/245 241/308/245
f 234/300/246 233/298/246 248/307/246 249/309/246
f 227/301/247 226/299/247 241/308/247 242/310/247
f 235/285/248 234/300/248 249/309/248 250/311/248
f 228/287/249 227/301/249 242/310/249 243/312/249
f 236/286/250 235/285/250 250/311/250 251/313/250
f 229/288/251 228/287/251 243/312/251 244/314/251
f 237/289/252 236/286/252 251/313/252 252/315/252
f 230/290/253 229/288/253 244/314/253 245/316/253
f 238/291/254 237/289/254 252/315/254 253/317/254
f 231/292/255 230/290/255 245/316/255 246/318/255
f 239/293/256 238/291/256 253/317/256 254/305/256
f 232/294/257 231/292/257 246/318/257 247/306/257
f 244/314/258 243/312/258 258/319/258 259/320/258
f 252/315/259 251/313/259 266/321/259 267/322/259
f 245/316/260 244/314/260 259/320/260 260/323/260
f 253/317/261 252/315/261 267/322/261 268/324/261
f 246/318/262 245/316/262 260/323/262 261/325/262
f 254/305/263 253/317/263 268/324/263 269/326/263
f 247/306/264 246/318/264 261/325/264 262/327/264
f 240/303/265 34/328/265 255/329/265
f 44/330/266 254/305/266 269/326/266
f 248/307/267 247/306/267 262/327/267 263/331/267
f 241/308/268 240/303/268 255/329/268 256/332/268
f 249/309/269 248/307/269 263/331/269 264/333/269
f 242/310/270 241/308/270 256/332/270 257/334/270
f 250/311/271 249/309/271 264/333/271 265/335/271
f 243/312/272 242/310/272 257/334/272 258/319/272
f 251/313/273 250/311/273 265/335/273 266/321/273
f 263/331/274 262/327/274 277/336/274 278/337/274
f 256/332/275 255/329/275 270/338/275 271/339/275
f 264/333/276 263/331/276 278/337/276 279/340/276
f 257/334/277 256/332/277 271/339/277 272/341/277
f 265/335/278 264/333/278 279/340/278 280/342/278
f 258/319/279 257/334/279 272/341/279 273/343/279
f 266/321/280 265/335/280 280/342/280 281/344/280
f 259/320/281 258/319/281 273/343/281 274/345/281
f 267/322/282 266/321/282 281/344/282 282/346/282
f 260/323/283 259/320/283 274/345/283 275/347/283
f 268/324/284 267/322/284 282/346/284 283/348/284
f 261/325/285 260/323/285 275/347/285 276/349/285
f 269/326/286 268/324/286 283/348/286 284/350/286
f 262/327/287 261/325/287 276/349/287 277/336/287
f 255/329/288 34/351/288 270/338/288
f 44/352/289 269/326/289 284/350/289
f 282/346/290 281/344/290 296/353/290 297/354/290
f 275/347/291 274/345/291 289/355/291 290/356/291
f 283/348/292 282/346/292 297/354/292 298/357/292
f 276/349/293 275/347/293 290/356/293 291/358/293
f 284/350/294 283/348/294 298/357/294 299/359/294
f 277/336/295 276/349/295 291/358/295 292/360/295
f 270/338/296 34/361/296 285/362/296
f 44/363/297 284/350/297 299/359/297
f 278/337/298 277/336/298 292/360/298 293/364/298
f 271/339/299 270/338/299 285/362/299 286/365/299
f 279/340/300 278/337/300 293/364/300 294/366/300
f 272/341/301 271/339/301 286/365/301 287/367/301
f 280/342/302 279/340/302 294/366/302 295/368/302
f 273/343/303 272/341/303 287/367/303 288/369/303
f 281/344/304 280/342/304 295/368/304 296/353/304
f 274/345/305 273/343/305 288/369/305 289/355/305
f 286/365/306 285/362/306 300/370/306 301/371/306
f 294/366/307 293/364/307 308/372/307 309/373/307
f 287/367/308 286/365/308 301/371/308 302/374/308
f 295/368/309 294/366/309 309/373/309 310/375/309
f 288/369/310 287/367/310 302/374/310 303/376/310
f 296/353/311 295/368/311 310/375/311 311/377/311
f 289/355/312 288/369/312 303/376/312 304/378/312
f 297/354/313 296/353/313 311/377/313 312/379/313
f 290/356/314 289/355/314 304/378/314 305/380/314
f 298/357/315 297/354/315 312/379/315 313/381/315
f 291/358/316 290/356/316 305/380/316 306/382/316
f 299/359/317 298/357/317 313/381/317 314/383/317
f 292/360/318 291/358/318 306/382/318 307/384/318
f 285/362/319 34/385/319 300/370/319
f 44/386/320 299/359/320 314/383/320
f 293/364/321 292/360/321 307/384/321 308/372/321
f 305/380/322 304/378/322 319/387/322 320/388/322
f 313/381/323 312/379/323 327/389/323 328/390/323
f 306/382/324 305/380/324 320/388/324 321/391/324
f 314/383/325 313/381/325 328/390/325 329/392/325
f 307/384/326 306/382/326 321/391/326 322/393/326
f 300/370/327 34/394/327 315/395/327
f 44/396/328 314/383/328 329/392/328
f 308/372/329 307/384/329 322/393/329 323/397/329
f 301/371/330 300/370/330 315/395/330 316/398/330
f 309/373/331 308/372/331 323/397/331 324/399/331
f 302/374/332 301/371/332 316/398/332 317/400/332
f 310/375/333 309/373/333 324/399/333 325/401/333
f 303/376/334 302/374/334 317/400/334 318/402/334
f 311/377/335 310/375/335 325/401/335 326/403/335
f 304/378/336 303/376/336 318/402/336 319/387/336
f 312/379/337 311/377/337 326/403/337 327/389/337
f 324/399/338 323/397/338 338/404/338 339/405/338
f 317/400/339 316/398/339 331/406/339 332/407/339
f 325/401/340 324/399/340 339/405/340 340/408/340
f 318/402/341 317/400/341 332/407/341 333/409/341
f 326/403/342 325/401/342 340/408/342 341/410/342
f 319/387/343 318/402/343 333/409/343 334/411/343
f 327/389/344 326/403/344 341/410/344 342/412/344
f 320/388/345 319/387/345 334/411/345 335/413/345
f 328/390/346 327/389/346 342/412/346 343/414/346
f 321/391/347 320/388/347 335/413/347 336/415/347
f 329/392/348 328/390/348 343/414/348 344/416/348
f 322/393/349 321/391/349 336/415/349 337/417/349
f 315/395/350 34/418/350 330/419/350
f 44/420/351 329/392/351 344/416/351
f 323/397/352 322/393/352 337/417/352 338/404/352
f 316/398/353 315/395/353 330/419/353 331/406/353
f 343/414/354 342/412/354 357/421/354 358/422/354
f 336/415/355 335/413/355 350/423/355 351/424/355
f 344/416/356 343/414/356 358/422/356 359/425/356
f 337/417/357 336/415/357 351/424/357 352/426/357
f 330/419/358 34/427/358 345/428/358
f 44/429/359 344/416/359 359/425/359
f 338/404/360 337/417/360 352/426/360 353/430/360
f 331/406/361 330/419/361 345/428/361 346/431/361
f 339/405/362 338/404/362 353/430/362 354/432/362
f 332/407/363 331/406/363 346/431/363 347/433/363
f 340/408/364 339/405/364 354/432/364 355/434/364
f 333/409/365 332/407/365 347/433/365 348/435/365
f 341/410/366 340/408/366 355/434/366 356/436/366
f 334/411/367 333/409/367 348/435/367 349/437/367
f 342/412/368 341/410/368 356/436/368 357/421/368
f 335/413/369 334/411/369 349/437/369 350/423/369
f 355/434/370 354/432/370 369/438/370 370/439/370
f 348/435/371 347/433/371 362/440/371 363/441/371
f 356/436/372 355/434/372 370/439/372 371/442/372
f 349/437/373 348/435/373 363/441/373 364/443/373
f 357/421/374 356/436/374 371/442/374 372/444/374
f 350/423/375 349/437/375 364/443/375 365/445/375
f 358/422/376 357/421/376 372/444/376 373/446/376
f 351/424/377 350/423/377 365/445/377 366/447/377
f 359/425/378 358/422/378 373/446/378 374/448/378
f 352/426/379 351/424/379 366/447/379 367/449/379
f 345/428/380 34/450/380 360/451/380
f 44/452/381 359/425/381 374/448/381
f 353/430/382 352/426/382 367/449/382 368/453/382
f 346/431/383 345/428/383 360/451/383 361/454/383
f 354/432/384 353/430/384 368/453/384 369/438/384
f 347/433/385 346/431/385 361/454/385 362/440/385
f 374/448/386 373/446/386 388/455/386 389/456/386
f 367/449/387 366/447/387 381/457/387 382/458/387
f 360/451/388 34/459/388 375/460/388
f 44/461/389 374/448/389 389/456/389
f 368/453/390 367/449/390 382/458/390 383/462/390
f 361/454/391 360/451/391 375/460/391 376/463/391
f 369/438/392 368/453/392 383/462/392 384/464/392
f 362/440/393 361/454/393 376/463/393 377/465/393
f 370/439/394 369/438/394 384/464/394 385/466/394
f 363/441/395 362/440/395 377/465/395 378/467/395
f 371/442/396 370/439/396 385/466/396 386/468/396
f 364/443/397 363/441/397 378/467/397 379/469/397
f 372/444/398 371/442/398 386/468/398 387/470/398
f 365/445/399 364/443/399 379/469/399 380/471/399
f 373/446/400 372/444/400 387/470/400 388/455/400
f 366/447/401 365/445/401 380/471/401 381/457/401
f 378/467/402 377/465/402 392/472/402 393/473/402
f 386/468/403 385/466/403 400/474/403 401/475/403
f 379/469/404 378/467/404 393/473/404 394/476/404
f 387/470/405 386/468/405 401/475/405 402/477/405
f 380/471/406 379/469/406 394/476/406 395/478/406
f 388/455/407 387/470/407 402/477/407 403/479/407
f 381/457/408 380/471/408 395/478/408 396/480/408
f 389/456/409 388/455/409 403/479/409 404/481/409
f 382/458/410 381/457/410 396/480/410 397/482/410
f 375/460/411 34/483/411 390/484/411
f 44/485/412 389/456/412 404/481/412
f 383/462/413 382/458/413 397/482/413 398/486/413
f 376/463/414 375/460/414 390/484/414 391/487/414
f 384/464/415 383/462/415 398/486/415 399/488/415
f 377/465/416 376/463/416 391/487/416 392/472/416
f 385/466/417 384/464/417 399/488/417 400/474/417
f 397/489/418 396/490/418 411/491/418 412/492/418
f 390/493/419 34/494/419 405/495/419
f 44/496/420 404/497/420 419/498/420
f 398/499/421 397/489/421 412/492/421 413/500/421
f 391/501/422 390/493/422 405/495/422 406/502/422
f 399/503/423 398/499/423 413/500/423 414/504/423
f 392/505/424 391/501/424 406/502/424 407/506/424
f 400/507/425 399/503/425 414/504/425 415/508/425
f 393/509/426 392/505/426 407/506/426 408/510/426
f 401/511/427 400/507/427 415/508/427 416/512/427
f 394/513/428 393/509/428 408/510/428 409/514/428
f 402/515/429 401/511/429 416/512/429 417/516/429
f 395/517/430 394/513/430 409/514/430 410/518/430
f 403/519/431 402/515/431 417/516/431 418/520/431
f 396/490/432 395/517/432 410/518/432 411/491/432
f 404/497/433 403/519/433 418/520/433 419/498/433
f 416/512/434 415/508/434 430/521/434 431/522/434
f 409/514/435 408/510/435 423/523/435 424/524/435
f 417/516/436 416/512/436 431/522/436 432/525/436
f 410/518/437 409/514/437 424/524/437 425/526/437
f 418/520/438 417/516/438 432/525/438 433/527/438
f 411/491/439 410/518/439 425/526/439 426/528/439
f 419/498/440 418/520/440 433/527/440 434/529/440
f 412/492/441 411/491/441 426/528/441 427/530/441
f 405/495/442 34/531/442 420/532/442
f 44/533/443 419/498/443 434/529/443
f 413/500/444 412/492/444 427/530/444 428/534/444
f 406/502/445 405/495/445 420/532/445 421/535/445
f 414/504/446 413/500/446 428/534/446 429/536/446
f 407/506/447 406/502/447 421/535/447 422/537/447
f 415/508/448 414/504/448 429/536/448 430/521/448
f 408/510/449 407/506/449 422/537/449 423/523/449
f 420/532/450 34/538/450 435/539/450
f 44/540/451 434/529/451 449/541/451
f 428/534/452 427/530/452 442/542/452 443/543/452
f 421/535/453 420/532/453 435/539/453 436/544/453
f 429/536/454 428/534/454 443/543/454 444/545/454
f 422/537/455 421/535/455 436/544/455 437/546/455
f 430/521/456 429/536/456 444/545/456 445/547/456
f 423/523/457 422/537/457 437/546/457 438/548/457
f 431/522/458 430/521/458 445/547/458 446/549/458
f 424/524/459 423/523/459 438/548/459 439/550/459
f 432/525/460 431/522/460 446/549/460 447/551/460
f 425/526/461 424/524/461 439/550/461 440/552/461
f 433/527/462 432/525/462 447/551/462 448/553/462
f 426/528/463 425/526/463 440/552/463 441/554/463
f 434/529/464 433/527/464 448/553/464 449/541/464
f 427/530/465 426/528/465 441/554/465 442/542/465
f 439/550/466 438/548/466 453/555/466 454/556/466
f 447/551/467 446/549/467 461/557/467 462/558/467
f 440/552/468 439/550/468 454/556/468 455/559/468
f 448/553/469 447/551/469 462/558/469 463/560/469
f 441/554/470 440/552/470 455/559/470 456/561/470
f 449/541/471 448/553/471 463/560/471 464/562/471
f 442/542/472 441/554/472 456/561/472 457/563/472
f 435/539/473 34/564/473 450/565/473
f 44/566/474 449/541/474 464/562/474
f 443/543/475 442/542/475 457/563/475 458/567/475
f 436/544/476 435/539/476 450/565/476 451/568/476
f 444/545/477 443/543/477 458/567/477 459/569/477
f 437/546/478 436/544/478 451/568/478 452/570/478
f 445/547/479 444/545/479 459/569/479 460/571/479
f 438/548/480 437/546/480 452/570/480 453/555/480
f 446/549/481 445/547/481 460/571/481 461/557/481
f 458/567/482 457/563/482 472/572/482 473/573/482
f 451/568/483 450/565/483 465/574/483 466/575/483
f 459/569/484 458/567/484 473/573/484 474/576/484
f 452/570/485 451/568/485 466/575/485 467/577/485
f 460/571/486 459/569/486 474/576/486 475/578/486
f 453/555/487 452/570/487 467/577/487 468/579/487
f 461/557/488 460/571/488 475/578/488 476/580/488
f 454/556/489 453/555/489 468/579/489 469/581/489
f 462/558/490 461/557/490 476/580/490 477/582/490
f 455/559/491 454/556/491 469/581/491 470/583/491
f 463/560/492 462/558/492 477/582/492 478/584/492
f 456/561/493 455/559/493 470/583/493 471/585/493
f 464/562/494 463/560/494 478/584/494 479/586/494
f 457/563/495 456/561/495 471/585/495 472/572/495
f 450/565/496 34/587/496 465/574/496
f 44/588/497 464/562/497 479/586/497
f 477/582/498 476/580/498 491/589/498 492/590/498
f 470/583/499 469/581/499 484/591/499 485/592/499
f 478/584/500 477/582/500 492/590/500 493/593/500
f 471/585/501 470/583/501 485/592/501 486/594/501
f 479/586/502 478/584/502 493/593/502 494/595/502
f 472/572/503 471/585/503 486/594/503 487/596/503
f 465/574/504 34/597/504 480/598/504
f 44/599/505 479/586/505 494/595/505
f 473/573/506 472/572/506 487/596/506 488/600/506
f 466/575/507 465/574/507 480/598/507 481/601/507
f 474/576/508 473/573/508 488/600/508 489/602/508
f 467/577/509 466/575/509 481/601/509 482/603/509
f 475/578/510 474/576/510 489/602/510 490/604/510
f 468/579/511 467/577/511 482/603/511 483/605/511
f 476/580/512 475/578/512 490/604/512 491/589/512
f 469/581/513 468/579/513 483/605/513 484/591/513
f 489/602/514 488/600/514 503/606/514 504/607/514
f 482/603/515 481/601/515 496/608/515 497/609/515
f 490/604/516 489/602/516 504/607/516 505/610/516
f 483/605/517 482/603/517 497/609/517 498/611/517
f 491/589/518 490/604/518 505/610/518 506/612/518
f 484/591/519 483/605/519 498/611/519 499/613/519
f 492/590/520 491/589/520 506/612/520 507/614/520
f 485/592/521 484/591/521 499/613/521 500/615/521
f 493/593/522 492/590/522 507/614/522 508/616/522
f 486/594/523 485/592/523 500/615/523 501/617/523
f 494/595/524 493/593/524 508/616/524 509/618/524
f 487/596/525 486/594/525 501/617/525 502/619/525
f 480/598/526 34/620/526 495/621/526
f 44/622/527 494/595/527 509/618/527
f 488/600/528 487/596/528 502/619/528 503/606/528
f 481/601/529 480/598/529 495/621/529 496/608/529
f 508/616/530 507/614/530 43/71/530 514/70/530
f 501/617/531 500/615/531 38/66/531 512/74/531
f 509/618/532 508/616/532 514/70/532 515/76/532
f 502/619/533 501/617/533 512/74/533 39/78/533
f 495/621/534 34/623/534 35/80/534
f 44/624/535 509/618/535 515/76/535
f 503/606/536 502/619/536 39/78/536 513/84/536
f 496/608/537 495/621/537 35/80/537 510/86/537
f 504/607/538 503/606/538 513/84/538 40/88/538
f 497/609/539 496/608/539 510/86/539 36/90/539
f 505/610/540 504/607/540 40/88/540 41/92/540
f 498/611/541 497/609/541 36/90/541 37/94/541
f 506/612/542 505/610/542 41/92/542 42/96/542
f 499/613/543 498/611/543 37/94/543 511/67/543
f 507/614/544 506/612/544 42/96/544 43/71/544
f 500/615/545 499/613/545 511/67/545 38/66/545
o Icosphere
v 0.700000 1.220000 0.300000
v 0.902610 1.374779 0.447203
v 0.622611 1.374779 0.538182
v 0.449561 1.374780 0.300000
v 0.622611 1.374779 0.061818
v 0.902610 1.374779 0.152797
v 0.777389 1.625221 0.538182
v 0.497390 1.625221 0.447203
v 0.497390 1.625221 0.152797
v 0.777389 1.625221 0.061818
v 0.950439 1.625220 0.300000
v 0.700000 1.780000 0.300000
v 0.654512 1.261817 0.439999
v 0.819090 1.261817 0.386523
v 0.773603 1.352793 0.526523
v 0.938181 1.352794 0.300000
v 0.819090 1.261817 0.213477
v 0.552796 1.261818 0.300000
v 0.507307 1.352794 0.439999
v 0.654512 1.261817 0.160001
v 0.507307 1.352794 0.160001
v 0.773603 1.352793 0.073477
v 0.966296 1.500000 0.386524
v 0.966296 1.500000 0.213476
v 0.700000 1.500000 0.580000
v 0.864580 1.500000 0.526525
v 0.433704 1.500000 0.386524
v 0.535420 1.500000 0.526525
v 0.535420 1.500000 0.073475
v 0.433704 1.500000 0.213476
v 0.864580 1.500000 0.073475
v 0.700000 1.500000 0.020000
v 0.892693 1.647206 0.439999
v 0.626397 1.647207 0.526523
v 0.461819 1.647206 0.300000
v 0.626397 1.647207 0.073477
v 0.892693 1.647206 0.160001
v 0.745488 1.738183 0.439999
v 0.847204 1.738182 0.300000
v 0.580910 1.738183 0.386523
v 0.580910 1.738183 0.213477
v 0.745488 1.738183 0.160001
vn 0.1024 -0.9435 0.3151
vn 0.7002 -0.6617 0.2680
vn -0.2680 -0.9435 0.1947
vn -0.2680 -0.9435 -0.1947
vn 0.1024 -0.9435 -0.3151
vn 0.9050 -0.3304 0.2680
vn 0.0247 -0.3304 0.9435
vn -0.8897 -0.3304 0.3151
vn -0.5746 -0.3304 -0.7488
vn 0.5346 -0.3304 -0.7779
vn 0.8026 -0.1256 0.5831
vn -0.3066 -0.1256 0.9435
vn -0.9921 -0.1256 -0.0000
vn -0.3066 -0.1256 -0.9435
vn 0.8026 -0.1256 -0.5831
vn 0.4089 0.6617 0.6284
vn -0.4713 0.6617 0.5831
vn -0.7002 0.6617 -0.2680
vn 0.0385 0.6617 -0.7488
vn 0.7240 0.6617 -0.1947
vn 0.2680 0.9435 -0.1947
vn 0.4911 0.7947 -0.3568
vn 0.4089 0.6617 -0.6284
vn -0.1024 0.9435 -0.3151
vn -0.1876 0.7947 -0.5773
vn -0.4713 0.6617 -0.5831
vn -0.3313 0.9435 -0.0000
vn -0.6071 0.7947 -0.0000
vn -0.7002 0.6617 0.2680
vn -0.1024 0.9435 0.3151
vn -0.1876 0.7947 0.5773
vn 0.0385 0.6617 0.7488
vn 0.2680 0.9435 0.1947
vn 0.4911 0.7947 0.3568
vn 0.7240 0.6617 0.1947
vn 0.8897 0.3304 -0.3151
vn 0.7947 0.1876 -0.5773
vn 0.5746 0.3304 -0.7488
vn -0.0247 0.3304 -0.9435
vn -0.3035 0.1876 -0.9342
vn -0.5346 0.3304 -0.7779
vn -0.9050 0.3304 -0.2680
vn -0.9822 0.1876 -0.0000
vn -0.9050 0.3304 0.2680
vn -0.5346 0.3304 0.7779
vn -0.3035 0.1876 0.9342
vn -0.0247 0.3304 0.9435
vn 0.5746 0.3304 0.7488
vn 0.7947 0.1876 0.5773
vn 0.8897 0.3304 0.3151
vn 0.3066 0.1256 -0.9435
vn 0.3035 -0.1876 -0.9342
vn 0.0247 -0.3304 -0.9435
vn -0.8026 0.1256 -0.5831
vn -0.7947 -0.1876 -0.5773
vn -0.8897 -0.3304 -0.3151
vn -0.8026 0.1256 0.5831
vn -0.7947 -0.1876 0.5773
vn -0.5746 -0.3304 0.7488
vn 0.3066 0.1256 0.9435
vn 0.3035 -0.1876 0.9342
vn 0.5346 -0.3304 0.7779
vn 0.9921 0.1256 -0.0000
vn 0.9822 -0.1876 -0.0000
vn 0.9050 -0.3304 -0.2680
vn 0.4713 -0.6617 -0.5831
vn 0.1876 -0.7947 -0.5773
vn -0.0385 -0.6617 -0.7488
vn -0.4089 -0.6617 -0.6284
vn -0.4911 -0.7947 -0.3568
vn -0.7240 -0.6617 -0.1947
vn -0.7240 -0.6617 0.1947
vn -0.4911 -0.7947 0.3568
vn -0.4089 -0.6617 0.6284
vn 0.7002 -0.6617 -0.2680
vn 0.6071 -0.7947 -0.0000
vn 0.3313 -0.9435 -0.0000
vn -0.0385 -0.6617 0.7488
vn 0.1876 -0.7947 0.5773
vn 0.4713 -0.6617 0.5831
vt 0.181819 0.000000
vt 0.227273 0.078731
vt 0.136365 0.078731
vt 0.272728 0.157461
vt 0.318182 0.078731
vt 0.363637 0.157461
vt 0.909091 0.000000
vt 0.954545 0.078731
vt 0.863636 0.078731
vt 0.727273 0.000000
vt 0.772727 0.078731
vt 0.681818 0.078731
vt 0.545455 0.000000
vt 0.590909 0.078731
vt 0.500000 0.078731
vt 0.318182 0.236191
vt 0.090910 0.157461
vt 0.181819 0.157461
vt 0.136365 0.236191
vt 0.818182 0.157461
vt 0.909091 0.157461
vt 0.863636 0.236191
vt 0.636364 0.157461
vt 0.727273 0.157461
vt 0.681818 0.236191
vt 0.454546 0.157461
vt 0.545455 0.157461
vt 0.500000 0.236191
vt 0.227273 0.236191
vt 0.045455 0.236191
vt 0.772727 0.236191
vt 0.590909 0.236191
vt 0.409092 0.236191
vt 0.181819 0.314921
vt 0.272728 0.314921
vt 0.227273 0.393651
vt 0.000000 0.314921
vt 0.090910 0.314921
vt 0.045455 0.393651
vt 0.727273 0.314921
vt 0.818182 0.314921
vt 0.772727 0.393651
vt 0.545455 0.314921
vt 0.636364 0.314921
vt 0.590909 0.393651
vt 0.363637 0.314921
vt 0.454546 0.314921
vt 0.409092 0.393651
vt 0.500000 0.393651
vt 0.454546 0.472382
vt 0.681818 0.393651
vt 0.636364 0.472382
vt 0.863636 0.393651
vt 0.818182 0.472382
vt 0.909091 0.314921
vt 0.136365 0.393651
vt 0.090910 0.472382
vt 0.318182 0.393651
vt 0.272728 0.472382
vt 0.954545 0.236191
vt 1.000000 0.157461
vt 0.409092 0.078731
vt 0.363637 0.000000
s 0
usemtl Mat_Crystal
f 516/625/546 529/626/546 528/627/546
f 517/628/547 529/629/547 531/630/547
f 516/631/548 528/632/548 533/633/548
f 516/634/549 533/635/549 535/636/549
f 516/637/550 535/638/550 532/639/550
f 517/628/551 531/630/551 538/640/551
f 518/641/552 530/642/552 540/643/552
f 519/644/553 534/645/553 542/646/553
f 520/647/554 536/648/554 544/649/554
f 521/650/555 537/651/555 546/652/555
f 517/628/556 538/640/556 541/653/556
f 518/641/557 540/643/557 543/654/557
f 519/644/558 542/646/558 545/655/558
f 520/647/559 544/649/559 547/656/559
f 521/650/560 546/652/560 539/657/560
f 522/658/561 548/659/561 553/660/561
f 523/661/562 549/662/562 555/663/562
f 524/664/563 550/665/563 556/666/563
f 525/667/564 551/668/564 557/669/564
f 526/670/565 552/671/565 554/672/565
f 554/672/566 557/673/566 527/674/566
f 554/672/567 552/671/567 557/673/567
f 552/671/568 525/667/568 557/673/568
f 557/669/569 556/675/569 527/676/569
f 557/669/570 551/668/570 556/675/570
f 551/668/571 524/664/571 556/675/571
f 556/666/572 555/677/572 527/678/572
f 556/666/573 550/665/573 555/677/573
f 550/665/574 523/679/574 555/677/574
f 555/663/575 553/680/575 527/681/575
f 555/663/576 549/662/576 553/680/576
f 549/662/577 522/658/577 553/680/577
f 553/660/578 554/682/578 527/683/578
f 553/660/579 548/659/579 554/682/579
f 548/659/580 526/670/580 554/682/580
f 539/657/581 552/671/581 526/670/581
f 539/657/582 546/652/582 552/671/582
f 546/652/583 525/667/583 552/671/583
f 547/656/584 551/668/584 525/667/584
f 547/656/585 544/649/585 551/668/585
f 544/649/586 524/664/586 551/668/586
f 545/655/587 550/665/587 524/664/587
f 545/655/588 542/646/588 550/665/588
f 542/646/589 523/679/589 550/665/589
f 543/654/590 549/662/590 523/661/590
f 543/654/591 540/643/591 549/662/591
f 540/643/592 522/658/592 549/662/592
f 541/653/593 548/659/593 522/658/593
f 541/653/594 538/640/594 548/659/594
f 538/640/595 526/670/595 548/659/595
f 546/652/596 547/656/596 525/667/596
f 546/652/597 537/651/597 547/656/597
f 537/651/598 520/647/598 547/656/598
f 544/649/599 545/655/599 524/664/599
f 544/649/600 536/648/600 545/655/600
f 536/648/601 519/644/601 545/655/601
f 542/646/602 543/684/602 523/679/602
f 542/646/603 534/645/603 543/684/603
f 534/645/604 518/685/604 543/684/604
f 540/643/605 541/653/605 522/658/605
f 540/643/606 530/642/606 541/653/606
f 530/642/607 517/628/607 541/653/607
f 538/640/608 539/657/608 526/670/608
f 538/640/609 531/630/609 539/657/609
f 531/630/610 521/650/610 539/657/610
f 532/639/611 537/651/611 521/650/611
f 532/639/612 535/638/612 537/651/612
f 535/638/613 520/647/613 537/651/613
f 535/636/614 536/648/614 520/647/614
f 535/636/615 533/635/615 536/648/615
f 533/635/616 519/644/616 536/648/616
f 533/633/617 534/645/617 519/644/617
f 533/633/618 528/632/618 534/645/618
f 528/632/619 518/685/619 534/645/619
f 531/630/620 532/686/620 521/650/620
f 531/630/621 529/629/621 532/686/621
f 529/629/622 516/687/622 532/686/622
f 528/627/623 530/642/623 518/641/623
f 528/627/624 529/626/624 530/642/624
f 529/626/625 517/628/625 530/642/625
